<svg width="1920" height="511" viewBox="0 0 1920 511" fill="none" xmlns="http://www.w3.org/2000/svg">
<rect width="1920" height="511" fill="url(#paint0_linear)"/>
<mask id="mask0" mask-type="alpha" maskUnits="userSpaceOnUse" x="0" y="0" width="1920" height="511">
<rect width="1920" height="511" fill="url(#paint1_linear)"/>
</mask>
<g mask="url(#mask0)">
<g opacity="0.18">
<path d="M-433.923 -160.857L-540.581 178.722C-551.168 212.836 -525.68 247.735 -489.997 247.735H-155.516C-132.38 247.735 -111.598 232.835 -104.932 210.484L1.3337 -129.095C11.921 -163.21 -13.567 -198.109 -49.2502 -198.109H-383.339C-406.474 -198.109 -427.257 -183.208 -433.923 -160.857Z" fill="url(#paint2_linear)"/>
<path d="M90.7375 694.364L226.412 260.675C240.136 217.15 207.59 172.448 161.712 172.448H-264.918C-294.72 172.448 -320.6 191.662 -329.619 219.894L-465.293 653.583C-479.018 697.501 -446.471 741.811 -400.985 741.811H26.0372C55.8385 741.811 82.1108 722.597 90.7375 694.364Z" fill="url(#paint3_linear)"/>
<path d="M535.013 464.187L646.376 109.316C657.748 73.6326 630.691 37.1652 593.439 37.1652H243.665C219.354 37.1652 197.787 52.8501 190.729 75.9853L79.3658 430.857C67.9942 466.54 95.0507 503.008 132.302 503.008H482.076C506.388 503.008 527.955 487.323 535.013 464.187Z" fill="url(#paint4_linear)"/>
<path d="M271.899 158.723L369.538 -153.015C379.341 -184.385 355.813 -216.539 322.875 -216.539H15.8425C-5.33213 -216.539 -24.154 -202.814 -30.8201 -182.424L-128.459 129.314C-138.262 160.684 -114.735 192.838 -81.7962 192.838H225.236C246.411 192.838 265.233 179.114 271.899 158.723Z" fill="url(#paint5_linear)"/>
</g>
</g>
<path d="M2160.54 0C2160.9 0 2161.08 0.434673 2160.82 0.688939L1652.77 508.882C1652.69 508.957 1652.59 509 1652.48 509V509C1652.12 509 1651.94 508.565 1652.2 508.311L2160.25 0.118261C2160.33 0.0425479 2160.43 0 2160.54 0V0Z" fill="url(#paint6_linear)"/>
<path d="M2151.22 0C2151.58 0 2151.76 0.434673 2151.5 0.688939L1643.45 508.882C1643.37 508.957 1643.27 509 1643.16 509V509C1642.8 509 1642.62 508.565 1642.88 508.311L2150.93 0.118261C2151.01 0.0425479 2151.11 0 2151.22 0V0Z" fill="url(#paint7_linear)"/>
<path d="M2141.99 0C2142.35 0 2142.53 0.434673 2142.28 0.688939L1634.22 508.882C1634.15 508.957 1634.04 509 1633.94 509V509C1633.58 509 1633.4 508.565 1633.65 508.311L2141.7 0.118261C2141.78 0.0425479 2141.88 0 2141.99 0V0Z" fill="url(#paint8_linear)"/>
<path d="M2132.67 0C2133.03 0 2133.21 0.434673 2132.95 0.688939L1624.9 508.882C1624.83 508.957 1624.72 509 1624.62 509V509C1624.26 509 1624.08 508.565 1624.33 508.311L2132.38 0.118261C2132.46 0.0425479 2132.56 0 2132.67 0V0Z" fill="url(#paint9_linear)"/>
<path d="M2123.44 0C2123.8 0 2123.98 0.434673 2123.73 0.688939L1615.68 508.882C1615.6 508.957 1615.5 509 1615.39 509V509C1615.03 509 1614.85 508.565 1615.1 508.311L2123.16 0.118261C2123.23 0.0425479 2123.34 0 2123.44 0V0Z" fill="url(#paint10_linear)"/>
<path d="M2114.12 0C2114.48 0 2114.66 0.434673 2114.41 0.688939L1606.35 508.882C1606.28 508.957 1606.18 509 1606.07 509V509C1605.71 509 1605.53 508.565 1605.78 508.311L2113.84 0.118261C2113.91 0.0425479 2114.01 0 2114.12 0V0Z" fill="url(#paint11_linear)"/>
<path d="M2104.81 0C2105.2 0 2105.4 0.470886 2105.12 0.746336L1597.14 508.872C1597.06 508.954 1596.94 509 1596.83 509V509C1596.44 509 1596.24 508.529 1596.52 508.254L2104.51 0.128121C2104.59 0.0461002 2104.7 0 2104.81 0V0Z" fill="url(#paint12_linear)"/>
<path d="M2095.57 0C2095.93 0 2096.11 0.434673 2095.86 0.688939L1587.81 508.882C1587.73 508.957 1587.63 509 1587.52 509V509C1587.16 509 1586.98 508.565 1587.24 508.311L2095.29 0.118261C2095.36 0.0425479 2095.47 0 2095.57 0V0Z" fill="url(#paint13_linear)"/>
<path d="M2086.35 0C2086.71 0 2086.89 0.434673 2086.63 0.688939L1578.58 508.882C1578.51 508.957 1578.4 509 1578.3 509V509C1577.94 509 1577.76 508.565 1578.01 508.311L2086.06 0.118261C2086.14 0.0425479 2086.24 0 2086.35 0V0Z" fill="url(#paint14_linear)"/>
<path d="M2077.03 0C2077.39 0 2077.57 0.434673 2077.31 0.688939L1569.26 508.882C1569.18 508.957 1569.08 509 1568.97 509V509C1568.61 509 1568.43 508.565 1568.69 508.311L2076.74 0.118261C2076.82 0.0425479 2076.92 0 2077.03 0V0Z" fill="url(#paint15_linear)"/>
<path d="M2254.7 0C2255.06 0 2255.24 0.434673 2254.99 0.688939L1746.93 508.882C1746.86 508.957 1746.75 509 1746.65 509V509C1746.29 509 1746.11 508.565 1746.36 508.311L2254.41 0.118261C2254.49 0.0425479 2254.59 0 2254.7 0V0Z" fill="url(#paint16_linear)"/>
<path d="M2245.38 0C2245.74 0 2245.92 0.434673 2245.66 0.688939L1737.61 508.882C1737.54 508.957 1737.43 509 1737.33 509V509C1736.97 509 1736.79 508.565 1737.04 508.311L2245.09 0.118261C2245.17 0.0425479 2245.27 0 2245.38 0V0Z" fill="url(#paint17_linear)"/>
<path d="M2236.15 0C2236.51 0 2236.69 0.434673 2236.44 0.688939L1728.39 508.882C1728.31 508.957 1728.21 509 1728.1 509V509C1727.74 509 1727.56 508.565 1727.81 508.311L2235.87 0.118261C2235.94 0.0425479 2236.05 0 2236.15 0V0Z" fill="url(#paint18_linear)"/>
<path d="M2226.83 0C2227.19 0 2227.37 0.434673 2227.12 0.688939L1719.06 508.882C1718.99 508.957 1718.89 509 1718.78 509V509C1718.42 509 1718.24 508.565 1718.49 508.311L2226.55 0.118261C2226.62 0.0425479 2226.72 0 2226.83 0V0Z" fill="url(#paint19_linear)"/>
<path d="M2217.61 0C2217.97 0 2218.15 0.434673 2217.89 0.688939L1709.84 508.882C1709.76 508.957 1709.66 509 1709.55 509V509C1709.19 509 1709.01 508.565 1709.27 508.311L2217.32 0.118261C2217.4 0.0425479 2217.5 0 2217.61 0V0Z" fill="url(#paint20_linear)"/>
<path d="M2208.28 0C2208.64 0 2208.82 0.434673 2208.57 0.688939L1700.52 508.882C1700.44 508.957 1700.34 509 1700.23 509V509C1699.87 509 1699.69 508.565 1699.95 508.311L2208 0.118261C2208.07 0.0425479 2208.18 0 2208.28 0V0Z" fill="url(#paint21_linear)"/>
<path d="M2198.98 0C2199.37 0 2199.56 0.470886 2199.29 0.746336L1691.3 508.872C1691.22 508.954 1691.11 509 1690.99 509V509C1690.6 509 1690.41 508.529 1690.68 508.254L2198.67 0.128121C2198.75 0.0461002 2198.86 0 2198.98 0V0Z" fill="url(#paint22_linear)"/>
<path d="M2189.74 0C2190.1 0 2190.28 0.434673 2190.02 0.688939L1681.97 508.882C1681.89 508.957 1681.79 509 1681.68 509V509C1681.32 509 1681.14 508.565 1681.4 508.311L2189.45 0.118261C2189.53 0.0425479 2189.63 0 2189.74 0V0Z" fill="url(#paint23_linear)"/>
<path d="M2180.51 0C2180.87 0 2181.05 0.434673 2180.8 0.688939L1672.74 508.882C1672.67 508.957 1672.57 509 1672.46 509V509C1672.1 509 1671.92 508.565 1672.17 508.311L2180.23 0.118261C2180.3 0.0425479 2180.4 0 2180.51 0V0Z" fill="url(#paint24_linear)"/>
<path d="M2171.19 0C2171.55 0 2171.73 0.434673 2171.48 0.688939L1663.42 508.882C1663.35 508.957 1663.24 509 1663.14 509V509C1662.78 509 1662.6 508.565 1662.85 508.311L2170.9 0.118261C2170.98 0.0425479 2171.08 0 2171.19 0V0Z" fill="url(#paint25_linear)"/>
<path d="M2348.86 0C2349.22 0 2349.4 0.434673 2349.15 0.688939L1841.1 508.882C1841.02 508.957 1840.92 509 1840.81 509V509C1840.45 509 1840.27 508.565 1840.52 508.311L2348.58 0.118261C2348.65 0.0425479 2348.76 0 2348.86 0V0Z" fill="url(#paint26_linear)"/>
<path d="M2339.54 0C2339.9 0 2340.08 0.434673 2339.83 0.688939L1831.77 508.882C1831.7 508.957 1831.6 509 1831.49 509V509C1831.13 509 1830.95 508.565 1831.2 508.311L2339.26 0.118261C2339.33 0.0425479 2339.43 0 2339.54 0V0Z" fill="url(#paint27_linear)"/>
<path d="M2330.32 0C2330.68 0 2330.86 0.434673 2330.6 0.688939L1822.55 508.882C1822.47 508.957 1822.37 509 1822.26 509V509C1821.9 509 1821.72 508.565 1821.98 508.311L2330.03 0.118261C2330.11 0.0425479 2330.21 0 2330.32 0V0Z" fill="url(#paint28_linear)"/>
<path d="M2320.99 0C2321.35 0 2321.53 0.434673 2321.28 0.688939L1813.23 508.882C1813.15 508.957 1813.05 509 1812.94 509V509C1812.58 509 1812.4 508.565 1812.66 508.311L2320.71 0.118261C2320.78 0.0425479 2320.89 0 2320.99 0V0Z" fill="url(#paint29_linear)"/>
<path d="M2311.77 0C2312.13 0 2312.31 0.434673 2312.05 0.688939L1804 508.882C1803.93 508.957 1803.82 509 1803.72 509V509C1803.36 509 1803.18 508.565 1803.43 508.311L2311.48 0.118261C2311.56 0.0425479 2311.66 0 2311.77 0V0Z" fill="url(#paint30_linear)"/>
<path d="M2302.45 0C2302.81 0 2302.99 0.434673 2302.73 0.688939L1794.68 508.882C1794.6 508.957 1794.5 509 1794.39 509V509C1794.03 509 1793.85 508.565 1794.11 508.311L2302.16 0.118261C2302.24 0.0425479 2302.34 0 2302.45 0V0Z" fill="url(#paint31_linear)"/>
<path d="M2293.14 0C2293.53 0 2293.72 0.470886 2293.45 0.746336L1785.46 508.872C1785.38 508.954 1785.27 509 1785.15 509V509C1784.76 509 1784.57 508.529 1784.85 508.254L2292.83 0.128121C2292.91 0.0461002 2293.02 0 2293.14 0V0Z" fill="url(#paint32_linear)"/>
<path d="M2283.9 0C2284.26 0 2284.44 0.434673 2284.19 0.688939L1776.13 508.882C1776.06 508.957 1775.95 509 1775.85 509V509C1775.49 509 1775.31 508.565 1775.56 508.311L2283.61 0.118261C2283.69 0.0425479 2283.79 0 2283.9 0V0Z" fill="url(#paint33_linear)"/>
<path d="M2274.67 0C2275.03 0 2275.21 0.434673 2274.96 0.688939L1766.91 508.882C1766.83 508.957 1766.73 509 1766.62 509V509C1766.26 509 1766.08 508.565 1766.34 508.311L2274.39 0.118261C2274.46 0.0425479 2274.57 0 2274.67 0V0Z" fill="url(#paint34_linear)"/>
<path d="M2265.35 0C2265.71 0 2265.89 0.434673 2265.64 0.688939L1757.59 508.882C1757.51 508.957 1757.41 509 1757.3 509V509C1756.94 509 1756.76 508.565 1757.01 508.311L2265.07 0.118261C2265.14 0.0425479 2265.25 0 2265.35 0V0Z" fill="url(#paint35_linear)"/>
<path d="M2443.03 0C2443.39 0 2443.57 0.434673 2443.31 0.688939L1935.26 508.882C1935.18 508.957 1935.08 509 1934.97 509V509C1934.61 509 1934.43 508.565 1934.69 508.311L2442.74 0.118261C2442.82 0.0425479 2442.92 0 2443.03 0V0Z" fill="url(#paint36_linear)"/>
<path d="M2433.7 0C2434.06 0 2434.24 0.434673 2433.99 0.688939L1925.94 508.882C1925.86 508.957 1925.76 509 1925.65 509V509C1925.29 509 1925.11 508.565 1925.37 508.311L2433.42 0.118261C2433.49 0.0425479 2433.6 0 2433.7 0V0Z" fill="url(#paint37_linear)"/>
<path d="M2424.48 0C2424.84 0 2425.02 0.434673 2424.76 0.688939L1916.71 508.882C1916.64 508.957 1916.53 509 1916.43 509V509C1916.07 509 1915.89 508.565 1916.14 508.311L2424.19 0.118261C2424.27 0.0425479 2424.37 0 2424.48 0V0Z" fill="url(#paint38_linear)"/>
<path d="M2415.16 0C2415.52 0 2415.7 0.434673 2415.44 0.688939L1907.39 508.882C1907.31 508.957 1907.21 509 1907.1 509V509C1906.74 509 1906.56 508.565 1906.82 508.311L2414.87 0.118261C2414.95 0.0425479 2415.05 0 2415.16 0V0Z" fill="url(#paint39_linear)"/>
<path d="M2405.93 0C2406.29 0 2406.47 0.434673 2406.22 0.688939L1898.16 508.882C1898.09 508.957 1897.99 509 1897.88 509V509C1897.52 509 1897.34 508.565 1897.59 508.311L2405.65 0.118261C2405.72 0.0425479 2405.82 0 2405.93 0V0Z" fill="url(#paint40_linear)"/>
<path d="M2396.61 0C2396.97 0 2397.15 0.434673 2396.9 0.688939L1888.84 508.882C1888.77 508.957 1888.66 509 1888.56 509V509C1888.2 509 1888.02 508.565 1888.27 508.311L2396.32 0.118261C2396.4 0.0425479 2396.5 0 2396.61 0V0Z" fill="url(#paint41_linear)"/>
<path d="M2387.3 0C2387.69 0 2387.89 0.470886 2387.61 0.746336L1879.63 508.872C1879.54 508.954 1879.43 509 1879.32 509V509C1878.93 509 1878.73 508.529 1879.01 508.254L2386.99 0.128121C2387.08 0.0461002 2387.19 0 2387.3 0V0Z" fill="url(#paint42_linear)"/>
<path d="M2378.06 0C2378.42 0 2378.6 0.434673 2378.35 0.688939L1870.3 508.882C1870.22 508.957 1870.12 509 1870.01 509V509C1869.65 509 1869.47 508.565 1869.72 508.311L2377.78 0.118261C2377.85 0.0425479 2377.96 0 2378.06 0V0Z" fill="url(#paint43_linear)"/>
<path d="M2368.84 0C2369.2 0 2369.38 0.434673 2369.12 0.688939L1861.07 508.882C1860.99 508.957 1860.89 509 1860.78 509V509C1860.42 509 1860.24 508.565 1860.5 508.311L2368.55 0.118261C2368.63 0.0425479 2368.73 0 2368.84 0V0Z" fill="url(#paint44_linear)"/>
<path d="M2359.52 0C2359.88 0 2360.06 0.434673 2359.8 0.688939L1851.75 508.882C1851.67 508.957 1851.57 509 1851.46 509V509C1851.1 509 1850.92 508.565 1851.18 508.311L2359.23 0.118261C2359.31 0.0425479 2359.41 0 2359.52 0V0Z" fill="url(#paint45_linear)"/>
<defs>
<linearGradient id="paint0_linear" x1="-191.652" y1="447.125" x2="3490.26" y2="1313.17" gradientUnits="userSpaceOnUse">
<stop stop-color="#179992"/>
<stop offset="1" stop-color="#1F3D8C"/>
</linearGradient>
<linearGradient id="paint1_linear" x1="-1382.5" y1="-91.4573" x2="1945.34" y2="780.341" gradientUnits="userSpaceOnUse">
<stop stop-color="#1F3D8C"/>
<stop offset="1" stop-color="#3297B9"/>
</linearGradient>
<linearGradient id="paint2_linear" x1="-505.551" y1="221.432" x2="28.2686" y2="-223.04" gradientUnits="userSpaceOnUse">
<stop stop-color="#1F3D8C"/>
<stop offset="1" stop-color="#3297B9"/>
</linearGradient>
<linearGradient id="paint3_linear" x1="182.154" y1="206.198" x2="-499.315" y2="773.607" gradientUnits="userSpaceOnUse">
<stop stop-color="#1F3D8C"/>
<stop offset="1" stop-color="#3297B9"/>
</linearGradient>
<linearGradient id="paint4_linear" x1="24.5293" y1="525.891" x2="680.397" y2="30.2634" gradientUnits="userSpaceOnUse">
<stop stop-color="#1F3D8C"/>
<stop offset="1" stop-color="#3297B9"/>
</linearGradient>
<linearGradient id="paint5_linear" x1="337.356" y1="-192.294" x2="-152.761" y2="215.791" gradientUnits="userSpaceOnUse">
<stop stop-color="#1F3D8C"/>
<stop offset="1" stop-color="#3297B9"/>
</linearGradient>
<linearGradient id="paint6_linear" x1="1612.7" y1="519.465" x2="1998.21" y2="256.368" gradientUnits="userSpaceOnUse">
<stop stop-color="#179992"/>
<stop offset="1" stop-color="#1B6B8F"/>
</linearGradient>
<linearGradient id="paint7_linear" x1="1612.7" y1="519.465" x2="1998.21" y2="256.368" gradientUnits="userSpaceOnUse">
<stop stop-color="#179992"/>
<stop offset="1" stop-color="#1B6B8F"/>
</linearGradient>
<linearGradient id="paint8_linear" x1="1612.7" y1="519.465" x2="1998.21" y2="256.368" gradientUnits="userSpaceOnUse">
<stop stop-color="#179992"/>
<stop offset="1" stop-color="#1B6B8F"/>
</linearGradient>
<linearGradient id="paint9_linear" x1="1612.7" y1="519.465" x2="1998.21" y2="256.368" gradientUnits="userSpaceOnUse">
<stop stop-color="#179992"/>
<stop offset="1" stop-color="#1B6B8F"/>
</linearGradient>
<linearGradient id="paint10_linear" x1="1612.7" y1="519.465" x2="1998.21" y2="256.368" gradientUnits="userSpaceOnUse">
<stop stop-color="#179992"/>
<stop offset="1" stop-color="#1B6B8F"/>
</linearGradient>
<linearGradient id="paint11_linear" x1="1612.7" y1="519.465" x2="1998.21" y2="256.368" gradientUnits="userSpaceOnUse">
<stop stop-color="#179992"/>
<stop offset="1" stop-color="#1B6B8F"/>
</linearGradient>
<linearGradient id="paint12_linear" x1="1612.7" y1="519.465" x2="1998.21" y2="256.368" gradientUnits="userSpaceOnUse">
<stop stop-color="#179992"/>
<stop offset="1" stop-color="#1B6B8F"/>
</linearGradient>
<linearGradient id="paint13_linear" x1="1612.7" y1="519.465" x2="1998.21" y2="256.368" gradientUnits="userSpaceOnUse">
<stop stop-color="#179992"/>
<stop offset="1" stop-color="#1B6B8F"/>
</linearGradient>
<linearGradient id="paint14_linear" x1="1612.7" y1="519.465" x2="1998.21" y2="256.368" gradientUnits="userSpaceOnUse">
<stop stop-color="#179992"/>
<stop offset="1" stop-color="#1B6B8F"/>
</linearGradient>
<linearGradient id="paint15_linear" x1="1612.7" y1="519.465" x2="1998.21" y2="256.368" gradientUnits="userSpaceOnUse">
<stop stop-color="#179992"/>
<stop offset="1" stop-color="#1B6B8F"/>
</linearGradient>
<linearGradient id="paint16_linear" x1="1612.7" y1="519.465" x2="1998.21" y2="256.368" gradientUnits="userSpaceOnUse">
<stop stop-color="#179992"/>
<stop offset="1" stop-color="#1B6B8F"/>
</linearGradient>
<linearGradient id="paint17_linear" x1="1612.7" y1="519.465" x2="1998.21" y2="256.368" gradientUnits="userSpaceOnUse">
<stop stop-color="#179992"/>
<stop offset="1" stop-color="#1B6B8F"/>
</linearGradient>
<linearGradient id="paint18_linear" x1="1612.7" y1="519.465" x2="1998.21" y2="256.368" gradientUnits="userSpaceOnUse">
<stop stop-color="#179992"/>
<stop offset="1" stop-color="#1B6B8F"/>
</linearGradient>
<linearGradient id="paint19_linear" x1="1612.7" y1="519.465" x2="1998.21" y2="256.368" gradientUnits="userSpaceOnUse">
<stop stop-color="#179992"/>
<stop offset="1" stop-color="#1B6B8F"/>
</linearGradient>
<linearGradient id="paint20_linear" x1="1612.7" y1="519.465" x2="1998.21" y2="256.368" gradientUnits="userSpaceOnUse">
<stop stop-color="#179992"/>
<stop offset="1" stop-color="#1B6B8F"/>
</linearGradient>
<linearGradient id="paint21_linear" x1="1612.7" y1="519.465" x2="1998.21" y2="256.368" gradientUnits="userSpaceOnUse">
<stop stop-color="#179992"/>
<stop offset="1" stop-color="#1B6B8F"/>
</linearGradient>
<linearGradient id="paint22_linear" x1="1612.7" y1="519.465" x2="1998.21" y2="256.368" gradientUnits="userSpaceOnUse">
<stop stop-color="#179992"/>
<stop offset="1" stop-color="#1B6B8F"/>
</linearGradient>
<linearGradient id="paint23_linear" x1="1612.7" y1="519.465" x2="1998.21" y2="256.368" gradientUnits="userSpaceOnUse">
<stop stop-color="#179992"/>
<stop offset="1" stop-color="#1B6B8F"/>
</linearGradient>
<linearGradient id="paint24_linear" x1="1612.7" y1="519.465" x2="1998.21" y2="256.368" gradientUnits="userSpaceOnUse">
<stop stop-color="#179992"/>
<stop offset="1" stop-color="#1B6B8F"/>
</linearGradient>
<linearGradient id="paint25_linear" x1="1612.7" y1="519.465" x2="1998.21" y2="256.368" gradientUnits="userSpaceOnUse">
<stop stop-color="#179992"/>
<stop offset="1" stop-color="#1B6B8F"/>
</linearGradient>
<linearGradient id="paint26_linear" x1="1612.7" y1="519.465" x2="1998.21" y2="256.368" gradientUnits="userSpaceOnUse">
<stop stop-color="#179992"/>
<stop offset="1" stop-color="#1B6B8F"/>
</linearGradient>
<linearGradient id="paint27_linear" x1="1612.7" y1="519.465" x2="1998.21" y2="256.368" gradientUnits="userSpaceOnUse">
<stop stop-color="#179992"/>
<stop offset="1" stop-color="#1B6B8F"/>
</linearGradient>
<linearGradient id="paint28_linear" x1="1612.7" y1="519.465" x2="1998.21" y2="256.368" gradientUnits="userSpaceOnUse">
<stop stop-color="#179992"/>
<stop offset="1" stop-color="#1B6B8F"/>
</linearGradient>
<linearGradient id="paint29_linear" x1="1612.7" y1="519.465" x2="1998.21" y2="256.368" gradientUnits="userSpaceOnUse">
<stop stop-color="#179992"/>
<stop offset="1" stop-color="#1B6B8F"/>
</linearGradient>
<linearGradient id="paint30_linear" x1="1612.7" y1="519.465" x2="1998.21" y2="256.368" gradientUnits="userSpaceOnUse">
<stop stop-color="#179992"/>
<stop offset="1" stop-color="#1B6B8F"/>
</linearGradient>
<linearGradient id="paint31_linear" x1="1612.7" y1="519.465" x2="1998.21" y2="256.368" gradientUnits="userSpaceOnUse">
<stop stop-color="#179992"/>
<stop offset="1" stop-color="#1B6B8F"/>
</linearGradient>
<linearGradient id="paint32_linear" x1="1612.7" y1="519.465" x2="1998.21" y2="256.368" gradientUnits="userSpaceOnUse">
<stop stop-color="#179992"/>
<stop offset="1" stop-color="#1B6B8F"/>
</linearGradient>
<linearGradient id="paint33_linear" x1="1612.7" y1="519.465" x2="1998.21" y2="256.368" gradientUnits="userSpaceOnUse">
<stop stop-color="#179992"/>
<stop offset="1" stop-color="#1B6B8F"/>
</linearGradient>
<linearGradient id="paint34_linear" x1="1612.7" y1="519.465" x2="1998.21" y2="256.368" gradientUnits="userSpaceOnUse">
<stop stop-color="#179992"/>
<stop offset="1" stop-color="#1B6B8F"/>
</linearGradient>
<linearGradient id="paint35_linear" x1="1612.7" y1="519.465" x2="1998.21" y2="256.368" gradientUnits="userSpaceOnUse">
<stop stop-color="#179992"/>
<stop offset="1" stop-color="#1B6B8F"/>
</linearGradient>
<linearGradient id="paint36_linear" x1="1612.7" y1="519.465" x2="1998.21" y2="256.368" gradientUnits="userSpaceOnUse">
<stop stop-color="#179992"/>
<stop offset="1" stop-color="#1B6B8F"/>
</linearGradient>
<linearGradient id="paint37_linear" x1="1612.7" y1="519.465" x2="1998.21" y2="256.368" gradientUnits="userSpaceOnUse">
<stop stop-color="#179992"/>
<stop offset="1" stop-color="#1B6B8F"/>
</linearGradient>
<linearGradient id="paint38_linear" x1="1612.7" y1="519.465" x2="1998.21" y2="256.368" gradientUnits="userSpaceOnUse">
<stop stop-color="#179992"/>
<stop offset="1" stop-color="#1B6B8F"/>
</linearGradient>
<linearGradient id="paint39_linear" x1="1612.7" y1="519.465" x2="1998.21" y2="256.368" gradientUnits="userSpaceOnUse">
<stop stop-color="#179992"/>
<stop offset="1" stop-color="#1B6B8F"/>
</linearGradient>
<linearGradient id="paint40_linear" x1="1612.7" y1="519.465" x2="1998.21" y2="256.368" gradientUnits="userSpaceOnUse">
<stop stop-color="#179992"/>
<stop offset="1" stop-color="#1B6B8F"/>
</linearGradient>
<linearGradient id="paint41_linear" x1="1612.7" y1="519.465" x2="1998.21" y2="256.368" gradientUnits="userSpaceOnUse">
<stop stop-color="#179992"/>
<stop offset="1" stop-color="#1B6B8F"/>
</linearGradient>
<linearGradient id="paint42_linear" x1="1612.7" y1="519.465" x2="1998.21" y2="256.368" gradientUnits="userSpaceOnUse">
<stop stop-color="#179992"/>
<stop offset="1" stop-color="#1B6B8F"/>
</linearGradient>
<linearGradient id="paint43_linear" x1="1612.7" y1="519.465" x2="1998.21" y2="256.368" gradientUnits="userSpaceOnUse">
<stop stop-color="#179992"/>
<stop offset="1" stop-color="#1B6B8F"/>
</linearGradient>
<linearGradient id="paint44_linear" x1="1612.7" y1="519.465" x2="1998.21" y2="256.368" gradientUnits="userSpaceOnUse">
<stop stop-color="#179992"/>
<stop offset="1" stop-color="#1B6B8F"/>
</linearGradient>
<linearGradient id="paint45_linear" x1="1612.7" y1="519.465" x2="1998.21" y2="256.368" gradientUnits="userSpaceOnUse">
<stop stop-color="#179992"/>
<stop offset="1" stop-color="#1B6B8F"/>
</linearGradient>
</defs>
</svg>
