<svg width="630" height="442" viewBox="0 0 630 442" fill="none" xmlns="http://www.w3.org/2000/svg">
<rect x="30" y="10" width="570" height="382" rx="8" fill="url(#paint0_linear)"/>
<g filter="url(#filter0_d)">
<mask id="mask0" mask-type="alpha" maskUnits="userSpaceOnUse" x="30" y="10" width="570" height="382">
<rect x="30" y="10" width="570" height="382" rx="8" fill="url(#paint1_linear)"/>
</mask>
<g mask="url(#mask0)">
<g opacity="0.21">
<path d="M-71.7773 385.214L-175.644 131.292C-185.954 105.783 -161.133 79.6868 -126.384 79.6868H199.345C221.875 79.6868 242.114 90.8288 248.605 107.542L352.09 361.463C362.401 386.973 337.579 413.069 302.83 413.069H-22.517C-45.0469 413.069 -65.2856 401.927 -71.7773 385.214Z" fill="url(#paint2_linear)"/>
<path d="M439.155 -254.282L571.279 70.0108C584.644 102.557 552.95 135.983 508.272 135.983H92.8054C63.7838 135.983 38.5809 121.616 29.798 100.505L-102.326 -223.788C-115.692 -256.627 -83.997 -289.76 -39.701 -289.76H376.147C405.169 -289.76 430.754 -275.393 439.155 -254.282Z" fill="url(#paint3_linear)"/>
<path d="M871.805 -82.1659L980.254 183.191C991.328 209.873 964.979 237.142 928.702 237.142H588.081C564.405 237.142 543.403 225.413 536.529 208.114L428.08 -57.2429C417.006 -83.9251 443.355 -111.194 479.632 -111.194H820.253C843.929 -111.194 864.931 -99.4654 871.805 -82.1659Z" fill="url(#paint4_linear)"/>
<path d="M615.575 146.246L710.659 379.349C720.206 402.806 697.294 426.85 665.217 426.85H366.219C345.598 426.85 327.269 416.587 320.777 401.34L225.693 168.237C216.147 144.78 239.059 120.736 271.135 120.736H570.133C590.754 120.736 609.083 130.999 615.575 146.246Z" fill="url(#paint5_linear)"/>
</g>
</g>
</g>
<path d="M490.626 191H548.183C549.76 191 550.982 192.425 550.727 193.952L548.386 208.812C548.183 210.084 547.114 211 545.842 211H488.59C487.521 211 486.554 210.338 486.147 209.372L483.043 201.992C482.788 201.382 482.839 200.618 483.195 200.059L488.386 192.17C488.895 191.458 489.709 191 490.626 191Z" fill="white"/>
<path d="M498.121 197.363H494.538C493.928 197.363 493.584 197.681 493.507 198.317L493.197 200.508H497.18L497.09 201.165H493.107L492.733 203.923C492.639 204.533 492.897 204.838 493.507 204.838H497.064V205.482C496.273 205.534 495.049 205.56 493.391 205.56C492.841 205.56 492.433 205.414 492.166 205.122C491.9 204.829 491.801 204.434 491.87 203.936L492.695 198.085C492.755 197.638 492.935 197.285 493.236 197.028C493.537 196.77 493.932 196.641 494.422 196.641C496.166 196.641 497.438 196.667 498.237 196.718L498.121 197.363Z" fill="#262626"/>
<path d="M507.345 196.654H508.35C508.47 196.654 508.56 196.693 508.621 196.77C508.681 196.839 508.707 196.933 508.698 197.053L507.873 205.547H507.035L507.847 197.363H507.577L504.277 204.348C504.208 204.529 504.08 204.619 503.891 204.619H503.04C502.825 204.619 502.705 204.516 502.679 204.31L501.3 197.363H501.016L499.547 205.547H498.697L500.256 197.015C500.308 196.774 500.441 196.654 500.656 196.654H501.648C501.846 196.654 501.957 196.757 501.983 196.963L503.156 202.776C503.182 202.913 503.216 203.12 503.259 203.395C503.302 203.661 503.336 203.859 503.362 203.987H503.646C503.843 203.515 504.024 203.107 504.187 202.763L506.945 196.937C507.022 196.748 507.156 196.654 507.345 196.654Z" fill="#262626"/>
<path d="M510.929 205.547H510.079L511.329 196.654H512.18L510.929 205.547Z" fill="#262626"/>
<path d="M517.077 201.771L515.247 201.062C514.637 200.821 514.225 200.516 514.01 200.147C513.795 199.777 513.726 199.279 513.804 198.652C513.872 198.17 513.988 197.784 514.152 197.492C514.315 197.191 514.538 196.972 514.822 196.834C515.114 196.697 515.41 196.607 515.711 196.564C516.02 196.521 516.416 196.504 516.897 196.512C517.816 196.512 518.667 196.585 519.449 196.731L519.346 197.337C518.392 197.285 517.541 197.26 516.794 197.26C516.544 197.26 516.355 197.264 516.227 197.273C516.106 197.273 515.952 197.29 515.763 197.324C515.582 197.35 515.445 197.393 515.35 197.453C515.256 197.513 515.153 197.599 515.041 197.711C514.938 197.814 514.856 197.951 514.796 198.123C514.736 198.295 514.689 198.501 514.654 198.742C514.603 199.197 514.641 199.532 514.77 199.747C514.908 199.962 515.195 200.16 515.634 200.34L517.438 201.036C518.1 201.294 518.534 201.603 518.74 201.964C518.946 202.316 519.006 202.823 518.92 203.485C518.851 203.966 518.74 204.353 518.585 204.645C518.43 204.937 518.207 205.16 517.915 205.315C517.623 205.47 517.309 205.568 516.974 205.611C516.639 205.663 516.196 205.689 515.647 205.689C514.719 205.689 513.846 205.624 513.03 205.495L513.146 204.864C514.186 204.915 515.041 204.941 515.711 204.941C516.527 204.933 517.099 204.834 517.425 204.645C517.76 204.456 517.975 204.039 518.07 203.395C518.13 202.913 518.091 202.57 517.954 202.363C517.825 202.157 517.533 201.96 517.077 201.771Z" fill="#262626"/>
<path d="M524.264 201.771L522.434 201.062C521.824 200.821 521.411 200.516 521.197 200.147C520.982 199.777 520.913 199.279 520.99 198.652C521.059 198.17 521.175 197.784 521.338 197.492C521.502 197.191 521.725 196.972 522.008 196.834C522.301 196.697 522.597 196.607 522.898 196.564C523.207 196.521 523.602 196.504 524.083 196.512C525.003 196.512 525.854 196.585 526.635 196.731L526.532 197.337C525.579 197.285 524.728 197.26 523.98 197.26C523.731 197.26 523.542 197.264 523.413 197.273C523.293 197.273 523.138 197.29 522.949 197.324C522.769 197.35 522.631 197.393 522.537 197.453C522.442 197.513 522.339 197.599 522.228 197.711C522.124 197.814 522.043 197.951 521.983 198.123C521.923 198.295 521.875 198.501 521.841 198.742C521.789 199.197 521.828 199.532 521.957 199.747C522.094 199.962 522.382 200.16 522.82 200.34L524.625 201.036C525.286 201.294 525.72 201.603 525.927 201.964C526.133 202.316 526.193 202.823 526.107 203.485C526.038 203.966 525.927 204.353 525.772 204.645C525.617 204.937 525.394 205.16 525.102 205.315C524.81 205.47 524.496 205.568 524.161 205.611C523.826 205.663 523.383 205.689 522.833 205.689C521.905 205.689 521.033 205.624 520.217 205.495L520.333 204.864C521.373 204.915 522.228 204.941 522.898 204.941C523.714 204.933 524.285 204.834 524.612 204.645C524.947 204.456 525.162 204.039 525.256 203.395C525.316 202.913 525.278 202.57 525.14 202.363C525.011 202.157 524.719 201.96 524.264 201.771Z" fill="#262626"/>
<path d="M531.992 196.499C533.238 196.499 534.08 196.852 534.518 197.556C534.956 198.252 535.055 199.446 534.815 201.139C534.583 202.84 534.17 204.026 533.577 204.696C532.984 205.366 532.065 205.702 530.819 205.702C529.573 205.702 528.727 205.354 528.28 204.658C527.842 203.962 527.739 202.763 527.971 201.062C528.203 199.369 528.615 198.188 529.208 197.517C529.801 196.839 530.729 196.499 531.992 196.499ZM531.966 197.247C530.987 197.247 530.274 197.526 529.827 198.085C529.38 198.643 529.049 199.661 528.834 201.139C528.637 202.574 528.68 203.571 528.963 204.129C529.255 204.679 529.878 204.954 530.832 204.954C531.794 204.954 532.499 204.675 532.946 204.116C533.401 203.549 533.732 202.531 533.938 201.062C534.153 199.61 534.119 198.613 533.835 198.072C533.552 197.522 532.929 197.247 531.966 197.247Z" fill="#262626"/>
<path d="M536.233 205.547L537.483 196.654C538.214 196.585 539.197 196.551 540.435 196.551C541.414 196.551 542.102 196.74 542.497 197.118C542.892 197.487 543.025 198.158 542.896 199.128C542.793 199.85 542.587 200.392 542.278 200.752C541.968 201.105 541.513 201.324 540.912 201.41L540.899 201.474C541.371 201.612 541.672 202.033 541.801 202.737L542.368 205.547H541.504L540.963 202.737C540.894 202.376 540.77 202.123 540.589 201.977C540.418 201.822 540.173 201.741 539.855 201.732C539.588 201.732 539.292 201.732 538.965 201.732C538.639 201.723 538.368 201.719 538.153 201.719C537.939 201.71 537.758 201.706 537.612 201.706L537.071 205.547H536.233ZM537.702 200.997H539.816C540.546 200.989 541.071 200.851 541.388 200.585C541.715 200.31 541.93 199.812 542.033 199.09C542.136 198.385 542.072 197.908 541.84 197.659C541.608 197.401 541.135 197.273 540.422 197.273C539.648 197.273 538.918 197.281 538.231 197.298L537.702 200.997Z" fill="#262626"/>
<path d="M485.283 201.891C485.676 201.891 485.995 201.572 485.995 201.178C485.995 200.785 485.676 200.466 485.283 200.466C484.889 200.466 484.57 200.785 484.57 201.178C484.57 201.572 484.889 201.891 485.283 201.891Z" fill="#262626"/>
<path d="M418.209 200.822L415.562 199.753C414.545 199.346 413.883 198.786 413.527 198.176C413.17 197.514 413.069 196.7 413.17 195.733C413.374 194.257 413.883 193.29 414.697 192.781C415.511 192.272 416.835 192.018 418.565 192.018C420.295 192.018 421.822 192.221 423.094 192.578L422.789 194.613C421.567 194.562 420.142 194.562 418.514 194.562C417.7 194.562 417.14 194.613 416.835 194.766C416.529 194.919 416.326 195.275 416.275 195.886C416.224 196.344 416.224 196.649 416.377 196.852C416.529 197.056 416.835 197.209 417.394 197.412L419.888 198.379C420.957 198.786 421.618 199.295 421.975 199.906C422.331 200.517 422.433 201.382 422.28 202.45C422.076 203.977 421.567 204.995 420.804 205.504C420.041 206.013 418.667 206.267 416.835 206.267C415.206 206.267 413.628 206.115 412 205.758L412.305 203.57C415.155 203.621 416.58 203.672 416.631 203.672C417.547 203.672 418.209 203.57 418.565 203.417C418.921 203.214 419.125 202.858 419.226 202.247C419.277 201.789 419.226 201.483 419.125 201.331C418.921 201.127 418.667 200.975 418.209 200.822Z" fill="white"/>
<path d="M432.103 203.672L432.306 205.555C431.186 206.013 429.762 206.267 427.929 206.267C426.047 206.267 424.723 205.809 424.011 204.944C423.298 204.079 423.044 202.705 423.248 200.873C423.502 198.939 424.062 197.667 424.876 196.954C425.741 196.242 427.115 195.885 428.998 195.885C430.728 195.885 431.899 196.191 432.561 196.751C433.171 197.31 433.426 198.176 433.273 199.295C433.12 200.211 432.764 200.873 432.103 201.28C431.492 201.687 430.525 201.941 429.202 201.992L426.25 202.196C426.25 202.858 426.403 203.265 426.759 203.519C427.064 203.723 427.573 203.875 428.235 203.875C429.558 203.926 430.881 203.824 432.103 203.672ZM426.454 200.517L428.744 200.313C429.304 200.262 429.66 200.16 429.914 200.008C430.169 199.855 430.321 199.499 430.372 199.041C430.423 198.583 430.321 198.328 430.118 198.226C429.914 198.125 429.456 198.074 428.795 198.074C428.031 198.074 427.471 198.226 427.166 198.583C426.912 198.888 426.657 199.55 426.454 200.517Z" fill="white"/>
<path d="M437.242 196.191V197.972C437.955 197.26 438.616 196.751 439.278 196.394C439.939 196.038 440.55 195.885 441.263 195.885C441.975 195.885 442.535 196.038 442.993 196.344C443.4 196.649 443.654 197.107 443.705 197.718C444.927 196.496 446.199 195.885 447.42 195.885C448.336 195.885 448.998 196.14 449.405 196.649C449.812 197.158 449.965 197.819 449.863 198.684L448.845 206.013H445.894L446.81 199.499C446.861 199.092 446.81 198.786 446.708 198.634C446.606 198.481 446.403 198.379 446.097 198.379C445.741 198.379 445.385 198.481 445.029 198.684C444.672 198.888 444.163 199.295 443.502 199.855L442.637 205.962H439.787L440.703 199.448C440.754 199.041 440.754 198.786 440.652 198.583C440.55 198.43 440.347 198.328 439.99 198.328C439.634 198.328 439.278 198.43 438.871 198.634C438.464 198.837 438.006 199.193 437.395 199.753L436.53 205.962H433.578L434.952 196.14H437.242V196.191Z" fill="white"/>
<path d="M454.188 196.191L454.137 198.074C454.748 197.463 455.409 196.954 456.122 196.547C456.834 196.14 457.598 195.936 458.31 195.936C459.481 195.936 460.295 196.343 460.702 197.158C461.16 197.972 461.211 199.346 460.956 201.28C460.855 202.145 460.651 202.857 460.447 203.468C460.244 204.079 459.989 204.537 459.735 204.893C459.481 205.249 459.124 205.555 458.768 205.758C458.412 205.962 458.005 206.114 457.598 206.165C457.292 206.267 456.834 206.267 456.325 206.267C455.358 206.267 454.341 206.165 453.374 206.013C453.374 206.623 453.323 207.234 453.221 207.845L452.865 209.829H449.913L451.847 196.191H454.188ZM453.73 204.231H455.257C456.274 204.231 456.936 204.079 457.241 203.723C457.547 203.366 457.801 202.552 457.954 201.28C458.106 200.008 458.157 199.244 458.056 198.888C457.954 198.532 457.699 198.379 457.241 198.379C456.885 198.379 456.427 198.532 455.918 198.837C455.358 199.142 454.849 199.499 454.29 200.008L453.73 204.231Z" fill="white"/>
<path d="M470.168 195.936L469.506 198.634H468.794C468.387 198.634 467.928 198.735 467.47 198.888C467.012 199.092 466.351 199.397 465.486 199.855L464.621 206.013H461.669L463.043 196.191H465.333V198.023C466.86 196.598 468.234 195.885 469.557 195.885H470.168V195.936Z" fill="white"/>
<path d="M478.514 203.672L478.717 205.555C477.598 206.013 476.173 206.267 474.341 206.267C472.458 206.267 471.135 205.809 470.422 204.944C469.71 204.079 469.455 202.705 469.659 200.873C469.913 198.939 470.473 197.667 471.287 196.954C472.152 196.242 473.526 195.885 475.409 195.885C477.14 195.885 478.31 196.191 478.972 196.751C479.582 197.31 479.837 198.176 479.684 199.295C479.531 200.211 479.175 200.873 478.514 201.28C477.903 201.687 476.936 201.941 475.613 201.992L472.661 202.196C472.661 202.858 472.814 203.265 473.17 203.519C473.475 203.723 473.984 203.875 474.646 203.875C476.02 203.926 477.292 203.824 478.514 203.672ZM472.865 200.517L475.155 200.313C475.715 200.262 476.071 200.16 476.325 200.008C476.58 199.855 476.732 199.499 476.783 199.041C476.834 198.583 476.732 198.328 476.529 198.226C476.325 198.125 475.867 198.074 475.206 198.074C474.442 198.074 473.883 198.226 473.577 198.583C473.323 198.888 473.068 199.55 472.865 200.517Z" fill="white"/>
<path d="M126.146 191.232L124.81 190.691C124.298 190.492 123.957 190.208 123.786 189.867C123.616 189.526 123.559 189.128 123.616 188.616C123.729 187.877 123.985 187.365 124.383 187.109C124.781 186.853 125.435 186.74 126.317 186.74C127.198 186.74 127.966 186.825 128.591 187.024L128.449 188.076C127.852 188.047 127.113 188.047 126.288 188.047C125.862 188.047 125.606 188.076 125.435 188.133C125.293 188.19 125.179 188.389 125.151 188.701C125.123 188.929 125.123 189.099 125.208 189.185C125.265 189.27 125.435 189.384 125.72 189.469L126.971 189.952C127.511 190.151 127.852 190.436 128.023 190.748C128.193 191.061 128.25 191.488 128.165 192.056C128.051 192.824 127.824 193.336 127.426 193.62C127.027 193.876 126.345 194.018 125.407 194.018C124.611 194.018 123.815 193.933 122.99 193.734L123.161 192.625C124.582 192.653 125.322 192.682 125.35 192.682C125.833 192.682 126.146 192.625 126.317 192.54C126.487 192.454 126.601 192.255 126.629 191.942C126.658 191.715 126.629 191.544 126.573 191.459C126.516 191.402 126.374 191.317 126.146 191.232Z" fill="white"/>
<path d="M130.468 193.876H128.989L129.7 188.872H131.178L130.468 193.876ZM130.382 186.654H131.008C131.321 186.654 131.463 186.796 131.434 187.109L131.378 187.649C131.349 187.933 131.178 188.047 130.894 188.047H130.269C129.956 188.047 129.814 187.905 129.871 187.592L129.927 187.052C129.927 186.796 130.098 186.654 130.382 186.654Z" fill="white"/>
<path d="M134.25 192.084L133.055 191.573C132.657 191.402 132.373 191.203 132.203 190.947C132.032 190.691 131.975 190.378 132.032 190.009C132.089 189.554 132.288 189.213 132.629 189.014C132.97 188.815 133.51 188.701 134.278 188.729C135.188 188.729 135.984 188.815 136.581 188.928L136.439 189.895C135.131 189.867 134.477 189.867 134.449 189.867C134.051 189.867 133.795 189.895 133.681 189.924C133.539 189.952 133.482 190.037 133.454 190.151C133.454 190.265 133.482 190.35 133.539 190.407C133.624 190.464 133.766 190.549 133.994 190.634L135.216 191.118C135.643 191.288 135.927 191.487 136.098 191.715C136.268 191.942 136.325 192.255 136.268 192.625C136.24 192.909 136.155 193.165 136.041 193.364C135.927 193.563 135.756 193.705 135.529 193.79C135.302 193.876 135.074 193.961 134.818 193.989C134.562 194.018 134.221 194.046 133.823 194.046C133.226 194.046 132.487 193.989 131.605 193.876L131.748 192.909C132.004 192.909 132.515 192.937 133.34 192.937C133.908 192.937 134.306 192.909 134.505 192.88C134.704 192.852 134.79 192.738 134.818 192.625C134.818 192.511 134.818 192.454 134.733 192.397C134.676 192.34 134.534 192.283 134.363 192.226C134.335 192.113 134.278 192.113 134.25 192.084Z" fill="white"/>
<path d="M139.537 189.895L139.195 192.284C139.167 192.483 139.195 192.596 139.252 192.653C139.309 192.71 139.451 192.738 139.65 192.738H140.333L140.39 193.79C140.02 193.933 139.565 193.989 138.996 193.989C138.513 193.989 138.172 193.847 137.944 193.591C137.717 193.336 137.632 192.966 137.689 192.511L138.087 189.867H137.177L137.29 188.9L138.2 188.843L138.399 187.45H139.878L139.679 188.843H141.072L140.93 189.838H139.537V189.895Z" fill="white"/>
<path d="M145.793 192.681L145.907 193.648C145.338 193.876 144.599 193.989 143.689 193.989C142.722 193.989 142.068 193.762 141.727 193.307C141.358 192.852 141.244 192.17 141.358 191.26C141.471 190.293 141.756 189.611 142.182 189.27C142.609 188.929 143.319 188.729 144.258 188.729C145.139 188.729 145.736 188.872 146.049 189.156C146.362 189.44 146.475 189.867 146.39 190.435C146.333 190.919 146.134 191.26 145.821 191.459C145.509 191.658 145.025 191.8 144.343 191.829L142.865 191.942C142.865 192.283 142.95 192.511 143.12 192.625C143.291 192.738 143.518 192.795 143.888 192.795C144.542 192.795 145.167 192.767 145.793 192.681ZM142.95 191.089L144.115 190.976C144.4 190.947 144.57 190.89 144.713 190.805C144.826 190.72 144.912 190.549 144.94 190.322C144.968 190.094 144.912 189.952 144.826 189.895C144.713 189.838 144.514 189.81 144.172 189.838C143.774 189.838 143.49 189.924 143.348 190.094C143.177 190.236 143.035 190.578 142.95 191.089Z" fill="white"/>
<path d="M148.749 188.872V189.781C149.119 189.412 149.46 189.156 149.773 188.985C150.086 188.815 150.427 188.729 150.768 188.729C151.138 188.729 151.422 188.815 151.621 188.985C151.82 189.156 151.962 189.383 151.991 189.668C152.616 189.042 153.242 188.729 153.867 188.729C154.322 188.729 154.663 188.843 154.891 189.099C155.118 189.355 155.175 189.696 155.118 190.151L154.606 193.876H153.128L153.583 190.549C153.611 190.35 153.583 190.208 153.526 190.123C153.469 190.037 153.355 190.009 153.213 190.009C153.043 190.009 152.872 190.066 152.673 190.179C152.474 190.293 152.218 190.492 151.905 190.777L151.479 193.904H150.029L150.484 190.578C150.512 190.379 150.512 190.236 150.455 190.151C150.398 190.066 150.285 190.037 150.143 190.037C149.972 190.037 149.773 190.094 149.602 190.208C149.432 190.322 149.147 190.492 148.835 190.777L148.408 193.932H146.901L147.612 188.929H148.749V188.872Z" fill="white"/>
<path d="M160.577 193.876H159.411V192.966C158.899 193.62 158.217 193.961 157.364 193.989C156.738 194.018 156.312 193.819 156.084 193.364C155.857 192.937 155.829 192.227 155.971 191.26C156.028 190.805 156.141 190.407 156.255 190.094C156.369 189.781 156.511 189.526 156.653 189.355C156.795 189.184 156.994 189.042 157.222 188.929C157.449 188.843 157.677 188.786 157.904 188.758C158.131 188.729 158.416 188.729 158.729 188.729C159.098 188.729 159.525 188.758 160.008 188.815C160.52 188.872 160.918 188.957 161.202 189.042L160.577 193.876ZM159.638 189.838H158.871C158.387 189.838 158.046 189.924 157.876 190.094C157.705 190.265 157.563 190.663 157.478 191.288C157.392 191.942 157.364 192.34 157.421 192.511C157.478 192.681 157.62 192.767 157.847 192.767C158.302 192.767 158.785 192.454 159.354 191.829L159.638 189.838Z" fill="white"/>
<path d="M164.3 192.084L163.106 191.573C162.708 191.402 162.424 191.203 162.253 190.947C162.083 190.691 162.026 190.378 162.083 190.009C162.14 189.554 162.339 189.213 162.68 189.014C163.021 188.815 163.561 188.701 164.329 188.729C165.239 188.729 166.035 188.815 166.632 188.928L166.49 189.895C165.182 189.867 164.528 189.867 164.5 189.867C164.101 189.867 163.846 189.895 163.703 189.924C163.561 189.952 163.504 190.037 163.476 190.151C163.476 190.265 163.504 190.35 163.561 190.407C163.647 190.464 163.789 190.549 164.016 190.634L165.239 191.118C165.665 191.288 165.95 191.487 166.12 191.715C166.291 191.942 166.348 192.255 166.291 192.625C166.262 192.909 166.177 193.165 166.063 193.364C165.95 193.563 165.779 193.705 165.551 193.79C165.324 193.876 165.097 193.961 164.841 193.989C164.585 194.018 164.244 194.046 163.846 194.046C163.249 194.046 162.509 193.989 161.628 193.876L161.77 192.909C162.026 192.909 162.538 192.937 163.362 192.937C163.931 192.937 164.329 192.909 164.528 192.88C164.727 192.852 164.812 192.738 164.841 192.625C164.841 192.511 164.841 192.454 164.755 192.397C164.699 192.34 164.556 192.283 164.386 192.226C164.386 192.113 164.329 192.113 164.3 192.084Z" fill="white"/>
<path d="M179.17 186.881L177.123 193.477C177.038 193.733 176.839 193.875 176.555 193.875H175.105C174.963 193.875 174.849 193.819 174.763 193.733C174.65 193.648 174.621 193.534 174.593 193.392L174.451 188.872V187.99H174.252C174.166 188.36 174.081 188.673 174.024 188.9L172.631 193.477C172.546 193.762 172.347 193.875 172.062 193.875H170.584C170.442 193.875 170.328 193.819 170.214 193.733C170.101 193.648 170.044 193.534 170.044 193.421L169.816 186.881H171.352V191.772C171.352 191.885 171.352 192.056 171.323 192.312C171.323 192.568 171.295 192.71 171.295 192.795H171.494C171.522 192.653 171.636 192.283 171.778 191.715L173.143 187.336C173.228 187.052 173.427 186.881 173.74 186.881H175.048C175.19 186.881 175.304 186.938 175.389 187.024C175.474 187.109 175.531 187.251 175.531 187.393L175.73 191.8C175.73 192.226 175.759 192.568 175.73 192.795H175.958C176.071 192.34 176.157 191.971 176.213 191.743L177.607 186.881H179.17Z" fill="white"/>
<path d="M183.492 192.681L183.606 193.648C183.037 193.876 182.298 193.989 181.388 193.989C180.422 193.989 179.768 193.762 179.426 193.307C179.057 192.852 178.943 192.17 179.057 191.26C179.171 190.293 179.455 189.611 179.881 189.27C180.308 188.929 181.019 188.729 181.957 188.729C182.838 188.729 183.435 188.872 183.748 189.156C184.061 189.44 184.175 189.867 184.089 190.435C184.032 190.919 183.833 191.26 183.521 191.459C183.208 191.658 182.725 191.8 182.042 191.829L180.564 191.942C180.564 192.283 180.649 192.511 180.82 192.625C180.99 192.738 181.218 192.795 181.587 192.795C182.241 192.795 182.867 192.767 183.492 192.681ZM180.649 191.089L181.815 190.976C182.099 190.947 182.27 190.89 182.412 190.805C182.525 190.72 182.611 190.549 182.639 190.322C182.668 190.094 182.611 189.952 182.525 189.895C182.412 189.838 182.213 189.81 181.872 189.838C181.474 189.838 181.189 189.924 181.047 190.094C180.876 190.236 180.734 190.578 180.649 191.089Z" fill="white"/>
<path d="M187.074 186.768L186.847 188.502C186.79 188.929 186.705 189.327 186.562 189.697C187.216 189.071 187.899 188.73 188.553 188.73C189.15 188.73 189.576 188.929 189.804 189.327C190.031 189.725 190.059 190.436 189.917 191.402C189.775 192.341 189.519 193.023 189.121 193.421C188.723 193.819 188.126 194.018 187.302 194.018C186.904 194.018 186.42 193.99 185.88 193.904C185.34 193.819 184.913 193.734 184.601 193.62L185.567 186.768H187.074ZM186.534 190.692L186.221 192.881C186.648 192.881 186.904 192.909 187.017 192.909C187.501 192.909 187.842 192.796 188.012 192.625C188.183 192.426 188.325 191.999 188.41 191.346C188.496 190.777 188.496 190.379 188.439 190.237C188.382 190.095 188.24 189.981 188.012 189.981C187.614 189.952 187.131 190.208 186.534 190.692Z" fill="white"/>
<path d="M194.694 188.872L194.665 189.838C194.95 189.526 195.291 189.27 195.661 189.071C196.03 188.872 196.4 188.758 196.769 188.758C197.366 188.758 197.764 188.957 197.992 189.384C198.219 189.81 198.248 190.492 198.134 191.487C198.077 191.914 197.992 192.284 197.878 192.596C197.764 192.909 197.651 193.137 197.509 193.336C197.366 193.506 197.196 193.648 197.025 193.762C196.855 193.876 196.627 193.933 196.457 193.961C196.258 193.989 196.03 194.018 195.774 194.018C195.291 194.018 194.779 193.961 194.296 193.876C194.296 194.188 194.267 194.501 194.239 194.814L194.068 195.809H192.562L193.528 188.872H194.694ZM194.438 192.966H195.206C195.717 192.966 196.059 192.881 196.229 192.71C196.4 192.539 196.513 192.113 196.599 191.459C196.684 190.834 196.684 190.407 196.656 190.236C196.627 190.066 196.457 189.981 196.229 189.981C196.059 189.981 195.831 190.066 195.547 190.208C195.263 190.35 195.007 190.549 194.722 190.805L194.438 192.966Z" fill="white"/>
<path d="M203.622 193.876H202.456V192.966C201.944 193.62 201.262 193.961 200.409 193.989C199.783 194.018 199.357 193.819 199.129 193.364C198.902 192.937 198.873 192.227 199.016 191.26C199.072 190.805 199.186 190.407 199.3 190.094C199.414 189.781 199.556 189.526 199.698 189.355C199.84 189.184 200.039 189.042 200.267 188.929C200.494 188.843 200.721 188.786 200.949 188.758C201.176 188.729 201.461 188.729 201.773 188.729C202.143 188.729 202.57 188.758 203.053 188.815C203.565 188.872 203.963 188.957 204.247 189.042L203.622 193.876ZM202.683 189.838H201.916C201.432 189.838 201.091 189.924 200.921 190.094C200.75 190.265 200.608 190.663 200.522 191.288C200.437 191.942 200.409 192.34 200.466 192.511C200.522 192.681 200.665 192.767 200.892 192.767C201.347 192.767 201.83 192.454 202.399 191.829L202.683 189.838Z" fill="white"/>
<path d="M209.109 188.729L208.768 190.123H208.398C208.199 190.123 207.971 190.179 207.744 190.265C207.517 190.35 207.175 190.521 206.72 190.748L206.294 193.876H204.787L205.498 188.872H206.664V189.81C207.431 189.099 208.142 188.729 208.796 188.729H209.109Z" fill="white"/>
<path d="M213.857 193.876H212.691V192.966C212.179 193.62 211.497 193.961 210.644 193.989C210.019 194.018 209.592 193.819 209.365 193.364C209.137 192.937 209.109 192.227 209.251 191.26C209.308 190.805 209.422 190.407 209.535 190.094C209.649 189.781 209.791 189.526 209.933 189.355C210.075 189.184 210.274 189.042 210.502 188.929C210.729 188.843 210.957 188.786 211.184 188.758C211.412 188.729 211.696 188.729 212.009 188.729C212.378 188.729 212.805 188.758 213.288 188.815C213.8 188.872 214.198 188.957 214.482 189.042L213.857 193.876ZM212.919 189.838H212.151C211.668 189.838 211.326 189.924 211.156 190.094C210.985 190.265 210.843 190.663 210.758 191.288C210.673 191.942 210.644 192.34 210.701 192.511C210.758 192.681 210.9 192.767 211.127 192.767C211.582 192.767 212.066 192.454 212.634 191.829L212.919 189.838Z" fill="white"/>
<path d="M128.591 200.273H125.976C125.777 200.273 125.635 200.301 125.549 200.386C125.464 200.472 125.407 200.614 125.379 200.813L125.237 201.865H127.994L127.852 202.974H125.094L124.924 204.338C124.895 204.537 124.924 204.651 124.981 204.736C125.037 204.822 125.18 204.85 125.379 204.85H127.966L127.937 205.987C127.34 206.044 126.317 206.101 124.895 206.101C124.327 206.101 123.9 205.959 123.644 205.646C123.388 205.334 123.275 204.935 123.36 204.424L123.929 200.415C123.986 199.988 124.156 199.647 124.44 199.391C124.725 199.135 125.123 199.022 125.606 199.022C127.085 199.022 128.165 199.05 128.847 199.135L128.591 200.273Z" fill="white"/>
<path d="M130.724 201.069V201.979C131.094 201.609 131.435 201.353 131.747 201.183C132.06 201.012 132.401 200.927 132.743 200.927C133.112 200.927 133.396 201.012 133.595 201.183C133.795 201.353 133.937 201.581 133.965 201.865C134.591 201.24 135.216 200.927 135.842 200.927C136.296 200.927 136.638 201.04 136.865 201.296C137.093 201.552 137.149 201.893 137.093 202.348L136.581 206.073H135.102L135.557 202.746C135.586 202.547 135.557 202.405 135.5 202.32C135.444 202.235 135.33 202.206 135.188 202.206C135.017 202.206 134.846 202.263 134.647 202.377C134.448 202.49 134.193 202.69 133.88 202.974L133.453 206.101H132.003L132.458 202.775C132.487 202.576 132.487 202.434 132.43 202.348C132.373 202.263 132.259 202.235 132.117 202.235C131.946 202.235 131.747 202.291 131.577 202.405C131.406 202.519 131.122 202.69 130.809 202.974L130.383 206.13H128.904L129.558 201.069H130.724Z" fill="white"/>
<path d="M139.282 206.073H137.804L138.514 201.069H139.993L139.282 206.073ZM139.225 198.851H139.851C140.164 198.851 140.306 198.993 140.277 199.306L140.22 199.846C140.192 200.131 140.021 200.244 139.737 200.244H139.112C138.799 200.244 138.657 200.102 138.714 199.79L138.77 199.249C138.77 198.993 138.913 198.851 139.225 198.851Z" fill="white"/>
<path d="M143.092 204.281L141.897 203.77C141.499 203.599 141.215 203.4 141.044 203.144C140.874 202.888 140.817 202.575 140.874 202.206C140.931 201.751 141.13 201.41 141.471 201.211C141.812 201.012 142.352 200.898 143.12 200.926C144.03 200.926 144.826 201.012 145.423 201.125L145.281 202.092C143.973 202.064 143.319 202.064 143.291 202.064C142.892 202.064 142.637 202.092 142.494 202.121C142.352 202.149 142.295 202.234 142.267 202.348C142.267 202.462 142.295 202.547 142.352 202.604C142.438 202.661 142.58 202.746 142.807 202.831L144.03 203.315C144.456 203.485 144.741 203.684 144.911 203.912C145.082 204.139 145.139 204.452 145.082 204.85C145.053 205.134 144.968 205.39 144.854 205.589C144.741 205.788 144.57 205.93 144.342 206.016C144.115 206.101 143.888 206.186 143.632 206.215C143.376 206.243 143.035 206.272 142.637 206.272C142.04 206.272 141.3 206.215 140.419 206.101L140.561 205.134C140.817 205.134 141.329 205.163 142.153 205.163C142.722 205.163 143.12 205.134 143.319 205.106C143.518 205.077 143.603 204.964 143.632 204.85C143.632 204.736 143.632 204.679 143.546 204.623C143.49 204.566 143.347 204.509 143.177 204.452C143.148 204.31 143.12 204.281 143.092 204.281Z" fill="white"/>
<path d="M148.408 204.281L147.214 203.77C146.816 203.599 146.531 203.4 146.361 203.144C146.19 202.888 146.133 202.575 146.19 202.206C146.247 201.751 146.446 201.41 146.787 201.211C147.128 201.012 147.669 200.898 148.436 200.926C149.346 200.926 150.142 201.012 150.739 201.125L150.597 202.092C149.289 202.064 148.635 202.064 148.607 202.064C148.209 202.064 147.953 202.092 147.811 202.121C147.669 202.149 147.612 202.234 147.583 202.348C147.583 202.462 147.612 202.547 147.669 202.604C147.754 202.661 147.896 202.746 148.124 202.831L149.346 203.315C149.773 203.485 150.057 203.684 150.228 203.912C150.398 204.139 150.455 204.452 150.398 204.85C150.37 205.134 150.284 205.39 150.171 205.589C150.057 205.788 149.886 205.93 149.659 206.016C149.431 206.101 149.204 206.186 148.948 206.215C148.692 206.243 148.351 206.272 147.953 206.272C147.356 206.272 146.617 206.215 145.735 206.101L145.878 205.134C146.133 205.134 146.645 205.163 147.47 205.163C148.038 205.163 148.436 205.134 148.635 205.106C148.834 205.077 148.92 204.964 148.948 204.85C148.948 204.736 148.948 204.679 148.863 204.623C148.806 204.566 148.664 204.509 148.493 204.452C148.493 204.31 148.436 204.281 148.408 204.281Z" fill="white"/>
<path d="M155.971 206.073H154.805V205.163C154.294 205.817 153.611 206.158 152.758 206.186C152.133 206.215 151.706 206.016 151.479 205.561C151.251 205.135 151.223 204.424 151.365 203.457C151.422 203.002 151.536 202.604 151.65 202.291C151.763 201.979 151.905 201.723 152.048 201.552C152.19 201.382 152.389 201.239 152.616 201.126C152.844 201.04 153.071 200.984 153.299 200.955C153.526 200.927 153.81 200.927 154.123 200.927C154.493 200.927 154.919 200.955 155.402 201.012C155.914 201.069 156.312 201.154 156.597 201.239L155.971 206.073ZM155.715 198.823L156.341 198.88C156.341 199.334 156.255 199.704 156.085 199.932C155.914 200.159 155.687 200.273 155.402 200.273C155.147 200.273 154.862 200.187 154.521 200.017C154.18 199.875 153.952 199.789 153.867 199.761C153.697 199.733 153.554 199.761 153.498 199.846C153.412 199.932 153.355 200.074 153.327 200.244L152.701 200.187C152.701 199.704 152.787 199.334 152.957 199.107C153.128 198.88 153.355 198.766 153.64 198.766C153.867 198.766 154.151 198.851 154.493 198.993C154.834 199.135 155.061 199.221 155.175 199.249C155.346 199.278 155.488 199.249 155.573 199.192C155.63 199.135 155.687 198.993 155.715 198.823ZM155.061 202.035H154.294C153.81 202.035 153.469 202.121 153.299 202.291C153.128 202.462 152.986 202.86 152.901 203.485C152.815 204.139 152.787 204.537 152.844 204.708C152.901 204.879 153.043 204.964 153.27 204.964C153.725 204.964 154.208 204.651 154.777 204.026L155.061 202.035Z" fill="white"/>
<path d="M160.178 200.927C161.117 200.927 161.742 201.126 162.112 201.552C162.481 201.979 162.595 202.661 162.453 203.628C162.311 204.566 162.055 205.22 161.628 205.618C161.202 206.016 160.52 206.187 159.61 206.187C158.7 206.187 158.046 205.988 157.676 205.561C157.307 205.135 157.193 204.452 157.307 203.486C157.449 202.547 157.733 201.865 158.16 201.467C158.586 201.126 159.269 200.927 160.178 200.927ZM160.178 202.036C159.752 202.036 159.468 202.149 159.297 202.348C159.126 202.547 158.984 202.974 158.899 203.628C158.814 204.196 158.842 204.594 158.927 204.793C159.041 204.992 159.269 205.078 159.667 205.078C160.065 205.078 160.377 204.964 160.548 204.765C160.719 204.566 160.861 204.14 160.946 203.514C161.031 202.945 161.031 202.547 160.918 202.348C160.804 202.149 160.548 202.036 160.178 202.036Z" fill="white"/>
<path d="M171.125 198.965L170.13 206.073H168.964V205.163C168.282 205.845 167.599 206.186 166.888 206.186C166.32 206.186 165.922 205.959 165.694 205.561C165.467 205.134 165.41 204.452 165.524 203.485C165.609 202.945 165.694 202.519 165.836 202.178C165.979 201.836 166.149 201.581 166.348 201.41C166.547 201.239 166.775 201.126 166.974 201.069C167.173 201.012 167.457 200.983 167.77 200.983C168.31 200.983 168.85 201.04 169.39 201.126C169.39 200.699 169.419 200.386 169.447 200.131L169.618 199.022H171.125V198.965ZM169.191 201.979H168.395C167.912 201.979 167.571 202.064 167.4 202.234C167.23 202.405 167.116 202.832 167.031 203.485C166.945 204.054 166.945 204.424 166.974 204.623C167.031 204.822 167.173 204.907 167.4 204.907C167.656 204.907 167.883 204.85 168.082 204.708C168.31 204.594 168.566 204.395 168.85 204.139L169.191 201.979Z" fill="white"/>
<path d="M175.957 204.879L176.071 205.845C175.502 206.073 174.763 206.186 173.853 206.186C172.886 206.186 172.232 205.959 171.891 205.504C171.522 205.049 171.408 204.367 171.522 203.429C171.635 202.462 171.92 201.78 172.346 201.438C172.773 201.097 173.483 200.898 174.422 200.898C175.303 200.898 175.9 201.04 176.213 201.325C176.526 201.609 176.639 202.035 176.554 202.604C176.497 203.087 176.298 203.429 175.985 203.628C175.673 203.827 175.189 203.969 174.507 203.997L173.029 204.111C173.029 204.452 173.114 204.68 173.284 204.793C173.455 204.907 173.682 204.964 174.052 204.964C174.678 204.992 175.332 204.964 175.957 204.879ZM173.114 203.258L174.28 203.144C174.564 203.116 174.734 203.059 174.877 202.974C174.99 202.888 175.076 202.718 175.104 202.49C175.133 202.263 175.076 202.121 174.99 202.064C174.877 202.007 174.678 201.979 174.336 202.007C173.938 202.007 173.654 202.092 173.512 202.263C173.313 202.433 173.199 202.775 173.114 203.258Z" fill="white"/>
<path d="M186.194 199.05L185.284 205.533C185.227 205.874 185.057 206.073 184.715 206.073H183.863C183.72 206.073 183.578 206.044 183.521 205.959C183.436 205.874 183.379 205.76 183.294 205.589L181.872 201.836C181.73 201.495 181.645 201.154 181.56 200.784H181.446C181.446 201.211 181.417 201.552 181.361 201.893L180.792 206.073H179.313L180.223 199.59C180.28 199.249 180.479 199.05 180.82 199.05H181.673C181.815 199.05 181.929 199.079 182.014 199.164C182.1 199.249 182.157 199.363 182.242 199.533L183.578 203.144C183.72 203.571 183.863 203.94 183.948 204.282H184.062C184.062 203.884 184.09 203.514 184.118 203.144L184.687 199.022H186.194V199.05Z" fill="white"/>
<path d="M189.52 200.927C190.458 200.927 191.084 201.126 191.454 201.552C191.823 201.979 191.937 202.661 191.795 203.628C191.653 204.566 191.397 205.22 190.97 205.618C190.544 206.016 189.861 206.187 188.952 206.187C188.042 206.187 187.388 205.988 187.018 205.561C186.649 205.135 186.535 204.452 186.649 203.486C186.791 202.547 187.075 201.865 187.502 201.467C187.928 201.126 188.61 200.927 189.52 200.927ZM189.52 202.036C189.094 202.036 188.809 202.149 188.639 202.348C188.468 202.547 188.326 202.974 188.241 203.628C188.156 204.196 188.184 204.594 188.269 204.793C188.383 204.992 188.61 205.078 189.008 205.078C189.407 205.078 189.719 204.964 189.89 204.765C190.06 204.566 190.203 204.14 190.288 203.514C190.373 202.945 190.373 202.547 190.259 202.348C190.146 202.149 189.89 202.036 189.52 202.036Z" fill="white"/>
<path d="M194.921 202.064L194.58 204.452C194.552 204.651 194.58 204.765 194.637 204.822C194.694 204.879 194.836 204.907 195.035 204.907H195.717L195.774 205.959C195.405 206.101 194.95 206.158 194.381 206.158C193.898 206.158 193.557 206.016 193.329 205.76C193.102 205.504 193.016 205.135 193.073 204.68L193.471 202.036H192.562L192.675 201.069L193.585 201.012L193.784 199.619H195.263L195.063 201.012H196.457L196.314 202.007H194.921V202.064Z" fill="white"/>
<path d="M201.347 206.073H200.181V205.163C199.67 205.817 198.987 206.158 198.134 206.187C197.509 206.215 197.082 206.016 196.855 205.561C196.627 205.135 196.599 204.424 196.741 203.457C196.798 203.002 196.912 202.604 197.026 202.291C197.139 201.979 197.281 201.723 197.424 201.552C197.566 201.382 197.765 201.24 197.992 201.126C198.22 201.04 198.447 200.984 198.675 200.955C198.902 200.927 199.186 200.927 199.499 200.927C199.869 200.927 200.295 200.955 200.778 201.012C201.29 201.069 201.688 201.154 201.973 201.24L201.347 206.073ZM200.437 202.036H199.67C199.186 202.036 198.845 202.121 198.675 202.291C198.504 202.462 198.362 202.86 198.276 203.486C198.191 204.14 198.163 204.538 198.22 204.708C198.276 204.879 198.419 204.964 198.646 204.964C199.101 204.964 199.584 204.651 200.153 204.026L200.437 202.036Z" fill="white"/>
<path d="M210.303 200.273H207.688C207.489 200.273 207.346 200.301 207.261 200.386C207.176 200.472 207.119 200.614 207.091 200.813L206.948 201.865H209.706L209.564 202.974H206.806L206.636 204.338C206.607 204.537 206.636 204.651 206.693 204.736C206.749 204.822 206.892 204.85 207.091 204.85H209.678L209.649 205.987C209.052 206.044 208.029 206.101 206.607 206.101C206.039 206.101 205.612 205.959 205.356 205.646C205.1 205.334 204.987 204.935 205.072 204.424L205.641 200.415C205.697 199.988 205.868 199.647 206.152 199.391C206.437 199.135 206.835 199.022 207.318 199.022C208.796 199.022 209.877 199.05 210.559 199.135L210.303 200.273Z" fill="white"/>
<path d="M213.061 198.965L212.293 204.452C212.265 204.623 212.293 204.765 212.35 204.822C212.407 204.879 212.549 204.935 212.748 204.935H213.174L213.231 206.016C213.004 206.13 212.606 206.186 212.066 206.186C211.611 206.186 211.241 206.073 211.014 205.817C210.786 205.561 210.672 205.22 210.729 204.793L211.554 198.965H213.061Z" fill="white"/>
<path d="M218.463 204.879L218.577 205.845C218.008 206.073 217.269 206.186 216.359 206.186C215.392 206.186 214.738 205.959 214.397 205.504C214.028 205.049 213.914 204.367 214.028 203.429C214.141 202.462 214.426 201.78 214.852 201.438C215.279 201.097 215.989 200.898 216.928 200.898C217.809 200.898 218.406 201.04 218.719 201.325C219.032 201.609 219.145 202.035 219.06 202.604C219.003 203.087 218.804 203.429 218.491 203.628C218.179 203.827 217.695 203.969 217.013 203.997L215.534 204.111C215.534 204.452 215.62 204.68 215.79 204.793C215.961 204.907 216.188 204.964 216.558 204.964C217.183 204.992 217.837 204.964 218.463 204.879ZM215.62 203.258L216.785 203.144C217.07 203.116 217.24 203.059 217.382 202.974C217.496 202.888 217.582 202.718 217.61 202.49C217.638 202.263 217.581 202.121 217.496 202.064C217.382 202.007 217.183 201.979 216.842 202.007C216.444 202.007 216.16 202.092 216.018 202.263C215.819 202.433 215.705 202.775 215.62 203.258Z" fill="white"/>
<path d="M222.045 202.064L221.704 204.452C221.676 204.651 221.704 204.765 221.761 204.822C221.818 204.879 221.96 204.907 222.159 204.907H222.841L222.898 205.959C222.529 206.101 222.074 206.158 221.505 206.158C221.022 206.158 220.681 206.016 220.453 205.76C220.226 205.504 220.14 205.135 220.197 204.68L220.595 202.036H219.686L219.799 201.069L220.709 201.012L220.908 199.619H222.387L222.188 201.012H223.581L223.439 202.007H222.045V202.064Z" fill="white"/>
<path d="M228.016 200.927L227.675 202.32H227.305C227.106 202.32 226.879 202.377 226.651 202.462C226.424 202.547 226.083 202.718 225.628 202.945L225.201 206.073H223.694L224.405 201.069H225.571V202.007C226.338 201.296 227.049 200.927 227.703 200.927H228.016Z" fill="white"/>
<path d="M230.972 200.927C231.911 200.927 232.536 201.126 232.906 201.552C233.275 201.978 233.389 202.661 233.247 203.627C233.105 204.566 232.849 205.22 232.422 205.618C231.996 206.016 231.314 206.186 230.404 206.186C229.494 206.186 228.84 205.987 228.47 205.561C228.101 205.134 227.987 204.452 228.101 203.485C228.243 202.547 228.527 201.865 228.954 201.467C229.38 201.126 230.063 200.927 230.972 200.927ZM233.105 200.074L232.65 200.614L231.314 199.619H231.228L229.665 200.614L229.295 200.045L230.802 198.68H231.825L233.105 200.074ZM230.972 202.035C230.546 202.035 230.262 202.149 230.091 202.348C229.92 202.547 229.778 202.974 229.693 203.627C229.608 204.196 229.636 204.594 229.721 204.793C229.835 204.992 230.063 205.077 230.461 205.077C230.859 205.077 231.171 204.964 231.342 204.765C231.513 204.566 231.655 204.139 231.74 203.514C231.825 202.945 231.825 202.547 231.712 202.348C231.569 202.149 231.342 202.035 230.972 202.035Z" fill="white"/>
<path d="M235.806 201.069V202.064C236.574 201.296 237.341 200.927 238.081 200.927C238.507 200.927 238.848 201.04 239.076 201.296C239.303 201.552 239.389 201.893 239.332 202.348L238.792 206.073H237.313L237.768 202.803C237.796 202.576 237.796 202.405 237.74 202.32C237.683 202.235 237.597 202.206 237.427 202.206C237.057 202.206 236.517 202.49 235.863 203.002L235.437 206.101H233.93L234.64 201.097H235.806V201.069Z" fill="white"/>
<path d="M241.493 206.073H240.015L240.725 201.069H242.204L241.493 206.073ZM241.436 198.851H242.062C242.374 198.851 242.517 198.993 242.488 199.306L242.431 199.846C242.403 200.131 242.232 200.244 241.948 200.244H241.294C240.981 200.244 240.839 200.102 240.896 199.79L240.953 199.249C240.981 198.993 241.123 198.851 241.436 198.851Z" fill="white"/>
<path d="M246.98 204.879L247.094 205.874C246.582 206.101 245.929 206.186 245.132 206.186C244.223 206.186 243.597 205.987 243.228 205.561C242.858 205.134 242.744 204.452 242.886 203.485C243.029 202.547 243.284 201.893 243.711 201.495C244.109 201.097 244.763 200.898 245.673 200.898C246.469 200.898 247.094 201.012 247.606 201.211L247.407 202.121C246.611 202.121 246.128 202.092 245.9 202.092C245.445 202.092 245.104 202.178 244.905 202.377C244.706 202.576 244.564 202.945 244.507 203.514C244.422 204.111 244.45 204.481 244.592 204.651C244.706 204.822 244.99 204.907 245.445 204.907C246.042 204.964 246.554 204.935 246.98 204.879Z" fill="white"/>
<path d="M252.638 206.073H251.472V205.163C250.961 205.817 250.278 206.158 249.425 206.187C248.8 206.215 248.373 206.016 248.146 205.561C247.918 205.135 247.89 204.424 248.032 203.457C248.089 203.002 248.203 202.604 248.317 202.291C248.43 201.979 248.572 201.723 248.715 201.552C248.857 201.382 249.056 201.24 249.283 201.126C249.511 201.04 249.738 200.984 249.966 200.955C250.193 200.927 250.477 200.927 250.79 200.927C251.16 200.927 251.586 200.955 252.069 201.012C252.581 201.069 252.979 201.154 253.264 201.24L252.638 206.073ZM251.7 202.036H250.932C250.449 202.036 250.108 202.121 249.937 202.291C249.767 202.462 249.624 202.86 249.539 203.486C249.454 204.14 249.425 204.538 249.482 204.708C249.539 204.879 249.681 204.964 249.909 204.964C250.364 204.964 250.847 204.651 251.416 204.026L251.7 202.036Z" fill="white"/>
<path d="M127.795 209.797L127.113 214.602C127.085 214.773 126.999 214.858 126.857 214.858H126.26C126.146 214.858 126.061 214.773 126.004 214.631L124.725 211.048C124.639 210.792 124.554 210.565 124.526 210.394H124.412C124.412 210.593 124.384 210.821 124.355 211.048L123.843 214.83H123.189L123.872 210.053C123.9 209.883 123.986 209.797 124.156 209.797H124.725C124.838 209.797 124.924 209.883 124.981 210.025L126.203 213.522C126.317 213.835 126.402 214.091 126.431 214.261H126.573C126.601 214.005 126.601 213.749 126.658 213.522L127.17 209.826H127.795V209.797Z" fill="white"/>
<path d="M132.003 210.337H130.126C129.927 210.337 129.785 210.366 129.7 210.451C129.614 210.536 129.558 210.65 129.529 210.849L129.359 212.043H131.491L131.406 212.555H129.302L128.961 214.886H128.307L128.875 210.707C128.932 210.423 129.046 210.195 129.216 210.053C129.387 209.911 129.643 209.826 129.956 209.826C130.922 209.826 131.633 209.854 132.06 209.883L132.003 210.337Z" fill="white"/>
<path d="M134.59 213.266H132.344L132.401 212.782H134.618L134.59 213.266Z" fill="white"/>
<path d="M138.4 214.346L138.457 214.773C138.116 214.915 137.633 214.972 137.007 214.972C136.41 214.972 135.984 214.83 135.756 214.489C135.529 214.147 135.472 213.693 135.557 213.01C135.642 212.328 135.841 211.844 136.126 211.589C136.41 211.333 136.865 211.219 137.519 211.219C138.059 211.219 138.429 211.304 138.628 211.503C138.827 211.702 138.912 211.987 138.827 212.356C138.77 212.697 138.628 212.925 138.429 213.095C138.23 213.238 137.889 213.323 137.462 213.38L136.154 213.494C136.154 213.863 136.211 214.119 136.353 214.261C136.495 214.403 136.751 214.46 137.092 214.46C137.491 214.432 137.945 214.403 138.4 214.346ZM136.183 213.01L137.462 212.896C137.718 212.868 137.889 212.84 138.002 212.754C138.116 212.669 138.173 212.527 138.23 212.328C138.258 212.072 138.23 211.93 138.116 211.844C138.002 211.759 137.775 211.759 137.434 211.759C137.036 211.759 136.751 211.844 136.581 212.015C136.41 212.186 136.268 212.47 136.183 213.01Z" fill="white"/>
<path d="M145.678 209.797L144.996 214.602C144.967 214.773 144.882 214.858 144.74 214.858H144.143C144.029 214.858 143.944 214.773 143.887 214.631L142.636 211.048C142.551 210.792 142.465 210.565 142.437 210.394H142.323C142.323 210.593 142.295 210.821 142.266 211.048L141.755 214.83H141.101L141.783 210.025C141.811 209.854 141.897 209.769 142.067 209.769H142.636C142.75 209.769 142.835 209.854 142.892 209.996L144.114 213.493C144.228 213.806 144.313 214.062 144.342 214.233H144.484C144.512 213.977 144.512 213.721 144.569 213.493L145.081 209.797H145.678Z" fill="white"/>
<path d="M149.888 210.337H148.011C147.812 210.337 147.67 210.366 147.585 210.451C147.499 210.536 147.442 210.65 147.414 210.849L147.243 212.043H149.376L149.29 212.555H147.187L146.845 214.886H146.191L146.76 210.707C146.817 210.423 146.931 210.195 147.101 210.053C147.272 209.911 147.528 209.826 147.84 209.826C148.807 209.826 149.518 209.854 149.944 209.883L149.888 210.337Z" fill="white"/>
<path d="M152.304 212.783L151.308 212.413C150.967 212.299 150.711 212.1 150.598 211.901C150.484 211.674 150.427 211.389 150.484 211.02C150.512 210.792 150.569 210.593 150.626 210.451C150.683 210.309 150.768 210.167 150.882 210.082C150.967 209.996 151.109 209.911 151.252 209.883C151.394 209.854 151.564 209.797 151.707 209.797C151.849 209.769 152.048 209.769 152.275 209.769C152.872 209.769 153.384 209.826 153.782 209.911L153.725 210.394C153.185 210.366 152.702 210.366 152.275 210.366C152.105 210.366 151.991 210.366 151.906 210.366C151.82 210.366 151.735 210.394 151.621 210.394C151.508 210.423 151.422 210.451 151.394 210.508C151.365 210.565 151.308 210.622 151.252 210.735C151.195 210.821 151.166 210.963 151.166 211.105C151.138 211.361 151.138 211.532 151.223 211.617C151.28 211.731 151.451 211.816 151.678 211.901L152.673 212.271C153.043 212.413 153.299 212.584 153.412 212.783C153.526 212.982 153.555 213.294 153.498 213.692C153.412 214.233 153.242 214.574 152.986 214.744C152.73 214.915 152.247 215 151.621 215C151.109 215 150.598 214.943 150.086 214.858L150.171 214.375C150.996 214.403 151.479 214.403 151.65 214.403C152.076 214.403 152.389 214.346 152.559 214.261C152.73 214.176 152.844 213.948 152.872 213.607C152.901 213.351 152.901 213.181 152.815 213.067C152.73 212.953 152.531 212.868 152.304 212.783Z" fill="white"/>
<path d="M156.624 213.266H154.378L154.435 212.782H156.652L156.624 213.266Z" fill="white"/>
<path d="M160.435 214.346L160.491 214.773C160.15 214.915 159.667 214.972 159.041 214.972C158.444 214.972 158.018 214.83 157.79 214.489C157.563 214.147 157.506 213.693 157.591 213.01C157.677 212.328 157.876 211.844 158.16 211.589C158.444 211.333 158.899 211.219 159.553 211.219C160.093 211.219 160.463 211.304 160.662 211.503C160.861 211.702 160.946 211.987 160.861 212.356C160.804 212.697 160.662 212.925 160.463 213.095C160.264 213.238 159.923 213.323 159.496 213.38L158.188 213.494C158.188 213.863 158.245 214.119 158.387 214.261C158.53 214.403 158.785 214.46 159.127 214.46C159.553 214.432 159.98 214.403 160.435 214.346ZM158.217 213.01L159.496 212.896C159.752 212.868 159.923 212.84 160.036 212.754C160.15 212.669 160.207 212.527 160.264 212.328C160.292 212.072 160.264 211.93 160.15 211.844C160.036 211.759 159.809 211.759 159.468 211.759C159.07 211.759 158.785 211.844 158.615 212.015C158.444 212.186 158.302 212.47 158.217 213.01Z" fill="white"/>
<path d="M166.406 214.289L166.434 214.773C166.036 214.886 165.524 214.943 164.956 214.943C164.245 214.943 163.733 214.744 163.477 214.318C163.221 213.891 163.164 213.237 163.307 212.299C163.449 211.333 163.676 210.65 164.017 210.281C164.359 209.911 164.899 209.712 165.61 209.712C166.15 209.712 166.605 209.769 166.974 209.854L166.861 210.337C166.434 210.281 166.008 210.281 165.581 210.281C165.069 210.281 164.7 210.423 164.472 210.707C164.245 210.991 164.074 211.532 163.961 212.356C163.847 213.124 163.875 213.635 164.017 213.948C164.16 214.233 164.472 214.375 164.956 214.403C165.467 214.375 165.951 214.346 166.406 214.289Z" fill="white"/>
<path d="M171.324 210.366H169.675L169.049 214.858H168.395L169.021 210.366H167.4L167.486 209.797H171.381L171.324 210.366Z" fill="white"/>
<path d="M173.428 213.266H171.182L171.239 212.782H173.456L173.428 213.266Z" fill="white"/>
<path d="M177.237 214.346L177.294 214.773C176.953 214.915 176.47 214.972 175.844 214.972C175.247 214.972 174.821 214.83 174.593 214.489C174.366 214.147 174.309 213.693 174.394 213.01C174.479 212.328 174.678 211.844 174.963 211.589C175.247 211.333 175.702 211.219 176.356 211.219C176.896 211.219 177.266 211.304 177.465 211.503C177.664 211.702 177.749 211.987 177.664 212.356C177.607 212.697 177.465 212.925 177.266 213.095C177.067 213.238 176.725 213.323 176.299 213.38L174.991 213.494C174.991 213.863 175.048 214.119 175.19 214.261C175.332 214.403 175.588 214.46 175.929 214.46C176.356 214.432 176.782 214.403 177.237 214.346ZM175.02 213.01L176.299 212.896C176.555 212.868 176.725 212.84 176.839 212.754C176.953 212.669 177.01 212.527 177.067 212.328C177.095 212.072 177.067 211.93 176.953 211.844C176.839 211.759 176.612 211.759 176.271 211.759C175.873 211.759 175.588 211.844 175.418 212.015C175.247 212.186 175.105 212.47 175.02 213.01Z" fill="white"/>
<path d="M184.545 209.797L183.863 214.602C183.835 214.773 183.749 214.858 183.607 214.858H183.01C182.896 214.858 182.811 214.773 182.754 214.631L181.475 211.048C181.389 210.792 181.304 210.565 181.276 210.394H181.162C181.162 210.593 181.134 210.821 181.105 211.048L180.593 214.83H179.939L180.622 210.025C180.65 209.854 180.736 209.769 180.906 209.769H181.475C181.588 209.769 181.674 209.854 181.731 209.996L182.953 213.493C183.067 213.806 183.152 214.062 183.181 214.233H183.323C183.351 213.977 183.351 213.721 183.408 213.493L183.92 209.797H184.545Z" fill="white"/>
<path d="M188.753 210.337H186.876C186.677 210.337 186.535 210.366 186.45 210.451C186.364 210.536 186.308 210.65 186.279 210.849L186.109 212.043H188.241L188.156 212.555H186.052L185.711 214.886H185.057L185.625 210.707C185.682 210.423 185.796 210.195 185.966 210.053C186.137 209.911 186.393 209.826 186.706 209.826C187.672 209.826 188.383 209.854 188.81 209.883L188.753 210.337Z" fill="white"/>
<path d="M192.248 214.289L192.277 214.773C191.879 214.886 191.367 214.943 190.798 214.943C190.088 214.943 189.576 214.744 189.32 214.318C189.064 213.891 189.007 213.237 189.149 212.299C189.292 211.333 189.519 210.65 189.86 210.281C190.201 209.911 190.742 209.712 191.452 209.712C191.993 209.712 192.447 209.769 192.817 209.854L192.703 210.337C192.277 210.281 191.85 210.281 191.424 210.281C190.912 210.281 190.543 210.423 190.315 210.707C190.088 210.991 189.917 211.532 189.803 212.356C189.69 213.124 189.718 213.635 189.86 213.948C190.002 214.233 190.315 214.375 190.798 214.403C191.339 214.375 191.822 214.346 192.248 214.289Z" fill="white"/>
<path d="M195.377 213.266H193.131L193.188 212.782H195.405L195.377 213.266Z" fill="white"/>
<path d="M199.186 214.346L199.243 214.773C198.902 214.915 198.419 214.972 197.793 214.972C197.196 214.972 196.77 214.83 196.542 214.489C196.315 214.147 196.258 213.693 196.343 213.01C196.429 212.328 196.628 211.844 196.912 211.589C197.196 211.333 197.651 211.219 198.305 211.219C198.845 211.219 199.215 211.304 199.414 211.503C199.613 211.702 199.698 211.987 199.613 212.356C199.556 212.697 199.414 212.925 199.215 213.095C199.016 213.238 198.675 213.323 198.248 213.38L196.94 213.494C196.94 213.863 196.997 214.119 197.139 214.261C197.282 214.403 197.537 214.46 197.879 214.46C198.305 214.432 198.732 214.403 199.186 214.346ZM196.969 213.01L198.248 212.896C198.504 212.868 198.675 212.84 198.788 212.754C198.902 212.669 198.959 212.527 199.016 212.328C199.044 212.072 199.016 211.93 198.902 211.844C198.788 211.759 198.561 211.759 198.22 211.759C197.822 211.759 197.537 211.844 197.367 212.015C197.196 212.186 197.054 212.47 196.969 213.01Z" fill="white"/>
<path d="M111.676 186H99.4216C98.6255 186 98 186.625 98 187.422V203.485C98 204.253 98.6255 204.907 99.4216 204.907H111.704C112.472 204.907 113.126 204.281 113.126 203.485V187.422C113.097 186.625 112.472 186 111.676 186ZM109.003 198.112L104.625 202.49L102.123 199.988C101.781 199.647 101.781 199.078 102.123 198.737C102.464 198.396 103.032 198.396 103.402 198.737L104.653 199.988L107.752 196.889C108.093 196.548 108.662 196.548 109.003 196.889C109.344 197.174 109.344 197.742 109.003 198.112ZM109.884 194.302H101.213C100.758 194.302 100.36 193.932 100.36 193.449C100.36 192.966 100.729 192.596 101.213 192.596H109.884C110.339 192.596 110.737 192.966 110.737 193.449C110.737 193.932 110.368 194.302 109.884 194.302ZM109.884 190.265H101.213C100.758 190.265 100.36 189.895 100.36 189.412C100.36 188.928 100.729 188.559 101.213 188.559H109.884C110.339 188.559 110.737 188.928 110.737 189.412C110.737 189.895 110.368 190.265 109.884 190.265Z" fill="white"/>
<defs>
<filter id="filter0_d" x="0" y="0" width="630" height="442" filterUnits="userSpaceOnUse" color-interpolation-filters="sRGB">
<feFlood flood-opacity="0" result="BackgroundImageFix"/>
<feColorMatrix in="SourceAlpha" type="matrix" values="0 0 0 0 0 0 0 0 0 0 0 0 0 0 0 0 0 0 127 0"/>
<feOffset dy="20"/>
<feGaussianBlur stdDeviation="15"/>
<feColorMatrix type="matrix" values="0 0 0 0 0.121569 0 0 0 0 0.239216 0 0 0 0 0.54902 0 0 0 0.24 0"/>
<feBlend mode="normal" in2="BackgroundImageFix" result="effect1_dropShadow"/>
<feBlend mode="normal" in="SourceGraphic" in2="effect1_dropShadow" result="shape"/>
</filter>
<linearGradient id="paint0_linear" x1="30" y1="200.471" x2="600.258" y2="200.471" gradientUnits="userSpaceOnUse">
<stop stop-color="#213667"/>
<stop offset="1" stop-color="#506EB3"/>
</linearGradient>
<linearGradient id="paint1_linear" x1="30" y1="200.471" x2="600.258" y2="200.471" gradientUnits="userSpaceOnUse">
<stop stop-color="#213667"/>
<stop offset="1" stop-color="#506EB3"/>
</linearGradient>
<linearGradient id="paint2_linear" x1="-42" y1="187.929" x2="302.574" y2="505.882" gradientUnits="userSpaceOnUse">
<stop stop-color="#1F3D8C"/>
<stop offset="1" stop-color="#506EB3"/>
</linearGradient>
<linearGradient id="paint3_linear" x1="-167.438" y1="-310.674" x2="455.547" y2="301.233" gradientUnits="userSpaceOnUse">
<stop stop-color="#1F3D8C"/>
<stop offset="1" stop-color="#506EB3"/>
</linearGradient>
<linearGradient id="paint4_linear" x1="538.5" y1="158.503" x2="1106.94" y2="260.741" gradientUnits="userSpaceOnUse">
<stop stop-color="#1F3D8C"/>
<stop offset="1" stop-color="#506EB3"/>
</linearGradient>
<linearGradient id="paint5_linear" x1="178.86" y1="105.699" x2="626.8" y2="546.188" gradientUnits="userSpaceOnUse">
<stop stop-color="#1F3D8C"/>
<stop offset="1" stop-color="#506EB3"/>
</linearGradient>
</defs>
</svg>
