<svg width="570" height="382" viewBox="0 0 570 382" fill="none" xmlns="http://www.w3.org/2000/svg">
<rect width="570" height="382" rx="8" fill="url(#paint0_linear)"/>
<mask id="mask0" mask-type="alpha" maskUnits="userSpaceOnUse" x="0" y="0" width="570" height="382">
<rect width="570" height="382" rx="8" fill="url(#paint1_linear)"/>
</mask>
<g mask="url(#mask0)">
<g opacity="0.21">
<path d="M-101.777 375.214L-205.644 121.292C-215.954 95.7826 -191.133 69.6868 -156.384 69.6868H169.345C191.875 69.6868 212.114 80.8288 218.605 97.5419L322.09 351.463C332.401 376.973 307.579 403.069 272.83 403.069H-52.517C-75.0469 403.069 -95.2856 391.927 -101.777 375.214Z" fill="url(#paint2_linear)"/>
<path d="M409.154 -264.282L541.278 60.0108C554.643 92.5573 522.949 125.983 478.271 125.983H62.8044C33.7828 125.983 8.5799 111.616 -0.202957 90.5049L-132.327 -233.788C-145.693 -266.627 -113.998 -299.76 -69.702 -299.76H346.146C375.168 -299.76 400.753 -285.393 409.154 -264.282Z" fill="url(#paint3_linear)"/>
<path d="M841.805 -92.1659L950.254 173.191C961.328 199.873 934.979 227.142 898.702 227.142H558.081C534.405 227.142 513.403 215.413 506.529 198.114L398.08 -67.2429C387.006 -93.9251 413.355 -121.194 449.632 -121.194H790.253C813.929 -121.194 834.931 -109.465 841.805 -92.1659Z" fill="url(#paint4_linear)"/>
<path d="M585.574 136.246L680.658 369.349C690.205 392.806 667.293 416.85 635.216 416.85H336.218C315.597 416.85 297.268 406.587 290.776 391.34L195.692 158.237C186.146 134.78 209.058 110.736 241.134 110.736H540.133C560.753 110.736 579.083 120.999 585.574 136.246Z" fill="url(#paint5_linear)"/>
</g>
</g>
<path d="M432.7 184H519.7C521.266 184 522.5 185.4 522.233 186.967L519.9 201.833C519.7 203.067 518.633 204 517.366 204H430.666C429.6 204 428.633 203.367 428.2 202.367L425.1 195C424.833 194.367 424.9 193.633 425.266 193.067L430.433 185.2C430.966 184.467 431.8 184 432.7 184Z" fill="white"/>
<path d="M433.801 198.733L435.067 189.833C436.101 189.767 437.101 189.733 438.001 189.733C439.301 189.733 440.167 190.067 440.634 190.767C441.067 191.433 441.167 192.633 440.934 194.333C440.801 195.267 440.634 196 440.434 196.6C440.234 197.2 439.967 197.633 439.601 197.967C439.267 198.3 438.867 198.533 438.434 198.667C438.001 198.8 437.434 198.867 436.767 198.867C435.867 198.833 434.901 198.8 433.801 198.733ZM435.801 190.467L434.734 198.067C435.601 198.1 436.267 198.1 436.734 198.1C437.434 198.1 438.001 198 438.401 197.767C438.801 197.567 439.134 197.167 439.401 196.633C439.667 196.1 439.867 195.3 440.001 194.233C440.201 192.767 440.167 191.767 439.901 191.233C439.601 190.7 438.967 190.433 437.967 190.433C437.867 190.433 437.134 190.467 435.801 190.467Z" fill="#1D1D1B"/>
<path d="M443.167 198.733H442.334L443.601 189.833H444.467L443.167 198.733Z" fill="#1D1D1B"/>
<path d="M449.332 194.933L447.499 194.233C446.899 194 446.466 193.7 446.266 193.333C446.066 192.967 445.966 192.467 446.066 191.833C446.132 191.367 446.266 190.967 446.399 190.667C446.566 190.367 446.799 190.167 447.066 190C447.366 189.867 447.666 189.767 447.966 189.733C448.266 189.7 448.666 189.667 449.132 189.667C450.066 189.667 450.899 189.733 451.699 189.9L451.599 190.5C450.632 190.433 449.799 190.433 449.032 190.433C448.799 190.433 448.599 190.433 448.466 190.433C448.332 190.433 448.199 190.467 447.999 190.5C447.799 190.533 447.666 190.567 447.566 190.633C447.466 190.7 447.366 190.767 447.266 190.9C447.166 191 447.066 191.133 446.999 191.333C446.932 191.5 446.899 191.7 446.866 191.967C446.799 192.433 446.866 192.767 446.999 192.967C447.132 193.167 447.432 193.367 447.866 193.567L449.666 194.267C450.332 194.533 450.766 194.833 450.966 195.2C451.166 195.567 451.232 196.067 451.132 196.733C451.066 197.2 450.966 197.6 450.799 197.9C450.632 198.2 450.432 198.4 450.132 198.567C449.832 198.733 449.532 198.833 449.199 198.867C448.866 198.9 448.432 198.933 447.866 198.933C446.932 198.933 446.066 198.867 445.232 198.733L445.332 198.1C446.366 198.167 447.232 198.167 447.899 198.167C448.732 198.167 449.299 198.067 449.632 197.867C449.966 197.667 450.166 197.267 450.266 196.6C450.332 196.133 450.299 195.767 450.166 195.567C450.066 195.333 449.766 195.133 449.332 194.933Z" fill="#1D1D1B"/>
<path d="M459.734 190.567H456.767L455.634 198.733H454.767L455.9 190.567H452.934L453.034 189.833H459.8L459.734 190.567Z" fill="#1D1D1B"/>
<path d="M460.066 198.733L461.333 189.833C462.066 189.767 463.033 189.733 464.3 189.733C465.266 189.733 465.966 189.933 466.366 190.3C466.766 190.667 466.9 191.333 466.766 192.333C466.666 193.067 466.466 193.6 466.133 193.967C465.833 194.333 465.366 194.533 464.766 194.633V194.7C465.233 194.833 465.533 195.267 465.666 195.967L466.233 198.767H465.333L464.8 195.967C464.733 195.6 464.6 195.367 464.433 195.2C464.266 195.033 464 194.967 463.7 194.967C463.433 194.967 463.133 194.967 462.8 194.967C462.466 194.967 462.2 194.967 462 194.967C461.8 194.967 461.6 194.967 461.466 194.967L460.933 198.8H460.066V198.733ZM461.533 194.167H463.633C464.366 194.167 464.9 194.033 465.2 193.733C465.533 193.467 465.733 192.967 465.833 192.233C465.933 191.533 465.866 191.033 465.633 190.8C465.4 190.533 464.933 190.433 464.2 190.433C463.433 190.433 462.7 190.433 462 190.467L461.533 194.167Z" fill="#1D1D1B"/>
<path d="M468.833 198.733H468L469.267 189.833H470.133L468.833 198.733Z" fill="#1D1D1B"/>
<path d="M471.199 198.733L472.466 189.833C473.133 189.767 474.033 189.733 475.199 189.733C476.299 189.733 477.033 189.9 477.433 190.233C477.833 190.567 477.966 191.2 477.833 192.1C477.733 192.733 477.566 193.2 477.266 193.533C476.999 193.867 476.566 194.033 476.033 194.1V194.167C476.666 194.233 477.099 194.433 477.299 194.867C477.533 195.267 477.566 195.833 477.466 196.567C477.333 197.467 477.066 198.067 476.599 198.367C476.166 198.667 475.433 198.833 474.399 198.833C473.033 198.833 471.966 198.8 471.199 198.733ZM472.633 194.433L472.133 198.067C472.833 198.1 473.566 198.1 474.299 198.1C475.099 198.1 475.666 197.967 475.999 197.733C476.333 197.5 476.566 197.033 476.633 196.333C476.733 195.6 476.666 195.1 476.399 194.833C476.133 194.567 475.599 194.433 474.766 194.433H472.633ZM472.733 193.8H474.799C475.533 193.8 476.066 193.667 476.366 193.433C476.666 193.2 476.899 192.767 476.966 192.1C477.066 191.433 476.966 191 476.699 190.767C476.433 190.567 475.899 190.433 475.099 190.433C474.133 190.433 473.466 190.433 473.166 190.433L472.733 193.8Z" fill="#1D1D1B"/>
<path d="M486.667 189.833L485.867 195.367C485.701 196.633 485.334 197.533 484.801 198.067C484.267 198.6 483.434 198.867 482.334 198.867C481.201 198.867 480.401 198.6 479.967 198.033C479.534 197.467 479.401 196.567 479.567 195.3L480.334 189.8H481.201L480.401 195.333C480.267 196.367 480.334 197.067 480.601 197.5C480.867 197.9 481.434 198.1 482.267 198.1C483.134 198.1 483.767 197.9 484.167 197.467C484.601 197.033 484.867 196.333 485.001 195.3L485.767 189.8H486.667V189.833Z" fill="#1D1D1B"/>
<path d="M488.568 198.733H487.701L488.968 189.833H489.835L488.568 198.733Z" fill="#1D1D1B"/>
<path d="M490.934 198.733L492.2 189.833C493.234 189.767 494.234 189.733 495.134 189.733C496.434 189.733 497.3 190.067 497.767 190.767C498.2 191.433 498.3 192.633 498.067 194.333C497.934 195.267 497.767 196 497.567 196.6C497.367 197.2 497.1 197.633 496.734 197.967C496.367 198.3 496 198.533 495.567 198.667C495.134 198.8 494.567 198.867 493.9 198.867C493.034 198.833 492.034 198.8 490.934 198.733ZM492.967 190.467L491.9 198.067C492.767 198.1 493.434 198.1 493.9 198.1C494.6 198.1 495.167 198 495.567 197.767C495.967 197.567 496.3 197.167 496.567 196.633C496.834 196.1 497.034 195.3 497.167 194.233C497.367 192.767 497.334 191.767 497.067 191.233C496.767 190.7 496.134 190.433 495.134 190.433C495.034 190.433 494.3 190.467 492.967 190.467Z" fill="#1D1D1B"/>
<path d="M503.8 189.667C505.034 189.667 505.9 190.033 506.334 190.733C506.767 191.433 506.867 192.633 506.634 194.333C506.4 196.033 506 197.233 505.4 197.9C504.8 198.567 503.9 198.9 502.634 198.9C501.4 198.9 500.534 198.567 500.1 197.867C499.667 197.167 499.567 195.967 499.8 194.267C500.034 192.567 500.434 191.4 501.034 190.7C501.634 190 502.534 189.667 503.8 189.667ZM503.767 190.433C502.8 190.433 502.067 190.7 501.634 191.267C501.2 191.833 500.867 192.833 500.634 194.333C500.434 195.767 500.467 196.767 500.767 197.333C501.067 197.9 501.667 198.167 502.634 198.167C503.6 198.167 504.3 197.9 504.767 197.333C505.234 196.767 505.534 195.767 505.767 194.267C505.967 192.8 505.934 191.8 505.667 191.267C505.367 190.7 504.734 190.433 503.767 190.433Z" fill="#1D1D1B"/>
<path d="M508.033 198.733L509.3 189.833C510.033 189.767 511 189.733 512.267 189.733C513.233 189.733 513.933 189.933 514.333 190.3C514.733 190.667 514.867 191.333 514.733 192.333C514.633 193.067 514.433 193.6 514.1 193.967C513.8 194.333 513.333 194.533 512.733 194.633V194.7C513.2 194.833 513.5 195.267 513.633 195.967L514.2 198.767H513.333L512.8 195.967C512.733 195.6 512.6 195.367 512.433 195.2C512.267 195.033 512 194.967 511.7 194.967C511.433 194.967 511.133 194.967 510.8 194.967C510.467 194.967 510.2 194.967 510 194.967C509.8 194.967 509.6 194.967 509.467 194.967L508.933 198.8H508.033V198.733ZM509.5 194.167H511.6C512.333 194.167 512.867 194.033 513.167 193.733C513.5 193.467 513.7 192.967 513.8 192.233C513.9 191.533 513.833 191.033 513.6 190.8C513.367 190.533 512.9 190.433 512.167 190.433C511.4 190.433 510.667 190.433 509.967 190.467L509.5 194.167Z" fill="#1D1D1B"/>
<path d="M427.366 194.9C427.771 194.9 428.099 194.572 428.099 194.167C428.099 193.762 427.771 193.433 427.366 193.433C426.961 193.433 426.633 193.762 426.633 194.167C426.633 194.572 426.961 194.9 427.366 194.9Z" fill="#1D1D1B"/>
<path d="M360.2 193.8L357.567 192.733C356.567 192.333 355.9 191.8 355.533 191.133C355.2 190.467 355.067 189.667 355.2 188.667C355.4 187.2 355.9 186.233 356.733 185.733C357.567 185.233 358.833 185 360.567 185C362.3 185 363.8 185.2 365.1 185.567L364.8 187.633C363.6 187.6 362.167 187.567 360.5 187.567C359.667 187.567 359.133 187.6 358.833 187.767C358.533 187.9 358.333 188.267 358.233 188.9C358.167 189.367 358.2 189.667 358.333 189.833C358.467 190 358.8 190.2 359.333 190.4L361.833 191.367C362.9 191.767 363.6 192.3 363.933 192.9C364.267 193.533 364.367 194.367 364.233 195.433C364.033 196.933 363.533 197.967 362.767 198.5C361.967 199.033 360.667 199.3 358.767 199.3C357.2 199.3 355.633 199.133 354 198.767L354.333 196.6C357.167 196.667 358.633 196.7 358.667 196.7C359.6 196.7 360.233 196.6 360.567 196.433C360.9 196.267 361.1 195.867 361.2 195.3C361.267 194.833 361.2 194.533 361.067 194.367C360.933 194.167 360.667 193.967 360.2 193.8Z" fill="white"/>
<path d="M374.133 196.7L374.333 198.567C373.233 199.033 371.766 199.267 369.966 199.267C368.066 199.267 366.766 198.833 366.066 197.967C365.366 197.1 365.099 195.733 365.333 193.933C365.566 192.033 366.133 190.7 366.966 190C367.833 189.3 369.199 188.933 371.066 188.933C372.799 188.933 373.999 189.233 374.633 189.8C375.266 190.367 375.499 191.2 375.333 192.333C375.199 193.267 374.833 193.933 374.199 194.333C373.566 194.733 372.599 194.967 371.266 195.067L368.333 195.3C368.333 195.967 368.499 196.4 368.833 196.6C369.133 196.833 369.633 196.933 370.333 196.933C371.599 196.933 372.866 196.833 374.133 196.7ZM368.499 193.533L370.799 193.3C371.333 193.267 371.733 193.167 371.966 192.967C372.199 192.8 372.366 192.467 372.433 192C372.466 191.567 372.399 191.3 372.166 191.167C371.966 191.067 371.533 191 370.833 191.033C370.066 191.033 369.499 191.2 369.199 191.533C368.899 191.9 368.666 192.533 368.499 193.533Z" fill="white"/>
<path d="M379.267 189.2V190.967C380 190.233 380.667 189.733 381.3 189.4C381.933 189.067 382.567 188.9 383.267 188.9C384 188.9 384.567 189.067 384.967 189.367C385.367 189.7 385.633 190.133 385.7 190.733C386.933 189.5 388.2 188.9 389.433 188.9C390.333 188.9 391 189.133 391.433 189.633C391.867 190.133 392 190.8 391.9 191.667L390.867 199H387.9L388.833 192.467C388.9 192.067 388.867 191.767 388.733 191.6C388.6 191.433 388.4 191.367 388.1 191.367C387.767 191.367 387.4 191.467 387.033 191.7C386.667 191.9 386.133 192.3 385.5 192.867L384.633 199H381.767L382.667 192.467C382.733 192.067 382.7 191.8 382.6 191.633C382.5 191.467 382.267 191.4 381.967 191.4C381.633 191.4 381.267 191.5 380.867 191.7C380.5 191.9 380 192.267 379.367 192.8L378.5 199H375.533L376.933 189.167H379.267V189.2Z" fill="white"/>
<path d="M396.233 189.2L396.2 191.1C396.8 190.5 397.467 190 398.2 189.6C398.933 189.2 399.667 188.967 400.367 188.967C401.533 188.967 402.333 189.367 402.767 190.2C403.2 191 403.3 192.4 403.033 194.333C402.9 195.2 402.733 195.9 402.533 196.533C402.333 197.133 402.1 197.633 401.833 197.967C401.567 198.333 401.233 198.6 400.867 198.8C400.5 199 400.1 199.133 399.733 199.2C399.367 199.267 398.9 199.3 398.367 199.3C397.4 199.3 396.4 199.2 395.4 199.033C395.4 199.667 395.367 200.267 395.267 200.9L394.933 202.833H391.967L393.9 189.2H396.233ZM395.733 197.233H397.267C398.3 197.233 398.967 197.067 399.267 196.733C399.567 196.4 399.833 195.567 400 194.267C400.167 193.033 400.2 192.2 400.1 191.867C400 191.5 399.733 191.333 399.267 191.333C398.933 191.333 398.467 191.467 397.933 191.767C397.4 192.067 396.867 192.467 396.333 192.933L395.733 197.233Z" fill="white"/>
<path d="M412.233 188.933L411.566 191.667H410.833C410.433 191.667 409.966 191.767 409.499 191.933C409.033 192.1 408.366 192.433 407.499 192.867L406.666 199.033H403.699L405.099 189.2H407.399V191.067C408.899 189.633 410.333 188.933 411.633 188.933H412.233Z" fill="white"/>
<path d="M420.566 196.7L420.766 198.567C419.666 199.033 418.199 199.267 416.399 199.267C414.499 199.267 413.199 198.833 412.499 197.967C411.799 197.1 411.533 195.733 411.766 193.933C411.999 192.033 412.566 190.7 413.399 190C414.266 189.3 415.633 188.933 417.499 188.933C419.233 188.933 420.433 189.233 421.066 189.8C421.699 190.367 421.933 191.2 421.766 192.333C421.633 193.267 421.266 193.933 420.633 194.333C419.999 194.733 419.033 194.967 417.699 195.067L414.766 195.3C414.766 195.967 414.933 196.4 415.266 196.6C415.566 196.833 416.066 196.933 416.766 196.933C418.033 196.933 419.333 196.833 420.566 196.7ZM414.933 193.533L417.233 193.3C417.766 193.267 418.166 193.167 418.399 192.967C418.633 192.8 418.799 192.467 418.866 192C418.899 191.567 418.833 191.3 418.599 191.167C418.399 191.067 417.966 191 417.266 191.033C416.499 191.033 415.933 191.2 415.633 191.533C415.366 191.9 415.099 192.533 414.933 193.533Z" fill="white"/>
<path d="M87.3797 176H70.4225C69.094 176 68 177.133 68 178.462V194.481C68 195.341 68.4298 196.083 69.0549 196.552L78.9011 203.272L88.7082 196.591C89.3333 196.161 89.7631 195.38 89.7631 194.52V178.501C89.8022 177.133 88.7082 176 87.3797 176ZM78.9011 181.431C80.9719 181.431 82.6911 183.15 82.6911 185.221C82.6911 187.292 80.9719 189.011 78.9011 189.011C76.8303 189.011 75.1111 187.292 75.1111 185.221C75.1111 183.15 76.8303 181.431 78.9011 181.431ZM84.2149 194.598C82.9255 196.005 81.2454 197.177 78.9011 197.88C76.5958 197.177 74.8767 196.005 73.5873 194.637V192.254L75.9316 190.73L78.9011 192.957L81.8706 190.73L84.2149 192.254V194.598Z" fill="white"/>
<path d="M106.876 184.856L105.304 184.22C104.704 183.972 104.3 183.652 104.092 183.26C103.884 182.868 103.816 182.376 103.888 181.784C104.008 180.904 104.312 180.316 104.8 180.02C105.296 179.716 106.064 179.564 107.104 179.564C108.136 179.564 109.036 179.676 109.804 179.9L109.624 181.136C108.904 181.112 108.048 181.1 107.056 181.1C106.568 181.092 106.236 181.132 106.06 181.22C105.884 181.3 105.768 181.524 105.712 181.892C105.672 182.164 105.692 182.356 105.772 182.468C105.86 182.572 106.06 182.684 106.372 182.804L107.86 183.38C108.492 183.628 108.908 183.94 109.108 184.316C109.308 184.684 109.368 185.192 109.288 185.84C109.168 186.752 108.872 187.368 108.4 187.688C107.936 188 107.144 188.156 106.024 188.156C105.096 188.156 104.148 188.048 103.18 187.832L103.372 186.524C105.068 186.564 105.928 186.584 105.952 186.584C106.512 186.584 106.892 186.532 107.092 186.428C107.292 186.316 107.42 186.084 107.476 185.732C107.508 185.46 107.484 185.272 107.404 185.168C107.324 185.064 107.148 184.96 106.876 184.856ZM111.882 179.468H112.626C113.002 179.468 113.17 179.652 113.13 180.02L113.046 180.668C112.998 180.988 112.806 181.148 112.47 181.148H111.714C111.346 181.148 111.186 180.964 111.234 180.596L111.318 179.96C111.35 179.632 111.538 179.468 111.882 179.468ZM111.978 188H110.214L111.042 182.084H112.806L111.978 188ZM116.458 185.876L115.03 185.288C114.55 185.096 114.214 184.852 114.022 184.556C113.83 184.26 113.762 183.888 113.818 183.44C113.882 182.896 114.118 182.504 114.526 182.264C114.942 182.024 115.59 181.908 116.47 181.916C117.558 181.932 118.47 182.012 119.206 182.156L119.038 183.284C117.502 183.26 116.722 183.248 116.698 183.248C116.234 183.248 115.926 183.268 115.774 183.308C115.622 183.34 115.534 183.424 115.51 183.56C115.494 183.696 115.53 183.8 115.618 183.872C115.714 183.936 115.894 184.02 116.158 184.124L117.61 184.7C118.098 184.892 118.442 185.124 118.642 185.396C118.842 185.668 118.914 186.032 118.858 186.488C118.81 186.84 118.714 187.128 118.57 187.352C118.434 187.576 118.234 187.744 117.97 187.856C117.706 187.968 117.422 188.04 117.118 188.072C116.814 188.112 116.426 188.132 115.954 188.132C115.234 188.132 114.366 188.06 113.35 187.916L113.518 186.776C113.806 186.792 114.434 186.8 115.402 186.8C116.09 186.8 116.546 186.776 116.77 186.728C116.994 186.68 117.122 186.576 117.154 186.416C117.17 186.296 117.138 186.208 117.058 186.152C116.986 186.096 116.838 186.024 116.614 185.936C116.55 185.912 116.498 185.892 116.458 185.876ZM122.727 183.272L122.331 186.104C122.299 186.328 122.315 186.48 122.379 186.56C122.451 186.632 122.607 186.668 122.847 186.668H123.639L123.723 187.916C123.299 188.068 122.747 188.144 122.067 188.144C121.507 188.144 121.091 187.992 120.819 187.688C120.547 187.376 120.451 186.948 120.531 186.404L120.987 183.272H119.919L120.063 182.144L121.155 182.084L121.395 180.428H123.135L122.907 182.084H124.539L124.371 183.272H122.727ZM130.121 186.596L130.241 187.724C129.577 188.004 128.709 188.144 127.637 188.144C126.509 188.144 125.733 187.88 125.309 187.352C124.885 186.824 124.737 186.012 124.865 184.916C125.009 183.764 125.337 182.976 125.849 182.552C126.361 182.128 127.177 181.916 128.297 181.916C129.337 181.916 130.041 182.088 130.409 182.432C130.785 182.776 130.925 183.284 130.829 183.956C130.749 184.516 130.521 184.916 130.145 185.156C129.769 185.396 129.189 185.544 128.405 185.6L126.653 185.732C126.661 186.124 126.757 186.388 126.941 186.524C127.133 186.66 127.433 186.728 127.841 186.728C128.617 186.728 129.377 186.684 130.121 186.596ZM126.761 184.688L128.141 184.556C128.461 184.532 128.693 184.468 128.837 184.364C128.989 184.26 129.081 184.068 129.113 183.788C129.137 183.524 129.085 183.36 128.957 183.296C128.837 183.232 128.577 183.204 128.177 183.212C127.713 183.212 127.385 183.312 127.193 183.512C127.009 183.704 126.865 184.096 126.761 184.688ZM133.608 182.084V183.152C134.04 182.72 134.44 182.408 134.808 182.216C135.184 182.016 135.576 181.916 135.984 181.916C136.416 181.916 136.756 182.012 137.004 182.204C137.252 182.396 137.396 182.668 137.436 183.02C138.18 182.284 138.924 181.916 139.668 181.916C140.212 181.916 140.608 182.068 140.856 182.372C141.112 182.668 141.204 183.076 141.132 183.596L140.52 188H138.756L139.308 184.076C139.34 183.828 139.32 183.656 139.248 183.56C139.176 183.464 139.052 183.416 138.876 183.416C138.676 183.416 138.464 183.48 138.24 183.608C138.016 183.736 137.712 183.972 137.328 184.316L136.812 188H135.108L135.648 184.076C135.688 183.836 135.676 183.668 135.612 183.572C135.548 183.468 135.42 183.416 135.228 183.416C135.02 183.416 134.8 183.48 134.568 183.608C134.344 183.728 134.048 183.948 133.68 184.268L133.164 188H131.4L132.228 182.084H133.608ZM147.564 188H146.184L146.196 186.932C145.588 187.716 144.78 188.12 143.772 188.144C143.028 188.168 142.524 187.928 142.26 187.424C142.004 186.912 141.96 186.08 142.128 184.928C142.208 184.384 142.32 183.928 142.464 183.56C142.608 183.184 142.768 182.888 142.944 182.672C143.12 182.456 143.348 182.292 143.628 182.18C143.908 182.068 144.176 181.996 144.432 181.964C144.696 181.932 145.028 181.916 145.428 181.916C145.852 181.916 146.36 181.952 146.952 182.024C147.544 182.096 148.016 182.18 148.368 182.276L147.564 188ZM146.472 183.224H145.56C144.984 183.224 144.592 183.324 144.384 183.524C144.176 183.724 144.02 184.2 143.916 184.952C143.812 185.712 143.788 186.2 143.844 186.416C143.9 186.624 144.072 186.72 144.36 186.704C144.888 186.696 145.48 186.324 146.136 185.588L146.472 183.224ZM151.978 185.876L150.55 185.288C150.07 185.096 149.734 184.852 149.542 184.556C149.35 184.26 149.282 183.888 149.338 183.44C149.402 182.896 149.638 182.504 150.046 182.264C150.462 182.024 151.11 181.908 151.99 181.916C153.078 181.932 153.99 182.012 154.726 182.156L154.558 183.284C153.022 183.26 152.242 183.248 152.218 183.248C151.754 183.248 151.446 183.268 151.294 183.308C151.142 183.34 151.054 183.424 151.03 183.56C151.014 183.696 151.05 183.8 151.138 183.872C151.234 183.936 151.414 184.02 151.678 184.124L153.13 184.7C153.618 184.892 153.962 185.124 154.162 185.396C154.362 185.668 154.434 186.032 154.378 186.488C154.33 186.84 154.234 187.128 154.09 187.352C153.954 187.576 153.754 187.744 153.49 187.856C153.226 187.968 152.942 188.04 152.638 188.072C152.334 188.112 151.946 188.132 151.474 188.132C150.754 188.132 149.886 188.06 148.87 187.916L149.038 186.776C149.326 186.792 149.954 186.8 150.922 186.8C151.61 186.8 152.066 186.776 152.29 186.728C152.514 186.68 152.642 186.576 152.674 186.416C152.69 186.296 152.658 186.208 152.578 186.152C152.506 186.096 152.358 186.024 152.134 185.936C152.07 185.912 152.018 185.892 151.978 185.876ZM169.55 179.72L167.126 187.532C167.03 187.844 166.806 188 166.454 188H164.726C164.566 188 164.426 187.948 164.306 187.844C164.186 187.732 164.122 187.6 164.114 187.448L163.958 182.096V181.04H163.73C163.626 181.48 163.534 181.836 163.454 182.108L161.81 187.52C161.714 187.84 161.486 188 161.126 188H159.386C159.226 188 159.082 187.948 158.954 187.844C158.834 187.74 158.774 187.612 158.774 187.46L158.522 179.72H160.346V185.504C160.346 185.64 160.338 185.856 160.322 186.152C160.314 186.44 160.31 186.624 160.31 186.704H160.55C160.59 186.536 160.706 186.112 160.898 185.432L162.494 180.248C162.598 179.896 162.83 179.72 163.19 179.72H164.738C164.906 179.72 165.042 179.78 165.146 179.9C165.258 180.012 165.314 180.152 165.314 180.32L165.542 185.516C165.558 186.036 165.562 186.432 165.554 186.704H165.806C165.926 186.16 166.026 185.744 166.106 185.456L167.69 179.72H169.55ZM174.676 186.596L174.796 187.724C174.132 188.004 173.264 188.144 172.192 188.144C171.064 188.144 170.288 187.88 169.864 187.352C169.44 186.824 169.292 186.012 169.42 184.916C169.564 183.764 169.892 182.976 170.404 182.552C170.916 182.128 171.732 181.916 172.852 181.916C173.892 181.916 174.596 182.088 174.964 182.432C175.34 182.776 175.48 183.284 175.384 183.956C175.304 184.516 175.076 184.916 174.7 185.156C174.324 185.396 173.744 185.544 172.96 185.6L171.208 185.732C171.216 186.124 171.312 186.388 171.496 186.524C171.688 186.66 171.988 186.728 172.396 186.728C173.172 186.728 173.932 186.684 174.676 186.596ZM171.316 184.688L172.696 184.556C173.016 184.532 173.248 184.468 173.392 184.364C173.544 184.26 173.636 184.068 173.668 183.788C173.692 183.524 173.64 183.36 173.512 183.296C173.392 183.232 173.132 183.204 172.732 183.212C172.268 183.212 171.94 183.312 171.748 183.512C171.564 183.704 171.42 184.096 171.316 184.688ZM178.883 179.6L178.619 181.652C178.555 182.164 178.443 182.632 178.283 183.056C179.067 182.304 179.847 181.928 180.623 181.928C181.343 181.928 181.835 182.168 182.099 182.648C182.363 183.128 182.411 183.944 182.243 185.096C182.091 186.216 181.779 187.008 181.307 187.472C180.835 187.928 180.119 188.156 179.159 188.156C178.679 188.156 178.119 188.112 177.479 188.024C176.847 187.936 176.347 187.824 175.979 187.688L177.119 179.6H178.883ZM178.247 184.244L177.887 186.824C178.399 186.84 178.707 186.848 178.811 186.848C179.395 186.84 179.787 186.724 179.987 186.5C180.187 186.276 180.343 185.768 180.455 184.976C180.543 184.288 180.555 183.848 180.491 183.656C180.435 183.464 180.267 183.368 179.987 183.368C179.523 183.368 178.943 183.66 178.247 184.244ZM187.89 182.084L187.866 183.224C188.218 182.864 188.614 182.56 189.054 182.312C189.494 182.064 189.926 181.94 190.35 181.94C191.046 181.94 191.526 182.184 191.79 182.672C192.054 183.16 192.106 183.988 191.946 185.156C191.874 185.668 191.774 186.108 191.646 186.476C191.526 186.836 191.386 187.124 191.226 187.34C191.066 187.556 190.87 187.728 190.638 187.856C190.414 187.976 190.186 188.056 189.954 188.096C189.73 188.136 189.462 188.156 189.15 188.156C188.566 188.156 187.978 188.104 187.386 188C187.386 188.376 187.358 188.748 187.302 189.116L187.11 190.28H185.334L186.486 182.084H187.89ZM187.602 186.92H188.514C189.122 186.92 189.518 186.82 189.702 186.62C189.894 186.412 190.042 185.916 190.146 185.132C190.242 184.38 190.258 183.9 190.194 183.692C190.138 183.476 189.974 183.368 189.702 183.368C189.494 183.368 189.23 183.456 188.91 183.632C188.59 183.808 188.27 184.044 187.95 184.34L187.602 186.92ZM198.423 188H197.043L197.055 186.932C196.447 187.716 195.639 188.12 194.631 188.144C193.887 188.168 193.383 187.928 193.119 187.424C192.863 186.912 192.819 186.08 192.987 184.928C193.067 184.384 193.179 183.928 193.323 183.56C193.467 183.184 193.627 182.888 193.803 182.672C193.979 182.456 194.207 182.292 194.487 182.18C194.767 182.068 195.035 181.996 195.291 181.964C195.555 181.932 195.887 181.916 196.287 181.916C196.711 181.916 197.219 181.952 197.811 182.024C198.403 182.096 198.875 182.18 199.227 182.276L198.423 188ZM197.331 183.224H196.419C195.843 183.224 195.451 183.324 195.243 183.524C195.035 183.724 194.879 184.2 194.775 184.952C194.671 185.712 194.647 186.2 194.703 186.416C194.759 186.624 194.931 186.72 195.219 186.704C195.747 186.696 196.339 186.324 196.995 185.588L197.331 183.224ZM204.937 181.916L204.541 183.56H204.109C203.861 183.56 203.597 183.616 203.317 183.728C203.045 183.832 202.649 184.02 202.129 184.292L201.625 188H199.849L200.677 182.084H202.057V183.2C202.961 182.344 203.801 181.916 204.577 181.916H204.937ZM210.517 188H209.137L209.149 186.932C208.541 187.716 207.733 188.12 206.725 188.144C205.981 188.168 205.477 187.928 205.213 187.424C204.957 186.912 204.913 186.08 205.081 184.928C205.161 184.384 205.273 183.928 205.417 183.56C205.561 183.184 205.721 182.888 205.897 182.672C206.073 182.456 206.301 182.292 206.581 182.18C206.861 182.068 207.129 181.996 207.385 181.964C207.649 181.932 207.981 181.916 208.381 181.916C208.805 181.916 209.313 181.952 209.905 182.024C210.497 182.096 210.969 182.18 211.321 182.276L210.517 188ZM209.425 183.224H208.513C207.937 183.224 207.545 183.324 207.337 183.524C207.129 183.724 206.973 184.2 206.869 184.952C206.765 185.712 206.741 186.2 206.797 186.416C206.853 186.624 207.025 186.72 207.313 186.704C207.841 186.696 208.433 186.324 209.089 185.588L209.425 183.224ZM103.336 202L104.5 193.72C105.54 193.648 106.528 193.612 107.464 193.612C108.376 193.612 109.084 193.74 109.588 193.996C110.092 194.252 110.432 194.696 110.608 195.328C110.792 195.96 110.808 196.828 110.656 197.932C110.528 198.828 110.364 199.548 110.164 200.092C109.972 200.636 109.7 201.06 109.348 201.364C109.004 201.66 108.616 201.86 108.184 201.964C107.752 202.06 107.18 202.108 106.468 202.108C105.564 202.108 104.52 202.072 103.336 202ZM106.144 195.052L105.352 200.656C105.488 200.656 105.68 200.66 105.928 200.668C106.176 200.668 106.348 200.668 106.444 200.668C106.828 200.668 107.132 200.636 107.356 200.572C107.588 200.5 107.8 200.364 107.992 200.164C108.184 199.956 108.332 199.664 108.436 199.288C108.548 198.912 108.648 198.412 108.736 197.788C108.824 197.188 108.868 196.716 108.868 196.372C108.876 196.028 108.824 195.752 108.712 195.544C108.608 195.336 108.456 195.2 108.256 195.136C108.056 195.072 107.772 195.04 107.404 195.04L106.144 195.052ZM113.077 193.468H113.821C114.197 193.468 114.365 193.652 114.325 194.02L114.241 194.668C114.193 194.988 114.001 195.148 113.665 195.148H112.909C112.541 195.148 112.381 194.964 112.429 194.596L112.513 193.96C112.545 193.632 112.733 193.468 113.077 193.468ZM113.173 202H111.409L112.237 196.084H114.001L113.173 202ZM117.654 199.876L116.226 199.288C115.746 199.096 115.41 198.852 115.218 198.556C115.026 198.26 114.958 197.888 115.014 197.44C115.078 196.896 115.314 196.504 115.722 196.264C116.138 196.024 116.786 195.908 117.666 195.916C118.754 195.932 119.666 196.012 120.402 196.156L120.234 197.284C118.698 197.26 117.918 197.248 117.894 197.248C117.43 197.248 117.122 197.268 116.97 197.308C116.818 197.34 116.73 197.424 116.706 197.56C116.69 197.696 116.726 197.8 116.814 197.872C116.91 197.936 117.09 198.02 117.354 198.124L118.806 198.7C119.294 198.892 119.638 199.124 119.838 199.396C120.038 199.668 120.11 200.032 120.054 200.488C120.006 200.84 119.91 201.128 119.766 201.352C119.63 201.576 119.43 201.744 119.166 201.856C118.902 201.968 118.618 202.04 118.314 202.072C118.01 202.112 117.622 202.132 117.15 202.132C116.43 202.132 115.562 202.06 114.546 201.916L114.714 200.776C115.002 200.792 115.63 200.8 116.598 200.8C117.286 200.8 117.742 200.776 117.965 200.728C118.19 200.68 118.318 200.576 118.35 200.416C118.366 200.296 118.334 200.208 118.254 200.152C118.182 200.096 118.034 200.024 117.81 199.936C117.746 199.912 117.694 199.892 117.654 199.876ZM123.922 197.272L123.526 200.104C123.494 200.328 123.51 200.48 123.574 200.56C123.646 200.632 123.802 200.668 124.042 200.668H124.834L124.918 201.916C124.494 202.068 123.942 202.144 123.262 202.144C122.702 202.144 122.286 201.992 122.014 201.688C121.742 201.376 121.646 200.948 121.726 200.404L122.182 197.272H121.114L121.258 196.144L122.35 196.084L122.59 194.428H124.33L124.102 196.084H125.734L125.566 197.272H123.922ZM130.968 195.916L130.572 197.56H130.14C129.892 197.56 129.628 197.616 129.348 197.728C129.076 197.832 128.68 198.02 128.16 198.292L127.656 202H125.88L126.708 196.084H128.088V197.2C128.992 196.344 129.832 195.916 130.608 195.916H130.968ZM132.671 193.468H133.415C133.791 193.468 133.959 193.652 133.919 194.02L133.835 194.668C133.787 194.988 133.595 195.148 133.259 195.148H132.503C132.135 195.148 131.975 194.964 132.023 194.596L132.107 193.96C132.139 193.632 132.327 193.468 132.671 193.468ZM132.767 202H131.003L131.831 196.084H133.595L132.767 202ZM137.187 193.6L136.923 195.652C136.859 196.164 136.747 196.632 136.587 197.056C137.371 196.304 138.151 195.928 138.927 195.928C139.647 195.928 140.139 196.168 140.403 196.648C140.667 197.128 140.715 197.944 140.547 199.096C140.395 200.216 140.083 201.008 139.611 201.472C139.139 201.928 138.423 202.156 137.463 202.156C136.983 202.156 136.423 202.112 135.783 202.024C135.151 201.936 134.651 201.824 134.283 201.688L135.423 193.6H137.187ZM136.551 198.244L136.191 200.824C136.703 200.84 137.011 200.848 137.115 200.848C137.699 200.84 138.091 200.724 138.291 200.5C138.491 200.276 138.647 199.768 138.759 198.976C138.847 198.288 138.859 197.848 138.795 197.656C138.739 197.464 138.571 197.368 138.291 197.368C137.827 197.368 137.247 197.66 136.551 198.244ZM147.793 196.084L146.977 202H145.609V200.884C144.729 201.732 143.877 202.156 143.053 202.156C142.485 202.156 142.069 202.008 141.805 201.712C141.549 201.416 141.461 201.008 141.541 200.488L142.153 196.084H143.929L143.365 200.008C143.333 200.248 143.349 200.42 143.413 200.524C143.485 200.62 143.617 200.668 143.809 200.668C144.065 200.668 144.313 200.6 144.553 200.464C144.801 200.328 145.129 200.088 145.537 199.744L146.041 196.084H147.793ZM150.12 193.468H150.864C151.24 193.468 151.408 193.652 151.368 194.02L151.284 194.668C151.236 194.988 151.044 195.148 150.708 195.148H149.952C149.584 195.148 149.424 194.964 149.472 194.596L149.556 193.96C149.588 193.632 149.776 193.468 150.12 193.468ZM150.216 202H148.452L149.28 196.084H151.044L150.216 202ZM158.56 193.6L157.372 202H155.98V200.92C155.18 201.736 154.36 202.144 153.52 202.144C152.856 202.144 152.384 201.892 152.104 201.388C151.824 200.884 151.76 200.064 151.912 198.928C152 198.296 152.124 197.776 152.284 197.368C152.444 196.96 152.644 196.656 152.884 196.456C153.132 196.248 153.384 196.108 153.64 196.036C153.904 195.956 154.216 195.916 154.576 195.916C155.208 195.916 155.844 195.968 156.484 196.072C156.5 195.576 156.528 195.188 156.568 194.908L156.784 193.6H158.56ZM156.268 197.164H155.32C154.736 197.164 154.348 197.268 154.156 197.476C153.964 197.676 153.816 198.168 153.712 198.952C153.616 199.616 153.596 200.068 153.652 200.308C153.708 200.54 153.88 200.652 154.168 200.644C154.456 200.636 154.728 200.564 154.984 200.428C155.248 200.284 155.556 200.056 155.908 199.744L156.268 197.164ZM162.362 195.916C163.458 195.916 164.222 196.164 164.654 196.66C165.086 197.156 165.222 197.976 165.062 199.12C164.91 200.232 164.578 201.016 164.066 201.472C163.562 201.928 162.774 202.156 161.702 202.156C160.614 202.156 159.846 201.908 159.398 201.412C158.958 200.916 158.818 200.104 158.978 198.976C159.138 197.856 159.47 197.068 159.974 196.612C160.478 196.148 161.274 195.916 162.362 195.916ZM162.35 197.248C161.862 197.248 161.51 197.372 161.294 197.62C161.086 197.868 160.93 198.368 160.826 199.12C160.73 199.808 160.742 200.264 160.862 200.488C160.982 200.712 161.274 200.824 161.738 200.824C162.218 200.824 162.562 200.7 162.77 200.452C162.978 200.196 163.134 199.704 163.238 198.976C163.342 198.288 163.33 197.828 163.202 197.596C163.082 197.364 162.798 197.248 162.35 197.248ZM170.929 195.916L170.533 197.56H170.101C169.853 197.56 169.589 197.616 169.309 197.728C169.037 197.832 168.641 198.02 168.121 198.292L167.617 202H165.841L166.669 196.084H168.049V197.2C168.953 196.344 169.793 195.916 170.569 195.916H170.929ZM176.316 200.596L176.436 201.724C175.772 202.004 174.904 202.144 173.832 202.144C172.704 202.144 171.928 201.88 171.504 201.352C171.08 200.824 170.932 200.012 171.06 198.916C171.204 197.764 171.532 196.976 172.044 196.552C172.556 196.128 173.372 195.916 174.492 195.916C175.532 195.916 176.236 196.088 176.604 196.432C176.98 196.776 177.12 197.284 177.024 197.956C176.944 198.516 176.716 198.916 176.34 199.156C175.964 199.396 175.384 199.544 174.6 199.6L172.848 199.732C172.856 200.124 172.952 200.388 173.136 200.524C173.328 200.66 173.628 200.728 174.036 200.728C174.812 200.728 175.572 200.684 176.316 200.596ZM172.956 198.688L174.336 198.556C174.656 198.532 174.888 198.468 175.032 198.364C175.184 198.26 175.276 198.068 175.308 197.788C175.332 197.524 175.28 197.36 175.152 197.296C175.032 197.232 174.772 197.204 174.372 197.212C173.908 197.212 173.58 197.312 173.388 197.512C173.204 197.704 173.06 198.096 172.956 198.688ZM180.583 199.876L179.155 199.288C178.675 199.096 178.339 198.852 178.147 198.556C177.955 198.26 177.887 197.888 177.943 197.44C178.007 196.896 178.243 196.504 178.651 196.264C179.067 196.024 179.715 195.908 180.595 195.916C181.683 195.932 182.595 196.012 183.331 196.156L183.163 197.284C181.627 197.26 180.847 197.248 180.823 197.248C180.359 197.248 180.051 197.268 179.899 197.308C179.747 197.34 179.659 197.424 179.635 197.56C179.619 197.696 179.655 197.8 179.743 197.872C179.839 197.936 180.019 198.02 180.283 198.124L181.735 198.7C182.223 198.892 182.567 199.124 182.767 199.396C182.967 199.668 183.039 200.032 182.983 200.488C182.935 200.84 182.839 201.128 182.695 201.352C182.559 201.576 182.359 201.744 182.095 201.856C181.831 201.968 181.547 202.04 181.243 202.072C180.939 202.112 180.551 202.132 180.079 202.132C179.359 202.132 178.491 202.06 177.475 201.916L177.643 200.776C177.931 200.792 178.559 200.8 179.527 200.8C180.215 200.8 180.671 200.776 180.895 200.728C181.119 200.68 181.247 200.576 181.279 200.416C181.295 200.296 181.263 200.208 181.183 200.152C181.111 200.096 180.963 200.024 180.739 199.936C180.675 199.912 180.623 199.892 180.583 199.876Z" fill="white"/>
<defs>
<linearGradient id="paint0_linear" x1="0" y1="190.471" x2="570.258" y2="190.471" gradientUnits="userSpaceOnUse">
<stop stop-color="#213667"/>
<stop offset="1" stop-color="#506EB3"/>
</linearGradient>
<linearGradient id="paint1_linear" x1="0" y1="190.471" x2="570.258" y2="190.471" gradientUnits="userSpaceOnUse">
<stop stop-color="#213667"/>
<stop offset="1" stop-color="#506EB3"/>
</linearGradient>
<linearGradient id="paint2_linear" x1="-72" y1="177.929" x2="272.574" y2="495.882" gradientUnits="userSpaceOnUse">
<stop stop-color="#1F3D8C"/>
<stop offset="1" stop-color="#506EB3"/>
</linearGradient>
<linearGradient id="paint3_linear" x1="-197.439" y1="-320.674" x2="425.546" y2="291.233" gradientUnits="userSpaceOnUse">
<stop stop-color="#1F3D8C"/>
<stop offset="1" stop-color="#506EB3"/>
</linearGradient>
<linearGradient id="paint4_linear" x1="508.5" y1="148.503" x2="1076.94" y2="250.741" gradientUnits="userSpaceOnUse">
<stop stop-color="#1F3D8C"/>
<stop offset="1" stop-color="#506EB3"/>
</linearGradient>
<linearGradient id="paint5_linear" x1="148.859" y1="95.6994" x2="596.799" y2="536.188" gradientUnits="userSpaceOnUse">
<stop stop-color="#1F3D8C"/>
<stop offset="1" stop-color="#506EB3"/>
</linearGradient>
</defs>
</svg>
