<svg width="635" height="748" viewBox="0 0 635 748" fill="none" xmlns="http://www.w3.org/2000/svg">
<path d="M109.098 696.567L2.4731 355.234C-8.27503 320.852 17.3588 285.899 53.2652 285.899H388.597C411.853 285.899 432.446 301.063 439.389 323.332L546.015 664.665C556.763 699.047 531.129 734 495.223 734H159.89C136.635 733.952 116.089 718.836 109.098 696.567Z" fill="url(#paint0_linear)" fill-opacity="0.21"/>
<path d="M195.61 571.998L88.9848 230.665C78.2367 196.284 103.871 161.33 139.777 161.33H475.109C498.365 161.33 518.958 176.494 525.901 198.763L632.526 540.096C643.274 574.478 617.641 609.431 581.734 609.431H246.402C223.146 609.384 202.601 594.267 195.61 571.998Z" fill="url(#paint1_linear)"/>
<g filter="url(#filter0_f)">
<path d="M204.168 652.687C204.168 669.925 218.066 683.826 235.298 683.826H449.877C467.11 683.826 481.007 669.925 481.007 652.687V140.565C481.007 123.328 467.11 109.426 449.877 109.426H235.298C218.066 109.426 204.168 123.328 204.168 140.565V652.687Z" fill="#C3CBE5" fill-opacity="0.55"/>
</g>
<path d="M204 652.625C204 669.81 217.898 683.67 235.131 683.67H449.709C466.942 683.67 480.839 669.81 480.839 652.625V142.045C480.839 124.859 466.942 111 449.709 111H235.131C217.898 111 204 124.859 204 142.045V652.625Z" fill="#DC272B"/>
<path d="M481.007 161.33H204.168V609.431H481.007V161.33Z" fill="url(#paint2_linear)"/>
<path d="M372.052 134.272C372.052 136.348 370.898 137.733 369.168 137.733H291.884C290.153 137.733 289 136.348 289 134.272C289 132.196 290.153 130.812 291.884 130.812H369.168C370.898 130.812 372.052 132.196 372.052 134.272Z" fill="#EA6565"/>
<path d="M396.226 134.19C396.226 137.074 393.919 139.381 391.035 139.381C388.152 139.381 385.845 137.074 385.845 134.19C385.845 131.307 388.152 129 391.035 129C393.919 129 396.226 131.307 396.226 134.19Z" fill="#EA6565"/>
<path d="M343.38 630.193C347.075 630.193 351.298 631.861 353.937 634.642C356.576 637.422 358.16 641.315 358.16 645.764C358.16 649.657 356.576 654.106 353.937 656.886C351.298 659.667 347.603 661.335 343.38 661.335H341.796C333.878 661.335 327.016 654.106 327.016 645.764C327.016 637.422 333.878 630.193 341.796 630.193H343.38Z" fill="#EA6565"/>
<g opacity="0.1" filter="url(#filter1_f)">
<path d="M377.194 269.29C377.194 277.556 370.515 284.169 362.167 284.169L107.275 283.618C107.275 280.862 107.275 224.652 107.275 224.652C107.275 216.386 113.954 209.773 122.302 209.773H362.167C370.515 209.773 377.194 216.386 377.194 224.652V269.29Z" fill="#C3CBE5"/>
</g>
<path d="M397.957 248.528C397.957 256.795 391.279 263.407 382.931 263.407L128.039 262.856C128.039 260.101 128.039 203.891 128.039 203.891C128.039 195.625 134.717 189.012 143.065 189.012H382.931C391.279 189.012 397.957 195.625 397.957 203.891V248.528Z" fill="white"/>
<path d="M333.249 216.694H370.96C372.624 216.694 373.733 215.656 373.733 214.099C373.733 212.541 372.624 211.503 370.96 211.503H333.249C331.586 211.503 330.477 212.541 330.477 214.099C330.477 215.656 332.14 216.694 333.249 216.694Z" fill="#FFCAA0"/>
<path d="M236.333 216.694H313.885C315.535 216.694 316.635 215.656 316.635 214.099C316.635 212.541 315.535 211.503 313.885 211.503H236.333C234.683 211.503 233.583 212.541 233.583 214.099C233.583 215.656 234.683 216.694 236.333 216.694Z" fill="#FFCAA0"/>
<path d="M153.297 216.694H215.245C216.905 216.694 218.011 215.656 218.011 214.099C218.011 212.541 216.905 211.503 215.245 211.503H153.297C151.637 211.503 150.531 212.541 150.531 214.099C150.531 215.656 151.637 216.694 153.297 216.694Z" fill="#FFCAA0"/>
<path d="M315.96 240.915H343.262C344.934 240.915 346.048 239.877 346.048 238.32C346.048 236.763 344.934 235.725 343.262 235.725H315.96C314.288 235.725 313.174 236.763 313.174 238.32C313.174 239.877 314.288 240.915 315.96 240.915Z" fill="#FFCAA0"/>
<path d="M194.837 240.915H298.281C299.95 240.915 301.062 239.877 301.062 238.32C301.062 236.763 299.95 235.725 298.281 235.725H194.837C193.169 235.725 192.057 236.763 192.057 238.32C192.057 239.877 193.725 240.915 194.837 240.915Z" fill="#FFCAA0"/>
<path d="M153.365 240.915H180.572C182.272 240.915 183.406 239.877 183.406 238.32C183.406 236.763 182.272 235.725 180.572 235.725H153.365C151.665 235.725 150.531 236.763 150.531 238.32C150.531 239.877 151.665 240.915 153.365 240.915Z" fill="#FFCAA0"/>
<g opacity="0.1" filter="url(#filter2_f)">
<path d="M404.877 563.41C404.877 571.676 398.199 578.289 389.851 578.289L134.959 577.738C134.959 574.983 134.959 518.773 134.959 518.773C134.959 510.507 141.637 503.894 149.985 503.894H389.851C398.199 503.894 404.877 510.507 404.877 518.773V563.41Z" fill="#C6ACD1"/>
</g>
<path d="M425.641 542.648C425.641 550.915 418.962 557.527 410.615 557.527L155.723 556.976C155.723 554.221 155.723 498.011 155.723 498.011C155.723 489.745 162.401 483.132 170.749 483.132H410.615C418.962 483.132 425.641 489.745 425.641 498.011V542.648Z" fill="white"/>
<g opacity="0.1" filter="url(#filter3_f)">
<path d="M294.143 433.523C294.143 441.86 300.821 448.53 309.169 448.53L564.061 447.974C564.061 445.195 564.061 340.699 564.061 340.699C564.061 332.361 557.382 325.691 549.034 325.691H309.169C300.821 325.691 294.143 332.361 294.143 340.699V433.523Z" fill="#C3CBE6"/>
</g>
<path d="M273.379 412.761C273.379 421.099 280.057 427.769 288.405 427.769L543.297 427.213C543.297 424.434 543.297 319.938 543.297 319.938C543.297 311.6 536.619 304.93 528.271 304.93H288.405C280.057 304.93 273.379 311.6 273.379 319.938V412.761Z" fill="url(#paint3_linear)"/>
<path d="M334.661 327.422H296.88C295.238 327.422 294.143 328.46 294.143 330.017C294.143 331.574 295.238 332.612 296.88 332.612H334.661C336.304 332.612 337.399 331.574 337.399 330.017C337.399 328.46 336.304 327.422 334.661 327.422Z" fill="white"/>
<path d="M435 327.422H355.724C354.072 327.422 352.971 328.46 352.971 330.017C352.971 331.574 354.072 332.612 355.724 332.612H435C436.652 332.612 437.753 331.574 437.753 330.017C437.753 328.46 436.652 327.422 435 327.422Z" fill="white"/>
<path d="M519.744 327.422H456.116C454.441 327.422 453.325 328.46 453.325 330.017C453.325 331.574 454.441 332.612 456.116 332.612H519.744C521.419 332.612 522.535 331.574 522.535 330.017C522.535 328.46 520.861 327.422 519.744 327.422Z" fill="white"/>
<path d="M362.29 351.644H296.935C295.26 351.644 294.143 352.682 294.143 354.239C294.143 355.796 295.26 356.834 296.935 356.834H362.29C363.965 356.834 365.083 355.796 365.083 354.239C365.083 352.682 363.965 351.644 362.29 351.644Z" fill="white"/>
<path d="M473.068 351.644H383.405C381.755 351.644 380.655 352.682 380.655 354.239C380.655 355.796 381.755 356.834 383.405 356.834H473.068C474.718 356.834 475.818 355.796 475.818 354.239C475.818 352.682 474.718 351.644 473.068 351.644Z" fill="white"/>
<path d="M519.749 351.644H492.446C490.775 351.644 489.66 352.682 489.66 354.239C489.66 355.796 490.775 356.834 492.446 356.834H519.749C521.421 356.834 522.535 355.796 522.535 354.239C522.535 352.682 521.421 351.644 519.749 351.644Z" fill="white"/>
<path d="M334.661 375.865H296.88C295.238 375.865 294.143 376.903 294.143 378.46C294.143 380.018 295.238 381.056 296.88 381.056H334.661C336.304 381.056 337.399 380.018 337.399 378.46C337.399 376.903 336.304 375.865 334.661 375.865Z" fill="white"/>
<path d="M435 375.865H355.724C354.072 375.865 352.971 376.903 352.971 378.46C352.971 380.018 354.072 381.056 355.724 381.056H435C436.652 381.056 437.753 380.018 437.753 378.46C437.753 376.903 436.652 375.865 435 375.865Z" fill="white"/>
<path d="M519.744 375.865H456.116C454.441 375.865 453.325 376.903 453.325 378.46C453.325 380.018 454.441 381.056 456.116 381.056H519.744C521.419 381.056 522.535 380.018 522.535 378.46C522.535 376.903 520.861 375.865 519.744 375.865Z" fill="white"/>
<path d="M362.29 400.087H296.935C295.26 400.087 294.143 401.125 294.143 402.682C294.143 404.239 295.26 405.277 296.935 405.277H362.29C363.965 405.277 365.083 404.239 365.083 402.682C365.083 401.125 363.965 400.087 362.29 400.087Z" fill="white"/>
<path d="M473.068 400.087H383.405C381.755 400.087 380.655 401.125 380.655 402.682C380.655 404.239 381.755 405.277 383.405 405.277H473.068C474.718 405.277 475.818 404.239 475.818 402.682C475.818 401.125 474.718 400.087 473.068 400.087Z" fill="white"/>
<path d="M519.749 400.087H492.446C490.775 400.087 489.66 401.125 489.66 402.682C489.66 404.239 490.775 405.277 492.446 405.277H519.749C521.421 405.277 522.535 404.239 522.535 402.682C522.535 401.125 521.421 400.087 519.749 400.087Z" fill="white"/>
<path d="M340.151 510.814H395.204C396.856 510.814 397.957 509.776 397.957 508.219C397.957 506.662 396.856 505.624 395.204 505.624H340.151C338.5 505.624 337.398 506.662 337.398 508.219C337.398 509.776 338.5 510.814 340.151 510.814Z" fill="#FFCAA0"/>
<path d="M236.31 510.814H320.83C322.466 510.814 323.557 509.776 323.557 508.219C323.557 506.662 322.466 505.624 320.83 505.624H236.31C234.675 505.624 233.584 506.662 233.584 508.219C233.584 509.776 235.22 510.814 236.31 510.814Z" fill="#FFCAA0"/>
<path d="M277.88 535.036H343.278C344.941 535.036 346.049 533.998 346.049 532.441C346.049 530.884 344.941 529.846 343.278 529.846H277.88C276.218 529.846 275.109 530.884 275.109 532.441C275.109 533.998 276.218 535.036 277.88 535.036Z" fill="#FFCAA0"/>
<path d="M236.269 535.036H262.044C263.654 535.036 264.728 533.998 264.728 532.441C264.728 530.884 263.654 529.846 262.044 529.846H236.269C234.658 529.846 233.584 530.884 233.584 532.441C233.584 533.998 234.658 535.036 236.269 535.036Z" fill="#FFCAA0"/>
<path d="M199.747 503.894L183.406 523.617H198.113L196.479 536.766L212.82 517.043H198.113L199.747 503.894Z" stroke="url(#paint4_linear)" stroke-width="2" stroke-linecap="round" stroke-linejoin="round"/>
<g filter="url(#filter4_d)">
<mask id="path-27-inside-1" fill="white">
<path fill-rule="evenodd" clip-rule="evenodd" d="M248 6C245.791 6 244 7.79086 244 10V57C244 59.2091 245.791 61 248 61H333.768C334.49 61 335.157 61.3897 335.511 62.0194L340.98 71.7422C341.745 73.1014 343.702 73.1014 344.467 71.7422L349.936 62.0194C350.29 61.3897 350.957 61 351.679 61H437C439.209 61 441 59.2091 441 57V10C441 7.79086 439.209 6 437 6H248Z"/>
</mask>
<path fill-rule="evenodd" clip-rule="evenodd" d="M248 6C245.791 6 244 7.79086 244 10V57C244 59.2091 245.791 61 248 61H333.768C334.49 61 335.157 61.3897 335.511 62.0194L340.98 71.7422C341.745 73.1014 343.702 73.1014 344.467 71.7422L349.936 62.0194C350.29 61.3897 350.957 61 351.679 61H437C439.209 61 441 59.2091 441 57V10C441 7.79086 439.209 6 437 6H248Z" fill="white"/>
<path d="M349.936 62.0194L349.064 61.5291L349.936 62.0194ZM340.98 71.7422L341.852 71.2519L340.98 71.7422ZM344.467 71.7422L343.595 71.2519L344.467 71.7422ZM335.511 62.0194L334.639 62.5097L335.511 62.0194ZM245 10C245 8.34315 246.343 7 248 7V5C245.239 5 243 7.23858 243 10H245ZM245 57V10H243V57H245ZM248 60C246.343 60 245 58.6569 245 57H243C243 59.7614 245.239 62 248 62V60ZM333.768 60H248V62H333.768V60ZM341.852 71.2519L336.382 61.5291L334.639 62.5097L340.109 72.2325L341.852 71.2519ZM349.064 61.5291L343.595 71.2519L345.338 72.2325L350.808 62.5097L349.064 61.5291ZM437 60H351.679V62H437V60ZM440 57C440 58.6569 438.657 60 437 60V62C439.761 62 442 59.7614 442 57H440ZM440 10V57H442V10H440ZM437 7C438.657 7 440 8.34315 440 10H442C442 7.23858 439.761 5 437 5V7ZM248 7H437V5H248V7ZM350.808 62.5097C350.985 62.1949 351.318 62 351.679 62V60C350.595 60 349.596 60.5845 349.064 61.5291L350.808 62.5097ZM340.109 72.2325C341.256 74.2713 344.191 74.2713 345.338 72.2325L343.595 71.2519C343.213 71.9315 342.234 71.9315 341.852 71.2519L340.109 72.2325ZM333.768 62C334.129 62 334.462 62.1949 334.639 62.5097L336.382 61.5291C335.851 60.5845 334.852 60 333.768 60V62Z" fill="#FCFCFC" mask="url(#path-27-inside-1)"/>
</g>
<path d="M278.236 36.374H273.976C273.423 36.374 273 36.7968 273 37.3496V42.2277C273 42.7805 273.423 43.2033 273.976 43.2033H278.236C278.789 43.2033 279.211 42.748 279.211 42.2277V37.3496C279.211 36.8293 278.789 36.374 278.236 36.374Z" fill="#DC272B"/>
<path d="M287.309 30.8457H283.049C282.496 30.8457 282.073 31.2685 282.073 31.8213V42.2603C282.073 42.8132 282.496 43.2359 283.049 43.2359H287.309C287.862 43.2359 288.285 42.7807 288.285 42.2603V31.8213C288.285 31.2685 287.862 30.8457 287.309 30.8457Z" fill="#DC272B"/>
<path d="M296.383 25.252H292.09C291.537 25.252 291.114 25.6747 291.114 26.2276V42.2276C291.114 42.7804 291.537 43.2032 292.09 43.2032H296.35C296.903 43.2032 297.326 42.7479 297.326 42.2276V26.2276C297.358 25.7072 296.903 25.252 296.383 25.252Z" fill="#DC272B"/>
<path d="M281.845 27.4959H284.057C284.252 27.4959 284.349 27.2683 284.219 27.1382L280.122 23.0732C280.024 22.9756 279.894 22.9756 279.829 23.0732L275.764 27.1382C275.634 27.2683 275.731 27.4959 275.927 27.4959H278.17C278.268 27.4959 278.366 27.561 278.366 27.6911C278.463 28.374 277.227 31.7561 273.195 32.3415C272.935 32.374 272.967 32.7317 273.195 32.7642C276.024 33.0244 281.488 31.9187 281.65 27.7236C281.65 27.5935 281.715 27.4959 281.845 27.4959Z" fill="#DC272B"/>
<path d="M311.797 28.439L310.334 27.8536C309.781 27.626 309.391 27.3333 309.195 26.9431C309 26.5853 308.935 26.13 309 25.5447C309.098 24.7317 309.391 24.1788 309.846 23.8861C310.301 23.5935 311.017 23.4634 311.992 23.4634C312.968 23.4634 313.813 23.5609 314.529 23.7886L314.366 24.9593C313.683 24.9268 312.903 24.9268 311.96 24.9268C311.504 24.9268 311.179 24.9593 311.017 25.0244C310.854 25.0894 310.756 25.317 310.691 25.6748C310.659 25.9349 310.659 26.0975 310.756 26.1951C310.821 26.2926 311.017 26.3902 311.309 26.5203L312.708 27.0731C313.293 27.3008 313.683 27.5935 313.878 27.9512C314.073 28.3089 314.106 28.7642 314.041 29.3821C313.943 30.2276 313.651 30.813 313.228 31.1057C312.805 31.3983 312.057 31.5609 310.984 31.5609C310.106 31.5609 309.228 31.4634 308.317 31.2683L308.513 30.0325C310.106 30.065 310.919 30.0975 310.919 30.0975C311.439 30.0975 311.797 30.0325 311.992 29.9349C312.187 29.8374 312.285 29.6097 312.35 29.2845C312.382 29.0244 312.35 28.8618 312.285 28.7642C312.22 28.6666 312.057 28.5365 311.797 28.439Z" fill="#1F3D8C"/>
<path d="M316.577 31.3659H314.918L315.698 25.8375H317.357L316.577 31.3659ZM316.479 23.3984H317.162C317.52 23.3984 317.682 23.561 317.65 23.9188L317.585 24.5366C317.552 24.8293 317.357 24.9919 317.032 24.9919H316.316C315.959 24.9919 315.829 24.8293 315.861 24.4716L315.926 23.8862C315.991 23.5285 316.154 23.3984 316.479 23.3984Z" fill="#1F3D8C"/>
<path d="M320.773 29.3821L319.439 28.8293C318.984 28.6342 318.659 28.4065 318.496 28.1463C318.301 27.8537 318.236 27.5285 318.301 27.1057C318.366 26.5854 318.594 26.2277 318.984 26C319.374 25.7724 319.96 25.6748 320.805 25.6748C321.813 25.6748 322.691 25.7724 323.374 25.9024L323.212 26.9431C321.781 26.9106 321.033 26.9106 321.033 26.9106C320.61 26.9106 320.317 26.9431 320.155 26.9756C320.025 27.0081 319.927 27.1057 319.894 27.2033C319.894 27.3333 319.927 27.4309 319.992 27.4959C320.09 27.561 320.252 27.626 320.48 27.7236L321.846 28.2764C322.301 28.4716 322.626 28.6667 322.821 28.9268C323.016 29.187 323.081 29.5122 323.016 29.935C322.984 30.2602 322.886 30.5203 322.756 30.748C322.626 30.9431 322.431 31.1057 322.203 31.2358C321.943 31.3333 321.683 31.3984 321.39 31.4309C321.098 31.4634 320.74 31.4959 320.285 31.4959C319.602 31.4959 318.789 31.4309 317.846 31.3008L318.008 30.2277C318.268 30.2277 318.854 30.2602 319.764 30.2602C320.415 30.2602 320.838 30.2277 321.033 30.1951C321.228 30.1626 321.358 30.065 321.39 29.9024C321.39 29.8049 321.39 29.7073 321.293 29.6423C321.228 29.5772 321.065 29.5122 320.87 29.4472C320.87 29.4146 320.805 29.4146 320.773 29.3821Z" fill="#1F3D8C"/>
<path d="M326.626 26.943L326.269 29.6097C326.236 29.8048 326.269 29.9674 326.334 30.0324C326.399 30.0975 326.529 30.13 326.756 30.13H327.504L327.569 31.3007C327.179 31.4308 326.659 31.5283 326.008 31.5283C325.488 31.5283 325.098 31.3983 324.838 31.1056C324.578 30.8129 324.48 30.4227 324.578 29.9023L325 26.9755H323.992L324.122 25.9349L325.13 25.8698L325.358 24.3088H326.984L326.756 25.8698H328.285L328.122 26.9755H326.626V26.943Z" fill="#1F3D8C"/>
<path d="M333.553 30.0648L333.651 31.1379C333.033 31.3981 332.22 31.5282 331.212 31.5282C330.171 31.5282 329.423 31.268 329.033 30.7802C328.643 30.2924 328.513 29.5119 328.61 28.5038C328.74 27.4306 329.065 26.6826 329.521 26.2924C330.009 25.9022 330.756 25.707 331.83 25.707C332.805 25.707 333.456 25.8696 333.813 26.1948C334.171 26.52 334.301 27.0078 334.204 27.6257C334.139 28.1461 333.911 28.5363 333.553 28.7639C333.196 28.9916 332.643 29.1217 331.927 29.1867L330.301 29.3168C330.301 29.6745 330.399 29.9347 330.561 30.0648C330.724 30.1948 331.017 30.2599 331.407 30.2599C332.155 30.1948 332.87 30.1298 333.553 30.0648ZM330.431 28.2761L331.732 28.1461C332.025 28.1135 332.252 28.0485 332.383 27.9509C332.513 27.8534 332.61 27.6583 332.643 27.3981C332.675 27.1379 332.61 27.0078 332.513 26.9428C332.383 26.8778 332.155 26.8452 331.765 26.8778C331.342 26.8778 331.017 26.9753 330.854 27.1379C330.659 27.3656 330.529 27.7233 330.431 28.2761Z" fill="#1F3D8C"/>
<path d="M336.837 25.8371V26.8452C337.227 26.455 337.618 26.1623 337.975 25.9672C338.333 25.7721 338.691 25.707 339.081 25.707C339.471 25.707 339.797 25.8046 340.024 25.9672C340.252 26.1623 340.382 26.39 340.414 26.7477C341.097 26.0648 341.813 25.707 342.496 25.707C343.016 25.707 343.374 25.8371 343.601 26.1298C343.829 26.4225 343.927 26.7802 343.862 27.268L343.276 31.3981H341.618L342.138 27.7233C342.171 27.4956 342.138 27.333 342.073 27.2355C342.008 27.1379 341.878 27.1054 341.715 27.1054C341.52 27.1054 341.325 27.1704 341.13 27.3005C340.935 27.4306 340.642 27.6257 340.284 27.9509L339.797 31.3981H338.203L338.723 27.7233C338.756 27.4956 338.756 27.333 338.691 27.2355C338.626 27.1379 338.496 27.1054 338.333 27.1054C338.138 27.1054 337.943 27.1704 337.715 27.268C337.488 27.3981 337.227 27.5932 336.87 27.8859L336.414 31.3656H334.756L335.536 25.8371H336.837Z" fill="#1F3D8C"/>
<path d="M349.911 31.3659H348.61V30.3577C348.025 31.1057 347.277 31.4634 346.334 31.4959C345.651 31.5285 345.163 31.3008 344.936 30.813C344.675 30.3252 344.643 29.5447 344.805 28.4716C344.87 27.9512 345.001 27.5285 345.131 27.1707C345.261 26.813 345.423 26.5529 345.586 26.3577C345.749 26.1626 345.976 26 346.236 25.9024C346.496 25.8049 346.757 25.7398 346.984 25.7073C347.244 25.6748 347.537 25.6748 347.927 25.6748C348.318 25.6748 348.805 25.7073 349.358 25.7724C349.911 25.8374 350.366 25.9024 350.692 26L349.911 31.3659ZM348.903 26.9106H348.057C347.505 26.9106 347.147 27.0081 346.952 27.2033C346.757 27.3984 346.627 27.8211 346.529 28.5366C346.431 29.252 346.399 29.7073 346.464 29.9024C346.529 30.0976 346.692 30.1951 346.952 30.1626C347.44 30.1626 347.992 29.8049 348.61 29.122L348.903 26.9106Z" fill="#1F3D8C"/>
<path d="M354.041 29.3821L352.708 28.8293C352.252 28.6342 351.927 28.4065 351.765 28.1463C351.57 27.8537 351.537 27.5285 351.57 27.1057C351.635 26.5854 351.862 26.2277 352.252 26C352.643 25.7724 353.228 25.6748 354.074 25.6748C355.082 25.6748 355.96 25.7724 356.643 25.9024L356.48 26.9431C355.049 26.9106 354.301 26.9106 354.301 26.9106C353.878 26.9106 353.586 26.9431 353.423 26.9756C353.261 27.0081 353.196 27.1057 353.163 27.2033C353.163 27.3333 353.196 27.4309 353.261 27.4959C353.358 27.561 353.521 27.626 353.748 27.7236L355.114 28.2764C355.57 28.4716 355.895 28.6667 356.09 28.9268C356.285 29.187 356.35 29.5122 356.285 29.935C356.252 30.2602 356.155 30.5203 356.025 30.748C355.895 30.9431 355.7 31.1057 355.472 31.2358C355.212 31.3333 354.952 31.3984 354.659 31.4309C354.366 31.4634 354.009 31.4959 353.553 31.4959C352.87 31.4959 352.057 31.4309 351.114 31.3008L351.277 30.2277C351.537 30.2277 352.122 30.2602 353.033 30.2602C353.683 30.2602 354.106 30.2277 354.301 30.1951C354.496 30.1626 354.626 30.065 354.659 29.9024C354.659 29.8049 354.659 29.7073 354.561 29.6423C354.496 29.5772 354.334 29.5122 354.139 29.4472C354.139 29.4146 354.106 29.4146 354.041 29.3821Z" fill="#1F3D8C"/>
<path d="M370.529 23.626L368.252 30.943C368.155 31.2357 367.96 31.3658 367.634 31.3658H366.008C365.846 31.3658 365.716 31.3008 365.618 31.2032C365.521 31.1057 365.455 30.9756 365.423 30.8455L365.293 25.8374V24.8617H365.065C364.968 25.2845 364.87 25.6097 364.805 25.8699L363.277 30.943C363.179 31.2357 362.984 31.3983 362.626 31.3983H361C360.838 31.3983 360.708 31.3658 360.61 31.2683C360.512 31.1707 360.447 31.0406 360.447 30.9105L360.22 23.6585H361.943V29.0894C361.943 29.2195 361.943 29.4146 361.911 29.7073C361.911 29.9674 361.878 30.1626 361.878 30.2276H362.106C362.138 30.065 362.269 29.6748 362.431 29.0244L363.927 24.1788C364.025 23.8536 364.252 23.691 364.577 23.691H366.041C366.203 23.691 366.334 23.7561 366.431 23.8536C366.529 23.9512 366.594 24.0813 366.594 24.2439L366.821 29.1219C366.821 29.6097 366.854 29.9674 366.821 30.2276H367.049C367.147 29.7073 367.244 29.317 367.342 29.0569L368.838 23.691H370.529V23.626Z" fill="#1F3D8C"/>
<path d="M375.309 30.0648L375.407 31.1379C374.789 31.3981 373.976 31.5282 372.968 31.5282C371.927 31.5282 371.179 31.268 370.789 30.7802C370.399 30.2924 370.268 29.5119 370.366 28.5038C370.496 27.4306 370.821 26.6826 371.277 26.2924C371.764 25.9022 372.512 25.707 373.586 25.707C374.561 25.707 375.212 25.8696 375.569 26.1948C375.927 26.52 376.057 27.0078 375.96 27.6257C375.894 28.1461 375.667 28.5363 375.309 28.7639C374.951 28.9916 374.399 29.1217 373.683 29.1867L372.057 29.3168C372.057 29.6745 372.155 29.9347 372.317 30.0648C372.48 30.1948 372.773 30.2599 373.163 30.2599C373.911 30.1948 374.626 30.1298 375.309 30.0648ZM372.155 28.2761L373.455 28.1461C373.748 28.1135 373.976 28.0485 374.106 27.9509C374.236 27.8534 374.333 27.6583 374.366 27.3981C374.399 27.1379 374.333 27.0078 374.236 26.9428C374.106 26.8778 373.878 26.8452 373.488 26.8778C373.065 26.8778 372.74 26.9753 372.577 27.1379C372.415 27.3656 372.252 27.7233 372.155 28.2761Z" fill="#1F3D8C"/>
<path d="M379.277 23.4958L379.016 25.4145C378.951 25.9024 378.854 26.3251 378.691 26.7154C379.439 25.9999 380.155 25.6747 380.87 25.6747C381.553 25.6747 382.008 25.9024 382.269 26.3576C382.529 26.8129 382.561 27.5609 382.399 28.6666C382.269 29.7072 381.976 30.4552 381.521 30.878C381.065 31.3007 380.415 31.5284 379.504 31.5284C379.049 31.5284 378.529 31.4958 377.943 31.3983C377.358 31.3007 376.87 31.2032 376.545 31.0731L377.618 23.4958H379.277ZM378.659 27.8536L378.334 30.2601C378.821 30.2601 379.114 30.2926 379.212 30.2926C379.764 30.2926 380.122 30.1625 380.317 29.9674C380.512 29.7723 380.642 29.2845 380.74 28.5365C380.838 27.8861 380.838 27.4633 380.773 27.3007C380.708 27.1056 380.545 27.0406 380.285 27.0406C379.862 27.0406 379.309 27.3007 378.659 27.8536Z" fill="#1F3D8C"/>
<path d="M387.7 25.8371L387.667 26.9103C387.992 26.5851 388.383 26.2924 388.773 26.0648C389.196 25.8371 389.586 25.707 389.976 25.707C390.627 25.707 391.082 25.9347 391.309 26.39C391.57 26.8452 391.602 27.6257 391.44 28.7314C391.375 29.2192 391.277 29.6095 391.179 29.9672C391.049 30.2924 390.919 30.5851 390.789 30.7802C390.627 30.9753 390.464 31.1379 390.236 31.268C390.009 31.3981 389.814 31.4631 389.586 31.4956C389.358 31.5282 389.131 31.5607 388.838 31.5607C388.285 31.5607 387.732 31.4956 387.179 31.4306C387.179 31.7883 387.147 32.1461 387.114 32.4713L386.919 33.5769H385.261L386.334 25.9022H387.7V25.8371ZM387.44 30.3574H388.285C388.87 30.3574 389.228 30.2599 389.391 30.0648C389.553 29.8696 389.716 29.4143 389.814 28.6664C389.911 27.9509 389.911 27.4956 389.879 27.3005C389.814 27.1054 389.651 27.0078 389.423 27.0078C389.228 27.0078 388.968 27.1054 388.675 27.268C388.383 27.4306 388.09 27.6583 387.765 27.9184L387.44 30.3574Z" fill="#1F3D8C"/>
<path d="M397.586 31.3659H396.285V30.3577C395.7 31.1057 394.952 31.4634 394.009 31.4959C393.326 31.5285 392.838 31.3008 392.61 30.813C392.35 30.3252 392.318 29.5447 392.48 28.4716C392.545 27.9512 392.675 27.5285 392.805 27.1707C392.936 26.813 393.098 26.5529 393.261 26.3577C393.423 26.1626 393.651 26 393.911 25.9024C394.171 25.8049 394.431 25.7398 394.659 25.7073C394.887 25.6748 395.212 25.6748 395.602 25.6748C395.992 25.6748 396.48 25.7073 397.033 25.7724C397.586 25.8374 398.041 25.9024 398.366 26L397.586 31.3659ZM396.545 26.9106H395.7C395.147 26.9106 394.789 27.0081 394.594 27.2033C394.399 27.3984 394.269 27.8211 394.171 28.5366C394.074 29.252 394.041 29.7073 394.106 29.9024C394.171 30.0976 394.334 30.1951 394.594 30.1626C395.082 30.1626 395.635 29.8049 396.253 29.122L396.545 26.9106Z" fill="#1F3D8C"/>
<path d="M403.7 25.6748L403.342 27.2033H402.952C402.725 27.2033 402.464 27.2683 402.204 27.3659C401.944 27.4634 401.586 27.6585 401.098 27.8862L400.611 31.3659H398.952L399.733 25.8374H401.033V26.8781C401.879 26.065 402.659 25.6748 403.407 25.6748H403.7Z" fill="#1F3D8C"/>
<path d="M408.902 31.3659H407.602V30.3577C407.016 31.1057 406.268 31.4634 405.325 31.4959C404.642 31.5285 404.154 31.3008 403.927 30.813C403.667 30.3252 403.634 29.5447 403.797 28.4716C403.862 27.9512 403.992 27.5285 404.122 27.1707C404.252 26.813 404.415 26.5529 404.577 26.3577C404.74 26.1626 404.967 26 405.228 25.9024C405.488 25.8049 405.748 25.7398 405.976 25.7073C406.236 25.6748 406.528 25.6748 406.919 25.6748C407.309 25.6748 407.797 25.7073 408.35 25.7724C408.902 25.8374 409.358 25.9024 409.683 26L408.902 31.3659ZM407.894 26.9106H407.049C406.496 26.9106 406.138 27.0081 405.943 27.2033C405.748 27.3984 405.618 27.8211 405.52 28.5366C405.423 29.252 405.39 29.7073 405.455 29.9024C405.52 30.0976 405.683 30.1951 405.943 30.1626C406.431 30.1626 406.984 29.8049 407.602 29.122L407.894 26.9106Z" fill="#1F3D8C"/>
<path d="M313.326 40.3741H314.952L314.334 44.8619H313.098L313.065 43.9188C312.382 44.6668 311.602 45.0245 310.724 45.0245C309.943 45.0245 309.358 44.6993 309.033 44.0489C308.708 43.3985 308.61 42.3578 308.805 40.927C308.903 40.1139 309.065 39.4635 309.26 38.9107C309.456 38.3904 309.748 37.9676 310.073 37.7074C310.399 37.4148 310.789 37.2196 311.212 37.1221C311.634 37.0245 312.122 36.9595 312.74 36.9595C313.683 36.9595 314.464 37.057 315.114 37.2522L314.886 38.4879C314.041 38.4554 313.326 38.4229 312.74 38.4229C312.025 38.4229 311.504 38.5855 311.212 38.9432C310.919 39.2684 310.691 39.9839 310.561 41.057C310.431 42.0001 310.431 42.6505 310.561 43.0083C310.691 43.366 310.952 43.5286 311.407 43.5286C311.732 43.5286 311.992 43.4635 312.22 43.3335C312.447 43.2034 312.708 43.0083 313 42.7481L313.326 40.3741Z" fill="#1F3D8C"/>
<path d="M320.708 43.5608L320.805 44.634C320.187 44.8942 319.374 45.0243 318.366 45.0243C317.293 45.0243 316.577 44.7641 316.187 44.2763C315.797 43.7885 315.667 43.008 315.764 41.9999C315.895 40.9267 316.22 40.1787 316.675 39.7885C317.163 39.3982 317.911 39.2031 318.984 39.2031C319.96 39.2031 320.61 39.3657 320.968 39.6909C321.325 40.0161 321.456 40.5039 321.358 41.1218C321.293 41.6421 321.065 42.0324 320.708 42.26C320.35 42.4877 319.797 42.6178 319.082 42.6828L317.456 42.8129C317.456 43.1706 317.553 43.4308 317.716 43.5608C317.878 43.6909 318.171 43.756 318.561 43.756C319.277 43.6909 319.992 43.6259 320.708 43.5608ZM317.553 41.7722L318.854 41.6421C319.147 41.6096 319.374 41.5446 319.504 41.447C319.634 41.3495 319.732 41.1543 319.764 40.8942C319.797 40.634 319.732 40.5039 319.634 40.4389C319.504 40.3739 319.277 40.3413 318.886 40.3739C318.464 40.3739 318.138 40.4714 317.976 40.634C317.781 40.8291 317.651 41.2194 317.553 41.7722Z" fill="#1F3D8C"/>
<path d="M324.707 42.878L323.374 42.3251C322.918 42.13 322.593 41.9024 322.431 41.6422C322.236 41.3495 322.203 41.0243 322.236 40.6015C322.301 40.0812 322.528 39.7235 322.918 39.4959C323.309 39.2682 323.894 39.1707 324.74 39.1707C325.748 39.1707 326.626 39.2682 327.309 39.3983L327.146 40.4389C325.715 40.4064 324.967 40.4064 324.967 40.4064C324.545 40.4064 324.252 40.4389 324.089 40.4715C323.927 40.504 323.862 40.6015 323.829 40.6991C323.829 40.8292 323.862 40.9268 323.927 40.9918C324.024 41.0568 324.187 41.1219 324.414 41.2194L325.78 41.7723C326.236 41.9674 326.561 42.1625 326.756 42.4227C326.951 42.6829 327.016 43.0081 326.951 43.4308C326.918 43.756 326.821 44.0162 326.691 44.2438C326.561 44.439 326.366 44.6016 326.138 44.7316C325.878 44.8292 325.618 44.8942 325.325 44.9268C325.032 44.9593 324.675 44.9918 324.219 44.9918C323.536 44.9918 322.723 44.9268 321.78 44.7967L321.943 43.7235C322.203 43.7235 322.788 43.756 323.699 43.756C324.349 43.756 324.772 43.7235 324.967 43.691C325.162 43.6585 325.292 43.5609 325.325 43.3983C325.325 43.3007 325.325 43.2032 325.227 43.1381C325.162 43.0731 325 43.0081 324.805 42.943C324.805 42.9105 324.74 42.9105 324.707 42.878Z" fill="#1F3D8C"/>
<path d="M330.561 40.4388L330.203 43.1055C330.17 43.3006 330.203 43.4632 330.268 43.5283C330.333 43.5933 330.463 43.6258 330.691 43.6258H331.439L331.504 44.7966C331.113 44.9266 330.593 45.0242 329.943 45.0242C329.422 45.0242 329.032 44.8941 328.772 44.6014C328.512 44.3088 328.414 43.9185 328.512 43.3982L328.935 40.4714H327.959L328.089 39.4307L329.097 39.3657L329.325 37.8047H330.951L330.723 39.3657H332.252L332.089 40.4714H330.561V40.4388Z" fill="#1F3D8C"/>
<path d="M337.716 44.8617H336.415V43.8535C335.83 44.6015 335.082 44.9592 334.139 44.9917C333.456 45.0243 332.968 44.7966 332.74 44.3088C332.48 43.821 332.448 43.0405 332.61 41.9673C332.675 41.447 332.805 41.0243 332.935 40.6665C333.065 40.3088 333.228 40.0486 333.391 39.8535C333.553 39.6584 333.781 39.4958 334.041 39.3982C334.301 39.3007 334.561 39.2356 334.789 39.2031C335.049 39.1706 335.342 39.1706 335.732 39.1706C336.122 39.1706 336.61 39.2031 337.163 39.2682C337.716 39.3332 338.171 39.3982 338.496 39.4958L337.716 44.8617ZM337.391 36.8291L338.074 36.8942C338.074 37.4145 337.976 37.8047 337.813 38.0649C337.651 38.3251 337.358 38.4551 337.065 38.4226C336.805 38.4226 336.48 38.3251 336.09 38.1625C335.7 37.9999 335.472 37.9023 335.342 37.9023C335.147 37.8698 335.017 37.9023 334.919 37.9999C334.822 38.0974 334.789 38.2275 334.756 38.4551L334.074 38.3901C334.074 37.8698 334.171 37.447 334.366 37.1869C334.561 36.9267 334.822 36.7966 335.114 36.8291C335.374 36.8291 335.667 36.9267 336.057 37.0893C336.448 37.2519 336.675 37.3495 336.838 37.3495C337.033 37.382 337.195 37.3495 337.261 37.2844C337.326 37.1869 337.358 37.0568 337.391 36.8291ZM336.675 40.4064H335.83C335.277 40.4064 334.919 40.5039 334.724 40.699C334.529 40.8942 334.399 41.3169 334.301 42.0324C334.204 42.7478 334.171 43.2031 334.236 43.3982C334.301 43.5934 334.464 43.6909 334.724 43.6584C335.212 43.6584 335.765 43.3007 336.382 42.6177L336.675 40.4064Z" fill="#1F3D8C"/>
<path d="M342.367 39.1707C343.407 39.1707 344.123 39.3983 344.513 39.8536C344.903 40.3089 345.033 41.0894 344.903 42.1625C344.773 43.2032 344.448 43.9511 343.96 44.3739C343.472 44.7967 342.757 45.0243 341.749 45.0243C340.741 45.0243 340.025 44.7967 339.603 44.3414C339.18 43.8861 339.05 43.1056 339.212 42.065C339.375 41.0243 339.668 40.2763 340.155 39.8536C340.611 39.3983 341.359 39.1707 342.367 39.1707ZM342.367 40.4064C341.911 40.4064 341.586 40.5365 341.391 40.7642C341.196 40.9918 341.033 41.4796 340.936 42.1625C340.838 42.8129 340.871 43.2357 340.968 43.4308C341.066 43.6259 341.359 43.756 341.781 43.756C342.237 43.756 342.562 43.6259 342.757 43.3983C342.952 43.1707 343.082 42.7154 343.18 42.0324C343.277 41.382 343.277 40.9593 343.147 40.7316C343.05 40.5365 342.79 40.4064 342.367 40.4064Z" fill="#1F3D8C"/>
<path d="M354.204 38.4552H351.309C351.082 38.4552 350.952 38.4877 350.854 38.5853C350.757 38.6829 350.691 38.8455 350.659 39.0731L350.496 40.2438H353.553L353.391 41.4471H350.334L350.139 42.943C350.106 43.1381 350.139 43.3007 350.204 43.3983C350.269 43.4959 350.431 43.5284 350.626 43.5284H353.488L353.456 44.7967C352.805 44.8617 351.667 44.8942 350.106 44.8942C349.488 44.8942 349 44.7316 348.708 44.4064C348.415 44.0812 348.318 43.6259 348.383 43.0406L349 38.6178C349.065 38.13 349.261 37.7723 349.586 37.4796C349.911 37.1869 350.334 37.0894 350.854 37.0894C352.48 37.0894 353.683 37.1219 354.431 37.2194L354.204 38.4552Z" fill="#1F3D8C"/>
<path d="M356.577 39.3332V40.3413C356.967 39.9511 357.357 39.6584 357.715 39.4633C358.073 39.2682 358.43 39.2031 358.821 39.2031C359.211 39.2031 359.536 39.3007 359.764 39.4633C359.991 39.6584 360.121 39.8861 360.154 40.2438C360.837 39.5608 361.552 39.2031 362.235 39.2031C362.756 39.2031 363.113 39.3332 363.341 39.6259C363.569 39.9186 363.666 40.2763 363.601 40.7641L363.016 44.8942H361.357L361.878 41.2194C361.91 40.9917 361.878 40.8291 361.812 40.7316C361.747 40.634 361.617 40.6015 361.455 40.6015C361.26 40.6015 361.065 40.6665 360.869 40.7966C360.674 40.9267 360.382 41.1218 360.024 41.447L359.536 44.8942H357.943L358.463 41.2194C358.495 40.9917 358.495 40.8291 358.43 40.7316C358.365 40.634 358.235 40.6015 358.073 40.6015C357.878 40.6015 357.682 40.6665 357.455 40.7641C357.227 40.8942 356.967 41.0893 356.609 41.382L356.121 44.8942H354.463L355.243 39.3657H356.577V39.3332Z" fill="#1F3D8C"/>
<path d="M366.431 39.3332L366.398 40.4064C366.723 40.0812 367.114 39.7885 367.504 39.5608C367.927 39.3332 368.317 39.2031 368.707 39.2031C369.357 39.2031 369.813 39.4308 370.04 39.8861C370.301 40.3413 370.333 41.1218 370.203 42.2275C370.138 42.7153 370.04 43.1056 369.943 43.4633C369.813 43.7885 369.683 44.0812 369.553 44.2763C369.39 44.4714 369.227 44.634 369 44.7641C368.772 44.8942 368.577 44.9592 368.349 44.9917C368.122 45.0243 367.894 45.0568 367.601 45.0568C367.049 45.0568 366.496 44.9917 365.943 44.9267C365.943 45.2844 365.91 45.6422 365.878 45.9674L365.683 47.073H364.057L365.13 39.3982H366.431V39.3332ZM366.17 43.8535H367.016C367.601 43.8535 367.959 43.756 368.122 43.5609C368.284 43.3657 368.447 42.9104 368.544 42.1625C368.642 41.447 368.642 40.9917 368.609 40.7966C368.544 40.6015 368.382 40.5039 368.154 40.5039C367.959 40.5039 367.699 40.6015 367.406 40.7641C367.114 40.9267 366.821 41.1543 366.496 41.4145L366.17 43.8535Z" fill="#1F3D8C"/>
<path d="M375.797 39.1707L375.439 40.6991H375.049C374.821 40.6991 374.561 40.7642 374.301 40.8617C374.041 40.9593 373.683 41.1544 373.195 41.382L372.707 44.8617H371.049L371.829 39.3333H373.13V40.3739C373.976 39.5609 374.756 39.1707 375.504 39.1707H375.797Z" fill="#1F3D8C"/>
<path d="M380.837 43.5608L380.935 44.634C380.317 44.8942 379.504 45.0243 378.496 45.0243C377.423 45.0243 376.707 44.7641 376.317 44.2763C375.927 43.7885 375.797 43.008 375.894 41.9999C376.024 40.9267 376.35 40.1787 376.805 39.7885C377.293 39.3982 378.041 39.2031 379.114 39.2031C380.089 39.2031 380.74 39.3657 381.098 39.6909C381.455 40.0161 381.585 40.5039 381.488 41.1218C381.423 41.6421 381.195 42.0324 380.837 42.26C380.48 42.4877 379.927 42.6178 379.211 42.6828L377.585 42.8129C377.585 43.1706 377.683 43.4308 377.846 43.5608C378.008 43.6909 378.301 43.756 378.691 43.756C379.439 43.6909 380.154 43.6259 380.837 43.5608ZM377.683 41.7722L378.984 41.6421C379.276 41.6096 379.504 41.5446 379.634 41.447C379.764 41.3495 379.862 41.1543 379.894 40.8942C379.927 40.634 379.862 40.5039 379.764 40.4389C379.634 40.3739 379.407 40.3413 379.016 40.3739C378.594 40.3739 378.268 40.4714 378.106 40.634C377.911 40.8291 377.781 41.2194 377.683 41.7722Z" fill="#1F3D8C"/>
<path d="M384.837 42.878L383.504 42.3251C383.048 42.13 382.723 41.9024 382.561 41.6422C382.365 41.3495 382.3 41.0243 382.365 40.6015C382.43 40.0812 382.658 39.7235 383.048 39.4959C383.439 39.2682 384.024 39.1707 384.87 39.1707C385.878 39.1707 386.756 39.2682 387.439 39.3983L387.276 40.4389C385.845 40.4064 385.097 40.4064 385.097 40.4064C384.674 40.4064 384.382 40.4389 384.219 40.4715C384.089 40.504 383.991 40.6015 383.959 40.6991C383.959 40.8292 383.991 40.9268 384.057 40.9918C384.154 41.0568 384.317 41.1219 384.544 41.2194L385.91 41.7723C386.365 41.9674 386.691 42.1625 386.886 42.4227C387.081 42.6829 387.146 43.0081 387.081 43.4308C387.048 43.756 386.951 44.0162 386.821 44.2438C386.691 44.439 386.496 44.6016 386.268 44.7316C386.008 44.8292 385.748 44.8942 385.455 44.9268C385.162 44.9593 384.804 44.9918 384.349 44.9918C383.666 44.9918 382.853 44.9268 381.91 44.7967L382.073 43.7235C382.333 43.7235 382.918 43.756 383.829 43.756C384.479 43.756 384.902 43.7235 385.097 43.691C385.292 43.6585 385.422 43.5609 385.455 43.3983C385.455 43.3007 385.455 43.2032 385.357 43.1381C385.292 43.0731 385.13 43.0081 384.935 42.943C384.935 42.9105 384.87 42.9105 384.837 42.878Z" fill="#1F3D8C"/>
<path d="M393.227 44.8617H391.926V43.8536C391.341 44.6015 390.593 44.9593 389.65 44.9918C388.967 45.0243 388.479 44.7967 388.252 44.3089C388.024 43.8211 387.959 43.0406 388.122 41.9674C388.187 41.4471 388.317 41.0243 388.447 40.6666C388.577 40.3089 388.739 40.0487 388.902 39.8536C389.065 39.6585 389.292 39.4959 389.552 39.3983C389.813 39.3007 390.073 39.2357 390.3 39.2032C390.528 39.1707 390.853 39.1707 391.244 39.1707C391.634 39.1707 392.122 39.2032 392.674 39.2682C393.227 39.3333 393.683 39.3983 394.008 39.4959L393.227 44.8617ZM392.219 40.4064H391.374C390.821 40.4064 390.463 40.504 390.268 40.6991C390.073 40.8942 389.943 41.317 389.845 42.0324C389.748 42.7479 389.715 43.2032 389.78 43.3983C389.845 43.5934 390.008 43.691 390.268 43.6585C390.756 43.6585 391.309 43.3007 391.926 42.6178L392.219 40.4064Z" fill="#1F3D8C"/>
<path d="M399.342 39.1707L398.984 40.6991H398.594C398.366 40.6991 398.106 40.7642 397.846 40.8617C397.586 40.9593 397.228 41.1544 396.74 41.382L396.252 44.8617H394.594L395.374 39.3333H396.675V40.3739C397.521 39.5609 398.301 39.1707 399.049 39.1707H399.342Z" fill="#1F3D8C"/>
<path d="M401.033 44.8618H399.374L400.155 39.3334H401.813L401.033 44.8618ZM400.935 36.8618H401.618C401.976 36.8618 402.138 37.0244 402.106 37.3821L402.041 38C402.008 38.2927 401.813 38.4553 401.488 38.4553H400.772C400.415 38.4553 400.285 38.2927 400.317 37.935L400.382 37.3496C400.447 37.0244 400.61 36.8618 400.935 36.8618Z" fill="#1F3D8C"/>
<path d="M407.699 44.8617H406.398V43.8536C405.813 44.6015 405.065 44.9593 404.122 44.9918C403.439 45.0243 402.951 44.7967 402.723 44.3089C402.496 43.8211 402.431 43.0406 402.593 41.9674C402.658 41.4471 402.788 41.0243 402.918 40.6666C403.049 40.3089 403.211 40.0487 403.374 39.8536C403.536 39.6585 403.764 39.4959 404.024 39.3983C404.284 39.3007 404.544 39.2357 404.772 39.2032C405 39.1707 405.325 39.1707 405.715 39.1707C406.105 39.1707 406.593 39.2032 407.146 39.2682C407.699 39.3333 408.154 39.3983 408.479 39.4959L407.699 44.8617ZM406.691 40.4064H405.845C405.292 40.4064 404.935 40.504 404.74 40.6991C404.544 40.8942 404.414 41.317 404.317 42.0324C404.219 42.7479 404.187 43.2032 404.252 43.3983C404.317 43.5934 404.479 43.691 404.74 43.6585C405.227 43.6585 405.78 43.3007 406.398 42.6178L406.691 40.4064Z" fill="#1F3D8C"/>
<path d="M411.829 36.992L410.951 43.0733C410.919 43.2684 410.951 43.3985 411.016 43.4961C411.081 43.5611 411.244 43.5936 411.472 43.5936H411.959L412.024 44.7644C411.764 44.8944 411.342 44.9595 410.724 44.9595C410.203 44.9595 409.813 44.8294 409.553 44.5367C409.293 44.244 409.195 43.8863 409.228 43.3985L410.138 36.9595H411.829V36.992Z" fill="#1F3D8C"/>
<defs>
<filter id="filter0_f" x="140.168" y="45.4263" width="404.839" height="702.4" filterUnits="userSpaceOnUse" color-interpolation-filters="sRGB">
<feFlood flood-opacity="0" result="BackgroundImageFix"/>
<feBlend mode="normal" in="SourceGraphic" in2="BackgroundImageFix" result="shape"/>
<feGaussianBlur stdDeviation="32" result="effect1_foregroundBlur"/>
</filter>
<filter id="filter1_f" x="99.2754" y="201.773" width="285.918" height="90.3952" filterUnits="userSpaceOnUse" color-interpolation-filters="sRGB">
<feFlood flood-opacity="0" result="BackgroundImageFix"/>
<feBlend mode="normal" in="SourceGraphic" in2="BackgroundImageFix" result="shape"/>
<feGaussianBlur stdDeviation="4" result="effect1_foregroundBlur"/>
</filter>
<filter id="filter2_f" x="118.959" y="487.894" width="301.918" height="106.395" filterUnits="userSpaceOnUse" color-interpolation-filters="sRGB">
<feFlood flood-opacity="0" result="BackgroundImageFix"/>
<feBlend mode="normal" in="SourceGraphic" in2="BackgroundImageFix" result="shape"/>
<feGaussianBlur stdDeviation="8" result="effect1_foregroundBlur"/>
</filter>
<filter id="filter3_f" x="270.143" y="301.691" width="317.918" height="170.839" filterUnits="userSpaceOnUse" color-interpolation-filters="sRGB">
<feFlood flood-opacity="0" result="BackgroundImageFix"/>
<feBlend mode="normal" in="SourceGraphic" in2="BackgroundImageFix" result="shape"/>
<feGaussianBlur stdDeviation="12" result="effect1_foregroundBlur"/>
</filter>
<filter id="filter4_d" x="234" y="0" width="221" height="90.7616" filterUnits="userSpaceOnUse" color-interpolation-filters="sRGB">
<feFlood flood-opacity="0" result="BackgroundImageFix"/>
<feColorMatrix in="SourceAlpha" type="matrix" values="0 0 0 0 0 0 0 0 0 0 0 0 0 0 0 0 0 0 127 0"/>
<feOffset dx="2" dy="6"/>
<feGaussianBlur stdDeviation="6"/>
<feColorMatrix type="matrix" values="0 0 0 0 0.286275 0 0 0 0 0.145098 0 0 0 0 0.380392 0 0 0 0.06 0"/>
<feBlend mode="normal" in2="BackgroundImageFix" result="effect1_dropShadow"/>
<feBlend mode="normal" in="SourceGraphic" in2="effect1_dropShadow" result="shape"/>
</filter>
<linearGradient id="paint0_linear" x1="-1320.18" y1="-918.265" x2="36.7251" y2="746.72" gradientUnits="userSpaceOnUse">
<stop stop-color="#C51A19"/>
<stop offset="0.0001" stop-color="#B4252B"/>
<stop offset="0.956793" stop-color="white"/>
</linearGradient>
<linearGradient id="paint1_linear" x1="-1233.67" y1="-1042.83" x2="123.237" y2="622.151" gradientUnits="userSpaceOnUse">
<stop offset="0.0001" stop-color="#B4252B"/>
<stop offset="0.875" stop-color="white"/>
</linearGradient>
<linearGradient id="paint2_linear" x1="170" y1="-1.00005" x2="448" y2="763" gradientUnits="userSpaceOnUse">
<stop stop-color="#EA6565"/>
<stop offset="1" stop-color="#DC272B"/>
</linearGradient>
<linearGradient id="paint3_linear" x1="434" y1="377" x2="213" y2="345" gradientUnits="userSpaceOnUse">
<stop stop-color="#506EB3"/>
<stop offset="1" stop-color="#506EB3" stop-opacity="0"/>
</linearGradient>
<linearGradient id="paint4_linear" x1="229.258" y1="461.506" x2="147.175" y2="491.687" gradientUnits="userSpaceOnUse">
<stop stop-color="#F8B44C"/>
<stop offset="1" stop-color="#F07E26"/>
</linearGradient>
</defs>
</svg>
