<svg width="635" height="738" viewBox="0 0 635 738" fill="none" xmlns="http://www.w3.org/2000/svg">
<path d="M109.098 686.567L2.4731 345.234C-8.27503 310.852 17.3588 275.899 53.2652 275.899H388.597C411.853 275.899 432.446 291.063 439.389 313.332L546.015 654.665C556.763 689.046 531.129 724 495.223 724H159.89C136.635 723.952 116.089 708.836 109.098 686.567Z" fill="url(#paint0_linear)" fill-opacity="0.21"/>
<path d="M195.61 561.998L88.9848 220.665C78.2367 186.284 103.871 151.33 139.777 151.33H475.109C498.365 151.33 518.958 166.494 525.901 188.763L632.526 530.097C643.274 564.478 617.641 599.431 581.734 599.431H246.402C223.146 599.384 202.601 584.267 195.61 561.998Z" fill="url(#paint1_linear)"/>
<g filter="url(#filter0_f)">
<path d="M204.168 642.688C204.168 659.925 218.066 673.826 235.298 673.826H449.877C467.11 673.826 481.007 659.925 481.007 642.688V130.565C481.007 113.328 467.11 99.4265 449.877 99.4265H235.298C218.066 99.4265 204.168 113.328 204.168 130.565V642.688Z" fill="#C3CBE5" fill-opacity="0.55"/>
</g>
<path d="M204 642.625C204 659.81 217.898 673.67 235.131 673.67H449.709C466.942 673.67 480.839 659.81 480.839 642.625V132.045C480.839 114.859 466.942 101 449.709 101H235.131C217.898 101 204 114.859 204 132.045V642.625Z" fill="url(#paint2_linear)"/>
<path d="M481.007 151.33H204.168V599.431H481.007V151.33Z" fill="url(#paint3_linear)"/>
<path d="M372.052 125.46C372.052 127.536 370.898 128.921 369.168 128.921H291.884C290.153 128.921 289 127.536 289 125.46C289 123.384 290.153 122 291.884 122H369.168C370.898 122 372.052 123.384 372.052 125.46Z" fill="url(#paint4_linear)"/>
<path d="M396.227 125.378C396.227 128.262 393.92 130.569 391.036 130.569C388.153 130.569 385.846 128.262 385.846 125.378C385.846 122.495 388.153 120.188 391.036 120.188C393.92 120.188 396.227 122.495 396.227 125.378Z" fill="url(#paint5_linear)"/>
<path d="M343.38 620.193C347.075 620.193 351.298 621.861 353.937 624.642C356.576 627.422 358.16 631.315 358.16 635.764C358.16 639.657 356.576 644.106 353.937 646.886C351.298 649.667 347.603 651.335 343.38 651.335H341.796C333.878 651.335 327.016 644.106 327.016 635.764C327.016 627.422 333.878 620.193 341.796 620.193H343.38Z" fill="url(#paint6_linear)"/>
<g opacity="0.1" filter="url(#filter1_f)">
<path d="M377.194 259.29C377.194 267.556 370.515 274.169 362.167 274.169L107.275 273.618C107.275 270.862 107.275 214.653 107.275 214.653C107.275 206.386 113.954 199.773 122.302 199.773H362.167C370.515 199.773 377.194 206.386 377.194 214.653V259.29Z" fill="#C3CBE5"/>
</g>
<path d="M397.957 238.528C397.957 246.794 391.279 253.407 382.931 253.407L128.039 252.856C128.039 250.101 128.039 193.891 128.039 193.891C128.039 185.625 134.717 179.012 143.065 179.012H382.931C391.279 179.012 397.957 185.625 397.957 193.891V238.528Z" fill="white"/>
<path d="M333.249 206.694H370.96C372.624 206.694 373.733 205.656 373.733 204.099C373.733 202.542 372.624 201.504 370.96 201.504H333.249C331.586 201.504 330.477 202.542 330.477 204.099C330.477 205.656 332.14 206.694 333.249 206.694Z" fill="#FFCAA0"/>
<path d="M236.334 206.694H313.886C315.536 206.694 316.636 205.656 316.636 204.099C316.636 202.542 315.536 201.504 313.886 201.504H236.334C234.684 201.504 233.584 202.542 233.584 204.099C233.584 205.656 234.684 206.694 236.334 206.694Z" fill="#FFCAA0"/>
<path d="M153.297 206.694H215.245C216.905 206.694 218.011 205.656 218.011 204.099C218.011 202.542 216.905 201.504 215.245 201.504H153.297C151.637 201.504 150.531 202.542 150.531 204.099C150.531 205.656 151.637 206.694 153.297 206.694Z" fill="#FFCAA0"/>
<path d="M315.96 230.916H343.262C344.934 230.916 346.048 229.878 346.048 228.32C346.048 226.763 344.934 225.725 343.262 225.725H315.96C314.288 225.725 313.174 226.763 313.174 228.32C313.174 229.878 314.288 230.916 315.96 230.916Z" fill="#FFCAA0"/>
<path d="M194.837 230.916H298.281C299.95 230.916 301.062 229.878 301.062 228.32C301.062 226.763 299.95 225.725 298.281 225.725H194.837C193.169 225.725 192.057 226.763 192.057 228.32C192.057 229.878 193.725 230.916 194.837 230.916Z" fill="#FFCAA0"/>
<path d="M153.365 230.916H180.572C182.272 230.916 183.406 229.878 183.406 228.32C183.406 226.763 182.272 225.725 180.572 225.725H153.365C151.665 225.725 150.531 226.763 150.531 228.32C150.531 229.878 151.665 230.916 153.365 230.916Z" fill="#FFCAA0"/>
<g opacity="0.1" filter="url(#filter2_f)">
<path d="M404.877 553.41C404.877 561.676 398.199 568.289 389.851 568.289L134.959 567.738C134.959 564.983 134.959 508.773 134.959 508.773C134.959 500.507 141.637 493.894 149.985 493.894H389.851C398.199 493.894 404.877 500.507 404.877 508.773V553.41Z" fill="#C6ACD1"/>
</g>
<path d="M425.641 532.649C425.641 540.915 418.962 547.528 410.615 547.528L155.723 546.977C155.723 544.221 155.723 488.012 155.723 488.012C155.723 479.745 162.401 473.133 170.749 473.133H410.615C418.962 473.133 425.641 479.745 425.641 488.012V532.649Z" fill="white"/>
<g opacity="0.1" filter="url(#filter3_f)">
<path d="M294.143 423.523C294.143 431.86 300.821 438.53 309.169 438.53L564.061 437.974C564.061 435.195 564.061 330.699 564.061 330.699C564.061 322.362 557.382 315.692 549.034 315.692H309.169C300.821 315.692 294.143 322.362 294.143 330.699V423.523Z" fill="#C3CBE6"/>
</g>
<path d="M273.379 402.761C273.379 411.099 280.057 417.769 288.405 417.769L543.297 417.213C543.297 414.434 543.297 309.938 543.297 309.938C543.297 301.6 536.619 294.93 528.271 294.93H288.405C280.057 294.93 273.379 301.6 273.379 309.938V402.761Z" fill="url(#paint7_linear)"/>
<g filter="url(#filter4_d)">
<mask id="path-21-inside-1" fill="white">
<path fill-rule="evenodd" clip-rule="evenodd" d="M259 6C256.791 6 255 7.79086 255 10V57C255 59.2091 256.791 61 259 61H334.821C335.543 61 336.21 61.3897 336.564 62.0194L341.471 70.7423C342.235 72.1015 344.192 72.1015 344.957 70.7423L349.864 62.0194C350.218 61.3897 350.885 61 351.607 61H427C429.209 61 431 59.2091 431 57V10C431 7.79086 429.209 6 427 6H259Z"/>
</mask>
<path fill-rule="evenodd" clip-rule="evenodd" d="M259 6C256.791 6 255 7.79086 255 10V57C255 59.2091 256.791 61 259 61H334.821C335.543 61 336.21 61.3897 336.564 62.0194L341.471 70.7423C342.235 72.1015 344.192 72.1015 344.957 70.7423L349.864 62.0194C350.218 61.3897 350.885 61 351.607 61H427C429.209 61 431 59.2091 431 57V10C431 7.79086 429.209 6 427 6H259Z" fill="white"/>
<path d="M349.864 62.0194L350.736 62.5097L349.864 62.0194ZM341.471 70.7423L340.599 71.2326L341.471 70.7423ZM344.957 70.7423L345.829 71.2326L344.957 70.7423ZM336.564 62.0194L335.692 62.5097L336.564 62.0194ZM256 10C256 8.34315 257.343 7 259 7V5C256.239 5 254 7.23858 254 10H256ZM256 57V10H254V57H256ZM259 60C257.343 60 256 58.6569 256 57H254C254 59.7614 256.239 62 259 62V60ZM334.821 60H259V62H334.821V60ZM342.342 70.252L337.435 61.5291L335.692 62.5097L340.599 71.2326L342.342 70.252ZM348.992 61.5291L344.085 70.252L345.829 71.2326L350.736 62.5097L348.992 61.5291ZM427 60H351.607V62H427V60ZM430 57C430 58.6569 428.657 60 427 60V62C429.761 62 432 59.7614 432 57H430ZM430 10V57H432V10H430ZM427 7C428.657 7 430 8.34315 430 10H432C432 7.23858 429.761 5 427 5V7ZM259 7H427V5H259V7ZM350.736 62.5097C350.913 62.1949 351.246 62 351.607 62V60C350.523 60 349.524 60.5845 348.992 61.5291L350.736 62.5097ZM340.599 71.2326C341.746 73.2714 344.682 73.2714 345.829 71.2326L344.085 70.252C343.703 70.9316 342.725 70.9316 342.342 70.252L340.599 71.2326ZM334.821 62C335.182 62 335.515 62.1949 335.692 62.5097L337.435 61.5291C336.904 60.5845 335.904 60 334.821 60V62Z" fill="#FCFCFC" mask="url(#path-21-inside-1)"/>
</g>
<path d="M306.876 26.856L305.304 26.22C304.704 25.972 304.3 25.652 304.092 25.26C303.884 24.868 303.816 24.376 303.888 23.784C304.008 22.904 304.312 22.316 304.8 22.02C305.296 21.716 306.064 21.564 307.104 21.564C308.136 21.564 309.036 21.676 309.804 21.9L309.624 23.136C308.904 23.112 308.048 23.1 307.056 23.1C306.568 23.092 306.236 23.132 306.06 23.22C305.884 23.3 305.768 23.524 305.712 23.892C305.672 24.164 305.692 24.356 305.772 24.468C305.86 24.572 306.06 24.684 306.372 24.804L307.86 25.38C308.492 25.628 308.908 25.94 309.108 26.316C309.308 26.684 309.368 27.192 309.288 27.84C309.168 28.752 308.872 29.368 308.4 29.688C307.936 30 307.144 30.156 306.024 30.156C305.096 30.156 304.148 30.048 303.18 29.832L303.372 28.524C305.068 28.564 305.928 28.584 305.952 28.584C306.512 28.584 306.892 28.532 307.092 28.428C307.292 28.316 307.42 28.084 307.476 27.732C307.508 27.46 307.484 27.272 307.404 27.168C307.324 27.064 307.148 26.96 306.876 26.856ZM311.882 21.468H312.626C313.002 21.468 313.17 21.652 313.13 22.02L313.046 22.668C312.998 22.988 312.806 23.148 312.47 23.148H311.714C311.346 23.148 311.186 22.964 311.234 22.596L311.318 21.96C311.35 21.632 311.538 21.468 311.882 21.468ZM311.978 30H310.214L311.042 24.084H312.806L311.978 30ZM316.458 27.876L315.03 27.288C314.55 27.096 314.214 26.852 314.022 26.556C313.83 26.26 313.762 25.888 313.818 25.44C313.882 24.896 314.118 24.504 314.526 24.264C314.942 24.024 315.59 23.908 316.47 23.916C317.558 23.932 318.47 24.012 319.206 24.156L319.038 25.284C317.502 25.26 316.722 25.248 316.698 25.248C316.234 25.248 315.926 25.268 315.774 25.308C315.622 25.34 315.534 25.424 315.51 25.56C315.494 25.696 315.53 25.8 315.618 25.872C315.714 25.936 315.894 26.02 316.158 26.124L317.61 26.7C318.098 26.892 318.442 27.124 318.642 27.396C318.842 27.668 318.914 28.032 318.858 28.488C318.81 28.84 318.714 29.128 318.57 29.352C318.434 29.576 318.234 29.744 317.97 29.856C317.706 29.968 317.422 30.04 317.118 30.072C316.814 30.112 316.426 30.132 315.954 30.132C315.234 30.132 314.366 30.06 313.35 29.916L313.518 28.776C313.806 28.792 314.434 28.8 315.402 28.8C316.09 28.8 316.546 28.776 316.77 28.728C316.994 28.68 317.122 28.576 317.154 28.416C317.17 28.296 317.138 28.208 317.058 28.152C316.986 28.096 316.838 28.024 316.614 27.936C316.55 27.912 316.498 27.892 316.458 27.876ZM322.727 25.272L322.331 28.104C322.299 28.328 322.315 28.48 322.379 28.56C322.451 28.632 322.607 28.668 322.847 28.668H323.639L323.723 29.916C323.299 30.068 322.747 30.144 322.067 30.144C321.507 30.144 321.091 29.992 320.819 29.688C320.547 29.376 320.451 28.948 320.531 28.404L320.987 25.272H319.919L320.063 24.144L321.155 24.084L321.395 22.428H323.135L322.907 24.084H324.539L324.371 25.272H322.727ZM330.121 28.596L330.241 29.724C329.577 30.004 328.709 30.144 327.637 30.144C326.509 30.144 325.733 29.88 325.309 29.352C324.885 28.824 324.737 28.012 324.865 26.916C325.009 25.764 325.337 24.976 325.849 24.552C326.361 24.128 327.177 23.916 328.297 23.916C329.337 23.916 330.041 24.088 330.409 24.432C330.785 24.776 330.925 25.284 330.829 25.956C330.749 26.516 330.521 26.916 330.145 27.156C329.769 27.396 329.189 27.544 328.405 27.6L326.653 27.732C326.661 28.124 326.757 28.388 326.941 28.524C327.133 28.66 327.433 28.728 327.841 28.728C328.617 28.728 329.377 28.684 330.121 28.596ZM326.761 26.688L328.141 26.556C328.461 26.532 328.693 26.468 328.837 26.364C328.989 26.26 329.081 26.068 329.113 25.788C329.137 25.524 329.085 25.36 328.957 25.296C328.837 25.232 328.577 25.204 328.177 25.212C327.713 25.212 327.385 25.312 327.193 25.512C327.009 25.704 326.865 26.096 326.761 26.688ZM333.608 24.084V25.152C334.04 24.72 334.44 24.408 334.808 24.216C335.184 24.016 335.576 23.916 335.984 23.916C336.416 23.916 336.756 24.012 337.004 24.204C337.252 24.396 337.396 24.668 337.436 25.02C338.18 24.284 338.924 23.916 339.668 23.916C340.212 23.916 340.608 24.068 340.856 24.372C341.112 24.668 341.204 25.076 341.132 25.596L340.52 30H338.756L339.308 26.076C339.34 25.828 339.32 25.656 339.248 25.56C339.176 25.464 339.052 25.416 338.876 25.416C338.676 25.416 338.464 25.48 338.24 25.608C338.016 25.736 337.712 25.972 337.328 26.316L336.812 30H335.108L335.648 26.076C335.688 25.836 335.676 25.668 335.612 25.572C335.548 25.468 335.42 25.416 335.228 25.416C335.02 25.416 334.8 25.48 334.568 25.608C334.344 25.728 334.048 25.948 333.68 26.268L333.164 30H331.4L332.228 24.084H333.608ZM347.564 30H346.184L346.196 28.932C345.588 29.716 344.78 30.12 343.772 30.144C343.028 30.168 342.524 29.928 342.26 29.424C342.004 28.912 341.96 28.08 342.128 26.928C342.208 26.384 342.32 25.928 342.464 25.56C342.608 25.184 342.768 24.888 342.944 24.672C343.12 24.456 343.348 24.292 343.628 24.18C343.908 24.068 344.176 23.996 344.432 23.964C344.696 23.932 345.028 23.916 345.428 23.916C345.852 23.916 346.36 23.952 346.952 24.024C347.544 24.096 348.016 24.18 348.368 24.276L347.564 30ZM346.472 25.224H345.56C344.984 25.224 344.592 25.324 344.384 25.524C344.176 25.724 344.02 26.2 343.916 26.952C343.812 27.712 343.788 28.2 343.844 28.416C343.9 28.624 344.072 28.72 344.36 28.704C344.888 28.696 345.48 28.324 346.136 27.588L346.472 25.224ZM351.978 27.876L350.55 27.288C350.07 27.096 349.734 26.852 349.542 26.556C349.35 26.26 349.282 25.888 349.338 25.44C349.402 24.896 349.638 24.504 350.046 24.264C350.462 24.024 351.11 23.908 351.99 23.916C353.078 23.932 353.99 24.012 354.726 24.156L354.558 25.284C353.022 25.26 352.242 25.248 352.218 25.248C351.754 25.248 351.446 25.268 351.294 25.308C351.142 25.34 351.054 25.424 351.03 25.56C351.014 25.696 351.05 25.8 351.138 25.872C351.234 25.936 351.414 26.02 351.678 26.124L353.13 26.7C353.618 26.892 353.962 27.124 354.162 27.396C354.362 27.668 354.434 28.032 354.378 28.488C354.33 28.84 354.234 29.128 354.09 29.352C353.954 29.576 353.754 29.744 353.49 29.856C353.226 29.968 352.942 30.04 352.638 30.072C352.334 30.112 351.946 30.132 351.474 30.132C350.754 30.132 349.886 30.06 348.87 29.916L349.038 28.776C349.326 28.792 349.954 28.8 350.922 28.8C351.61 28.8 352.066 28.776 352.29 28.728C352.514 28.68 352.642 28.576 352.674 28.416C352.69 28.296 352.658 28.208 352.578 28.152C352.506 28.096 352.358 28.024 352.134 27.936C352.07 27.912 352.018 27.892 351.978 27.876ZM369.55 21.72L367.126 29.532C367.03 29.844 366.806 30 366.454 30H364.726C364.566 30 364.426 29.948 364.306 29.844C364.186 29.732 364.122 29.6 364.114 29.448L363.958 24.096V23.04H363.73C363.626 23.48 363.534 23.836 363.454 24.108L361.81 29.52C361.714 29.84 361.486 30 361.126 30H359.386C359.226 30 359.082 29.948 358.954 29.844C358.834 29.74 358.774 29.612 358.774 29.46L358.522 21.72H360.346V27.504C360.346 27.64 360.338 27.856 360.322 28.152C360.314 28.44 360.31 28.624 360.31 28.704H360.55C360.59 28.536 360.706 28.112 360.898 27.432L362.494 22.248C362.598 21.896 362.83 21.72 363.19 21.72H364.738C364.906 21.72 365.042 21.78 365.146 21.9C365.258 22.012 365.314 22.152 365.314 22.32L365.542 27.516C365.558 28.036 365.562 28.432 365.554 28.704H365.806C365.926 28.16 366.026 27.744 366.106 27.456L367.69 21.72H369.55ZM374.676 28.596L374.796 29.724C374.132 30.004 373.264 30.144 372.192 30.144C371.064 30.144 370.288 29.88 369.864 29.352C369.44 28.824 369.292 28.012 369.42 26.916C369.564 25.764 369.892 24.976 370.404 24.552C370.916 24.128 371.732 23.916 372.852 23.916C373.892 23.916 374.596 24.088 374.964 24.432C375.34 24.776 375.48 25.284 375.384 25.956C375.304 26.516 375.076 26.916 374.7 27.156C374.324 27.396 373.744 27.544 372.96 27.6L371.208 27.732C371.216 28.124 371.312 28.388 371.496 28.524C371.688 28.66 371.988 28.728 372.396 28.728C373.172 28.728 373.932 28.684 374.676 28.596ZM371.316 26.688L372.696 26.556C373.016 26.532 373.248 26.468 373.392 26.364C373.544 26.26 373.636 26.068 373.668 25.788C373.692 25.524 373.64 25.36 373.512 25.296C373.392 25.232 373.132 25.204 372.732 25.212C372.268 25.212 371.94 25.312 371.748 25.512C371.564 25.704 371.42 26.096 371.316 26.688ZM378.883 21.6L378.619 23.652C378.555 24.164 378.443 24.632 378.283 25.056C379.067 24.304 379.847 23.928 380.623 23.928C381.343 23.928 381.835 24.168 382.099 24.648C382.363 25.128 382.411 25.944 382.243 27.096C382.091 28.216 381.779 29.008 381.307 29.472C380.835 29.928 380.119 30.156 379.159 30.156C378.679 30.156 378.119 30.112 377.479 30.024C376.847 29.936 376.347 29.824 375.979 29.688L377.119 21.6H378.883ZM378.247 26.244L377.887 28.824C378.399 28.84 378.707 28.848 378.811 28.848C379.395 28.84 379.787 28.724 379.987 28.5C380.187 28.276 380.343 27.768 380.455 26.976C380.543 26.288 380.555 25.848 380.491 25.656C380.435 25.464 380.267 25.368 379.987 25.368C379.523 25.368 378.943 25.66 378.247 26.244ZM387.89 24.084L387.866 25.224C388.218 24.864 388.614 24.56 389.054 24.312C389.494 24.064 389.926 23.94 390.35 23.94C391.046 23.94 391.526 24.184 391.79 24.672C392.054 25.16 392.106 25.988 391.946 27.156C391.874 27.668 391.774 28.108 391.646 28.476C391.526 28.836 391.386 29.124 391.226 29.34C391.066 29.556 390.87 29.728 390.638 29.856C390.414 29.976 390.186 30.056 389.954 30.096C389.73 30.136 389.462 30.156 389.15 30.156C388.566 30.156 387.978 30.104 387.386 30C387.386 30.376 387.358 30.748 387.302 31.116L387.11 32.28H385.334L386.486 24.084H387.89ZM387.602 28.92H388.514C389.122 28.92 389.518 28.82 389.702 28.62C389.894 28.412 390.042 27.916 390.146 27.132C390.242 26.38 390.258 25.9 390.194 25.692C390.138 25.476 389.974 25.368 389.702 25.368C389.494 25.368 389.23 25.456 388.91 25.632C388.59 25.808 388.27 26.044 387.95 26.34L387.602 28.92ZM398.423 30H397.043L397.055 28.932C396.447 29.716 395.639 30.12 394.631 30.144C393.887 30.168 393.383 29.928 393.119 29.424C392.863 28.912 392.819 28.08 392.987 26.928C393.067 26.384 393.179 25.928 393.323 25.56C393.467 25.184 393.627 24.888 393.803 24.672C393.979 24.456 394.207 24.292 394.487 24.18C394.767 24.068 395.035 23.996 395.291 23.964C395.555 23.932 395.887 23.916 396.287 23.916C396.711 23.916 397.219 23.952 397.811 24.024C398.403 24.096 398.875 24.18 399.227 24.276L398.423 30ZM397.331 25.224H396.419C395.843 25.224 395.451 25.324 395.243 25.524C395.035 25.724 394.879 26.2 394.775 26.952C394.671 27.712 394.647 28.2 394.703 28.416C394.759 28.624 394.931 28.72 395.219 28.704C395.747 28.696 396.339 28.324 396.995 27.588L397.331 25.224ZM404.937 23.916L404.541 25.56H404.109C403.861 25.56 403.597 25.616 403.317 25.728C403.045 25.832 402.649 26.02 402.129 26.292L401.625 30H399.849L400.677 24.084H402.057V25.2C402.961 24.344 403.801 23.916 404.577 23.916H404.937ZM410.517 30H409.137L409.149 28.932C408.541 29.716 407.733 30.12 406.725 30.144C405.981 30.168 405.477 29.928 405.213 29.424C404.957 28.912 404.913 28.08 405.081 26.928C405.161 26.384 405.273 25.928 405.417 25.56C405.561 25.184 405.721 24.888 405.897 24.672C406.073 24.456 406.301 24.292 406.581 24.18C406.861 24.068 407.129 23.996 407.385 23.964C407.649 23.932 407.981 23.916 408.381 23.916C408.805 23.916 409.313 23.952 409.905 24.024C410.497 24.096 410.969 24.18 411.321 24.276L410.517 30ZM409.425 25.224H408.513C407.937 25.224 407.545 25.324 407.337 25.524C407.129 25.724 406.973 26.2 406.869 26.952C406.765 27.712 406.741 28.2 406.797 28.416C406.853 28.624 407.025 28.72 407.313 28.704C407.841 28.696 408.433 28.324 409.089 27.588L409.425 25.224ZM303.336 44L304.5 35.72C305.54 35.648 306.528 35.612 307.464 35.612C308.376 35.612 309.084 35.74 309.588 35.996C310.092 36.252 310.432 36.696 310.608 37.328C310.792 37.96 310.808 38.828 310.656 39.932C310.528 40.828 310.364 41.548 310.164 42.092C309.972 42.636 309.7 43.06 309.348 43.364C309.004 43.66 308.616 43.86 308.184 43.964C307.752 44.06 307.18 44.108 306.468 44.108C305.564 44.108 304.52 44.072 303.336 44ZM306.144 37.052L305.352 42.656C305.488 42.656 305.68 42.66 305.928 42.668C306.176 42.668 306.348 42.668 306.444 42.668C306.828 42.668 307.132 42.636 307.356 42.572C307.588 42.5 307.8 42.364 307.992 42.164C308.184 41.956 308.332 41.664 308.436 41.288C308.548 40.912 308.648 40.412 308.736 39.788C308.824 39.188 308.868 38.716 308.868 38.372C308.876 38.028 308.824 37.752 308.712 37.544C308.608 37.336 308.456 37.2 308.256 37.136C308.056 37.072 307.772 37.04 307.404 37.04L306.144 37.052ZM313.077 35.468H313.821C314.197 35.468 314.365 35.652 314.325 36.02L314.241 36.668C314.193 36.988 314.001 37.148 313.665 37.148H312.909C312.541 37.148 312.381 36.964 312.429 36.596L312.513 35.96C312.545 35.632 312.733 35.468 313.077 35.468ZM313.173 44H311.409L312.237 38.084H314.001L313.173 44ZM317.654 41.876L316.226 41.288C315.746 41.096 315.41 40.852 315.218 40.556C315.026 40.26 314.958 39.888 315.014 39.44C315.078 38.896 315.314 38.504 315.722 38.264C316.138 38.024 316.786 37.908 317.666 37.916C318.754 37.932 319.666 38.012 320.402 38.156L320.234 39.284C318.698 39.26 317.918 39.248 317.894 39.248C317.43 39.248 317.122 39.268 316.97 39.308C316.818 39.34 316.73 39.424 316.706 39.56C316.69 39.696 316.726 39.8 316.814 39.872C316.91 39.936 317.09 40.02 317.354 40.124L318.806 40.7C319.294 40.892 319.638 41.124 319.838 41.396C320.038 41.668 320.11 42.032 320.054 42.488C320.006 42.84 319.91 43.128 319.766 43.352C319.63 43.576 319.43 43.744 319.166 43.856C318.902 43.968 318.618 44.04 318.314 44.072C318.01 44.112 317.622 44.132 317.15 44.132C316.43 44.132 315.562 44.06 314.546 43.916L314.714 42.776C315.002 42.792 315.63 42.8 316.598 42.8C317.286 42.8 317.742 42.776 317.965 42.728C318.19 42.68 318.318 42.576 318.35 42.416C318.366 42.296 318.334 42.208 318.254 42.152C318.182 42.096 318.034 42.024 317.81 41.936C317.746 41.912 317.694 41.892 317.654 41.876ZM323.922 39.272L323.526 42.104C323.494 42.328 323.51 42.48 323.574 42.56C323.646 42.632 323.802 42.668 324.042 42.668H324.834L324.918 43.916C324.494 44.068 323.942 44.144 323.262 44.144C322.702 44.144 322.286 43.992 322.014 43.688C321.742 43.376 321.646 42.948 321.726 42.404L322.182 39.272H321.114L321.258 38.144L322.35 38.084L322.59 36.428H324.33L324.102 38.084H325.734L325.566 39.272H323.922ZM330.968 37.916L330.572 39.56H330.14C329.892 39.56 329.628 39.616 329.348 39.728C329.076 39.832 328.68 40.02 328.16 40.292L327.656 44H325.88L326.708 38.084H328.088V39.2C328.992 38.344 329.832 37.916 330.608 37.916H330.968ZM332.671 35.468H333.415C333.791 35.468 333.959 35.652 333.919 36.02L333.835 36.668C333.787 36.988 333.595 37.148 333.259 37.148H332.503C332.135 37.148 331.975 36.964 332.023 36.596L332.107 35.96C332.139 35.632 332.327 35.468 332.671 35.468ZM332.767 44H331.003L331.831 38.084H333.595L332.767 44ZM337.187 35.6L336.923 37.652C336.859 38.164 336.747 38.632 336.587 39.056C337.371 38.304 338.151 37.928 338.927 37.928C339.647 37.928 340.139 38.168 340.403 38.648C340.667 39.128 340.715 39.944 340.547 41.096C340.395 42.216 340.083 43.008 339.611 43.472C339.139 43.928 338.423 44.156 337.463 44.156C336.983 44.156 336.423 44.112 335.783 44.024C335.151 43.936 334.651 43.824 334.283 43.688L335.423 35.6H337.187ZM336.551 40.244L336.191 42.824C336.703 42.84 337.011 42.848 337.115 42.848C337.699 42.84 338.091 42.724 338.291 42.5C338.491 42.276 338.647 41.768 338.759 40.976C338.847 40.288 338.859 39.848 338.795 39.656C338.739 39.464 338.571 39.368 338.291 39.368C337.827 39.368 337.247 39.66 336.551 40.244ZM347.793 38.084L346.977 44H345.609V42.884C344.729 43.732 343.877 44.156 343.053 44.156C342.485 44.156 342.069 44.008 341.805 43.712C341.549 43.416 341.461 43.008 341.541 42.488L342.153 38.084H343.929L343.365 42.008C343.333 42.248 343.349 42.42 343.413 42.524C343.485 42.62 343.617 42.668 343.809 42.668C344.065 42.668 344.313 42.6 344.553 42.464C344.801 42.328 345.129 42.088 345.537 41.744L346.041 38.084H347.793ZM350.12 35.468H350.864C351.24 35.468 351.408 35.652 351.368 36.02L351.284 36.668C351.236 36.988 351.044 37.148 350.708 37.148H349.952C349.584 37.148 349.424 36.964 349.472 36.596L349.556 35.96C349.588 35.632 349.776 35.468 350.12 35.468ZM350.216 44H348.452L349.28 38.084H351.044L350.216 44ZM358.56 35.6L357.372 44H355.98V42.92C355.18 43.736 354.36 44.144 353.52 44.144C352.856 44.144 352.384 43.892 352.104 43.388C351.824 42.884 351.76 42.064 351.912 40.928C352 40.296 352.124 39.776 352.284 39.368C352.444 38.96 352.644 38.656 352.884 38.456C353.132 38.248 353.384 38.108 353.64 38.036C353.904 37.956 354.216 37.916 354.576 37.916C355.208 37.916 355.844 37.968 356.484 38.072C356.5 37.576 356.528 37.188 356.568 36.908L356.784 35.6H358.56ZM356.268 39.164H355.32C354.736 39.164 354.348 39.268 354.156 39.476C353.964 39.676 353.816 40.168 353.712 40.952C353.616 41.616 353.596 42.068 353.652 42.308C353.708 42.54 353.88 42.652 354.168 42.644C354.456 42.636 354.728 42.564 354.984 42.428C355.248 42.284 355.556 42.056 355.908 41.744L356.268 39.164ZM362.362 37.916C363.458 37.916 364.222 38.164 364.654 38.66C365.086 39.156 365.222 39.976 365.062 41.12C364.91 42.232 364.578 43.016 364.066 43.472C363.562 43.928 362.774 44.156 361.702 44.156C360.614 44.156 359.846 43.908 359.398 43.412C358.958 42.916 358.818 42.104 358.978 40.976C359.138 39.856 359.47 39.068 359.974 38.612C360.478 38.148 361.274 37.916 362.362 37.916ZM362.35 39.248C361.862 39.248 361.51 39.372 361.294 39.62C361.086 39.868 360.93 40.368 360.826 41.12C360.73 41.808 360.742 42.264 360.862 42.488C360.982 42.712 361.274 42.824 361.738 42.824C362.218 42.824 362.562 42.7 362.77 42.452C362.978 42.196 363.134 41.704 363.238 40.976C363.342 40.288 363.33 39.828 363.202 39.596C363.082 39.364 362.798 39.248 362.35 39.248ZM370.929 37.916L370.533 39.56H370.101C369.853 39.56 369.589 39.616 369.309 39.728C369.037 39.832 368.641 40.02 368.121 40.292L367.617 44H365.841L366.669 38.084H368.049V39.2C368.953 38.344 369.793 37.916 370.569 37.916H370.929ZM376.316 42.596L376.436 43.724C375.772 44.004 374.904 44.144 373.832 44.144C372.704 44.144 371.928 43.88 371.504 43.352C371.08 42.824 370.932 42.012 371.06 40.916C371.204 39.764 371.532 38.976 372.044 38.552C372.556 38.128 373.372 37.916 374.492 37.916C375.532 37.916 376.236 38.088 376.604 38.432C376.98 38.776 377.12 39.284 377.024 39.956C376.944 40.516 376.716 40.916 376.34 41.156C375.964 41.396 375.384 41.544 374.6 41.6L372.848 41.732C372.856 42.124 372.952 42.388 373.136 42.524C373.328 42.66 373.628 42.728 374.036 42.728C374.812 42.728 375.572 42.684 376.316 42.596ZM372.956 40.688L374.336 40.556C374.656 40.532 374.888 40.468 375.032 40.364C375.184 40.26 375.276 40.068 375.308 39.788C375.332 39.524 375.28 39.36 375.152 39.296C375.032 39.232 374.772 39.204 374.372 39.212C373.908 39.212 373.58 39.312 373.388 39.512C373.204 39.704 373.06 40.096 372.956 40.688ZM380.583 41.876L379.155 41.288C378.675 41.096 378.339 40.852 378.147 40.556C377.955 40.26 377.887 39.888 377.943 39.44C378.007 38.896 378.243 38.504 378.651 38.264C379.067 38.024 379.715 37.908 380.595 37.916C381.683 37.932 382.595 38.012 383.331 38.156L383.163 39.284C381.627 39.26 380.847 39.248 380.823 39.248C380.359 39.248 380.051 39.268 379.899 39.308C379.747 39.34 379.659 39.424 379.635 39.56C379.619 39.696 379.655 39.8 379.743 39.872C379.839 39.936 380.019 40.02 380.283 40.124L381.735 40.7C382.223 40.892 382.567 41.124 382.767 41.396C382.967 41.668 383.039 42.032 382.983 42.488C382.935 42.84 382.839 43.128 382.695 43.352C382.559 43.576 382.359 43.744 382.095 43.856C381.831 43.968 381.547 44.04 381.243 44.072C380.939 44.112 380.551 44.132 380.079 44.132C379.359 44.132 378.491 44.06 377.475 43.916L377.643 42.776C377.931 42.792 378.559 42.8 379.527 42.8C380.215 42.8 380.671 42.776 380.895 42.728C381.119 42.68 381.247 42.576 381.279 42.416C381.295 42.296 381.263 42.208 381.183 42.152C381.111 42.096 380.963 42.024 380.739 41.936C380.675 41.912 380.623 41.892 380.583 41.876Z" fill="#1F3D8C"/>
<path d="M289.535 22H276.817C275.821 22 275 22.8498 275 23.8462V35.8608C275 36.5055 275.322 37.0623 275.791 37.4139L283.176 42.4542L290.531 37.4432C291 37.1209 291.322 36.5348 291.322 35.8901V23.8755C291.352 22.8498 290.531 22 289.535 22ZM283.176 26.0733C284.729 26.0733 286.018 27.3626 286.018 28.9158C286.018 30.4689 284.729 31.7582 283.176 31.7582C281.623 31.7582 280.333 30.4689 280.333 28.9158C280.333 27.3626 281.623 26.0733 283.176 26.0733ZM287.161 35.9487C286.194 37.0037 284.934 37.8828 283.176 38.4103C281.447 37.8828 280.158 37.0037 279.19 35.978V34.1905L280.949 33.0476L283.176 34.7179L285.403 33.0476L287.161 34.1905V35.9487Z" fill="#C48E39"/>
<path d="M334.661 317.422H296.88C295.238 317.422 294.143 318.46 294.143 320.017C294.143 321.574 295.238 322.612 296.88 322.612H334.661C336.304 322.612 337.399 321.574 337.399 320.017C337.399 318.46 336.304 317.422 334.661 317.422Z" fill="white"/>
<path d="M435 317.422H355.724C354.072 317.422 352.971 318.46 352.971 320.017C352.971 321.574 354.072 322.612 355.724 322.612H435C436.652 322.612 437.753 321.574 437.753 320.017C437.753 318.46 436.652 317.422 435 317.422Z" fill="white"/>
<path d="M519.744 317.422H456.116C454.441 317.422 453.325 318.46 453.325 320.017C453.325 321.574 454.441 322.612 456.116 322.612H519.744C521.419 322.612 522.535 321.574 522.535 320.017C522.535 318.46 520.861 317.422 519.744 317.422Z" fill="white"/>
<path d="M362.29 341.643H296.935C295.26 341.643 294.143 342.681 294.143 344.239C294.143 345.796 295.26 346.834 296.935 346.834H362.29C363.965 346.834 365.083 345.796 365.083 344.239C365.083 342.681 363.965 341.643 362.29 341.643Z" fill="white"/>
<path d="M473.068 341.643H383.405C381.755 341.643 380.655 342.681 380.655 344.239C380.655 345.796 381.755 346.834 383.405 346.834H473.068C474.718 346.834 475.818 345.796 475.818 344.239C475.818 342.681 474.718 341.643 473.068 341.643Z" fill="white"/>
<path d="M519.749 341.643H492.446C490.775 341.643 489.66 342.681 489.66 344.239C489.66 345.796 490.775 346.834 492.446 346.834H519.749C521.421 346.834 522.535 345.796 522.535 344.239C522.535 342.681 521.421 341.643 519.749 341.643Z" fill="white"/>
<path d="M334.661 365.865H296.88C295.238 365.865 294.143 366.903 294.143 368.46C294.143 370.017 295.238 371.055 296.88 371.055H334.661C336.304 371.055 337.399 370.017 337.399 368.46C337.399 366.903 336.304 365.865 334.661 365.865Z" fill="white"/>
<path d="M435 365.865H355.724C354.072 365.865 352.971 366.903 352.971 368.46C352.971 370.017 354.072 371.055 355.724 371.055H435C436.652 371.055 437.753 370.017 437.753 368.46C437.753 366.903 436.652 365.865 435 365.865Z" fill="white"/>
<path d="M519.744 365.865H456.116C454.441 365.865 453.325 366.903 453.325 368.46C453.325 370.017 454.441 371.055 456.116 371.055H519.744C521.419 371.055 522.535 370.017 522.535 368.46C522.535 366.903 520.861 365.865 519.744 365.865Z" fill="white"/>
<path d="M362.29 390.087H296.935C295.26 390.087 294.143 391.125 294.143 392.682C294.143 394.239 295.26 395.277 296.935 395.277H362.29C363.965 395.277 365.083 394.239 365.083 392.682C365.083 391.125 363.965 390.087 362.29 390.087Z" fill="white"/>
<path d="M473.068 390.087H383.405C381.755 390.087 380.655 391.125 380.655 392.682C380.655 394.239 381.755 395.277 383.405 395.277H473.068C474.718 395.277 475.818 394.239 475.818 392.682C475.818 391.125 474.718 390.087 473.068 390.087Z" fill="white"/>
<path d="M519.749 390.087H492.446C490.775 390.087 489.66 391.125 489.66 392.682C489.66 394.239 490.775 395.277 492.446 395.277H519.749C521.421 395.277 522.535 394.239 522.535 392.682C522.535 391.125 521.421 390.087 519.749 390.087Z" fill="white"/>
<path d="M340.151 500.814H395.204C396.856 500.814 397.957 499.776 397.957 498.219C397.957 496.662 396.856 495.624 395.204 495.624H340.151C338.5 495.624 337.398 496.662 337.398 498.219C337.398 499.776 338.5 500.814 340.151 500.814Z" fill="#FFCAA0"/>
<path d="M236.31 500.814H320.83C322.466 500.814 323.557 499.776 323.557 498.219C323.557 496.662 322.466 495.624 320.83 495.624H236.31C234.675 495.624 233.584 496.662 233.584 498.219C233.584 499.776 235.22 500.814 236.31 500.814Z" fill="#FFCAA0"/>
<path d="M277.88 525.036H343.278C344.941 525.036 346.049 523.998 346.049 522.441C346.049 520.884 344.941 519.846 343.278 519.846H277.88C276.218 519.846 275.109 520.884 275.109 522.441C275.109 523.998 276.218 525.036 277.88 525.036Z" fill="#FFCAA0"/>
<path d="M236.269 525.036H262.044C263.654 525.036 264.728 523.998 264.728 522.441C264.728 520.884 263.654 519.846 262.044 519.846H236.269C234.658 519.846 233.584 520.884 233.584 522.441C233.584 523.998 234.658 525.036 236.269 525.036Z" fill="#FFCAA0"/>
<path d="M199.747 493.894L183.406 513.617H198.113L196.479 526.766L212.82 507.043H198.113L199.747 493.894Z" stroke="url(#paint8_linear)" stroke-width="2" stroke-linecap="round" stroke-linejoin="round"/>
<defs>
<filter id="filter0_f" x="140.168" y="35.4265" width="404.839" height="702.4" filterUnits="userSpaceOnUse" color-interpolation-filters="sRGB">
<feFlood flood-opacity="0" result="BackgroundImageFix"/>
<feBlend mode="normal" in="SourceGraphic" in2="BackgroundImageFix" result="shape"/>
<feGaussianBlur stdDeviation="32" result="effect1_foregroundBlur"/>
</filter>
<filter id="filter1_f" x="99.2754" y="191.773" width="285.918" height="90.3952" filterUnits="userSpaceOnUse" color-interpolation-filters="sRGB">
<feFlood flood-opacity="0" result="BackgroundImageFix"/>
<feBlend mode="normal" in="SourceGraphic" in2="BackgroundImageFix" result="shape"/>
<feGaussianBlur stdDeviation="4" result="effect1_foregroundBlur"/>
</filter>
<filter id="filter2_f" x="118.959" y="477.894" width="301.918" height="106.395" filterUnits="userSpaceOnUse" color-interpolation-filters="sRGB">
<feFlood flood-opacity="0" result="BackgroundImageFix"/>
<feBlend mode="normal" in="SourceGraphic" in2="BackgroundImageFix" result="shape"/>
<feGaussianBlur stdDeviation="8" result="effect1_foregroundBlur"/>
</filter>
<filter id="filter3_f" x="270.143" y="291.692" width="317.918" height="170.839" filterUnits="userSpaceOnUse" color-interpolation-filters="sRGB">
<feFlood flood-opacity="0" result="BackgroundImageFix"/>
<feBlend mode="normal" in="SourceGraphic" in2="BackgroundImageFix" result="shape"/>
<feGaussianBlur stdDeviation="12" result="effect1_foregroundBlur"/>
</filter>
<filter id="filter4_d" x="245" y="0" width="200" height="89.7617" filterUnits="userSpaceOnUse" color-interpolation-filters="sRGB">
<feFlood flood-opacity="0" result="BackgroundImageFix"/>
<feColorMatrix in="SourceAlpha" type="matrix" values="0 0 0 0 0 0 0 0 0 0 0 0 0 0 0 0 0 0 127 0"/>
<feOffset dx="2" dy="6"/>
<feGaussianBlur stdDeviation="6"/>
<feColorMatrix type="matrix" values="0 0 0 0 0.286275 0 0 0 0 0.145098 0 0 0 0 0.380392 0 0 0 0.06 0"/>
<feBlend mode="normal" in2="BackgroundImageFix" result="effect1_dropShadow"/>
<feBlend mode="normal" in="SourceGraphic" in2="effect1_dropShadow" result="shape"/>
</filter>
<linearGradient id="paint0_linear" x1="-1320.18" y1="-928.265" x2="36.7251" y2="736.72" gradientUnits="userSpaceOnUse">
<stop stop-color="#506EB3"/>
<stop offset="0.956793" stop-color="white"/>
</linearGradient>
<linearGradient id="paint1_linear" x1="-1233.67" y1="-1052.83" x2="123.237" y2="612.151" gradientUnits="userSpaceOnUse">
<stop stop-color="#506EB3"/>
<stop offset="0.956793" stop-color="white"/>
</linearGradient>
<linearGradient id="paint2_linear" x1="204" y1="386.543" x2="480.965" y2="386.543" gradientUnits="userSpaceOnUse">
<stop stop-color="#213667"/>
<stop offset="1" stop-color="#506EB3"/>
</linearGradient>
<linearGradient id="paint3_linear" x1="315.999" y1="635" x2="471.999" y2="151" gradientUnits="userSpaceOnUse">
<stop stop-color="#C48E39"/>
<stop offset="1" stop-color="#F4C478"/>
</linearGradient>
<linearGradient id="paint4_linear" x1="196.549" y1="143.582" x2="372.089" y2="125.451" gradientUnits="userSpaceOnUse">
<stop stop-color="#213667"/>
<stop offset="1" stop-color="#506EB3"/>
</linearGradient>
<linearGradient id="paint5_linear" x1="368.001" y1="147.5" x2="396.232" y2="125.364" gradientUnits="userSpaceOnUse">
<stop stop-color="#213667"/>
<stop offset="1" stop-color="#506EB3"/>
</linearGradient>
<linearGradient id="paint6_linear" x1="271.499" y1="603.5" x2="377.999" y2="667.5" gradientUnits="userSpaceOnUse">
<stop stop-color="#213667"/>
<stop offset="1" stop-color="#506EB3"/>
</linearGradient>
<linearGradient id="paint7_linear" x1="434" y1="367" x2="213" y2="335" gradientUnits="userSpaceOnUse">
<stop stop-color="#506EB3"/>
<stop offset="1" stop-color="#506EB3" stop-opacity="0"/>
</linearGradient>
<linearGradient id="paint8_linear" x1="229.258" y1="451.506" x2="147.175" y2="481.687" gradientUnits="userSpaceOnUse">
<stop stop-color="#F8B44C"/>
<stop offset="1" stop-color="#F07E26"/>
</linearGradient>
</defs>
</svg>
