<svg width="635" height="738" viewBox="0 0 635 738" fill="none" xmlns="http://www.w3.org/2000/svg">
<path d="M109.098 686.567L2.4731 345.234C-8.27503 310.852 17.3588 275.899 53.2652 275.899H388.597C411.853 275.899 432.446 291.063 439.389 313.332L546.015 654.665C556.763 689.046 531.129 724 495.223 724H159.89C136.635 723.952 116.089 708.836 109.098 686.567Z" fill="url(#paint0_linear)" fill-opacity="0.21"/>
<path d="M195.611 561.998L88.9858 220.665C78.2377 186.284 103.871 151.33 139.778 151.33H475.11C498.366 151.33 518.959 166.494 525.902 188.763L632.527 530.097C643.275 564.478 617.642 599.431 581.735 599.431H246.403C223.147 599.384 202.602 584.267 195.611 561.998Z" fill="url(#paint1_linear)"/>
<g filter="url(#filter0_f)">
<path d="M204.169 642.688C204.169 659.925 218.066 673.826 235.299 673.826H449.878C467.111 673.826 481.008 659.925 481.008 642.688V130.565C481.008 113.328 467.111 99.4265 449.878 99.4265H235.299C218.066 99.4265 204.169 113.328 204.169 130.565V642.688Z" fill="#C3CBE5" fill-opacity="0.55"/>
</g>
<path d="M204 642.625C204 659.81 217.898 673.67 235.131 673.67H449.709C466.942 673.67 480.839 659.81 480.839 642.625V132.045C480.839 114.859 466.942 101 449.709 101H235.131C217.898 101 204 114.859 204 132.045V642.625Z" fill="url(#paint2_linear)"/>
<path d="M481.008 151.33H204.169V599.431H481.008V151.33Z" fill="url(#paint3_linear)"/>
<path d="M372.052 125.46C372.052 127.536 370.898 128.921 369.168 128.921H291.884C290.153 128.921 289 127.536 289 125.46C289 123.384 290.153 122 291.884 122H369.168C370.898 122 372.052 123.384 372.052 125.46Z" fill="url(#paint4_linear)"/>
<path d="M396.226 125.378C396.226 128.262 393.919 130.569 391.035 130.569C388.152 130.569 385.845 128.262 385.845 125.378C385.845 122.495 388.152 120.188 391.035 120.188C393.919 120.188 396.226 122.495 396.226 125.378Z" fill="url(#paint5_linear)"/>
<path d="M343.381 620.193C347.076 620.193 351.299 621.861 353.938 624.642C356.577 627.422 358.161 631.315 358.161 635.764C358.161 639.657 356.577 644.106 353.938 646.886C351.299 649.667 347.604 651.335 343.381 651.335H341.797C333.879 651.335 327.017 644.106 327.017 635.764C327.017 627.422 333.879 620.193 341.797 620.193H343.381Z" fill="url(#paint6_linear)"/>
<g opacity="0.1" filter="url(#filter1_f)">
<path d="M377.194 259.29C377.194 267.556 370.515 274.169 362.167 274.169L107.275 273.618C107.275 270.862 107.275 214.653 107.275 214.653C107.275 206.386 113.954 199.773 122.302 199.773H362.167C370.515 199.773 377.194 206.386 377.194 214.653V259.29Z" fill="#C3CBE5"/>
</g>
<path d="M397.956 238.528C397.956 246.794 391.278 253.407 382.93 253.407L128.038 252.856C128.038 250.101 128.038 193.891 128.038 193.891C128.038 185.625 134.716 179.012 143.064 179.012H382.93C391.278 179.012 397.956 185.625 397.956 193.891V238.528Z" fill="white"/>
<path d="M333.249 206.694H370.96C372.624 206.694 373.733 205.656 373.733 204.099C373.733 202.542 372.624 201.504 370.96 201.504H333.249C331.586 201.504 330.477 202.542 330.477 204.099C330.477 205.656 332.14 206.694 333.249 206.694Z" fill="#FFCAA0"/>
<path d="M236.333 206.694H313.885C315.535 206.694 316.635 205.656 316.635 204.099C316.635 202.542 315.535 201.504 313.885 201.504H236.333C234.683 201.504 233.583 202.542 233.583 204.099C233.583 205.656 234.683 206.694 236.333 206.694Z" fill="#FFCAA0"/>
<path d="M153.297 206.694H215.245C216.905 206.694 218.011 205.656 218.011 204.099C218.011 202.542 216.905 201.504 215.245 201.504H153.297C151.637 201.504 150.531 202.542 150.531 204.099C150.531 205.656 151.637 206.694 153.297 206.694Z" fill="#FFCAA0"/>
<path d="M315.96 230.916H343.262C344.934 230.916 346.048 229.878 346.048 228.32C346.048 226.763 344.934 225.725 343.262 225.725H315.96C314.288 225.725 313.174 226.763 313.174 228.32C313.174 229.878 314.288 230.916 315.96 230.916Z" fill="#FFCAA0"/>
<path d="M194.837 230.916H298.281C299.95 230.916 301.062 229.878 301.062 228.32C301.062 226.763 299.95 225.725 298.281 225.725H194.837C193.169 225.725 192.057 226.763 192.057 228.32C192.057 229.878 193.725 230.916 194.837 230.916Z" fill="#FFCAA0"/>
<path d="M153.365 230.916H180.572C182.272 230.916 183.406 229.878 183.406 228.32C183.406 226.763 182.272 225.725 180.572 225.725H153.365C151.665 225.725 150.531 226.763 150.531 228.32C150.531 229.878 151.665 230.916 153.365 230.916Z" fill="#FFCAA0"/>
<g opacity="0.1" filter="url(#filter2_f)">
<path d="M404.877 553.41C404.877 561.676 398.199 568.289 389.851 568.289L134.959 567.738C134.959 564.983 134.959 508.773 134.959 508.773C134.959 500.507 141.637 493.894 149.985 493.894H389.851C398.199 493.894 404.877 500.507 404.877 508.773V553.41Z" fill="#C6ACD1"/>
</g>
<path d="M425.64 532.649C425.64 540.915 418.962 547.528 410.614 547.528L155.722 546.977C155.722 544.221 155.722 488.012 155.722 488.012C155.722 479.745 162.4 473.133 170.748 473.133H410.614C418.962 473.133 425.64 479.745 425.64 488.012V532.649Z" fill="white"/>
<g opacity="0.1" filter="url(#filter3_f)">
<path d="M294.142 423.523C294.142 431.86 300.82 438.53 309.168 438.53L564.06 437.974C564.06 435.195 564.06 330.699 564.06 330.699C564.06 322.362 557.381 315.692 549.033 315.692H309.168C300.82 315.692 294.142 322.362 294.142 330.699V423.523Z" fill="#C3CBE6"/>
</g>
<path d="M273.379 402.761C273.379 411.099 280.057 417.769 288.405 417.769L543.297 417.213C543.297 414.434 543.297 309.938 543.297 309.938C543.297 301.6 536.619 294.93 528.271 294.93H288.405C280.057 294.93 273.379 301.6 273.379 309.938V402.761Z" fill="url(#paint7_linear)"/>
<path d="M334.66 317.422H296.879C295.237 317.422 294.142 318.46 294.142 320.017C294.142 321.574 295.237 322.612 296.879 322.612H334.66C336.303 322.612 337.398 321.574 337.398 320.017C337.398 318.46 336.303 317.422 334.66 317.422Z" fill="white"/>
<path d="M434.999 317.422H355.723C354.071 317.422 352.97 318.46 352.97 320.017C352.97 321.574 354.071 322.612 355.723 322.612H434.999C436.651 322.612 437.752 321.574 437.752 320.017C437.752 318.46 436.651 317.422 434.999 317.422Z" fill="white"/>
<path d="M519.743 317.422H456.115C454.44 317.422 453.324 318.46 453.324 320.017C453.324 321.574 454.44 322.612 456.115 322.612H519.743C521.418 322.612 522.534 321.574 522.534 320.017C522.534 318.46 520.86 317.422 519.743 317.422Z" fill="white"/>
<path d="M362.289 341.643H296.935C295.259 341.643 294.142 342.681 294.142 344.239C294.142 345.796 295.259 346.834 296.935 346.834H362.289C363.964 346.834 365.082 345.796 365.082 344.239C365.082 342.681 363.964 341.643 362.289 341.643Z" fill="white"/>
<path d="M473.067 341.643H383.404C381.754 341.643 380.654 342.681 380.654 344.239C380.654 345.796 381.754 346.834 383.404 346.834H473.067C474.717 346.834 475.817 345.796 475.817 344.239C475.817 342.681 474.717 341.643 473.067 341.643Z" fill="white"/>
<path d="M519.748 341.643H492.445C490.774 341.643 489.659 342.681 489.659 344.239C489.659 345.796 490.774 346.834 492.445 346.834H519.748C521.42 346.834 522.534 345.796 522.534 344.239C522.534 342.681 521.42 341.643 519.748 341.643Z" fill="white"/>
<path d="M334.66 365.865H296.879C295.237 365.865 294.142 366.903 294.142 368.46C294.142 370.017 295.237 371.055 296.879 371.055H334.66C336.303 371.055 337.398 370.017 337.398 368.46C337.398 366.903 336.303 365.865 334.66 365.865Z" fill="white"/>
<path d="M434.999 365.865H355.723C354.071 365.865 352.97 366.903 352.97 368.46C352.97 370.017 354.071 371.055 355.723 371.055H434.999C436.651 371.055 437.752 370.017 437.752 368.46C437.752 366.903 436.651 365.865 434.999 365.865Z" fill="white"/>
<path d="M519.743 365.865H456.115C454.44 365.865 453.324 366.903 453.324 368.46C453.324 370.017 454.44 371.055 456.115 371.055H519.743C521.418 371.055 522.534 370.017 522.534 368.46C522.534 366.903 520.86 365.865 519.743 365.865Z" fill="white"/>
<path d="M362.289 390.087H296.935C295.259 390.087 294.142 391.125 294.142 392.682C294.142 394.239 295.259 395.277 296.935 395.277H362.289C363.964 395.277 365.082 394.239 365.082 392.682C365.082 391.125 363.964 390.087 362.289 390.087Z" fill="white"/>
<path d="M473.067 390.087H383.404C381.754 390.087 380.654 391.125 380.654 392.682C380.654 394.239 381.754 395.277 383.404 395.277H473.067C474.717 395.277 475.817 394.239 475.817 392.682C475.817 391.125 474.717 390.087 473.067 390.087Z" fill="white"/>
<path d="M519.748 390.087H492.445C490.774 390.087 489.659 391.125 489.659 392.682C489.659 394.239 490.774 395.277 492.445 395.277H519.748C521.42 395.277 522.534 394.239 522.534 392.682C522.534 391.125 521.42 390.087 519.748 390.087Z" fill="white"/>
<path d="M340.15 500.814H395.203C396.855 500.814 397.956 499.776 397.956 498.219C397.956 496.662 396.855 495.624 395.203 495.624H340.15C338.499 495.624 337.397 496.662 337.397 498.219C337.397 499.776 338.499 500.814 340.15 500.814Z" fill="#FFCAA0"/>
<path d="M236.309 500.814H320.829C322.465 500.814 323.556 499.776 323.556 498.219C323.556 496.662 322.465 495.624 320.829 495.624H236.309C234.674 495.624 233.583 496.662 233.583 498.219C233.583 499.776 235.219 500.814 236.309 500.814Z" fill="#FFCAA0"/>
<path d="M277.879 525.036H343.277C344.94 525.036 346.048 523.998 346.048 522.441C346.048 520.884 344.94 519.846 343.277 519.846H277.879C276.217 519.846 275.108 520.884 275.108 522.441C275.108 523.998 276.217 525.036 277.879 525.036Z" fill="#FFCAA0"/>
<path d="M236.268 525.036H262.043C263.653 525.036 264.727 523.998 264.727 522.441C264.727 520.884 263.653 519.846 262.043 519.846H236.268C234.657 519.846 233.583 520.884 233.583 522.441C233.583 523.998 234.657 525.036 236.268 525.036Z" fill="#FFCAA0"/>
<path d="M199.747 493.894L183.406 513.617H198.113L196.479 526.766L212.82 507.043H198.113L199.747 493.894Z" stroke="url(#paint8_linear)" stroke-width="2" stroke-linecap="round" stroke-linejoin="round"/>
<g filter="url(#filter4_d)">
<mask id="path-27-inside-1" fill="white">
<path fill-rule="evenodd" clip-rule="evenodd" d="M224 6C221.791 6 220 7.79086 220 10V57C220 59.2091 221.791 61 224 61H333.82C334.543 61 335.209 61.3897 335.564 62.0194L340.471 70.7423C341.235 72.1015 343.192 72.1015 343.957 70.7423L348.864 62.0194C349.218 61.3897 349.884 61 350.607 61H460C462.209 61 464 59.2091 464 57V10C464 7.79086 462.209 6 460 6H224Z"/>
</mask>
<path fill-rule="evenodd" clip-rule="evenodd" d="M224 6C221.791 6 220 7.79086 220 10V57C220 59.2091 221.791 61 224 61H333.82C334.543 61 335.209 61.3897 335.564 62.0194L340.471 70.7423C341.235 72.1015 343.192 72.1015 343.957 70.7423L348.864 62.0194C349.218 61.3897 349.884 61 350.607 61H460C462.209 61 464 59.2091 464 57V10C464 7.79086 462.209 6 460 6H224Z" fill="white"/>
<path d="M348.864 62.0194L349.735 62.5097L348.864 62.0194ZM340.471 70.7423L339.599 71.2326L340.471 70.7423ZM343.957 70.7423L343.085 70.252L343.957 70.7423ZM335.564 62.0194L334.692 62.5097L335.564 62.0194ZM221 10C221 8.34315 222.343 7 224 7V5C221.239 5 219 7.23858 219 10H221ZM221 57V10H219V57H221ZM224 60C222.343 60 221 58.6569 221 57H219C219 59.7614 221.239 62 224 62V60ZM333.82 60H224V62H333.82V60ZM341.342 70.252L336.435 61.5291L334.692 62.5097L339.599 71.2326L341.342 70.252ZM347.992 61.5291L343.085 70.252L344.828 71.2326L349.735 62.5097L347.992 61.5291ZM460 60H350.607V62H460V60ZM463 57C463 58.6569 461.657 60 460 60V62C462.761 62 465 59.7614 465 57H463ZM463 10V57H465V10H463ZM460 7C461.657 7 463 8.34315 463 10H465C465 7.23858 462.761 5 460 5V7ZM224 7H460V5H224V7ZM349.735 62.5097C349.912 62.1949 350.246 62 350.607 62V60C349.523 60 348.524 60.5845 347.992 61.5291L349.735 62.5097ZM339.599 71.2326C340.746 73.2714 343.681 73.2714 344.828 71.2326L343.085 70.252C342.703 70.9316 341.724 70.9316 341.342 70.252L339.599 71.2326ZM333.82 62C334.182 62 334.515 62.1949 334.692 62.5097L336.435 61.5291C335.904 60.5845 334.904 60 333.82 60V62Z" fill="#FCFCFC" mask="url(#path-27-inside-1)"/>
</g>
<path d="M273.696 27.388L272.124 26.752C271.524 26.504 271.12 26.184 270.912 25.792C270.704 25.4 270.636 24.908 270.708 24.316C270.828 23.436 271.132 22.848 271.62 22.552C272.116 22.248 272.884 22.096 273.924 22.096C274.956 22.096 275.856 22.208 276.624 22.432L276.444 23.668C275.724 23.644 274.868 23.632 273.876 23.632C273.388 23.624 273.056 23.664 272.88 23.752C272.704 23.832 272.588 24.056 272.532 24.424C272.492 24.696 272.512 24.888 272.592 25C272.68 25.104 272.88 25.216 273.192 25.336L274.68 25.912C275.312 26.16 275.728 26.472 275.928 26.848C276.128 27.216 276.188 27.724 276.108 28.372C275.988 29.284 275.692 29.9 275.22 30.22C274.756 30.532 273.964 30.688 272.844 30.688C271.916 30.688 270.968 30.58 270 30.364L270.192 29.056C271.888 29.096 272.748 29.116 272.772 29.116C273.332 29.116 273.712 29.064 273.912 28.96C274.112 28.848 274.24 28.616 274.296 28.264C274.328 27.992 274.304 27.804 274.224 27.7C274.144 27.596 273.968 27.492 273.696 27.388Z" fill="#1F3D8C"/>
<path d="M278.701 22H279.446C279.822 22 279.99 22.184 279.95 22.552L279.866 23.2C279.818 23.52 279.626 23.68 279.29 23.68H278.533C278.165 23.68 278.005 23.496 278.054 23.128L278.137 22.492C278.169 22.164 278.358 22 278.701 22ZM278.797 30.532H277.034L277.862 24.616H279.625L278.797 30.532Z" fill="#1F3D8C"/>
<path d="M283.278 28.408L281.85 27.82C281.37 27.628 281.034 27.384 280.842 27.088C280.65 26.792 280.582 26.42 280.638 25.972C280.702 25.428 280.938 25.036 281.346 24.796C281.762 24.556 282.41 24.44 283.29 24.448C284.378 24.464 285.29 24.544 286.026 24.688L285.858 25.816C284.322 25.792 283.542 25.78 283.518 25.78C283.054 25.78 282.746 25.8 282.594 25.84C282.442 25.872 282.354 25.956 282.33 26.092C282.314 26.228 282.35 26.332 282.438 26.404C282.534 26.468 282.714 26.552 282.978 26.656L284.43 27.232C284.918 27.424 285.262 27.656 285.462 27.928C285.662 28.2 285.734 28.564 285.678 29.02C285.63 29.372 285.534 29.66 285.39 29.884C285.254 30.108 285.054 30.276 284.79 30.388C284.526 30.5 284.242 30.572 283.938 30.604C283.634 30.644 283.246 30.664 282.774 30.664C282.054 30.664 281.186 30.592 280.17 30.448L280.338 29.308C280.626 29.324 281.254 29.332 282.222 29.332C282.91 29.332 283.366 29.308 283.59 29.26C283.814 29.212 283.942 29.108 283.974 28.948C283.99 28.828 283.958 28.74 283.878 28.684C283.806 28.628 283.658 28.556 283.434 28.468C283.37 28.444 283.318 28.424 283.278 28.408Z" fill="#1F3D8C"/>
<path d="M289.547 25.804L289.151 28.636C289.119 28.86 289.135 29.012 289.199 29.092C289.271 29.164 289.427 29.2 289.667 29.2H290.459L290.543 30.448C290.119 30.6 289.567 30.676 288.887 30.676C288.327 30.676 287.911 30.524 287.639 30.22C287.367 29.908 287.271 29.48 287.351 28.936L287.807 25.804H286.739L286.883 24.676L287.975 24.616L288.215 22.96H289.955L289.727 24.616H291.359L291.191 25.804H289.547Z" fill="#1F3D8C"/>
<path d="M296.941 29.128L297.061 30.256C296.397 30.536 295.529 30.676 294.457 30.676C293.329 30.676 292.553 30.412 292.129 29.884C291.705 29.356 291.557 28.544 291.685 27.448C291.829 26.296 292.157 25.508 292.669 25.084C293.181 24.66 293.997 24.448 295.117 24.448C296.157 24.448 296.861 24.62 297.229 24.964C297.605 25.308 297.745 25.816 297.649 26.488C297.569 27.048 297.341 27.448 296.965 27.688C296.589 27.928 296.009 28.076 295.225 28.132L293.473 28.264C293.481 28.656 293.577 28.92 293.761 29.056C293.953 29.192 294.253 29.26 294.661 29.26C295.437 29.26 296.197 29.216 296.941 29.128ZM293.581 27.22L294.961 27.088C295.281 27.064 295.513 27 295.657 26.896C295.809 26.792 295.901 26.6 295.933 26.32C295.957 26.056 295.905 25.892 295.777 25.828C295.657 25.764 295.397 25.736 294.997 25.744C294.533 25.744 294.205 25.844 294.013 26.044C293.829 26.236 293.685 26.628 293.581 27.22Z" fill="#1F3D8C"/>
<path d="M300.428 24.616V25.684C300.86 25.252 301.26 24.94 301.628 24.748C302.004 24.548 302.396 24.448 302.804 24.448C303.236 24.448 303.576 24.544 303.824 24.736C304.072 24.928 304.216 25.2 304.256 25.552C305 24.816 305.744 24.448 306.488 24.448C307.032 24.448 307.428 24.6 307.676 24.904C307.932 25.2 308.024 25.608 307.952 26.128L307.34 30.532H305.576L306.128 26.608C306.16 26.36 306.14 26.188 306.068 26.092C305.996 25.996 305.872 25.948 305.696 25.948C305.496 25.948 305.284 26.012 305.06 26.14C304.836 26.268 304.532 26.504 304.148 26.848L303.632 30.532H301.928L302.468 26.608C302.508 26.368 302.496 26.2 302.432 26.104C302.368 26 302.24 25.948 302.048 25.948C301.84 25.948 301.62 26.012 301.388 26.14C301.164 26.26 300.868 26.48 300.5 26.8L299.984 30.532H298.22L299.048 24.616H300.428Z" fill="#1F3D8C"/>
<path d="M314.384 30.532H313.004L313.016 29.464C312.408 30.248 311.6 30.652 310.592 30.676C309.848 30.7 309.344 30.46 309.08 29.956C308.824 29.444 308.78 28.612 308.948 27.46C309.028 26.916 309.14 26.46 309.284 26.092C309.428 25.716 309.588 25.42 309.764 25.204C309.94 24.988 310.168 24.824 310.448 24.712C310.728 24.6 310.996 24.528 311.252 24.496C311.516 24.464 311.848 24.448 312.248 24.448C312.672 24.448 313.18 24.484 313.772 24.556C314.364 24.628 314.836 24.712 315.188 24.808L314.384 30.532ZM313.292 25.756H312.38C311.804 25.756 311.412 25.856 311.204 26.056C310.996 26.256 310.84 26.732 310.736 27.484C310.632 28.244 310.608 28.732 310.664 28.948C310.72 29.156 310.892 29.252 311.18 29.236C311.708 29.228 312.3 28.856 312.956 28.12L313.292 25.756Z" fill="#1F3D8C"/>
<path d="M318.798 28.408L317.37 27.82C316.89 27.628 316.554 27.384 316.362 27.088C316.17 26.792 316.102 26.42 316.158 25.972C316.222 25.428 316.458 25.036 316.866 24.796C317.282 24.556 317.93 24.44 318.81 24.448C319.898 24.464 320.81 24.544 321.546 24.688L321.378 25.816C319.842 25.792 319.062 25.78 319.038 25.78C318.574 25.78 318.266 25.8 318.114 25.84C317.962 25.872 317.874 25.956 317.85 26.092C317.834 26.228 317.87 26.332 317.958 26.404C318.054 26.468 318.234 26.552 318.498 26.656L319.95 27.232C320.438 27.424 320.782 27.656 320.982 27.928C321.182 28.2 321.254 28.564 321.198 29.02C321.15 29.372 321.054 29.66 320.91 29.884C320.774 30.108 320.574 30.276 320.31 30.388C320.046 30.5 319.762 30.572 319.458 30.604C319.154 30.644 318.766 30.664 318.294 30.664C317.574 30.664 316.706 30.592 315.69 30.448L315.858 29.308C316.146 29.324 316.774 29.332 317.742 29.332C318.43 29.332 318.886 29.308 319.11 29.26C319.334 29.212 319.462 29.108 319.494 28.948C319.51 28.828 319.478 28.74 319.398 28.684C319.326 28.628 319.178 28.556 318.954 28.468C318.89 28.444 318.838 28.424 318.798 28.408Z" fill="#1F3D8C"/>
<path d="M326.936 24.616L326.912 25.756C327.264 25.396 327.66 25.092 328.1 24.844C328.54 24.596 328.972 24.472 329.396 24.472C330.092 24.472 330.572 24.716 330.836 25.204C331.1 25.692 331.152 26.52 330.992 27.688C330.92 28.2 330.82 28.64 330.692 29.008C330.572 29.368 330.432 29.656 330.272 29.872C330.112 30.088 329.916 30.26 329.684 30.388C329.46 30.508 329.232 30.588 329 30.628C328.776 30.668 328.508 30.688 328.196 30.688C327.612 30.688 327.024 30.636 326.432 30.532C326.432 30.908 326.404 31.28 326.348 31.648L326.156 32.812H324.38L325.532 24.616H326.936ZM326.648 29.452H327.56C328.168 29.452 328.564 29.352 328.748 29.152C328.94 28.944 329.088 28.448 329.192 27.664C329.288 26.912 329.304 26.432 329.24 26.224C329.184 26.008 329.02 25.9 328.748 25.9C328.54 25.9 328.276 25.988 327.956 26.164C327.636 26.34 327.316 26.576 326.996 26.872L326.648 29.452Z" fill="#1F3D8C"/>
<path d="M337.47 30.532H336.09L336.102 29.464C335.494 30.248 334.686 30.652 333.678 30.676C332.934 30.7 332.43 30.46 332.166 29.956C331.91 29.444 331.866 28.612 332.034 27.46C332.114 26.916 332.226 26.46 332.37 26.092C332.514 25.716 332.674 25.42 332.85 25.204C333.026 24.988 333.254 24.824 333.534 24.712C333.814 24.6 334.082 24.528 334.338 24.496C334.602 24.464 334.934 24.448 335.334 24.448C335.758 24.448 336.266 24.484 336.858 24.556C337.45 24.628 337.922 24.712 338.274 24.808L337.47 30.532ZM336.378 25.756H335.466C334.89 25.756 334.498 25.856 334.29 26.056C334.082 26.256 333.926 26.732 333.822 27.484C333.718 28.244 333.694 28.732 333.75 28.948C333.806 29.156 333.978 29.252 334.266 29.236C334.794 29.228 335.386 28.856 336.042 28.12L336.378 25.756Z" fill="#1F3D8C"/>
<path d="M343.984 24.448L343.588 26.092H343.156C342.908 26.092 342.644 26.148 342.364 26.26C342.092 26.364 341.696 26.552 341.176 26.824L340.672 30.532H338.896L339.724 24.616H341.104V25.732C342.008 24.876 342.848 24.448 343.624 24.448H343.984Z" fill="#1F3D8C"/>
<path d="M349.563 30.532H348.183L348.195 29.464C347.587 30.248 346.779 30.652 345.771 30.676C345.027 30.7 344.523 30.46 344.259 29.956C344.003 29.444 343.959 28.612 344.127 27.46C344.207 26.916 344.319 26.46 344.463 26.092C344.607 25.716 344.767 25.42 344.943 25.204C345.119 24.988 345.347 24.824 345.627 24.712C345.907 24.6 346.175 24.528 346.431 24.496C346.695 24.464 347.027 24.448 347.427 24.448C347.851 24.448 348.359 24.484 348.951 24.556C349.543 24.628 350.015 24.712 350.367 24.808L349.563 30.532ZM348.471 25.756H347.559C346.983 25.756 346.591 25.856 346.383 26.056C346.175 26.256 346.019 26.732 345.915 27.484C345.811 28.244 345.787 28.732 345.843 28.948C345.899 29.156 346.071 29.252 346.359 29.236C346.887 29.228 347.479 28.856 348.135 28.12L348.471 25.756Z" fill="#1F3D8C"/>
<path d="M355.823 24.616L355.799 25.756C356.151 25.396 356.547 25.092 356.987 24.844C357.427 24.596 357.859 24.472 358.283 24.472C358.979 24.472 359.459 24.716 359.723 25.204C359.987 25.692 360.039 26.52 359.879 27.688C359.807 28.2 359.707 28.64 359.579 29.008C359.459 29.368 359.319 29.656 359.159 29.872C358.999 30.088 358.803 30.26 358.571 30.388C358.347 30.508 358.119 30.588 357.887 30.628C357.663 30.668 357.395 30.688 357.083 30.688C356.499 30.688 355.911 30.636 355.319 30.532C355.319 30.908 355.291 31.28 355.235 31.648L355.043 32.812H353.267L354.419 24.616H355.823ZM355.535 29.452H356.447C357.055 29.452 357.451 29.352 357.635 29.152C357.827 28.944 357.975 28.448 358.079 27.664C358.175 26.912 358.191 26.432 358.127 26.224C358.071 26.008 357.907 25.9 357.635 25.9C357.427 25.9 357.163 25.988 356.843 26.164C356.523 26.34 356.203 26.576 355.883 26.872L355.535 29.452Z" fill="#1F3D8C"/>
<path d="M366.14 29.128L366.26 30.256C365.596 30.536 364.728 30.676 363.656 30.676C362.528 30.676 361.752 30.412 361.328 29.884C360.904 29.356 360.756 28.544 360.884 27.448C361.028 26.296 361.356 25.508 361.868 25.084C362.38 24.66 363.196 24.448 364.316 24.448C365.356 24.448 366.06 24.62 366.428 24.964C366.804 25.308 366.944 25.816 366.848 26.488C366.768 27.048 366.54 27.448 366.164 27.688C365.788 27.928 365.208 28.076 364.424 28.132L362.672 28.264C362.68 28.656 362.776 28.92 362.96 29.056C363.152 29.192 363.452 29.26 363.86 29.26C364.636 29.26 365.396 29.216 366.14 29.128ZM362.78 27.22L364.16 27.088C364.48 27.064 364.712 27 364.856 26.896C365.008 26.792 365.1 26.6 365.132 26.32C365.156 26.056 365.104 25.892 364.976 25.828C364.856 25.764 364.596 25.736 364.196 25.744C363.732 25.744 363.404 25.844 363.212 26.044C363.028 26.236 362.884 26.628 362.78 27.22Z" fill="#1F3D8C"/>
<path d="M370.971 32.812L371.235 30.988C371.299 30.452 371.407 29.988 371.559 29.596C370.807 30.316 370.043 30.676 369.267 30.676C368.579 30.676 368.091 30.432 367.803 29.944C367.515 29.456 367.451 28.644 367.611 27.508C367.779 26.348 368.087 25.548 368.535 25.108C368.983 24.668 369.687 24.448 370.647 24.448C371.159 24.448 371.731 24.492 372.363 24.58C372.995 24.668 373.495 24.78 373.863 24.916L372.735 32.812H370.971ZM371.619 28.288L371.967 25.78C371.703 25.764 371.387 25.756 371.019 25.756C370.451 25.772 370.067 25.884 369.867 26.092C369.675 26.292 369.523 26.772 369.411 27.532C369.315 28.188 369.299 28.628 369.363 28.852C369.427 29.068 369.603 29.176 369.891 29.176C370.171 29.176 370.435 29.108 370.683 28.972C370.939 28.828 371.251 28.6 371.619 28.288Z" fill="#1F3D8C"/>
<path d="M380.918 24.616L380.102 30.532H378.733V29.416C377.854 30.264 377.001 30.688 376.177 30.688C375.609 30.688 375.193 30.54 374.929 30.244C374.674 29.948 374.585 29.54 374.665 29.02L375.277 24.616H377.053L376.49 28.54C376.458 28.78 376.473 28.952 376.537 29.056C376.609 29.152 376.742 29.2 376.934 29.2C377.189 29.2 377.438 29.132 377.677 28.996C377.925 28.86 378.254 28.62 378.661 28.276L379.165 24.616H380.918Z" fill="#1F3D8C"/>
<path d="M386.964 29.128L387.084 30.256C386.42 30.536 385.552 30.676 384.48 30.676C383.352 30.676 382.576 30.412 382.152 29.884C381.728 29.356 381.58 28.544 381.708 27.448C381.852 26.296 382.18 25.508 382.692 25.084C383.204 24.66 384.02 24.448 385.14 24.448C386.18 24.448 386.884 24.62 387.252 24.964C387.628 25.308 387.768 25.816 387.672 26.488C387.592 27.048 387.364 27.448 386.988 27.688C386.612 27.928 386.032 28.076 385.248 28.132L383.496 28.264C383.504 28.656 383.6 28.92 383.784 29.056C383.976 29.192 384.276 29.26 384.684 29.26C385.46 29.26 386.22 29.216 386.964 29.128ZM383.604 27.22L384.984 27.088C385.304 27.064 385.536 27 385.68 26.896C385.832 26.792 385.924 26.6 385.956 26.32C385.98 26.056 385.928 25.892 385.8 25.828C385.68 25.764 385.42 25.736 385.02 25.744C384.556 25.744 384.228 25.844 384.036 26.044C383.852 26.236 383.708 26.628 383.604 27.22Z" fill="#1F3D8C"/>
<path d="M390.463 24.616V25.792C391.383 24.896 392.283 24.448 393.163 24.448C393.667 24.448 394.055 24.596 394.327 24.892C394.599 25.18 394.695 25.592 394.615 26.128L393.991 30.532H392.227L392.767 26.656C392.807 26.376 392.799 26.188 392.743 26.092C392.687 25.988 392.563 25.94 392.371 25.948C391.923 25.956 391.307 26.268 390.523 26.884L390.019 30.532H388.243L389.071 24.616H390.463Z" fill="#1F3D8C"/>
<path d="M398.944 24.448C400.04 24.448 400.804 24.696 401.236 25.192C401.668 25.688 401.804 26.508 401.644 27.652C401.492 28.764 401.16 29.548 400.648 30.004C400.144 30.46 399.356 30.688 398.284 30.688C397.196 30.688 396.428 30.44 395.98 29.944C395.54 29.448 395.4 28.636 395.56 27.508C395.72 26.388 396.052 25.6 396.556 25.144C397.06 24.68 397.856 24.448 398.944 24.448ZM398.932 25.78C398.444 25.78 398.092 25.904 397.876 26.152C397.668 26.4 397.512 26.9 397.408 27.652C397.312 28.34 397.324 28.796 397.444 29.02C397.564 29.244 397.856 29.356 398.32 29.356C398.8 29.356 399.144 29.232 399.352 28.984C399.56 28.728 399.716 28.236 399.82 27.508C399.924 26.82 399.912 26.36 399.784 26.128C399.664 25.896 399.38 25.78 398.932 25.78Z" fill="#1F3D8C"/>
<path d="M405.411 28.408L403.983 27.82C403.503 27.628 403.167 27.384 402.975 27.088C402.783 26.792 402.715 26.42 402.771 25.972C402.835 25.428 403.071 25.036 403.479 24.796C403.895 24.556 404.543 24.44 405.423 24.448C406.511 24.464 407.423 24.544 408.159 24.688L407.991 25.816C406.455 25.792 405.675 25.78 405.651 25.78C405.187 25.78 404.879 25.8 404.727 25.84C404.575 25.872 404.487 25.956 404.463 26.092C404.447 26.228 404.483 26.332 404.571 26.404C404.667 26.468 404.847 26.552 405.111 26.656L406.563 27.232C407.051 27.424 407.395 27.656 407.595 27.928C407.795 28.2 407.867 28.564 407.811 29.02C407.763 29.372 407.667 29.66 407.523 29.884C407.387 30.108 407.187 30.276 406.923 30.388C406.659 30.5 406.375 30.572 406.071 30.604C405.767 30.644 405.379 30.664 404.907 30.664C404.187 30.664 403.319 30.592 402.303 30.448L402.471 29.308C402.759 29.324 403.387 29.332 404.355 29.332C405.043 29.332 405.499 29.308 405.723 29.26C405.947 29.212 406.075 29.108 406.107 28.948C406.123 28.828 406.091 28.74 406.011 28.684C405.939 28.628 405.791 28.556 405.567 28.468C405.503 28.444 405.451 28.424 405.411 28.408Z" fill="#1F3D8C"/>
<path d="M418.981 22.252L415.609 30.064C415.481 30.376 415.261 30.532 414.949 30.532H413.293C413.141 30.532 413.009 30.48 412.897 30.376C412.785 30.272 412.721 30.148 412.705 30.004L411.529 22.252H413.377L414.025 28.204C414.057 28.524 414.081 28.848 414.097 29.176H414.397C414.469 28.888 414.577 28.56 414.721 28.192L417.049 22.252H418.981Z" fill="#1F3D8C"/>
<path d="M423.848 30.532H422.468L422.48 29.464C421.872 30.248 421.064 30.652 420.056 30.676C419.312 30.7 418.808 30.46 418.544 29.956C418.288 29.444 418.244 28.612 418.412 27.46C418.492 26.916 418.604 26.46 418.748 26.092C418.892 25.716 419.052 25.42 419.228 25.204C419.404 24.988 419.632 24.824 419.912 24.712C420.192 24.6 420.46 24.528 420.716 24.496C420.98 24.464 421.312 24.448 421.712 24.448C422.136 24.448 422.644 24.484 423.236 24.556C423.828 24.628 424.3 24.712 424.652 24.808L423.848 30.532ZM422.756 25.756H421.844C421.268 25.756 420.876 25.856 420.668 26.056C420.46 26.256 420.304 26.732 420.2 27.484C420.096 28.244 420.072 28.732 420.128 28.948C420.184 29.156 420.356 29.252 420.644 29.236C421.172 29.228 421.764 28.856 422.42 28.12L422.756 25.756Z" fill="#1F3D8C"/>
<path d="M430.363 24.448L429.967 26.092H429.535C429.287 26.092 429.023 26.148 428.743 26.26C428.471 26.364 428.075 26.552 427.555 26.824L427.051 30.532H425.275L426.103 24.616H427.483V25.732C428.387 24.876 429.227 24.448 430.003 24.448H430.363Z" fill="#1F3D8C"/>
<path d="M435.75 29.128L435.87 30.256C435.206 30.536 434.338 30.676 433.266 30.676C432.138 30.676 431.362 30.412 430.938 29.884C430.514 29.356 430.366 28.544 430.494 27.448C430.638 26.296 430.966 25.508 431.478 25.084C431.99 24.66 432.806 24.448 433.926 24.448C434.966 24.448 435.67 24.62 436.038 24.964C436.414 25.308 436.554 25.816 436.458 26.488C436.378 27.048 436.15 27.448 435.774 27.688C435.398 27.928 434.818 28.076 434.034 28.132L432.282 28.264C432.29 28.656 432.386 28.92 432.57 29.056C432.762 29.192 433.062 29.26 433.47 29.26C434.246 29.26 435.006 29.216 435.75 29.128ZM432.39 27.22L433.77 27.088C434.09 27.064 434.322 27 434.466 26.896C434.618 26.792 434.71 26.6 434.742 26.32C434.766 26.056 434.714 25.892 434.586 25.828C434.466 25.764 434.206 25.736 433.806 25.744C433.342 25.744 433.014 25.844 432.822 26.044C432.638 26.236 432.494 26.628 432.39 27.22Z" fill="#1F3D8C"/>
<path d="M438.744 22H439.488C439.864 22 440.028 22.184 439.98 22.552L439.896 23.2C439.848 23.52 439.656 23.68 439.32 23.68H438.576C438.2 23.68 438.036 23.496 438.084 23.128L438.18 22.492C438.212 22.164 438.4 22 438.744 22ZM439.68 24.616L438.876 30.292C438.804 30.844 438.608 31.356 438.288 31.828C437.976 32.3 437.576 32.66 437.088 32.908L436.116 32.092C436.692 31.532 437.024 30.908 437.112 30.22L437.916 24.616H439.68Z" fill="#1F3D8C"/>
<path d="M443.897 24.448C444.993 24.448 445.757 24.696 446.189 25.192C446.621 25.688 446.757 26.508 446.597 27.652C446.445 28.764 446.113 29.548 445.601 30.004C445.097 30.46 444.309 30.688 443.237 30.688C442.149 30.688 441.381 30.44 440.933 29.944C440.493 29.448 440.353 28.636 440.513 27.508C440.673 26.388 441.005 25.6 441.509 25.144C442.013 24.68 442.809 24.448 443.897 24.448ZM443.885 25.78C443.397 25.78 443.045 25.904 442.829 26.152C442.621 26.4 442.465 26.9 442.361 27.652C442.265 28.34 442.277 28.796 442.397 29.02C442.517 29.244 442.809 29.356 443.273 29.356C443.753 29.356 444.097 29.232 444.305 28.984C444.513 28.728 444.669 28.236 444.773 27.508C444.877 26.82 444.865 26.36 444.737 26.128C444.617 25.896 444.333 25.78 443.885 25.78Z" fill="#1F3D8C"/>
<path d="M450.364 28.408L448.936 27.82C448.456 27.628 448.12 27.384 447.928 27.088C447.736 26.792 447.668 26.42 447.724 25.972C447.788 25.428 448.024 25.036 448.432 24.796C448.848 24.556 449.496 24.44 450.376 24.448C451.464 24.464 452.376 24.544 453.112 24.688L452.944 25.816C451.408 25.792 450.628 25.78 450.604 25.78C450.14 25.78 449.832 25.8 449.68 25.84C449.528 25.872 449.44 25.956 449.416 26.092C449.4 26.228 449.436 26.332 449.524 26.404C449.62 26.468 449.8 26.552 450.064 26.656L451.516 27.232C452.004 27.424 452.348 27.656 452.548 27.928C452.748 28.2 452.82 28.564 452.764 29.02C452.716 29.372 452.62 29.66 452.476 29.884C452.34 30.108 452.14 30.276 451.876 30.388C451.612 30.5 451.328 30.572 451.024 30.604C450.72 30.644 450.332 30.664 449.86 30.664C449.14 30.664 448.272 30.592 447.256 30.448L447.424 29.308C447.712 29.324 448.34 29.332 449.308 29.332C449.996 29.332 450.452 29.308 450.676 29.26C450.9 29.212 451.028 29.108 451.06 28.948C451.076 28.828 451.044 28.74 450.964 28.684C450.892 28.628 450.744 28.556 450.52 28.468C450.456 28.444 450.404 28.424 450.364 28.408Z" fill="#1F3D8C"/>
<g clip-path="url(#clip0)">
<path d="M272.58 40.5421L271.309 40.0561C270.86 39.9066 270.561 39.6823 270.411 39.3832C270.262 39.0841 270.187 38.7103 270.262 38.2617C270.299 37.9626 270.374 37.7383 270.449 37.5514C270.524 37.3645 270.636 37.215 270.748 37.0655C270.86 36.9533 271.01 36.8412 271.234 36.8038C271.421 36.729 271.608 36.6916 271.795 36.6916C271.982 36.6916 272.243 36.6542 272.505 36.6542C273.29 36.6542 273.925 36.729 274.411 36.8412L274.337 37.4393C273.626 37.4019 273.028 37.4019 272.505 37.4019C272.281 37.4019 272.131 37.4019 272.019 37.4019C271.907 37.4019 271.795 37.4393 271.645 37.4393C271.496 37.4393 271.421 37.514 271.346 37.5888C271.271 37.6636 271.234 37.7383 271.159 37.8879C271.084 38 271.047 38.1869 271.047 38.3739C271.01 38.6729 271.01 38.8972 271.122 39.0468C271.197 39.1589 271.383 39.3084 271.682 39.4206L272.954 39.8692C273.439 40.0561 273.739 40.2804 273.888 40.5421C274.038 40.8038 274.075 41.1776 274 41.701C273.925 42.3739 273.701 42.8225 273.327 43.0468C273.028 43.1963 272.43 43.3084 271.645 43.3084C270.972 43.3084 270.337 43.2337 269.701 43.1215L269.813 42.5234C270.86 42.5608 271.496 42.5608 271.682 42.5608C272.243 42.5608 272.617 42.486 272.841 42.3739C273.066 42.2617 273.178 41.9626 273.253 41.5514C273.29 41.215 273.29 40.9907 273.178 40.8785C273.066 40.7664 272.879 40.6542 272.58 40.5421Z" fill="#1F3D8C"/>
<path d="M275.795 43.1962H275.01L275.645 38.6354H276.43L275.795 43.1962ZM276.131 36.7289H276.505C276.58 36.7289 276.655 36.7663 276.692 36.8036C276.729 36.841 276.729 36.9158 276.729 36.9906L276.655 37.5139C276.617 37.6635 276.542 37.7382 276.393 37.7382H276.019C275.832 37.7382 275.757 37.6635 275.795 37.4765L275.87 36.9532C275.87 36.8036 275.982 36.7289 276.131 36.7289Z" fill="#1F3D8C"/>
<path d="M279.645 41.4767L278.374 40.9159C278.037 40.7664 277.813 40.5795 277.664 40.3926C277.514 40.2056 277.477 39.944 277.514 39.6075C277.551 39.1963 277.738 38.8972 278.037 38.7477C278.336 38.5982 278.785 38.5234 279.421 38.5234C280.093 38.5234 280.729 38.5982 281.327 38.6729L281.215 39.2337C280.467 39.1963 279.869 39.1963 279.421 39.1963C278.972 39.1963 278.71 39.2337 278.523 39.2711C278.374 39.3084 278.299 39.458 278.262 39.6449C278.224 39.8318 278.262 39.944 278.336 40.0187C278.411 40.0935 278.561 40.2056 278.785 40.2804L280.056 40.8412C280.43 40.9907 280.692 41.1776 280.804 41.3645C280.953 41.5514 280.991 41.8131 280.953 42.1496C280.916 42.3365 280.879 42.5234 280.804 42.6355C280.729 42.7477 280.617 42.8972 280.505 42.972C280.393 43.0468 280.243 43.1215 280.056 43.1589C279.869 43.1963 279.682 43.2337 279.495 43.2337C279.308 43.2337 279.084 43.2337 278.785 43.2337C278.561 43.2337 278.374 43.2337 278.224 43.2337C278.075 43.2337 277.925 43.2337 277.85 43.1963C277.776 43.1963 277.626 43.1589 277.477 43.1589C277.29 43.1215 277.178 43.1215 277.065 43.1215L277.14 42.5608C277.514 42.5982 278 42.5982 278.598 42.5982C279.159 42.5982 279.57 42.5608 279.757 42.486C279.944 42.4112 280.093 42.2617 280.131 42.0748C280.131 41.9627 280.131 41.8879 280.093 41.8131C280.056 41.7384 280.019 41.701 279.944 41.6636C279.907 41.6262 279.794 41.5888 279.645 41.5141C279.682 41.4767 279.645 41.4767 279.645 41.4767Z" fill="#1F3D8C"/>
<path d="M283.646 39.2709L283.272 41.9625C283.234 42.1868 283.272 42.3364 283.346 42.4111C283.421 42.4859 283.571 42.5233 283.795 42.5233H284.505L284.543 43.1214C284.244 43.1962 283.907 43.2336 283.533 43.2336C283.16 43.2336 282.861 43.1214 282.674 42.8971C282.487 42.6728 282.449 42.3737 282.487 41.9999L282.861 39.2336H282.038L282.113 38.6728L282.973 38.6354L283.16 37.2896H283.945L283.758 38.6354H285.216L285.141 39.2709H283.646Z" fill="#1F3D8C"/>
<path d="M289.252 42.5234L289.29 43.0468C288.879 43.1963 288.243 43.3084 287.421 43.3084C286.636 43.3084 286.112 43.1215 285.813 42.7103C285.514 42.2991 285.439 41.701 285.551 40.8038C285.664 39.9066 285.925 39.3084 286.262 39.0094C286.636 38.7103 287.196 38.5234 288.019 38.5234C288.692 38.5234 289.178 38.6355 289.439 38.8972C289.701 39.1589 289.776 39.4954 289.701 39.9813C289.626 40.3926 289.439 40.729 289.178 40.9159C288.916 41.1028 288.505 41.215 287.944 41.2524L286.262 41.4019C286.262 41.8879 286.337 42.1869 286.523 42.3739C286.71 42.5234 287.047 42.6355 287.458 42.6355C288.131 42.6355 288.692 42.5982 289.252 42.5234ZM286.449 40.8412L288.056 40.6916C288.355 40.6542 288.579 40.6169 288.729 40.5047C288.879 40.3926 288.953 40.2056 288.991 39.944C289.028 39.6449 288.991 39.4206 288.841 39.3458C288.692 39.2711 288.393 39.2337 287.981 39.2337C287.458 39.2337 287.122 39.3458 286.897 39.5327C286.673 39.7197 286.561 40.1683 286.449 40.8412Z" fill="#1F3D8C"/>
<path d="M291.757 38.6354L291.72 39.6074C292.467 38.8597 293.103 38.5233 293.701 38.5233C294.037 38.5233 294.337 38.5981 294.523 38.785C294.71 38.9719 294.785 39.2336 294.785 39.5326C295.495 38.8597 296.131 38.4859 296.692 38.4859C297.103 38.4859 297.365 38.5981 297.551 38.8224C297.738 39.0467 297.813 39.3457 297.738 39.7569L297.252 43.1588H296.467L296.916 39.9812C296.953 39.6822 296.916 39.4953 296.841 39.3831C296.766 39.271 296.58 39.1962 296.355 39.1962C296.131 39.1962 295.907 39.271 295.682 39.4205C295.458 39.57 295.122 39.8317 294.673 40.2429L294.262 43.1962H293.514L293.963 40.0186C294 39.7569 293.963 39.5326 293.888 39.4205C293.813 39.3083 293.664 39.2336 293.402 39.2336C293.178 39.2336 292.953 39.3083 292.729 39.4579C292.505 39.6074 292.168 39.8691 291.72 40.2429L291.308 43.1962H290.523L291.159 38.6728H291.757V38.6354Z" fill="#1F3D8C"/>
<path d="M302.523 43.1962H301.888L301.925 42.299C301.327 42.9719 300.654 43.3084 299.906 43.3084C299.346 43.3084 299.009 43.1215 298.822 42.7476C298.635 42.3738 298.598 41.7383 298.748 40.8785C298.822 40.3925 298.897 39.9813 299.047 39.6448C299.159 39.3458 299.346 39.0841 299.533 38.9345C299.72 38.785 299.944 38.6729 300.168 38.6355C300.392 38.5981 300.691 38.5607 301.028 38.5607C301.701 38.5607 302.411 38.6355 303.159 38.785L302.523 43.1962ZM301.962 41.5888L302.299 39.2336C301.85 39.2336 301.514 39.1962 301.29 39.1962C300.654 39.1962 300.243 39.3084 300.056 39.4953C299.869 39.6822 299.682 40.1682 299.57 40.9159C299.495 41.5888 299.458 42.0374 299.533 42.2617C299.607 42.486 299.794 42.5981 300.131 42.5981C300.654 42.5981 301.252 42.2617 301.962 41.5888Z" fill="#1F3D8C"/>
<path d="M306.336 41.4767L305.065 40.9159C304.729 40.7664 304.505 40.5795 304.355 40.3926C304.205 40.2056 304.168 39.944 304.205 39.6075C304.243 39.1963 304.43 38.8972 304.729 38.7477C305.028 38.5982 305.476 38.5234 306.112 38.5234C306.785 38.5234 307.42 38.5982 308.019 38.6729L307.906 39.2337C307.159 39.1963 306.561 39.1963 306.112 39.1963C305.663 39.1963 305.402 39.2337 305.215 39.2711C305.065 39.3084 304.99 39.458 304.953 39.6449C304.916 39.8318 304.953 39.944 305.028 40.0187C305.103 40.0935 305.252 40.2056 305.476 40.2804L306.747 40.8412C307.121 40.9907 307.383 41.1776 307.495 41.3645C307.645 41.5514 307.682 41.8131 307.645 42.1496C307.607 42.3365 307.57 42.5234 307.495 42.6355C307.42 42.7477 307.308 42.8972 307.196 42.972C307.084 43.0468 306.934 43.1215 306.747 43.1589C306.561 43.1963 306.374 43.2337 306.187 43.2337C306 43.2337 305.776 43.2337 305.476 43.2337C305.252 43.2337 305.065 43.2337 304.916 43.2337C304.766 43.2337 304.617 43.2337 304.542 43.1963C304.467 43.1963 304.318 43.1589 304.168 43.1589C303.981 43.1215 303.869 43.1215 303.757 43.1215L303.832 42.5608C304.205 42.5982 304.691 42.5982 305.29 42.5982C305.85 42.5982 306.262 42.5608 306.448 42.486C306.635 42.4112 306.785 42.2617 306.822 42.0748C306.822 41.9627 306.822 41.8879 306.785 41.8131C306.747 41.7384 306.71 41.701 306.635 41.6636C306.598 41.6262 306.486 41.5888 306.336 41.5141C306.374 41.4767 306.336 41.4767 306.336 41.4767Z" fill="#1F3D8C"/>
<path d="M314.523 42.5234L314.56 43.0468C314.149 43.1963 313.514 43.3084 312.691 43.3084C311.906 43.3084 311.383 43.1215 311.084 42.7103C310.785 42.2991 310.71 41.701 310.822 40.8038C310.934 39.9066 311.196 39.3084 311.532 39.0094C311.906 38.7103 312.467 38.5234 313.289 38.5234C313.962 38.5234 314.448 38.6355 314.71 38.8972C314.971 39.1589 315.046 39.4954 314.971 39.9813C314.897 40.3926 314.71 40.729 314.448 40.9159C314.186 41.1028 313.775 41.215 313.214 41.2524L311.532 41.4019C311.532 41.8879 311.607 42.1869 311.794 42.3739C311.981 42.5234 312.317 42.6355 312.729 42.6355C313.364 42.6355 313.925 42.5982 314.523 42.5234ZM311.682 40.8412L313.289 40.6916C313.588 40.6542 313.813 40.6169 313.962 40.5047C314.112 40.3926 314.186 40.2056 314.224 39.944C314.261 39.6449 314.224 39.4206 314.074 39.3458C313.925 39.2711 313.626 39.2337 313.214 39.2337C312.691 39.2337 312.355 39.3458 312.13 39.5327C311.906 39.7197 311.794 40.1683 311.682 40.8412Z" fill="#1F3D8C"/>
<path d="M323.421 36.7664L322.524 43.1963H321.701L322.113 40.1308H319.159L318.748 43.1963H317.926L318.823 36.7664H319.645L319.272 39.4206H322.225L322.599 36.7664H323.421Z" fill="#1F3D8C"/>
<path d="M327.944 43.1962H327.309L327.346 42.299C326.748 42.9719 326.075 43.3084 325.327 43.3084C324.767 43.3084 324.43 43.1215 324.243 42.7476C324.056 42.3738 324.019 41.7383 324.168 40.8785C324.243 40.3925 324.318 39.9813 324.468 39.6448C324.58 39.3458 324.767 39.0841 324.953 38.9345C325.14 38.785 325.365 38.6729 325.589 38.6355C325.813 38.5981 326.112 38.5607 326.449 38.5607C327.122 38.5607 327.832 38.6355 328.58 38.785L327.944 43.1962ZM327.383 41.5888L327.72 39.2336C327.271 39.2336 326.935 39.1962 326.711 39.1962C326.075 39.1962 325.664 39.3084 325.477 39.4953C325.29 39.6822 325.103 40.1682 324.991 40.9159C324.916 41.5888 324.879 42.0374 324.953 42.2617C325.028 42.486 325.215 42.5981 325.552 42.5981C326.075 42.5981 326.673 42.2617 327.383 41.5888Z" fill="#1F3D8C"/>
<path d="M332.879 38.5234L332.692 39.2711H332.468C332.206 39.2711 331.944 39.3458 331.683 39.4954C331.421 39.6449 331.047 39.9066 330.599 40.243L330.187 43.1589H329.402L330.038 38.6355H330.636L330.561 39.6823C331.346 38.8972 332.057 38.5234 332.655 38.5234H332.879Z" fill="#1F3D8C"/>
<path d="M337.813 36.6541L336.916 43.1588H336.281L336.355 42.1869C335.683 42.9345 334.972 43.271 334.225 43.271C333.739 43.271 333.402 43.0841 333.215 42.7102C333.028 42.3364 332.991 41.7009 333.103 40.8411C333.178 40.3551 333.29 39.9439 333.402 39.6074C333.514 39.3083 333.664 39.0467 333.888 38.8971C334.075 38.7476 334.299 38.6355 334.486 38.5607C334.711 38.5233 334.972 38.4859 335.309 38.4859C335.72 38.4859 336.243 38.5233 336.767 38.5981C336.767 38.299 336.804 37.9999 336.841 37.7383L336.991 36.6168H337.813V36.6541ZM336.355 41.5513L336.655 39.1962C336.056 39.1962 335.72 39.1588 335.608 39.1588C335.271 39.1588 335.01 39.1588 334.86 39.1962C334.711 39.2336 334.524 39.3084 334.412 39.4579C334.299 39.6074 334.187 39.7569 334.112 39.9812C334.038 40.2055 334 40.5046 333.926 40.9158C333.851 41.5513 333.813 41.9999 333.888 42.2242C333.963 42.4485 334.15 42.5607 334.449 42.5607C334.748 42.5607 335.047 42.4859 335.309 42.299C335.645 42.1869 335.982 41.9252 336.355 41.5513Z" fill="#1F3D8C"/>
<path d="M339.869 42.5607H339.981C340.131 42.5607 340.28 42.4486 340.43 42.2243C340.617 41.8878 340.804 41.4766 340.953 40.9533C341.14 40.4299 341.29 39.7196 341.439 38.8224C341.439 38.7103 341.514 38.6355 341.663 38.6355H342.523C342.635 38.6355 342.71 38.7103 342.71 38.8224L343.159 42.5607H343.271C343.42 42.5607 343.533 42.4486 343.645 42.2617C343.906 41.8505 344.131 41.4019 344.318 40.9533C344.579 40.3178 344.766 39.5327 344.916 38.6355H345.738C345.514 39.6449 345.215 40.5421 344.916 41.2897C344.617 41.9626 344.355 42.4486 344.131 42.7477C344.019 42.8972 343.869 43.0093 343.757 43.0841C343.645 43.1589 343.495 43.1963 343.308 43.1963H342.785C342.635 43.1963 342.561 43.1215 342.523 42.972L342.112 39.1589H342C341.925 39.7944 341.776 40.4299 341.589 41.1402C341.402 41.7383 341.177 42.2243 340.953 42.5981C340.729 42.972 340.392 43.1963 339.944 43.1963H339.495C339.346 43.1963 339.271 43.1215 339.234 42.972L338.411 38.6355H339.234L339.869 42.5607Z" fill="#1F3D8C"/>
<path d="M350.149 43.1962H349.514L349.551 42.299C348.953 42.9719 348.28 43.3084 347.532 43.3084C346.972 43.3084 346.635 43.1215 346.448 42.7476C346.261 42.3738 346.224 41.7383 346.374 40.8785C346.448 40.3925 346.523 39.9813 346.673 39.6448C346.785 39.3458 346.972 39.0841 347.159 38.9345C347.345 38.785 347.57 38.6729 347.794 38.6355C348.018 38.5981 348.317 38.5607 348.654 38.5607C349.327 38.5607 350.037 38.6355 350.785 38.785L350.149 43.1962ZM349.588 41.5888L349.925 39.2336C349.476 39.2336 349.14 39.1962 348.916 39.1962C348.28 39.1962 347.869 39.3084 347.682 39.4953C347.495 39.6822 347.308 40.1682 347.196 40.9159C347.121 41.5888 347.084 42.0374 347.159 42.2617C347.233 42.486 347.42 42.5981 347.757 42.5981C348.28 42.5981 348.878 42.2617 349.588 41.5888Z" fill="#1F3D8C"/>
<path d="M355.084 38.5234L354.897 39.2711H354.673C354.411 39.2711 354.149 39.3458 353.888 39.4954C353.626 39.6449 353.252 39.9066 352.804 40.243L352.392 43.1589H351.607L352.243 38.6355H352.841L352.766 39.6823C353.551 38.8972 354.262 38.5234 354.86 38.5234H355.084Z" fill="#1F3D8C"/>
<path d="M358.972 42.5234L359.009 43.0468C358.598 43.1963 357.963 43.3084 357.14 43.3084C356.355 43.3084 355.832 43.1215 355.533 42.7103C355.234 42.2991 355.159 41.701 355.271 40.8038C355.383 39.9066 355.645 39.3084 355.981 39.0094C356.355 38.7103 356.916 38.5234 357.738 38.5234C358.411 38.5234 358.897 38.6355 359.159 38.8972C359.421 39.1589 359.495 39.4954 359.421 39.9813C359.346 40.3926 359.159 40.729 358.897 40.9159C358.636 41.1028 358.224 41.215 357.664 41.2524L355.981 41.4019C355.981 41.8879 356.056 42.1869 356.243 42.3739C356.43 42.5234 356.767 42.6355 357.178 42.6355C357.813 42.6355 358.374 42.5982 358.972 42.5234ZM356.131 40.8412L357.738 40.6916C358.038 40.6542 358.262 40.6169 358.411 40.5047C358.561 40.3926 358.636 40.2056 358.673 39.944C358.71 39.6449 358.673 39.4206 358.524 39.3458C358.374 39.2711 358.075 39.2337 357.664 39.2337C357.14 39.2337 356.804 39.3458 356.58 39.5327C356.355 39.7197 356.243 40.1683 356.131 40.8412Z" fill="#1F3D8C"/>
<path d="M362.561 41.4767L361.29 40.9159C360.953 40.7664 360.729 40.5795 360.58 40.3926C360.43 40.2056 360.393 39.944 360.43 39.6075C360.467 39.1963 360.654 38.8972 360.953 38.7477C361.252 38.5982 361.701 38.5234 362.337 38.5234C363.009 38.5234 363.645 38.5982 364.243 38.6729L364.131 39.2337C363.383 39.1963 362.785 39.1963 362.337 39.1963C361.888 39.1963 361.626 39.2337 361.439 39.2711C361.29 39.3084 361.215 39.458 361.178 39.6449C361.14 39.8318 361.178 39.944 361.252 40.0187C361.327 40.0935 361.477 40.2056 361.701 40.2804L362.972 40.8412C363.346 40.9907 363.608 41.1776 363.72 41.3645C363.869 41.5514 363.907 41.8131 363.869 42.1496C363.832 42.3365 363.795 42.5234 363.72 42.6355C363.645 42.7477 363.533 42.8972 363.421 42.972C363.309 43.0468 363.159 43.1215 362.972 43.1589C362.785 43.1963 362.598 43.2337 362.411 43.2337C362.224 43.2337 362 43.2337 361.701 43.2337C361.477 43.2337 361.29 43.2337 361.14 43.2337C360.991 43.2337 360.841 43.2337 360.766 43.1963C360.692 43.1963 360.542 43.1589 360.393 43.1589C360.206 43.1215 360.094 43.1215 359.981 43.1215L360.056 42.5608C360.43 42.5982 360.916 42.5982 361.514 42.5982C362.075 42.5982 362.486 42.5608 362.673 42.486C362.86 42.4112 363.009 42.2617 363.047 42.0748C363.047 41.9627 363.047 41.8879 363.009 41.8131C362.972 41.7384 362.935 41.701 362.86 41.6636C362.823 41.6262 362.71 41.5888 362.561 41.5141C362.636 41.4767 362.598 41.4767 362.561 41.4767Z" fill="#1F3D8C"/>
<path d="M368.28 38.6355L368.205 39.6449C368.504 39.3458 368.841 39.0841 369.214 38.8598C369.588 38.6355 369.925 38.5234 370.261 38.5234C370.822 38.5234 371.158 38.7103 371.345 39.0468C371.532 39.3832 371.532 40.0187 371.42 40.9533C371.345 41.4393 371.27 41.8505 371.121 42.1869C371.009 42.486 370.859 42.7477 370.635 42.8972C370.448 43.0468 370.224 43.1589 369.999 43.2337C369.775 43.2711 369.513 43.3084 369.177 43.3084C368.766 43.3084 368.28 43.2711 367.756 43.1963C367.756 43.4954 367.719 43.7944 367.682 44.0561L367.532 45.0655H366.747L367.682 38.6355H368.28ZM368.205 40.2804L367.869 42.6355C368.317 42.6355 368.654 42.6729 368.878 42.6729C369.513 42.6729 369.925 42.5608 370.112 42.3739C370.298 42.1869 370.485 41.701 370.56 40.9533C370.635 40.2804 370.672 39.7944 370.598 39.6075C370.523 39.3832 370.336 39.2711 370.037 39.2711C369.812 39.2711 369.513 39.3458 369.177 39.5327C368.878 39.6823 368.541 39.944 368.205 40.2804Z" fill="#1F3D8C"/>
<path d="M376.28 43.1962H375.645L375.682 42.299C375.084 42.9719 374.411 43.3084 373.663 43.3084C373.103 43.3084 372.766 43.1215 372.579 42.7476C372.392 42.3738 372.355 41.7383 372.504 40.8785C372.579 40.3925 372.654 39.9813 372.803 39.6448C372.916 39.3458 373.103 39.0841 373.289 38.9345C373.476 38.785 373.701 38.6729 373.925 38.6355C374.149 38.5981 374.448 38.5607 374.785 38.5607C375.458 38.5607 376.168 38.6355 376.916 38.785L376.28 43.1962ZM375.682 41.5888L376.018 39.2336C375.57 39.2336 375.233 39.1962 375.009 39.1962C374.374 39.1962 373.962 39.3084 373.775 39.4953C373.588 39.6822 373.402 40.1682 373.289 40.9159C373.215 41.5888 373.177 42.0374 373.252 42.2617C373.327 42.486 373.514 42.5981 373.85 42.5981C374.374 42.5981 375.009 42.2617 375.682 41.5888Z" fill="#1F3D8C"/>
<path d="M381.178 38.5234L380.991 39.2711H380.767C380.505 39.2711 380.243 39.3458 379.982 39.4954C379.72 39.6449 379.346 39.9066 378.897 40.243L378.486 43.1589H377.701L378.337 38.6355H378.935L378.86 39.6823C379.645 38.8972 380.355 38.5234 380.954 38.5234H381.178Z" fill="#1F3D8C"/>
<path d="M385.215 43.1962H384.579L384.617 42.299C384.018 42.9719 383.345 43.3084 382.598 43.3084C382.037 43.3084 381.701 43.1215 381.514 42.7476C381.327 42.3738 381.289 41.7383 381.439 40.8785C381.514 40.3925 381.588 39.9813 381.738 39.6448C381.85 39.3458 382.037 39.0841 382.224 38.9345C382.411 38.785 382.635 38.6729 382.86 38.6355C383.084 38.5981 383.383 38.5607 383.719 38.5607C384.392 38.5607 385.102 38.6355 385.85 38.785L385.215 43.1962ZM384.654 41.5888L384.99 39.2336C384.542 39.2336 384.205 39.1962 383.981 39.1962C383.345 39.1962 382.934 39.3084 382.747 39.4953C382.56 39.6822 382.374 40.1682 382.261 40.9159C382.187 41.5888 382.149 42.0374 382.224 42.2617C382.299 42.486 382.486 42.5981 382.822 42.5981C383.308 42.5981 383.944 42.2617 384.654 41.5888Z" fill="#1F3D8C"/>
<path d="M394.15 36.7664L391.308 42.972C391.271 43.1215 391.159 43.1963 391.009 43.1963H390.187C390.037 43.1963 389.925 43.1215 389.925 42.9346L388.804 36.7664H389.626L390.449 41.8879C390.486 42.1869 390.523 42.4112 390.523 42.5981H390.748C390.86 42.2991 390.935 42.0748 391.047 41.8505L393.29 36.7664H394.15Z" fill="#1F3D8C"/>
<path d="M397.701 43.1962H397.065L397.103 42.299C396.505 42.9719 395.832 43.3084 395.084 43.3084C394.523 43.3084 394.187 43.1215 394 42.7476C393.813 42.3738 393.776 41.7383 393.925 40.8785C394 40.3925 394.075 39.9813 394.224 39.6448C394.336 39.3458 394.523 39.0841 394.71 38.9345C394.897 38.785 395.122 38.6729 395.346 38.6355C395.57 38.5981 395.869 38.5607 396.206 38.5607C396.879 38.5607 397.589 38.6355 398.336 38.785L397.701 43.1962ZM397.14 41.5888L397.477 39.2336C397.028 39.2336 396.692 39.1962 396.467 39.1962C395.832 39.1962 395.421 39.3084 395.234 39.4953C395.047 39.6822 394.86 40.1682 394.748 40.9159C394.673 41.5888 394.636 42.0374 394.71 42.2617C394.785 42.486 394.972 42.5981 395.308 42.5981C395.832 42.5981 396.43 42.2617 397.14 41.5888Z" fill="#1F3D8C"/>
<path d="M402.635 38.5234L402.448 39.2711H402.224C401.962 39.2711 401.7 39.3458 401.439 39.4954C401.177 39.6449 400.803 39.9066 400.354 40.243L399.943 43.1589H399.158L399.794 38.6355H400.392L400.317 39.6823C401.102 38.8972 401.812 38.5234 402.411 38.5234H402.635Z" fill="#1F3D8C"/>
<path d="M406.487 42.5234L406.524 43.0468C406.113 43.1963 405.477 43.3084 404.655 43.3084C403.87 43.3084 403.347 43.1215 403.048 42.7103C402.748 42.2991 402.674 41.701 402.786 40.8038C402.898 39.9066 403.16 39.3084 403.496 39.0094C403.87 38.7103 404.431 38.5234 405.253 38.5234C405.926 38.5234 406.412 38.6355 406.674 38.8972C406.935 39.1589 407.01 39.4954 406.935 39.9813C406.861 40.3926 406.674 40.729 406.412 40.9159C406.15 41.1028 405.739 41.215 405.178 41.2524L403.496 41.4019C403.496 41.8879 403.571 42.1869 403.758 42.3739C403.945 42.5234 404.281 42.6355 404.692 42.6355C405.365 42.6355 405.926 42.5982 406.487 42.5234ZM403.683 40.8412L405.29 40.6916C405.59 40.6542 405.814 40.6169 405.963 40.5047C406.113 40.3926 406.188 40.2056 406.225 39.944C406.262 39.6449 406.225 39.4206 406.076 39.3458C405.926 39.2711 405.627 39.2337 405.216 39.2337C404.692 39.2337 404.356 39.3458 404.132 39.5327C403.907 39.7197 403.795 40.1683 403.683 40.8412Z" fill="#1F3D8C"/>
<path d="M409.214 38.6354L408.542 43.3083C408.504 43.6822 408.392 44.0186 408.168 44.3177C407.981 44.6167 407.719 44.8784 407.42 45.1027L407.009 44.7289C407.42 44.2803 407.682 43.7943 407.756 43.2709L408.392 38.6354H409.214ZM408.878 36.7289H409.252C409.327 36.7289 409.401 36.7663 409.439 36.8036C409.476 36.841 409.476 36.9158 409.476 36.9906L409.401 37.5139C409.364 37.6635 409.289 37.7382 409.14 37.7382H408.766C408.579 37.7382 408.504 37.6635 408.542 37.4765L408.616 36.9532C408.654 36.8036 408.728 36.7289 408.878 36.7289Z" fill="#1F3D8C"/>
<path d="M410.859 39.0841C411.233 38.7102 411.794 38.5607 412.542 38.5607C413.289 38.5607 413.85 38.7476 414.112 39.1215C414.411 39.4953 414.486 40.1308 414.373 40.9906C414.261 41.8504 414 42.4486 413.663 42.8224C413.289 43.1588 412.729 43.3458 411.981 43.3458C411.233 43.3458 410.672 43.1588 410.411 42.785C410.112 42.4112 410.037 41.8131 410.149 40.9159C410.261 40.056 410.486 39.4205 410.859 39.0841ZM412.579 39.1962C412.056 39.1962 411.682 39.3084 411.458 39.5701C411.233 39.7944 411.046 40.2803 410.972 40.9532C410.897 41.5888 410.897 42.0374 411.046 42.2617C411.196 42.4859 411.495 42.5981 411.981 42.5981C412.504 42.5981 412.878 42.4859 413.102 42.2243C413.327 41.9626 413.514 41.514 413.588 40.8411C413.663 40.2056 413.663 39.757 413.514 39.4953C413.364 39.3458 413.065 39.1962 412.579 39.1962Z" fill="#1F3D8C"/>
<path d="M253.813 41.1402C253.776 41.8878 253.177 42.4486 252.43 42.4486H246.149C245.402 42.4486 244.804 41.8505 244.766 41.1402L244.093 28.9533C244.056 28.3551 244.542 27.8318 245.14 27.8318H253.439C254.037 27.8318 254.523 28.3551 254.486 28.9533L253.813 41.1402ZM254.299 25.9252H244.318C242.972 25.9252 241.925 27.0467 242 28.3551L243.084 43.757C243.159 45.028 244.168 46 245.439 46H253.215C254.486 46 255.495 45.028 255.57 43.757L256.654 28.3551C256.691 27.0467 255.645 25.9252 254.299 25.9252Z" fill="#35B6B4"/>
<path d="M245.327 27.3832C245.177 27.3832 245.103 27.271 245.103 27.1589C245.14 26.0748 245.514 22 248.729 22H255.906C256.131 22 256.243 22.2991 256.018 22.4112C254.972 23.0467 253.364 24.4299 253.252 27.1215C253.252 27.2336 253.14 27.3458 253.028 27.3458H245.327V27.3832Z" fill="#35B6B4"/>
<path d="M248.429 37.7383L245.999 35.3084C245.663 34.9719 245.663 34.4112 245.999 34.0747C246.336 33.7383 246.897 33.7383 247.233 34.0747L248.429 35.271L251.457 32.2429C251.794 31.9065 252.355 31.9065 252.691 32.2429C253.027 32.5794 253.027 33.1401 252.691 33.4766L248.429 37.7383Z" fill="#35B6B4"/>
</g>
<defs>
<filter id="filter0_f" x="140.169" y="35.4265" width="404.839" height="702.4" filterUnits="userSpaceOnUse" color-interpolation-filters="sRGB">
<feFlood flood-opacity="0" result="BackgroundImageFix"/>
<feBlend mode="normal" in="SourceGraphic" in2="BackgroundImageFix" result="shape"/>
<feGaussianBlur stdDeviation="32" result="effect1_foregroundBlur"/>
</filter>
<filter id="filter1_f" x="99.2754" y="191.773" width="285.918" height="90.3952" filterUnits="userSpaceOnUse" color-interpolation-filters="sRGB">
<feFlood flood-opacity="0" result="BackgroundImageFix"/>
<feBlend mode="normal" in="SourceGraphic" in2="BackgroundImageFix" result="shape"/>
<feGaussianBlur stdDeviation="4" result="effect1_foregroundBlur"/>
</filter>
<filter id="filter2_f" x="118.959" y="477.894" width="301.918" height="106.395" filterUnits="userSpaceOnUse" color-interpolation-filters="sRGB">
<feFlood flood-opacity="0" result="BackgroundImageFix"/>
<feBlend mode="normal" in="SourceGraphic" in2="BackgroundImageFix" result="shape"/>
<feGaussianBlur stdDeviation="8" result="effect1_foregroundBlur"/>
</filter>
<filter id="filter3_f" x="270.142" y="291.692" width="317.918" height="170.839" filterUnits="userSpaceOnUse" color-interpolation-filters="sRGB">
<feFlood flood-opacity="0" result="BackgroundImageFix"/>
<feBlend mode="normal" in="SourceGraphic" in2="BackgroundImageFix" result="shape"/>
<feGaussianBlur stdDeviation="12" result="effect1_foregroundBlur"/>
</filter>
<filter id="filter4_d" x="210" y="0" width="268" height="89.7617" filterUnits="userSpaceOnUse" color-interpolation-filters="sRGB">
<feFlood flood-opacity="0" result="BackgroundImageFix"/>
<feColorMatrix in="SourceAlpha" type="matrix" values="0 0 0 0 0 0 0 0 0 0 0 0 0 0 0 0 0 0 127 0"/>
<feOffset dx="2" dy="6"/>
<feGaussianBlur stdDeviation="6"/>
<feColorMatrix type="matrix" values="0 0 0 0 0.286275 0 0 0 0 0.145098 0 0 0 0 0.380392 0 0 0 0.06 0"/>
<feBlend mode="normal" in2="BackgroundImageFix" result="effect1_dropShadow"/>
<feBlend mode="normal" in="SourceGraphic" in2="effect1_dropShadow" result="shape"/>
</filter>
<linearGradient id="paint0_linear" x1="-1320.18" y1="-928.265" x2="36.7251" y2="736.72" gradientUnits="userSpaceOnUse">
<stop stop-color="#506EB3"/>
<stop offset="0.956793" stop-color="white"/>
</linearGradient>
<linearGradient id="paint1_linear" x1="-1233.66" y1="-1052.83" x2="123.238" y2="612.151" gradientUnits="userSpaceOnUse">
<stop stop-color="#506EB3"/>
<stop offset="0.956793" stop-color="white"/>
</linearGradient>
<linearGradient id="paint2_linear" x1="472" y1="101" x2="168" y2="709.5" gradientUnits="userSpaceOnUse">
<stop stop-color="#179992"/>
<stop offset="1" stop-color="#1A8492"/>
</linearGradient>
<linearGradient id="paint3_linear" x1="437.001" y1="699.5" x2="317.47" y2="-34.7622" gradientUnits="userSpaceOnUse">
<stop stop-color="#179992"/>
<stop offset="1" stop-color="#9DD4D5"/>
</linearGradient>
<linearGradient id="paint4_linear" x1="-45" y1="219.5" x2="-50.7473" y2="186.303" gradientUnits="userSpaceOnUse">
<stop stop-color="#179992"/>
<stop offset="1" stop-color="#1A8492"/>
</linearGradient>
<linearGradient id="paint5_linear" x1="284.999" y1="180.5" x2="372.815" y2="50.839" gradientUnits="userSpaceOnUse">
<stop stop-color="#179992"/>
<stop offset="1" stop-color="#1A8492"/>
</linearGradient>
<linearGradient id="paint6_linear" x1="357.167" y1="620.193" x2="347.731" y2="659.264" gradientUnits="userSpaceOnUse">
<stop stop-color="#179992"/>
<stop offset="1" stop-color="#1A8492"/>
</linearGradient>
<linearGradient id="paint7_linear" x1="434" y1="367" x2="213" y2="335" gradientUnits="userSpaceOnUse">
<stop stop-color="#506EB3"/>
<stop offset="1" stop-color="#506EB3" stop-opacity="0"/>
</linearGradient>
<linearGradient id="paint8_linear" x1="229.258" y1="451.506" x2="147.175" y2="481.687" gradientUnits="userSpaceOnUse">
<stop stop-color="#F8B44C"/>
<stop offset="1" stop-color="#F07E26"/>
</linearGradient>
<clipPath id="clip0">
<rect width="172.449" height="24" fill="white" transform="translate(242 22)"/>
</clipPath>
</defs>
</svg>
