<svg width="635" height="748" viewBox="0 0 635 748" fill="none" xmlns="http://www.w3.org/2000/svg">
<path d="M109.098 696.567L2.4731 355.234C-8.27503 320.852 17.3588 285.899 53.2652 285.899H388.597C411.853 285.899 432.446 301.063 439.389 323.332L546.015 664.665C556.763 699.047 531.129 734 495.223 734H159.89C136.635 733.952 116.089 718.836 109.098 696.567Z" fill="url(#paint0_linear)" fill-opacity="0.21"/>
<path d="M195.61 571.998L88.9848 230.665C78.2367 196.284 103.871 161.33 139.777 161.33H475.109C498.365 161.33 518.958 176.494 525.901 198.763L632.526 540.096C643.274 574.478 617.641 609.431 581.734 609.431H246.402C223.146 609.384 202.601 594.267 195.61 571.998Z" fill="url(#paint1_linear)"/>
<g filter="url(#filter0_f)">
<path d="M204.168 652.687C204.168 669.925 218.066 683.826 235.298 683.826H449.877C467.11 683.826 481.007 669.925 481.007 652.687V140.565C481.007 123.328 467.11 109.426 449.877 109.426H235.298C218.066 109.426 204.168 123.328 204.168 140.565V652.687Z" fill="#C3CBE5" fill-opacity="0.55"/>
</g>
<path d="M204 652.625C204 669.81 217.898 683.67 235.131 683.67H449.709C466.942 683.67 480.839 669.81 480.839 652.625V142.045C480.839 124.859 466.942 111 449.709 111H235.131C217.898 111 204 124.859 204 142.045V652.625Z" fill="#DC272B"/>
<path d="M481.007 161.33H204.168V609.431H481.007V161.33Z" fill="url(#paint2_linear)"/>
<path d="M372.052 134.272C372.052 136.348 370.898 137.733 369.168 137.733H291.884C290.153 137.733 289 136.348 289 134.272C289 132.196 290.153 130.812 291.884 130.812H369.168C370.898 130.812 372.052 132.196 372.052 134.272Z" fill="#EA6565"/>
<path d="M396.227 134.19C396.227 137.074 393.92 139.381 391.036 139.381C388.153 139.381 385.846 137.074 385.846 134.19C385.846 131.307 388.153 129 391.036 129C393.92 129 396.227 131.307 396.227 134.19Z" fill="#EA6565"/>
<path d="M343.38 630.193C347.075 630.193 351.298 631.861 353.937 634.642C356.576 637.422 358.16 641.315 358.16 645.764C358.16 649.657 356.576 654.106 353.937 656.886C351.298 659.667 347.603 661.335 343.38 661.335H341.796C333.878 661.335 327.016 654.106 327.016 645.764C327.016 637.422 333.878 630.193 341.796 630.193H343.38Z" fill="#EA6565"/>
<g opacity="0.1" filter="url(#filter1_f)">
<path d="M377.194 269.29C377.194 277.556 370.515 284.169 362.167 284.169L107.275 283.618C107.275 280.862 107.275 224.652 107.275 224.652C107.275 216.386 113.954 209.773 122.302 209.773H362.167C370.515 209.773 377.194 216.386 377.194 224.652V269.29Z" fill="#C3CBE5"/>
</g>
<path d="M397.957 248.528C397.957 256.795 391.279 263.407 382.931 263.407L128.039 262.856C128.039 260.101 128.039 203.891 128.039 203.891C128.039 195.625 134.717 189.012 143.065 189.012H382.931C391.279 189.012 397.957 195.625 397.957 203.891V248.528Z" fill="white"/>
<path d="M333.249 216.694H370.96C372.624 216.694 373.733 215.656 373.733 214.099C373.733 212.541 372.624 211.503 370.96 211.503H333.249C331.586 211.503 330.477 212.541 330.477 214.099C330.477 215.656 332.14 216.694 333.249 216.694Z" fill="#FFCAA0"/>
<path d="M236.332 216.694H313.884C315.534 216.694 316.634 215.656 316.634 214.099C316.634 212.541 315.534 211.503 313.884 211.503H236.332C234.682 211.503 233.582 212.541 233.582 214.099C233.582 215.656 234.682 216.694 236.332 216.694Z" fill="#FFCAA0"/>
<path d="M153.297 216.694H215.245C216.905 216.694 218.011 215.656 218.011 214.099C218.011 212.541 216.905 211.503 215.245 211.503H153.297C151.637 211.503 150.531 212.541 150.531 214.099C150.531 215.656 151.637 216.694 153.297 216.694Z" fill="#FFCAA0"/>
<path d="M315.96 240.915H343.262C344.934 240.915 346.048 239.877 346.048 238.32C346.048 236.763 344.934 235.725 343.262 235.725H315.96C314.288 235.725 313.174 236.763 313.174 238.32C313.174 239.877 314.288 240.915 315.96 240.915Z" fill="#FFCAA0"/>
<path d="M194.837 240.915H298.281C299.95 240.915 301.062 239.877 301.062 238.32C301.062 236.763 299.95 235.725 298.281 235.725H194.837C193.169 235.725 192.057 236.763 192.057 238.32C192.057 239.877 193.725 240.915 194.837 240.915Z" fill="#FFCAA0"/>
<path d="M153.365 240.915H180.572C182.272 240.915 183.406 239.877 183.406 238.32C183.406 236.763 182.272 235.725 180.572 235.725H153.365C151.665 235.725 150.531 236.763 150.531 238.32C150.531 239.877 151.665 240.915 153.365 240.915Z" fill="#FFCAA0"/>
<g opacity="0.1" filter="url(#filter2_f)">
<path d="M404.877 563.41C404.877 571.676 398.199 578.289 389.851 578.289L134.959 577.738C134.959 574.983 134.959 518.773 134.959 518.773C134.959 510.507 141.637 503.894 149.985 503.894H389.851C398.199 503.894 404.877 510.507 404.877 518.773V563.41Z" fill="#C6ACD1"/>
</g>
<path d="M425.641 542.648C425.641 550.915 418.962 557.527 410.615 557.527L155.723 556.976C155.723 554.221 155.723 498.011 155.723 498.011C155.723 489.745 162.401 483.132 170.749 483.132H410.615C418.962 483.132 425.641 489.745 425.641 498.011V542.648Z" fill="white"/>
<g opacity="0.1" filter="url(#filter3_f)">
<path d="M294.143 433.523C294.143 441.86 300.821 448.53 309.169 448.53L564.061 447.974C564.061 445.195 564.061 340.699 564.061 340.699C564.061 332.361 557.382 325.691 549.034 325.691H309.169C300.821 325.691 294.143 332.361 294.143 340.699V433.523Z" fill="#C3CBE6"/>
</g>
<path d="M273.379 412.761C273.379 421.099 280.057 427.769 288.405 427.769L543.297 427.213C543.297 424.434 543.297 319.938 543.297 319.938C543.297 311.6 536.619 304.93 528.271 304.93H288.405C280.057 304.93 273.379 311.6 273.379 319.938V412.761Z" fill="url(#paint3_linear)"/>
<path d="M334.661 327.422H296.88C295.238 327.422 294.143 328.46 294.143 330.017C294.143 331.574 295.238 332.612 296.88 332.612H334.661C336.304 332.612 337.399 331.574 337.399 330.017C337.399 328.46 336.304 327.422 334.661 327.422Z" fill="white"/>
<path d="M435 327.422H355.724C354.072 327.422 352.971 328.46 352.971 330.017C352.971 331.574 354.072 332.612 355.724 332.612H435C436.652 332.612 437.753 331.574 437.753 330.017C437.753 328.46 436.652 327.422 435 327.422Z" fill="white"/>
<path d="M519.744 327.422H456.116C454.441 327.422 453.325 328.46 453.325 330.017C453.325 331.574 454.441 332.612 456.116 332.612H519.744C521.419 332.612 522.535 331.574 522.535 330.017C522.535 328.46 520.861 327.422 519.744 327.422Z" fill="white"/>
<path d="M362.29 351.644H296.935C295.26 351.644 294.143 352.682 294.143 354.239C294.143 355.796 295.26 356.834 296.935 356.834H362.29C363.965 356.834 365.083 355.796 365.083 354.239C365.083 352.682 363.965 351.644 362.29 351.644Z" fill="white"/>
<path d="M473.068 351.644H383.405C381.755 351.644 380.655 352.682 380.655 354.239C380.655 355.796 381.755 356.834 383.405 356.834H473.068C474.718 356.834 475.818 355.796 475.818 354.239C475.818 352.682 474.718 351.644 473.068 351.644Z" fill="white"/>
<path d="M519.749 351.644H492.446C490.775 351.644 489.66 352.682 489.66 354.239C489.66 355.796 490.775 356.834 492.446 356.834H519.749C521.421 356.834 522.535 355.796 522.535 354.239C522.535 352.682 521.421 351.644 519.749 351.644Z" fill="white"/>
<path d="M334.661 375.865H296.88C295.238 375.865 294.143 376.903 294.143 378.46C294.143 380.018 295.238 381.056 296.88 381.056H334.661C336.304 381.056 337.399 380.018 337.399 378.46C337.399 376.903 336.304 375.865 334.661 375.865Z" fill="white"/>
<path d="M435 375.865H355.724C354.072 375.865 352.971 376.903 352.971 378.46C352.971 380.018 354.072 381.056 355.724 381.056H435C436.652 381.056 437.753 380.018 437.753 378.46C437.753 376.903 436.652 375.865 435 375.865Z" fill="white"/>
<path d="M519.744 375.865H456.116C454.441 375.865 453.325 376.903 453.325 378.46C453.325 380.018 454.441 381.056 456.116 381.056H519.744C521.419 381.056 522.535 380.018 522.535 378.46C522.535 376.903 520.861 375.865 519.744 375.865Z" fill="white"/>
<path d="M362.29 400.087H296.935C295.26 400.087 294.143 401.125 294.143 402.682C294.143 404.239 295.26 405.277 296.935 405.277H362.29C363.965 405.277 365.083 404.239 365.083 402.682C365.083 401.125 363.965 400.087 362.29 400.087Z" fill="white"/>
<path d="M473.068 400.087H383.405C381.755 400.087 380.655 401.125 380.655 402.682C380.655 404.239 381.755 405.277 383.405 405.277H473.068C474.718 405.277 475.818 404.239 475.818 402.682C475.818 401.125 474.718 400.087 473.068 400.087Z" fill="white"/>
<path d="M519.749 400.087H492.446C490.775 400.087 489.66 401.125 489.66 402.682C489.66 404.239 490.775 405.277 492.446 405.277H519.749C521.421 405.277 522.535 404.239 522.535 402.682C522.535 401.125 521.421 400.087 519.749 400.087Z" fill="white"/>
<path d="M340.151 510.814H395.204C396.856 510.814 397.957 509.776 397.957 508.219C397.957 506.662 396.856 505.624 395.204 505.624H340.151C338.5 505.624 337.398 506.662 337.398 508.219C337.398 509.776 338.5 510.814 340.151 510.814Z" fill="#FFCAA0"/>
<path d="M236.31 510.814H320.83C322.466 510.814 323.557 509.776 323.557 508.219C323.557 506.662 322.466 505.624 320.83 505.624H236.31C234.675 505.624 233.584 506.662 233.584 508.219C233.584 509.776 235.22 510.814 236.31 510.814Z" fill="#FFCAA0"/>
<path d="M277.88 535.036H343.278C344.941 535.036 346.049 533.998 346.049 532.441C346.049 530.884 344.941 529.846 343.278 529.846H277.88C276.218 529.846 275.109 530.884 275.109 532.441C275.109 533.998 276.218 535.036 277.88 535.036Z" fill="#FFCAA0"/>
<path d="M236.269 535.036H262.044C263.654 535.036 264.728 533.998 264.728 532.441C264.728 530.884 263.654 529.846 262.044 529.846H236.269C234.658 529.846 233.584 530.884 233.584 532.441C233.584 533.998 234.658 535.036 236.269 535.036Z" fill="#FFCAA0"/>
<path d="M199.747 503.894L183.406 523.617H198.113L196.479 536.766L212.82 517.043H198.113L199.747 503.894Z" stroke="url(#paint4_linear)" stroke-width="2" stroke-linecap="round" stroke-linejoin="round"/>
<g filter="url(#filter4_d)">
<mask id="path-27-inside-1" fill="white">
<path fill-rule="evenodd" clip-rule="evenodd" d="M248 6C245.791 6 244 7.79086 244 10V57C244 59.2091 245.791 61 248 61H333.768C334.49 61 335.157 61.3897 335.511 62.0194L340.98 71.7422C341.745 73.1014 343.702 73.1014 344.467 71.7422L349.936 62.0194C350.29 61.3897 350.957 61 351.679 61H437C439.209 61 441 59.2091 441 57V10C441 7.79086 439.209 6 437 6H248Z"/>
</mask>
<path fill-rule="evenodd" clip-rule="evenodd" d="M248 6C245.791 6 244 7.79086 244 10V57C244 59.2091 245.791 61 248 61H333.768C334.49 61 335.157 61.3897 335.511 62.0194L340.98 71.7422C341.745 73.1014 343.702 73.1014 344.467 71.7422L349.936 62.0194C350.29 61.3897 350.957 61 351.679 61H437C439.209 61 441 59.2091 441 57V10C441 7.79086 439.209 6 437 6H248Z" fill="white"/>
<path d="M349.936 62.0194L349.064 61.5291L349.936 62.0194ZM340.98 71.7422L340.109 72.2325L340.98 71.7422ZM344.467 71.7422L345.338 72.2325L344.467 71.7422ZM335.511 62.0194L334.639 62.5097L335.511 62.0194ZM245 10C245 8.34315 246.343 7 248 7V5C245.239 5 243 7.23858 243 10H245ZM245 57V10H243V57H245ZM248 60C246.343 60 245 58.6569 245 57H243C243 59.7614 245.239 62 248 62V60ZM333.768 60H248V62H333.768V60ZM341.852 71.2519L336.382 61.5291L334.639 62.5097L340.109 72.2325L341.852 71.2519ZM349.064 61.5291L343.595 71.2519L345.338 72.2325L350.808 62.5097L349.064 61.5291ZM437 60H351.679V62H437V60ZM440 57C440 58.6569 438.657 60 437 60V62C439.761 62 442 59.7614 442 57H440ZM440 10V57H442V10H440ZM437 7C438.657 7 440 8.34315 440 10H442C442 7.23858 439.761 5 437 5V7ZM248 7H437V5H248V7ZM350.808 62.5097C350.985 62.1949 351.318 62 351.679 62V60C350.595 60 349.596 60.5845 349.064 61.5291L350.808 62.5097ZM340.109 72.2325C341.256 74.2713 344.191 74.2713 345.338 72.2325L343.595 71.2519C343.213 71.9315 342.234 71.9315 341.852 71.2519L340.109 72.2325ZM333.768 62C334.129 62 334.462 62.1949 334.639 62.5097L336.382 61.5291C335.851 60.5845 334.851 60 333.768 60V62Z" fill="#FCFCFC" mask="url(#path-27-inside-1)"/>
</g>
<path d="M310.294 28.737L308.893 28.1779C308.358 27.9598 307.998 27.6785 307.813 27.3338C307.627 26.9892 307.567 26.5567 307.631 26.0362C307.738 25.2625 308.009 24.7455 308.444 24.4853C308.886 24.218 309.57 24.0844 310.497 24.0844C311.417 24.0844 312.219 24.1829 312.903 24.3798L312.743 25.4665C312.101 25.4454 311.338 25.4348 310.454 25.4348C310.019 25.4278 309.723 25.463 309.567 25.5403C309.41 25.6107 309.306 25.8076 309.257 26.1311C309.221 26.3703 309.239 26.5391 309.31 26.6375C309.388 26.729 309.567 26.8274 309.845 26.9329L311.171 27.4393C311.734 27.6574 312.105 27.9317 312.283 28.2623C312.461 28.5858 312.515 29.0324 312.443 29.6021C312.336 30.4039 312.073 30.9455 311.652 31.2268C311.239 31.5012 310.533 31.6383 309.535 31.6383C308.708 31.6383 307.863 31.5434 307 31.3535L307.171 30.2035C308.683 30.2387 309.449 30.2562 309.47 30.2562C309.969 30.2562 310.308 30.2105 310.486 30.1191C310.665 30.0206 310.779 29.8166 310.829 29.5072C310.857 29.268 310.836 29.1028 310.764 29.0113C310.693 28.9199 310.536 28.8284 310.294 28.737Z" fill="#1F3D8C"/>
<path d="M314.59 24H315.253C315.588 24 315.738 24.1618 315.702 24.4853L315.628 25.055C315.585 25.3364 315.414 25.477 315.114 25.477H314.44C314.113 25.477 313.97 25.3153 314.013 24.9917L314.088 24.4326C314.116 24.1442 314.284 24 314.59 24ZM314.676 31.5012H313.104L313.842 26.2999H315.414L314.676 31.5012Z" fill="#1F3D8C"/>
<path d="M318.504 29.6338L317.232 29.1168C316.804 28.948 316.505 28.7335 316.333 28.4733C316.162 28.213 316.102 27.886 316.152 27.4921C316.209 27.0138 316.419 26.6692 316.783 26.4582C317.153 26.2472 317.731 26.1452 318.515 26.1522C319.485 26.1663 320.297 26.2366 320.953 26.3632L320.804 27.3549C319.435 27.3338 318.74 27.3233 318.718 27.3233C318.305 27.3233 318.03 27.3409 317.895 27.376C317.759 27.4042 317.681 27.478 317.66 27.5976C317.645 27.7172 317.677 27.8086 317.756 27.8719C317.841 27.9282 318.002 28.002 318.237 28.0935L319.531 28.5999C319.966 28.7687 320.273 28.9726 320.451 29.2118C320.629 29.4509 320.693 29.7709 320.643 30.1718C320.6 30.4813 320.515 30.7345 320.387 30.9314C320.265 31.1284 320.087 31.2761 319.852 31.3746C319.617 31.473 319.363 31.5363 319.093 31.5645C318.822 31.5996 318.476 31.6172 318.055 31.6172C317.414 31.6172 316.64 31.5539 315.735 31.4273L315.884 30.425C316.141 30.4391 316.701 30.4461 317.563 30.4461C318.176 30.4461 318.583 30.425 318.782 30.3828C318.982 30.3406 319.096 30.2492 319.125 30.1085C319.139 30.003 319.11 29.9257 319.039 29.8764C318.975 29.8272 318.843 29.7639 318.643 29.6865C318.586 29.6654 318.54 29.6478 318.504 29.6338Z" fill="#1F3D8C"/>
<path d="M323.927 27.3444L323.574 29.8342C323.545 30.0312 323.56 30.1648 323.617 30.2351C323.681 30.2984 323.82 30.3301 324.034 30.3301H324.739L324.814 31.4273C324.436 31.5609 323.945 31.6278 323.339 31.6278C322.839 31.6278 322.469 31.4941 322.226 31.2268C321.984 30.9525 321.898 30.5763 321.97 30.098L322.376 27.3444H321.424L321.553 26.3527L322.526 26.2999L322.74 24.844H324.29L324.087 26.2999H325.542L325.392 27.3444H323.927Z" fill="#1F3D8C"/>
<path d="M330.352 30.2668L330.459 31.2585C329.867 31.5047 329.093 31.6278 328.138 31.6278C327.133 31.6278 326.441 31.3957 326.063 30.9314C325.685 30.4672 325.553 29.7533 325.667 28.7898C325.796 27.777 326.088 27.0842 326.544 26.7114C327.001 26.3386 327.728 26.1522 328.726 26.1522C329.653 26.1522 330.28 26.3034 330.608 26.6059C330.943 26.9083 331.068 27.3549 330.983 27.9458C330.911 28.4381 330.708 28.7898 330.373 29.0008C330.038 29.2118 329.521 29.3419 328.822 29.3911L327.261 29.5072C327.268 29.8518 327.354 30.0839 327.518 30.2035C327.689 30.3231 327.956 30.3828 328.32 30.3828C329.011 30.3828 329.689 30.3442 330.352 30.2668ZM327.357 28.5893L328.587 28.4733C328.872 28.4522 329.079 28.3959 329.207 28.3045C329.343 28.213 329.425 28.0442 329.453 27.7981C329.475 27.5659 329.428 27.4218 329.314 27.3655C329.207 27.3092 328.976 27.2846 328.619 27.2916C328.206 27.2916 327.913 27.3796 327.742 27.5554C327.578 27.7242 327.45 28.0688 327.357 28.5893Z" fill="#1F3D8C"/>
<path d="M333.295 26.2999V27.2389C333.68 26.8591 334.036 26.5848 334.364 26.416C334.699 26.2401 335.048 26.1522 335.412 26.1522C335.797 26.1522 336.1 26.2366 336.321 26.4054C336.542 26.5742 336.67 26.8134 336.706 27.1228C337.369 26.4758 338.032 26.1522 338.695 26.1522C339.18 26.1522 339.533 26.2859 339.754 26.5531C339.982 26.8134 340.064 27.1721 340 27.6292L339.454 31.5012H337.882L338.374 28.0513C338.403 27.8332 338.385 27.682 338.321 27.5976C338.257 27.5132 338.146 27.471 337.989 27.471C337.811 27.471 337.622 27.5273 337.423 27.6398C337.223 27.7523 336.952 27.9598 336.61 28.2623L336.15 31.5012H334.631L335.113 28.0513C335.148 27.8403 335.137 27.6926 335.08 27.6081C335.023 27.5167 334.909 27.471 334.738 27.471C334.553 27.471 334.357 27.5273 334.15 27.6398C333.95 27.7453 333.687 27.9387 333.359 28.2201L332.899 31.5012H331.327L332.065 26.2999H333.295Z" fill="#1F3D8C"/>
<path d="M345.567 31.5012H344.337L344.348 30.5622C343.806 31.2515 343.086 31.6067 342.188 31.6278C341.525 31.6489 341.076 31.4379 340.84 30.9947C340.612 30.5446 340.573 29.8131 340.723 28.8003C340.794 28.322 340.894 27.9211 341.022 27.5976C341.15 27.267 341.293 27.0068 341.45 26.8169C341.607 26.627 341.81 26.4828 342.059 26.3843C342.309 26.2859 342.548 26.2226 342.776 26.1944C343.011 26.1663 343.307 26.1522 343.664 26.1522C344.042 26.1522 344.494 26.1839 345.022 26.2472C345.549 26.3105 345.97 26.3843 346.284 26.4687L345.567 31.5012ZM344.594 27.3022H343.781C343.268 27.3022 342.919 27.3901 342.733 27.5659C342.548 27.7418 342.409 28.1603 342.316 28.8214C342.223 29.4896 342.202 29.9186 342.252 30.1085C342.302 30.2914 342.455 30.3758 342.712 30.3617C343.182 30.3547 343.71 30.0276 344.295 29.3806L344.594 27.3022Z" fill="#1F3D8C"/>
<path d="M349.337 29.6338L348.064 29.1168C347.636 28.948 347.337 28.7335 347.166 28.4733C346.994 28.213 346.934 27.886 346.984 27.4921C347.041 27.0138 347.251 26.6692 347.615 26.4582C347.985 26.2472 348.563 26.1452 349.347 26.1522C350.317 26.1663 351.13 26.2366 351.786 26.3632L351.636 27.3549C350.267 27.3338 349.572 27.3233 349.55 27.3233C349.137 27.3233 348.862 27.3409 348.727 27.376C348.592 27.4042 348.513 27.478 348.492 27.5976C348.477 27.7172 348.51 27.8086 348.588 27.8719C348.674 27.9282 348.834 28.002 349.069 28.0935L350.363 28.5999C350.798 28.7687 351.105 28.9726 351.283 29.2118C351.461 29.4509 351.525 29.7709 351.475 30.1718C351.433 30.4813 351.347 30.7345 351.219 30.9314C351.098 31.1284 350.919 31.2761 350.684 31.3746C350.449 31.473 350.196 31.5363 349.925 31.5645C349.654 31.5996 349.308 31.6172 348.887 31.6172C348.246 31.6172 347.472 31.5539 346.567 31.4273L346.716 30.425C346.973 30.4391 347.533 30.4461 348.395 30.4461C349.009 30.4461 349.415 30.425 349.615 30.3828C349.814 30.3406 349.928 30.2492 349.957 30.1085C349.971 30.003 349.943 29.9257 349.871 29.8764C349.807 29.8272 349.675 29.7639 349.476 29.6865C349.419 29.6654 349.372 29.6478 349.337 29.6338Z" fill="#1F3D8C"/>
<path d="M364.668 24.2216L362.508 31.0897C362.422 31.364 362.223 31.5012 361.909 31.5012H360.369C360.226 31.5012 360.102 31.4554 359.995 31.364C359.888 31.2655 359.831 31.1495 359.823 31.0158L359.684 26.3105V25.3821H359.481C359.389 25.7689 359.307 26.0819 359.235 26.321L357.77 31.0791C357.685 31.3605 357.481 31.5012 357.161 31.5012H355.61C355.467 31.5012 355.339 31.4554 355.225 31.364C355.118 31.2726 355.064 31.16 355.064 31.0264L354.84 24.2216H356.465V29.3067C356.465 29.4263 356.458 29.6162 356.444 29.8764C356.437 30.1296 356.433 30.2914 356.433 30.3617H356.647C356.683 30.214 356.786 29.8413 356.957 29.2434L358.38 24.6858C358.472 24.3763 358.679 24.2216 359 24.2216H360.38C360.529 24.2216 360.651 24.2743 360.743 24.3798C360.843 24.4783 360.893 24.6014 360.893 24.7491L361.096 29.3173C361.11 29.7744 361.114 30.1226 361.107 30.3617H361.331C361.438 29.8835 361.527 29.5177 361.599 29.2645L363.01 24.2216H364.668Z" fill="#1F3D8C"/>
<path d="M369.071 30.2668L369.178 31.2585C368.586 31.5047 367.813 31.6278 366.858 31.6278C365.852 31.6278 365.161 31.3957 364.783 30.9314C364.405 30.4672 364.273 29.7533 364.387 28.7898C364.516 27.777 364.808 27.0842 365.264 26.7114C365.72 26.3386 366.448 26.1522 367.446 26.1522C368.373 26.1522 369 26.3034 369.328 26.6059C369.663 26.9083 369.788 27.3549 369.702 27.9458C369.631 28.4381 369.428 28.7898 369.093 29.0008C368.758 29.2118 368.241 29.3419 367.542 29.3911L365.981 29.5072C365.988 29.8518 366.073 30.0839 366.237 30.2035C366.408 30.3231 366.676 30.3828 367.039 30.3828C367.731 30.3828 368.408 30.3442 369.071 30.2668ZM366.077 28.5893L367.307 28.4733C367.592 28.4522 367.799 28.3959 367.927 28.3045C368.062 28.213 368.144 28.0442 368.173 27.7981C368.194 27.5659 368.148 27.4218 368.034 27.3655C367.927 27.3092 367.695 27.2846 367.339 27.2916C366.925 27.2916 366.633 27.3796 366.462 27.5554C366.298 27.7242 366.17 28.0688 366.077 28.5893Z" fill="#1F3D8C"/>
<path d="M372.656 24.1161L372.421 25.9201C372.364 26.3703 372.264 26.7817 372.121 27.1545C372.82 26.4934 373.515 26.1628 374.207 26.1628C374.848 26.1628 375.287 26.3738 375.522 26.7958C375.757 27.2178 375.8 27.9352 375.65 28.948C375.515 29.9327 375.237 30.629 374.816 31.0369C374.395 31.4379 373.757 31.6383 372.902 31.6383C372.474 31.6383 371.975 31.5996 371.405 31.5223C370.841 31.4449 370.396 31.3464 370.068 31.2268L371.084 24.1161H372.656ZM372.089 28.199L371.768 30.4672C372.225 30.4813 372.499 30.4883 372.592 30.4883C373.112 30.4813 373.462 30.3793 373.64 30.1824C373.818 29.9854 373.957 29.5388 374.057 28.8425C374.135 28.2376 374.146 27.8508 374.089 27.682C374.039 27.5132 373.889 27.4288 373.64 27.4288C373.226 27.4288 372.709 27.6855 372.089 28.199Z" fill="#1F3D8C"/>
<path d="M380.354 26.2999L380.333 27.3022C380.646 26.9857 380.999 26.7184 381.391 26.5004C381.783 26.2823 382.168 26.1733 382.546 26.1733C383.167 26.1733 383.594 26.3878 383.83 26.8169C384.065 27.2459 384.111 27.9739 383.969 29.0008C383.904 29.4509 383.815 29.8377 383.701 30.1613C383.594 30.4778 383.47 30.731 383.327 30.9209C383.184 31.1108 383.01 31.262 382.803 31.3746C382.603 31.4801 382.4 31.5504 382.193 31.5856C381.994 31.6207 381.755 31.6383 381.477 31.6383C380.956 31.6383 380.432 31.5926 379.905 31.5012C379.905 31.8317 379.88 32.1588 379.83 32.4823L379.659 33.5057H378.076L379.103 26.2999H380.354ZM380.097 30.5516H380.91C381.452 30.5516 381.805 30.4637 381.969 30.2879C382.14 30.105 382.272 29.6689 382.364 28.9797C382.45 28.3185 382.464 27.8965 382.407 27.7137C382.357 27.5237 382.211 27.4288 381.969 27.4288C381.783 27.4288 381.548 27.5062 381.263 27.6609C380.978 27.8156 380.693 28.0231 380.407 28.2834L380.097 30.5516Z" fill="#1F3D8C"/>
<path d="M389.577 31.5012H388.347L388.357 30.5622C387.816 31.2515 387.096 31.6067 386.197 31.6278C385.534 31.6489 385.085 31.4379 384.85 30.9947C384.622 30.5446 384.582 29.8131 384.732 28.8003C384.803 28.322 384.903 27.9211 385.032 27.5976C385.16 27.267 385.302 27.0068 385.459 26.8169C385.616 26.627 385.819 26.4828 386.069 26.3843C386.318 26.2859 386.557 26.2226 386.785 26.1944C387.021 26.1663 387.317 26.1522 387.673 26.1522C388.051 26.1522 388.504 26.1839 389.031 26.2472C389.559 26.3105 389.979 26.3843 390.293 26.4687L389.577 31.5012ZM388.603 27.3022H387.791C387.277 27.3022 386.928 27.3901 386.743 27.5659C386.557 27.7418 386.418 28.1603 386.326 28.8214C386.233 29.4896 386.211 29.9186 386.261 30.1085C386.311 30.2914 386.465 30.3758 386.721 30.3617C387.192 30.3547 387.719 30.0276 388.304 29.3806L388.603 27.3022Z" fill="#1F3D8C"/>
<path d="M395.217 26.1522L394.865 27.5976H394.48C394.258 27.5976 394.023 27.6468 393.774 27.7453C393.531 27.8367 393.178 28.002 392.715 28.2412L392.266 31.5012H390.683L391.421 26.2999H392.651V27.2811C393.456 26.5285 394.205 26.1522 394.897 26.1522H395.217Z" fill="#1F3D8C"/>
<path d="M400.025 31.5012H398.796L398.806 30.5622C398.264 31.2515 397.544 31.6067 396.646 31.6278C395.983 31.6489 395.534 31.4379 395.299 30.9947C395.07 30.5446 395.031 29.8131 395.181 28.8003C395.252 28.322 395.352 27.9211 395.48 27.5976C395.609 27.267 395.751 27.0068 395.908 26.8169C396.065 26.627 396.268 26.4828 396.518 26.3843C396.767 26.2859 397.006 26.2226 397.234 26.1944C397.469 26.1663 397.765 26.1522 398.122 26.1522C398.5 26.1522 398.952 26.1839 399.48 26.2472C400.008 26.3105 400.428 26.3843 400.742 26.4687L400.025 31.5012ZM399.052 27.3022H398.239C397.726 27.3022 397.377 27.3901 397.191 27.5659C397.006 27.7418 396.867 28.1603 396.774 28.8214C396.682 29.4896 396.66 29.9186 396.71 30.1085C396.76 30.2914 396.913 30.3758 397.17 30.3617C397.641 30.3547 398.168 30.0276 398.753 29.3806L399.052 27.3022Z" fill="#1F3D8C"/>
<path d="M311.759 38.6533H313.32L312.721 42.8628H311.534L311.492 41.9661C310.85 42.6554 310.108 43 309.267 43C308.511 43 307.973 42.694 307.652 42.0821C307.339 41.4702 307.264 40.4961 307.428 39.1597C307.528 38.4001 307.674 37.7742 307.866 37.2818C308.066 36.7895 308.326 36.4097 308.647 36.1424C308.975 35.8751 309.335 35.6923 309.727 35.5938C310.119 35.4953 310.608 35.4461 311.192 35.4461C312.076 35.4461 312.828 35.534 313.449 35.7098L313.245 36.8809C312.44 36.8457 311.763 36.8282 311.214 36.8282C310.522 36.8282 310.034 36.9899 309.748 37.3135C309.47 37.63 309.264 38.2876 309.128 39.2863C309.014 40.1796 309.014 40.7915 309.128 41.1221C309.242 41.4456 309.513 41.6074 309.941 41.6074C310.24 41.6074 310.497 41.5511 310.711 41.4386C310.925 41.319 311.171 41.1326 311.449 40.8794L311.759 38.6533Z" fill="#1F3D8C"/>
<path d="M318.595 41.6285L318.702 42.6202C318.11 42.8664 317.336 42.9894 316.381 42.9894C315.376 42.9894 314.684 42.7573 314.306 42.2931C313.928 41.8289 313.797 41.115 313.911 40.1515C314.039 39.1386 314.331 38.4459 314.788 38.0731C315.244 37.7003 315.971 37.5139 316.969 37.5139C317.896 37.5139 318.523 37.6651 318.851 37.9676C319.186 38.27 319.311 38.7166 319.226 39.3074C319.154 39.7998 318.951 40.1515 318.616 40.3625C318.281 40.5735 317.764 40.7036 317.065 40.7528L315.504 40.8689C315.511 41.2135 315.597 41.4456 315.761 41.5652C315.932 41.6847 316.199 41.7445 316.563 41.7445C317.254 41.7445 317.932 41.7058 318.595 41.6285ZM315.6 39.951L316.83 39.835C317.115 39.8139 317.322 39.7576 317.45 39.6662C317.586 39.5747 317.668 39.4059 317.696 39.1597C317.718 38.9276 317.671 38.7835 317.557 38.7272C317.45 38.6709 317.219 38.6463 316.862 38.6533C316.449 38.6533 316.156 38.7413 315.985 38.9171C315.821 39.0859 315.693 39.4305 315.6 39.951Z" fill="#1F3D8C"/>
<path d="M322.233 40.9955L320.96 40.4785C320.532 40.3097 320.233 40.0952 320.062 39.835C319.891 39.5747 319.83 39.2477 319.88 38.8538C319.937 38.3755 320.147 38.0309 320.511 37.8199C320.882 37.6089 321.459 37.5069 322.243 37.5139C323.213 37.528 324.026 37.5983 324.682 37.7249L324.532 38.7166C323.163 38.6955 322.468 38.685 322.447 38.685C322.033 38.685 321.759 38.7026 321.623 38.7377C321.488 38.7659 321.409 38.8397 321.388 38.9593C321.374 39.0789 321.406 39.1703 321.484 39.2336C321.57 39.2899 321.73 39.3637 321.965 39.4552L323.259 39.9616C323.694 40.1304 324.001 40.3343 324.179 40.5735C324.357 40.8126 324.422 41.1326 324.372 41.5335C324.329 41.843 324.243 42.0962 324.115 42.2931C323.994 42.4901 323.816 42.6378 323.58 42.7362C323.345 42.8347 323.092 42.898 322.821 42.9261C322.55 42.9613 322.204 42.9789 321.784 42.9789C321.142 42.9789 320.368 42.9156 319.463 42.789L319.613 41.7867C319.869 41.8008 320.429 41.8078 321.292 41.8078C321.905 41.8078 322.311 41.7867 322.511 41.7445C322.71 41.7023 322.825 41.6109 322.853 41.4702C322.867 41.3647 322.839 41.2874 322.767 41.2381C322.703 41.1889 322.571 41.1256 322.372 41.0482C322.315 41.0271 322.268 41.0095 322.233 40.9955Z" fill="#1F3D8C"/>
<path d="M327.655 38.7061L327.302 41.1959C327.274 41.3929 327.288 41.5265 327.345 41.5968C327.409 41.6601 327.548 41.6918 327.762 41.6918H328.468L328.543 42.789C328.165 42.9226 327.673 42.9894 327.067 42.9894C326.568 42.9894 326.197 42.8558 325.955 42.5885C325.712 42.3142 325.627 41.938 325.698 41.4597L326.104 38.7061H325.153L325.281 37.7144L326.254 37.6616L326.468 36.2057H328.019L327.816 37.6616H329.27L329.12 38.7061H327.655Z" fill="#1F3D8C"/>
<path d="M333.984 35.33L334.647 35.3933C334.654 35.8787 334.565 36.2444 334.379 36.4906C334.201 36.7367 333.962 36.8528 333.663 36.8387C333.406 36.8246 333.093 36.7402 332.722 36.5855C332.358 36.4237 332.126 36.3358 332.027 36.3218C331.841 36.2936 331.706 36.3218 331.62 36.4062C331.542 36.4906 331.488 36.6312 331.46 36.8282L330.797 36.7754C330.797 36.276 330.889 35.9033 331.075 35.6571C331.26 35.4109 331.499 35.2949 331.791 35.3089C332.027 35.323 332.323 35.4074 332.679 35.5621C333.035 35.7098 333.278 35.7943 333.406 35.8154C333.599 35.8435 333.734 35.8189 333.813 35.7415C333.898 35.6641 333.955 35.527 333.984 35.33ZM334.272 42.8628H333.043L333.053 41.9239C332.511 42.6132 331.791 42.9683 330.893 42.9894C330.23 43.0105 329.781 42.7995 329.546 42.3564C329.317 41.9063 329.278 41.1748 329.428 40.162C329.499 39.6837 329.599 39.2828 329.727 38.9593C329.856 38.6287 329.998 38.3685 330.155 38.1786C330.312 37.9887 330.515 37.8445 330.765 37.746C331.014 37.6476 331.253 37.5843 331.481 37.5561C331.717 37.528 332.012 37.5139 332.369 37.5139C332.747 37.5139 333.199 37.5456 333.727 37.6089C334.255 37.6722 334.675 37.746 334.989 37.8304L334.272 42.8628ZM333.299 38.6639H332.487C331.973 38.6639 331.624 38.7518 331.438 38.9276C331.253 39.1035 331.114 39.522 331.021 40.1831C330.929 40.8513 330.907 41.2803 330.957 41.4702C331.007 41.6531 331.16 41.7375 331.417 41.7234C331.888 41.7164 332.415 41.3893 333 40.7423L333.299 38.6639Z" fill="#1F3D8C"/>
<path d="M338.544 37.5139C339.521 37.5139 340.202 37.732 340.587 38.168C340.972 38.6041 341.093 39.325 340.951 40.3308C340.815 41.3085 340.519 41.9977 340.063 42.3986C339.614 42.7995 338.912 43 337.956 43C336.987 43 336.302 42.782 335.903 42.3459C335.511 41.9098 335.386 41.1959 335.529 40.2042C335.671 39.2195 335.967 38.5267 336.416 38.1258C336.865 37.7179 337.575 37.5139 338.544 37.5139ZM338.534 38.685C338.099 38.685 337.785 38.794 337.593 39.012C337.407 39.2301 337.268 39.6697 337.176 40.3308C337.09 40.9357 337.101 41.3366 337.208 41.5335C337.315 41.7305 337.575 41.8289 337.988 41.8289C338.416 41.8289 338.723 41.7199 338.908 41.5019C339.093 41.2768 339.232 40.8443 339.325 40.2042C339.418 39.5993 339.407 39.1949 339.293 38.9909C339.186 38.787 338.933 38.685 338.534 38.685Z" fill="#1F3D8C"/>
<path d="M349.741 35.4777L348.682 42.8628H347.442V41.9133C346.729 42.6307 345.998 42.9894 345.249 42.9894C344.658 42.9894 344.237 42.7679 343.987 42.3248C343.738 41.8817 343.681 41.1608 343.816 40.162C343.895 39.6064 344.005 39.1492 344.148 38.7905C344.29 38.4318 344.469 38.1645 344.683 37.9887C344.904 37.8058 345.128 37.6827 345.356 37.6194C345.592 37.5491 345.87 37.5139 346.19 37.5139C346.754 37.5139 347.321 37.5596 347.891 37.6511C347.905 37.215 347.93 36.8739 347.966 36.6277L348.158 35.4777H349.741ZM347.698 38.6111H346.854C346.333 38.6111 345.987 38.7026 345.816 38.8854C345.645 39.0613 345.513 39.4938 345.421 40.1831C345.335 40.7669 345.317 41.1643 345.367 41.3753C345.417 41.5792 345.57 41.6777 345.827 41.6707C346.084 41.6636 346.326 41.6003 346.554 41.4808C346.789 41.3542 347.064 41.1537 347.378 40.8794L347.698 38.6111Z" fill="#1F3D8C"/>
<path d="M354.643 41.6285L354.75 42.6202C354.159 42.8664 353.385 42.9894 352.43 42.9894C351.424 42.9894 350.733 42.7573 350.355 42.2931C349.977 41.8289 349.845 41.115 349.959 40.1515C350.088 39.1386 350.38 38.4459 350.836 38.0731C351.293 37.7003 352.02 37.5139 353.018 37.5139C353.945 37.5139 354.572 37.6651 354.9 37.9676C355.235 38.27 355.36 38.7166 355.274 39.3074C355.203 39.7998 355 40.1515 354.665 40.3625C354.33 40.5735 353.813 40.7036 353.114 40.7528L351.553 40.8689C351.56 41.2135 351.645 41.4456 351.809 41.5652C351.981 41.6847 352.248 41.7445 352.612 41.7445C353.303 41.7445 353.98 41.7058 354.643 41.6285ZM351.649 39.951L352.879 39.835C353.164 39.8139 353.371 39.7576 353.499 39.6662C353.635 39.5747 353.717 39.4059 353.745 39.1597C353.766 38.9276 353.72 38.7835 353.606 38.7272C353.499 38.6709 353.267 38.6463 352.911 38.6533C352.497 38.6533 352.205 38.7413 352.034 38.9171C351.87 39.0859 351.742 39.4305 351.649 39.951Z" fill="#1F3D8C"/>
<path d="M357.869 42.8628L358.906 35.5832C359.562 35.5199 360.471 35.4883 361.633 35.4883C362.553 35.4883 363.223 35.6571 363.644 35.9947C364.072 36.3253 364.228 36.895 364.114 37.7038C364.043 38.2173 363.879 38.6217 363.622 38.9171C363.373 39.2055 362.984 39.3813 362.457 39.4446L362.446 39.5079C362.938 39.6204 363.234 39.9932 363.334 40.6262L363.719 42.8628H362.05L361.708 40.6051C361.68 40.38 361.619 40.2288 361.526 40.1515C361.434 40.0671 361.287 40.0249 361.088 40.0249L359.869 40.0143L359.462 42.8628H357.869ZM360.05 38.7799H361.205C361.633 38.7799 361.936 38.7026 362.114 38.5478C362.3 38.3931 362.425 38.1047 362.489 37.6827C362.546 37.317 362.51 37.0673 362.382 36.9337C362.253 36.793 361.993 36.7227 361.601 36.7227L360.339 36.7332L360.05 38.7799Z" fill="#1F3D8C"/>
<path d="M369.241 41.6285L369.348 42.6202C368.756 42.8664 367.983 42.9894 367.027 42.9894C366.022 42.9894 365.33 42.7573 364.953 42.2931C364.575 41.8289 364.443 41.115 364.557 40.1515C364.685 39.1386 364.977 38.4459 365.434 38.0731C365.89 37.7003 366.617 37.5139 367.615 37.5139C368.542 37.5139 369.17 37.6651 369.498 37.9676C369.833 38.27 369.957 38.7166 369.872 39.3074C369.801 39.7998 369.597 40.1515 369.262 40.3625C368.927 40.5735 368.41 40.7036 367.712 40.7528L366.15 40.8689C366.157 41.2135 366.243 41.4456 366.407 41.5652C366.578 41.6847 366.845 41.7445 367.209 41.7445C367.901 41.7445 368.578 41.7058 369.241 41.6285ZM366.247 39.951L367.476 39.835C367.762 39.8139 367.968 39.7576 368.097 39.6662C368.232 39.5747 368.314 39.4059 368.343 39.1597C368.364 38.9276 368.318 38.7835 368.204 38.7272C368.097 38.6709 367.865 38.6463 367.508 38.6533C367.095 38.6533 366.803 38.7413 366.632 38.9171C366.468 39.0859 366.339 39.4305 366.247 39.951Z" fill="#1F3D8C"/>
<path d="M374.665 41.6285L374.772 42.6518C374.23 42.8769 373.546 42.9894 372.719 42.9894C371.763 42.9894 371.097 42.7714 370.719 42.3353C370.341 41.8993 370.223 41.1854 370.366 40.1937C370.508 39.216 370.794 38.5267 371.221 38.1258C371.649 37.7179 372.334 37.5139 373.275 37.5139C374.109 37.5139 374.783 37.6265 375.296 37.8515L375.082 38.801C374.255 38.787 373.724 38.7799 373.489 38.7799C372.997 38.7799 372.644 38.8819 372.43 39.0859C372.223 39.2828 372.084 39.6767 372.013 40.2675C371.934 40.8794 371.959 41.2768 372.088 41.4597C372.223 41.6355 372.526 41.7234 372.997 41.7234C373.66 41.7234 374.216 41.6918 374.665 41.6285Z" fill="#1F3D8C"/>
<path d="M378.564 37.5139C379.541 37.5139 380.222 37.732 380.607 38.168C380.992 38.6041 381.113 39.325 380.971 40.3308C380.835 41.3085 380.539 41.9977 380.083 42.3986C379.634 42.7995 378.931 43 377.976 43C377.006 43 376.322 42.782 375.923 42.3459C375.531 41.9098 375.406 41.1959 375.548 40.2042C375.691 39.2195 375.987 38.5267 376.436 38.1258C376.885 37.7179 377.595 37.5139 378.564 37.5139ZM378.554 38.685C378.119 38.685 377.805 38.794 377.612 39.012C377.427 39.2301 377.288 39.6697 377.195 40.3308C377.11 40.9357 377.121 41.3366 377.228 41.5335C377.334 41.7305 377.595 41.8289 378.008 41.8289C378.436 41.8289 378.743 41.7199 378.928 41.5019C379.113 41.2768 379.252 40.8443 379.345 40.2042C379.438 39.5993 379.427 39.1949 379.313 38.9909C379.206 38.787 378.953 38.685 378.554 38.685Z" fill="#1F3D8C"/>
<path d="M386.035 37.5139L385.682 38.9593H385.297C385.076 38.9593 384.841 39.0085 384.591 39.107C384.349 39.1984 383.996 39.3637 383.532 39.6029L383.083 42.8628H381.5L382.238 37.6616H383.468V38.6428C384.274 37.8902 385.022 37.5139 385.714 37.5139H386.035Z" fill="#1F3D8C"/>
<path d="M390.392 37.5139L390.04 38.9593H389.655C389.434 38.9593 389.198 39.0085 388.949 39.107C388.706 39.1984 388.353 39.3637 387.89 39.6029L387.441 42.8628H385.858L386.596 37.6616H387.826V38.6428C388.631 37.8902 389.38 37.5139 390.072 37.5139H390.392Z" fill="#1F3D8C"/>
<path d="M391.938 37.1658L391.542 36.575L393.125 35.1718H394.205L395.564 36.6383L395.082 37.1869L393.681 36.1424H393.596L391.938 37.1658ZM395.029 41.6285L395.136 42.6202C394.544 42.8664 393.77 42.9894 392.815 42.9894C391.81 42.9894 391.118 42.7573 390.74 42.2931C390.363 41.8289 390.231 41.115 390.345 40.1515C390.473 39.1386 390.765 38.4459 391.222 38.0731C391.678 37.7003 392.405 37.5139 393.403 37.5139C394.33 37.5139 394.958 37.6651 395.285 37.9676C395.621 38.27 395.745 38.7166 395.66 39.3074C395.588 39.7998 395.385 40.1515 395.05 40.3625C394.715 40.5735 394.198 40.7036 393.5 40.7528L391.938 40.8689C391.945 41.2135 392.031 41.4456 392.195 41.5652C392.366 41.6847 392.633 41.7445 392.997 41.7445C393.688 41.7445 394.366 41.7058 395.029 41.6285ZM392.034 39.951L393.264 39.835C393.549 39.8139 393.756 39.7576 393.885 39.6662C394.02 39.5747 394.102 39.4059 394.131 39.1597C394.152 38.9276 394.106 38.7835 393.991 38.7272C393.885 38.6709 393.653 38.6463 393.296 38.6533C392.883 38.6533 392.591 38.7413 392.419 38.9171C392.255 39.0859 392.127 39.4305 392.034 39.951Z" fill="#1F3D8C"/>
<path d="M397.982 37.6616V38.6955C398.802 37.9078 399.604 37.5139 400.389 37.5139C400.838 37.5139 401.184 37.644 401.426 37.9043C401.668 38.1575 401.754 38.5197 401.683 38.9909L401.127 42.8628H399.555L400.036 39.4552C400.071 39.209 400.064 39.0437 400.014 38.9593C399.964 38.8679 399.854 38.8257 399.683 38.8327C399.284 38.8397 398.735 39.114 398.036 39.6556L397.587 42.8628H396.004L396.742 37.6616H397.982Z" fill="#1F3D8C"/>
<path d="M406.659 41.6285L406.766 42.6518C406.224 42.8769 405.54 42.9894 404.713 42.9894C403.757 42.9894 403.091 42.7714 402.713 42.3353C402.335 41.8993 402.217 41.1854 402.36 40.1937C402.502 39.216 402.788 38.5267 403.215 38.1258C403.643 37.7179 404.328 37.5139 405.269 37.5139C406.103 37.5139 406.777 37.6265 407.29 37.8515L407.076 38.801C406.249 38.787 405.718 38.7799 405.483 38.7799C404.991 38.7799 404.638 38.8819 404.424 39.0859C404.217 39.2828 404.078 39.6767 404.007 40.2675C403.928 40.8794 403.953 41.2768 404.082 41.4597C404.217 41.6355 404.52 41.7234 404.991 41.7234C405.654 41.7234 406.21 41.6918 406.659 41.6285Z" fill="#1F3D8C"/>
<path d="M408.995 35.3617H409.658C409.993 35.3617 410.143 35.5235 410.107 35.847L410.032 36.4167C409.99 36.698 409.819 36.8387 409.519 36.8387H408.845C408.517 36.8387 408.375 36.6769 408.418 36.3534L408.493 35.7943C408.521 35.5059 408.689 35.3617 408.995 35.3617ZM409.081 42.8628H407.509L408.247 37.6616H409.819L409.081 42.8628Z" fill="#1F3D8C"/>
<path d="M415.283 42.8628H414.054L414.064 41.9239C413.522 42.6132 412.802 42.9683 411.904 42.9894C411.241 43.0105 410.792 42.7995 410.557 42.3564C410.328 41.9063 410.289 41.1748 410.439 40.162C410.51 39.6837 410.61 39.2828 410.738 38.9593C410.867 38.6287 411.009 38.3685 411.166 38.1786C411.323 37.9887 411.526 37.8445 411.776 37.746C412.025 37.6476 412.264 37.5843 412.492 37.5561C412.728 37.528 413.023 37.5139 413.38 37.5139C413.758 37.5139 414.21 37.5456 414.738 37.6089C415.266 37.6722 415.686 37.746 416 37.8304L415.283 42.8628ZM414.31 38.6639H413.498C412.984 38.6639 412.635 38.7518 412.449 38.9276C412.264 39.1035 412.125 39.522 412.032 40.1831C411.94 40.8513 411.918 41.2803 411.968 41.4702C412.018 41.6531 412.171 41.7375 412.428 41.7234C412.899 41.7164 413.426 41.3893 414.011 40.7423L414.31 38.6639Z" fill="#1F3D8C"/>
<path d="M278.236 36.374H273.976C273.423 36.374 273 36.7968 273 37.3496V42.2277C273 42.7805 273.423 43.2033 273.976 43.2033H278.236C278.789 43.2033 279.211 42.748 279.211 42.2277V37.3496C279.211 36.8293 278.789 36.374 278.236 36.374Z" fill="#DC272B"/>
<path d="M287.308 30.8457H283.048C282.495 30.8457 282.072 31.2685 282.072 31.8213V42.2603C282.072 42.8132 282.495 43.2359 283.048 43.2359H287.308C287.861 43.2359 288.284 42.7807 288.284 42.2603V31.8213C288.284 31.2685 287.861 30.8457 287.308 30.8457Z" fill="#DC272B"/>
<path d="M296.384 25.252H292.091C291.538 25.252 291.115 25.6747 291.115 26.2276V42.2276C291.115 42.7804 291.538 43.2032 292.091 43.2032H296.351C296.904 43.2032 297.327 42.7479 297.327 42.2276V26.2276C297.359 25.7072 296.904 25.252 296.384 25.252Z" fill="#DC272B"/>
<path d="M281.845 27.4959H284.057C284.252 27.4959 284.349 27.2683 284.219 27.1382L280.122 23.0732C280.024 22.9756 279.894 22.9756 279.829 23.0732L275.764 27.1382C275.634 27.2683 275.731 27.4959 275.927 27.4959H278.17C278.268 27.4959 278.366 27.561 278.366 27.6911C278.463 28.374 277.227 31.7561 273.195 32.3415C272.935 32.374 272.967 32.7317 273.195 32.7642C276.024 33.0244 281.488 31.9187 281.65 27.7236C281.65 27.5935 281.715 27.4959 281.845 27.4959Z" fill="#DC272B"/>
<defs>
<filter id="filter0_f" x="140.168" y="45.4263" width="404.839" height="702.4" filterUnits="userSpaceOnUse" color-interpolation-filters="sRGB">
<feFlood flood-opacity="0" result="BackgroundImageFix"/>
<feBlend mode="normal" in="SourceGraphic" in2="BackgroundImageFix" result="shape"/>
<feGaussianBlur stdDeviation="32" result="effect1_foregroundBlur"/>
</filter>
<filter id="filter1_f" x="99.2754" y="201.773" width="285.918" height="90.3952" filterUnits="userSpaceOnUse" color-interpolation-filters="sRGB">
<feFlood flood-opacity="0" result="BackgroundImageFix"/>
<feBlend mode="normal" in="SourceGraphic" in2="BackgroundImageFix" result="shape"/>
<feGaussianBlur stdDeviation="4" result="effect1_foregroundBlur"/>
</filter>
<filter id="filter2_f" x="118.959" y="487.894" width="301.918" height="106.395" filterUnits="userSpaceOnUse" color-interpolation-filters="sRGB">
<feFlood flood-opacity="0" result="BackgroundImageFix"/>
<feBlend mode="normal" in="SourceGraphic" in2="BackgroundImageFix" result="shape"/>
<feGaussianBlur stdDeviation="8" result="effect1_foregroundBlur"/>
</filter>
<filter id="filter3_f" x="270.143" y="301.691" width="317.918" height="170.839" filterUnits="userSpaceOnUse" color-interpolation-filters="sRGB">
<feFlood flood-opacity="0" result="BackgroundImageFix"/>
<feBlend mode="normal" in="SourceGraphic" in2="BackgroundImageFix" result="shape"/>
<feGaussianBlur stdDeviation="12" result="effect1_foregroundBlur"/>
</filter>
<filter id="filter4_d" x="234" y="0" width="221" height="90.7616" filterUnits="userSpaceOnUse" color-interpolation-filters="sRGB">
<feFlood flood-opacity="0" result="BackgroundImageFix"/>
<feColorMatrix in="SourceAlpha" type="matrix" values="0 0 0 0 0 0 0 0 0 0 0 0 0 0 0 0 0 0 127 0"/>
<feOffset dx="2" dy="6"/>
<feGaussianBlur stdDeviation="6"/>
<feColorMatrix type="matrix" values="0 0 0 0 0.286275 0 0 0 0 0.145098 0 0 0 0 0.380392 0 0 0 0.06 0"/>
<feBlend mode="normal" in2="BackgroundImageFix" result="effect1_dropShadow"/>
<feBlend mode="normal" in="SourceGraphic" in2="effect1_dropShadow" result="shape"/>
</filter>
<linearGradient id="paint0_linear" x1="-1320.18" y1="-918.265" x2="36.7251" y2="746.72" gradientUnits="userSpaceOnUse">
<stop stop-color="#C51A19"/>
<stop offset="0.0001" stop-color="#B4252B"/>
<stop offset="0.956793" stop-color="white"/>
</linearGradient>
<linearGradient id="paint1_linear" x1="-1233.67" y1="-1042.83" x2="123.237" y2="622.151" gradientUnits="userSpaceOnUse">
<stop offset="0.0001" stop-color="#B4252B"/>
<stop offset="0.875" stop-color="white"/>
</linearGradient>
<linearGradient id="paint2_linear" x1="170" y1="-1.00005" x2="448" y2="763" gradientUnits="userSpaceOnUse">
<stop stop-color="#EA6565"/>
<stop offset="1" stop-color="#DC272B"/>
</linearGradient>
<linearGradient id="paint3_linear" x1="434" y1="377" x2="213" y2="345" gradientUnits="userSpaceOnUse">
<stop stop-color="#506EB3"/>
<stop offset="1" stop-color="#506EB3" stop-opacity="0"/>
</linearGradient>
<linearGradient id="paint4_linear" x1="229.258" y1="461.506" x2="147.175" y2="491.687" gradientUnits="userSpaceOnUse">
<stop stop-color="#F8B44C"/>
<stop offset="1" stop-color="#F07E26"/>
</linearGradient>
</defs>
</svg>
