<svg width="635" height="738" viewBox="0 0 635 738" fill="none" xmlns="http://www.w3.org/2000/svg">
<path d="M109.098 686.567L2.4731 345.234C-8.27503 310.852 17.3588 275.899 53.2652 275.899H388.597C411.853 275.899 432.446 291.063 439.389 313.332L546.015 654.665C556.763 689.047 531.129 724 495.223 724H159.89C136.635 723.952 116.089 708.836 109.098 686.567Z" fill="url(#paint0_linear)" fill-opacity="0.21"/>
<path d="M195.611 561.998L88.9858 220.665C78.2377 186.284 103.871 151.33 139.778 151.33H475.11C498.366 151.33 518.959 166.494 525.902 188.763L632.527 530.096C643.275 564.478 617.642 599.431 581.735 599.431H246.403C223.147 599.384 202.602 584.267 195.611 561.998Z" fill="url(#paint1_linear)"/>
<g filter="url(#filter0_f)">
<path d="M204.169 642.688C204.169 659.925 218.066 673.826 235.299 673.826H449.878C467.111 673.826 481.008 659.925 481.008 642.688V130.565C481.008 113.328 467.111 99.4265 449.878 99.4265H235.299C218.066 99.4265 204.169 113.328 204.169 130.565V642.688Z" fill="#C3CBE5" fill-opacity="0.55"/>
</g>
<path d="M204.169 641.051C204.169 658.237 218.066 672.096 235.299 672.096H449.878C467.111 672.096 481.008 658.237 481.008 641.051V130.472C481.008 113.286 467.111 99.4265 449.878 99.4265H235.299C218.066 99.4265 204.169 113.286 204.169 130.472V641.051Z" fill="url(#paint2_linear)"/>
<path d="M481.008 151.33H204.169V599.431H481.008V151.33Z" fill="url(#paint3_linear)"/>
<path d="M372.003 125.378C372.003 127.455 370.849 128.839 369.119 128.839H291.835C290.105 128.839 288.951 127.455 288.951 125.378C288.951 123.302 290.105 121.918 291.835 121.918H369.119C370.849 121.918 372.003 123.302 372.003 125.378Z" fill="url(#paint4_linear)"/>
<path d="M396.226 125.378C396.226 128.262 393.919 130.569 391.035 130.569C388.152 130.569 385.845 128.262 385.845 125.378C385.845 122.495 388.152 120.188 391.035 120.188C393.919 120.188 396.226 122.495 396.226 125.378Z" fill="url(#paint5_linear)"/>
<path d="M343.381 620.193C347.076 620.193 351.299 621.861 353.938 624.642C356.577 627.422 358.161 631.315 358.161 635.764C358.161 639.657 356.577 644.106 353.938 646.886C351.299 649.667 347.604 651.335 343.381 651.335H341.797C333.879 651.335 327.017 644.106 327.017 635.764C327.017 627.422 333.879 620.193 341.797 620.193H343.381Z" fill="url(#paint6_linear)"/>
<g opacity="0.1" filter="url(#filter1_f)">
<path d="M377.194 259.29C377.194 267.556 370.515 274.169 362.167 274.169L107.275 273.618C107.275 270.862 107.275 214.652 107.275 214.652C107.275 206.386 113.954 199.773 122.302 199.773H362.167C370.515 199.773 377.194 206.386 377.194 214.652V259.29Z" fill="#C3CBE5"/>
</g>
<path d="M397.956 238.528C397.956 246.794 391.278 253.407 382.93 253.407L128.038 252.856C128.038 250.101 128.038 193.891 128.038 193.891C128.038 185.625 134.716 179.012 143.064 179.012H382.93C391.278 179.012 397.956 185.625 397.956 193.891V238.528Z" fill="white"/>
<path d="M333.249 206.694H370.96C372.624 206.694 373.733 205.656 373.733 204.099C373.733 202.542 372.624 201.504 370.96 201.504H333.249C331.586 201.504 330.477 202.542 330.477 204.099C330.477 205.656 332.14 206.694 333.249 206.694Z" fill="#FFCAA0"/>
<path d="M236.333 206.694H313.885C315.535 206.694 316.635 205.656 316.635 204.099C316.635 202.542 315.535 201.504 313.885 201.504H236.333C234.683 201.504 233.583 202.542 233.583 204.099C233.583 205.656 234.683 206.694 236.333 206.694Z" fill="#FFCAA0"/>
<path d="M153.297 206.694H215.245C216.905 206.694 218.011 205.656 218.011 204.099C218.011 202.542 216.905 201.504 215.245 201.504H153.297C151.637 201.504 150.531 202.542 150.531 204.099C150.531 205.656 151.637 206.694 153.297 206.694Z" fill="#FFCAA0"/>
<path d="M315.96 230.916H343.262C344.934 230.916 346.048 229.878 346.048 228.321C346.048 226.763 344.934 225.725 343.262 225.725H315.96C314.288 225.725 313.174 226.763 313.174 228.321C313.174 229.878 314.288 230.916 315.96 230.916Z" fill="#FFCAA0"/>
<path d="M194.837 230.916H298.281C299.95 230.916 301.062 229.878 301.062 228.321C301.062 226.763 299.95 225.725 298.281 225.725H194.837C193.169 225.725 192.057 226.763 192.057 228.321C192.057 229.878 193.725 230.916 194.837 230.916Z" fill="#FFCAA0"/>
<path d="M153.365 230.916H180.572C182.272 230.916 183.406 229.878 183.406 228.321C183.406 226.763 182.272 225.725 180.572 225.725H153.365C151.665 225.725 150.531 226.763 150.531 228.321C150.531 229.878 151.665 230.916 153.365 230.916Z" fill="#FFCAA0"/>
<g opacity="0.1" filter="url(#filter2_f)">
<path d="M404.877 553.41C404.877 561.676 398.199 568.289 389.851 568.289L134.959 567.738C134.959 564.983 134.959 508.773 134.959 508.773C134.959 500.507 141.637 493.894 149.985 493.894H389.851C398.199 493.894 404.877 500.507 404.877 508.773V553.41Z" fill="#C6ACD1"/>
</g>
<path d="M425.64 532.649C425.64 540.915 418.962 547.528 410.614 547.528L155.722 546.977C155.722 544.221 155.722 488.012 155.722 488.012C155.722 479.745 162.4 473.133 170.748 473.133H410.614C418.962 473.133 425.64 479.745 425.64 488.012V532.649Z" fill="white"/>
<g opacity="0.1" filter="url(#filter3_f)">
<path d="M294.142 423.523C294.142 431.86 300.82 438.53 309.168 438.53L564.06 437.974C564.06 435.195 564.06 330.699 564.06 330.699C564.06 322.362 557.381 315.692 549.033 315.692H309.168C300.82 315.692 294.142 322.362 294.142 330.699V423.523Z" fill="#C3CBE6"/>
</g>
<path d="M273.379 402.761C273.379 411.099 280.057 417.769 288.405 417.769L543.297 417.213C543.297 414.434 543.297 309.938 543.297 309.938C543.297 301.6 536.619 294.93 528.271 294.93H288.405C280.057 294.93 273.379 301.6 273.379 309.938V402.761Z" fill="url(#paint7_linear)"/>
<g filter="url(#filter4_d)">
<mask id="path-21-inside-1" fill="white">
<path fill-rule="evenodd" clip-rule="evenodd" d="M239 6C236.791 6 235 7.79086 235 10V57C235 59.2091 236.791 61 239 61H334.33C335.053 61 335.719 61.3897 336.073 62.0194L340.98 70.7424C341.745 72.1016 343.702 72.1016 344.467 70.7424L349.374 62.0194C349.728 61.3897 350.394 61 351.117 61H446C448.209 61 450 59.2091 450 57V10C450 7.79086 448.209 6 446 6H239Z"/>
</mask>
<path fill-rule="evenodd" clip-rule="evenodd" d="M239 6C236.791 6 235 7.79086 235 10V57C235 59.2091 236.791 61 239 61H334.33C335.053 61 335.719 61.3897 336.073 62.0194L340.98 70.7424C341.745 72.1016 343.702 72.1016 344.467 70.7424L349.374 62.0194C349.728 61.3897 350.394 61 351.117 61H446C448.209 61 450 59.2091 450 57V10C450 7.79086 448.209 6 446 6H239Z" fill="white"/>
<path d="M349.374 62.0194L348.502 61.5291L349.374 62.0194ZM340.98 70.7424L340.109 71.2327L340.98 70.7424ZM344.467 70.7424L345.338 71.2327L344.467 70.7424ZM336.073 62.0194L336.945 61.5291L336.073 62.0194ZM236 10C236 8.34315 237.343 7 239 7V5C236.239 5 234 7.23858 234 10H236ZM236 57V10H234V57H236ZM239 60C237.343 60 236 58.6569 236 57H234C234 59.7614 236.239 62 239 62V60ZM334.33 60H239V62H334.33V60ZM341.852 70.2521L336.945 61.5291L335.202 62.5097L340.109 71.2327L341.852 70.2521ZM348.502 61.5291L343.595 70.2521L345.338 71.2327L350.245 62.5097L348.502 61.5291ZM446 60H351.117V62H446V60ZM449 57C449 58.6569 447.657 60 446 60V62C448.761 62 451 59.7614 451 57H449ZM449 10V57H451V10H449ZM446 7C447.657 7 449 8.34315 449 10H451C451 7.23858 448.761 5 446 5V7ZM239 7H446V5H239V7ZM350.245 62.5097C350.422 62.1949 350.755 62 351.117 62V60C350.033 60 349.033 60.5845 348.502 61.5291L350.245 62.5097ZM340.109 71.2327C341.256 73.2715 344.191 73.2716 345.338 71.2327L343.595 70.2521C343.213 70.9317 342.234 70.9317 341.852 70.2521L340.109 71.2327ZM334.33 62C334.691 62 335.025 62.1949 335.202 62.5097L336.945 61.5291C336.413 60.5845 335.414 60 334.33 60V62Z" fill="#FCFCFC" mask="url(#path-21-inside-1)"/>
</g>
<g clip-path="url(#clip0)">
<path d="M301.316 26.3418L300.222 25.8974C299.812 25.7265 299.504 25.4871 299.367 25.2136C299.231 24.9401 299.162 24.5983 299.231 24.188C299.299 23.5726 299.538 23.1624 299.88 22.9572C300.222 22.7521 300.769 22.6495 301.487 22.6495C302.205 22.6495 302.855 22.7179 303.367 22.8889L303.265 23.7094C302.752 23.7094 302.171 23.7094 301.453 23.7094C301.111 23.7094 300.872 23.7436 300.769 23.7777C300.632 23.8461 300.564 23.9829 300.53 24.2564C300.496 24.4615 300.53 24.5641 300.564 24.6666C300.598 24.7692 300.769 24.8376 300.974 24.9059L302.034 25.3162C302.478 25.4871 302.786 25.6923 302.923 25.9658C303.06 26.2393 303.094 26.5812 303.06 27.0256C302.991 27.6752 302.786 28.0854 302.444 28.3248C302.102 28.5299 301.555 28.6666 300.769 28.6666C300.119 28.6666 299.47 28.5983 298.786 28.4273L298.923 27.5042C300.119 27.5384 300.701 27.5384 300.735 27.5384C301.111 27.5384 301.384 27.5042 301.521 27.4359C301.658 27.3675 301.76 27.1965 301.795 26.9572C301.829 26.7521 301.795 26.6495 301.76 26.547C301.726 26.4444 301.521 26.4102 301.316 26.3418Z" fill="#1F3D8C"/>
<path d="M304.906 28.5299H303.675L304.256 24.3932H305.487L304.906 28.5299ZM304.837 22.547H305.35C305.624 22.547 305.726 22.6837 305.692 22.9231L305.624 23.3675C305.589 23.6068 305.453 23.7094 305.213 23.7094H304.666C304.393 23.7094 304.29 23.5726 304.324 23.3333L304.393 22.8889C304.461 22.6496 304.598 22.547 304.837 22.547Z" fill="#1F3D8C"/>
<path d="M308.051 27.0598L307.06 26.6154C306.718 26.4786 306.479 26.3077 306.342 26.1026C306.205 25.8974 306.171 25.6239 306.205 25.3162C306.239 24.9402 306.41 24.6667 306.718 24.4957C306.991 24.3248 307.47 24.2564 308.086 24.2564C308.838 24.2564 309.487 24.3248 310 24.4273L309.897 25.2137C308.803 25.2137 308.256 25.1795 308.256 25.1795C307.915 25.1795 307.709 25.1795 307.607 25.2137C307.47 25.2479 307.402 25.3162 307.368 25.4188C307.368 25.5214 307.368 25.5897 307.436 25.6239C307.504 25.6581 307.641 25.7265 307.812 25.7949L308.838 26.2051C309.18 26.3419 309.419 26.5128 309.556 26.6838C309.692 26.8889 309.761 27.1282 309.692 27.4359C309.658 27.6752 309.59 27.8803 309.487 28.0513C309.385 28.2222 309.248 28.3248 309.077 28.3932C308.906 28.4615 308.701 28.5299 308.496 28.5641C308.291 28.5983 308.017 28.5983 307.675 28.5983C307.162 28.5983 306.547 28.5641 305.863 28.4615L305.966 27.6752C306.171 27.6752 306.615 27.6752 307.299 27.6752C307.778 27.6752 308.086 27.6752 308.256 27.641C308.427 27.6068 308.496 27.5385 308.53 27.4359C308.53 27.3675 308.53 27.2991 308.462 27.265C308.393 27.2308 308.291 27.1624 308.154 27.1282C308.12 27.0598 308.086 27.0598 308.051 27.0598Z" fill="#1F3D8C"/>
<path d="M312.427 25.2137L312.154 27.1966C312.12 27.3675 312.154 27.4701 312.188 27.5043C312.222 27.5727 312.359 27.5727 312.496 27.5727H313.043L313.111 28.4615C312.803 28.5641 312.427 28.6325 311.949 28.6325C311.573 28.6325 311.265 28.5299 311.06 28.3248C310.855 28.1197 310.786 27.812 310.855 27.4359L311.162 25.2479H310.479L310.581 24.4615L311.333 24.3932L311.504 23.2308H312.735L312.564 24.3932H313.692L313.59 25.2137H312.427Z" fill="#1F3D8C"/>
<path d="M317.623 27.5385L317.692 28.3248C317.213 28.5299 316.632 28.6325 315.88 28.6325C315.093 28.6325 314.546 28.4615 314.239 28.0855C313.931 27.7094 313.828 27.1624 313.931 26.3761C314.034 25.5556 314.273 25.0085 314.615 24.7009C314.991 24.3932 315.538 24.2564 316.324 24.2564C317.042 24.2564 317.555 24.3932 317.794 24.6325C318.068 24.8718 318.136 25.2137 318.068 25.6923C317.999 26.0684 317.863 26.3761 317.589 26.547C317.316 26.7179 316.905 26.8205 316.358 26.8547L315.128 26.9573C315.128 27.2308 315.196 27.4017 315.333 27.5043C315.469 27.6068 315.675 27.641 315.948 27.641C316.564 27.641 317.111 27.6068 317.623 27.5385ZM315.264 26.2051L316.222 26.1026C316.461 26.1026 316.598 26.0342 316.7 25.9658C316.803 25.8974 316.871 25.7607 316.905 25.5556C316.905 25.3846 316.871 25.2479 316.803 25.2137C316.7 25.1795 316.529 25.1453 316.256 25.1453C315.914 25.1453 315.709 25.2137 315.572 25.3504C315.435 25.4872 315.333 25.7949 315.264 26.2051Z" fill="#1F3D8C"/>
<path d="M320.085 24.3932V25.1453C320.393 24.8376 320.667 24.6325 320.94 24.4957C321.214 24.359 321.487 24.2906 321.761 24.2906C322.068 24.2906 322.308 24.359 322.479 24.4957C322.649 24.6325 322.752 24.8376 322.786 25.0769C323.299 24.5641 323.846 24.2906 324.359 24.2906C324.735 24.2906 325.008 24.3932 325.214 24.5983C325.384 24.8034 325.453 25.1111 325.419 25.453L324.974 28.5299H323.743L324.12 25.7607C324.154 25.5897 324.12 25.453 324.085 25.3846C324.051 25.3162 323.949 25.282 323.812 25.282C323.675 25.282 323.538 25.3162 323.367 25.4188C323.196 25.5214 322.991 25.6581 322.718 25.9316L322.342 28.5299H321.145L321.521 25.7607C321.555 25.5897 321.555 25.4872 321.487 25.4188C321.419 25.3504 321.35 25.3162 321.214 25.3162C321.077 25.3162 320.906 25.3504 320.769 25.453C320.598 25.5555 320.393 25.6923 320.154 25.9316L319.778 28.5641H318.547L319.094 24.3932H320.085Z" fill="#1F3D8C"/>
<path d="M329.863 28.5299H328.906V27.7778C328.496 28.3248 327.915 28.5983 327.197 28.6325C326.684 28.6325 326.308 28.4957 326.137 28.1196C325.966 27.7778 325.932 27.1966 326.034 26.3761C326.103 26 326.171 25.6581 326.274 25.4188C326.376 25.1453 326.479 24.9402 326.615 24.8034C326.752 24.6667 326.889 24.5299 327.094 24.4615C327.299 24.3932 327.47 24.3248 327.675 24.3248C327.846 24.2906 328.086 24.2906 328.359 24.2906C328.667 24.2906 329.009 24.3248 329.419 24.359C329.829 24.3932 330.171 24.4615 330.41 24.5299L329.863 28.5299ZM329.111 25.1795H328.462C328.051 25.1795 327.778 25.2479 327.641 25.3846C327.504 25.5214 327.402 25.8632 327.299 26.3761C327.231 26.9231 327.197 27.2649 327.265 27.4017C327.299 27.5385 327.436 27.6068 327.641 27.6068C328.017 27.6068 328.427 27.3333 328.872 26.8205L329.111 25.1795Z" fill="#1F3D8C"/>
<path d="M332.974 27.0598L331.983 26.6496C331.641 26.5128 331.402 26.3419 331.265 26.1367C331.128 25.9316 331.094 25.6581 331.128 25.3504C331.162 24.9743 331.333 24.7008 331.641 24.5299C331.914 24.359 332.393 24.2906 333.008 24.2906C333.76 24.2906 334.41 24.359 334.923 24.4615L334.82 25.2479C333.726 25.2479 333.179 25.2137 333.179 25.2137C332.837 25.2137 332.632 25.2137 332.53 25.2479C332.427 25.282 332.359 25.3504 332.359 25.4188C332.359 25.5214 332.359 25.5897 332.427 25.6239C332.496 25.6581 332.632 25.7265 332.803 25.7949L333.829 26.2051C334.171 26.3419 334.41 26.5128 334.547 26.6838C334.684 26.8889 334.752 27.1282 334.684 27.4359C334.649 27.6752 334.581 27.8803 334.478 28.0513C334.376 28.2222 334.239 28.3248 334.068 28.3932C333.897 28.4615 333.692 28.5299 333.487 28.5641C333.282 28.5983 333.008 28.5983 332.666 28.5983C332.154 28.5983 331.538 28.5641 330.854 28.4615L330.957 27.6752C331.162 27.6752 331.607 27.6752 332.29 27.6752C332.769 27.6752 333.077 27.6752 333.248 27.641C333.419 27.6068 333.487 27.5385 333.521 27.4359C333.521 27.3675 333.521 27.2991 333.453 27.2649C333.384 27.2308 333.282 27.1624 333.145 27.1282C333.043 27.0598 333.008 27.0598 332.974 27.0598Z" fill="#1F3D8C"/>
<path d="M345.281 22.718L343.572 28.188C343.503 28.3932 343.332 28.5299 343.093 28.5299H341.897C341.794 28.5299 341.691 28.4957 341.589 28.4274C341.486 28.359 341.452 28.2564 341.452 28.1539L341.35 24.3932V23.641H341.179C341.11 23.9487 341.042 24.188 340.973 24.3932L339.811 28.188C339.743 28.4274 339.572 28.5299 339.332 28.5299H338.17C338.068 28.5299 337.965 28.4957 337.862 28.4274C337.76 28.359 337.726 28.2564 337.726 28.1539L337.555 22.718H338.82V26.7863C338.82 26.8889 338.82 27.0256 338.82 27.2308C338.82 27.4359 338.82 27.5727 338.82 27.6068H338.991C339.025 27.5043 339.093 27.1966 339.23 26.718L340.358 23.094C340.426 22.8547 340.597 22.718 340.837 22.718H341.931C342.033 22.718 342.136 22.7521 342.204 22.8547C342.273 22.9573 342.307 23.0256 342.307 23.1624L342.478 26.8205C342.478 27.1966 342.478 27.4701 342.478 27.641H342.649C342.717 27.265 342.82 26.9573 342.854 26.7521L343.982 22.718H345.281Z" fill="#1F3D8C"/>
<path d="M348.871 27.5385L348.94 28.3248C348.461 28.5299 347.88 28.6325 347.128 28.6325C346.341 28.6325 345.794 28.4615 345.487 28.0855C345.179 27.7094 345.077 27.1624 345.179 26.3761C345.282 25.5556 345.521 25.0085 345.863 24.7009C346.239 24.3932 346.786 24.2564 347.572 24.2564C348.29 24.2564 348.803 24.3932 349.042 24.6325C349.316 24.8718 349.384 25.2137 349.316 25.6923C349.247 26.0684 349.111 26.3761 348.837 26.547C348.564 26.7179 348.153 26.8205 347.606 26.8547L346.376 26.9573C346.376 27.2308 346.444 27.4017 346.581 27.5043C346.718 27.6068 346.923 27.641 347.196 27.641C347.812 27.641 348.359 27.6068 348.871 27.5385ZM346.512 26.2051L347.47 26.1026C347.709 26.1026 347.846 26.0342 347.948 25.9658C348.051 25.8974 348.119 25.7607 348.153 25.5556C348.153 25.3846 348.119 25.2479 348.051 25.2137C347.948 25.1795 347.777 25.1453 347.504 25.1453C347.162 25.1453 346.957 25.2137 346.82 25.3504C346.683 25.4872 346.615 25.7949 346.512 26.2051Z" fill="#1F3D8C"/>
<path d="M351.846 22.6495L351.675 24.0854C351.641 24.4615 351.539 24.7692 351.436 25.0769C351.983 24.5641 352.53 24.2906 353.077 24.2906C353.59 24.2906 353.932 24.4615 354.103 24.8034C354.274 25.1453 354.308 25.7265 354.205 26.5128C354.103 27.2991 353.863 27.8461 353.556 28.188C353.214 28.4957 352.735 28.6666 352.051 28.6666C351.709 28.6666 351.333 28.6324 350.889 28.5641C350.444 28.4957 350.103 28.4273 349.829 28.3248L350.615 22.6495H351.846ZM351.402 25.8974L351.162 27.7094C351.539 27.7094 351.744 27.7094 351.812 27.7094C352.222 27.7094 352.496 27.6068 352.633 27.47C352.769 27.2991 352.872 26.9572 352.974 26.4102C353.043 25.9316 353.043 25.6239 353.009 25.4871C352.974 25.3504 352.838 25.282 352.667 25.282C352.291 25.282 351.88 25.4871 351.402 25.8974Z" fill="#1F3D8C"/>
<path d="M358.17 24.3932V25.1795C358.41 24.9402 358.683 24.7009 358.991 24.5299C359.299 24.359 359.606 24.2564 359.914 24.2564C360.393 24.2564 360.734 24.4273 360.94 24.7692C361.111 25.1111 361.145 25.6923 361.042 26.5128C361.008 26.8547 360.94 27.1624 360.837 27.4359C360.734 27.6752 360.666 27.8803 360.529 28.0513C360.427 28.188 360.29 28.3248 360.119 28.3932C359.948 28.4615 359.811 28.5299 359.64 28.5641C359.47 28.5983 359.299 28.5983 359.059 28.5983C358.649 28.5983 358.239 28.5641 357.828 28.4957C357.828 28.7692 357.794 29.0085 357.76 29.2821L357.623 30.1026H356.393L357.179 24.3932H358.17ZM357.965 27.7778H358.615C359.025 27.7778 359.333 27.7094 359.47 27.5726C359.606 27.4359 359.709 27.094 359.777 26.547C359.846 26.0342 359.846 25.6923 359.811 25.5214C359.777 25.3846 359.64 25.2821 359.47 25.2821C359.333 25.2821 359.128 25.3504 358.922 25.453C358.683 25.5897 358.478 25.7265 358.239 25.9658L357.965 27.7778Z" fill="#1F3D8C"/>
<path d="M365.556 28.5299H364.598V27.7778C364.188 28.3248 363.607 28.5983 362.889 28.6325C362.376 28.6325 362 28.4957 361.829 28.1196C361.658 27.7778 361.624 27.1966 361.727 26.3761C361.795 26 361.863 25.6581 361.966 25.4188C362.069 25.1453 362.171 24.9402 362.308 24.8034C362.445 24.6667 362.581 24.5299 362.786 24.4615C362.992 24.3932 363.163 24.3248 363.368 24.3248C363.539 24.2906 363.778 24.2906 364.051 24.2906C364.359 24.2906 364.701 24.3248 365.111 24.359C365.522 24.3932 365.863 24.4615 366.103 24.5299L365.556 28.5299ZM364.769 25.1795H364.154C363.744 25.1795 363.47 25.2479 363.333 25.3846C363.197 25.5214 363.094 25.8632 362.992 26.3761C362.923 26.9231 362.889 27.2649 362.957 27.4017C362.992 27.5385 363.128 27.6068 363.333 27.6068C363.71 27.6068 364.12 27.3333 364.564 26.8205L364.769 25.1795Z" fill="#1F3D8C"/>
<path d="M370.137 24.2564L369.863 25.4188H369.555C369.384 25.4188 369.214 25.453 369.008 25.5214C368.803 25.5897 368.53 25.7265 368.188 25.9316L367.846 28.5299H366.547L367.128 24.3932H368.085V25.1795C368.735 24.5641 369.316 24.2906 369.863 24.2906H370.137V24.2564Z" fill="#1F3D8C"/>
<path d="M374.034 28.5299H373.077V27.7778C372.667 28.3248 372.085 28.5983 371.368 28.6325C370.855 28.6325 370.479 28.4957 370.308 28.1196C370.137 27.7778 370.103 27.1966 370.205 26.3761C370.274 26 370.342 25.6581 370.444 25.4188C370.547 25.1453 370.65 24.9402 370.786 24.8034C370.923 24.6667 371.06 24.5299 371.265 24.4615C371.47 24.3932 371.641 24.3248 371.846 24.3248C372.017 24.2906 372.256 24.2906 372.53 24.2906C372.838 24.2906 373.18 24.3248 373.59 24.359C374 24.3932 374.342 24.4615 374.581 24.5299L374.034 28.5299ZM373.282 25.1795H372.632C372.222 25.1795 371.949 25.2479 371.812 25.3846C371.675 25.5214 371.573 25.8632 371.47 26.3761C371.402 26.9231 371.368 27.2649 371.436 27.4017C371.47 27.5385 371.607 27.6068 371.812 27.6068C372.188 27.6068 372.598 27.3333 373.043 26.8205L373.282 25.1795Z" fill="#1F3D8C"/>
<path d="M303.367 33.829H301.179C301.008 33.829 300.905 33.8632 300.837 33.9316C300.769 34 300.734 34.1026 300.7 34.2735L300.563 35.1624H302.854L302.751 36.0855H300.461L300.324 37.2137C300.29 37.3846 300.324 37.4872 300.393 37.5555C300.461 37.6239 300.563 37.6581 300.7 37.6581H302.854L302.82 38.6154C302.341 38.6837 301.487 38.6837 300.29 38.6837C299.811 38.6837 299.469 38.547 299.264 38.3077C299.059 38.0684 298.957 37.7265 299.025 37.282L299.504 33.9658C299.538 33.6239 299.709 33.3162 299.948 33.1111C300.187 32.906 300.495 32.8034 300.905 32.8034C302.136 32.8034 303.025 32.8376 303.572 32.906L303.367 33.829Z" fill="#1F3D8C"/>
<path d="M305.145 34.4787V35.2308C305.453 34.9231 305.726 34.718 306 34.5812C306.273 34.4445 306.547 34.3761 306.82 34.3761C307.128 34.3761 307.367 34.4445 307.538 34.5812C307.709 34.718 307.812 34.9231 307.846 35.1624C308.359 34.6496 308.906 34.3761 309.418 34.3761C309.794 34.3761 310.068 34.4787 310.273 34.6838C310.444 34.8889 310.512 35.1966 310.478 35.5385L310.034 38.6154H308.803L309.179 35.8462C309.213 35.6752 309.179 35.5385 309.145 35.4701C309.111 35.4017 309.008 35.3676 308.871 35.3676C308.735 35.3676 308.598 35.4017 308.427 35.5043C308.256 35.6069 308.051 35.7436 307.777 36.0171L307.401 38.6496H306.205L306.581 35.8804C306.615 35.7094 306.615 35.6069 306.547 35.5385C306.478 35.4701 306.41 35.4359 306.273 35.4359C306.136 35.4359 305.965 35.4701 305.829 35.5727C305.658 35.6752 305.453 35.812 305.213 36.0513L304.837 38.6838H303.606L304.188 34.547H305.145V34.4787Z" fill="#1F3D8C"/>
<path d="M312.222 38.6496H310.991L311.572 34.5128H312.803L312.222 38.6496ZM312.154 32.6667H312.666C312.94 32.6667 313.042 32.8034 313.008 33.0428L312.94 33.4872C312.906 33.7265 312.769 33.8291 312.53 33.8291H311.983C311.709 33.8291 311.607 33.6923 311.641 33.453L311.709 33.0086C311.778 32.7693 311.914 32.6667 312.154 32.6667Z" fill="#1F3D8C"/>
<path d="M315.368 37.1453L314.376 36.7351C314.034 36.5983 313.795 36.4274 313.658 36.2223C313.522 36.0171 313.487 35.7436 313.522 35.4359C313.556 35.0599 313.727 34.7864 314.034 34.6154C314.308 34.4445 314.787 34.3761 315.402 34.3761C316.154 34.3761 316.804 34.4445 317.316 34.547L317.214 35.3334C316.12 35.3334 315.573 35.2992 315.573 35.2992C315.231 35.2992 315.026 35.2992 314.923 35.3334C314.821 35.3676 314.752 35.4359 314.752 35.5043C314.752 35.6069 314.752 35.6752 314.821 35.7094C314.889 35.7436 315.026 35.812 315.197 35.8804L316.222 36.2906C316.564 36.4274 316.804 36.5983 316.94 36.7693C317.077 36.9744 317.145 37.2137 317.077 37.5214C317.043 37.7607 316.975 37.9658 316.872 38.1368C316.769 38.3077 316.633 38.4103 316.462 38.4787C316.291 38.547 316.086 38.6154 315.881 38.6496C315.675 38.6838 315.402 38.6838 315.06 38.6838C314.547 38.6838 313.932 38.6496 313.248 38.547L313.351 37.7607C313.556 37.7607 314 37.7607 314.684 37.7607C315.163 37.7607 315.47 37.7607 315.641 37.7265C315.812 37.6923 315.881 37.624 315.915 37.5214C315.915 37.453 315.915 37.3846 315.846 37.3505C315.778 37.3163 315.675 37.2479 315.539 37.2137C315.436 37.1795 315.402 37.1453 315.368 37.1453Z" fill="#1F3D8C"/>
<path d="M319.778 37.1453L318.786 36.7351C318.445 36.5983 318.205 36.4274 318.068 36.2223C317.932 36.0171 317.898 35.7436 317.932 35.4359C317.966 35.0599 318.137 34.7864 318.445 34.6154C318.718 34.4445 319.197 34.3761 319.812 34.3761C320.564 34.3761 321.214 34.4445 321.727 34.547L321.624 35.3334C320.53 35.3334 319.983 35.2992 319.983 35.2992C319.641 35.2992 319.436 35.2992 319.333 35.3334C319.231 35.3676 319.162 35.4359 319.162 35.5043C319.162 35.6069 319.162 35.6752 319.231 35.7094C319.299 35.7436 319.436 35.812 319.607 35.8804L320.633 36.2906C320.974 36.4274 321.214 36.5983 321.351 36.7693C321.487 36.9744 321.556 37.2137 321.487 37.5214C321.453 37.7607 321.385 37.9658 321.282 38.1368C321.18 38.3077 321.043 38.4103 320.872 38.4787C320.701 38.547 320.496 38.6154 320.291 38.6496C320.086 38.6838 319.812 38.6838 319.47 38.6838C318.957 38.6838 318.342 38.6496 317.658 38.547L317.761 37.7607C317.966 37.7607 318.41 37.7607 319.094 37.7607C319.573 37.7607 319.88 37.7607 320.051 37.7265C320.222 37.6923 320.291 37.624 320.325 37.5214C320.325 37.453 320.325 37.3846 320.256 37.3505C320.188 37.3163 320.086 37.2479 319.949 37.2137C319.846 37.1795 319.812 37.1453 319.778 37.1453Z" fill="#1F3D8C"/>
<path d="M326.068 38.6495H325.111V37.8974C324.701 38.4444 324.12 38.7179 323.402 38.7521C322.889 38.7521 322.513 38.6154 322.342 38.2393C322.171 37.8974 322.137 37.3162 322.239 36.4957C322.308 36.1196 322.376 35.7777 322.479 35.5384C322.581 35.2649 322.684 35.0598 322.821 34.923C322.957 34.7863 323.094 34.6495 323.299 34.5812C323.504 34.5128 323.675 34.4444 323.88 34.4444C324.051 34.4102 324.291 34.4102 324.564 34.4102C324.872 34.4102 325.214 34.4444 325.624 34.4786C326.034 34.5128 326.376 34.5812 326.615 34.6495L326.068 38.6495ZM325.829 32.6324L326.342 32.6666C326.342 33.0427 326.274 33.3504 326.137 33.5555C326 33.7607 325.795 33.829 325.556 33.829C325.35 33.829 325.111 33.7607 324.803 33.6239C324.53 33.4871 324.325 33.4188 324.256 33.4188C324.12 33.3846 324.017 33.4188 323.949 33.4871C323.88 33.5555 323.846 33.6581 323.812 33.829L323.299 33.7948C323.299 33.3846 323.368 33.1111 323.504 32.906C323.641 32.7008 323.846 32.6324 324.051 32.6324C324.222 32.6324 324.462 32.7008 324.735 32.8376C325.009 32.9743 325.214 33.0427 325.316 33.0427C325.453 33.0769 325.59 33.0427 325.624 32.9743C325.761 32.9059 325.829 32.7692 325.829 32.6324ZM325.282 35.2991H324.632C324.222 35.2991 323.949 35.3675 323.812 35.5042C323.675 35.641 323.573 35.9829 323.47 36.4957C323.402 37.0427 323.368 37.3846 323.436 37.5213C323.47 37.6581 323.607 37.7265 323.812 37.7265C324.188 37.7265 324.598 37.453 325.043 36.9401L325.282 35.2991Z" fill="#1F3D8C"/>
<path d="M329.556 34.3761C330.308 34.3761 330.855 34.547 331.162 34.8889C331.47 35.2308 331.573 35.812 331.436 36.5983C331.333 37.3846 331.094 37.9317 330.752 38.2393C330.41 38.547 329.829 38.718 329.077 38.718C328.325 38.718 327.778 38.547 327.47 38.2052C327.162 37.8633 327.06 37.2821 327.162 36.4958C327.265 35.7094 327.504 35.1624 327.846 34.8205C328.188 34.4787 328.804 34.3761 329.556 34.3761ZM329.556 35.2992C329.214 35.2992 328.974 35.4017 328.804 35.5727C328.667 35.7436 328.53 36.0855 328.462 36.6325C328.393 37.1111 328.393 37.4188 328.496 37.5898C328.564 37.7607 328.769 37.8291 329.111 37.8291C329.453 37.8291 329.692 37.7265 329.829 37.5556C329.966 37.3846 330.068 37.0428 330.171 36.5299C330.239 36.0513 330.239 35.7094 330.137 35.5727C330.068 35.3676 329.863 35.2992 329.556 35.2992Z" fill="#1F3D8C"/>
<path d="M338.615 32.7351L337.794 38.6154H336.803V37.8633C336.256 38.4445 335.675 38.718 335.093 38.718C334.615 38.718 334.307 38.547 334.102 38.171C333.897 37.8291 333.863 37.2479 333.965 36.4615C334.034 36.0171 334.102 35.641 334.239 35.3675C334.341 35.094 334.478 34.8547 334.649 34.718C334.82 34.5812 334.991 34.4786 335.196 34.4103C335.367 34.3419 335.606 34.3419 335.846 34.3419C336.29 34.3419 336.734 34.3761 337.179 34.4445C337.179 34.1026 337.213 33.8291 337.247 33.6239L337.384 32.7009H338.615V32.7351ZM337.008 35.2308H336.358C335.948 35.2308 335.675 35.2992 335.538 35.4359C335.401 35.5727 335.299 35.9145 335.23 36.4615C335.162 36.9402 335.162 37.2479 335.196 37.4188C335.23 37.5898 335.367 37.6581 335.572 37.6581C335.777 37.6581 335.982 37.5898 336.153 37.4872C336.324 37.3846 336.563 37.2137 336.803 37.0086L337.008 35.2308Z" fill="#1F3D8C"/>
<path d="M342.616 37.6581L342.684 38.4445C342.205 38.6496 341.624 38.7522 340.872 38.7522C340.086 38.7522 339.539 38.5812 339.231 38.2052C338.923 37.8291 338.821 37.2479 338.923 36.4958C339.026 35.6752 339.265 35.1282 339.607 34.8205C339.983 34.5129 340.53 34.3761 341.316 34.3761C342.034 34.3761 342.547 34.5129 342.786 34.7522C343.06 34.9915 343.128 35.3334 343.06 35.812C342.992 36.1881 342.855 36.4958 342.581 36.6667C342.308 36.8376 341.898 36.9402 341.351 36.9744L340.12 37.077C340.12 37.3505 340.188 37.5214 340.325 37.624C340.462 37.7265 340.667 37.7607 340.94 37.7607C341.556 37.7265 342.103 37.7265 342.616 37.6581ZM340.257 36.3248L341.214 36.2223C341.453 36.2223 341.59 36.1539 341.692 36.0855C341.795 36.0171 341.863 35.8804 341.898 35.6752C341.898 35.5043 341.863 35.3676 341.795 35.3334C341.692 35.2992 341.522 35.265 341.248 35.265C340.906 35.265 340.701 35.3334 340.564 35.4701C340.428 35.6069 340.325 35.8804 340.257 36.3248Z" fill="#1F3D8C"/>
<path d="M351.128 32.8376L350.376 38.2051C350.342 38.5128 350.171 38.6496 349.898 38.6496H349.18C349.043 38.6496 348.94 38.6154 348.906 38.547C348.838 38.4786 348.769 38.3761 348.701 38.2393L347.539 35.1282C347.436 34.8547 347.333 34.547 347.299 34.2393H347.231C347.231 34.5812 347.197 34.8889 347.163 35.1624L346.684 38.6154H345.453L346.205 33.2479C346.239 32.9402 346.41 32.8034 346.684 32.8034H347.402C347.539 32.8034 347.607 32.8376 347.675 32.906C347.744 32.9743 347.812 33.0769 347.846 33.2137L348.975 36.2222C349.111 36.5641 349.214 36.8718 349.282 37.1795H349.385C349.385 36.8376 349.419 36.5299 349.453 36.2564L349.932 32.8376H351.128Z" fill="#1F3D8C"/>
<path d="M353.863 34.3761C354.615 34.3761 355.162 34.547 355.47 34.8889C355.778 35.2308 355.88 35.812 355.744 36.5983C355.641 37.3846 355.402 37.9317 355.06 38.2393C354.718 38.547 354.137 38.718 353.385 38.718C352.632 38.718 352.085 38.547 351.778 38.2052C351.47 37.8633 351.368 37.2821 351.47 36.4958C351.573 35.7094 351.812 35.1624 352.154 34.8205C352.496 34.4787 353.111 34.3761 353.863 34.3761ZM353.863 35.2992C353.521 35.2992 353.282 35.4017 353.111 35.5727C352.974 35.7436 352.838 36.0855 352.769 36.6325C352.701 37.1111 352.701 37.4188 352.803 37.5898C352.872 37.7607 353.077 37.8291 353.419 37.8291C353.761 37.8291 354 37.7265 354.137 37.5556C354.274 37.3846 354.376 37.0428 354.479 36.5299C354.547 36.0513 354.547 35.7094 354.444 35.5727C354.376 35.3676 354.171 35.2992 353.863 35.2992Z" fill="#1F3D8C"/>
<path d="M358.342 35.3333L358.069 37.3162C358.035 37.4871 358.069 37.5897 358.103 37.6239C358.137 37.6923 358.274 37.6923 358.411 37.6923H358.958L359.026 38.5812C358.718 38.6837 358.342 38.7521 357.864 38.7521C357.488 38.7521 357.18 38.6495 356.975 38.4444C356.77 38.2393 356.701 37.9316 356.77 37.5555L357.077 35.3675H356.325L356.428 34.5812L357.18 34.547L357.351 33.3846H358.582L358.411 34.547H359.539L359.436 35.3675H358.342V35.3333Z" fill="#1F3D8C"/>
<path d="M363.675 38.6495H362.718V37.8974C362.307 38.4444 361.726 38.7179 361.008 38.7521C360.495 38.7521 360.119 38.6153 359.948 38.2393C359.777 37.8974 359.743 37.3162 359.846 36.4957C359.914 36.1196 359.983 35.7777 360.085 35.5384C360.188 35.2649 360.29 35.0598 360.427 34.923C360.564 34.7863 360.7 34.6495 360.906 34.5812C361.111 34.5128 361.282 34.4444 361.487 34.4444C361.658 34.4102 361.897 34.4102 362.171 34.4102C362.478 34.4102 362.82 34.4444 363.23 34.4786C363.641 34.5128 363.983 34.5812 364.222 34.6495L363.675 38.6495ZM362.923 35.2991H362.273C361.863 35.2991 361.589 35.3675 361.453 35.5042C361.316 35.641 361.213 35.9829 361.111 36.4957C361.042 37.0427 361.008 37.3846 361.077 37.5213C361.111 37.6581 361.247 37.7265 361.453 37.7265C361.829 37.7265 362.239 37.453 362.683 36.9401L362.923 35.2991Z" fill="#1F3D8C"/>
<path d="M371.094 33.829H368.941C368.77 33.829 368.667 33.8632 368.599 33.9316C368.53 34 368.496 34.1026 368.462 34.2735L368.325 35.1624H370.616L370.513 36.0855H368.223L368.086 37.2137C368.052 37.3846 368.086 37.4872 368.154 37.5555C368.223 37.6239 368.325 37.6581 368.462 37.6581H370.616L370.582 38.6154C370.103 38.6837 369.248 38.6837 368.052 38.6837C367.573 38.6837 367.231 38.547 367.026 38.3077C366.821 38.0684 366.718 37.7265 366.787 37.282L367.265 33.9658C367.3 33.6239 367.47 33.3162 367.71 33.1111C367.949 32.906 368.257 32.8034 368.667 32.8034C369.898 32.8034 370.787 32.8376 371.334 32.906L371.094 33.829Z" fill="#1F3D8C"/>
<path d="M373.385 32.7351L372.735 37.2821C372.701 37.4188 372.735 37.5214 372.769 37.5898C372.838 37.6581 372.94 37.6581 373.111 37.6581H373.487L373.556 38.547C373.351 38.6496 373.043 38.6838 372.599 38.6838C372.222 38.6838 371.915 38.5812 371.71 38.3761C371.505 38.171 371.436 37.8974 371.47 37.5214L372.154 32.7009H373.385V32.7351Z" fill="#1F3D8C"/>
<path d="M377.863 37.6581L377.931 38.4445C377.452 38.6496 376.871 38.7522 376.119 38.7522C375.333 38.7522 374.786 38.5812 374.478 38.2052C374.17 37.8291 374.068 37.2479 374.17 36.4958C374.273 35.6752 374.512 35.1282 374.854 34.8205C375.23 34.5129 375.777 34.3761 376.563 34.3761C377.281 34.3761 377.794 34.5129 378.034 34.7522C378.307 34.9915 378.375 35.3334 378.307 35.812C378.239 36.1881 378.102 36.4958 377.828 36.6667C377.555 36.8376 377.145 36.9402 376.598 36.9744L375.435 37.0428C375.435 37.3163 375.504 37.4872 375.64 37.5898C375.777 37.6923 375.982 37.7265 376.256 37.7265C376.803 37.7265 377.35 37.7265 377.863 37.6581ZM375.504 36.3248L376.461 36.2223C376.7 36.2223 376.837 36.1539 376.94 36.0855C377.042 36.0171 377.11 35.8804 377.145 35.6752C377.145 35.5043 377.11 35.3676 377.042 35.3334C376.94 35.2992 376.769 35.265 376.495 35.265C376.153 35.265 375.948 35.3334 375.811 35.4701C375.675 35.6069 375.572 35.8804 375.504 36.3248Z" fill="#1F3D8C"/>
<path d="M380.837 35.3333L380.564 37.3162C380.53 37.4871 380.564 37.5897 380.598 37.6239C380.632 37.6923 380.769 37.6923 380.906 37.6923H381.453L381.521 38.5812C381.213 38.6837 380.837 38.7521 380.359 38.7521C379.983 38.7521 379.675 38.6495 379.47 38.4444C379.265 38.2393 379.196 37.9316 379.265 37.5555L379.572 35.3675H378.854L378.957 34.5812L379.709 34.547L379.88 33.3846H381.111L380.94 34.547H382.068L381.966 35.3675H380.837V35.3333Z" fill="#1F3D8C"/>
<path d="M385.795 34.3761L385.521 35.5385H385.214C385.043 35.5385 384.872 35.5727 384.667 35.6411C384.461 35.7094 384.188 35.8462 383.846 36.0513L383.504 38.6496H382.273L382.855 34.5128H383.812V35.2992C384.461 34.6838 385.043 34.4103 385.59 34.4103H385.795V34.3761Z" fill="#1F3D8C"/>
<path d="M388.222 34.3761C388.974 34.3761 389.521 34.547 389.828 34.8889C390.136 35.2308 390.239 35.812 390.102 36.5983C389.999 37.3846 389.76 37.9316 389.418 38.2393C389.076 38.547 388.495 38.718 387.743 38.718C386.991 38.718 386.444 38.547 386.136 38.2051C385.828 37.8633 385.726 37.2821 385.829 36.4957C385.931 35.7094 386.17 35.1624 386.512 34.8205C386.854 34.4786 387.47 34.3761 388.222 34.3761ZM389.999 33.6581L389.623 34.1026L388.529 33.2821H388.461L387.162 34.1026L386.854 33.6239L388.085 32.4957H388.94L389.999 33.6581ZM388.222 35.2991C387.88 35.2991 387.64 35.4017 387.47 35.5727C387.333 35.7436 387.196 36.0855 387.128 36.6325C387.059 37.1111 387.059 37.4188 387.162 37.5897C387.23 37.7607 387.435 37.8291 387.777 37.8291C388.119 37.8291 388.358 37.7265 388.495 37.5556C388.632 37.3846 388.734 37.0427 388.837 36.5299C388.905 36.0513 388.905 35.7094 388.803 35.5727C388.734 35.3675 388.529 35.2991 388.222 35.2991Z" fill="#1F3D8C"/>
<path d="M392.222 34.4786V35.2991C392.872 34.6837 393.487 34.3419 394.102 34.3419C394.444 34.3419 394.718 34.4444 394.923 34.6496C395.128 34.8547 395.196 35.1282 395.128 35.5043L394.684 38.5812H393.453L393.829 35.8461C393.863 35.641 393.863 35.5043 393.829 35.4359C393.795 35.3675 393.692 35.3333 393.555 35.3333C393.248 35.3333 392.803 35.5726 392.256 35.9829L391.914 38.547H390.684L391.265 34.4102H392.222V34.4786Z" fill="#1F3D8C"/>
<path d="M396.974 38.6496H395.743L396.324 34.5128H397.555L396.974 38.6496ZM396.906 32.6667H397.418C397.692 32.6667 397.794 32.8034 397.76 33.0428L397.692 33.4872C397.658 33.7265 397.521 33.8291 397.282 33.8291H396.735C396.461 33.8291 396.359 33.6923 396.393 33.453L396.461 33.0086C396.529 32.7693 396.666 32.6667 396.906 32.6667Z" fill="#1F3D8C"/>
<path d="M401.521 37.6581L401.589 38.4786C401.179 38.6495 400.632 38.7521 399.982 38.7521C399.23 38.7521 398.717 38.5812 398.41 38.2393C398.102 37.8974 398.034 37.3162 398.136 36.5299C398.239 35.7436 398.478 35.1965 398.82 34.8889C399.162 34.5812 399.709 34.4102 400.427 34.4102C401.076 34.4102 401.623 34.5128 402.034 34.6837L401.863 35.4359C401.213 35.4359 400.803 35.4359 400.598 35.4359C400.222 35.4359 399.948 35.5042 399.777 35.6752C399.606 35.8461 399.504 36.1538 399.435 36.6324C399.367 37.1111 399.401 37.453 399.504 37.5897C399.606 37.7265 399.846 37.7948 400.222 37.7948C400.735 37.7265 401.145 37.6923 401.521 37.6581Z" fill="#1F3D8C"/>
<path d="M406.205 38.6495H405.248V37.8974C404.838 38.4444 404.256 38.7179 403.538 38.7521C403.026 38.7521 402.65 38.6153 402.479 38.2393C402.308 37.8974 402.273 37.3162 402.376 36.4957C402.444 36.1196 402.513 35.7777 402.615 35.5384C402.718 35.2649 402.821 35.0598 402.957 34.923C403.094 34.7863 403.231 34.6495 403.436 34.5812C403.641 34.5128 403.812 34.4444 404.017 34.4444C404.188 34.4102 404.427 34.4102 404.701 34.4102C405.009 34.4102 405.35 34.4444 405.761 34.4786C406.171 34.5128 406.513 34.5812 406.752 34.6495L406.205 38.6495ZM405.419 35.2991H404.769C404.359 35.2991 404.085 35.3675 403.949 35.5042C403.812 35.641 403.709 35.9829 403.607 36.4957C403.538 37.0427 403.504 37.3846 403.573 37.5213C403.607 37.6581 403.744 37.7265 403.949 37.7265C404.325 37.7265 404.735 37.453 405.179 36.9401L405.419 35.2991Z" fill="#1F3D8C"/>
<path d="M302.137 45.7265C302.137 45.7949 302.102 45.8291 302.068 45.8632C302.034 45.9316 302 45.9316 301.931 45.9316H301.453C301.384 45.9316 301.35 45.9316 301.316 45.8974C301.282 45.8632 301.248 45.8291 301.248 45.7607L300.188 42.7863C300.119 42.5812 300.051 42.3761 300.017 42.2393H299.914C299.914 42.4103 299.88 42.5812 299.88 42.7863L299.436 45.9316H298.889L299.436 41.9316C299.436 41.8632 299.47 41.8291 299.504 41.7949C299.538 41.7607 299.607 41.7607 299.641 41.7607H300.119C300.188 41.7607 300.222 41.7607 300.256 41.7949C300.29 41.8291 300.325 41.8632 300.325 41.9316L301.35 44.8376C301.453 45.1111 301.521 45.3162 301.555 45.453H301.658C301.658 45.2137 301.692 45.0427 301.726 44.8376L302.137 41.7607H302.649L302.137 45.7265Z" fill="#1F3D8C"/>
<path d="M304.29 42.2735C304.222 42.3419 304.188 42.4444 304.154 42.6154L304.017 43.6068H305.76L305.692 43.9829H303.948L303.675 45.9316H303.128L303.641 42.4786C303.675 42.2393 303.778 42.0684 303.914 41.9316C304.051 41.7949 304.256 41.7265 304.53 41.7265C304.837 41.7265 305.145 41.7265 305.453 41.7265C305.76 41.7265 306.034 41.7265 306.273 41.7607L306.205 42.1709H304.632C304.461 42.1709 304.359 42.2051 304.29 42.2735Z" fill="#1F3D8C"/>
<path d="M308.325 44.5983H306.479L306.547 44.188H308.393L308.325 44.5983Z" fill="#1F3D8C"/>
<path d="M311.572 43.0598C311.743 43.1624 311.845 43.3675 311.845 43.6068C311.845 43.6752 311.845 43.7436 311.811 43.8461C311.777 44.1196 311.64 44.3248 311.469 44.4615C311.298 44.5983 311.025 44.6666 310.683 44.7008L309.589 44.8034C309.589 45.0085 309.623 45.1795 309.657 45.282C309.692 45.3846 309.794 45.4871 309.897 45.5213C309.999 45.5555 310.17 45.5897 310.341 45.5897C310.683 45.5897 311.059 45.5555 311.435 45.5213L311.469 45.8632C311.333 45.9316 311.127 45.9658 310.922 46C310.683 46.0342 310.478 46.0342 310.273 46.0342C309.828 46.0342 309.521 45.9316 309.316 45.7607C309.11 45.5897 309.008 45.282 309.008 44.8718C309.008 44.735 309.008 44.5641 309.042 44.3931C309.11 43.9829 309.179 43.7094 309.316 43.4701C309.418 43.2649 309.589 43.094 309.828 43.0256C310.033 42.923 310.341 42.8889 310.683 42.8889C311.127 42.8889 311.401 42.9572 311.572 43.0598ZM311.333 43.6752C311.333 43.5726 311.298 43.5042 311.264 43.4359C311.23 43.4017 311.162 43.3675 311.059 43.3333C310.957 43.3333 310.854 43.2991 310.683 43.2991C310.444 43.2991 310.273 43.3333 310.136 43.3675C309.999 43.4017 309.897 43.5384 309.828 43.6752C309.76 43.8119 309.692 44.0512 309.657 44.3589L310.717 44.2564C310.922 44.2564 311.059 44.188 311.162 44.1196C311.264 44.0512 311.298 43.9487 311.333 43.7777C311.333 43.7436 311.333 43.6752 311.333 43.6752Z" fill="#1F3D8C"/>
<path d="M316.974 45.7265C316.974 45.7949 316.94 45.8291 316.906 45.8632C316.872 45.8974 316.838 45.8974 316.769 45.8974H316.291C316.222 45.8974 316.188 45.8974 316.154 45.8632C316.12 45.8291 316.086 45.7949 316.086 45.7265L315.026 42.7521C314.957 42.547 314.889 42.3419 314.855 42.2051H314.752C314.752 42.3761 314.718 42.547 314.718 42.7521L314.239 45.9316H313.692L314.239 41.9316C314.239 41.8632 314.274 41.8291 314.308 41.7949C314.342 41.7607 314.41 41.7607 314.445 41.7607H314.923C314.992 41.7607 315.026 41.7607 315.06 41.7949C315.094 41.8291 315.128 41.8632 315.128 41.9316L316.154 44.8376C316.256 45.1111 316.325 45.3162 316.359 45.453H316.462C316.462 45.2137 316.496 45.0427 316.53 44.8376L316.94 41.7607H317.453L316.974 45.7265Z" fill="#1F3D8C"/>
<path d="M319.128 42.2735C319.06 42.3419 319.026 42.4444 318.991 42.6154L318.855 43.6068H320.598L320.53 44.0171H318.786L318.513 45.9658H317.966L318.444 42.5128C318.479 42.2735 318.581 42.1026 318.718 41.9658C318.855 41.8291 319.06 41.7607 319.333 41.7607C319.641 41.7607 319.949 41.7607 320.256 41.7607C320.564 41.7607 320.838 41.7607 321.077 41.7949L321.009 42.2051H319.436C319.299 42.1709 319.197 42.2051 319.128 42.2735Z" fill="#1F3D8C"/>
<path d="M324.221 41.7948L324.153 42.1709C323.64 42.1367 323.196 42.1367 322.82 42.1367C322.649 42.1367 322.512 42.1367 322.409 42.1709C322.307 42.2051 322.239 42.2393 322.17 42.3418C322.102 42.4444 322.068 42.5812 322.033 42.7521C322.033 42.7863 322.033 42.8547 322.033 42.9572C322.033 43.094 322.068 43.1966 322.136 43.2307C322.204 43.2991 322.307 43.3675 322.478 43.4017L323.298 43.7094C323.572 43.8119 323.743 43.9145 323.845 44.0513C323.948 44.188 324.016 44.3589 324.016 44.5983C324.016 44.6666 324.016 44.7692 323.982 44.906C323.948 45.2136 323.88 45.4188 323.743 45.5897C323.64 45.7607 323.469 45.8632 323.264 45.8974C323.059 45.9658 322.786 45.9658 322.409 45.9658C321.965 45.9658 321.555 45.9316 321.145 45.8632L321.213 45.453C321.452 45.453 321.589 45.453 321.657 45.453C321.965 45.453 322.17 45.4871 322.273 45.4871C322.58 45.4871 322.786 45.4871 322.922 45.453C323.059 45.4188 323.196 45.3504 323.264 45.282C323.333 45.1795 323.401 45.0427 323.435 44.8376C323.435 44.8034 323.435 44.735 323.435 44.6324C323.435 44.4957 323.401 44.3931 323.333 44.3248C323.264 44.2564 323.162 44.188 322.991 44.1538L322.17 43.8461C321.931 43.7436 321.76 43.641 321.623 43.4701C321.521 43.3333 321.452 43.1282 321.452 42.923C321.452 42.8547 321.452 42.7521 321.486 42.6837C321.521 42.376 321.623 42.1367 321.726 42C321.828 41.8632 321.999 41.7607 322.204 41.6923C322.409 41.6581 322.649 41.6239 322.956 41.6239C323.504 41.6581 323.914 41.7265 324.221 41.7948Z" fill="#1F3D8C"/>
<path d="M326.616 44.5983H324.77L324.838 44.188H326.684L326.616 44.5983Z" fill="#1F3D8C"/>
<path d="M329.863 43.0598C330.034 43.1624 330.136 43.3675 330.136 43.6068C330.136 43.6752 330.136 43.7436 330.102 43.8461C330.068 44.1196 329.931 44.3248 329.76 44.4615C329.589 44.5983 329.316 44.6666 328.974 44.7008L327.88 44.8034C327.88 45.0085 327.914 45.1795 327.948 45.282C327.983 45.3846 328.085 45.4871 328.188 45.5213C328.29 45.5555 328.461 45.5897 328.632 45.5897C328.974 45.5897 329.35 45.5555 329.726 45.5213L329.76 45.8632C329.624 45.9316 329.418 45.9658 329.213 46C328.974 46.0342 328.769 46.0342 328.564 46.0342C328.119 46.0342 327.812 45.9316 327.607 45.7607C327.401 45.5897 327.299 45.282 327.299 44.8718C327.299 44.735 327.299 44.5641 327.333 44.3931C327.401 43.9829 327.47 43.7094 327.607 43.4701C327.709 43.2649 327.88 43.094 328.119 43.0256C328.324 42.923 328.632 42.8889 328.974 42.8889C329.418 42.8889 329.692 42.9572 329.863 43.0598ZM329.624 43.6752C329.624 43.5726 329.589 43.5042 329.555 43.4359C329.521 43.4017 329.453 43.3675 329.35 43.3333C329.248 43.3333 329.145 43.2991 328.974 43.2991C328.735 43.2991 328.564 43.3333 328.427 43.3675C328.29 43.4017 328.188 43.5384 328.119 43.6752C328.051 43.8119 327.983 44.0512 327.948 44.3589L329.008 44.2564C329.213 44.2564 329.35 44.188 329.453 44.1196C329.555 44.0512 329.589 43.9487 329.624 43.7777C329.624 43.7436 329.624 43.6752 329.624 43.6752Z" fill="#1F3D8C"/>
<path d="M334.683 41.6923C334.854 41.7265 335.025 41.7607 335.196 41.7949L335.128 42.2051C334.923 42.171 334.752 42.171 334.615 42.171C334.478 42.171 334.273 42.171 334.068 42.171C333.794 42.171 333.555 42.2051 333.384 42.3077C333.213 42.4103 333.076 42.5812 332.974 42.8205C332.871 43.0598 332.769 43.4017 332.735 43.8804C332.7 44.1539 332.666 44.3932 332.666 44.5983C332.666 44.9402 332.735 45.1795 332.871 45.3163C333.008 45.453 333.213 45.5214 333.555 45.5214C333.999 45.5214 334.376 45.4872 334.752 45.453L334.786 45.8633C334.615 45.8975 334.41 45.9316 334.239 45.9658C334.068 46 333.829 46 333.555 46C333.076 46 332.7 45.8975 332.461 45.6581C332.222 45.4188 332.119 45.0428 332.119 44.5641C332.119 44.3932 332.153 44.1539 332.188 43.8462C332.256 43.2992 332.393 42.8889 332.529 42.5812C332.666 42.2735 332.871 42.0342 333.111 41.8975C333.35 41.7607 333.692 41.6923 334.102 41.6923C334.307 41.6581 334.512 41.6581 334.683 41.6923Z" fill="#1F3D8C"/>
<path d="M338.786 42.2051H337.418L336.906 45.9316H336.359L336.871 42.2051H335.538L335.606 41.7265H338.854L338.786 42.2051Z" fill="#1F3D8C"/>
<path d="M340.53 44.5983H338.684L338.752 44.188H340.598L340.53 44.5983Z" fill="#1F3D8C"/>
<path d="M343.812 43.0598C343.983 43.1624 344.086 43.3675 344.086 43.6068C344.086 43.6752 344.086 43.7436 344.051 43.8461C344.017 44.1196 343.881 44.3248 343.71 44.4615C343.539 44.5983 343.265 44.6666 342.923 44.7008L341.829 44.8034C341.829 45.0085 341.863 45.1795 341.898 45.282C341.932 45.3846 342.034 45.4871 342.137 45.5213C342.24 45.5555 342.41 45.5897 342.581 45.5897C342.923 45.5897 343.299 45.5555 343.675 45.5213L343.71 45.8632C343.573 45.9316 343.368 45.9658 343.163 46C342.923 46.0342 342.718 46.0342 342.513 46.0342C342.069 46.0342 341.761 45.9316 341.556 45.7607C341.351 45.5897 341.248 45.282 341.248 44.8718C341.248 44.735 341.248 44.5641 341.282 44.3931C341.351 43.9829 341.419 43.7094 341.556 43.4701C341.658 43.2649 341.829 43.094 342.069 43.0256C342.274 42.923 342.581 42.8889 342.923 42.8889C343.334 42.8889 343.607 42.9572 343.812 43.0598ZM343.539 43.6752C343.539 43.5726 343.504 43.5042 343.47 43.4359C343.436 43.4017 343.368 43.3675 343.265 43.3333C343.163 43.3333 343.06 43.2991 342.889 43.2991C342.65 43.2991 342.479 43.3333 342.342 43.3675C342.205 43.4017 342.103 43.5384 342.034 43.6752C341.966 43.8119 341.898 44.0512 341.863 44.3589L342.923 44.2564C343.128 44.2564 343.265 44.188 343.368 44.1196C343.47 44.0512 343.504 43.9487 343.539 43.7777C343.539 43.7436 343.539 43.6752 343.539 43.6752Z" fill="#1F3D8C"/>
<path d="M349.18 45.7265C349.18 45.7949 349.145 45.8291 349.111 45.8633C349.077 45.8974 349.043 45.8974 348.974 45.8974H348.496C348.427 45.8974 348.393 45.8974 348.359 45.8633C348.325 45.8291 348.291 45.7949 348.291 45.7265L347.231 42.7521C347.162 42.547 347.094 42.3419 347.06 42.2051H346.957C346.957 42.3761 346.923 42.547 346.923 42.7521L346.479 45.8974H345.932L346.479 41.8974C346.479 41.8291 346.513 41.7949 346.547 41.7607C346.581 41.7265 346.65 41.7265 346.684 41.7265H347.162C347.231 41.7265 347.265 41.7265 347.299 41.7607C347.333 41.7949 347.368 41.8291 347.368 41.8974L348.393 44.8034C348.496 45.0769 348.564 45.2821 348.598 45.4188H348.701C348.701 45.1795 348.735 45.0085 348.769 44.8034L349.18 41.7265H349.692L349.18 45.7265Z" fill="#1F3D8C"/>
<path d="M351.333 42.2735C351.265 42.3419 351.231 42.4444 351.197 42.6154L351.06 43.6068H352.803L352.735 44.0171H350.991L350.718 45.9658H350.171L350.65 42.5128C350.684 42.2735 350.786 42.1026 350.923 41.9658C351.06 41.8291 351.265 41.7607 351.538 41.7607C351.846 41.7607 352.154 41.7607 352.462 41.7607C352.769 41.7607 353.043 41.7607 353.282 41.7949L353.214 42.2051H351.641C351.504 42.1709 351.402 42.2051 351.333 42.2735Z" fill="#1F3D8C"/>
<path d="M356.12 41.6923C356.291 41.7265 356.462 41.7607 356.633 41.7949L356.564 42.2051C356.359 42.171 356.188 42.171 356.051 42.171C355.915 42.171 355.71 42.171 355.504 42.171C355.231 42.171 354.992 42.2051 354.821 42.3077C354.65 42.4103 354.513 42.5812 354.41 42.8205C354.308 43.0598 354.205 43.4017 354.171 43.8804C354.137 44.1539 354.103 44.3932 354.103 44.5983C354.103 44.9402 354.171 45.1795 354.308 45.3163C354.445 45.453 354.65 45.5214 354.992 45.5214C355.436 45.5214 355.812 45.4872 356.188 45.453L356.222 45.8633C356.051 45.8975 355.846 45.9316 355.675 45.9658C355.504 46 355.265 46 354.992 46C354.513 46 354.137 45.8975 353.898 45.6581C353.658 45.4188 353.556 45.0428 353.556 44.5641C353.556 44.3932 353.59 44.1539 353.624 43.8462C353.692 43.2992 353.829 42.8889 353.966 42.5812C354.103 42.2735 354.308 42.0342 354.547 41.8975C354.786 41.7607 355.128 41.6923 355.539 41.6923C355.744 41.6581 355.949 41.6581 356.12 41.6923Z" fill="#1F3D8C"/>
<path d="M358.717 44.5983H356.871L356.939 44.188H358.786L358.717 44.5983Z" fill="#1F3D8C"/>
<path d="M361.965 43.0598C362.136 43.1624 362.239 43.3675 362.239 43.6068C362.239 43.6752 362.239 43.7436 362.205 43.8461C362.171 44.1196 362.034 44.3248 361.863 44.4615C361.692 44.5983 361.418 44.6666 361.077 44.7008L359.983 44.8034C359.983 45.0085 360.017 45.1795 360.051 45.282C360.085 45.3846 360.188 45.4871 360.29 45.5213C360.393 45.5555 360.564 45.5897 360.735 45.5897C361.077 45.5897 361.453 45.5555 361.829 45.5213L361.863 45.8632C361.726 45.9316 361.521 45.9658 361.316 46C361.077 46.0342 360.871 46.0342 360.666 46.0342C360.222 46.0342 359.914 45.9316 359.709 45.7607C359.504 45.5897 359.401 45.282 359.401 44.8718C359.401 44.735 359.401 44.5641 359.436 44.3931C359.504 43.9829 359.572 43.7094 359.709 43.4701C359.812 43.2649 359.983 43.094 360.222 43.0256C360.427 42.923 360.735 42.8889 361.077 42.8889C361.521 42.8889 361.795 42.9572 361.965 43.0598ZM361.726 43.6752C361.726 43.5726 361.692 43.5042 361.658 43.4359C361.624 43.4017 361.555 43.3675 361.453 43.3333C361.35 43.3333 361.248 43.2991 361.077 43.2991C360.837 43.2991 360.666 43.3333 360.53 43.3675C360.393 43.4017 360.29 43.5384 360.222 43.6752C360.154 43.8119 360.085 44.0512 360.051 44.3589L361.111 44.2564C361.316 44.2564 361.453 44.188 361.555 44.1196C361.658 44.0512 361.692 43.9487 361.726 43.7777C361.726 43.7436 361.726 43.6752 361.726 43.6752Z" fill="#1F3D8C"/>
<path d="M289.35 22H279.162C278.513 22 278 22.5128 278 23.1624V36.4957C278 37.1453 278.513 37.6581 279.162 37.6581H289.35C290 37.6581 290.513 37.1453 290.513 36.4957V23.1624C290.513 22.5128 290 22 289.35 22ZM287.094 32.0171L283.47 35.6752L281.419 33.5897C281.145 33.3162 281.145 32.8376 281.419 32.5299C281.692 32.2564 282.171 32.2564 282.479 32.5299L283.504 33.5556L286.068 30.9915C286.342 30.7179 286.821 30.7179 287.128 30.9915C287.402 31.265 287.402 31.7436 287.094 32.0171ZM287.846 28.8718H280.667C280.291 28.8718 279.949 28.5641 279.949 28.1538C279.949 27.7778 280.256 27.4359 280.667 27.4359H287.846C288.222 27.4359 288.564 27.7436 288.564 28.1538C288.564 28.5641 288.256 28.8718 287.846 28.8718ZM287.846 25.5556H280.667C280.291 25.5556 279.949 25.2479 279.949 24.8376C279.949 24.4274 280.256 24.1197 280.667 24.1197H287.846C288.222 24.1197 288.564 24.4274 288.564 24.8376C288.564 25.2479 288.256 25.5556 287.846 25.5556Z" fill="#F07E26"/>
</g>
<path d="M334.66 317.422H296.879C295.237 317.422 294.142 318.46 294.142 320.017C294.142 321.574 295.237 322.612 296.879 322.612H334.66C336.303 322.612 337.398 321.574 337.398 320.017C337.398 318.46 336.303 317.422 334.66 317.422Z" fill="url(#paint8_linear)"/>
<path d="M434.999 317.422H355.723C354.071 317.422 352.97 318.46 352.97 320.017C352.97 321.574 354.071 322.612 355.723 322.612H434.999C436.651 322.612 437.752 321.574 437.752 320.017C437.752 318.46 436.651 317.422 434.999 317.422Z" fill="url(#paint9_linear)"/>
<path d="M519.743 317.422H456.115C454.44 317.422 453.324 318.46 453.324 320.017C453.324 321.574 454.44 322.612 456.115 322.612H519.743C521.418 322.612 522.534 321.574 522.534 320.017C522.534 318.46 520.86 317.422 519.743 317.422Z" fill="url(#paint10_linear)"/>
<path d="M362.289 341.643H296.935C295.259 341.643 294.142 342.681 294.142 344.238C294.142 345.796 295.259 346.834 296.935 346.834H362.289C363.964 346.834 365.082 345.796 365.082 344.238C365.082 342.681 363.964 341.643 362.289 341.643Z" fill="url(#paint11_linear)"/>
<path d="M473.067 341.643H383.404C381.754 341.643 380.654 342.681 380.654 344.238C380.654 345.796 381.754 346.834 383.404 346.834H473.067C474.717 346.834 475.817 345.796 475.817 344.238C475.817 342.681 474.717 341.643 473.067 341.643Z" fill="url(#paint12_linear)"/>
<path d="M519.748 341.643H492.445C490.774 341.643 489.659 342.681 489.659 344.238C489.659 345.796 490.774 346.834 492.445 346.834H519.748C521.42 346.834 522.534 345.796 522.534 344.238C522.534 342.681 521.42 341.643 519.748 341.643Z" fill="url(#paint13_linear)"/>
<path d="M334.66 365.865H296.879C295.237 365.865 294.142 366.903 294.142 368.46C294.142 370.017 295.237 371.055 296.879 371.055H334.66C336.303 371.055 337.398 370.017 337.398 368.46C337.398 366.903 336.303 365.865 334.66 365.865Z" fill="url(#paint14_linear)"/>
<path d="M434.999 365.865H355.723C354.071 365.865 352.97 366.903 352.97 368.46C352.97 370.017 354.071 371.055 355.723 371.055H434.999C436.651 371.055 437.752 370.017 437.752 368.46C437.752 366.903 436.651 365.865 434.999 365.865Z" fill="url(#paint15_linear)"/>
<path d="M519.743 365.865H456.115C454.44 365.865 453.324 366.903 453.324 368.46C453.324 370.017 454.44 371.055 456.115 371.055H519.743C521.418 371.055 522.534 370.017 522.534 368.46C522.534 366.903 520.86 365.865 519.743 365.865Z" fill="url(#paint16_linear)"/>
<path d="M362.289 390.087H296.935C295.259 390.087 294.142 391.125 294.142 392.682C294.142 394.239 295.259 395.277 296.935 395.277H362.289C363.964 395.277 365.082 394.239 365.082 392.682C365.082 391.125 363.964 390.087 362.289 390.087Z" fill="url(#paint17_linear)"/>
<path d="M473.067 390.087H383.404C381.754 390.087 380.654 391.125 380.654 392.682C380.654 394.239 381.754 395.277 383.404 395.277H473.067C474.717 395.277 475.817 394.239 475.817 392.682C475.817 391.125 474.717 390.087 473.067 390.087Z" fill="url(#paint18_linear)"/>
<path d="M519.748 390.087H492.445C490.774 390.087 489.659 391.125 489.659 392.682C489.659 394.239 490.774 395.277 492.445 395.277H519.748C521.42 395.277 522.534 394.239 522.534 392.682C522.534 391.125 521.42 390.087 519.748 390.087Z" fill="url(#paint19_linear)"/>
<path d="M340.15 500.814H395.203C396.855 500.814 397.956 499.776 397.956 498.219C397.956 496.662 396.855 495.624 395.203 495.624H340.15C338.499 495.624 337.397 496.662 337.397 498.219C337.397 499.776 338.499 500.814 340.15 500.814Z" fill="#FFCAA0"/>
<path d="M236.309 500.814H320.829C322.465 500.814 323.556 499.776 323.556 498.219C323.556 496.662 322.465 495.624 320.829 495.624H236.309C234.674 495.624 233.583 496.662 233.583 498.219C233.583 499.776 235.219 500.814 236.309 500.814Z" fill="#FFCAA0"/>
<path d="M277.88 525.036H343.278C344.941 525.036 346.049 523.998 346.049 522.441C346.049 520.884 344.941 519.846 343.278 519.846H277.88C276.218 519.846 275.109 520.884 275.109 522.441C275.109 523.998 276.218 525.036 277.88 525.036Z" fill="#FFCAA0"/>
<path d="M236.268 525.036H262.043C263.653 525.036 264.727 523.998 264.727 522.441C264.727 520.884 263.653 519.846 262.043 519.846H236.268C234.657 519.846 233.583 520.884 233.583 522.441C233.583 523.998 234.657 525.036 236.268 525.036Z" fill="#FFCAA0"/>
<path d="M199.747 493.894L183.406 513.617H198.113L196.479 526.766L212.82 507.043H198.113L199.747 493.894Z" stroke="url(#paint20_linear)" stroke-width="2" stroke-linecap="round" stroke-linejoin="round"/>
<defs>
<filter id="filter0_f" x="140.169" y="35.4265" width="404.839" height="702.4" filterUnits="userSpaceOnUse" color-interpolation-filters="sRGB">
<feFlood flood-opacity="0" result="BackgroundImageFix"/>
<feBlend mode="normal" in="SourceGraphic" in2="BackgroundImageFix" result="shape"/>
<feGaussianBlur stdDeviation="32" result="effect1_foregroundBlur"/>
</filter>
<filter id="filter1_f" x="99.2754" y="191.773" width="285.918" height="90.3952" filterUnits="userSpaceOnUse" color-interpolation-filters="sRGB">
<feFlood flood-opacity="0" result="BackgroundImageFix"/>
<feBlend mode="normal" in="SourceGraphic" in2="BackgroundImageFix" result="shape"/>
<feGaussianBlur stdDeviation="4" result="effect1_foregroundBlur"/>
</filter>
<filter id="filter2_f" x="118.959" y="477.894" width="301.918" height="106.395" filterUnits="userSpaceOnUse" color-interpolation-filters="sRGB">
<feFlood flood-opacity="0" result="BackgroundImageFix"/>
<feBlend mode="normal" in="SourceGraphic" in2="BackgroundImageFix" result="shape"/>
<feGaussianBlur stdDeviation="8" result="effect1_foregroundBlur"/>
</filter>
<filter id="filter3_f" x="270.142" y="291.692" width="317.918" height="170.839" filterUnits="userSpaceOnUse" color-interpolation-filters="sRGB">
<feFlood flood-opacity="0" result="BackgroundImageFix"/>
<feBlend mode="normal" in="SourceGraphic" in2="BackgroundImageFix" result="shape"/>
<feGaussianBlur stdDeviation="12" result="effect1_foregroundBlur"/>
</filter>
<filter id="filter4_d" x="225" y="0" width="239" height="89.7618" filterUnits="userSpaceOnUse" color-interpolation-filters="sRGB">
<feFlood flood-opacity="0" result="BackgroundImageFix"/>
<feColorMatrix in="SourceAlpha" type="matrix" values="0 0 0 0 0 0 0 0 0 0 0 0 0 0 0 0 0 0 127 0"/>
<feOffset dx="2" dy="6"/>
<feGaussianBlur stdDeviation="6"/>
<feColorMatrix type="matrix" values="0 0 0 0 0.286275 0 0 0 0 0.145098 0 0 0 0 0.380392 0 0 0 0.06 0"/>
<feBlend mode="normal" in2="BackgroundImageFix" result="effect1_dropShadow"/>
<feBlend mode="normal" in="SourceGraphic" in2="effect1_dropShadow" result="shape"/>
</filter>
<linearGradient id="paint0_linear" x1="-1320.18" y1="-928.265" x2="36.7251" y2="736.72" gradientUnits="userSpaceOnUse">
<stop stop-color="#1F3D8C"/>
<stop offset="0.956793" stop-color="white"/>
</linearGradient>
<linearGradient id="paint1_linear" x1="-1233.66" y1="-1052.83" x2="123.238" y2="612.151" gradientUnits="userSpaceOnUse">
<stop stop-color="#213A8F"/>
<stop offset="0.956793" stop-color="white"/>
</linearGradient>
<linearGradient id="paint2_linear" x1="204.169" y1="384.969" x2="481.134" y2="384.969" gradientUnits="userSpaceOnUse">
<stop stop-color="#213667"/>
<stop offset="1" stop-color="#506EB3"/>
</linearGradient>
<linearGradient id="paint3_linear" x1="-749" y1="1217.5" x2="-643.655" y2="-221.016" gradientUnits="userSpaceOnUse">
<stop stop-color="#F3AC78"/>
<stop offset="1" stop-color="#F07E26"/>
</linearGradient>
<linearGradient id="paint4_linear" x1="196.5" y1="143.5" x2="372.041" y2="125.369" gradientUnits="userSpaceOnUse">
<stop stop-color="#213667"/>
<stop offset="1" stop-color="#506EB3"/>
</linearGradient>
<linearGradient id="paint5_linear" x1="368" y1="147.5" x2="396.231" y2="125.364" gradientUnits="userSpaceOnUse">
<stop stop-color="#213667"/>
<stop offset="1" stop-color="#506EB3"/>
</linearGradient>
<linearGradient id="paint6_linear" x1="271.5" y1="603.5" x2="378" y2="667.5" gradientUnits="userSpaceOnUse">
<stop stop-color="#213667"/>
<stop offset="1" stop-color="#506EB3"/>
</linearGradient>
<linearGradient id="paint7_linear" x1="-20" y1="591.5" x2="694" y2="248" gradientUnits="userSpaceOnUse">
<stop stop-color="#F4B78D"/>
<stop offset="1" stop-color="#F8B44C"/>
</linearGradient>
<linearGradient id="paint8_linear" x1="400.552" y1="317.422" x2="294.147" y2="395.284" gradientUnits="userSpaceOnUse">
<stop stop-color="white"/>
<stop offset="1" stop-color="#FFCAA0"/>
</linearGradient>
<linearGradient id="paint9_linear" x1="400.552" y1="317.422" x2="294.147" y2="395.284" gradientUnits="userSpaceOnUse">
<stop stop-color="white"/>
<stop offset="1" stop-color="#FFCAA0"/>
</linearGradient>
<linearGradient id="paint10_linear" x1="400.552" y1="317.422" x2="294.147" y2="395.284" gradientUnits="userSpaceOnUse">
<stop stop-color="white"/>
<stop offset="1" stop-color="#FFCAA0"/>
</linearGradient>
<linearGradient id="paint11_linear" x1="400.552" y1="317.422" x2="294.147" y2="395.284" gradientUnits="userSpaceOnUse">
<stop stop-color="white"/>
<stop offset="1" stop-color="#FFCAA0"/>
</linearGradient>
<linearGradient id="paint12_linear" x1="400.552" y1="317.422" x2="294.147" y2="395.284" gradientUnits="userSpaceOnUse">
<stop stop-color="white"/>
<stop offset="1" stop-color="#FFCAA0"/>
</linearGradient>
<linearGradient id="paint13_linear" x1="400.552" y1="317.422" x2="294.147" y2="395.284" gradientUnits="userSpaceOnUse">
<stop stop-color="white"/>
<stop offset="1" stop-color="#FFCAA0"/>
</linearGradient>
<linearGradient id="paint14_linear" x1="400.552" y1="317.422" x2="294.147" y2="395.284" gradientUnits="userSpaceOnUse">
<stop stop-color="white"/>
<stop offset="1" stop-color="#FFCAA0"/>
</linearGradient>
<linearGradient id="paint15_linear" x1="400.552" y1="317.422" x2="294.147" y2="395.284" gradientUnits="userSpaceOnUse">
<stop stop-color="white"/>
<stop offset="1" stop-color="#FFCAA0"/>
</linearGradient>
<linearGradient id="paint16_linear" x1="400.552" y1="317.422" x2="294.147" y2="395.284" gradientUnits="userSpaceOnUse">
<stop stop-color="white"/>
<stop offset="1" stop-color="#FFCAA0"/>
</linearGradient>
<linearGradient id="paint17_linear" x1="400.552" y1="317.422" x2="294.147" y2="395.284" gradientUnits="userSpaceOnUse">
<stop stop-color="white"/>
<stop offset="1" stop-color="#FFCAA0"/>
</linearGradient>
<linearGradient id="paint18_linear" x1="400.552" y1="317.422" x2="294.147" y2="395.284" gradientUnits="userSpaceOnUse">
<stop stop-color="white"/>
<stop offset="1" stop-color="#FFCAA0"/>
</linearGradient>
<linearGradient id="paint19_linear" x1="400.552" y1="317.422" x2="294.147" y2="395.284" gradientUnits="userSpaceOnUse">
<stop stop-color="white"/>
<stop offset="1" stop-color="#FFCAA0"/>
</linearGradient>
<linearGradient id="paint20_linear" x1="229.258" y1="451.506" x2="147.175" y2="481.687" gradientUnits="userSpaceOnUse">
<stop stop-color="#F8B44C"/>
<stop offset="1" stop-color="#F07E26"/>
</linearGradient>
<clipPath id="clip0">
<rect x="278" y="22" width="128.752" height="24" fill="white"/>
</clipPath>
</defs>
</svg>
