<svg width="34" height="30" viewBox="0 0 34 30" fill="none" xmlns="http://www.w3.org/2000/svg">
<path d="M16.2174 9.52173H3.43478C2.09565 9.52173 1 10.6174 1 11.9565V26.5652C1 27.9043 2.09565 29 3.43478 29H22.913C24.2522 29 25.3478 27.9043 25.3478 26.5652V19.2609" stroke="#F07E26" stroke-width="2" stroke-linecap="round" stroke-linejoin="round"/>
<path d="M1 11.9565L13.1739 20.4783L19.2609 16.2174" stroke="#F07E26" stroke-width="2" stroke-linecap="round" stroke-linejoin="round"/>
<path d="M29.9129 5.26087C29.9129 4.13082 29.464 3.04705 28.6649 2.24798C27.8659 1.44891 26.7821 1 25.652 1C24.522 1 23.4382 1.44891 22.6392 2.24798C21.8401 3.04705 21.3912 4.13082 21.3912 5.26087C21.3912 10.2319 19.2607 11.6522 19.2607 11.6522H32.0434C32.0434 11.6522 29.9129 10.2319 29.9129 5.26087Z" stroke="#DC272B" stroke-width="2" stroke-linecap="round" stroke-linejoin="round"/>
<path d="M26.88 14.4928C26.7551 14.708 26.5759 14.8867 26.3603 15.0109C26.1447 15.1351 25.9002 15.2004 25.6514 15.2004C25.4026 15.2004 25.1581 15.1351 24.9425 15.0109C24.7269 14.8867 24.5477 14.708 24.4229 14.4928" stroke="#DC272B" stroke-width="2" stroke-linecap="round" stroke-linejoin="round"/>
</svg>
