<svg width="36" height="27" viewBox="0 0 36 27" fill="none" xmlns="http://www.w3.org/2000/svg">
<path d="M25 18C26.3199 18.0035 27.6219 17.6951 28.8 17.1L34.5 19L32.6 13.3C33.1951 12.1219 33.5034 10.8199 33.5 9.50003C33.4994 7.92179 33.0594 6.37488 32.2293 5.03258C31.3992 3.69028 30.2117 2.6056 28.8 1.90003C27.6219 1.30496 26.3199 0.996587 25 1.00003H24.5C22.6558 1.10177 20.9021 1.80225 19.5 2.98478" stroke="#DC272B" stroke-width="2" stroke-linecap="round" stroke-linejoin="round"/>
<path d="M22 14.4167C22.004 15.9565 21.6442 17.4756 20.95 18.85C20.1268 20.4971 18.8614 21.8824 17.2954 22.8509C15.7293 23.8193 13.9246 24.3327 12.0833 24.3334C10.5435 24.3374 9.02447 23.9776 7.65 23.2834L1 25.5L3.21667 18.85C2.52242 17.4756 2.16265 15.9565 2.16667 14.4167C2.16738 12.5754 2.68071 10.7707 3.64917 9.20468C4.61763 7.63866 6.00296 6.3732 7.65 5.55003C9.02447 4.85579 10.5435 4.49602 12.0833 4.50003H12.6667C15.0984 4.63419 17.3952 5.66059 19.1173 7.3827C20.8394 9.10482 21.8658 11.4016 22 13.8334V14.4167Z" stroke="#F07E26" stroke-width="2" stroke-linecap="round" stroke-linejoin="round"/>
</svg>
