<svg width="16" height="16" viewBox="0 0 16 16" fill="none" xmlns="http://www.w3.org/2000/svg">
<path d="M10.3083 1.66675V5.66673H14.3297" stroke="#DC272B" stroke-width="1.5" stroke-linecap="round" stroke-linejoin="round"/>
<path d="M15 1L10.3083 5.66665" stroke="#DC272B" stroke-width="1.5" stroke-linecap="round" stroke-linejoin="round"/>
<path d="M14.4042 11.6493V13.6565C14.405 13.8428 14.3666 14.0272 14.2914 14.198C14.2162 14.3687 14.1059 14.522 13.9676 14.6479C13.8292 14.7739 13.6659 14.8698 13.4881 14.9295C13.3103 14.9892 13.1219 15.0114 12.935 14.9946C10.861 14.7709 8.86882 14.0674 7.11849 12.9406C5.49003 11.9133 4.10939 10.5428 3.0746 8.92618C1.93555 7.18072 1.2267 5.19345 1.00547 3.12538C0.988628 2.94036 1.01078 2.75388 1.07051 2.57783C1.13024 2.40177 1.22625 2.23999 1.35241 2.10279C1.47858 1.96559 1.63214 1.85596 1.80333 1.7809C1.97451 1.70584 2.15956 1.66699 2.3467 1.66681H4.36864C4.69573 1.66362 5.01283 1.7786 5.26084 1.99033C5.50884 2.20206 5.67083 2.49608 5.71661 2.81761C5.80195 3.45995 5.96022 4.09066 6.1884 4.69768C6.27908 4.93716 6.2987 5.19742 6.24495 5.44762C6.19119 5.69783 6.06631 5.9275 5.8851 6.10941L5.02915 6.95912C5.9886 8.63416 7.3857 10.0211 9.07304 10.9735L9.929 10.1238C10.1122 9.94392 10.3436 9.81995 10.5956 9.76659C10.8477 9.71322 11.1099 9.73271 11.3511 9.82272C11.9626 10.0492 12.5979 10.2064 13.245 10.2911C13.5724 10.3369 13.8714 10.5006 14.0851 10.7511C14.2989 11.0015 14.4124 11.3211 14.4042 11.6493Z" stroke="#F07E26" stroke-width="1.5" stroke-linecap="round" stroke-linejoin="round"/>
</svg>
