<svg width="26" height="30" viewBox="0 0 26 30" fill="none" xmlns="http://www.w3.org/2000/svg">
<path d="M5 1.6665L1 6.99984V25.6665C1 26.3737 1.28095 27.052 1.78105 27.5521C2.28115 28.0522 2.95942 28.3332 3.66667 28.3332H22.3333C23.0406 28.3332 23.7189 28.0522 24.219 27.5521C24.719 27.052 25 26.3737 25 25.6665V6.99984L21 1.6665H5Z" stroke="#F07E26" stroke-width="2" stroke-linecap="round" stroke-linejoin="round"/>
<path d="M1 7H25" stroke="#F07E26" stroke-width="2" stroke-linecap="round" stroke-linejoin="round"/>
<path d="M18.3337 12.3335C18.3337 13.748 17.7718 15.1045 16.7716 16.1047C15.7714 17.1049 14.4148 17.6668 13.0003 17.6668C11.5858 17.6668 10.2293 17.1049 9.22909 16.1047C8.2289 15.1045 7.66699 13.748 7.66699 12.3335" stroke="#1F3D8C" stroke-width="2" stroke-linecap="round" stroke-linejoin="round"/>
</svg>
