<svg width="269" height="215" viewBox="0 0 269 215" fill="none" xmlns="http://www.w3.org/2000/svg">
<g opacity="0.5">
<path d="M129.42 78.0508C123.582 74.6487 114.16 74.6487 108.37 78.0451L4.33222 139.074C-1.47142 142.476 -1.43923 147.986 4.40039 151.388L109.12 212.419C114.946 215.814 124.368 215.814 130.17 212.411L234.21 151.381C239.998 147.986 239.968 142.476 234.141 139.08L129.42 78.0508Z" fill="url(#paint0_linear)"/>
<path d="M129.421 62.8883C123.583 59.4862 114.161 59.4862 108.37 62.8826L4.33259 123.911C-1.47106 127.313 -1.43887 132.824 4.40076 136.226L109.12 197.257C114.946 200.651 124.369 200.651 130.17 197.249L234.21 136.218C239.998 132.824 239.968 127.313 234.142 123.917L129.421 62.8883Z" fill="url(#paint1_linear)"/>
</g>
<path d="M205.899 48.6991L198.429 52.4127L101.363 4.19427L108.824 0.486816L205.899 48.6991Z" fill="#D1D9E2"/>
<path d="M198.431 52.4117V148.845L101.365 100.63V4.19336L198.431 52.4117Z" fill="url(#paint2_linear)"/>
<path d="M122.718 58.4926C122.718 55.421 124.721 53.9251 127.192 55.1537L170.507 76.6674C172.981 77.893 174.984 81.3854 174.984 84.454V95.5825C174.984 98.651 172.981 100.15 170.507 98.9213L127.192 77.4077C124.721 76.179 122.718 72.6896 122.718 69.618V58.4926Z" fill="#F1F6FC"/>
<path d="M162.101 104.655L165.836 102.8C166.86 102.29 167.522 101.049 167.522 99.2893V88.1639C167.522 85.0923 165.515 81.6029 163.044 80.3743L119.735 58.8637C118.672 58.3384 117.704 58.3077 116.94 58.6917L113.208 60.5439C113.975 60.163 114.946 60.1906 115.991 60.7159L159.309 82.2295C161.78 83.4582 163.786 86.9475 163.786 90.0161V101.145C163.786 102.902 163.128 104.146 162.101 104.655" fill="#B0322F"/>
<path d="M111.516 64.0553C111.516 60.9837 113.519 59.4909 115.99 60.7165L159.308 82.2302C161.779 83.4588 163.785 86.9482 163.785 90.0167V101.145C163.785 104.217 161.779 105.713 159.308 104.484L115.99 82.9735C113.519 81.7418 111.516 78.2524 111.516 75.1808V64.0553Z" fill="#DC272B"/>
<path d="M123.464 71.8452L151.842 85.9409V93.3558L123.464 79.2632V71.8452Z" fill="#EA6565"/>
<path d="M101.364 4.19302L198.433 52.4114V63.5368L101.364 15.3215V4.19302Z" fill="#F1F6FC"/>
<path d="M119.98 16.6718C118.863 16.0646 117.957 16.8374 117.957 18.3975C117.957 19.9576 118.863 21.7152 119.98 22.3224C121.095 22.9296 122 22.1568 122 20.5967C122 19.0366 121.095 17.2761 119.98 16.6718" fill="#DC272B"/>
<path opacity="0.6" d="M114.923 13.6389C113.809 13.0318 112.903 13.8073 112.903 15.3672C112.903 16.927 113.809 18.6844 114.923 19.2915C116.043 19.8957 116.946 19.1231 116.946 17.5632C116.946 16.0033 116.043 14.2459 114.923 13.6389" fill="#DC272B"/>
<path opacity="0.3" d="M108.861 10.6051C107.744 10.001 106.838 10.7736 106.838 12.3334C106.838 13.8931 107.744 15.6504 108.861 16.2575C109.975 16.8645 110.881 16.0919 110.881 14.5321C110.881 12.9724 109.975 11.2151 108.861 10.6051" fill="#DC272B"/>
<path d="M205.899 48.7003L198.432 52.4108V63.5362L205.899 59.8288V48.7003Z" fill="#D1D9E2"/>
<path d="M205.899 59.8288L198.432 63.5362V148.845L205.899 145.137V59.8288Z" fill="#DEE4EA"/>
<mask id="mask0" mask-type="alpha" maskUnits="userSpaceOnUse" x="69" y="93" width="40" height="53">
<path fill-rule="evenodd" clip-rule="evenodd" d="M108.946 93.3922H69.155V145.21H108.946V93.3922Z" fill="white"/>
</mask>
<g mask="url(#mask0)">
<path d="M102.331 140.419C106.372 138.38 108.946 133.535 108.946 126.666C108.946 114.41 100.749 100.326 90.6563 95.2347C86.2196 92.998 82.1496 92.8672 78.9837 94.4657L69.155 99.4209L72.4761 105.844C72.4028 106.604 72.3686 107.397 72.3686 108.218C72.3686 120.078 80.0412 133.65 89.684 139.126L92.8295 145.21L102.331 140.419Z" fill="#85CFF3"/>
</g>
<path fill-rule="evenodd" clip-rule="evenodd" d="M84.8855 138.461C84.9268 138.492 84.9678 138.523 85.0096 138.553L74.6657 155.085L69.6508 157.614L70.212 145.615L64.5726 142.918L74.8807 126.442C75.0475 126.756 75.2216 127.065 75.3947 127.373C75.427 127.431 75.4592 127.488 75.4913 127.545L75.5084 127.571L75.5169 127.585L75.5647 127.666L75.6227 127.767L75.6397 127.793L75.6585 127.82L75.7131 127.924L75.7626 128.015L75.7899 128.051L75.8649 128.18L75.9127 128.261C75.9577 128.335 76.0032 128.409 76.0488 128.483C76.1274 128.611 76.2061 128.739 76.2828 128.867L76.3084 128.899L76.334 128.941L76.4073 129.061L76.4432 129.111L76.4568 129.132L76.4892 129.192L76.5489 129.283L76.583 129.328L76.6052 129.364L76.6564 129.441L76.6973 129.51L76.7229 129.541L76.7553 129.593L76.8133 129.689L76.8457 129.739L76.8628 129.756L76.9037 129.816L76.9771 129.937L77.0265 130.007L77.1442 130.183L77.25 130.331L77.2926 130.391V130.398L77.3165 130.425L77.3813 130.532L77.4342 130.601L77.4479 130.623L77.482 130.668L77.54 130.751L77.5826 130.809L77.6048 130.849L77.6543 130.909L77.6969 130.973L77.7293 131.016L77.7703 131.072L77.8197 131.148L77.8556 131.195L77.8777 131.222L77.9289 131.294L77.9954 131.386L78.0176 131.413L78.0261 131.427L78.0927 131.518L78.1745 131.621L78.2411 131.712L78.3332 131.833L78.3502 131.855L78.4986 132.055L78.5225 132.087L78.5805 132.163L78.6402 132.232L78.6709 132.273L78.705 132.32L78.7528 132.378L78.7954 132.432L78.8364 132.488L78.8858 132.549L78.92 132.592L78.9524 132.629L79.0104 132.702L79.0684 132.777L79.0922 132.803L79.1093 132.824L79.1912 132.924L79.2492 133.001L79.2662 133.015C79.3023 133.063 79.3421 133.111 79.3814 133.159C79.396 133.177 79.4106 133.195 79.4249 133.213L79.4385 133.225L79.4982 133.297L79.5869 133.404L79.621 133.447L79.6807 133.516L79.7473 133.593L79.778 133.627L79.8087 133.667L79.8581 133.722L79.911 133.784L79.998 133.884L80.0372 133.929L80.0731 133.97L80.1362 134.037L80.1874 134.099L80.2146 134.13L80.2385 134.156L80.3204 134.247L80.3801 134.314L80.3937 134.329L80.404 134.34L80.5422 134.493L80.5729 134.526L80.6206 134.575L80.7383 134.704L80.7503 134.718L80.7673 134.735L80.8253 134.799L80.9072 134.883L80.9618 134.944L81.0147 134.999L81.0744 135.062L81.117 135.105L81.2449 135.24L81.3029 135.3L81.3558 135.351L81.3865 135.384L81.4172 135.413L81.4957 135.492L81.5571 135.554L81.5878 135.587L81.7055 135.702L81.7567 135.752L81.7618 135.759C81.8198 135.818 81.8778 135.875 81.9374 135.933L81.9426 135.938C81.9629 135.958 81.9841 135.978 82.0053 135.998C82.0375 136.029 82.0697 136.059 82.0995 136.09L82.12 136.107C82.1712 136.158 82.2258 136.21 82.2803 136.262L82.2906 136.272C82.3466 136.323 82.4018 136.375 82.4567 136.426C82.5139 136.479 82.5709 136.532 82.6283 136.585L82.6437 136.599C82.7 136.649 82.7545 136.699 82.8074 136.749L82.8262 136.764C82.8519 136.788 82.8781 136.811 82.9044 136.835C82.9339 136.861 82.9636 136.888 82.9934 136.915L83.0821 136.995L83.1742 137.074L83.1745 137.074C83.2307 137.124 83.2869 137.174 83.3447 137.223L83.3618 137.235C83.3934 137.264 83.4261 137.292 83.4587 137.32C83.4824 137.34 83.506 137.36 83.529 137.38L83.5443 137.392C83.6586 137.49 83.7763 137.588 83.894 137.683L83.9025 137.69C83.9414 137.723 83.9811 137.755 84.0205 137.788C84.0381 137.802 84.0557 137.816 84.0731 137.831L84.0902 137.845C84.1482 137.891 84.2045 137.936 84.2642 137.982L84.271 137.989C84.3921 138.085 84.5098 138.177 84.6275 138.268L84.6411 138.276C84.6991 138.321 84.7588 138.366 84.8168 138.409L84.8322 138.421C84.8501 138.434 84.8678 138.448 84.8855 138.461ZM100.188 141.499C101.041 141.069 101.825 140.515 102.537 139.842L113.213 167.447L108.202 169.976L104.689 166.974L103.359 169.243L98.1068 171.962L93.6667 144.787L100.188 141.499Z" fill="#D3DBE3"/>
<mask id="mask1" mask-type="alpha" maskUnits="userSpaceOnUse" x="59" y="128" width="50" height="44">
<path fill-rule="evenodd" clip-rule="evenodd" d="M108.2 128.556H59.5584V171.962H108.2V128.556Z" fill="white"/>
</mask>
<g mask="url(#mask1)">
<path fill-rule="evenodd" clip-rule="evenodd" d="M59.5584 145.445L70.1308 128.556C72.7083 133.43 76.2188 137.761 80.1983 140.758L69.6515 157.614L66.3713 148.705L59.5584 145.445ZM87.593 144.48L88.9764 145.488L97.7475 142.728L108.201 169.975L101.384 166.362L98.1058 171.962L87.5623 144.471L87.593 144.48Z" fill="#E5EAEF"/>
</g>
<mask id="mask2" mask-type="alpha" maskUnits="userSpaceOnUse" x="69" y="93" width="40" height="52">
<path fill-rule="evenodd" clip-rule="evenodd" d="M108.946 93.3922H69.155V144.844H108.946V93.3922Z" fill="white"/>
</mask>
<g mask="url(#mask2)">
<path d="M102.331 140.419C106.372 138.38 108.946 133.535 108.946 126.666C108.946 114.41 100.749 100.326 90.6563 95.2347C86.2196 92.998 82.1496 92.8672 78.9837 94.4657L69.155 99.4209L72.4761 105.844C72.4028 106.604 72.3686 107.397 72.3686 108.218C72.3686 120.078 80.0412 133.65 89.684 139.126L93.5561 144.844L102.331 140.419Z" fill="#2D3F89"/>
</g>
<path d="M81.8812 104.843C74.1284 100.932 67.8358 105.402 67.8358 114.817C67.8358 124.234 74.1284 135.052 81.8812 138.963C89.6357 142.874 95.9317 138.406 95.9317 128.989C95.9317 119.574 89.6357 108.754 81.8812 104.843" fill="#2D3F89"/>
<path d="M81.8813 106.636L79.0258 115.872L69.7737 111.209L77.2587 121.579L74.3998 130.815L81.8813 127.989L89.3629 138.359L86.504 126.243L93.9855 123.416L84.7385 118.753L81.8813 106.636Z" fill="#4D5DA1"/>
<path fill-rule="evenodd" clip-rule="evenodd" d="M63.5886 112.644C63.5886 100.388 71.79 94.5709 81.8814 99.6621C91.9745 104.751 100.172 118.836 100.172 131.092C100.172 143.347 91.9745 149.164 81.8814 144.073C71.79 138.984 63.5886 124.901 63.5886 112.644ZM67.8358 114.817C67.8358 105.402 74.1285 100.932 81.8812 104.843C89.6357 108.754 95.9317 119.574 95.9317 128.989C95.9317 138.406 89.6357 142.874 81.8812 138.963C74.1285 135.052 67.8358 124.233 67.8358 114.817Z" fill="#4D5DA1"/>
<path fill-rule="evenodd" clip-rule="evenodd" d="M258.607 27.4868L268.783 33.3569L258.54 39.2258L248.364 33.3557L258.607 27.4868Z" fill="#EA6565"/>
<path fill-rule="evenodd" clip-rule="evenodd" d="M248.363 33.3562L248.513 72.3076L258.689 78.1765L258.539 39.2263L248.363 33.3562Z" fill="#DC272B"/>
<path fill-rule="evenodd" clip-rule="evenodd" d="M258.54 39.2261L258.69 78.1762L268.933 72.3073L268.783 33.3572L258.54 39.2261Z" fill="#B0322F"/>
<defs>
<linearGradient id="paint0_linear" x1="395.519" y1="151.731" x2="300.92" y2="-35.2969" gradientUnits="userSpaceOnUse">
<stop stop-color="white"/>
<stop offset="0.979407" stop-color="#E2E8EF"/>
</linearGradient>
<linearGradient id="paint1_linear" x1="395.519" y1="136.568" x2="300.92" y2="-50.4593" gradientUnits="userSpaceOnUse">
<stop stop-color="white"/>
<stop offset="0.979407" stop-color="#E2E8EF"/>
</linearGradient>
<linearGradient id="paint2_linear" x1="156.998" y1="209.374" x2="-14.4919" y2="162.4" gradientUnits="userSpaceOnUse">
<stop stop-color="#D1D9E2"/>
<stop offset="1" stop-color="white"/>
</linearGradient>
</defs>
</svg>
