<svg width="212" height="24" viewBox="0 0 212 24" fill="none" xmlns="http://www.w3.org/2000/svg">
<path d="M30.5836 18.5421L29.3126 18.0562C28.864 17.9066 28.5649 17.6823 28.4154 17.3833C28.2658 17.0842 28.1911 16.7104 28.2658 16.2618C28.3032 15.9627 28.378 15.7384 28.4527 15.5515C28.5275 15.3646 28.6397 15.215 28.7518 15.0655C28.864 14.9534 29.0135 14.8412 29.2378 14.8038C29.4247 14.7291 29.6116 14.6917 29.7985 14.6917C29.9855 14.6917 30.2471 14.6543 30.5088 14.6543C31.2939 14.6543 31.9294 14.7291 32.4154 14.8412L32.3406 15.4393C31.6303 15.402 31.0322 15.402 30.5088 15.402C30.2845 15.402 30.135 15.402 30.0228 15.402C29.9107 15.402 29.7985 15.4393 29.649 15.4393C29.4995 15.4393 29.4247 15.5141 29.3499 15.5889C29.2752 15.6636 29.2378 15.7384 29.163 15.8879C29.0883 16.0001 29.0509 16.187 29.0509 16.3739C29.0135 16.673 29.0135 16.8973 29.1256 17.0468C29.2004 17.159 29.3873 17.3085 29.6864 17.4207L30.9574 17.8692C31.4434 18.0562 31.7425 18.2805 31.892 18.5421C32.0415 18.8038 32.0789 19.1777 32.0041 19.701C31.9294 20.3739 31.7051 20.8225 31.3312 21.0468C31.0322 21.1964 30.4341 21.3085 29.649 21.3085C28.9761 21.3085 28.3406 21.2337 27.7051 21.1216L27.8172 20.5235C28.864 20.5608 29.4995 20.5608 29.6864 20.5608C30.2471 20.5608 30.621 20.4861 30.8453 20.3739C31.0696 20.2618 31.1817 19.9627 31.2565 19.5515C31.2939 19.215 31.2939 18.9907 31.1817 18.8786C31.0696 18.7664 30.8827 18.6543 30.5836 18.5421Z" fill="white"/>
<path d="M33.7987 21.1961H33.0137L33.6492 16.6353H34.4342L33.7987 21.1961ZM34.1352 14.7288H34.509C34.5838 14.7288 34.6585 14.7661 34.6959 14.8035C34.7333 14.8409 34.7333 14.9157 34.7333 14.9904L34.6585 15.5138C34.6211 15.6633 34.5464 15.7381 34.3968 15.7381H34.023C33.8361 15.7381 33.7613 15.6633 33.7987 15.4764L33.8735 14.9531C33.8735 14.8035 33.9856 14.7288 34.1352 14.7288Z" fill="white"/>
<path d="M37.6488 19.4767L36.3777 18.916C36.0413 18.7664 35.817 18.5795 35.6675 18.3926C35.5179 18.2057 35.4805 17.944 35.5179 17.6075C35.5553 17.1963 35.7422 16.8973 36.0413 16.7477C36.3404 16.5982 36.789 16.5234 37.4245 16.5234C38.0974 16.5234 38.7329 16.5982 39.331 16.673L39.2189 17.2337C38.4712 17.1963 37.8731 17.1963 37.4245 17.1963C36.9759 17.1963 36.7142 17.2337 36.5273 17.2711C36.3777 17.3085 36.303 17.458 36.2656 17.6449C36.2282 17.8318 36.2656 17.944 36.3404 18.0188C36.4151 18.0935 36.5647 18.2057 36.789 18.2804L38.06 18.8412C38.4338 18.9907 38.6955 19.1776 38.8077 19.3646C38.9572 19.5515 38.9946 19.8132 38.9572 20.1496C38.9198 20.3365 38.8824 20.5234 38.8077 20.6356C38.7329 20.7477 38.6207 20.8973 38.5086 20.972C38.3964 21.0468 38.2469 21.1216 38.06 21.159C37.8731 21.1963 37.6862 21.2337 37.4992 21.2337C37.3123 21.2337 37.088 21.2337 36.789 21.2337C36.5647 21.2337 36.3777 21.2337 36.2282 21.2337C36.0787 21.2337 35.9291 21.2337 35.8544 21.1963C35.7796 21.1963 35.6301 21.159 35.4806 21.159C35.2936 21.1216 35.1815 21.1216 35.0693 21.1216L35.1441 20.5608C35.5179 20.5982 36.0039 20.5982 36.602 20.5982C37.1628 20.5982 37.574 20.5608 37.7609 20.4861C37.9478 20.4113 38.0974 20.2618 38.1348 20.0748C38.1348 19.9627 38.1348 19.8879 38.0974 19.8132C38.06 19.7384 38.0226 19.701 37.9478 19.6636C37.9105 19.6262 37.7983 19.5889 37.6488 19.5141C37.6862 19.4767 37.6488 19.4767 37.6488 19.4767Z" fill="white"/>
<path d="M41.6495 17.2709L41.2756 19.9624C41.2383 20.1867 41.2756 20.3363 41.3504 20.411C41.4252 20.4858 41.5747 20.5232 41.799 20.5232H42.5093L42.5467 21.1213C42.2476 21.1961 41.9112 21.2335 41.5373 21.2335C41.1635 21.2335 40.8644 21.1213 40.6775 20.897C40.4906 20.6727 40.4532 20.3737 40.4906 19.9998L40.8644 17.2335H40.042L40.1168 16.6727L40.9766 16.6353L41.1635 15.2896H41.9485L41.7616 16.6353H43.2196L43.1448 17.2709H41.6495Z" fill="white"/>
<path d="M47.2563 20.5234L47.2937 21.0468C46.8825 21.1963 46.2469 21.3085 45.4245 21.3085C44.6395 21.3085 44.1161 21.1216 43.817 20.7104C43.518 20.2991 43.4432 19.701 43.5554 18.8038C43.6675 17.9066 43.9292 17.3085 44.2656 17.0094C44.6395 16.7104 45.2002 16.5234 46.0226 16.5234C46.6955 16.5234 47.1815 16.6356 47.4432 16.8973C47.7049 17.159 47.7797 17.4954 47.7049 17.9814C47.6301 18.3926 47.4432 18.729 47.1815 18.916C46.9198 19.1029 46.5086 19.215 45.9479 19.2524L44.2656 19.4019C44.2656 19.8879 44.3404 20.187 44.5273 20.3739C44.7142 20.5234 45.0507 20.6356 45.4619 20.6356C46.1348 20.6356 46.6955 20.5982 47.2563 20.5234ZM44.4526 18.8412L46.06 18.6917C46.3591 18.6543 46.5834 18.6169 46.7329 18.5047C46.8825 18.3926 46.9572 18.2057 46.9946 17.944C47.032 17.6449 46.9946 17.4206 46.8451 17.3459C46.6955 17.2711 46.3965 17.2337 45.9853 17.2337C45.4619 17.2337 45.1255 17.3459 44.9012 17.5328C44.6769 17.7197 44.5647 18.1683 44.4526 18.8412Z" fill="white"/>
<path d="M31.6999 6.38776L30.1279 5.75176C29.5279 5.50376 29.1239 5.18376 28.9159 4.79176C28.7079 4.39976 28.6399 3.90776 28.7119 3.31576C28.8319 2.43576 29.1359 1.84776 29.6239 1.55176C30.1199 1.24776 30.8879 1.09576 31.9279 1.09576C32.9599 1.09576 33.8599 1.20776 34.6279 1.43176L34.4479 2.66776C33.7279 2.64376 32.8719 2.63176 31.8799 2.63176C31.3919 2.62376 31.0599 2.66376 30.8839 2.75176C30.7079 2.83176 30.5919 3.05576 30.5359 3.42376C30.4959 3.69576 30.5159 3.88776 30.5959 3.99976C30.6839 4.10376 30.8839 4.21576 31.1959 4.33576L32.6839 4.91176C33.3159 5.15976 33.7319 5.47176 33.9319 5.84776C34.1319 6.21576 34.1919 6.72376 34.1119 7.37176C33.9919 8.28376 33.6959 8.89976 33.2239 9.21976C32.7599 9.53176 31.9679 9.68776 30.8479 9.68776C29.9199 9.68776 28.9719 9.57976 28.0039 9.36376L28.1959 8.05576C29.8919 8.09576 30.7519 8.11576 30.7759 8.11576C31.3359 8.11576 31.7159 8.06376 31.9159 7.95976C32.1159 7.84776 32.2439 7.61576 32.2999 7.26376C32.3319 6.99176 32.3079 6.80376 32.2279 6.69976C32.1479 6.59576 31.9719 6.49176 31.6999 6.38776Z" fill="white"/>
<path d="M36.7054 0.999756H37.4494C37.8254 0.999756 37.9934 1.18376 37.9534 1.55176L37.8694 2.19976C37.8214 2.51976 37.6294 2.67976 37.2934 2.67976H36.5374C36.1694 2.67976 36.0094 2.49576 36.0574 2.12776L36.1414 1.49176C36.1734 1.16376 36.3614 0.999756 36.7054 0.999756ZM36.8014 9.53176H35.0374L35.8654 3.61576H37.6294L36.8014 9.53176Z" fill="white"/>
<path d="M41.2821 7.40776L39.8541 6.81976C39.3741 6.62776 39.0381 6.38376 38.8461 6.08776C38.6541 5.79176 38.5861 5.41976 38.6421 4.97176C38.7061 4.42776 38.9421 4.03576 39.3501 3.79576C39.7661 3.55576 40.4141 3.43976 41.2941 3.44776C42.3821 3.46376 43.2941 3.54376 44.0301 3.68776L43.8621 4.81576C42.3261 4.79176 41.5461 4.77976 41.5221 4.77976C41.0581 4.77976 40.7501 4.79976 40.5981 4.83976C40.4461 4.87176 40.3581 4.95576 40.3341 5.09176C40.3181 5.22776 40.3541 5.33176 40.4421 5.40376C40.5381 5.46776 40.7181 5.55176 40.9821 5.65576L42.4341 6.23176C42.9221 6.42376 43.2661 6.65576 43.4661 6.92776C43.6661 7.19976 43.7381 7.56376 43.6821 8.01976C43.6341 8.37176 43.5381 8.65976 43.3941 8.88376C43.2581 9.10776 43.0581 9.27576 42.7941 9.38776C42.5301 9.49976 42.2461 9.57176 41.9421 9.60376C41.6381 9.64376 41.2501 9.66376 40.7781 9.66376C40.0581 9.66376 39.1901 9.59176 38.1741 9.44776L38.3421 8.30776C38.6301 8.32376 39.2581 8.33176 40.2261 8.33176C40.9141 8.33176 41.3701 8.30776 41.5941 8.25976C41.8181 8.21176 41.9461 8.10776 41.9781 7.94776C41.9941 7.82776 41.9621 7.73976 41.8821 7.68376C41.8101 7.62776 41.6621 7.55576 41.4381 7.46776C41.3741 7.44376 41.3221 7.42376 41.2821 7.40776Z" fill="white"/>
<path d="M47.5511 4.80376L47.1551 7.63576C47.1231 7.85976 47.1391 8.01176 47.2031 8.09176C47.2751 8.16376 47.4311 8.19976 47.6711 8.19976H48.4631L48.5471 9.44776C48.1231 9.59976 47.5711 9.67576 46.8911 9.67576C46.3311 9.67576 45.9151 9.52376 45.6431 9.21976C45.3711 8.90776 45.2751 8.47976 45.3551 7.93576L45.8111 4.80376H44.7431L44.8871 3.67576L45.9791 3.61576L46.2191 1.95976H47.9591L47.7311 3.61576H49.3631L49.1951 4.80376H47.5511Z" fill="white"/>
<path d="M54.9449 8.12776L55.0649 9.25576C54.4009 9.53576 53.5329 9.67576 52.4609 9.67576C51.3329 9.67576 50.5569 9.41176 50.1329 8.88376C49.7089 8.35576 49.5609 7.54376 49.6889 6.44776C49.8329 5.29576 50.1609 4.50776 50.6729 4.08376C51.1849 3.65976 52.0009 3.44776 53.1209 3.44776C54.1609 3.44776 54.8649 3.61976 55.2329 3.96376C55.6089 4.30776 55.7489 4.81576 55.6529 5.48776C55.5729 6.04776 55.3449 6.44776 54.9689 6.68776C54.5929 6.92776 54.0129 7.07576 53.2289 7.13176L51.4769 7.26376C51.4849 7.65576 51.5809 7.91976 51.7649 8.05576C51.9569 8.19176 52.2569 8.25976 52.6649 8.25976C53.4409 8.25976 54.2009 8.21576 54.9449 8.12776ZM51.5849 6.21976L52.9649 6.08776C53.2849 6.06376 53.5169 5.99976 53.6609 5.89576C53.8129 5.79176 53.9049 5.59976 53.9369 5.31976C53.9609 5.05576 53.9089 4.89176 53.7809 4.82776C53.6609 4.76376 53.4009 4.73576 53.0009 4.74376C52.5369 4.74376 52.2089 4.84376 52.0169 5.04376C51.8329 5.23576 51.6889 5.62776 51.5849 6.21976Z" fill="white"/>
<path d="M58.4318 3.61576V4.68376C58.8638 4.25176 59.2638 3.93976 59.6318 3.74776C60.0078 3.54776 60.3998 3.44776 60.8078 3.44776C61.2398 3.44776 61.5798 3.54376 61.8278 3.73576C62.0758 3.92776 62.2198 4.19976 62.2598 4.55176C63.0038 3.81576 63.7478 3.44776 64.4918 3.44776C65.0358 3.44776 65.4318 3.59976 65.6798 3.90376C65.9358 4.19976 66.0278 4.60776 65.9558 5.12776L65.3438 9.53176H63.5798L64.1318 5.60776C64.1638 5.35976 64.1438 5.18776 64.0718 5.09176C63.9998 4.99576 63.8758 4.94776 63.6998 4.94776C63.4998 4.94776 63.2878 5.01176 63.0638 5.13976C62.8398 5.26776 62.5358 5.50376 62.1518 5.84776L61.6358 9.53176H59.9318L60.4718 5.60776C60.5118 5.36776 60.4998 5.19976 60.4358 5.10376C60.3718 4.99976 60.2438 4.94776 60.0518 4.94776C59.8438 4.94776 59.6238 5.01176 59.3918 5.13976C59.1678 5.25976 58.8718 5.47976 58.5038 5.79976L57.9878 9.53176H56.2238L57.0518 3.61576H58.4318Z" fill="white"/>
<path d="M72.3875 9.53176H71.0075L71.0195 8.46376C70.4115 9.24776 69.6035 9.65176 68.5955 9.67576C67.8515 9.69976 67.3475 9.45976 67.0835 8.95576C66.8275 8.44376 66.7835 7.61176 66.9515 6.45976C67.0315 5.91576 67.1435 5.45976 67.2875 5.09176C67.4315 4.71576 67.5915 4.41976 67.7675 4.20376C67.9435 3.98776 68.1715 3.82376 68.4515 3.71176C68.7315 3.59976 68.9995 3.52776 69.2555 3.49576C69.5195 3.46376 69.8515 3.44776 70.2515 3.44776C70.6755 3.44776 71.1835 3.48376 71.7755 3.55576C72.3675 3.62776 72.8395 3.71176 73.1915 3.80776L72.3875 9.53176ZM71.2955 4.75576H70.3835C69.8075 4.75576 69.4155 4.85576 69.2075 5.05576C68.9995 5.25576 68.8435 5.73176 68.7395 6.48376C68.6355 7.24376 68.6115 7.73176 68.6675 7.94776C68.7235 8.15576 68.8955 8.25176 69.1835 8.23576C69.7115 8.22776 70.3035 7.85576 70.9595 7.11976L71.2955 4.75576Z" fill="white"/>
<path d="M76.8016 7.40776L75.3736 6.81976C74.8936 6.62776 74.5576 6.38376 74.3656 6.08776C74.1736 5.79176 74.1056 5.41976 74.1616 4.97176C74.2256 4.42776 74.4616 4.03576 74.8696 3.79576C75.2856 3.55576 75.9336 3.43976 76.8136 3.44776C77.9016 3.46376 78.8136 3.54376 79.5496 3.68776L79.3816 4.81576C77.8456 4.79176 77.0656 4.77976 77.0416 4.77976C76.5776 4.77976 76.2696 4.79976 76.1176 4.83976C75.9656 4.87176 75.8776 4.95576 75.8536 5.09176C75.8376 5.22776 75.8736 5.33176 75.9616 5.40376C76.0576 5.46776 76.2376 5.55176 76.5016 5.65576L77.9536 6.23176C78.4416 6.42376 78.7856 6.65576 78.9856 6.92776C79.1856 7.19976 79.2576 7.56376 79.2016 8.01976C79.1536 8.37176 79.0576 8.65976 78.9136 8.88376C78.7776 9.10776 78.5776 9.27576 78.3136 9.38776C78.0496 9.49976 77.7656 9.57176 77.4616 9.60376C77.1576 9.64376 76.7696 9.66376 76.2976 9.66376C75.5776 9.66376 74.7096 9.59176 73.6936 9.44776L73.8616 8.30776C74.1496 8.32376 74.7776 8.33176 75.7456 8.33176C76.4336 8.33176 76.8896 8.30776 77.1136 8.25976C77.3376 8.21176 77.4656 8.10776 77.4976 7.94776C77.5136 7.82776 77.4816 7.73976 77.4016 7.68376C77.3296 7.62776 77.1816 7.55576 76.9576 7.46776C76.8936 7.44376 76.8416 7.42376 76.8016 7.40776Z" fill="white"/>
<path d="M84.9402 3.61576L84.9162 4.75576C85.2682 4.39576 85.6642 4.09176 86.1042 3.84376C86.5442 3.59576 86.9762 3.47176 87.4002 3.47176C88.0962 3.47176 88.5762 3.71576 88.8402 4.20376C89.1042 4.69176 89.1562 5.51976 88.9962 6.68776C88.9242 7.19976 88.8242 7.63976 88.6962 8.00776C88.5762 8.36776 88.4362 8.65576 88.2762 8.87176C88.1162 9.08776 87.9202 9.25976 87.6882 9.38776C87.4642 9.50776 87.2362 9.58776 87.0042 9.62776C86.7802 9.66776 86.5122 9.68776 86.2002 9.68776C85.6162 9.68776 85.0282 9.63576 84.4362 9.53176C84.4362 9.90776 84.4082 10.2798 84.3522 10.6478L84.1602 11.8118H82.3842L83.5362 3.61576H84.9402ZM84.6522 8.45176H85.5642C86.1722 8.45176 86.5682 8.35176 86.7522 8.15176C86.9442 7.94376 87.0922 7.44776 87.1962 6.66376C87.2922 5.91176 87.3082 5.43176 87.2442 5.22376C87.1882 5.00776 87.0242 4.89976 86.7522 4.89976C86.5442 4.89976 86.2802 4.98776 85.9602 5.16376C85.6402 5.33976 85.3202 5.57576 85.0002 5.87176L84.6522 8.45176Z" fill="white"/>
<path d="M95.4734 9.53176H94.0934L94.1054 8.46376C93.4974 9.24776 92.6894 9.65176 91.6814 9.67576C90.9374 9.69976 90.4334 9.45976 90.1694 8.95576C89.9134 8.44376 89.8694 7.61176 90.0374 6.45976C90.1174 5.91576 90.2294 5.45976 90.3734 5.09176C90.5174 4.71576 90.6774 4.41976 90.8534 4.20376C91.0294 3.98776 91.2574 3.82376 91.5374 3.71176C91.8174 3.59976 92.0854 3.52776 92.3414 3.49576C92.6054 3.46376 92.9374 3.44776 93.3374 3.44776C93.7614 3.44776 94.2694 3.48376 94.8614 3.55576C95.4534 3.62776 95.9254 3.71176 96.2774 3.80776L95.4734 9.53176ZM94.3814 4.75576H93.4694C92.8934 4.75576 92.5014 4.85576 92.2934 5.05576C92.0854 5.25576 91.9294 5.73176 91.8254 6.48376C91.7214 7.24376 91.6974 7.73176 91.7534 7.94776C91.8094 8.15576 91.9814 8.25176 92.2694 8.23576C92.7974 8.22776 93.3894 7.85576 94.0454 7.11976L94.3814 4.75576Z" fill="white"/>
<path d="M101.988 3.44776L101.592 5.09176H101.16C100.912 5.09176 100.648 5.14776 100.368 5.25976C100.096 5.36376 99.6996 5.55176 99.1796 5.82376L98.6756 9.53176H96.8996L97.7276 3.61576H99.1076V4.73176C100.012 3.87576 100.852 3.44776 101.628 3.44776H101.988Z" fill="white"/>
<path d="M107.567 9.53176H106.187L106.199 8.46376C105.591 9.24776 104.783 9.65176 103.775 9.67576C103.031 9.69976 102.527 9.45976 102.263 8.95576C102.007 8.44376 101.963 7.61176 102.131 6.45976C102.211 5.91576 102.323 5.45976 102.467 5.09176C102.611 4.71576 102.771 4.41976 102.947 4.20376C103.123 3.98776 103.351 3.82376 103.631 3.71176C103.911 3.59976 104.179 3.52776 104.435 3.49576C104.699 3.46376 105.031 3.44776 105.431 3.44776C105.855 3.44776 106.363 3.48376 106.955 3.55576C107.547 3.62776 108.019 3.71176 108.371 3.80776L107.567 9.53176ZM106.475 4.75576H105.563C104.987 4.75576 104.595 4.85576 104.387 5.05576C104.179 5.25576 104.023 5.73176 103.919 6.48376C103.815 7.24376 103.791 7.73176 103.847 7.94776C103.903 8.15576 104.075 8.25176 104.363 8.23576C104.891 8.22776 105.483 7.85576 106.139 7.11976L106.475 4.75576Z" fill="white"/>
<path d="M113.827 3.61576L113.803 4.75576C114.155 4.39576 114.551 4.09176 114.991 3.84376C115.431 3.59576 115.863 3.47176 116.287 3.47176C116.983 3.47176 117.463 3.71576 117.727 4.20376C117.991 4.69176 118.043 5.51976 117.883 6.68776C117.811 7.19976 117.711 7.63976 117.583 8.00776C117.463 8.36776 117.323 8.65576 117.163 8.87176C117.003 9.08776 116.807 9.25976 116.575 9.38776C116.351 9.50776 116.123 9.58776 115.891 9.62776C115.667 9.66776 115.399 9.68776 115.087 9.68776C114.503 9.68776 113.915 9.63576 113.323 9.53176C113.323 9.90776 113.295 10.2798 113.239 10.6478L113.047 11.8118H111.271L112.423 3.61576H113.827ZM113.539 8.45176H114.451C115.059 8.45176 115.455 8.35176 115.639 8.15176C115.831 7.94376 115.979 7.44776 116.083 6.66376C116.179 5.91176 116.195 5.43176 116.131 5.22376C116.075 5.00776 115.911 4.89976 115.639 4.89976C115.431 4.89976 115.167 4.98776 114.847 5.16376C114.527 5.33976 114.207 5.57576 113.887 5.87176L113.539 8.45176Z" fill="white"/>
<path d="M124.144 8.12776L124.264 9.25576C123.6 9.53576 122.732 9.67576 121.66 9.67576C120.532 9.67576 119.756 9.41176 119.332 8.88376C118.908 8.35576 118.76 7.54376 118.888 6.44776C119.032 5.29576 119.36 4.50776 119.872 4.08376C120.384 3.65976 121.2 3.44776 122.32 3.44776C123.36 3.44776 124.064 3.61976 124.432 3.96376C124.808 4.30776 124.948 4.81576 124.852 5.48776C124.772 6.04776 124.544 6.44776 124.168 6.68776C123.792 6.92776 123.212 7.07576 122.428 7.13176L120.676 7.26376C120.684 7.65576 120.78 7.91976 120.964 8.05576C121.156 8.19176 121.456 8.25976 121.864 8.25976C122.64 8.25976 123.4 8.21576 124.144 8.12776ZM120.784 6.21976L122.164 6.08776C122.484 6.06376 122.716 5.99976 122.86 5.89576C123.012 5.79176 123.104 5.59976 123.136 5.31976C123.16 5.05576 123.108 4.89176 122.98 4.82776C122.86 4.76376 122.6 4.73576 122.2 4.74376C121.736 4.74376 121.408 4.84376 121.216 5.04376C121.032 5.23576 120.888 5.62776 120.784 6.21976Z" fill="white"/>
<path d="M128.975 11.8118L129.239 9.98776C129.303 9.45176 129.411 8.98776 129.563 8.59576C128.811 9.31576 128.047 9.67576 127.271 9.67576C126.583 9.67576 126.095 9.43176 125.807 8.94376C125.519 8.45576 125.455 7.64376 125.615 6.50776C125.783 5.34776 126.091 4.54776 126.539 4.10776C126.987 3.66776 127.691 3.44776 128.651 3.44776C129.163 3.44776 129.735 3.49176 130.367 3.57976C130.999 3.66776 131.499 3.77976 131.867 3.91576L130.739 11.8118H128.975ZM129.623 7.28776L129.971 4.77976C129.707 4.76376 129.391 4.75576 129.023 4.75576C128.455 4.77176 128.071 4.88376 127.871 5.09176C127.679 5.29176 127.527 5.77176 127.415 6.53176C127.319 7.18776 127.303 7.62776 127.367 7.85176C127.431 8.06776 127.607 8.17576 127.895 8.17576C128.175 8.17576 128.439 8.10776 128.687 7.97176C128.943 7.82776 129.255 7.59976 129.623 7.28776Z" fill="white"/>
<path d="M138.921 3.61576L138.105 9.53176H136.737V8.41576C135.857 9.26376 135.005 9.68776 134.181 9.68776C133.613 9.68776 133.197 9.53976 132.933 9.24376C132.677 8.94776 132.589 8.53976 132.669 8.01976L133.281 3.61576H135.057L134.493 7.53976C134.461 7.77976 134.477 7.95176 134.541 8.05576C134.613 8.15176 134.745 8.19976 134.937 8.19976C135.193 8.19976 135.441 8.13176 135.681 7.99576C135.929 7.85976 136.257 7.61976 136.665 7.27576L137.169 3.61576H138.921Z" fill="white"/>
<path d="M144.968 8.12776L145.088 9.25576C144.424 9.53576 143.556 9.67576 142.484 9.67576C141.356 9.67576 140.58 9.41176 140.156 8.88376C139.732 8.35576 139.584 7.54376 139.712 6.44776C139.856 5.29576 140.184 4.50776 140.696 4.08376C141.208 3.65976 142.024 3.44776 143.144 3.44776C144.184 3.44776 144.888 3.61976 145.256 3.96376C145.632 4.30776 145.772 4.81576 145.676 5.48776C145.596 6.04776 145.368 6.44776 144.992 6.68776C144.616 6.92776 144.036 7.07576 143.252 7.13176L141.5 7.26376C141.508 7.65576 141.604 7.91976 141.788 8.05576C141.98 8.19176 142.28 8.25976 142.688 8.25976C143.464 8.25976 144.224 8.21576 144.968 8.12776ZM141.608 6.21976L142.988 6.08776C143.308 6.06376 143.54 5.99976 143.684 5.89576C143.836 5.79176 143.928 5.59976 143.96 5.31976C143.984 5.05576 143.932 4.89176 143.804 4.82776C143.684 4.76376 143.424 4.73576 143.024 4.74376C142.56 4.74376 142.232 4.84376 142.04 5.04376C141.856 5.23576 141.712 5.62776 141.608 6.21976Z" fill="white"/>
<path d="M148.467 3.61576V4.79176C149.387 3.89576 150.287 3.44776 151.167 3.44776C151.671 3.44776 152.059 3.59576 152.331 3.89176C152.603 4.17976 152.699 4.59176 152.619 5.12776L151.995 9.53176H150.231L150.771 5.65576C150.811 5.37576 150.803 5.18776 150.747 5.09176C150.691 4.98776 150.567 4.93976 150.375 4.94776C149.927 4.95576 149.311 5.26776 148.527 5.88376L148.023 9.53176H146.247L147.075 3.61576H148.467Z" fill="white"/>
<path d="M156.948 3.44776C158.044 3.44776 158.808 3.69576 159.24 4.19176C159.672 4.68776 159.808 5.50776 159.648 6.65176C159.496 7.76376 159.164 8.54776 158.652 9.00376C158.148 9.45976 157.36 9.68776 156.288 9.68776C155.2 9.68776 154.432 9.43976 153.984 8.94376C153.544 8.44776 153.404 7.63576 153.564 6.50776C153.724 5.38776 154.056 4.59976 154.56 4.14376C155.064 3.67976 155.86 3.44776 156.948 3.44776ZM156.936 4.77976C156.448 4.77976 156.096 4.90376 155.88 5.15176C155.672 5.39976 155.516 5.89976 155.412 6.65176C155.316 7.33976 155.328 7.79576 155.448 8.01976C155.568 8.24376 155.86 8.35576 156.324 8.35576C156.804 8.35576 157.148 8.23176 157.356 7.98376C157.564 7.72776 157.72 7.23576 157.824 6.50776C157.928 5.81976 157.916 5.35976 157.788 5.12776C157.668 4.89576 157.384 4.77976 156.936 4.77976Z" fill="white"/>
<path d="M163.415 7.40776L161.987 6.81976C161.507 6.62776 161.171 6.38376 160.979 6.08776C160.787 5.79176 160.719 5.41976 160.775 4.97176C160.839 4.42776 161.075 4.03576 161.483 3.79576C161.899 3.55576 162.547 3.43976 163.427 3.44776C164.515 3.46376 165.427 3.54376 166.163 3.68776L165.995 4.81576C164.459 4.79176 163.679 4.77976 163.655 4.77976C163.191 4.77976 162.883 4.79976 162.731 4.83976C162.579 4.87176 162.491 4.95576 162.467 5.09176C162.451 5.22776 162.487 5.33176 162.575 5.40376C162.671 5.46776 162.851 5.55176 163.115 5.65576L164.567 6.23176C165.055 6.42376 165.399 6.65576 165.599 6.92776C165.799 7.19976 165.871 7.56376 165.815 8.01976C165.767 8.37176 165.671 8.65976 165.527 8.88376C165.391 9.10776 165.191 9.27576 164.927 9.38776C164.663 9.49976 164.379 9.57176 164.075 9.60376C163.771 9.64376 163.383 9.66376 162.911 9.66376C162.191 9.66376 161.323 9.59176 160.307 9.44776L160.475 8.30776C160.763 8.32376 161.391 8.33176 162.359 8.33176C163.047 8.33176 163.503 8.30776 163.727 8.25976C163.951 8.21176 164.079 8.10776 164.111 7.94776C164.127 7.82776 164.095 7.73976 164.015 7.68376C163.943 7.62776 163.795 7.55576 163.571 7.46776C163.507 7.44376 163.455 7.42376 163.415 7.40776Z" fill="white"/>
<path d="M176.984 1.25176L173.612 9.06376C173.484 9.37576 173.264 9.53176 172.952 9.53176H171.296C171.144 9.53176 171.012 9.47976 170.9 9.37576C170.788 9.27176 170.724 9.14776 170.708 9.00376L169.532 1.25176H171.38L172.028 7.20376C172.06 7.52376 172.084 7.84776 172.1 8.17576H172.4C172.472 7.88776 172.58 7.55976 172.724 7.19176L175.052 1.25176H176.984Z" fill="white"/>
<path d="M181.852 9.53176H180.472L180.484 8.46376C179.876 9.24776 179.068 9.65176 178.06 9.67576C177.316 9.69976 176.812 9.45976 176.548 8.95576C176.292 8.44376 176.248 7.61176 176.416 6.45976C176.496 5.91576 176.608 5.45976 176.752 5.09176C176.896 4.71576 177.056 4.41976 177.232 4.20376C177.408 3.98776 177.636 3.82376 177.916 3.71176C178.196 3.59976 178.464 3.52776 178.72 3.49576C178.984 3.46376 179.316 3.44776 179.716 3.44776C180.14 3.44776 180.648 3.48376 181.24 3.55576C181.832 3.62776 182.304 3.71176 182.656 3.80776L181.852 9.53176ZM180.76 4.75576H179.848C179.272 4.75576 178.88 4.85576 178.672 5.05576C178.464 5.25576 178.308 5.73176 178.204 6.48376C178.1 7.24376 178.076 7.73176 178.132 7.94776C178.188 8.15576 178.36 8.25176 178.648 8.23576C179.176 8.22776 179.768 7.85576 180.424 7.11976L180.76 4.75576Z" fill="white"/>
<path d="M188.366 3.44776L187.97 5.09176H187.538C187.29 5.09176 187.026 5.14776 186.746 5.25976C186.474 5.36376 186.078 5.55176 185.558 5.82376L185.054 9.53176H183.278L184.106 3.61576H185.486V4.73176C186.39 3.87576 187.23 3.44776 188.006 3.44776H188.366Z" fill="white"/>
<path d="M193.754 8.12776L193.874 9.25576C193.21 9.53576 192.342 9.67576 191.27 9.67576C190.142 9.67576 189.366 9.41176 188.942 8.88376C188.518 8.35576 188.37 7.54376 188.498 6.44776C188.642 5.29576 188.97 4.50776 189.482 4.08376C189.994 3.65976 190.81 3.44776 191.93 3.44776C192.97 3.44776 193.674 3.61976 194.042 3.96376C194.418 4.30776 194.558 4.81576 194.462 5.48776C194.382 6.04776 194.154 6.44776 193.778 6.68776C193.402 6.92776 192.822 7.07576 192.038 7.13176L190.286 7.26376C190.294 7.65576 190.39 7.91976 190.574 8.05576C190.766 8.19176 191.066 8.25976 191.474 8.25976C192.25 8.25976 193.01 8.21576 193.754 8.12776ZM190.394 6.21976L191.774 6.08776C192.094 6.06376 192.326 5.99976 192.47 5.89576C192.622 5.79176 192.714 5.59976 192.746 5.31976C192.77 5.05576 192.718 4.89176 192.59 4.82776C192.47 4.76376 192.21 4.73576 191.81 4.74376C191.346 4.74376 191.018 4.84376 190.826 5.04376C190.642 5.23576 190.498 5.62776 190.394 6.21976Z" fill="white"/>
<path d="M196.748 0.999756H197.492C197.868 0.999756 198.032 1.18376 197.984 1.55176L197.9 2.19976C197.852 2.51976 197.66 2.67976 197.324 2.67976H196.58C196.204 2.67976 196.04 2.49576 196.088 2.12776L196.184 1.49176C196.216 1.16376 196.404 0.999756 196.748 0.999756ZM197.684 3.61576L196.88 9.29176C196.808 9.84376 196.612 10.3558 196.292 10.8278C195.98 11.2998 195.58 11.6598 195.092 11.9078L194.12 11.0918C194.696 10.5318 195.028 9.90776 195.116 9.21976L195.92 3.61576H197.684Z" fill="white"/>
<path d="M201.901 3.44776C202.997 3.44776 203.761 3.69576 204.193 4.19176C204.625 4.68776 204.761 5.50776 204.601 6.65176C204.449 7.76376 204.117 8.54776 203.605 9.00376C203.101 9.45976 202.313 9.68776 201.241 9.68776C200.153 9.68776 199.385 9.43976 198.937 8.94376C198.497 8.44776 198.357 7.63576 198.517 6.50776C198.677 5.38776 199.009 4.59976 199.513 4.14376C200.017 3.67976 200.813 3.44776 201.901 3.44776ZM201.889 4.77976C201.401 4.77976 201.049 4.90376 200.833 5.15176C200.625 5.39976 200.469 5.89976 200.365 6.65176C200.269 7.33976 200.281 7.79576 200.401 8.01976C200.521 8.24376 200.813 8.35576 201.277 8.35576C201.757 8.35576 202.101 8.23176 202.309 7.98376C202.517 7.72776 202.673 7.23576 202.777 6.50776C202.881 5.81976 202.869 5.35976 202.741 5.12776C202.621 4.89576 202.337 4.77976 201.889 4.77976Z" fill="white"/>
<path d="M208.368 7.40776L206.94 6.81976C206.46 6.62776 206.124 6.38376 205.932 6.08776C205.74 5.79176 205.672 5.41976 205.728 4.97176C205.792 4.42776 206.028 4.03576 206.436 3.79576C206.852 3.55576 207.5 3.43976 208.38 3.44776C209.468 3.46376 210.38 3.54376 211.116 3.68776L210.948 4.81576C209.412 4.79176 208.632 4.77976 208.608 4.77976C208.144 4.77976 207.836 4.79976 207.684 4.83976C207.532 4.87176 207.444 4.95576 207.42 5.09176C207.404 5.22776 207.44 5.33176 207.528 5.40376C207.624 5.46776 207.804 5.55176 208.068 5.65576L209.52 6.23176C210.008 6.42376 210.352 6.65576 210.552 6.92776C210.752 7.19976 210.824 7.56376 210.768 8.01976C210.72 8.37176 210.624 8.65976 210.48 8.88376C210.344 9.10776 210.144 9.27576 209.88 9.38776C209.616 9.49976 209.332 9.57176 209.028 9.60376C208.724 9.64376 208.336 9.66376 207.864 9.66376C207.144 9.66376 206.276 9.59176 205.26 9.44776L205.428 8.30776C205.716 8.32376 206.344 8.33176 207.312 8.33176C208 8.33176 208.456 8.30776 208.68 8.25976C208.904 8.21176 209.032 8.10776 209.064 7.94776C209.08 7.82776 209.048 7.73976 208.968 7.68376C208.896 7.62776 208.748 7.55576 208.524 7.46776C208.46 7.44376 208.408 7.42376 208.368 7.40776Z" fill="white"/>
<path d="M49.761 16.6354L49.7236 17.6073C50.4713 16.8597 51.1068 16.5232 51.7049 16.5232C52.0414 16.5232 52.3404 16.598 52.5273 16.7849C52.7143 16.9718 52.789 17.2335 52.789 17.5326C53.4993 16.8597 54.1348 16.4858 54.6956 16.4858C55.1068 16.4858 55.3685 16.598 55.5554 16.8223C55.7423 17.0466 55.8171 17.3457 55.7423 17.7569L55.2563 21.1587H54.4713L54.9199 17.9812C54.9572 17.6821 54.9199 17.4952 54.8451 17.383C54.7703 17.2709 54.5834 17.1961 54.3591 17.1961C54.1348 17.1961 53.9105 17.2709 53.6862 17.4204C53.4619 17.57 53.1255 17.8316 52.6769 18.2428L52.2657 21.1961H51.518L51.9666 18.0186C52.004 17.7569 51.9666 17.5326 51.8918 17.4204C51.8171 17.3083 51.6675 17.2335 51.4058 17.2335C51.1815 17.2335 50.9572 17.3083 50.7329 17.4578C50.5086 17.6073 50.1722 17.869 49.7236 18.2428L49.3124 21.1961H48.5273L49.1629 16.6728H49.761V16.6354Z" fill="white"/>
<path d="M60.5272 21.1963H59.8916L59.929 20.2991C59.3309 20.972 58.658 21.3085 57.9103 21.3085C57.3496 21.3085 57.0131 21.1215 56.8262 20.7477C56.6393 20.3739 56.6019 19.7384 56.7514 18.8785C56.8262 18.3926 56.901 17.9814 57.0505 17.6449C57.1627 17.3458 57.3496 17.0842 57.5365 16.9346C57.7234 16.7851 57.9477 16.6729 58.172 16.6356C58.3963 16.5982 58.6954 16.5608 59.0318 16.5608C59.7047 16.5608 60.415 16.6356 61.1627 16.7851L60.5272 21.1963ZM59.9664 19.5888L60.3029 17.2337C59.8543 17.2337 59.5178 17.1963 59.2935 17.1963C58.658 17.1963 58.2468 17.3085 58.0599 17.4954C57.8729 17.6823 57.686 18.1683 57.5739 18.9159C57.4991 19.5888 57.4617 20.0374 57.5365 20.2617C57.6113 20.486 57.7982 20.5982 58.1346 20.5982C58.658 20.5982 59.2561 20.2617 59.9664 19.5888Z" fill="white"/>
<path d="M64.3402 19.4767L63.0692 18.916C62.7327 18.7664 62.5084 18.5795 62.3589 18.3926C62.2093 18.2057 62.172 17.944 62.2093 17.6075C62.2467 17.1963 62.4336 16.8973 62.7327 16.7477C63.0318 16.5982 63.4804 16.5234 64.1159 16.5234C64.7888 16.5234 65.4243 16.5982 66.0224 16.673L65.9103 17.2337C65.1626 17.1963 64.5645 17.1963 64.1159 17.1963C63.6673 17.1963 63.4056 17.2337 63.2187 17.2711C63.0692 17.3085 62.9944 17.458 62.957 17.6449C62.9196 17.8318 62.957 17.944 63.0318 18.0188C63.1065 18.0935 63.2561 18.2057 63.4804 18.2804L64.7514 18.8412C65.1252 18.9907 65.3869 19.1776 65.4991 19.3646C65.6486 19.5515 65.686 19.8132 65.6486 20.1496C65.6112 20.3365 65.5738 20.5234 65.4991 20.6356C65.4243 20.7477 65.3121 20.8973 65.2 20.972C65.0878 21.0468 64.9383 21.1216 64.7514 21.159C64.5645 21.1963 64.3776 21.2337 64.1906 21.2337C64.0037 21.2337 63.7794 21.2337 63.4804 21.2337C63.2561 21.2337 63.0692 21.2337 62.9196 21.2337C62.7701 21.2337 62.6206 21.2337 62.5458 21.1963C62.471 21.1963 62.3215 21.159 62.172 21.159C61.985 21.1216 61.8729 21.1216 61.7607 21.1216L61.8355 20.5608C62.2093 20.5982 62.6953 20.5982 63.2935 20.5982C63.8542 20.5982 64.2654 20.5608 64.4523 20.4861C64.6392 20.4113 64.7888 20.2618 64.8262 20.0748C64.8262 19.9627 64.8262 19.8879 64.7888 19.8132C64.7514 19.7384 64.714 19.701 64.6392 19.6636C64.6019 19.6262 64.4897 19.5889 64.3402 19.5141C64.3776 19.4767 64.3402 19.4767 64.3402 19.4767Z" fill="white"/>
<path d="M72.5268 20.5234L72.5642 21.0468C72.153 21.1963 71.5175 21.3085 70.695 21.3085C69.91 21.3085 69.3866 21.1216 69.0875 20.7104C68.7885 20.2991 68.7137 19.701 68.8259 18.8038C68.938 17.9066 69.1997 17.3085 69.5361 17.0094C69.91 16.7104 70.4707 16.5234 71.2932 16.5234C71.9661 16.5234 72.452 16.6356 72.7137 16.8973C72.9754 17.159 73.0502 17.4954 72.9754 17.9814C72.9006 18.3926 72.7137 18.729 72.452 18.916C72.1904 19.1029 71.7791 19.215 71.2184 19.2524L69.5361 19.4019C69.5361 19.8879 69.6109 20.187 69.7978 20.3739C69.9847 20.5234 70.3212 20.6356 70.7324 20.6356C71.3679 20.6356 71.9287 20.5982 72.5268 20.5234ZM69.6857 18.8412L71.2932 18.6917C71.5922 18.6543 71.8165 18.6169 71.9661 18.5047C72.1156 18.3926 72.1904 18.2057 72.2277 17.944C72.2651 17.6449 72.2277 17.4206 72.0782 17.3459C71.9287 17.2711 71.6296 17.2337 71.2184 17.2337C70.695 17.2337 70.3586 17.3459 70.1343 17.5328C69.91 17.7197 69.7978 18.1683 69.6857 18.8412Z" fill="white"/>
<path d="M81.425 14.7664L80.5278 21.1963H79.7054L80.1166 18.1308H77.1633L76.7521 21.1963H75.9297L76.8269 14.7664H77.6493L77.2755 17.4206H80.2288L80.6026 14.7664H81.425Z" fill="white"/>
<path d="M85.9481 21.1963H85.3125L85.3499 20.2991C84.7518 20.972 84.0789 21.3085 83.3312 21.3085C82.7705 21.3085 82.434 21.1215 82.2471 20.7477C82.0602 20.3739 82.0228 19.7384 82.1723 18.8785C82.2471 18.3926 82.3219 17.9814 82.4714 17.6449C82.5836 17.3458 82.7705 17.0842 82.9574 16.9346C83.1443 16.7851 83.3686 16.6729 83.5929 16.6356C83.8172 16.5982 84.1163 16.5608 84.4527 16.5608C85.1256 16.5608 85.8359 16.6356 86.5836 16.7851L85.9481 21.1963ZM85.3873 19.5888L85.7238 17.2337C85.2752 17.2337 84.9387 17.1963 84.7144 17.1963C84.0789 17.1963 83.6677 17.3085 83.4808 17.4954C83.2938 17.6823 83.1069 18.1683 82.9948 18.9159C82.92 19.5888 82.8826 20.0374 82.9574 20.2617C83.0322 20.486 83.2191 20.5982 83.5555 20.5982C84.0789 20.5982 84.677 20.2617 85.3873 19.5888Z" fill="white"/>
<path d="M90.8829 16.5234L90.696 17.2711H90.4717C90.21 17.2711 89.9483 17.3459 89.6866 17.4954C89.4249 17.6449 89.0511 17.9066 88.6025 18.2431L88.1913 21.1589H87.4062L88.0418 16.6356H88.6399L88.5651 17.6823C89.3502 16.8973 90.0605 16.5234 90.6586 16.5234H90.8829Z" fill="white"/>
<path d="M95.8173 14.6541L94.9201 21.1588H94.2846L94.3594 20.1868C93.6865 20.9345 92.9762 21.2709 92.2285 21.2709C91.7425 21.2709 91.4061 21.084 91.2192 20.7102C91.0323 20.3363 90.9949 19.7008 91.107 18.841C91.1818 18.355 91.2939 17.9438 91.4061 17.6074C91.5182 17.3083 91.6678 17.0466 91.8921 16.8971C92.079 16.7475 92.3033 16.6354 92.4902 16.5606C92.7145 16.5232 92.9762 16.4859 93.3126 16.4859C93.7239 16.4859 94.2472 16.5232 94.7706 16.598C94.7706 16.2989 94.808 15.9999 94.8454 15.7382L94.9949 14.6167H95.8173V14.6541ZM94.3594 19.5513L94.6584 17.1961C94.0603 17.1961 93.7239 17.1588 93.6117 17.1588C93.2753 17.1588 93.0136 17.1588 92.864 17.1961C92.7145 17.2335 92.5276 17.3083 92.4154 17.4578C92.3033 17.6074 92.1911 17.7569 92.1164 17.9812C92.0416 18.2055 92.0042 18.5045 91.9295 18.9158C91.8547 19.5513 91.8173 19.9999 91.8921 20.2242C91.9668 20.4485 92.1538 20.5606 92.4528 20.5606C92.7519 20.5606 93.051 20.4859 93.3126 20.2989C93.6491 20.1868 93.9855 19.9251 94.3594 19.5513Z" fill="white"/>
<path d="M97.873 20.5607H97.9851C98.1347 20.5607 98.2842 20.4486 98.4337 20.2243C98.6206 19.8878 98.8076 19.4766 98.9571 18.9533C99.144 18.4299 99.2935 17.7196 99.4431 16.8224C99.4431 16.7103 99.5178 16.6355 99.6674 16.6355H100.527C100.639 16.6355 100.714 16.7103 100.714 16.8224L101.163 20.5607H101.275C101.424 20.5607 101.537 20.4486 101.649 20.2617C101.91 19.8505 102.135 19.4019 102.322 18.9533C102.583 18.3177 102.77 17.5327 102.92 16.6355H103.742C103.518 17.6448 103.219 18.542 102.92 19.2897C102.621 19.9626 102.359 20.4486 102.135 20.7476C102.023 20.8972 101.873 21.0093 101.761 21.0841C101.649 21.1589 101.499 21.1962 101.312 21.1962H100.789C100.639 21.1962 100.565 21.1215 100.527 20.9719L100.116 17.1589H100.004C99.9291 17.7944 99.7795 18.4299 99.5926 19.1402C99.4057 19.7383 99.1814 20.2243 98.9571 20.5981C98.7328 20.9719 98.3963 21.1962 97.9478 21.1962H97.4991C97.3496 21.1962 97.2749 21.1215 97.2375 20.9719L96.415 16.6355H97.2375L97.873 20.5607Z" fill="white"/>
<path d="M108.153 21.1963H107.518L107.555 20.2991C106.957 20.972 106.284 21.3085 105.536 21.3085C104.976 21.3085 104.639 21.1215 104.452 20.7477C104.265 20.3739 104.228 19.7384 104.377 18.8785C104.452 18.3926 104.527 17.9814 104.676 17.6449C104.789 17.3458 104.976 17.0842 105.162 16.9346C105.349 16.7851 105.574 16.6729 105.798 16.6356C106.022 16.5982 106.321 16.5608 106.658 16.5608C107.331 16.5608 108.041 16.6356 108.789 16.7851L108.153 21.1963ZM107.592 19.5888L107.929 17.2337C107.48 17.2337 107.144 17.1963 106.919 17.1963C106.284 17.1963 105.873 17.3085 105.686 17.4954C105.499 17.6823 105.312 18.1683 105.2 18.9159C105.125 19.5888 105.088 20.0374 105.162 20.2617C105.237 20.486 105.424 20.5982 105.761 20.5982C106.284 20.5982 106.882 20.2617 107.592 19.5888Z" fill="white"/>
<path d="M113.088 16.5234L112.901 17.2711H112.677C112.415 17.2711 112.153 17.3459 111.892 17.4954C111.63 17.6449 111.256 17.9066 110.808 18.2431L110.396 21.1589H109.611L110.247 16.6356H110.845L110.77 17.6823C111.555 16.8973 112.266 16.5234 112.864 16.5234H113.088Z" fill="white"/>
<path d="M116.976 20.5234L117.013 21.0468C116.602 21.1963 115.967 21.3085 115.144 21.3085C114.359 21.3085 113.836 21.1216 113.537 20.7104C113.238 20.2991 113.163 19.701 113.275 18.8038C113.387 17.9066 113.649 17.3085 113.985 17.0094C114.359 16.7104 114.92 16.5234 115.742 16.5234C116.415 16.5234 116.901 16.6356 117.163 16.8973C117.425 17.159 117.499 17.4954 117.425 17.9814C117.35 18.3926 117.163 18.729 116.901 18.916C116.64 19.1029 116.228 19.215 115.668 19.2524L113.985 19.4019C113.985 19.8879 114.06 20.187 114.247 20.3739C114.434 20.5234 114.77 20.6356 115.182 20.6356C115.817 20.6356 116.378 20.5982 116.976 20.5234ZM114.135 18.8412L115.742 18.6917C116.041 18.6543 116.266 18.6169 116.415 18.5047C116.565 18.3926 116.64 18.2057 116.677 17.944C116.714 17.6449 116.677 17.4206 116.527 17.3459C116.378 17.2711 116.079 17.2337 115.668 17.2337C115.144 17.2337 114.808 17.3459 114.583 17.5328C114.359 17.7197 114.247 18.1683 114.135 18.8412Z" fill="white"/>
<path d="M120.565 19.4767L119.294 18.916C118.957 18.7664 118.733 18.5795 118.583 18.3926C118.434 18.2057 118.397 17.944 118.434 17.6075C118.471 17.1963 118.658 16.8973 118.957 16.7477C119.256 16.5982 119.705 16.5234 120.34 16.5234C121.013 16.5234 121.649 16.5982 122.247 16.673L122.135 17.2337C121.387 17.1963 120.789 17.1963 120.34 17.1963C119.892 17.1963 119.63 17.2337 119.443 17.2711C119.294 17.3085 119.219 17.458 119.182 17.6449C119.144 17.8318 119.182 17.944 119.256 18.0188C119.331 18.0935 119.481 18.2057 119.705 18.2804L120.976 18.8412C121.35 18.9907 121.612 19.1776 121.724 19.3646C121.873 19.5515 121.911 19.8132 121.873 20.1496C121.836 20.3365 121.798 20.5234 121.724 20.6356C121.649 20.7477 121.537 20.8973 121.425 20.972C121.312 21.0468 121.163 21.1216 120.976 21.159C120.789 21.1963 120.602 21.2337 120.415 21.2337C120.228 21.2337 120.004 21.2337 119.705 21.2337C119.481 21.2337 119.294 21.2337 119.144 21.2337C118.995 21.2337 118.845 21.2337 118.77 21.1963C118.696 21.1963 118.546 21.159 118.397 21.159C118.21 21.1216 118.098 21.1216 117.985 21.1216L118.06 20.5608C118.434 20.5982 118.92 20.5982 119.518 20.5982C120.079 20.5982 120.49 20.5608 120.677 20.4861C120.864 20.4113 121.013 20.2618 121.051 20.0748C121.051 19.9627 121.051 19.8879 121.013 19.8132C120.976 19.7384 120.939 19.701 120.864 19.6636C120.826 19.6262 120.714 19.5889 120.565 19.5141C120.64 19.4767 120.602 19.4767 120.565 19.4767Z" fill="white"/>
<path d="M126.285 16.6356L126.21 17.6449C126.509 17.3459 126.845 17.0842 127.219 16.8599C127.593 16.6356 127.93 16.5234 128.266 16.5234C128.827 16.5234 129.163 16.7104 129.35 17.0468C129.537 17.3832 129.537 18.0188 129.425 18.9533C129.35 19.4393 129.275 19.8505 129.126 20.187C129.014 20.4861 128.864 20.7477 128.64 20.8973C128.453 21.0468 128.229 21.159 128.004 21.2337C127.78 21.2711 127.518 21.3085 127.182 21.3085C126.771 21.3085 126.285 21.2711 125.761 21.1963C125.761 21.4954 125.724 21.7945 125.687 22.0561L125.537 23.0655H124.752L125.687 16.6356H126.285ZM126.21 18.2804L125.873 20.6356C126.322 20.6356 126.658 20.673 126.883 20.673C127.518 20.673 127.93 20.5608 128.116 20.3739C128.303 20.187 128.49 19.701 128.565 18.9533C128.64 18.2804 128.677 17.7945 128.602 17.6075C128.528 17.3832 128.341 17.2711 128.042 17.2711C127.817 17.2711 127.518 17.3459 127.182 17.5328C126.883 17.6823 126.546 17.944 126.21 18.2804Z" fill="white"/>
<path d="M134.284 21.1963H133.648L133.686 20.2991C133.088 20.972 132.415 21.3085 131.667 21.3085C131.106 21.3085 130.77 21.1215 130.583 20.7477C130.396 20.3739 130.359 19.7384 130.508 18.8785C130.583 18.3926 130.658 17.9814 130.807 17.6449C130.919 17.3458 131.106 17.0842 131.293 16.9346C131.48 16.7851 131.705 16.6729 131.929 16.6356C132.153 16.5982 132.452 16.5608 132.789 16.5608C133.462 16.5608 134.172 16.6356 134.919 16.7851L134.284 21.1963ZM133.686 19.5888L134.022 17.2337C133.574 17.2337 133.237 17.1963 133.013 17.1963C132.377 17.1963 131.966 17.3085 131.779 17.4954C131.592 17.6823 131.405 18.1683 131.293 18.9159C131.219 19.5888 131.181 20.0374 131.256 20.2617C131.331 20.486 131.518 20.5982 131.854 20.5982C132.377 20.5982 133.013 20.2617 133.686 19.5888Z" fill="white"/>
<path d="M139.182 16.5234L138.995 17.2711H138.771C138.509 17.2711 138.247 17.3459 137.985 17.4954C137.724 17.6449 137.35 17.9066 136.901 18.2431L136.49 21.1589H135.705L136.341 16.6356H136.939L136.864 17.6823C137.649 16.8973 138.359 16.5234 138.957 16.5234H139.182Z" fill="white"/>
<path d="M143.219 21.1963H142.583L142.62 20.2991C142.022 20.972 141.349 21.3085 140.602 21.3085C140.041 21.3085 139.705 21.1215 139.518 20.7477C139.331 20.3739 139.293 19.7384 139.443 18.8785C139.518 18.3926 139.592 17.9814 139.742 17.6449C139.854 17.3458 140.041 17.0842 140.228 16.9346C140.415 16.7851 140.639 16.6729 140.863 16.6356C141.088 16.5982 141.387 16.5608 141.723 16.5608C142.396 16.5608 143.106 16.6356 143.854 16.7851L143.219 21.1963ZM142.658 19.5888L142.994 17.2337C142.546 17.2337 142.209 17.1963 141.985 17.1963C141.349 17.1963 140.938 17.3085 140.751 17.4954C140.564 17.6823 140.377 18.1683 140.265 18.9159C140.191 19.5888 140.153 20.0374 140.228 20.2617C140.303 20.486 140.49 20.5982 140.826 20.5982C141.312 20.5982 141.948 20.2617 142.658 19.5888Z" fill="white"/>
<path d="M152.153 14.7664L149.312 20.972C149.275 21.1215 149.163 21.1963 149.013 21.1963H148.191C148.041 21.1963 147.929 21.1215 147.929 20.9346L146.808 14.7664H147.63L148.452 19.8879C148.49 20.1869 148.527 20.4112 148.527 20.5981H148.752C148.864 20.2991 148.938 20.0748 149.051 19.8505L151.294 14.7664H152.153Z" fill="white"/>
<path d="M155.705 21.1963H155.069L155.107 20.2991C154.509 20.972 153.836 21.3085 153.088 21.3085C152.527 21.3085 152.191 21.1215 152.004 20.7477C151.817 20.3739 151.78 19.7384 151.929 18.8785C152.004 18.3926 152.079 17.9814 152.228 17.6449C152.34 17.3458 152.527 17.0842 152.714 16.9346C152.901 16.7851 153.125 16.6729 153.35 16.6356C153.574 16.5982 153.873 16.5608 154.21 16.5608C154.882 16.5608 155.593 16.6356 156.34 16.7851L155.705 21.1963ZM155.144 19.5888L155.481 17.2337C155.032 17.2337 154.696 17.1963 154.471 17.1963C153.836 17.1963 153.425 17.3085 153.238 17.4954C153.051 17.6823 152.864 18.1683 152.752 18.9159C152.677 19.5888 152.639 20.0374 152.714 20.2617C152.789 20.486 152.976 20.5982 153.312 20.5982C153.836 20.5982 154.434 20.2617 155.144 19.5888Z" fill="white"/>
<path d="M160.639 16.5234L160.452 17.2711H160.228C159.966 17.2711 159.704 17.3459 159.442 17.4954C159.181 17.6449 158.807 17.9066 158.358 18.2431L157.947 21.1589H157.162L157.798 16.6356H158.396L158.321 17.6823C159.106 16.8973 159.816 16.5234 160.414 16.5234H160.639Z" fill="white"/>
<path d="M164.491 20.5234L164.528 21.0468C164.117 21.1963 163.481 21.3085 162.659 21.3085C161.874 21.3085 161.35 21.1216 161.051 20.7104C160.752 20.2991 160.678 19.701 160.79 18.8038C160.902 17.9066 161.164 17.3085 161.5 17.0094C161.874 16.7104 162.435 16.5234 163.257 16.5234C163.93 16.5234 164.416 16.6356 164.678 16.8973C164.939 17.159 165.014 17.4954 164.939 17.9814C164.865 18.3926 164.678 18.729 164.416 18.916C164.154 19.1029 163.743 19.215 163.182 19.2524L161.5 19.4019C161.5 19.8879 161.575 20.187 161.762 20.3739C161.949 20.5234 162.285 20.6356 162.696 20.6356C163.369 20.6356 163.93 20.5982 164.491 20.5234ZM161.687 18.8412L163.294 18.6917C163.593 18.6543 163.818 18.6169 163.967 18.5047C164.117 18.3926 164.192 18.2057 164.229 17.944C164.266 17.6449 164.229 17.4206 164.079 17.3459C163.93 17.2711 163.631 17.2337 163.22 17.2337C162.696 17.2337 162.36 17.3459 162.136 17.5328C161.911 17.7197 161.799 18.1683 161.687 18.8412Z" fill="white"/>
<path d="M167.218 16.6353L166.545 21.3082C166.508 21.682 166.396 22.0185 166.172 22.3175C165.985 22.6166 165.723 22.8783 165.424 23.1026L165.013 22.7288C165.424 22.2802 165.686 21.7942 165.76 21.2708L166.396 16.6353H167.218ZM166.882 14.7288H167.256C167.33 14.7288 167.405 14.7661 167.443 14.8035C167.48 14.8409 167.48 14.9157 167.48 14.9904L167.405 15.5138C167.368 15.6633 167.293 15.7381 167.144 15.7381H166.77C166.583 15.7381 166.508 15.6633 166.545 15.4764L166.62 14.9531C166.658 14.8035 166.732 14.7288 166.882 14.7288Z" fill="white"/>
<path d="M168.863 17.0842C169.237 16.7103 169.798 16.5608 170.546 16.5608C171.293 16.5608 171.854 16.7477 172.116 17.1215C172.415 17.4954 172.489 18.1309 172.377 18.9907C172.265 19.8505 172.003 20.4486 171.667 20.8225C171.293 21.1589 170.732 21.3458 169.985 21.3458C169.237 21.3458 168.676 21.1589 168.415 20.7851C168.116 20.4113 168.041 19.8131 168.153 18.9159C168.265 18.0561 168.489 17.4206 168.863 17.0842ZM170.583 17.1963C170.06 17.1963 169.686 17.3085 169.461 17.5701C169.237 17.7944 169.05 18.2804 168.975 18.9533C168.901 19.5888 168.901 20.0374 169.05 20.2617C169.2 20.486 169.499 20.5982 169.985 20.5982C170.508 20.5982 170.882 20.486 171.106 20.2243C171.331 19.9627 171.518 19.5141 171.592 18.8412C171.667 18.2057 171.667 17.7571 171.517 17.4954C171.368 17.3458 171.069 17.1963 170.583 17.1963Z" fill="white"/>
<path d="M11.8169 19.1402C11.7795 19.8879 11.1813 20.4487 10.4337 20.4487H4.1533C3.40564 20.4487 2.80751 19.8505 2.77012 19.1402L2.09723 6.95333C2.05984 6.3552 2.54583 5.83184 3.14396 5.83184H11.443C12.0412 5.83184 12.5271 6.3552 12.4898 6.95333L11.8169 19.1402ZM12.3028 3.92529H2.32153C0.975732 3.92529 -0.070997 5.04679 0.00376935 6.3552L1.08788 21.7571C1.16265 23.0281 2.17199 24.0001 3.44302 24.0001H11.2187C12.4898 24.0001 13.4991 23.0281 13.5739 21.7571L14.658 6.3552C14.6954 5.04679 13.6486 3.92529 12.3028 3.92529Z" fill="white"/>
<path d="M3.33074 5.38318C3.18121 5.38318 3.10645 5.27103 3.10645 5.15888C3.14383 4.07477 3.51766 0 6.73261 0H13.9102C14.1345 0 14.2466 0.299065 14.0223 0.411215C12.9756 1.04673 11.3681 2.42991 11.256 5.1215C11.256 5.23365 11.1438 5.3458 11.0317 5.3458H3.33074V5.38318Z" fill="white"/>
<path d="M6.43322 15.7384L4.00331 13.3085C3.66686 12.972 3.66686 12.4113 4.00331 12.0748C4.33976 11.7384 4.90051 11.7384 5.23696 12.0748L6.43322 13.2711L9.46126 10.2431C9.79771 9.90661 10.3585 9.90661 10.6949 10.2431C11.0314 10.5795 11.0314 11.1403 10.6949 11.4767L6.43322 15.7384Z" fill="white"/>
</svg>
