<svg width="26" height="31" viewBox="0 0 26 31" fill="none" xmlns="http://www.w3.org/2000/svg">
<path d="M19.0851 15.7895V28.6881C19.0851 29.0444 18.8772 29.3414 18.5506 29.4899L18.1942 29.579C17.9864 29.579 17.7488 29.4899 17.6003 29.3414L15.5216 27.4111L13.3834 29.3414C13.0567 29.6384 12.5222 29.6384 12.1956 29.3414L10.0574 27.4111L7.88957 29.3414C7.56291 29.6384 7.02837 29.6384 6.70171 29.3414L4.56357 27.4111L2.48482 29.3414C2.30664 29.4899 2.09877 29.579 1.89089 29.579C1.41575 29.579 1 29.1929 1 28.6881V6.89089C1 6.38605 1.38605 6 1.89089 6H10.0574" stroke="#F07E26" stroke-width="2" stroke-linecap="round" stroke-linejoin="round"/>
<path d="M5.00033 17.5791L11.667 17.5791" stroke="#1F3D8C" stroke-width="2" stroke-linecap="round" stroke-linejoin="round"/>
<path d="M5.00033 21.5791L15.667 21.5791" stroke="#1F3D8C" stroke-width="2" stroke-linecap="round" stroke-linejoin="round"/>
<path d="M5.00033 13.5791L7.66699 13.5791" stroke="#1F3D8C" stroke-width="2" stroke-linecap="round" stroke-linejoin="round"/>
<path d="M19.5 12C22.5376 12 25 9.53757 25 6.5C25 3.46243 22.5376 1 19.5 1C16.4624 1 14 3.46243 14 6.5C14 9.53757 16.4624 12 19.5 12Z" stroke="#1F3D8C" stroke-width="2" stroke-linecap="round" stroke-linejoin="round"/>
<path d="M14 6.5H25" stroke="#1F3D8C" stroke-width="2" stroke-linecap="round" stroke-linejoin="round"/>
<path d="M19.4998 1C20.8755 2.50609 21.6573 4.46062 21.6998 6.5C21.6573 8.53938 20.8755 10.4939 19.4998 12C18.1241 10.4939 17.3423 8.53938 17.2998 6.5C17.3423 4.46062 18.1241 2.50609 19.4998 1Z" stroke="#1F3D8C" stroke-width="2" stroke-linecap="round" stroke-linejoin="round"/>
</svg>
