<svg width="29" height="27" viewBox="0 0 29 27" fill="none" xmlns="http://www.w3.org/2000/svg">
<path d="M14.3333 2H3.66667C2.19391 2 1 3.19391 1 4.66667V18C1 19.4728 2.19391 20.6667 3.66667 20.6667H25C26.4728 20.6667 27.6667 19.4728 27.6667 18V15" stroke="#E4B263" stroke-width="2" stroke-linecap="round" stroke-linejoin="round"/>
<path d="M21.5 10C23.9853 10 26 7.98528 26 5.5C26 3.01472 23.9853 1 21.5 1C19.0147 1 17 3.01472 17 5.5C17 7.98528 19.0147 10 21.5 10Z" stroke="#405B9A" stroke-width="2" stroke-linecap="round" stroke-linejoin="round"/>
<path d="M28.0001 11.9509L25.1001 9.30444" stroke="#405B9A" stroke-width="2" stroke-linecap="round" stroke-linejoin="round"/>
<path d="M5.33325 12H11.3333" stroke="#405B9A" stroke-width="2" stroke-linecap="round" stroke-linejoin="round"/>
<path d="M5.33333 16L16 16" stroke="#405B9A" stroke-width="2" stroke-linecap="round" stroke-linejoin="round"/>
<path d="M5.33333 8L8 8" stroke="#405B9A" stroke-width="2" stroke-linecap="round" stroke-linejoin="round"/>
<path d="M9 26H19.6667" stroke="#E4B263" stroke-width="2" stroke-linecap="round" stroke-linejoin="round"/>
<path d="M14.3333 20.6666V26" stroke="#E4B263" stroke-width="2" stroke-linecap="round" stroke-linejoin="round"/>
</svg>
