<svg width="29" height="33" viewBox="0 0 29 33" fill="none" xmlns="http://www.w3.org/2000/svg">
<path d="M6.36538 8.15381H3.38461C2.75217 8.15381 2.14564 8.40504 1.69844 8.85225C1.25124 9.29945 1 9.90598 1 10.5384V29.6153C1 30.2478 1.25124 30.8543 1.69844 31.3015C2.14564 31.7487 2.75217 31.9999 3.38461 31.9999H17.6923C18.3247 31.9999 18.9313 31.7487 19.3785 31.3015C19.8257 30.8543 20.0769 30.2478 20.0769 29.6153V20.673" stroke="#F07E26" stroke-width="2" stroke-linecap="round" stroke-linejoin="round"/>
<path d="M15.308 21.2693H5.76953" stroke="#DC272B" stroke-width="2" stroke-linecap="round" stroke-linejoin="round"/>
<path d="M15.308 26.0385H5.76953" stroke="#DC272B" stroke-width="2" stroke-linecap="round" stroke-linejoin="round"/>
<path d="M8.15414 16.5H6.96184H5.76953" stroke="#DC272B" stroke-width="2" stroke-linecap="round" stroke-linejoin="round"/>
<path d="M18.8842 17.6923C23.4937 17.6923 27.2304 13.9556 27.2304 9.34614C27.2304 4.7367 23.4937 1 18.8842 1C14.2748 1 10.5381 4.7367 10.5381 9.34614C10.5381 13.9556 14.2748 17.6923 18.8842 17.6923Z" stroke="#DC272B" stroke-width="2" stroke-linecap="round" stroke-linejoin="round"/>
<path d="M18.7607 4.49036V13.6711" stroke="#DC272B" stroke-width="2" stroke-linecap="round" stroke-linejoin="round"/>
<path d="M20.8482 6.15942H17.7184C17.331 6.15942 16.9595 6.31331 16.6856 6.58722C16.4117 6.86113 16.2578 7.23263 16.2578 7.62C16.2578 8.00737 16.4117 8.37887 16.6856 8.65278C16.9595 8.92669 17.331 9.08057 17.7184 9.08057H19.8049C20.1923 9.08057 20.5638 9.23446 20.8377 9.50837C21.1116 9.78228 21.2655 10.1538 21.2655 10.5411C21.2655 10.9285 21.1116 11.3 20.8377 11.5739C20.5638 11.8478 20.1923 12.0017 19.8049 12.0017H16.2578" stroke="#DC272B" stroke-width="2" stroke-linecap="round" stroke-linejoin="round"/>
</svg>
