<svg width="75" height="75" viewBox="0 0 75 75" fill="none" xmlns="http://www.w3.org/2000/svg">
<g id="play">
<g id="Group 9">
<g id="Group 8">
<path id="Oval" d="M37.2296 62.5902C51.2359 62.5902 62.5902 51.2359 62.5902 37.2296C62.5902 23.2232 51.2359 11.8689 37.2296 11.8689C23.2232 11.8689 11.8689 23.2232 11.8689 37.2296C11.8689 51.2359 23.2232 62.5902 37.2296 62.5902Z" stroke="white" stroke-width="1.35861"/>
<path id="Oval_2" opacity="0.2" d="M37.2295 73.459C57.2385 73.459 73.459 57.2385 73.459 37.2295C73.459 17.2205 57.2385 1 37.2295 1C17.2205 1 1 17.2205 1 37.2295C1 57.2385 17.2205 73.459 37.2295 73.459Z" stroke="white" stroke-width="1.35861"/>
<path id="Rectangle" d="M33.2227 31.5863C33.2227 30.0863 34.8651 29.2376 36.0017 30.1502L43.8969 36.489C44.799 37.2133 44.799 38.6369 43.8969 39.3612L36.0017 45.6999C34.8651 46.6125 33.2227 45.7638 33.2227 44.2639L33.2227 31.5863Z" fill="white"/>
</g>
</g>
</g>
</svg>
