<svg width="38" height="40" viewBox="0 0 38 40" fill="none" xmlns="http://www.w3.org/2000/svg">
<rect width="38" height="40" rx="19" fill="#FFF2F3"/>
<path d="M25.0938 14.3281C26.7344 15.9688 27.75 18.1172 27.75 20.4609C27.75 25.2266 23.7656 29.1328 18.9609 29.1328C17.5156 29.1328 16.1094 28.7422 14.8203 28.0781L10.25 29.25L11.4609 24.7578C10.7188 23.4688 10.2891 21.9844 10.2891 20.4219C10.2891 15.6562 14.1953 11.75 18.9609 11.75C21.3047 11.75 23.4922 12.6875 25.0938 14.3281ZM18.9609 27.6484C22.9453 27.6484 26.2656 24.4062 26.2656 20.4609C26.2656 18.5078 25.4453 16.7109 24.0781 15.3438C22.7109 13.9766 20.9141 13.2344 19 13.2344C15.0156 13.2344 11.7734 16.4766 11.7734 20.4219C11.7734 21.7891 12.1641 23.1172 12.8672 24.2891L13.0625 24.5625L12.3203 27.2188L15.0547 26.4766L15.2891 26.6328C16.4219 27.2969 17.6719 27.6484 18.9609 27.6484ZM22.9453 22.2578C23.1406 22.375 23.2969 22.4141 23.3359 22.5312C23.4141 22.6094 23.4141 23.0391 23.2188 23.5469C23.0234 24.0547 22.1641 24.5234 21.7734 24.5625C21.0703 24.6797 20.5234 24.6406 19.1562 24.0156C16.9688 23.0781 15.5625 20.8906 15.4453 20.7734C15.3281 20.6172 14.5859 19.6016 14.5859 18.5078C14.5859 17.4531 15.1328 16.9453 15.3281 16.7109C15.5234 16.4766 15.7578 16.4375 15.9141 16.4375C16.0312 16.4375 16.1875 16.4375 16.3047 16.4375C16.4609 16.4375 16.6172 16.3984 16.8125 16.8281C16.9688 17.2578 17.4375 18.3125 17.4766 18.4297C17.5156 18.5469 17.5547 18.6641 17.4766 18.8203C17.0859 19.6406 16.6172 19.6016 16.8516 19.9922C17.7109 21.4375 18.5312 21.9453 19.8203 22.5703C20.0156 22.6875 20.1328 22.6484 20.2891 22.5312C20.4062 22.375 20.8359 21.8672 20.9531 21.6719C21.1094 21.4375 21.2656 21.4766 21.4609 21.5547C21.6562 21.6328 22.7109 22.1406 22.9453 22.2578Z" fill="#FF000A"/>
</svg>
