<svg width="50" height="48" viewBox="0 0 50 48" fill="none" xmlns="http://www.w3.org/2000/svg">
<path d="M33.6793 1.70048C37.3385 3.19155 40.5518 5.60018 43.0095 8.69415C45.4672 11.7881 47.0864 15.4631 47.7109 19.3647C48.3354 23.2664 47.9443 27.2631 46.5751 30.9696C45.2059 34.6762 42.905 37.9675 39.894 40.5262C36.8831 43.0849 33.2637 44.8248 29.3849 45.5781C25.506 46.3315 21.4985 46.0728 17.7487 44.827C13.9989 43.5813 10.6333 41.3905 7.97631 38.4659C5.31932 35.5413 3.4606 31.9815 2.57934 28.1297" stroke="#1F3D8C" stroke-width="2.5" stroke-linecap="round" stroke-linejoin="round"/>
<circle cx="2.5" cy="25.5" r="2.5" fill="#1F3D8C"/>
<path d="M24 11V33" stroke="#F07E26" stroke-width="2.5" stroke-linecap="round" stroke-linejoin="round"/>
<path d="M29 15H21.5C20.5717 15 19.6815 15.3687 19.0251 16.0251C18.3687 16.6815 18 17.5717 18 18.5C18 19.4283 18.3687 20.3185 19.0251 20.9749C19.6815 21.6313 20.5717 22 21.5 22H26.5C27.4283 22 28.3185 22.3687 28.9749 23.0251C29.6313 23.6815 30 24.5717 30 25.5C30 26.4283 29.6313 27.3185 28.9749 27.9749C28.3185 28.6313 27.4283 29 26.5 29H18" stroke="#F07E26" stroke-width="2.5" stroke-linecap="round" stroke-linejoin="round"/>
</svg>
