<svg width="239" height="155" viewBox="0 0 239 155" fill="none" xmlns="http://www.w3.org/2000/svg">
<path opacity="0.5" fill-rule="evenodd" clip-rule="evenodd" d="M129.661 18.1264C123.812 14.7387 114.373 14.7387 108.571 18.1207L4.34028 78.89C-1.47416 82.2777 -1.44191 87.7646 4.40857 91.1523L109.323 151.924C115.16 155.304 124.6 155.304 130.412 151.916L234.645 91.1447C240.444 87.7646 240.414 82.2777 234.577 78.8957L129.661 18.1264Z" fill="url(#paint0_linear)"/>
<path opacity="0.5" fill-rule="evenodd" clip-rule="evenodd" d="M129.661 3.02831C123.812 -0.359396 114.373 -0.359395 108.571 3.0226L4.34028 63.7919C-1.47416 67.1796 -1.44191 72.6666 4.40857 76.0543L109.323 136.825C115.16 140.206 124.6 140.206 130.412 136.818L234.645 76.0467C240.444 72.6666 240.414 67.1796 234.577 63.7976L129.661 3.02831Z" fill="url(#paint1_linear)"/>
<path fill-rule="evenodd" clip-rule="evenodd" d="M200.24 25.4868L190.064 31.3569L200.307 37.2258L210.483 31.3557L200.24 25.4868Z" fill="#EA6565"/>
<path fill-rule="evenodd" clip-rule="evenodd" d="M210.484 31.3563L210.334 70.3077L200.158 76.1766L200.308 37.2264L210.484 31.3563Z" fill="#CD4C4A"/>
<path fill-rule="evenodd" clip-rule="evenodd" d="M200.307 37.226L200.158 76.1761L189.915 70.3072L190.064 31.3571L200.307 37.226Z" fill="#DC272B"/>
<path fill-rule="evenodd" clip-rule="evenodd" d="M195.026 54.2685L184.85 60.1386L174.606 54.2685L184.784 48.3996L195.026 54.2685Z" fill="#DBE3EB"/>
<path fill-rule="evenodd" clip-rule="evenodd" d="M195.026 54.2684L194.877 78.7892L184.701 84.6594L184.85 60.1386L195.026 54.2684Z" fill="#D1D9E2"/>
<path fill-rule="evenodd" clip-rule="evenodd" d="M184.85 60.1382L184.7 84.659L174.457 78.7901L174.607 54.2693L184.85 60.1382Z" fill="#F1F6FC"/>
<path fill-rule="evenodd" clip-rule="evenodd" d="M159.151 74.6137L169.392 80.4826L179.57 74.6137L169.326 68.7435L159.151 74.6137Z" fill="#DBE3EB"/>
<path fill-rule="evenodd" clip-rule="evenodd" d="M179.569 74.6133L179.419 87.2724L169.242 93.1425L169.393 80.4835L179.569 74.6133Z" fill="#D1D9E2"/>
<path fill-rule="evenodd" clip-rule="evenodd" d="M159 87.2732L169.243 93.1421L169.392 80.483L159.151 74.6141L159 87.2732Z" fill="#F1F6FC"/>
<path fill-rule="evenodd" clip-rule="evenodd" d="M156.437 96.8817L96 107.617L118.78 119.011L156.437 100.173V96.8817Z" fill="#931914"/>
<path fill-rule="evenodd" clip-rule="evenodd" d="M96 104.326V107.617L118.78 119.01V115.719L96 104.326Z" fill="#B0322F"/>
<path fill-rule="evenodd" clip-rule="evenodd" d="M133.661 85.4868L96.0004 104.327L118.779 115.719L156.438 96.8811L133.661 85.4868Z" fill="#DC272B"/>
<path fill-rule="evenodd" clip-rule="evenodd" d="M115.551 97.9927L102.647 104.448L105.874 106.064L118.78 99.6087L115.551 97.9927Z" fill="#EA6565"/>
<path fill-rule="evenodd" clip-rule="evenodd" d="M136.774 89.6106C135.057 88.7507 132.544 88.6109 131.171 89.2971L126.187 91.7927C124.812 92.4807 125.091 93.7365 126.809 94.5947C128.528 95.4546 131.038 95.5944 132.414 94.9082L137.397 92.4126C138.772 91.7264 138.493 90.4688 136.774 89.6106" fill="#EA6565"/>
<path fill-rule="evenodd" clip-rule="evenodd" d="M121.406 107.377L114.952 110.606L118.181 112.22L124.633 108.99L121.406 107.377Z" fill="#EA6565"/>
<path fill-rule="evenodd" clip-rule="evenodd" d="M146.531 94.8084L140.077 98.0368L143.307 99.651L149.758 96.4226L146.531 94.8084Z" fill="#EA6565"/>
<path fill-rule="evenodd" clip-rule="evenodd" d="M138.131 99.0109L131.679 102.238L134.908 103.85L141.36 100.623L138.131 99.0109Z" fill="#EA6565"/>
<path fill-rule="evenodd" clip-rule="evenodd" d="M129.921 103.117L123.469 106.344L126.696 107.958L133.148 104.731L129.921 103.117Z" fill="#EA6565"/>
<path fill-rule="evenodd" clip-rule="evenodd" d="M147.053 47.6785L155.443 48.8659L150.163 51.9368L140.273 51.511L141.867 43.4437L129.858 43.2266L120.216 39.2735L108.597 36.2428L107.873 29.7659L97.7928 29.3968L100.516 27.8131L114.09 26.1496L113.037 33.7747L127.126 35.7666L134.002 40.8293L146.534 40.5517L147.053 47.6785Z" fill="#DC272B"/>
<path fill-rule="evenodd" clip-rule="evenodd" d="M108.925 22.922L108.92 24.7689L100.51 29.6601L100.516 27.8132L108.925 22.922" fill="#3A896D"/>
<path fill-rule="evenodd" clip-rule="evenodd" d="M114.09 26.1495L114.085 27.9964L100.511 29.6599L100.516 27.8131L114.09 26.1495" fill="#B0322F"/>
<path fill-rule="evenodd" clip-rule="evenodd" d="M100.515 27.8133L100.51 29.6602L97.7872 31.2439L97.7924 29.397L100.515 27.8133" fill="#B0322F"/>
<path fill-rule="evenodd" clip-rule="evenodd" d="M107.872 29.7659L107.867 31.6128L97.7872 31.2438L97.7924 29.3969L107.872 29.7659" fill="#5E1D1D"/>
<path fill-rule="evenodd" clip-rule="evenodd" d="M95.7579 30.5809L95.7525 32.4278L95.4403 32.2498L95.4455 30.4029L95.7579 30.5809" fill="#295D4B"/>
<path fill-rule="evenodd" clip-rule="evenodd" d="M96.0632 30.4035L96.0579 32.2502L95.7524 32.4279L95.7578 30.581L96.0632 30.4035" fill="#242C55"/>
<path fill-rule="evenodd" clip-rule="evenodd" d="M97.7932 29.3969L97.788 31.2438L95.7524 32.4277L95.7578 30.5807L97.7932 29.3969" fill="#3A896D"/>
<path fill-rule="evenodd" clip-rule="evenodd" d="M93.2571 31.6755L93.2519 33.5223L91.4004 34.5993L91.4057 32.7524L93.2571 31.6755" fill="#BFBFBA"/>
<path fill-rule="evenodd" clip-rule="evenodd" d="M114.09 26.1496L114.085 27.9965L113.032 35.6215L113.037 33.7747L114.09 26.1496" fill="#511A1C"/>
<path fill-rule="evenodd" clip-rule="evenodd" d="M97.0854 33.888L97.0802 35.7349L93.2513 33.5223L93.2565 31.6755L97.0854 33.888" fill="#81827F"/>
<path fill-rule="evenodd" clip-rule="evenodd" d="M90.3424 33.3705L90.3372 35.2172L88.4858 36.2942L88.491 34.4473L90.3424 33.3705" fill="#BFBFBA"/>
<path fill-rule="evenodd" clip-rule="evenodd" d="M97.086 33.8884L97.0807 35.7352L95.2293 36.8121L95.2345 34.9652L97.086 33.8884" fill="#A6A6A3"/>
<path fill-rule="evenodd" clip-rule="evenodd" d="M95.2341 34.9651L95.2289 36.8121L91.3997 34.5993L91.4051 32.7524L95.2341 34.9651" fill="#72726F"/>
<path fill-rule="evenodd" clip-rule="evenodd" d="M97.785 34.2925L97.7797 36.1394L95.9283 37.2163L95.9335 35.3694L97.785 34.2925" fill="#BFBFBA"/>
<path fill-rule="evenodd" clip-rule="evenodd" d="M127.125 35.7668L127.12 37.6137L113.031 35.6216L113.036 33.7747L127.125 35.7668" fill="#B0322F"/>
<path fill-rule="evenodd" clip-rule="evenodd" d="M87.7564 34.8751L87.7512 36.722L85.9008 37.7983L85.9059 35.9515L87.7564 34.8751" fill="#BFBFBA"/>
<path fill-rule="evenodd" clip-rule="evenodd" d="M108.597 36.2429L108.592 38.0898L107.867 31.6129L107.872 29.766L108.597 36.2429" fill="#401919"/>
<path fill-rule="evenodd" clip-rule="evenodd" d="M102.737 42.6797L102.732 44.5266L88.4858 36.2943L88.491 34.4475L102.737 42.6797" fill="#72726F"/>
<path fill-rule="evenodd" clip-rule="evenodd" d="M93.873 38.4098L93.8678 40.2567L87.751 36.722L87.7562 34.8751L93.873 38.4098" fill="#81827F"/>
<path fill-rule="evenodd" clip-rule="evenodd" d="M120.216 39.2735L120.211 41.1204L108.592 38.0898L108.597 36.2429L120.216 39.2735" fill="#521B1C"/>
<path fill-rule="evenodd" clip-rule="evenodd" d="M93.8719 38.4102L93.8667 40.2571L92.0161 41.3335L92.0214 39.4866L93.8719 38.4102" fill="#A6A6A3"/>
<path fill-rule="evenodd" clip-rule="evenodd" d="M92.0228 39.4864L92.0175 41.3333L85.9008 37.7986L85.9059 35.9517L92.0228 39.4864" fill="#72726F"/>
<path fill-rule="evenodd" clip-rule="evenodd" d="M107.502 39.9079L107.497 41.7546L97.7798 36.1394L97.7851 34.2925L107.502 39.9079" fill="#81827F"/>
<path fill-rule="evenodd" clip-rule="evenodd" d="M94.5987 38.83L94.5935 40.6769L92.7429 41.7532L92.7481 39.9063L94.5987 38.83" fill="#BFBFBA"/>
<path fill-rule="evenodd" clip-rule="evenodd" d="M134.001 40.8293L133.996 42.6762L127.12 37.6135L127.125 35.7666L134.001 40.8293" fill="#931914"/>
<path fill-rule="evenodd" clip-rule="evenodd" d="M146.534 40.5516L146.529 42.3985L133.997 42.6763L134.002 40.8294L146.534 40.5516" fill="#B0322F"/>
<path fill-rule="evenodd" clip-rule="evenodd" d="M107.503 39.9078L107.498 41.7547L105.647 42.8316L105.652 40.9848L107.503 39.9078" fill="#A6A6A3"/>
<path fill-rule="evenodd" clip-rule="evenodd" d="M106.131 41.2622L106.126 43.1091L95.9283 37.2163L95.9335 35.3694L106.131 41.2622" fill="#72726F"/>
<path fill-rule="evenodd" clip-rule="evenodd" d="M106.132 41.2622L106.127 43.1091L105.647 42.8315L105.652 40.9847L106.132 41.2622" fill="#72726F"/>
<path fill-rule="evenodd" clip-rule="evenodd" d="M104.589 41.6026L104.584 43.4494L90.338 35.2172L90.3431 33.3705L104.589 41.6026" fill="#81827F"/>
<path fill-rule="evenodd" clip-rule="evenodd" d="M111.072 41.9704L111.067 43.8173L107.498 41.7545L107.503 39.9077L111.072 41.9704" fill="#81827F"/>
<path fill-rule="evenodd" clip-rule="evenodd" d="M104.588 41.6028L104.583 43.4497L102.732 44.5265L102.737 42.6796L104.588 41.6028" fill="#A6A6A3"/>
<path fill-rule="evenodd" clip-rule="evenodd" d="M105.069 41.88L105.064 43.7269L103.212 44.8037L103.217 42.9568L105.069 41.88" fill="#BFBFBA"/>
<path fill-rule="evenodd" clip-rule="evenodd" d="M109.221 43.0476L109.216 44.8945L106.127 43.1091L106.132 41.2622L109.221 43.0476" fill="#72726F"/>
<path fill-rule="evenodd" clip-rule="evenodd" d="M111.073 41.9708L109.222 43.0476L106.132 41.2623L105.652 40.9848L107.503 39.9078L111.073 41.9708" fill="#BBBBB6"/>
<path fill-rule="evenodd" clip-rule="evenodd" d="M111.073 41.9708L111.067 43.8177L109.216 44.8946L109.221 43.0477L111.073 41.9708" fill="#A6A6A3"/>
<path fill-rule="evenodd" clip-rule="evenodd" d="M129.859 43.2266L129.853 45.0735L120.211 41.1203L120.216 39.2734L129.859 43.2266" fill="#4B191A"/>
<path fill-rule="evenodd" clip-rule="evenodd" d="M141.868 43.4439L141.862 45.2908L129.853 45.0737L129.859 43.2268L141.868 43.4439" fill="#5E1D1D"/>
<path fill-rule="evenodd" clip-rule="evenodd" d="M111.614 42.283L111.608 44.1299L109.757 45.2067L109.762 43.3598L111.614 42.283" fill="#BFBFBA"/>
<mask id="mask0" mask-type="alpha" maskUnits="userSpaceOnUse" x="91" y="43" width="2" height="4">
<path fill-rule="evenodd" clip-rule="evenodd" d="M92.7238 46.4785C92.2525 46.0664 91.7029 45.6753 91.0752 45.3126L91.0804 43.4657C91.7081 43.8285 92.2578 44.2195 92.729 44.6316C92.7273 45.2473 92.7256 45.8628 92.7238 46.4785" fill="white"/>
</mask>
<g mask="url(#mask0)">
<path fill-rule="evenodd" clip-rule="evenodd" d="M94.8567 48.7464L94.8514 50.5932C94.8568 48.683 93.5973 46.77 91.0752 45.3126L91.0804 43.4657C93.6025 44.9231 94.862 46.8362 94.8567 48.7464" fill="#7D7E7B"/>
</g>
<mask id="mask1" mask-type="alpha" maskUnits="userSpaceOnUse" x="69" y="41" width="23" height="10">
<path fill-rule="evenodd" clip-rule="evenodd" d="M72.9813 45.3127C70.509 46.7507 69.2709 48.6326 69.2643 50.5176L69.2694 48.6707C69.2761 46.7858 70.5142 44.9038 72.9865 43.4658C77.9665 40.5693 86.0674 40.5693 91.0799 43.4658L91.0747 45.3127C86.0622 42.4162 77.9612 42.4162 72.9813 45.3127" fill="white"/>
</mask>
<g mask="url(#mask1)">
<path fill-rule="evenodd" clip-rule="evenodd" d="M91.0801 43.4657L91.0749 45.3126C90.4975 44.9789 89.8792 44.6837 89.2294 44.4269L89.2346 42.5801C89.8844 42.8368 90.5027 43.132 91.0801 43.4657" fill="#7D7E7B"/>
<path fill-rule="evenodd" clip-rule="evenodd" d="M89.2341 42.5802L89.2289 44.427C88.7282 44.2292 88.2089 44.0542 87.6752 43.902L87.6804 42.0551C88.2141 42.2073 88.7334 42.3824 89.2341 42.5802" fill="#82837F"/>
<path fill-rule="evenodd" clip-rule="evenodd" d="M87.681 42.0551L87.6758 43.902C87.2397 43.7776 86.7942 43.6685 86.3413 43.5745L86.3465 41.7276C86.7994 41.8216 87.2449 41.9307 87.681 42.0551" fill="#878984"/>
<path fill-rule="evenodd" clip-rule="evenodd" d="M86.3466 41.7278L86.3414 43.5747C85.9241 43.4882 85.5006 43.4146 85.0729 43.354L85.0781 41.5071C85.5059 41.5677 85.9293 41.6413 86.3466 41.7278" fill="#8C8D89"/>
<path fill-rule="evenodd" clip-rule="evenodd" d="M85.0781 41.5069L85.0729 43.3538C84.6617 43.2955 84.2465 43.249 83.8291 43.2146L83.8343 41.3678C84.2517 41.4022 84.6669 41.4486 85.0781 41.5069" fill="#91928E"/>
<path fill-rule="evenodd" clip-rule="evenodd" d="M83.8341 41.3678L83.8289 43.2146C83.4105 43.1801 82.9899 43.1577 82.5686 43.1471L82.5738 41.3002C82.9951 41.3108 83.4157 41.3333 83.8341 41.3678" fill="#959692"/>
<path fill-rule="evenodd" clip-rule="evenodd" d="M82.5739 41.3003L82.5687 43.1472C82.1319 43.1363 81.6945 43.1383 81.2581 43.1533L81.2635 41.3064C81.6997 41.2915 82.1371 41.2895 82.5739 41.3003" fill="#9A9B97"/>
<path fill-rule="evenodd" clip-rule="evenodd" d="M81.2634 41.3064L81.258 43.1533C80.7829 43.1696 80.3092 43.201 79.8391 43.2479L79.8443 41.401C80.3144 41.3542 80.7881 41.3227 81.2634 41.3064" fill="#A0A19D"/>
<path fill-rule="evenodd" clip-rule="evenodd" d="M79.8438 41.4009L79.8386 43.2478C79.2881 43.3026 78.7429 43.3785 78.2066 43.4753L78.2118 41.6284C78.7482 41.5317 79.2933 41.4557 79.8438 41.4009" fill="#A6A6A3"/>
<path fill-rule="evenodd" clip-rule="evenodd" d="M78.2125 41.6284L78.2073 43.4754C77.3735 43.6258 76.5614 43.8269 75.7851 44.0788L75.7904 42.232C76.5666 41.9802 77.3787 41.7789 78.2125 41.6284" fill="#ACADA9"/>
<path fill-rule="evenodd" clip-rule="evenodd" d="M75.7909 42.232L75.7856 44.0788C74.7803 44.405 73.8354 44.8163 72.9821 45.3126C72.9295 45.3433 72.8775 45.374 72.8261 45.405L72.8313 43.5581C72.8827 43.5271 72.9347 43.4964 72.9873 43.4657C73.8406 42.9695 74.7856 42.5581 75.7909 42.232" fill="#B2B2AE"/>
<path fill-rule="evenodd" clip-rule="evenodd" d="M72.8302 43.5582L72.825 45.4051C72.2039 45.779 71.6639 46.1817 71.2053 46.6053L71.2106 44.7586C71.6692 44.3348 72.209 43.9321 72.8302 43.5582" fill="#ACADA9"/>
<path fill-rule="evenodd" clip-rule="evenodd" d="M71.2112 44.7586L71.2058 46.6054C70.9069 46.8817 70.6425 47.167 70.4125 47.4593L70.4178 45.6124C70.6477 45.3201 70.9121 45.0349 71.2112 44.7586" fill="#A6A6A3"/>
<path fill-rule="evenodd" clip-rule="evenodd" d="M70.4174 45.6122L70.4121 47.4591C70.2152 47.7094 70.0437 47.9649 69.8973 48.2241L69.9027 46.3772C70.0489 46.118 70.2204 45.8625 70.4174 45.6122" fill="#A0A19D"/>
<path fill-rule="evenodd" clip-rule="evenodd" d="M69.9029 46.3771L69.8975 48.224C69.7623 48.4638 69.6487 48.7067 69.5568 48.9519L69.562 47.105C69.6539 46.86 69.7676 46.6169 69.9029 46.3771" fill="#9A9B97"/>
<path fill-rule="evenodd" clip-rule="evenodd" d="M69.5626 47.1053L69.5574 48.9522C69.468 49.1907 69.399 49.4314 69.3507 49.6732L69.3559 47.8263C69.4042 47.5845 69.4732 47.3438 69.5626 47.1053" fill="#959692"/>
<path fill-rule="evenodd" clip-rule="evenodd" d="M69.3552 47.8262L69.35 49.6731C69.3011 49.9171 69.2731 50.1624 69.266 50.4078L69.2713 48.5609C69.2783 48.3154 69.3063 48.0702 69.3552 47.8262" fill="#91928E"/>
<path fill-rule="evenodd" clip-rule="evenodd" d="M69.2715 48.561L69.2662 50.4079C69.2653 50.4454 69.2646 50.4828 69.2645 50.5204L69.2697 48.6735C69.2698 48.6359 69.2705 48.5985 69.2715 48.561" fill="#8C8D89"/>
</g>
<mask id="mask2" mask-type="alpha" maskUnits="userSpaceOnUse" x="70" y="42" width="23" height="9">
<path fill-rule="evenodd" clip-rule="evenodd" d="M74.1704 46C72.0219 47.2496 70.9461 48.885 70.9406 50.5229L70.9457 48.676C70.9513 47.0381 72.0272 45.4028 74.1756 44.1531C78.5035 41.6357 85.5428 41.6363 89.8982 44.153C91.5321 45.0972 92.5562 46.2616 92.9697 47.481C92.9679 48.0966 92.9662 48.7121 92.9645 49.3277C92.551 48.1084 91.5269 46.9441 89.8928 45.9999C85.5376 43.4832 78.4982 43.4826 74.1704 46" fill="white"/>
</mask>
<g mask="url(#mask2)">
<path fill-rule="evenodd" clip-rule="evenodd" d="M93.1808 48.7416L93.1756 50.5884C93.1802 48.9286 92.0857 47.2661 89.8941 45.9998C89.3924 45.7099 88.8551 45.4534 88.2904 45.2303L88.2957 43.3834C88.8603 43.6065 89.3977 43.863 89.8994 44.1529C92.0909 45.4194 93.1854 47.0817 93.1808 48.7416" fill="#6E6E6B"/>
<path fill-rule="evenodd" clip-rule="evenodd" d="M88.2952 43.3836L88.2899 45.2305C87.8549 45.0586 87.4036 44.9065 86.9398 44.7742L86.9451 42.9273C87.4088 43.0596 87.8602 43.2117 88.2952 43.3836" fill="#73736F"/>
<path fill-rule="evenodd" clip-rule="evenodd" d="M86.9449 42.9271L86.9396 44.774C86.5608 44.6659 86.1735 44.5712 85.7799 44.4896L85.7853 42.6427C86.1787 42.7243 86.566 42.8192 86.9449 42.9271" fill="#767774"/>
<path fill-rule="evenodd" clip-rule="evenodd" d="M85.785 42.6427L85.7797 44.4896C85.4171 44.4143 85.0491 44.3504 84.6774 44.2977L84.6826 42.4508C85.0544 42.5036 85.4223 42.5676 85.785 42.6427" fill="#7B7C78"/>
<path fill-rule="evenodd" clip-rule="evenodd" d="M84.6826 42.4508L84.6775 44.2977C84.3201 44.2469 83.9593 44.2066 83.5965 44.1766L83.6018 42.3297C83.9645 42.3597 84.3254 42.4001 84.6826 42.4508" fill="#7E7F7B"/>
<path fill-rule="evenodd" clip-rule="evenodd" d="M83.6024 42.3298L83.5971 44.1767C83.2335 44.1468 82.868 44.1272 82.502 44.118L82.5072 42.2713C82.8732 42.2803 83.2389 42.2999 83.6024 42.3298" fill="#838480"/>
<path fill-rule="evenodd" clip-rule="evenodd" d="M82.5064 42.2714L82.5012 44.1182C82.1217 44.1088 81.7416 44.1106 81.3625 44.1235L81.3677 42.2767C81.7467 42.2637 82.1269 42.2619 82.5064 42.2714" fill="#878984"/>
<path fill-rule="evenodd" clip-rule="evenodd" d="M81.3686 42.2765L81.3634 44.1233C80.9506 44.1374 80.5389 44.1649 80.1304 44.2055L80.1356 42.3586C80.5441 42.318 80.9558 42.2905 81.3686 42.2765" fill="#8C8D89"/>
<path fill-rule="evenodd" clip-rule="evenodd" d="M80.1351 42.3586L80.1299 44.2055C79.6518 44.2532 79.1779 44.319 78.712 44.4033L78.7172 42.5564C79.1832 42.4721 79.657 42.4063 80.1351 42.3586" fill="#8F918D"/>
<path fill-rule="evenodd" clip-rule="evenodd" d="M78.7167 42.5563L78.7115 44.4032C77.987 44.5339 77.2813 44.7087 76.6069 44.9276L76.6121 43.0807C77.2865 42.8619 77.9922 42.687 78.7167 42.5563" fill="#949591"/>
<path fill-rule="evenodd" clip-rule="evenodd" d="M76.6125 43.0809L76.6073 44.9278C75.7336 45.2113 74.9125 45.5686 74.1709 46C74.1252 46.0265 74.0801 46.0533 74.0354 46.0802L74.0406 44.2333C74.0853 44.2064 74.1304 44.1796 74.1761 44.1531C74.9177 43.7218 75.7388 43.3644 76.6125 43.0809" fill="#989995"/>
<path fill-rule="evenodd" clip-rule="evenodd" d="M74.0407 44.2335L74.0355 46.0804C73.4957 46.4053 73.0266 46.7552 72.6281 47.1234L72.6334 45.2765C73.0318 44.9083 73.5009 44.5584 74.0407 44.2335" fill="#949591"/>
<path fill-rule="evenodd" clip-rule="evenodd" d="M72.6336 45.2764L72.6282 47.1233C72.3685 47.3633 72.1386 47.6112 71.9389 47.8652L71.9441 46.0183C72.1438 45.7643 72.3737 45.5165 72.6336 45.2764" fill="#8F918D"/>
<path fill-rule="evenodd" clip-rule="evenodd" d="M71.9436 46.0182L71.9384 47.8652C71.7673 48.0827 71.6182 48.3046 71.491 48.5298L71.4963 46.683C71.6234 46.4578 71.7725 46.2358 71.9436 46.0182" fill="#8C8D89"/>
<path fill-rule="evenodd" clip-rule="evenodd" d="M71.4962 46.683L71.4909 48.5298C71.3734 48.7381 71.2747 48.9494 71.1949 49.1625L71.2 47.3156C71.2799 47.1025 71.3786 46.8914 71.4962 46.683" fill="#878984"/>
<path fill-rule="evenodd" clip-rule="evenodd" d="M71.2001 47.3156L71.1949 49.1625C71.1172 49.3697 71.0574 49.5788 71.0153 49.7889L71.0205 47.942C71.0626 47.7319 71.1225 47.5228 71.2001 47.3156" fill="#838480"/>
<path fill-rule="evenodd" clip-rule="evenodd" d="M71.021 47.942L71.0158 49.7889C70.9734 50.0009 70.9491 50.214 70.9429 50.4272L70.9482 48.5803C70.9543 48.3671 70.9786 48.1541 71.021 47.942" fill="#7E7F7B"/>
<path fill-rule="evenodd" clip-rule="evenodd" d="M70.9483 48.5804L70.943 50.4273C70.9421 50.4599 70.9417 50.4925 70.9415 50.5251L70.9467 48.6782C70.9469 48.6457 70.9473 48.613 70.9483 48.5804" fill="#7B7C78"/>
</g>
<mask id="mask3" mask-type="alpha" maskUnits="userSpaceOnUse" x="89" y="44" width="1" height="3">
<path fill-rule="evenodd" clip-rule="evenodd" d="M89.3373 46.5114C89.2849 46.4791 89.2316 46.4483 89.1775 46.4169C89.1792 45.8013 89.1826 45.1857 89.1826 44.5701C89.2365 44.6013 89.2896 44.6319 89.3418 44.6641C89.3401 45.2767 89.3384 45.8891 89.3366 46.5018C89.3384 45.8891 89.3401 45.2767 89.3418 44.6641C89.3421 44.6643 89.3422 44.6645 89.3425 44.6646C89.3429 44.6647 89.3432 44.6649 89.3436 44.6651C89.3417 45.2808 89.34 45.8963 89.3382 46.512C89.338 46.5118 89.3377 46.5116 89.3373 46.5114" fill="white"/>
</mask>
<g mask="url(#mask3)">
<path fill-rule="evenodd" clip-rule="evenodd" d="M92.1599 48.7395L92.1548 50.5864C92.1565 49.9903 92.0024 49.3934 91.6928 48.8183C91.2394 47.9792 90.4539 47.1868 89.3372 46.5112C89.2846 46.4788 89.2311 46.4479 89.1767 46.4165C88.7709 46.1816 88.3399 45.9704 87.8877 45.7842C87.8259 45.7586 87.7638 45.7336 87.7013 45.7089L87.7064 43.862C87.769 43.8867 87.8312 43.9118 87.8929 43.9373C88.345 44.1235 88.776 44.3347 89.182 44.5695C89.2363 44.601 89.2898 44.6319 89.3424 44.6644C90.4591 45.3399 91.2446 46.1323 91.698 46.9714C92.0077 47.5465 92.1617 48.1435 92.1599 48.7395" fill="#7D7E7B"/>
</g>
<mask id="mask4" mask-type="alpha" maskUnits="userSpaceOnUse" x="74" y="42" width="16" height="5">
<path fill-rule="evenodd" clip-rule="evenodd" d="M74.8923 46.4166C74.6473 46.559 74.4174 46.7072 74.2031 46.8601C74.2048 46.2444 74.2067 45.6289 74.2083 45.0132C74.4228 44.8603 74.6525 44.7121 74.8976 44.5697C75.7051 44.1 76.6164 43.7266 77.5885 43.45C80.4447 42.6375 83.8293 42.6561 86.6695 43.5049C87.0904 43.6307 87.4997 43.7752 87.8921 43.9373C88.3448 44.1235 88.7764 44.3347 89.1829 44.5695C89.1831 44.5697 89.1833 44.5698 89.1835 44.5699C89.1817 45.1855 89.18 45.8011 89.1783 46.4167C89.178 46.4167 89.1779 46.4166 89.1776 46.4164C88.7712 46.1816 88.3397 45.9704 87.8869 45.7842C87.4945 45.6221 87.0852 45.4776 86.6642 45.3518C83.8241 44.503 80.4395 44.4842 77.5832 45.2969C76.6112 45.5735 75.6997 45.9469 74.8923 46.4166" fill="white"/>
</mask>
<g mask="url(#mask4)">
<path fill-rule="evenodd" clip-rule="evenodd" d="M92.1642 48.7395L92.159 50.5864C92.1607 49.9903 92.0064 49.3934 91.6964 48.8183C91.2425 47.9792 90.456 47.1868 89.3378 46.5112C89.2851 46.4788 89.2316 46.4479 89.1771 46.4165C88.7707 46.1816 88.3392 45.9704 87.8865 45.7842C87.8245 45.7586 87.7624 45.7336 87.6998 45.7089L87.705 43.862C87.7675 43.8867 87.8299 43.9118 87.8916 43.9373C88.3444 44.1235 88.7759 44.3347 89.1825 44.5695C89.2368 44.601 89.2903 44.6319 89.343 44.6644C90.4611 45.3399 91.2477 46.1323 91.7016 46.9714C92.0117 47.5465 92.1659 48.1435 92.1642 48.7395" fill="#7D7E7B"/>
<path fill-rule="evenodd" clip-rule="evenodd" d="M87.7046 43.8621L87.6994 45.709C87.3644 45.5772 87.018 45.458 86.6633 45.352C86.6078 45.3355 86.552 45.3191 86.4961 45.3032L86.5013 43.4563C86.5573 43.4723 86.613 43.4886 86.6686 43.5051C87.0232 43.6111 87.3696 43.7303 87.7046 43.8621" fill="#82837F"/>
<path fill-rule="evenodd" clip-rule="evenodd" d="M86.5013 43.4562L86.4961 45.3031C86.1498 45.2042 85.7959 45.1174 85.4361 45.043L85.4413 43.1961C85.8011 43.2706 86.155 43.3573 86.5013 43.4562" fill="#878984"/>
<path fill-rule="evenodd" clip-rule="evenodd" d="M85.4416 43.1963L85.4364 45.0432C85.1079 44.9751 84.7746 44.9172 84.4379 44.8695L84.4431 43.0226C84.7798 43.0703 85.1131 43.1283 85.4416 43.1963" fill="#8C8D89"/>
<path fill-rule="evenodd" clip-rule="evenodd" d="M84.4426 43.0226L84.4374 44.8696C84.1133 44.8236 83.786 44.7871 83.4569 44.7599L83.4622 42.913C83.7912 42.9402 84.1185 42.9767 84.4426 43.0226" fill="#91928E"/>
<path fill-rule="evenodd" clip-rule="evenodd" d="M83.4622 42.9129L83.4569 44.7598C83.1272 44.7326 82.7957 44.7149 82.4636 44.7065L82.4688 42.8597C82.8008 42.868 83.1324 42.8857 83.4622 42.9129" fill="#959692"/>
<path fill-rule="evenodd" clip-rule="evenodd" d="M82.4686 42.8595L82.4634 44.7063C82.1184 44.6978 81.773 44.6994 81.4283 44.7111L81.4336 42.8642C81.7782 42.8525 82.1236 42.8509 82.4686 42.8595" fill="#9A9B97"/>
<path fill-rule="evenodd" clip-rule="evenodd" d="M81.4333 42.8643L81.428 44.7113C81.0542 44.7239 80.6815 44.7487 80.3116 44.7855L80.3168 42.9386C80.6867 42.9018 81.0594 42.8771 81.4333 42.8643" fill="#A0A19D"/>
<path fill-rule="evenodd" clip-rule="evenodd" d="M80.3179 42.9386L80.3127 44.7855C79.876 44.8288 79.4434 44.8889 79.0178 44.9658L79.023 43.1189C79.4485 43.042 79.8812 42.982 80.3179 42.9386" fill="#A6A6A3"/>
<path fill-rule="evenodd" clip-rule="evenodd" d="M79.0222 43.119L79.0171 44.9659C78.5278 45.0541 78.0481 45.1645 77.5823 45.2971C77.4365 45.3386 77.292 45.3823 77.149 45.4281L77.1543 43.5812C77.2972 43.5354 77.4417 43.4917 77.5876 43.4502C78.0534 43.3177 78.5332 43.2072 79.0222 43.119" fill="#ACADA9"/>
<path fill-rule="evenodd" clip-rule="evenodd" d="M77.1549 43.5811L77.1496 45.428C76.3397 45.6878 75.5784 46.0174 74.8919 46.4166C74.8505 46.4408 74.8094 46.465 74.7688 46.4895L74.774 44.6426C74.8146 44.6181 74.8557 44.5939 74.8973 44.5697C75.5835 44.1705 76.3449 43.8409 77.1549 43.5811" fill="#B2B2AE"/>
<path fill-rule="evenodd" clip-rule="evenodd" d="M74.7733 44.6426L74.7681 46.4895C74.2776 46.7848 73.8512 47.1027 73.4892 47.4372L73.4944 45.5904C73.8565 45.2558 74.2828 44.9379 74.7733 44.6426" fill="#ACADA9"/>
</g>
<path fill-rule="evenodd" clip-rule="evenodd" d="M122.38 50.6515L122.375 52.4984L109.757 45.207L109.762 43.3601L122.38 50.6515" fill="#72726F"/>
<path fill-rule="evenodd" clip-rule="evenodd" d="M111.431 45.5566L111.426 47.4035L105.064 43.7269L105.069 41.88L111.431 45.5566" fill="#81827F"/>
<path fill-rule="evenodd" clip-rule="evenodd" d="M109.58 46.6339L109.575 48.4809L103.212 44.8041L103.218 42.9573L109.58 46.6339" fill="#72726F"/>
<path fill-rule="evenodd" clip-rule="evenodd" d="M111.432 45.5571L111.426 47.404L109.575 48.4808L109.58 46.6339L111.432 45.5571" fill="#A6A6A3"/>
<path fill-rule="evenodd" clip-rule="evenodd" d="M111.997 45.8835L111.992 47.7304L110.141 48.8073L110.146 46.9604L111.997 45.8835" fill="#BFBFBA"/>
<mask id="mask5" mask-type="alpha" maskUnits="userSpaceOnUse" x="91" y="46" width="1" height="2">
<path fill-rule="evenodd" clip-rule="evenodd" d="M91.7014 46.972C91.7033 46.9796 91.7014 46.9902 91.7014 46.9981C91.7012 47.061 91.701 47.1241 91.7009 47.1872C91.7006 47.2634 91.7004 47.3395 91.7002 47.4156C91.7006 47.2675 91.7008 47.1195 91.7012 46.9715C91.7013 46.9717 91.7014 46.9719 91.7014 46.972" fill="white"/>
</mask>
<g mask="url(#mask5)">
<path fill-rule="evenodd" clip-rule="evenodd" d="M92.1635 48.7395L92.1583 50.5864C92.16 49.9903 92.0059 49.3934 91.6963 48.8183C91.243 47.9792 90.4574 47.1868 89.3408 46.5112C89.2881 46.4788 89.2346 46.4479 89.1803 46.4165C88.7744 46.1816 88.3434 45.9704 87.8912 45.7842C87.8294 45.7586 87.7673 45.7336 87.7048 45.7089L87.71 43.862C87.7725 43.8867 87.8347 43.9118 87.8964 43.9373C88.3486 44.1235 88.7796 44.3347 89.1856 44.5695C89.2398 44.601 89.2933 44.6319 89.346 44.6644C90.4626 45.3399 91.2482 46.1323 91.7015 46.9714C92.0112 47.5465 92.1652 48.1435 92.1635 48.7395" fill="#7D7E7B"/>
</g>
<path fill-rule="evenodd" clip-rule="evenodd" d="M147.054 47.6786L147.049 49.5255L146.529 42.3985L146.535 40.5516L147.054 47.6786" fill="#797A76"/>
<path fill-rule="evenodd" clip-rule="evenodd" d="M120.9 53.1752L120.895 55.022L110.141 48.8075L110.146 46.9607L120.9 53.1752" fill="#72726F"/>
<path fill-rule="evenodd" clip-rule="evenodd" d="M111.658 48.6878L111.653 50.5346L94.5938 40.6769L94.599 38.83L111.658 48.6878" fill="#81827F"/>
<path fill-rule="evenodd" clip-rule="evenodd" d="M155.443 48.8659L155.438 50.7128L147.048 49.5254L147.053 47.6785L155.443 48.8659" fill="#B0322F"/>
<mask id="mask6" mask-type="alpha" maskUnits="userSpaceOnUse" x="71" y="45" width="4" height="6">
<path fill-rule="evenodd" clip-rule="evenodd" d="M74.2016 46.8601C72.7085 47.9251 71.9606 49.2247 71.9561 50.5259L71.9612 48.6792C71.9658 47.3778 72.7137 46.0783 74.2068 45.0132C74.2052 45.6289 74.2033 46.2444 74.2016 46.8601" fill="white"/>
</mask>
<g mask="url(#mask6)">
<path fill-rule="evenodd" clip-rule="evenodd" d="M74.7728 44.6428L74.7676 46.4897C74.277 46.785 73.8507 47.1029 73.4886 47.4374L73.4938 45.5906C73.856 45.256 74.2822 44.9381 74.7728 44.6428" fill="#ACADA9"/>
<path fill-rule="evenodd" clip-rule="evenodd" d="M73.4952 45.5906L73.49 47.4373C73.2539 47.6555 73.0451 47.8807 72.8636 48.1114L72.8689 46.2647C73.0503 46.0338 73.2591 45.8086 73.4952 45.5906" fill="#A6A6A3"/>
<path fill-rule="evenodd" clip-rule="evenodd" d="M72.8681 46.2646L72.8628 48.1114C72.7074 48.3092 72.5719 48.5107 72.4564 48.7154L72.4616 46.8685C72.5772 46.6639 72.7126 46.4623 72.8681 46.2646" fill="#A0A19D"/>
<path fill-rule="evenodd" clip-rule="evenodd" d="M72.4616 46.8686L72.4564 48.7155C72.3496 48.9048 72.26 49.0967 72.1874 49.2902L72.1926 47.4434C72.2652 47.2498 72.3548 47.058 72.4616 46.8686" fill="#9A9B97"/>
<path fill-rule="evenodd" clip-rule="evenodd" d="M72.1924 47.4432L72.1872 49.2899C72.1166 49.4783 72.0621 49.6682 72.0239 49.8592L72.0291 48.0123C72.0673 47.8214 72.1218 47.6314 72.1924 47.4432" fill="#959692"/>
<path fill-rule="evenodd" clip-rule="evenodd" d="M72.0287 48.0125L72.0235 49.8594C71.985 50.052 71.9629 50.2456 71.9573 50.4393L71.9625 48.5925C71.9681 48.3987 71.9902 48.2051 72.0287 48.0125" fill="#91928E"/>
<path fill-rule="evenodd" clip-rule="evenodd" d="M71.963 48.5924L71.9578 50.4392C71.9569 50.4688 71.9565 50.4984 71.9564 50.5281L71.9616 48.6812C71.9617 48.6516 71.9621 48.622 71.963 48.5924" fill="#8C8D89"/>
</g>
<mask id="mask7" mask-type="alpha" maskUnits="userSpaceOnUse" x="92" y="47" width="2" height="4">
<path fill-rule="evenodd" clip-rule="evenodd" d="M93.1746 50.5886C93.1758 50.1664 93.1058 49.7438 92.965 49.3277C92.9667 48.7121 92.9685 48.0965 92.9702 47.4809C93.1111 47.897 93.181 48.3195 93.1798 48.7418C93.1782 49.2958 93.1762 50.0346 93.1746 50.5886" fill="white"/>
</mask>
<g mask="url(#mask7)">
<path fill-rule="evenodd" clip-rule="evenodd" d="M93.1801 48.7417L93.1749 50.5885C93.1795 48.9287 92.0864 47.2663 89.8976 45.9999C89.3965 45.71 88.8599 45.4535 88.296 45.2304L88.3013 43.3835C88.8651 43.6066 89.4019 43.8631 89.9029 44.153C92.0916 45.4195 93.1847 47.0818 93.1801 48.7417" fill="#6E6E6B"/>
</g>
<mask id="mask8" mask-type="alpha" maskUnits="userSpaceOnUse" x="92" y="44" width="3" height="7">
<path fill-rule="evenodd" clip-rule="evenodd" d="M94.8513 50.5935C94.8554 49.1586 94.146 47.7221 92.7238 46.4784C92.7255 45.8626 92.7272 45.2472 92.7289 44.6315C94.1512 45.8752 94.8608 47.3117 94.8566 48.7466C94.855 49.3006 94.8529 50.0394 94.8513 50.5935" fill="white"/>
</mask>
<g mask="url(#mask8)">
<path fill-rule="evenodd" clip-rule="evenodd" d="M94.8568 48.7463L94.8515 50.593C94.857 48.6828 93.5974 46.7698 91.0753 45.3125L91.0805 43.4656C93.6026 44.9229 94.8622 46.8361 94.8568 48.7463" fill="#7D7E7B"/>
</g>
<mask id="mask9" mask-type="alpha" maskUnits="userSpaceOnUse" x="89" y="44" width="4" height="7">
<path fill-rule="evenodd" clip-rule="evenodd" d="M91.6961 48.8184C91.2423 47.9796 90.456 47.1873 89.3385 46.512C89.3402 45.8963 89.3419 45.2808 89.3438 44.6651C90.4614 45.3405 91.2475 46.1327 91.7013 46.9715C91.6996 47.5873 91.6981 48.2027 91.6964 48.8184C91.6981 48.203 91.6999 47.5875 91.7016 46.9721C92.0116 47.547 92.1656 48.1439 92.1639 48.7399L92.1587 50.5868C92.1604 49.9906 92.0062 49.3935 91.6961 48.8184" fill="white"/>
</mask>
<g mask="url(#mask9)">
<path fill-rule="evenodd" clip-rule="evenodd" d="M92.1643 48.7394L92.1591 50.5864C92.1609 49.9902 92.0065 49.3933 91.6966 48.8182C91.2426 47.9791 90.4561 47.1867 89.338 46.5111C89.2852 46.4787 89.2317 46.4478 89.1773 46.4164C88.7709 46.1815 88.3393 45.9703 87.8866 45.7841C87.8247 45.7585 87.7625 45.7335 87.6999 45.7088L87.7051 43.8619C87.7677 43.8866 87.83 43.9118 87.8918 43.9372C88.3445 44.1234 88.7761 44.3346 89.1826 44.5695C89.2369 44.6009 89.2904 44.6318 89.3432 44.6643C90.4613 45.3398 91.2478 46.1322 91.7017 46.9713C92.0119 47.5464 92.1661 48.1434 92.1643 48.7394" fill="#7D7E7B"/>
</g>
<path fill-rule="evenodd" clip-rule="evenodd" d="M91.7014 46.9715L91.6962 48.8184L82.0576 50.5575L82.0628 48.7107L91.7014 46.9715" fill="#681E1F"/>
<path fill-rule="evenodd" clip-rule="evenodd" d="M124.231 49.5745L124.226 51.4214L111.608 44.1299L111.613 42.283L124.231 49.5745" fill="#81827F"/>
<path fill-rule="evenodd" clip-rule="evenodd" d="M111.658 48.6879L111.653 50.5348L109.803 51.6112L109.808 49.7643L111.658 48.6879" fill="#A6A6A3"/>
<path fill-rule="evenodd" clip-rule="evenodd" d="M109.807 49.7644L109.802 51.6113L92.7429 41.7534L92.7481 39.9066L109.807 49.7644" fill="#72726F"/>
<path fill-rule="evenodd" clip-rule="evenodd" d="M112.282 49.0479L112.277 50.8948L110.426 51.9711L110.432 50.1242L112.282 49.0479" fill="#BFBFBA"/>
<path fill-rule="evenodd" clip-rule="evenodd" d="M124.231 49.5745L124.226 51.4214L122.375 52.4982L122.38 50.6513L124.231 49.5745" fill="#A6A6A3"/>
<path fill-rule="evenodd" clip-rule="evenodd" d="M124.231 49.5745L122.38 50.6514L109.762 43.36L111.613 42.2831L124.231 49.5745" fill="#BBBBB6"/>
<path fill-rule="evenodd" clip-rule="evenodd" d="M124.957 49.9944L124.952 51.8412L123.101 52.9182L123.106 51.0713L124.957 49.9944" fill="#BFBFBA"/>
<path fill-rule="evenodd" clip-rule="evenodd" d="M141.868 43.4437L141.862 45.2906L140.268 53.3577L140.273 51.511L141.868 43.4437" fill="#191F3C"/>
<path fill-rule="evenodd" clip-rule="evenodd" d="M150.164 51.9369L150.158 53.7838L140.268 53.3579L140.273 51.5111L150.164 51.9369" fill="#5E1D1D"/>
<path fill-rule="evenodd" clip-rule="evenodd" d="M155.444 48.866L155.439 50.7128L150.159 53.7838L150.164 51.9369L155.444 48.866" fill="#6C1F20"/>
<path fill-rule="evenodd" clip-rule="evenodd" d="M122.752 52.098L122.747 53.9449L111.992 47.7304L111.998 45.8835L122.752 52.098" fill="#81827F"/>
<mask id="mask10" mask-type="alpha" maskUnits="userSpaceOnUse" x="89" y="48" width="4" height="7">
<path fill-rule="evenodd" clip-rule="evenodd" d="M92.1642 48.7397L92.159 50.5866C92.1589 50.6408 92.1574 50.6949 92.1546 50.7492C92.0814 52.1836 91.1056 53.6039 89.2237 54.6985L89.2289 52.8517C91.1108 51.7571 92.0866 50.3368 92.1599 48.9023C92.1626 48.8482 92.1641 48.7939 92.1642 48.7397" fill="white"/>
</mask>
<g mask="url(#mask10)">
<path fill-rule="evenodd" clip-rule="evenodd" d="M92.1645 48.7397L92.1593 50.5866C92.1591 50.6164 92.1587 50.6463 92.1578 50.6761L92.1631 48.8293C92.1639 48.7994 92.1645 48.7695 92.1645 48.7397" fill="#171D37"/>
<path fill-rule="evenodd" clip-rule="evenodd" d="M92.163 48.8293L92.1577 50.676C92.157 50.7004 92.1561 50.7247 92.1547 50.7491C92.1462 50.9179 92.1251 51.0865 92.0914 51.2544L92.0966 49.4075C92.1302 49.2397 92.1514 49.071 92.1601 48.9022C92.1613 48.8778 92.1622 48.8535 92.163 48.8293" fill="#181E3A"/>
<path fill-rule="evenodd" clip-rule="evenodd" d="M92.0969 49.4077L92.0917 51.2546C92.0535 51.4454 91.9992 51.6355 91.9286 51.8238L91.9338 49.9769C92.0044 49.7885 92.0587 49.5986 92.0969 49.4077" fill="#1A203D"/>
<path fill-rule="evenodd" clip-rule="evenodd" d="M91.933 49.9768L91.9278 51.8237C91.8552 52.0172 91.7656 52.209 91.659 52.3983L91.6642 50.5513C91.7709 50.3621 91.8604 50.1705 91.933 49.9768" fill="#1C2241"/>
<path fill-rule="evenodd" clip-rule="evenodd" d="M91.6648 50.5514L91.6596 52.3983C91.5447 52.602 91.41 52.8029 91.2555 52.9999L91.2607 51.153C91.4153 50.9561 91.55 50.7553 91.6648 50.5514" fill="#1C2343"/>
<path fill-rule="evenodd" clip-rule="evenodd" d="M91.2597 51.1527L91.2545 52.9996C91.0736 53.2299 90.8656 53.4548 90.6305 53.6725L90.6357 51.8256C90.8708 51.6079 91.0788 51.383 91.2597 51.1527" fill="#1E2547"/>
</g>
<path fill-rule="evenodd" clip-rule="evenodd" d="M122.752 52.0981L120.901 53.1751L110.146 46.9606L111.998 45.8836L122.752 52.0981" fill="#BBBBB6"/>
<path fill-rule="evenodd" clip-rule="evenodd" d="M122.752 52.0981L122.746 53.945L120.895 55.0219L120.9 53.1751L122.752 52.0981" fill="#A6A6A3"/>
<path fill-rule="evenodd" clip-rule="evenodd" d="M108.817 53.5665L108.812 55.4134L104.867 53.1339L104.872 51.287L108.817 53.5665" fill="#81827F"/>
<path fill-rule="evenodd" clip-rule="evenodd" d="M129.838 54.9612L129.833 56.8081L123.101 52.9183L123.107 51.0714L129.838 54.9612" fill="#72726F"/>
<path fill-rule="evenodd" clip-rule="evenodd" d="M123.511 52.5368L123.505 54.3837L121.654 55.4607L121.659 53.6138L123.511 52.5368" fill="#BFBFBA"/>
<path fill-rule="evenodd" clip-rule="evenodd" d="M131.69 53.8843L131.685 55.7312L124.953 51.8412L124.958 49.9944L131.69 53.8843" fill="#81827F"/>
<path fill-rule="evenodd" clip-rule="evenodd" d="M134.512 61.0408L134.506 62.8877L121.654 55.4606L121.659 53.6137L134.512 61.0408" fill="#72726F"/>
<path fill-rule="evenodd" clip-rule="evenodd" d="M121.672 54.474L121.667 56.3207L112.277 50.8948L112.282 49.0479L121.672 54.474" fill="#81827F"/>
<path fill-rule="evenodd" clip-rule="evenodd" d="M131.689 53.8846L131.684 55.7315L129.832 56.8083L129.838 54.9614L131.689 53.8846" fill="#A6A6A3"/>
<path fill-rule="evenodd" clip-rule="evenodd" d="M91.702 46.9715C92.0402 47.5989 92.1931 48.2522 92.1603 48.9022C92.0869 50.3368 91.1112 51.757 89.2293 52.8516C86.6634 54.344 83.0479 54.8619 79.7465 54.4065L82.0634 48.7107L91.702 46.9715" fill="#283160"/>
<path fill-rule="evenodd" clip-rule="evenodd" d="M104.589 41.6028L102.738 42.6796L88.492 34.4474L90.3434 33.3705L104.589 41.6028" fill="#BBBBB6"/>
<path fill-rule="evenodd" clip-rule="evenodd" d="M89.1824 44.5697C89.2368 44.601 89.2903 44.6319 89.343 44.6644C90.4611 45.3398 91.2478 46.1323 91.7016 46.9714L82.063 48.7106L79.7461 54.4064C83.0476 54.8618 86.663 54.3439 89.2289 52.8515C86.663 54.3439 83.0476 54.8618 79.7461 54.4064C77.9873 54.1637 76.3192 53.6454 74.9445 52.851C70.987 50.5642 70.9653 46.8565 74.897 44.5697C75.7046 44.1 76.6159 43.7266 77.5879 43.45C80.4442 42.6375 83.8288 42.6561 86.669 43.5049C87.0899 43.6307 87.4992 43.7752 87.8916 43.9373C88.3444 44.1235 88.7759 44.3347 89.1824 44.5697" fill="#7E2323"/>
<path fill-rule="evenodd" clip-rule="evenodd" d="M132.36 54.2719L132.355 56.1188L130.504 57.1958L130.509 55.3488L132.36 54.2719" fill="#BFBFBA"/>
<path fill-rule="evenodd" clip-rule="evenodd" d="M59.5884 51.2592L59.5831 53.1061L42.5299 63.0252L42.5352 61.1783L59.5884 51.2592" fill="#BFBFBA"/>
<path fill-rule="evenodd" clip-rule="evenodd" d="M79.6236 66.4438L79.6182 68.2906L56.4721 54.9153L56.4773 53.0684L79.6236 66.4438" fill="#646561"/>
<path fill-rule="evenodd" clip-rule="evenodd" d="M56.5524 54.5646L56.5472 56.4115L55.385 57.0875L55.3902 55.2406L56.5524 54.5646" fill="#AFAFAA"/>
<path fill-rule="evenodd" clip-rule="evenodd" d="M119.821 55.5506L119.816 57.3975L110.426 51.9713L110.432 50.1245L119.821 55.5506" fill="#72726F"/>
<path fill-rule="evenodd" clip-rule="evenodd" d="M121.672 54.4741L121.667 56.321L119.816 57.3975L119.821 55.5506L121.672 54.4741" fill="#A6A6A3"/>
<path fill-rule="evenodd" clip-rule="evenodd" d="M122.29 54.8312L122.285 56.6781L120.434 57.7544L120.439 55.9075L122.29 54.8312" fill="#BFBFBA"/>
<path fill-rule="evenodd" clip-rule="evenodd" d="M113.651 56.36L113.646 58.2069L109.701 55.9273L109.707 54.0804L113.651 56.36" fill="#81827F"/>
<path fill-rule="evenodd" clip-rule="evenodd" d="M54.7256 55.6269L54.7203 57.4738L53.5581 58.1498L53.5635 56.3029L54.7256 55.6269" fill="#AFAFAA"/>
<path fill-rule="evenodd" clip-rule="evenodd" d="M141.867 43.4438L140.273 51.5111L150.163 51.9369L141.773 56.8174L96.0628 30.4032L95.7574 30.5807L97.7928 29.3969L107.873 29.7659L108.597 36.2429L120.216 39.2735L129.858 43.2267L141.867 43.4438" fill="#4B62BF"/>
<path fill-rule="evenodd" clip-rule="evenodd" d="M150.164 51.937L150.159 53.7839L141.768 58.6642L141.774 56.8175L150.164 51.937" fill="#242C55"/>
<path fill-rule="evenodd" clip-rule="evenodd" d="M141.773 56.8176L141.768 58.6644L96.0579 32.2502L96.0632 30.4035L141.773 56.8176" fill="#151A32"/>
<path fill-rule="evenodd" clip-rule="evenodd" d="M141.774 56.8175L141.768 58.6643L141.461 58.8431L141.466 56.9964L141.774 56.8175" fill="#3A896D"/>
<path fill-rule="evenodd" clip-rule="evenodd" d="M141.465 56.9964L141.46 58.8431L95.75 32.429L95.7552 30.5821L141.465 56.9964" fill="#295D4B"/>
<mask id="mask11" mask-type="alpha" maskUnits="userSpaceOnUse" x="69" y="48" width="26" height="10">
<path fill-rule="evenodd" clip-rule="evenodd" d="M94.8561 48.7463L94.8509 50.5932C94.8456 52.4793 93.607 54.3625 91.1328 55.8016C86.1537 58.6977 78.0536 58.6983 73.041 55.8018C70.5186 54.3442 69.2588 52.4306 69.2643 50.5201L69.2695 48.6734C69.264 50.5838 70.5238 52.4973 73.0463 53.9549C78.0588 56.8514 86.1589 56.8509 91.138 53.9547C93.6122 52.5158 94.8508 50.6324 94.8561 48.7463" fill="white"/>
</mask>
<g mask="url(#mask11)">
<path fill-rule="evenodd" clip-rule="evenodd" d="M94.8564 48.7464L94.8512 50.5933C94.8511 50.6309 94.8506 50.6683 94.8495 50.7058L94.8547 48.8589C94.8558 48.8214 94.8564 48.784 94.8564 48.7464" fill="#7B7C78"/>
<path fill-rule="evenodd" clip-rule="evenodd" d="M94.8549 48.8589L94.8497 50.7059C94.8427 50.9512 94.8147 51.1964 94.7658 51.4406L94.771 49.5937C94.8199 49.3497 94.8479 49.1043 94.8549 48.8589" fill="#7E7F7B"/>
<path fill-rule="evenodd" clip-rule="evenodd" d="M94.7701 49.5936L94.7649 51.4405C94.7164 51.6823 94.6476 51.9228 94.5581 52.1614L94.5634 50.3145C94.6528 50.0761 94.7218 49.8354 94.7701 49.5936" fill="#838480"/>
<path fill-rule="evenodd" clip-rule="evenodd" d="M94.5636 50.3144L94.5583 52.1613C94.4664 52.4065 94.3528 52.6496 94.2175 52.8892L94.2227 51.0423C94.358 50.8027 94.4716 50.5596 94.5636 50.3144" fill="#878984"/>
<path fill-rule="evenodd" clip-rule="evenodd" d="M94.2237 51.0426L94.2185 52.8895C94.0722 53.1488 93.9006 53.4043 93.7036 53.6547L93.7088 51.8078C93.9057 51.5574 94.0774 51.3019 94.2237 51.0426" fill="#8C8D89"/>
<path fill-rule="evenodd" clip-rule="evenodd" d="M93.7084 51.8077L93.7032 53.6546C93.4732 53.9469 93.2086 54.2322 92.9096 54.5087L92.9148 52.6618C93.214 52.3855 93.4784 52.1 93.7084 51.8077" fill="#8F918D"/>
<path fill-rule="evenodd" clip-rule="evenodd" d="M92.915 52.6618L92.9098 54.5087C92.4511 54.9326 91.911 55.3354 91.2894 55.7095L91.2948 53.8627C91.9162 53.4885 92.4563 53.0857 92.915 52.6618" fill="#949591"/>
<path fill-rule="evenodd" clip-rule="evenodd" d="M91.2952 53.8625L91.2898 55.7093C91.2384 55.7404 91.1864 55.7712 91.1338 55.8017C90.2805 56.298 89.3358 56.7091 88.3304 57.0355L88.3358 55.1885C89.341 54.8624 90.2858 54.4511 91.139 53.9548C91.1916 53.9243 91.2436 53.8935 91.2952 53.8625" fill="#989995"/>
<path fill-rule="evenodd" clip-rule="evenodd" d="M88.3355 55.1886L88.3302 57.0356C87.5542 57.2874 86.7421 57.4885 85.9082 57.6391L85.9136 55.7922C86.7472 55.6417 87.5594 55.4405 88.3355 55.1886" fill="#949591"/>
<path fill-rule="evenodd" clip-rule="evenodd" d="M85.9135 55.7923L85.9082 57.6392C85.372 57.736 84.8267 57.8118 84.2764 57.8666L84.2816 56.0198C84.8319 55.9649 85.3772 55.8891 85.9135 55.7923" fill="#8F918D"/>
<path fill-rule="evenodd" clip-rule="evenodd" d="M84.2814 56.0197L84.2762 57.8664C83.8062 57.9133 83.3326 57.9449 82.8573 57.9612L82.8627 56.1143C83.3378 56.098 83.8114 56.0664 84.2814 56.0197" fill="#8C8D89"/>
<path fill-rule="evenodd" clip-rule="evenodd" d="M82.862 56.1143L82.8567 57.9612C82.4205 57.976 81.983 57.9781 81.5463 57.9672L81.5516 56.1204C81.9884 56.1312 82.4257 56.1292 82.862 56.1143" fill="#878984"/>
<path fill-rule="evenodd" clip-rule="evenodd" d="M81.5518 56.1205L81.5465 57.9673C81.1253 57.9569 80.7047 57.9343 80.2864 57.8998L80.2916 56.0529C80.71 56.0874 81.1305 56.11 81.5518 56.1205" fill="#838480"/>
<path fill-rule="evenodd" clip-rule="evenodd" d="M80.2916 56.053L80.2864 57.8999C79.869 57.8653 79.4538 57.8191 79.0426 57.7607L79.0478 55.9138C79.4591 55.9722 79.8742 56.0186 80.2916 56.053" fill="#7E7F7B"/>
<path fill-rule="evenodd" clip-rule="evenodd" d="M79.0476 55.9138L79.0424 57.7607C78.6147 57.7001 78.1914 57.6264 77.7741 57.5399L77.7793 55.6931C78.1966 55.7796 78.6201 55.8532 79.0476 55.9138" fill="#7B7C78"/>
<path fill-rule="evenodd" clip-rule="evenodd" d="M77.7798 55.6931L77.7746 57.5399C77.3219 57.4461 76.8762 57.3369 76.4403 57.2126L76.4455 55.3657C76.8816 55.49 77.3271 55.5992 77.7798 55.6931" fill="#767774"/>
<path fill-rule="evenodd" clip-rule="evenodd" d="M76.4453 55.3655L76.4401 57.2124C75.9066 57.0602 75.3873 56.8853 74.8867 56.6875L74.8919 54.8406C75.3925 55.0384 75.9118 55.2133 76.4453 55.3655" fill="#73736F"/>
<path fill-rule="evenodd" clip-rule="evenodd" d="M74.8917 54.8405L74.8865 56.6874C74.2367 56.4305 73.6183 56.1353 73.041 55.8018C70.5186 54.3442 69.2588 52.4306 69.2643 50.5201L69.2695 48.6734C69.264 50.5838 70.5238 52.4973 73.0463 53.9549C73.6235 54.2886 74.2419 54.5838 74.8917 54.8405" fill="#6E6E6B"/>
</g>
<path fill-rule="evenodd" clip-rule="evenodd" d="M52.8996 56.6891L52.8943 58.5361L51.7313 59.2125L51.7365 57.3655L52.8996 56.6891" fill="#AFAFAA"/>
<path fill-rule="evenodd" clip-rule="evenodd" d="M139.277 58.2689L139.272 60.1158L132.355 56.1188L132.36 54.2719L139.277 58.2689" fill="#81827F"/>
<path fill-rule="evenodd" clip-rule="evenodd" d="M51.0732 57.7517L51.0679 59.5986L49.9057 60.2746L49.9109 58.4277L51.0732 57.7517" fill="#AFAFAA"/>
<path fill-rule="evenodd" clip-rule="evenodd" d="M118.485 59.1533L118.48 61.0002L114.535 58.7205L114.541 56.8738L118.485 59.1533" fill="#81827F"/>
<path fill-rule="evenodd" clip-rule="evenodd" d="M137.425 59.3461L137.42 61.1929L130.503 57.196L130.508 55.3491L137.425 59.3461" fill="#72726F"/>
<path fill-rule="evenodd" clip-rule="evenodd" d="M139.277 58.2692L139.272 60.116L137.421 61.1928L137.426 59.3461L139.277 58.2692" fill="#A6A6A3"/>
<path fill-rule="evenodd" clip-rule="evenodd" d="M139.276 58.2692L137.425 59.3461L130.508 55.3491L132.359 54.2722L139.276 58.2692" fill="#BBBBB6"/>
<path fill-rule="evenodd" clip-rule="evenodd" d="M104.873 51.287L104.868 53.1339L86.7059 63.6979L86.7111 61.851L104.873 51.287" fill="#BFBFBA"/>
<path fill-rule="evenodd" clip-rule="evenodd" d="M98.5624 59.5318L98.557 61.3789L94.6123 59.0992L94.6176 57.2524L98.5624 59.5318" fill="#151A32"/>
<path fill-rule="evenodd" clip-rule="evenodd" d="M108.818 53.5667L108.813 55.4136L98.5572 61.3788L98.5625 59.5318L108.818 53.5667" fill="#242C55"/>
<path fill-rule="evenodd" clip-rule="evenodd" d="M49.2468 58.8138L49.2416 60.6607L48.0795 61.3367L48.0847 59.4898L49.2468 58.8138" fill="#AFAFAA"/>
<path fill-rule="evenodd" clip-rule="evenodd" d="M136.363 59.9639L136.358 61.8108L123.505 54.3837L123.511 52.5368L136.363 59.9639" fill="#81827F"/>
<path fill-rule="evenodd" clip-rule="evenodd" d="M47.4203 59.8759L47.4151 61.723L46.252 62.3993L46.2573 60.5524L47.4203 59.8759" fill="#AFAFAA"/>
<path fill-rule="evenodd" clip-rule="evenodd" d="M136.363 59.964L136.358 61.8109L134.507 62.8877L134.512 61.0408L136.363 59.964" fill="#A6A6A3"/>
<path fill-rule="evenodd" clip-rule="evenodd" d="M133.776 61.4686L133.771 63.3156L122.284 56.6781L122.29 54.8312L133.776 61.4686" fill="#81827F"/>
<path fill-rule="evenodd" clip-rule="evenodd" d="M113.652 56.3603L113.647 58.2072L102.513 64.6832L102.518 62.8363L113.652 56.3603" fill="#242C55"/>
<path fill-rule="evenodd" clip-rule="evenodd" d="M98.5626 59.5317L98.5573 61.3787L90.6508 65.9774L90.6559 64.1305L98.5626 59.5317" fill="#6C1F20"/>
<path fill-rule="evenodd" clip-rule="evenodd" d="M109.706 54.0804L109.701 55.9273L91.5386 66.4913L91.5439 64.6445L109.706 54.0804" fill="#BFBFBA"/>
<path fill-rule="evenodd" clip-rule="evenodd" d="M102.518 62.8361L102.512 64.6831L98.5677 62.4035L98.5729 60.5566L102.518 62.8361" fill="#151A32"/>
<path fill-rule="evenodd" clip-rule="evenodd" d="M102.517 62.8361L102.512 64.683L95.4841 68.7708L95.4893 66.924L102.517 62.8361" fill="#6C1F20"/>
<path fill-rule="evenodd" clip-rule="evenodd" d="M114.541 56.8738L114.536 58.7205L96.3737 69.2846L96.3791 67.4377L114.541 56.8738" fill="#BFBFBA"/>
<path fill-rule="evenodd" clip-rule="evenodd" d="M114.381 61.541L114.376 63.3879L110.431 61.1084L110.437 59.2616L114.381 61.541" fill="#151A32"/>
<path fill-rule="evenodd" clip-rule="evenodd" d="M118.486 59.1533L118.48 61.0002L114.376 63.3878L114.381 61.5409L118.486 59.1533" fill="#242C55"/>
<path fill-rule="evenodd" clip-rule="evenodd" d="M123.318 61.9461L123.313 63.793L119.369 61.5139L119.375 59.6671L123.318 61.9461" fill="#81827F"/>
<path fill-rule="evenodd" clip-rule="evenodd" d="M94.6177 57.2524L94.6124 59.0992L86.7059 63.6981L86.7111 61.8513L94.6177 57.2524" fill="#242C55"/>
<path fill-rule="evenodd" clip-rule="evenodd" d="M133.776 61.4688L133.771 63.3157L131.92 64.392L131.926 62.5453L133.776 61.4688" fill="#A6A6A3"/>
<path fill-rule="evenodd" clip-rule="evenodd" d="M131.925 62.5453L131.92 64.392L120.434 57.7545L120.439 55.9076L131.925 62.5453" fill="#72726F"/>
<path fill-rule="evenodd" clip-rule="evenodd" d="M90.6558 64.1307L90.6506 65.9776L86.7059 63.6981L86.7111 61.8513L90.6558 64.1307" fill="#151A32"/>
<path fill-rule="evenodd" clip-rule="evenodd" d="M90.6558 64.1307L90.6506 65.9776L86.7059 63.6981L86.7111 61.8513L90.6558 64.1307" fill="#461919"/>
<path fill-rule="evenodd" clip-rule="evenodd" d="M128.153 64.7396L128.148 66.5865L124.203 64.3069L124.208 62.4601L128.153 64.7396" fill="#81827F"/>
<path fill-rule="evenodd" clip-rule="evenodd" d="M98.5726 60.5566L98.5674 62.4035L91.5392 66.4914L91.5444 64.6445L98.5726 60.5566" fill="#242C55"/>
<path fill-rule="evenodd" clip-rule="evenodd" d="M123.318 61.9464L123.313 63.7933L116.62 67.6867L116.625 65.8397L123.318 61.9464" fill="#242C55"/>
<path fill-rule="evenodd" clip-rule="evenodd" d="M114.381 61.5408L114.376 63.3877L100.319 71.5641L100.324 69.7173L114.381 61.5408" fill="#6C1F20"/>
<path fill-rule="evenodd" clip-rule="evenodd" d="M119.375 59.6671L119.37 61.5139L101.208 72.0779L101.213 70.231L119.375 59.6671" fill="#BFBFBA"/>
<path fill-rule="evenodd" clip-rule="evenodd" d="M116.625 65.8396L116.62 67.6867L112.676 65.4076L112.681 63.5608L116.625 65.8396" fill="#151A32"/>
<path fill-rule="evenodd" clip-rule="evenodd" d="M76.5051 66.0948L76.4998 67.9417L56.5467 56.4115L56.5519 54.5646L76.5051 66.0948" fill="#777873"/>
<path fill-rule="evenodd" clip-rule="evenodd" d="M76.5045 66.0948L76.4992 67.9417L75.337 68.6177L75.3422 66.7709L76.5045 66.0948" fill="#9C9D98"/>
<path fill-rule="evenodd" clip-rule="evenodd" d="M76.5053 66.0947L75.343 66.7707L55.3899 55.2406L56.5521 54.5646L76.5053 66.0947" fill="#B2B2AE"/>
<path fill-rule="evenodd" clip-rule="evenodd" d="M75.3433 66.7708L75.3381 68.6176L55.385 57.0874L55.3902 55.2407L75.3433 66.7708" fill="#6D6D69"/>
<path fill-rule="evenodd" clip-rule="evenodd" d="M95.4891 66.924L95.4839 68.7707L91.5392 66.4914L91.5444 64.6445L95.4891 66.924" fill="#461919"/>
<path fill-rule="evenodd" clip-rule="evenodd" d="M95.4891 66.924L95.4839 68.7707L91.5392 66.4914L91.5444 64.6445L95.4891 66.924" fill="#151A32"/>
<path fill-rule="evenodd" clip-rule="evenodd" d="M74.6794 67.157L74.6742 69.0038L54.7211 57.4738L54.7265 55.6269L74.6794 67.157" fill="#777873"/>
<path fill-rule="evenodd" clip-rule="evenodd" d="M110.436 59.2616L110.431 61.1084L96.3737 69.2848L96.3789 67.4378L110.436 59.2616" fill="#242C55"/>
<path fill-rule="evenodd" clip-rule="evenodd" d="M74.6788 67.157L74.6736 69.0038L73.5114 69.6799L73.5166 67.833L74.6788 67.157" fill="#9C9D98"/>
<path fill-rule="evenodd" clip-rule="evenodd" d="M73.5164 67.8329L73.5112 69.6798L53.5581 58.1497L53.5635 56.3029L73.5164 67.8329" fill="#6D6D69"/>
<path fill-rule="evenodd" clip-rule="evenodd" d="M74.6794 67.157L73.5173 67.833L53.5643 56.303L54.7265 55.6269L74.6794 67.157" fill="#B2B2AE"/>
<path fill-rule="evenodd" clip-rule="evenodd" d="M72.8533 68.2193L72.848 70.0661L52.8949 58.5361L52.9002 56.6891L72.8533 68.2193" fill="#777873"/>
<path fill-rule="evenodd" clip-rule="evenodd" d="M79.623 66.4435L79.6177 68.2903L65.6747 76.4003L65.6799 74.5535L79.623 66.4435" fill="#AFAFAA"/>
<path fill-rule="evenodd" clip-rule="evenodd" d="M102.77 79.8189L102.765 81.6656L79.6188 68.2903L79.6241 66.4435L102.77 79.8189" fill="#646561"/>
<path fill-rule="evenodd" clip-rule="evenodd" d="M79.8169 68.0529L79.8117 69.8998L78.6495 70.5758L78.6547 68.7289L79.8169 68.0529" fill="#B2B2AE"/>
<path fill-rule="evenodd" clip-rule="evenodd" d="M71.6896 68.8958L71.6844 70.7426L51.7313 59.2126L51.7365 57.3657L71.6896 68.8958" fill="#6D6D69"/>
<path fill-rule="evenodd" clip-rule="evenodd" d="M72.8528 68.2194L72.8476 70.0661L71.6846 70.7426L71.6898 68.8959L72.8528 68.2194" fill="#9C9D98"/>
<path fill-rule="evenodd" clip-rule="evenodd" d="M71.0252 69.2817L71.0199 71.1288L51.0668 59.5986L51.0722 57.7517L71.0252 69.2817" fill="#777873"/>
<path fill-rule="evenodd" clip-rule="evenodd" d="M100.324 69.7174L100.318 71.5642L96.3737 69.2848L96.3789 67.4378L100.324 69.7174" fill="#151A32"/>
<path fill-rule="evenodd" clip-rule="evenodd" d="M100.324 69.7174L100.318 71.5642L96.3737 69.2848L96.3789 67.4378L100.324 69.7174" fill="#461919"/>
<path fill-rule="evenodd" clip-rule="evenodd" d="M77.9916 69.115L77.9864 70.962L76.8233 71.6385L76.8285 69.7916L77.9916 69.115" fill="#B2B2AE"/>
<path fill-rule="evenodd" clip-rule="evenodd" d="M71.0259 69.2819L69.8637 69.958L49.9106 58.4277L51.073 57.7517L71.0259 69.2819" fill="#B2B2AE"/>
<path fill-rule="evenodd" clip-rule="evenodd" d="M69.864 69.9579L69.8588 71.8047L49.9057 60.2745L49.9109 58.4276L69.864 69.9579" fill="#6D6D69"/>
<path fill-rule="evenodd" clip-rule="evenodd" d="M71.0258 69.2817L71.0206 71.1286L69.8584 71.8046L69.8636 69.9578L71.0258 69.2817" fill="#9C9D98"/>
<path fill-rule="evenodd" clip-rule="evenodd" d="M112.682 63.5608L112.677 65.4076L101.208 72.0782L101.213 70.2313L112.682 63.5608" fill="#242C55"/>
<path fill-rule="evenodd" clip-rule="evenodd" d="M69.1995 70.3439L69.1943 72.1909L49.2412 60.6607L49.2464 58.8138L69.1995 70.3439" fill="#777873"/>
<path fill-rule="evenodd" clip-rule="evenodd" d="M76.1652 70.1777L76.1599 72.0246L74.9977 72.7006L75.0029 70.8537L76.1652 70.1777" fill="#B2B2AE"/>
<path fill-rule="evenodd" clip-rule="evenodd" d="M69.2001 70.344L69.195 72.191L68.0328 72.867L68.038 71.02L69.2001 70.344" fill="#9C9D98"/>
<path fill-rule="evenodd" clip-rule="evenodd" d="M68.0377 71.0198L68.0326 72.8668L48.0795 61.3366L48.0847 59.4897L68.0377 71.0198" fill="#6D6D69"/>
<path fill-rule="evenodd" clip-rule="evenodd" d="M67.3739 71.4061L67.3687 73.253L47.4156 61.723L47.4208 59.8759L67.3739 71.4061" fill="#777873"/>
<path fill-rule="evenodd" clip-rule="evenodd" d="M116.625 65.8397L116.62 67.6868L105.151 74.3572L105.156 72.5105L116.625 65.8397" fill="#6C1F20"/>
<path fill-rule="evenodd" clip-rule="evenodd" d="M124.208 62.4601L124.203 64.3069L106.041 74.8709L106.046 73.0241L124.208 62.4601" fill="#BFBFBA"/>
<path fill-rule="evenodd" clip-rule="evenodd" d="M116.176 71.7063L116.171 73.553L112.226 71.2737L112.231 69.4268L116.176 71.7063" fill="#151A32"/>
<path fill-rule="evenodd" clip-rule="evenodd" d="M128.152 64.7398L128.147 66.5867L116.17 73.5529L116.176 71.7061L128.152 64.7398" fill="#242C55"/>
<path fill-rule="evenodd" clip-rule="evenodd" d="M74.3384 71.24L74.3332 73.0868L73.1709 73.7627L73.1762 71.916L74.3384 71.24" fill="#B2B2AE"/>
<path fill-rule="evenodd" clip-rule="evenodd" d="M66.2103 72.0825L66.2051 73.9294L46.252 62.3992L46.2572 60.5523L66.2103 72.0825" fill="#6D6D69"/>
<path fill-rule="evenodd" clip-rule="evenodd" d="M67.3741 71.4061L67.3689 73.253L66.2059 73.9295L66.2111 72.0826L67.3741 71.4061" fill="#9C9D98"/>
<path fill-rule="evenodd" clip-rule="evenodd" d="M123.319 61.9462L116.625 65.8395L112.682 63.5607L101.213 70.2312L105.157 72.5103L101.213 70.2312L119.375 59.6672L123.319 61.9462" fill="#2D3F89"/>
<path fill-rule="evenodd" clip-rule="evenodd" d="M105.157 72.5105L105.152 74.3573L101.208 72.0783L101.213 70.2314L105.157 72.5105" fill="#461919"/>
<path fill-rule="evenodd" clip-rule="evenodd" d="M105.157 72.5105L105.152 74.3573L101.208 72.0783L101.213 70.2314L105.157 72.5105" fill="#151A32"/>
<path fill-rule="evenodd" clip-rule="evenodd" d="M116.625 65.8396L105.157 72.5104L101.213 70.2313L112.682 63.5608L116.625 65.8396" fill="#4B62BF"/>
<path fill-rule="evenodd" clip-rule="evenodd" d="M112.231 69.4268L112.226 71.2737L106.041 74.8712L106.046 73.0243L112.231 69.4268" fill="#242C55"/>
<path fill-rule="evenodd" clip-rule="evenodd" d="M72.5124 72.3021L72.5072 74.1489L71.3441 74.8254L71.3492 72.9786L72.5124 72.3021" fill="#B2B2AE"/>
<path fill-rule="evenodd" clip-rule="evenodd" d="M70.6867 73.3642L70.6815 75.2111L69.5184 75.8876L69.5238 74.0407L70.6867 73.3642" fill="#B2B2AE"/>
<path fill-rule="evenodd" clip-rule="evenodd" d="M65.6814 74.5537L65.6762 76.4004L42.5299 63.0251L42.5351 61.1783L65.6814 74.5537" fill="#777873"/>
<path fill-rule="evenodd" clip-rule="evenodd" d="M91.2676 74.6693L91.2623 76.5163L79.8125 69.8998L79.8177 68.0529L91.2676 74.6693" fill="#797A76"/>
<path fill-rule="evenodd" clip-rule="evenodd" d="M109.991 75.3038L109.986 77.1507L106.041 74.8712L106.046 73.0243L109.991 75.3038" fill="#151A32"/>
<path fill-rule="evenodd" clip-rule="evenodd" d="M116.176 71.7063L109.991 75.3038L106.046 73.0243L112.231 69.4268L116.176 71.7063" fill="#4B62BF"/>
<path fill-rule="evenodd" clip-rule="evenodd" d="M116.176 71.7059L116.171 73.5527L109.986 77.1504L109.991 75.3035L116.176 71.7059" fill="#6C1F20"/>
<path fill-rule="evenodd" clip-rule="evenodd" d="M109.991 75.3038L109.986 77.1507L106.041 74.8712L106.046 73.0243L109.991 75.3038" fill="#461919"/>
<path fill-rule="evenodd" clip-rule="evenodd" d="M91.2672 74.6696L91.262 76.5165L90.0998 77.1924L90.105 75.3455L91.2672 74.6696" fill="#A6A6A3"/>
<path fill-rule="evenodd" clip-rule="evenodd" d="M90.1045 75.3455L90.0993 77.1924L78.6495 70.5759L78.6547 68.7291L90.1045 75.3455" fill="#72726F"/>
<path fill-rule="evenodd" clip-rule="evenodd" d="M89.4414 75.7316L89.4361 77.5784L77.9863 70.962L77.9915 69.115L89.4414 75.7316" fill="#797A76"/>
<path fill-rule="evenodd" clip-rule="evenodd" d="M88.2784 76.408L88.2732 78.2551L76.8233 71.6386L76.8285 69.7917L88.2784 76.408" fill="#72726F"/>
<path fill-rule="evenodd" clip-rule="evenodd" d="M89.4413 75.7317L89.436 77.5785L88.273 78.2551L88.2782 76.4081L89.4413 75.7317" fill="#A6A6A3"/>
<path fill-rule="evenodd" clip-rule="evenodd" d="M93.1361 75.7493L93.1309 77.596L91.9686 78.272L91.9739 76.4252L93.1361 75.7493" fill="#B2B2AE"/>
<path fill-rule="evenodd" clip-rule="evenodd" d="M87.6139 76.7942L87.6088 78.6411L76.1588 72.0246L76.1642 70.1777L87.6139 76.7942" fill="#797A76"/>
<path fill-rule="evenodd" clip-rule="evenodd" d="M87.6147 76.7942L86.4526 77.4702L75.0027 70.8537L76.165 70.1777L87.6147 76.7942" fill="#BBBBB6"/>
<path fill-rule="evenodd" clip-rule="evenodd" d="M87.6148 76.7943L87.6096 78.6412L86.4474 79.3171L86.4526 77.4702L87.6148 76.7943" fill="#A6A6A3"/>
<path fill-rule="evenodd" clip-rule="evenodd" d="M86.4528 77.4703L86.4476 79.3172L74.9977 72.7008L75.0029 70.8538L86.4528 77.4703" fill="#72726F"/>
<path fill-rule="evenodd" clip-rule="evenodd" d="M91.3101 76.8113L91.3049 78.6582L90.1418 79.3347L90.1469 77.488L91.3101 76.8113" fill="#B2B2AE"/>
<path fill-rule="evenodd" clip-rule="evenodd" d="M85.7882 77.8563L85.783 79.7033L74.3333 73.0868L74.3384 71.24L85.7882 77.8563" fill="#797A76"/>
<path fill-rule="evenodd" clip-rule="evenodd" d="M105.88 78.01L105.875 79.8568L59.5822 53.1061L59.5875 51.2592L105.88 78.01" fill="#81827F"/>
<path fill-rule="evenodd" clip-rule="evenodd" d="M84.6258 78.5325L84.6206 80.3794L73.1709 73.7629L73.1761 71.916L84.6258 78.5325" fill="#72726F"/>
<path fill-rule="evenodd" clip-rule="evenodd" d="M85.7879 77.8563L85.7827 79.7034L84.6205 80.3793L84.6257 78.5324L85.7879 77.8563" fill="#A6A6A3"/>
<path fill-rule="evenodd" clip-rule="evenodd" d="M89.4823 77.8741L89.4771 79.721L88.3149 80.3969L88.3201 78.55L89.4823 77.8741" fill="#B2B2AE"/>
<path fill-rule="evenodd" clip-rule="evenodd" d="M83.9627 78.9185L83.9574 80.7653L72.5076 74.1489L72.5128 72.3021L83.9627 78.9185" fill="#797A76"/>
<path fill-rule="evenodd" clip-rule="evenodd" d="M82.7992 79.5951L82.794 81.442L71.3441 74.8255L71.3492 72.9788L82.7992 79.5951" fill="#72726F"/>
<path fill-rule="evenodd" clip-rule="evenodd" d="M83.962 78.9185L83.9567 80.7654L82.7937 81.4419L82.7989 79.595L83.962 78.9185" fill="#A6A6A3"/>
<path fill-rule="evenodd" clip-rule="evenodd" d="M87.6568 78.9363L87.6516 80.7831L86.4893 81.4592L86.4946 79.6123L87.6568 78.9363" fill="#B2B2AE"/>
<path fill-rule="evenodd" clip-rule="evenodd" d="M100.117 79.7831L100.112 81.63L93.131 77.596L93.1362 75.7493L100.117 79.7831" fill="#797A76"/>
<path fill-rule="evenodd" clip-rule="evenodd" d="M105.879 78.0101L105.874 79.8569L102.764 81.6658L102.769 79.8191L105.879 78.0101" fill="#92938F"/>
<path fill-rule="evenodd" clip-rule="evenodd" d="M105.88 78.0102L102.77 79.8191L56.4776 53.0683L59.5875 51.2594L105.88 78.0102" fill="#A5A5A2"/>
<path fill-rule="evenodd" clip-rule="evenodd" d="M82.1359 79.9807L82.1307 81.8275L70.6808 75.2111L70.686 73.3642L82.1359 79.9807" fill="#797A76"/>
<path fill-rule="evenodd" clip-rule="evenodd" d="M100.116 79.7831L98.9541 80.4591L91.9735 76.4252L93.1357 75.7493L100.116 79.7831" fill="#BBBBB6"/>
<path fill-rule="evenodd" clip-rule="evenodd" d="M100.116 79.7831L100.111 81.63L98.949 82.306L98.9542 80.4592L100.116 79.7831" fill="#A6A6A3"/>
<path fill-rule="evenodd" clip-rule="evenodd" d="M98.9545 80.459L98.9493 82.3058L91.9686 78.272L91.9739 76.4251L98.9545 80.459" fill="#72726F"/>
<path fill-rule="evenodd" clip-rule="evenodd" d="M82.1364 79.9807L82.1311 81.8276L80.9681 82.504L80.9733 80.6572L82.1364 79.9807" fill="#A6A6A3"/>
<path fill-rule="evenodd" clip-rule="evenodd" d="M80.9735 80.6572L80.9683 82.504L69.5184 75.8876L69.5238 74.0407L80.9735 80.6572" fill="#72726F"/>
<path fill-rule="evenodd" clip-rule="evenodd" d="M82.1363 79.9807L80.9732 80.6572L69.5234 74.0407L70.6864 73.3642L82.1363 79.9807" fill="#BBBBB6"/>
<path fill-rule="evenodd" clip-rule="evenodd" d="M98.29 80.8453L98.2847 82.692L91.3041 78.6582L91.3093 76.8113L98.29 80.8453" fill="#797A76"/>
<path fill-rule="evenodd" clip-rule="evenodd" d="M97.1276 81.5218L97.1224 83.3687L90.1418 79.3348L90.1469 77.488L97.1276 81.5218" fill="#72726F"/>
<path fill-rule="evenodd" clip-rule="evenodd" d="M98.2898 80.8454L98.2845 82.6922L97.1215 83.3688L97.1267 81.5219L98.2898 80.8454" fill="#A6A6A3"/>
<path fill-rule="evenodd" clip-rule="evenodd" d="M96.4632 81.908L96.458 83.7548L89.4773 79.721L89.4825 77.8741L96.4632 81.908" fill="#797A76"/>
<path fill-rule="evenodd" clip-rule="evenodd" d="M96.4639 81.9078L96.4587 83.7546L95.2965 84.4306L95.3017 82.5838L96.4639 81.9078" fill="#A6A6A3"/>
<path fill-rule="evenodd" clip-rule="evenodd" d="M95.3008 82.584L95.2956 84.4308L88.3149 80.397L88.3201 78.5501L95.3008 82.584" fill="#72726F"/>
<path fill-rule="evenodd" clip-rule="evenodd" d="M94.638 82.97L94.6329 84.817L87.6523 80.7831L87.6575 78.9363L94.638 82.97" fill="#797A76"/>
<path fill-rule="evenodd" clip-rule="evenodd" d="M94.637 82.9699L94.6318 84.8168L93.4697 85.4928L93.4749 83.646L94.637 82.9699" fill="#A6A6A3"/>
<path fill-rule="evenodd" clip-rule="evenodd" d="M94.637 82.9701L93.4748 83.6462L86.4943 79.6123L87.6564 78.9363L94.637 82.9701" fill="#BBBBB6"/>
<path fill-rule="evenodd" clip-rule="evenodd" d="M93.4751 83.6462L93.4699 85.4929L86.4893 81.4591L86.4945 79.6122L93.4751 83.6462" fill="#72726F"/>
<path fill-rule="evenodd" clip-rule="evenodd" d="M102.77 79.8189L102.765 81.6657L88.8215 89.7758L88.8268 87.9287L102.77 79.8189" fill="#B2B2AE"/>
<path fill-rule="evenodd" clip-rule="evenodd" d="M95.3008 82.5838L96.463 81.9079L89.4823 77.874L88.3201 78.55L95.3008 82.5838M98.9543 80.4591L100.117 79.783L93.136 75.7492L91.9738 76.4252L98.9543 80.4591M93.475 83.6459L94.6372 82.9698L87.6567 78.9361L86.4945 79.6121L93.475 83.6459M97.1276 81.5217L98.2907 80.8452L91.3101 76.8113L90.1469 77.4879L97.1276 81.5217M86.4522 77.4701L87.6144 76.7942L76.1646 70.1777L75.0023 70.8536L86.4522 77.4701M90.1045 75.3453L91.2668 74.6692L79.8169 68.0528L78.6547 68.7288L90.1045 75.3453M84.6264 78.5322L85.7886 77.8561L74.3389 71.2398L73.1767 71.9157L84.6264 78.5322M88.279 76.4081L89.4421 75.7317L77.9922 69.1151L76.8291 69.7917L88.279 76.4081M82.7991 79.5949L83.9622 78.9184L72.5123 72.302L71.3492 72.9785L82.7991 79.5949M80.9734 80.6573L82.1365 79.9808L70.6866 73.3643L69.5236 74.0408L80.9734 80.6573M79.624 66.4435L102.77 79.8189L88.8272 87.9287L65.6809 74.5535L79.624 66.4435" fill="#CAC9C4"/>
<path fill-rule="evenodd" clip-rule="evenodd" d="M88.8264 87.9289L88.8211 89.7759L65.6749 76.4005L65.6801 74.5537L88.8264 87.9289" fill="#797A76"/>
<path fill-rule="evenodd" clip-rule="evenodd" d="M141.465 56.9964L95.7553 30.582L95.4448 30.403L95.5986 30.3135L108.614 22.7426L108.925 22.9221L100.515 27.8131L114.09 26.1496L113.037 33.775L127.126 35.7669L134.002 40.8297L146.534 40.5518L147.054 47.6786L155.443 48.8662L141.773 56.8174L141.465 56.9964ZM130.508 55.3493L132.359 54.2723L139.276 58.2691L137.425 59.3461L130.508 55.3493ZM121.659 53.6141L123.51 52.5371L136.363 59.9638L134.511 61.0408L121.659 53.6141ZM120.439 55.9076L122.29 54.8312L133.776 61.4691L131.926 62.5452L120.439 55.9076ZM109.99 75.3038L106.045 73.0242L124.208 62.4603L128.152 64.7396L116.176 71.706L109.99 75.3038ZM88.8273 87.9292L42.535 61.1784L59.5881 51.2595L105.881 78.0105L102.771 79.8192L88.8273 87.9292ZM91.0807 43.4658C96.0928 46.3624 96.1185 51.0583 91.1383 53.9554C86.1596 56.8513 78.0593 56.8518 73.0466 53.9554C68.0345 51.0588 68.0078 46.3624 72.987 43.4658C77.9673 40.5692 86.0682 40.5692 91.0807 43.4658ZM93.8725 38.4102L92.0221 39.4867L85.9052 35.9516L87.7561 34.8757L93.8725 38.4102ZM104.589 41.603L102.738 42.68L88.4916 34.4474L90.3435 33.3705L104.589 41.603ZM95.934 35.3696L97.786 34.2927L111.073 41.9705L109.221 43.0475L95.934 35.3696ZM111.997 45.8839L122.751 52.0983L120.9 53.1753L110.145 46.9609L111.997 45.8839ZM112.282 49.0479L121.672 54.4741L119.822 55.5506L110.432 50.1243L112.282 49.0479ZM123.319 61.9467L105.156 72.5103L101.213 70.2318L119.375 59.6677L123.319 61.9467ZM118.486 59.1534L100.324 69.7176L96.3789 67.438L114.541 56.8739L118.486 59.1534ZM113.651 56.3599L95.489 66.9241L91.5443 64.6446L109.706 54.0809L113.651 56.3599ZM90.6557 64.131L86.711 61.8514L104.873 51.2873L108.818 53.567L90.6557 64.131ZM105.069 41.8803L111.432 45.5569L109.581 46.6339L103.218 42.9573L105.069 41.8803ZM109.807 49.7643L92.7486 39.9067L94.599 38.8301L111.658 48.6878L109.807 49.7643ZM131.689 53.8844L129.838 54.9613L123.106 51.0717L124.958 49.9948L131.689 53.8844ZM109.762 43.3599L111.613 42.2835L124.231 49.5748L122.38 50.6518L109.762 43.3599ZM97.0855 33.8881L95.2341 34.9651L91.4055 32.7525L93.2569 31.6755L97.0855 33.8881ZM31.0036 61.1438L88.1124 94.1447L168.327 47.4882L111.218 14.4868L31.0036 61.1438Z" fill="#E9F3FF"/>
<path fill-rule="evenodd" clip-rule="evenodd" d="M97.0859 33.8884L95.2343 34.9652L91.4053 32.7525L93.2567 31.6757L97.0859 33.8884" fill="#BBBBB6"/>
<path fill-rule="evenodd" clip-rule="evenodd" d="M93.873 38.4101L92.0226 39.4865L85.9057 35.9518L87.7563 34.8754L93.873 38.4101" fill="#BBBBB6"/>
<path fill-rule="evenodd" clip-rule="evenodd" d="M107.503 39.9079L105.651 40.9849L106.131 41.2623L95.9338 35.3695L97.7852 34.2927L107.503 39.9079" fill="#BBBBB6"/>
<path fill-rule="evenodd" clip-rule="evenodd" d="M111.432 45.5569L109.581 46.6337L103.218 42.9571L105.07 41.8801L111.432 45.5569" fill="#BBBBB6"/>
<path fill-rule="evenodd" clip-rule="evenodd" d="M111.658 48.688L109.808 49.7644L92.7484 39.9066L94.599 38.8301L111.658 48.688" fill="#BBBBB6"/>
<path fill-rule="evenodd" clip-rule="evenodd" d="M131.689 53.8844L129.838 54.9613L123.106 51.0714L124.958 49.9946L131.689 53.8844" fill="#BBBBB6"/>
<path fill-rule="evenodd" clip-rule="evenodd" d="M121.672 54.474L119.821 55.5504L110.431 50.1243L112.282 49.0479L121.672 54.474" fill="#BBBBB6"/>
<path fill-rule="evenodd" clip-rule="evenodd" d="M79.7447 54.4063C83.046 54.8617 86.6616 54.3438 89.2275 52.8514C91.1094 51.7567 92.0851 50.3365 92.1585 48.902C92.1912 48.252 92.0384 47.5987 91.7002 46.9712C91.2462 46.1321 90.4597 45.3397 89.3416 44.6643C89.2889 44.6317 89.2353 44.6008 89.181 44.5694C88.7745 44.3345 88.3429 44.1233 87.8902 43.9371C87.4978 43.7751 87.0885 43.6306 86.6676 43.5048C83.8273 42.656 80.4428 42.6373 77.5866 43.4499C76.6144 43.7264 75.7031 44.0998 74.8957 44.5695C70.9639 46.8563 70.9856 50.564 74.9431 52.8508C76.3178 53.6453 77.9858 54.1636 79.7447 54.4063M89.8986 44.153C94.2538 46.6699 94.2767 50.7504 89.9489 53.2677C85.6219 55.7846 78.5836 55.7846 74.2282 53.2677C69.8728 50.751 69.849 46.6699 74.176 44.1531C78.5039 41.6357 85.5432 41.6363 89.8986 44.153" fill="#D9D9D3"/>
<path fill-rule="evenodd" clip-rule="evenodd" d="M141.773 56.8176L141.466 56.9964L95.7556 30.5822L96.0631 30.4035L141.773 56.8176" fill="#2D3F89"/>
<path fill-rule="evenodd" clip-rule="evenodd" d="M136.364 59.9639L134.512 61.0407L121.659 53.6137L123.511 52.5368L136.364 59.9639" fill="#BBBBB6"/>
<path fill-rule="evenodd" clip-rule="evenodd" d="M133.776 61.4688L131.926 62.5453L120.439 55.9076L122.29 54.8313L133.776 61.4688" fill="#BBBBB6"/>
<path fill-rule="evenodd" clip-rule="evenodd" d="M98.5622 59.5318L90.6555 64.1307L86.7108 61.8513L94.6175 57.2524L98.5622 59.5318" fill="#4B62BF"/>
<path fill-rule="evenodd" clip-rule="evenodd" d="M108.818 53.5668L98.5622 59.5319L94.6175 57.2525L86.7108 61.8514L90.6555 64.1307L86.7108 61.8514L104.873 51.2873L108.818 53.5668" fill="#2D3F89"/>
<path fill-rule="evenodd" clip-rule="evenodd" d="M102.518 62.8361L95.4895 66.924L91.5447 64.6445L98.573 60.5566L102.518 62.8361" fill="#4B62BF"/>
<path fill-rule="evenodd" clip-rule="evenodd" d="M113.651 56.3603L102.518 62.8363L98.573 60.5568L91.5447 64.6447L95.4895 66.9242L91.5447 64.6447L109.707 54.0808L113.651 56.3603" fill="#2D3F89"/>
<path fill-rule="evenodd" clip-rule="evenodd" d="M73.5174 67.833L74.6796 67.157L54.7266 55.6269L53.5644 56.3029L73.5174 67.833M69.8638 69.9578L71.0262 69.2817L51.0731 57.7517L49.9108 58.4277L69.8638 69.9578M75.3431 66.7709L76.5054 66.0948L56.5522 54.5646L55.39 55.2406L75.3431 66.7709M68.0376 71.0197L69.1998 70.3437L49.2467 58.8137L48.0845 59.4896L68.0376 71.0197M71.6901 68.8957L72.8532 68.2193L52.9001 56.6892L51.737 57.3655L71.6901 68.8957M66.2102 72.0826L67.3731 71.4061L47.4201 59.8759L46.2571 60.5524L66.2102 72.0826M56.4779 53.0684L79.6242 66.4438L65.6811 74.5538L42.5348 61.1784L56.4779 53.0684" fill="#C5C4BF"/>
<path fill-rule="evenodd" clip-rule="evenodd" d="M72.8529 68.2193L71.6899 68.8958L51.7368 57.3656L52.9 56.6891L72.8529 68.2193" fill="#B2B2AE"/>
<path fill-rule="evenodd" clip-rule="evenodd" d="M118.485 59.1535L114.38 61.5411L110.436 59.2617L96.3787 67.4379L100.323 69.7175L96.3787 67.4379L114.541 56.874L118.485 59.1535" fill="#2D3F89"/>
<path fill-rule="evenodd" clip-rule="evenodd" d="M114.38 61.541L100.323 69.7174L96.3787 67.4378L110.436 59.2616L114.38 61.541" fill="#4B62BF"/>
<path fill-rule="evenodd" clip-rule="evenodd" d="M69.1997 70.3439L68.0375 71.0198L48.0844 59.4898L49.2467 58.8138L69.1997 70.3439" fill="#B2B2AE"/>
<path fill-rule="evenodd" clip-rule="evenodd" d="M67.373 71.4061L66.21 72.0826L46.257 60.5524L47.4201 59.8759L67.373 71.4061" fill="#B2B2AE"/>
<path fill-rule="evenodd" clip-rule="evenodd" d="M128.153 64.7398L116.176 71.7061L112.231 69.4266L106.046 73.0242L109.991 75.3037L106.046 73.0242L124.208 62.4603L128.153 64.7398" fill="#2D3F89"/>
<path fill-rule="evenodd" clip-rule="evenodd" d="M91.2664 74.6696L90.1043 75.3455L78.6545 68.7292L79.8167 68.0532L91.2664 74.6696" fill="#BBBBB6"/>
<path fill-rule="evenodd" clip-rule="evenodd" d="M89.4419 75.7318L88.2788 76.4081L76.8289 69.7918L77.992 69.1153L89.4419 75.7318" fill="#BBBBB6"/>
<path fill-rule="evenodd" clip-rule="evenodd" d="M85.7884 77.8563L84.6262 78.5324L73.1764 71.916L74.3386 71.24L85.7884 77.8563" fill="#BBBBB6"/>
<path fill-rule="evenodd" clip-rule="evenodd" d="M83.962 78.9185L82.7989 79.595L71.349 72.9786L72.5121 72.3021L83.962 78.9185" fill="#BBBBB6"/>
<path fill-rule="evenodd" clip-rule="evenodd" d="M98.2905 80.8453L97.1274 81.5218L90.1467 77.488L91.3098 76.8113L98.2905 80.8453" fill="#BBBBB6"/>
<path fill-rule="evenodd" clip-rule="evenodd" d="M96.4627 81.9079L95.3005 82.5839L88.3199 78.55L89.4822 77.874L96.4627 81.9079" fill="#BBBBB6"/>
<path fill-rule="evenodd" clip-rule="evenodd" d="M88.1144 94.1445L88.1091 95.9914L31 62.9901L31.0053 61.1433L88.1144 94.1445" fill="#2D3F89"/>
<path fill-rule="evenodd" clip-rule="evenodd" d="M168.328 47.4879L168.323 49.3348L88.1089 95.9915L88.1142 94.1446L168.328 47.4879" fill="#4B62BF"/>
<path fill-rule="evenodd" clip-rule="evenodd" d="M59.588 51.4016L105.652 78.0102L88.7965 87.9292L42.5348 61.2707L59.588 51.4016Z" fill="#2D3F89"/>
<path fill-rule="evenodd" clip-rule="evenodd" d="M59.2211 54.5087L100.623 77.8742L95.0567 80.8454L54.1054 57.2525L59.2211 54.5087Z" fill="#4B62BF"/>
<path fill-rule="evenodd" clip-rule="evenodd" d="M141.067 58.6642L92.3284 29.766L84.3774 36.2429L132.36 64.392L141.067 58.6642Z" fill="#E9F3FF"/>
<path fill-rule="evenodd" clip-rule="evenodd" d="M81.1656 41.0387C89.2791 41.0387 95.867 44.3469 95.867 48.4262C95.867 52.5033 89.2791 55.8161 81.1656 55.8161C73.0499 55.8161 66.462 52.5033 66.462 48.4262C66.462 44.3469 73.0499 41.0387 81.1656 41.0387" fill="#2D3F89"/>
<path opacity="0.34" fill-rule="evenodd" clip-rule="evenodd" d="M81.1656 33.946C89.2791 33.946 95.867 37.2542 95.867 41.3336C95.867 45.4107 89.2791 48.7234 81.1656 48.7234C73.0499 48.7234 66.462 45.4107 66.462 41.3336C66.462 37.2542 73.0499 33.946 81.1656 33.946" fill="#2D3F89"/>
<path opacity="0.34" fill-rule="evenodd" clip-rule="evenodd" d="M81.1659 26.8396C89.2793 26.8396 95.8672 30.1478 95.8672 34.2271C95.8672 38.3042 89.2793 41.617 81.1659 41.617C73.0502 41.617 66.4622 38.3042 66.4622 34.2271C66.4622 30.1478 73.0502 26.8396 81.1659 26.8396" fill="#2D3F89"/>
<defs>
<linearGradient id="paint0_linear" x1="396.254" y1="91.493" x2="302.399" y2="-95.202" gradientUnits="userSpaceOnUse">
<stop stop-color="white"/>
<stop offset="0.979407" stop-color="#E2E8EF"/>
</linearGradient>
<linearGradient id="paint1_linear" x1="396.254" y1="76.395" x2="302.399" y2="-110.3" gradientUnits="userSpaceOnUse">
<stop stop-color="white"/>
<stop offset="0.979407" stop-color="#E2E8EF"/>
</linearGradient>
</defs>
</svg>
