<svg width="28" height="30" viewBox="0 0 28 30" fill="none" xmlns="http://www.w3.org/2000/svg">
<path d="M6.60156 10.7991L13.603 14.2998L20.6044 10.7991" stroke="#35B6B4" stroke-width="2" stroke-linecap="round" stroke-linejoin="round"/>
<path d="M13.6025 23.4017V15" stroke="#35B6B4" stroke-width="2" stroke-linecap="round" stroke-linejoin="round"/>
<path d="M26.2052 20.6011V9.39885C26.2047 8.90773 26.075 8.42539 25.8292 8.00019C25.5835 7.575 25.2302 7.22191 24.8049 6.97635L15.0029 1.37521C14.5771 1.1294 14.0942 1 13.6026 1C13.111 1 12.628 1.1294 12.2023 1.37521L2.40029 6.97635C1.97497 7.22191 1.6217 7.575 1.37592 8.00019C1.13015 8.42539 1.0005 8.90773 1 9.39885V20.6011C1.0005 21.0923 1.13015 21.5746 1.37592 21.9998C1.6217 22.425 1.97497 22.7781 2.40029 23.0236L12.2023 28.6248C12.628 28.8706 13.111 29 13.6026 29C14.0942 29 14.5771 28.8706 15.0029 28.6248L24.8049 23.0236C25.2302 22.7781 25.5835 22.425 25.8292 21.9998C26.075 21.5746 26.2047 21.0923 26.2052 20.6011Z" stroke="#1F3D8C" stroke-width="2" stroke-linecap="round" stroke-linejoin="round"/>
</svg>
