<svg width="29" height="28" viewBox="0 0 29 28" fill="none" xmlns="http://www.w3.org/2000/svg">
<path d="M16.7477 3.37854H3.62461C2.17508 3.37854 1 4.55362 1 6.00315V19.1262C1 20.5757 2.17508 21.7508 3.62461 21.7508H24.6215C26.071 21.7508 27.2461 20.5757 27.2461 19.1262V14.6972" stroke="#F07E26" stroke-width="2" stroke-linecap="round" stroke-linejoin="round"/>
<path d="M5.26455 13.2208H11.1699" stroke="#DC272B" stroke-width="2" stroke-linecap="round" stroke-linejoin="round"/>
<path d="M5.26523 17.1577L15.7637 17.1577" stroke="#DC272B" stroke-width="2" stroke-linecap="round" stroke-linejoin="round"/>
<path d="M5.26504 9.28394L7.88965 9.28394" stroke="#DC272B" stroke-width="2" stroke-linecap="round" stroke-linejoin="round"/>
<path d="M8.87402 27H19.3725" stroke="#F07E26" stroke-width="2" stroke-linecap="round" stroke-linejoin="round"/>
<path d="M14.123 21.7507V27" stroke="#F07E26" stroke-width="2" stroke-linecap="round" stroke-linejoin="round"/>
<path d="M27.574 10.8423V9.85811C27.574 9.33604 27.3666 8.83535 26.9975 8.4662C26.6283 8.09704 26.1276 7.88965 25.6056 7.88965H21.6687C21.1466 7.88965 20.6459 8.09704 20.2767 8.4662C19.9076 8.83535 19.7002 9.33604 19.7002 9.85811V10.8423" stroke="#DC272B" stroke-width="2" stroke-linecap="round" stroke-linejoin="round"/>
<path d="M23.6374 4.93691C24.7246 4.93691 25.6059 4.05561 25.6059 2.96846C25.6059 1.88131 24.7246 1 23.6374 1C22.5503 1 21.6689 1.88131 21.6689 2.96846C21.6689 4.05561 22.5503 4.93691 23.6374 4.93691Z" stroke="#DC272B" stroke-width="2" stroke-linecap="round" stroke-linejoin="round"/>
</svg>
