<svg xmlns="http://www.w3.org/2000/svg" width="50" height="44" viewBox="0 0 50 44">
    <g fill="none" fill-rule="nonzero" transform="translate(1 1)">
        <path fill="#2D3F89" stroke="#2D3F89" stroke-width=".96" d="M45.102 0H2.898C1.3 0 0 1.283 0 2.86v28.768c0 1.578 1.3 2.861 2.898 2.861H17.36v2.082c0 1.908-1.573 3.46-3.506 3.46h-3.187a1.1 1.1 0 0 0-1.107 1.093 1.1 1.1 0 0 0 1.107 1.092h26.666a1.1 1.1 0 0 0 1.106-1.092 1.1 1.1 0 0 0-1.106-1.093h-3.187c-1.933 0-3.506-1.552-3.506-3.46v-2.082h14.462C46.7 34.49 48 33.206 48 31.63V2.86C48 1.283 46.7 0 45.102 0zM18.368 40.032a5.57 5.57 0 0 0 1.205-3.461v-2.082h8.854v2.082a5.57 5.57 0 0 0 1.206 3.46H18.368zm27.419-8.404a.681.681 0 0 1-.685.676H2.898a.681.681 0 0 1-.685-.676v-5.741h43.574v5.741zm0-7.926H2.213V2.861c0-.373.307-.676.685-.676h42.204c.378 0 .685.303.685.676v20.841z"/>
        <ellipse cx="24" cy="29.096" fill="#2D3F89" rx="1.194" ry="1.179"/>
        <path fill="#EF7D25" d="M25.897 7.526a1.117 1.117 0 0 0-1.565 0l-7.82 7.72a1.083 1.083 0 0 0 0 1.546c.216.213.5.32.783.32.283 0 .566-.107.782-.32l7.82-7.72a1.083 1.083 0 0 0 0-1.546zM30.532 12a1.117 1.117 0 0 0-1.565 0l-3.115 3.076a1.083 1.083 0 0 0 0 1.545c.216.213.5.32.783.32.283 0 .566-.107.782-.32l3.115-3.076a1.083 1.083 0 0 0 0-1.545z"/>
    </g>
</svg>
