<svg width="239" height="198" viewBox="0 0 239 198" fill="none" xmlns="http://www.w3.org/2000/svg">
<path opacity="0.5" fill-rule="evenodd" clip-rule="evenodd" d="M129.661 59.9169C123.812 56.4992 114.373 56.4992 108.571 59.9112L4.34028 121.22C-1.47416 124.637 -1.44191 130.173 4.40857 133.591L109.323 194.901C115.16 198.311 124.6 198.311 130.412 194.893L234.645 133.583C240.444 130.173 240.414 124.637 234.577 121.225L129.661 59.9169Z" fill="url(#paint0_linear)"/>
<path opacity="0.5" fill-rule="evenodd" clip-rule="evenodd" d="M129.661 44.685C123.812 41.2672 114.373 41.2672 108.571 44.6792L4.34028 105.988C-1.47416 109.405 -1.44191 114.941 4.40857 118.359L109.323 179.669C115.16 183.079 124.6 183.079 130.412 179.661L234.645 118.351C240.444 114.941 240.414 109.405 234.577 105.993L129.661 44.685Z" fill="url(#paint1_linear)"/>
<path fill-rule="evenodd" clip-rule="evenodd" d="M158.486 103.807L179.296 91.7808L179.278 98.0275L158.468 110.054L158.486 103.807Z" fill="#DC272B"/>
<path fill-rule="evenodd" clip-rule="evenodd" d="M169.051 64.3978C168.887 64.2831 168.727 64.1543 168.563 64.0335C168.225 63.782 167.889 63.5284 167.557 63.2547C167.371 63.0998 167.187 62.9347 167.003 62.7717C166.705 62.5121 166.412 62.2485 166.122 61.9728C165.932 61.7916 165.746 61.6025 165.559 61.4133C165.284 61.1356 165.013 60.8498 164.746 60.558C164.578 60.3709 164.41 60.1817 164.244 59.9905C163.841 59.5236 163.448 59.0426 163.068 58.5476C162.985 58.4409 162.9 58.3383 162.819 58.2296C162.367 57.6258 161.938 57.006 161.527 56.3681C161.418 56.201 161.317 56.03 161.212 55.8589C160.906 55.3659 160.612 54.8668 160.331 54.3616C160.22 54.1624 160.11 53.9612 160.003 53.7599C159.694 53.1723 159.402 52.5786 159.129 51.9789C159.088 51.8883 159.04 51.7998 158.999 51.7072C158.663 50.9445 158.366 50.1717 158.094 49.3989C158.026 49.2077 157.965 49.0185 157.902 48.8294C157.655 48.0827 157.435 47.3341 157.254 46.5875C157.244 46.5452 157.23 46.503 157.22 46.4607C157.038 45.6819 156.906 44.9091 156.803 44.1403C156.777 43.9532 156.755 43.766 156.734 43.5788C156.649 42.8061 156.591 42.0393 156.593 41.2907C156.605 36.8894 158.167 33.7922 160.689 32.3352L139.88 44.3597C137.36 45.8147 135.795 48.9119 135.783 53.3151C135.781 54.0638 135.839 54.8305 135.924 55.6033C135.945 55.7885 135.967 55.9756 135.991 56.1648C136.097 56.9336 136.228 57.7063 136.41 58.4832C136.42 58.5274 136.435 58.5677 136.445 58.612C136.623 59.3586 136.845 60.1052 137.092 60.8518C137.153 61.043 137.218 61.2302 137.283 61.4214C137.556 62.1962 137.853 62.9689 138.191 63.7317C138.198 63.7478 138.202 63.7619 138.208 63.778C138.244 63.8544 138.287 63.9289 138.321 64.0054C138.592 64.6051 138.884 65.1947 139.191 65.7804C139.301 65.9856 139.41 66.1849 139.521 66.3861C139.803 66.8932 140.096 67.3903 140.402 67.8834C140.507 68.0524 140.608 68.2255 140.718 68.3925C141.128 69.0285 141.558 69.6503 142.007 70.2541C142.088 70.3627 142.175 70.4634 142.256 70.57C142.636 71.0671 143.029 71.5481 143.434 72.017C143.505 72.0975 143.567 72.186 143.638 72.2665C143.733 72.3752 143.839 72.4718 143.936 72.5785C144.203 72.8743 144.474 73.1581 144.75 73.4398C144.936 73.629 145.122 73.8141 145.312 73.9952C145.6 74.273 145.893 74.5366 146.191 74.7962C146.377 74.9592 146.559 75.1242 146.749 75.2812C147.079 75.5529 147.415 75.8065 147.753 76.058C147.917 76.1767 148.075 76.3076 148.241 76.4203C148.747 76.7744 149.259 77.1065 149.781 77.4084C153.684 79.6483 157.218 79.8555 159.766 78.3824L180.578 66.3579C178.028 67.8331 174.494 67.6218 170.591 65.3819C170.071 65.084 169.557 64.752 169.051 64.3978Z" fill="white"/>
<path fill-rule="evenodd" clip-rule="evenodd" d="M121.219 14.3991L142.029 2.37463L146.747 8.21078L125.937 20.2353L121.219 14.3991Z" fill="#A92321"/>
<path fill-rule="evenodd" clip-rule="evenodd" d="M125.937 20.2351L146.747 8.2106L161.964 6.90048L141.154 18.925L125.937 20.2351Z" fill="#DC272B"/>
<path fill-rule="evenodd" clip-rule="evenodd" d="M182.532 90.1819L203.342 78.1574L208.06 83.9956L187.251 96.018L182.532 90.1819Z" fill="#A92321"/>
<path fill-rule="evenodd" clip-rule="evenodd" d="M187.25 96.0189L208.059 83.9944L199.244 96.3147L178.435 108.339L187.25 96.0189Z" fill="#DC272B"/>
<path fill-rule="evenodd" clip-rule="evenodd" d="M182.59 70.1378L203.399 58.1133L203.343 78.1574L182.533 90.1819L182.59 70.1378Z" fill="#DC272B"/>
<path fill-rule="evenodd" clip-rule="evenodd" d="M158.717 22.7653L179.527 10.7408L179.509 16.9714L158.699 28.9959L158.717 22.7653Z" fill="#A92321"/>
<path fill-rule="evenodd" clip-rule="evenodd" d="M141.173 12.6942L161.982 0.669678L179.527 10.7421L158.718 22.7645L141.173 12.6942Z" fill="#DC272B"/>
<path fill-rule="evenodd" clip-rule="evenodd" d="M158.7 28.9963L179.51 16.9719L194.682 35.73L173.874 47.7525L158.7 28.9963Z" fill="#DC272B"/>
<path fill-rule="evenodd" clip-rule="evenodd" d="M173.873 47.7531L194.683 35.7286L199.418 35.3181L178.608 47.3426L173.873 47.7531Z" fill="#A92321"/>
<path fill-rule="evenodd" clip-rule="evenodd" d="M178.609 47.3423L199.418 35.3179L208.134 57.7186L187.324 69.7431L178.609 47.3423Z" fill="#DC272B"/>
<path fill-rule="evenodd" clip-rule="evenodd" d="M149.877 77.5496C157.634 82.0012 163.929 78.4331 163.955 69.5722C163.979 60.7134 157.725 49.9245 149.968 45.475C142.212 41.0234 135.905 44.5955 135.878 53.4564C135.854 62.3193 142.121 73.0961 149.877 77.5496V77.5496ZM182.686 70.2806L182.629 90.3248L187.345 96.1609L178.53 108.481L173.814 102.661L158.583 103.949L158.565 110.196L141.02 100.123L141.038 93.8768L125.877 75.1447L121.141 75.5372L112.411 53.1445L117.147 52.736L117.204 32.6898L112.486 26.8697L121.315 14.5414L126.033 20.3775L141.25 19.0654L141.269 12.8368L158.814 22.9072L158.795 29.1378L173.97 47.896L178.705 47.4854L187.42 69.8842L182.686 70.2806Z" fill="#B0322F"/>
<mask id="mask0" mask-type="alpha" maskUnits="userSpaceOnUse" x="80" y="124" width="46" height="27">
<path fill-rule="evenodd" clip-rule="evenodd" d="M80.4246 124.319H125.057V150.83H80.4246V124.319Z" fill="white"/>
</mask>
<g mask="url(#mask0)">
<path fill-rule="evenodd" clip-rule="evenodd" d="M80.4246 148.771C80.4246 148.771 90.3556 153.028 97.1174 149.299C103.879 145.57 125.057 133.892 125.057 133.892L108.994 124.319L80.4246 148.771Z" fill="#E6E6E6"/>
</g>
<path fill-rule="evenodd" clip-rule="evenodd" d="M104.367 113.956L83.881 125.743C81.0252 127.387 78.4327 127.538 76.5597 126.452L87.4801 132.779C89.3531 133.864 91.9456 133.713 94.8027 132.069L115.288 120.281L104.367 113.956Z" fill="#E4EEF9"/>
<path fill-rule="evenodd" clip-rule="evenodd" d="M115.288 120.281L113.697 121.197L94.8018 132.069C89.126 135.335 84.4925 132.705 84.4753 126.203C84.4555 119.705 89.0585 111.759 94.7344 108.492L115.221 96.7039L115.182 82.9723L93.8958 95.2208C87.9435 98.6458 82.355 104.519 78.1606 111.762C73.9649 119.003 71.6647 126.747 71.6832 133.563C71.7229 147.637 81.7531 153.332 94.0413 146.262L115.327 134.014L115.288 120.281Z" fill="url(#paint2_linear)"/>
<path fill-rule="evenodd" clip-rule="evenodd" d="M104.261 76.6469L82.9748 88.8954C77.0225 92.3204 71.434 98.1935 67.2396 105.436C63.0439 112.679 60.7437 120.422 60.7636 127.237C60.7821 134.23 63.2675 139.154 67.27 141.471L78.1918 147.797C74.1892 145.478 71.7038 140.555 71.684 133.563C71.6641 126.747 73.9644 119.003 78.16 111.762C82.3544 104.519 87.9442 98.6457 93.8952 95.2207L115.182 82.9722L104.261 76.6469Z" fill="url(#paint3_linear)"/>
<path fill-rule="evenodd" clip-rule="evenodd" d="M100.671 104.821V91.4201L89.6831 85.2424L104.261 76.647L115.183 82.9723L115.221 96.7039L100.671 104.821Z" fill="#B0322F"/>
<path fill-rule="evenodd" clip-rule="evenodd" d="M100.671 142.446V129.047L115.288 120.281L115.327 134.013L100.671 142.446Z" fill="#4B62BF"/>
<path fill-rule="evenodd" clip-rule="evenodd" d="M100.671 91.4206L115.183 82.9715L115.221 96.7044L100.671 104.821V91.4206Z" fill="#DC272B"/>
<path fill-rule="evenodd" clip-rule="evenodd" d="M100.671 129.047L89.2241 122.67L104.367 113.956L115.288 120.281L100.671 129.047Z" fill="#2D3F89"/>
<defs>
<linearGradient id="paint0_linear" x1="396.254" y1="133.934" x2="301.069" y2="-53.742" gradientUnits="userSpaceOnUse">
<stop stop-color="white"/>
<stop offset="0.979407" stop-color="#E2E8EF"/>
</linearGradient>
<linearGradient id="paint1_linear" x1="396.254" y1="118.702" x2="301.069" y2="-68.974" gradientUnits="userSpaceOnUse">
<stop stop-color="white"/>
<stop offset="0.979407" stop-color="#E2E8EF"/>
</linearGradient>
<linearGradient id="paint2_linear" x1="90.3124" y1="177.054" x2="167.626" y2="156.287" gradientUnits="userSpaceOnUse">
<stop stop-color="#D1D9E2"/>
<stop offset="1" stop-color="white"/>
</linearGradient>
<linearGradient id="paint3_linear" x1="71.8954" y1="170.924" x2="128.174" y2="131.171" gradientUnits="userSpaceOnUse">
<stop stop-color="#D1D9E2"/>
<stop offset="1" stop-color="white"/>
</linearGradient>
</defs>
</svg>
