<svg width="129" height="25" viewBox="0 0 129 25" fill="none" xmlns="http://www.w3.org/2000/svg">
<path d="M23.3396 4.33799L22.2315 3.89005C21.8071 3.72502 21.5242 3.48926 21.3828 3.20636C21.2413 2.92345 21.1942 2.59339 21.2413 2.16903C21.3356 1.55606 21.5478 1.1317 21.8779 0.91952C22.2079 0.70734 22.7502 0.613037 23.481 0.613037C24.2118 0.613037 24.8484 0.683764 25.3671 0.848793L25.2492 1.72109C24.7541 1.69752 24.1411 1.69752 23.4574 1.69752C23.1038 1.69752 22.8916 1.72109 22.7502 1.76824C22.6323 1.81539 22.538 1.98042 22.5144 2.23976C22.4908 2.42836 22.4908 2.56982 22.5616 2.64054C22.6087 2.71127 22.7502 2.80557 22.9859 2.8763L24.0232 3.27708C24.4712 3.44211 24.7541 3.67787 24.8955 3.9372C25.037 4.19653 25.0841 4.55017 25.0134 5.02168C24.9191 5.65822 24.7305 6.08258 24.4005 6.31834C24.0704 6.53052 23.5046 6.6484 22.7266 6.6484C22.0665 6.6484 21.4063 6.57767 20.7227 6.41264L20.8641 5.49319C22.0429 5.51677 22.6559 5.54035 22.6794 5.54035C23.0802 5.54035 23.3396 5.49319 23.481 5.42247C23.6225 5.35174 23.7168 5.18671 23.7403 4.92738C23.7639 4.73877 23.7403 4.59732 23.6932 4.52659C23.646 4.47944 23.5282 4.40871 23.3396 4.33799Z" fill="white"/>
<path d="M26.9232 6.53045H25.6973L26.2867 2.38114H27.5126L26.9232 6.53045ZM26.8525 0.542236H27.3711C27.6305 0.542236 27.7483 0.660115 27.7248 0.919447L27.6776 1.36738C27.654 1.60314 27.5126 1.69744 27.2768 1.69744H26.7582C26.4988 1.69744 26.381 1.57956 26.4281 1.32023L26.4753 0.872295C26.4753 0.660115 26.6167 0.542236 26.8525 0.542236Z" fill="white"/>
<path d="M30.0587 5.04503L29.0686 4.62067C28.7385 4.47922 28.5028 4.31419 28.3613 4.10201C28.2198 3.88983 28.1727 3.63049 28.2198 3.32401C28.267 2.9468 28.432 2.66389 28.7149 2.49886C28.9978 2.33383 29.4458 2.23953 30.0823 2.26311C30.8367 2.26311 31.4969 2.33383 31.9919 2.42814L31.8741 3.22971C30.7896 3.20613 30.2474 3.20613 30.2238 3.20613C29.8937 3.20613 29.6815 3.22971 29.5872 3.25328C29.4694 3.27686 29.4222 3.34759 29.3986 3.44189C29.3986 3.53619 29.4222 3.60692 29.4694 3.65407C29.5401 3.70122 29.658 3.77195 29.8466 3.84267L30.8603 4.24346C31.214 4.38491 31.4497 4.54994 31.5912 4.73855C31.7326 4.92715 31.7798 5.18649 31.7326 5.49297C31.709 5.72873 31.6383 5.94091 31.544 6.10594C31.4497 6.27097 31.3083 6.38884 31.1196 6.45957C30.931 6.5303 30.7424 6.60103 30.5303 6.6246C30.3181 6.64818 30.0352 6.67175 29.7051 6.67175C29.21 6.67175 28.5971 6.6246 27.8662 6.5303L27.9841 5.72873C28.1963 5.72873 28.6206 5.7523 29.3043 5.7523C29.7758 5.7523 30.1059 5.72873 30.2709 5.70515C30.436 5.68158 30.5067 5.58727 30.5303 5.49297C30.5303 5.39867 30.5303 5.35152 30.4595 5.30436C30.4124 5.25721 30.2945 5.21006 30.153 5.16291C30.1295 5.06861 30.0823 5.06861 30.0587 5.04503Z" fill="white"/>
<path d="M34.4431 3.2299L34.1602 5.21025C34.1366 5.37528 34.1602 5.46958 34.2074 5.51673C34.2545 5.56389 34.3724 5.58746 34.5374 5.58746H35.1032L35.1504 6.45976C34.8439 6.57764 34.4667 6.62479 33.9952 6.62479C33.5944 6.62479 33.3115 6.50691 33.1229 6.29473C32.9343 6.08255 32.8635 5.77607 32.9107 5.39886L33.2407 3.20632H32.4863L32.5806 2.40475L33.335 2.3576L33.5001 1.20239H34.726L34.561 2.3576H35.7162L35.5983 3.18275H34.4431V3.2299Z" fill="white"/>
<path d="M39.6308 5.5402L39.7251 6.34177C39.2535 6.53037 38.6406 6.62468 37.8862 6.62468C37.0846 6.62468 36.5424 6.43607 36.2595 6.05886C35.953 5.68165 35.8587 5.11584 35.953 4.36142C36.0473 3.55984 36.283 2.99403 36.6367 2.71112C36.9903 2.42821 37.5797 2.26318 38.3577 2.26318C39.0885 2.26318 39.5836 2.38106 39.8429 2.61682C40.1023 2.85257 40.1966 3.20621 40.1258 3.67772C40.0787 4.07851 39.9137 4.36142 39.6543 4.52644C39.395 4.69147 38.9942 4.80935 38.4284 4.83293L37.2025 4.92723C37.2025 5.21014 37.2732 5.39874 37.4147 5.49305C37.5561 5.58735 37.7447 5.6345 38.0512 5.6345C38.5934 5.6345 39.1121 5.61092 39.6308 5.5402ZM37.2732 4.21996L38.2398 4.12566C38.4756 4.10208 38.617 4.05493 38.7349 3.98421C38.8292 3.91348 38.8999 3.77202 38.9235 3.58342C38.9471 3.39481 38.8999 3.27694 38.8292 3.22978C38.7349 3.18263 38.5699 3.15906 38.287 3.18263C37.9569 3.18263 37.7211 3.25336 37.6033 3.39481C37.4618 3.51269 37.3439 3.7956 37.2732 4.21996Z" fill="white"/>
<path d="M42.0822 2.38106V3.13548C42.3887 2.829 42.6716 2.61682 42.9309 2.47536C43.1903 2.33391 43.4732 2.26318 43.7561 2.26318C44.0626 2.26318 44.2983 2.33391 44.4634 2.47536C44.6284 2.61682 44.7463 2.80542 44.7698 3.04118C45.2885 2.52252 45.8072 2.26318 46.3258 2.26318C46.703 2.26318 46.986 2.35749 47.1746 2.56967C47.3632 2.78185 47.4103 3.06476 47.3632 3.44197L46.9388 6.53038H45.7129L46.0901 3.77202C46.1137 3.607 46.0901 3.48912 46.0429 3.41839C45.9958 3.34766 45.9015 3.32409 45.7836 3.32409C45.6421 3.32409 45.5007 3.37124 45.3357 3.46554C45.1706 3.55984 44.9584 3.72487 44.6991 3.96063L44.3455 6.55395H43.1431L43.5203 3.7956C43.5439 3.63057 43.5439 3.51269 43.4968 3.44197C43.4496 3.37124 43.3553 3.34766 43.2374 3.34766C43.096 3.34766 42.9309 3.39481 42.7895 3.48912C42.648 3.58342 42.4123 3.72487 42.1529 3.96063L41.7993 6.57753H40.5498L41.1392 2.42821H42.0822V2.38106Z" fill="white"/>
<path d="M51.8894 6.53037H50.9228V5.77595C50.4984 6.31819 49.9326 6.6011 49.2253 6.62468C48.7066 6.64825 48.353 6.48322 48.1644 6.10601C47.9758 5.75238 47.9522 5.16299 48.0701 4.36142C48.1172 3.98421 48.2116 3.65415 48.3059 3.39481C48.4002 3.13548 48.518 2.9233 48.6359 2.78185C48.7538 2.64039 48.9188 2.52252 49.1074 2.42821C49.296 2.35749 49.4846 2.31033 49.6732 2.28676C49.8618 2.26318 50.0976 2.26318 50.3569 2.26318C50.6634 2.26318 51.0171 2.28676 51.4178 2.33391C51.8422 2.38106 52.1723 2.45179 52.408 2.52252L51.8894 6.53037ZM51.1114 3.18263H50.4748C50.074 3.18263 49.7911 3.25336 49.6497 3.39481C49.5082 3.53627 49.3903 3.86633 49.3196 4.38499C49.2489 4.92723 49.2253 5.25729 49.2725 5.39874C49.3196 5.5402 49.4375 5.61092 49.6261 5.61092C50.0033 5.61092 50.4041 5.35159 50.8756 4.83293L51.1114 3.18263Z" fill="white"/>
<path d="M54.9778 5.04503L53.9877 4.62067C53.6576 4.47922 53.4218 4.31419 53.2804 4.10201C53.1389 3.88983 53.0918 3.63049 53.1389 3.32401C53.1861 2.9468 53.3511 2.66389 53.634 2.49886C53.9169 2.33383 54.3649 2.23953 55.0014 2.26311C55.7558 2.26311 56.4159 2.33383 56.911 2.42814L56.7932 3.22971C55.7087 3.20613 55.1664 3.20613 55.1429 3.20613C54.8128 3.20613 54.6006 3.22971 54.4827 3.25328C54.3649 3.27686 54.3177 3.34759 54.2941 3.44189C54.2941 3.53619 54.3177 3.60692 54.3649 3.65407C54.4356 3.70122 54.5535 3.77195 54.7421 3.84267L55.7558 4.24346C56.1095 4.38491 56.3452 4.54994 56.4867 4.73855C56.6281 4.92715 56.6753 5.18649 56.6281 5.49297C56.6045 5.72873 56.5338 5.94091 56.4395 6.10594C56.3452 6.27097 56.2038 6.38884 56.0152 6.45957C55.8266 6.5303 55.6379 6.60103 55.4258 6.6246C55.2136 6.64818 54.9307 6.67175 54.6006 6.67175C54.1055 6.67175 53.4926 6.6246 52.7617 6.5303L52.8796 5.72873C53.0918 5.72873 53.5161 5.7523 54.1998 5.7523C54.6713 5.7523 55.0014 5.72873 55.1664 5.70515C55.3315 5.68158 55.4022 5.58727 55.4258 5.49297C55.4258 5.39867 55.4258 5.35152 55.355 5.30436C55.3079 5.25721 55.19 5.21006 55.0486 5.16291C55.0486 5.06861 55.0014 5.06861 54.9778 5.04503Z" fill="white"/>
<path d="M67.3082 0.730713L65.6107 6.20026C65.54 6.41244 65.3749 6.53032 65.1392 6.53032H63.9368C63.819 6.53032 63.7246 6.48317 63.6539 6.41244C63.5596 6.34171 63.536 6.24741 63.5125 6.12953L63.3946 2.38101V1.65016H63.2296C63.1588 1.95665 63.0881 2.21598 63.041 2.40458L61.8857 6.20026C61.815 6.43602 61.65 6.53032 61.4142 6.53032H60.1883C60.0704 6.53032 59.9761 6.48317 59.8818 6.41244C59.7875 6.34171 59.7404 6.24741 59.7404 6.15311L59.5518 0.730713H60.8248V4.78572C60.8248 4.88002 60.8248 5.02148 60.8013 5.23366C60.8013 5.44584 60.7777 5.56372 60.7777 5.63444H60.9427C60.9663 5.51657 61.0606 5.21008 61.1785 4.73857L62.3101 1.10792C62.3808 0.872167 62.5459 0.730713 62.8052 0.730713H63.8897C64.0076 0.730713 64.1019 0.777864 64.1726 0.848591C64.2433 0.919318 64.2905 1.0372 64.2905 1.15507L64.4555 4.8093C64.4555 5.16293 64.4791 5.44584 64.4555 5.63444H64.6441C64.7384 5.25723 64.8091 4.95075 64.8563 4.76215L66.0115 0.730713H67.3082Z" fill="white"/>
<path d="M70.8915 5.5402L70.9858 6.34177C70.5143 6.53037 69.9013 6.62468 69.1469 6.62468C68.3453 6.62468 67.8031 6.43607 67.5202 6.05886C67.2137 5.68165 67.1194 5.11584 67.2137 4.36142C67.308 3.55984 67.5438 2.99403 67.8974 2.71112C68.251 2.42821 68.8404 2.26318 69.6184 2.26318C70.3493 2.26318 70.8444 2.38106 71.1037 2.61682C71.363 2.85257 71.4573 3.20621 71.3866 3.67772C71.3394 4.07851 71.1744 4.36142 70.9151 4.52644C70.6558 4.69147 70.255 4.80935 69.6892 4.83293L68.4632 4.92723C68.4632 5.21014 68.5339 5.39874 68.6754 5.49305C68.8169 5.58735 69.0055 5.6345 69.3119 5.6345C69.8542 5.6345 70.3729 5.61092 70.8915 5.5402ZM68.534 4.21996L69.5005 4.12566C69.7363 4.10208 69.8778 4.05493 69.9956 3.98421C70.0899 3.91348 70.1607 3.77202 70.1842 3.58342C70.2078 3.39481 70.1607 3.27694 70.0899 3.22978C69.9956 3.18263 69.8306 3.15906 69.5477 3.18263C69.2176 3.18263 68.9819 3.25336 68.864 3.39481C68.7226 3.51269 68.6047 3.7956 68.534 4.21996Z" fill="white"/>
<path d="M73.8616 0.636719L73.673 2.07483C73.6259 2.42847 73.5551 2.75853 73.4373 3.06501C73.9795 2.54635 74.5453 2.26344 75.0876 2.26344C75.5827 2.26344 75.9363 2.42847 76.1249 2.75853C76.3135 3.08858 76.3371 3.67798 76.2192 4.47955C76.1013 5.25754 75.8891 5.82336 75.5591 6.15342C75.229 6.48348 74.7339 6.64851 74.0502 6.64851C73.7202 6.64851 73.3194 6.62493 72.8715 6.5542C72.4235 6.48348 72.0699 6.41275 71.8105 6.31845L72.6121 0.636719H73.8616ZM73.4137 3.89016L73.1544 5.70548C73.508 5.70548 73.7202 5.72906 73.8145 5.72906C74.2153 5.72906 74.4982 5.63475 74.6396 5.4933C74.7811 5.32827 74.899 4.97464 74.9697 4.4324C75.0404 3.96088 75.0404 3.63082 74.9933 3.51295C74.9461 3.39507 74.8282 3.30077 74.6396 3.30077C74.3096 3.27719 73.9088 3.48937 73.4137 3.89016Z" fill="white"/>
<path d="M80.1803 2.38117L80.1567 3.18274C80.3925 2.92341 80.6754 2.71123 80.9818 2.5462C81.2883 2.38117 81.5948 2.28687 81.9013 2.28687C82.3964 2.28687 82.7264 2.45189 82.915 2.80553C83.1036 3.15916 83.1272 3.72498 83.0329 4.55013C82.9858 4.90376 82.915 5.21024 82.8207 5.46958C82.7264 5.72891 82.6321 5.91751 82.5143 6.08254C82.3964 6.224 82.2549 6.34187 82.1135 6.43618C81.972 6.53048 81.7834 6.57763 81.642 6.60121C81.4769 6.62478 81.2883 6.64836 81.0761 6.64836C80.6754 6.64836 80.251 6.60121 79.8502 6.53048C79.8502 6.78981 79.8266 7.04914 79.8031 7.30848L79.6616 8.13362H78.4121L79.2137 2.38117H80.1803ZM79.9681 5.77606H80.6046C81.029 5.77606 81.3119 5.70533 81.4534 5.56388C81.5948 5.42243 81.6891 5.06879 81.7598 4.52655C81.8306 4.00789 81.8306 3.65425 81.807 3.5128C81.7834 3.37134 81.642 3.30062 81.4534 3.30062C81.3119 3.30062 81.1233 3.37134 80.8875 3.48922C80.6518 3.6071 80.4396 3.77213 80.2039 3.98431L79.9681 5.77606Z" fill="white"/>
<path d="M87.5827 6.53037H86.6161V5.77595C86.1918 6.31819 85.6259 6.6011 84.9187 6.62468C84.4 6.64825 84.0464 6.48322 83.8578 6.10601C83.6692 5.75238 83.6456 5.16299 83.7635 4.36142C83.8106 3.98421 83.9049 3.65415 83.9992 3.39481C84.0935 3.13548 84.2114 2.9233 84.3293 2.78185C84.4472 2.64039 84.6122 2.52252 84.8008 2.42821C84.9894 2.35749 85.178 2.31033 85.3666 2.28676C85.5552 2.26318 85.791 2.26318 86.0503 2.26318C86.3568 2.26318 86.7104 2.28676 87.1112 2.33391C87.5356 2.38106 87.8656 2.45179 88.1014 2.52252L87.5827 6.53037ZM86.8047 3.18263H86.1682C85.7674 3.18263 85.4845 3.25336 85.343 3.39481C85.2016 3.53627 85.0837 3.86633 85.013 4.38499C84.9422 4.92723 84.9187 5.25729 84.9658 5.39874C85.013 5.5402 85.1308 5.61092 85.3195 5.61092C85.6967 5.61092 86.0975 5.35159 86.569 4.83293L86.8047 3.18263Z" fill="white"/>
<path d="M92.1333 2.26318L91.8504 3.41839H91.5439C91.3789 3.41839 91.1903 3.46554 91.0017 3.53627C90.8131 3.60699 90.5302 3.74845 90.1529 3.93705L89.7993 6.53037H88.5498L89.1392 2.38106H90.1058V3.15906C90.7423 2.56967 91.3317 2.26318 91.874 2.26318H92.1333Z" fill="white"/>
<path d="M96.07 6.53037H95.1034V5.77595C94.679 6.31819 94.1132 6.6011 93.406 6.62468C92.8873 6.64825 92.5337 6.48322 92.3451 6.10601C92.1565 5.75238 92.1329 5.16299 92.2508 4.36142C92.2979 3.98421 92.3922 3.65415 92.4865 3.39481C92.5808 3.13548 92.6987 2.9233 92.8166 2.78185C92.9345 2.64039 93.0995 2.52252 93.2881 2.42821C93.4767 2.35749 93.6653 2.31033 93.8539 2.28676C94.0425 2.26318 94.2783 2.26318 94.5376 2.26318C94.8441 2.26318 95.1977 2.28676 95.5985 2.33391C96.0228 2.38106 96.3529 2.45179 96.5887 2.52252L96.07 6.53037ZM95.292 3.18263H94.6555C94.2547 3.18263 93.9718 3.25336 93.8303 3.39481C93.6889 3.53627 93.571 3.86633 93.5003 4.38499C93.4295 4.92723 93.406 5.25729 93.4531 5.39874C93.5003 5.5402 93.6181 5.61092 93.8067 5.61092C94.184 5.61092 94.5847 5.35159 95.0563 4.83293L95.292 3.18263Z" fill="white"/>
<path d="M25.367 11.8349H23.198C23.033 11.8349 22.9151 11.8585 22.8444 11.9292C22.7737 12 22.7265 12.1178 22.703 12.2829L22.5851 13.1552H24.8719L24.754 14.0746H22.4672L22.3257 15.2063C22.3022 15.3713 22.3257 15.4656 22.3729 15.5363C22.42 15.607 22.5379 15.6306 22.703 15.6306H24.8483L24.8248 16.5736C24.3297 16.6208 23.4809 16.6679 22.3022 16.6679C21.8307 16.6679 21.477 16.5501 21.2648 16.2907C21.0527 16.0314 20.9584 15.7013 21.0291 15.277L21.5006 11.9528C21.5477 11.5992 21.6892 11.3163 21.925 11.1041C22.1607 10.8919 22.4908 10.7976 22.8916 10.7976C24.1175 10.7976 25.0134 10.8212 25.5792 10.8919L25.367 11.8349Z" fill="white"/>
<path d="M27.1358 12.4951V13.2495C27.4423 12.943 27.7252 12.7308 27.9845 12.5894C28.2438 12.4479 28.5268 12.3772 28.8097 12.3772C29.1161 12.3772 29.3519 12.4479 29.5169 12.5894C29.682 12.7308 29.7998 12.9194 29.8234 13.1552C30.3421 12.6365 30.8607 12.3772 31.3794 12.3772C31.7566 12.3772 32.0395 12.4715 32.2281 12.6837C32.4167 12.8959 32.4639 13.1788 32.4167 13.556L31.9924 16.6444H30.7664L31.1437 13.886C31.1672 13.721 31.1436 13.6031 31.0965 13.5324C31.0493 13.4617 30.955 13.4381 30.8372 13.4381C30.6957 13.4381 30.5543 13.4853 30.3892 13.5796C30.2242 13.6739 30.012 13.8389 29.7527 14.0746L29.3991 16.668H28.1967L28.5739 13.9096C28.5975 13.7446 28.5975 13.6267 28.5503 13.556C28.5032 13.4853 28.4089 13.4617 28.291 13.4617C28.1495 13.4617 27.9845 13.5088 27.8431 13.6031C27.7016 13.6974 27.4659 13.8389 27.2065 14.0746L26.8529 16.6915H25.627L26.1692 12.4951H27.1358Z" fill="white"/>
<path d="M34.2318 16.6445H33.0059L33.5953 12.4951H34.8212L34.2318 16.6445ZM34.1846 10.6562H34.7033C34.9626 10.6562 35.0805 10.7741 35.0569 11.0335L35.0098 11.4814C34.9862 11.7172 34.8448 11.8115 34.609 11.8115H34.0903C33.831 11.8115 33.7131 11.6936 33.7603 11.4342L33.8074 10.9863C33.8074 10.7741 33.9253 10.6562 34.1846 10.6562Z" fill="white"/>
<path d="M37.3909 15.159L36.4007 14.7347C36.0707 14.5932 35.8349 14.4282 35.6935 14.216C35.552 14.0038 35.5049 13.7445 35.552 13.438C35.5992 13.0608 35.7642 12.7779 36.0471 12.6129C36.33 12.4478 36.7779 12.3535 37.4145 12.3771C38.1689 12.3771 38.829 12.4478 39.3241 12.5421L39.2062 13.3437C38.1218 13.3201 37.5795 13.3201 37.5559 13.3201C37.2259 13.3201 37.0137 13.3437 36.8958 13.3673C36.7779 13.3909 36.7308 13.4616 36.7072 13.5559C36.7072 13.6502 36.7308 13.7209 36.7779 13.7681C36.8487 13.8152 36.9666 13.886 37.1552 13.9567L38.1689 14.3575C38.5225 14.4989 38.7583 14.664 38.8998 14.8526C39.0412 15.0412 39.0884 15.3005 39.0412 15.6306C39.0176 15.8663 38.9469 16.0785 38.8526 16.2435C38.7583 16.4086 38.6168 16.5264 38.4282 16.5972C38.2396 16.6679 38.051 16.7386 37.8389 16.7622C37.6267 16.7858 37.3438 16.8093 37.0137 16.8093C36.5186 16.8093 35.9056 16.7622 35.1748 16.6679L35.2927 15.8663C35.5049 15.8663 35.9292 15.8899 36.6129 15.8899C37.0844 15.8899 37.4145 15.8663 37.5795 15.8427C37.7445 15.8192 37.8153 15.7249 37.8389 15.6306C37.8389 15.5363 37.8389 15.4891 37.7681 15.442C37.721 15.3948 37.6031 15.3477 37.4616 15.3005C37.4381 15.1826 37.4145 15.159 37.3909 15.159Z" fill="white"/>
<path d="M41.7991 15.159L40.8089 14.7347C40.4789 14.5932 40.2431 14.4282 40.1017 14.216C39.9602 14.0038 39.9131 13.7445 39.9602 13.438C40.0074 13.0608 40.1724 12.7779 40.4553 12.6129C40.7382 12.4478 41.1862 12.3535 41.8227 12.3771C42.5771 12.3771 43.2372 12.4478 43.7323 12.5421L43.6144 13.3437C42.53 13.3201 41.9877 13.3201 41.9641 13.3201C41.6341 13.3201 41.4219 13.3437 41.304 13.3673C41.1862 13.3909 41.139 13.4616 41.1154 13.5559C41.1154 13.6502 41.139 13.7209 41.1862 13.7681C41.2569 13.8152 41.3748 13.886 41.5634 13.9567L42.5771 14.3575C42.9308 14.4989 43.1665 14.664 43.308 14.8526C43.4494 15.0412 43.4966 15.3005 43.4494 15.6306C43.4258 15.8663 43.3551 16.0785 43.2608 16.2435C43.1665 16.4086 43.0251 16.5264 42.8364 16.5972C42.6478 16.6679 42.4592 16.7386 42.2471 16.7622C42.0349 16.7858 41.752 16.8093 41.4219 16.8093C40.9268 16.8093 40.3139 16.7622 39.583 16.6679L39.7009 15.8663C39.9131 15.8663 40.3374 15.8899 41.0211 15.8899C41.4926 15.8899 41.8227 15.8663 41.9877 15.8427C42.1528 15.8192 42.2235 15.7249 42.2471 15.6306C42.2471 15.5363 42.2471 15.4891 42.1763 15.442C42.1292 15.3948 42.0113 15.3477 41.8698 15.3005C41.8698 15.1826 41.8227 15.159 41.7991 15.159Z" fill="white"/>
<path d="M48.071 16.6444H47.1044V15.89C46.68 16.4322 46.1142 16.7151 45.4069 16.7387C44.8883 16.7623 44.5346 16.5972 44.346 16.22C44.1574 15.8664 44.1339 15.277 44.2517 14.4754C44.2989 14.0982 44.3932 13.7682 44.4875 13.5088C44.5818 13.2495 44.6997 13.0373 44.8176 12.8959C44.9354 12.7544 45.1005 12.6365 45.2891 12.5422C45.4777 12.4715 45.6663 12.4243 45.8549 12.4008C46.0435 12.3772 46.2792 12.3772 46.5386 12.3772C46.8451 12.3772 47.1987 12.4008 47.5995 12.4479C48.0238 12.4951 48.3539 12.5658 48.5897 12.6365L48.071 16.6444ZM47.8588 10.6326L48.3775 10.6798C48.3775 11.057 48.3067 11.3634 48.1653 11.5521C48.0238 11.7407 47.8352 11.835 47.5995 11.835C47.3873 11.835 47.1515 11.7642 46.8686 11.6228C46.5857 11.5049 46.3971 11.4342 46.3264 11.4106C46.1849 11.387 46.0671 11.4106 46.0199 11.4813C45.9492 11.5521 45.902 11.6699 45.8785 11.8114L45.3598 11.7642C45.3598 11.3634 45.4305 11.057 45.572 10.8684C45.7134 10.6798 45.902 10.5854 46.1378 10.5854C46.3264 10.5854 46.5622 10.6562 46.8451 10.7741C47.128 10.8919 47.3166 10.9627 47.4109 10.9862C47.5523 11.0098 47.6702 10.9862 47.7409 10.9391C47.7881 10.8919 47.8352 10.7741 47.8588 10.6326ZM47.3166 13.2966H46.68C46.2792 13.2966 45.9963 13.3674 45.8549 13.5088C45.7134 13.6503 45.5956 13.9803 45.5248 14.499C45.4541 15.0412 45.4305 15.3713 45.4777 15.5128C45.5248 15.6542 45.6427 15.7249 45.8313 15.7249C46.2085 15.7249 46.6093 15.4656 47.0808 14.9469L47.3166 13.2966Z" fill="white"/>
<path d="M51.5597 12.3772C52.3377 12.3772 52.8564 12.5422 53.1628 12.8959C53.4693 13.2495 53.5636 13.8153 53.4457 14.6169C53.3279 15.3949 53.1157 15.9371 52.7621 16.2672C52.4084 16.5972 51.8426 16.7387 51.0882 16.7387C50.3338 16.7387 49.7915 16.5737 49.485 16.22C49.1786 15.8664 49.0843 15.3006 49.1786 14.499C49.2964 13.721 49.5322 13.1552 49.8858 12.8251C50.2395 12.5422 50.8053 12.3772 51.5597 12.3772ZM51.5597 13.2966C51.2061 13.2966 50.9703 13.3909 50.8289 13.556C50.6874 13.721 50.5695 14.0746 50.4988 14.6169C50.4281 15.0884 50.4516 15.4185 50.5224 15.5835C50.6167 15.7485 50.8053 15.8192 51.1353 15.8192C51.4654 15.8192 51.7247 15.7249 51.8662 15.5599C52.0076 15.3949 52.1255 15.0412 52.1962 14.5226C52.267 14.0511 52.267 13.721 52.1727 13.556C52.0784 13.3909 51.8662 13.2966 51.5597 13.2966Z" fill="white"/>
<path d="M60.6359 10.7505L59.8107 16.6444H58.8441V15.89C58.2783 16.4558 57.7125 16.7387 57.1231 16.7387C56.6516 16.7387 56.3215 16.5501 56.1329 16.22C55.9443 15.8664 55.8972 15.3006 55.9915 14.499C56.0622 14.0511 56.1329 13.6974 56.2508 13.4145C56.3687 13.1316 56.5101 12.9194 56.6752 12.778C56.8402 12.6365 57.0288 12.5422 57.1938 12.4951C57.3589 12.4479 57.5946 12.4244 57.854 12.4244C58.3019 12.4244 58.7498 12.4715 59.1978 12.5422C59.1978 12.1886 59.2213 11.9293 59.2449 11.7171L59.3864 10.7976H60.6359V10.7505ZM59.0327 13.2495H58.3726C57.9718 13.2495 57.6889 13.3202 57.5475 13.4617C57.406 13.6031 57.3117 13.9568 57.241 14.499C57.1703 14.9705 57.1703 15.277 57.1938 15.442C57.241 15.6071 57.3589 15.6778 57.5475 15.6778C57.7597 15.6778 57.9483 15.6306 58.1133 15.5128C58.3019 15.4185 58.5141 15.2534 58.7498 15.0413L59.0327 13.2495Z" fill="white"/>
<path d="M64.6435 15.6541L64.7378 16.4557C64.2663 16.6443 63.6533 16.7386 62.8989 16.7386C62.0973 16.7386 61.5551 16.55 61.2721 16.1728C60.9657 15.7956 60.8714 15.2297 60.9657 14.4517C61.06 13.6502 61.2957 13.0844 61.6494 12.8015C62.003 12.5185 62.5924 12.3535 63.3704 12.3535C64.1012 12.3535 64.5963 12.4714 64.8556 12.7071C65.115 12.9429 65.2093 13.2965 65.1386 13.7681C65.0914 14.1688 64.9264 14.4517 64.667 14.6168C64.4077 14.7818 64.0069 14.8997 63.4411 14.9233L62.2152 15.0176C62.2152 15.3005 62.2859 15.4891 62.4274 15.5834C62.5688 15.6777 62.7574 15.7248 63.0639 15.7248C63.5826 15.7484 64.1248 15.7248 64.6435 15.6541ZM62.2859 14.3103L63.2525 14.216C63.4883 14.1924 63.6297 14.1453 63.7476 14.0745C63.8419 14.0038 63.9126 13.8624 63.9362 13.6737C63.9598 13.4851 63.9126 13.3673 63.8419 13.3201C63.7476 13.273 63.5826 13.2494 63.2997 13.273C62.9696 13.273 62.7338 13.3437 62.616 13.4851C62.4509 13.6266 62.3566 13.9095 62.2859 14.3103Z" fill="white"/>
<path d="M73.1321 10.8212L72.3776 16.1964C72.3305 16.4793 72.189 16.6444 71.9061 16.6444H71.1989C71.081 16.6444 70.9631 16.6208 70.9159 16.5501C70.8452 16.4793 70.7981 16.385 70.7273 16.2436L69.5486 13.1316C69.4307 12.8487 69.36 12.5658 69.2892 12.2593H69.1949C69.1949 12.6129 69.1714 12.8958 69.1242 13.1787L68.6527 16.6444H67.4268L68.1812 11.2691C68.2283 10.9862 68.3934 10.8212 68.6763 10.8212H69.3835C69.5014 10.8212 69.5957 10.8448 69.6664 10.9155C69.7372 10.9862 69.7843 11.0805 69.855 11.222L70.9631 14.2161C71.081 14.5697 71.1989 14.8762 71.2696 15.1591H71.3639C71.3639 14.829 71.3875 14.5226 71.411 14.2161L71.8825 10.7976H73.1321V10.8212Z" fill="white"/>
<path d="M75.8898 12.3772C76.6678 12.3772 77.1864 12.5422 77.4929 12.8959C77.7994 13.2495 77.8937 13.8153 77.7758 14.6169C77.658 15.3949 77.4458 15.9371 77.0921 16.2672C76.7385 16.5972 76.1727 16.7387 75.4183 16.7387C74.6638 16.7387 74.1216 16.5737 73.8151 16.22C73.5086 15.8664 73.4143 15.3006 73.5086 14.499C73.6265 13.721 73.8623 13.1552 74.2159 12.8251C74.5695 12.5422 75.1354 12.3772 75.8898 12.3772ZM75.8898 13.2966C75.5361 13.2966 75.3004 13.3909 75.1589 13.556C75.0175 13.721 74.8996 14.0746 74.8289 14.6169C74.7581 15.0884 74.7817 15.4185 74.8525 15.5835C74.9468 15.7485 75.1354 15.8192 75.4654 15.8192C75.7955 15.8192 76.0548 15.7249 76.1963 15.5599C76.3377 15.3949 76.4556 15.0412 76.5263 14.5226C76.5971 14.0511 76.5971 13.721 76.5027 13.556C76.4084 13.3909 76.1963 13.2966 75.8898 13.2966Z" fill="white"/>
<path d="M80.3689 13.3202L80.086 15.3006C80.0624 15.4656 80.086 15.5599 80.1331 15.6071C80.1803 15.6542 80.2982 15.6778 80.4632 15.6778H81.029L81.0762 16.5501C80.7697 16.668 80.3925 16.7151 79.9209 16.7151C79.5202 16.7151 79.2373 16.5972 79.0486 16.3851C78.86 16.1729 78.7893 15.8664 78.8365 15.4892L79.1665 13.2967H78.4121L78.5064 12.4951L79.2608 12.4479L79.4259 11.2927H80.6518L80.4868 12.4479H81.642L81.5241 13.2731H80.3689V13.3202Z" fill="white"/>
<path d="M85.697 16.6444H84.7304V15.89C84.306 16.4322 83.7402 16.7151 83.0329 16.7387C82.5143 16.7623 82.1606 16.5972 81.972 16.22C81.7834 15.8664 81.7598 15.277 81.8777 14.4754C81.9249 14.0982 82.0192 13.7682 82.1135 13.5088C82.2078 13.2495 82.3257 13.0373 82.4435 12.8959C82.5614 12.7544 82.7264 12.6365 82.915 12.5422C83.1037 12.4715 83.2923 12.4243 83.4809 12.4008C83.6695 12.3772 83.9052 12.3772 84.1646 12.3772C84.471 12.3772 84.8247 12.4008 85.2255 12.4479C85.6498 12.4951 85.9799 12.5658 86.2156 12.6365L85.697 16.6444ZM84.9426 13.2966H84.306C83.9052 13.2966 83.6223 13.3674 83.4809 13.5088C83.3394 13.6503 83.2215 13.9803 83.1508 14.499C83.0801 15.0412 83.0565 15.3713 83.1037 15.5128C83.1508 15.6542 83.2687 15.7249 83.4573 15.7249C83.8345 15.7249 84.2353 15.4656 84.7068 14.9469L84.9426 13.2966Z" fill="white"/>
<path d="M93.1238 11.8349H90.9549C90.7898 11.8349 90.672 11.8585 90.6012 11.9292C90.5305 12 90.4834 12.1178 90.4598 12.2829L90.3419 13.1552H92.6288L92.5109 14.0746H90.224L90.0826 15.2063C90.059 15.3713 90.0826 15.4656 90.1297 15.5363C90.1769 15.607 90.2948 15.6306 90.4598 15.6306H92.6052L92.5816 16.5736C92.0865 16.6208 91.2378 16.6679 90.059 16.6679C89.5875 16.6679 89.2339 16.5501 89.0217 16.2907C88.8095 16.0314 88.7152 15.7013 88.7859 15.277L89.2574 11.9528C89.3046 11.5992 89.446 11.3163 89.6818 11.1041C89.9175 10.8919 90.2476 10.7976 90.6484 10.7976C91.8743 10.7976 92.7702 10.8212 93.336 10.8919L93.1238 11.8349Z" fill="white"/>
<path d="M95.4101 10.7505L94.7735 15.3006C94.7499 15.442 94.7735 15.5599 94.8207 15.6071C94.8678 15.6542 94.9857 15.7014 95.1507 15.7014H95.5044L95.5515 16.5972C95.3629 16.6915 95.0328 16.7387 94.5849 16.7387C94.2077 16.7387 93.9012 16.6444 93.7126 16.4322C93.524 16.22 93.4297 15.9371 93.4769 15.5835L94.1605 10.7505H95.4101Z" fill="white"/>
<path d="M99.8896 15.6541L99.9839 16.4557C99.5124 16.6443 98.8994 16.7386 98.145 16.7386C97.3434 16.7386 96.8012 16.55 96.5182 16.1728C96.2118 15.7956 96.1175 15.2297 96.2118 14.4517C96.3061 13.6502 96.5418 13.0844 96.8955 12.8015C97.2491 12.5185 97.8385 12.3535 98.6165 12.3535C99.3473 12.3535 99.8424 12.4714 100.102 12.7071C100.361 12.9429 100.455 13.2965 100.385 13.7681C100.338 14.1688 100.172 14.4517 99.9131 14.6168C99.6538 14.7818 99.253 14.8997 98.6872 14.9233L97.4613 15.0176C97.4613 15.3005 97.532 15.4891 97.6734 15.5834C97.8149 15.6777 98.0035 15.7248 98.31 15.7248C98.8287 15.7484 99.3709 15.7248 99.8896 15.6541ZM97.532 14.3103L98.4986 14.216C98.7344 14.1924 98.8758 14.1453 98.9937 14.0745C99.088 14.0038 99.1587 13.8624 99.1823 13.6737C99.2059 13.4851 99.1587 13.3673 99.088 13.3201C98.9937 13.273 98.8287 13.2494 98.5458 13.273C98.2157 13.273 97.9799 13.3437 97.8621 13.4851C97.697 13.6266 97.6027 13.9095 97.532 14.3103Z" fill="white"/>
<path d="M102.86 13.3202L102.577 15.3006C102.554 15.4656 102.577 15.5599 102.624 15.6071C102.671 15.6542 102.789 15.6778 102.954 15.6778H103.52L103.567 16.5501C103.261 16.668 102.884 16.7151 102.412 16.7151C102.011 16.7151 101.728 16.5972 101.54 16.3851C101.351 16.1729 101.281 15.8664 101.328 15.4892L101.658 13.2967H100.903L100.998 12.4951L101.752 12.4479L101.917 11.2927H103.143L102.978 12.4479H104.133L104.015 13.2731H102.86V13.3202Z" fill="white"/>
<path d="M107.811 12.3772L107.528 13.5324H107.222C107.057 13.5324 106.868 13.5796 106.679 13.6503C106.491 13.721 106.208 13.8625 105.831 14.0511L105.477 16.6444H104.228L104.817 12.4951H105.784V13.2731C106.42 12.6837 107.009 12.3772 107.552 12.3772H107.811Z" fill="white"/>
<path d="M110.263 12.3771C111.041 12.3771 111.559 12.5422 111.866 12.8958C112.172 13.2494 112.267 13.8152 112.149 14.6168C112.031 15.3948 111.819 15.937 111.465 16.2671C111.112 16.5972 110.546 16.7386 109.791 16.7386C109.037 16.7386 108.495 16.5736 108.188 16.22C107.882 15.8663 107.787 15.3005 107.882 14.4989C108 13.7209 108.235 13.1551 108.589 12.8251C108.943 12.5422 109.508 12.3771 110.263 12.3771ZM112.031 11.6699L111.654 12.1178L110.546 11.2926H110.475L109.178 12.1178L108.872 11.6463L110.121 10.5146H110.97L112.031 11.6699ZM110.263 13.2966C109.909 13.2966 109.673 13.3909 109.532 13.5559C109.391 13.7209 109.273 14.0746 109.202 14.6168C109.131 15.0883 109.155 15.4184 109.225 15.5834C109.32 15.7484 109.508 15.8192 109.838 15.8192C110.169 15.8192 110.428 15.7249 110.569 15.5598C110.711 15.3948 110.829 15.0412 110.899 14.5225C110.97 14.051 110.97 13.7209 110.876 13.5559C110.758 13.3909 110.569 13.2966 110.263 13.2966Z" fill="white"/>
<path d="M114.271 12.4951V13.3202C114.907 12.6837 115.544 12.3772 116.157 12.3772C116.511 12.3772 116.793 12.4715 116.982 12.6837C117.171 12.8959 117.241 13.1788 117.194 13.556L116.746 16.6444H115.52L115.898 13.9332C115.921 13.7446 115.921 13.6031 115.874 13.5324C115.827 13.4617 115.756 13.4381 115.615 13.4381C115.308 13.4381 114.86 13.6739 114.318 14.0982L113.964 16.668H112.715L113.304 12.5187H114.271V12.4951Z" fill="white"/>
<path d="M118.987 16.6445H117.761L118.35 12.4951H119.576L118.987 16.6445ZM118.94 10.6562H119.458C119.718 10.6562 119.835 10.7741 119.812 11.0335L119.765 11.4814C119.741 11.7172 119.6 11.8115 119.364 11.8115H118.822C118.562 11.8115 118.444 11.6936 118.492 11.4342L118.539 10.9863C118.562 10.7741 118.68 10.6562 118.94 10.6562Z" fill="white"/>
<path d="M123.537 15.6541L123.631 16.4792C123.207 16.6679 122.664 16.7386 122.004 16.7386C121.25 16.7386 120.731 16.5736 120.425 16.2199C120.118 15.8663 120.024 15.3005 120.142 14.4989C120.26 13.7209 120.472 13.1787 120.826 12.8486C121.156 12.5185 121.698 12.3535 122.452 12.3535C123.112 12.3535 123.631 12.4478 124.055 12.6128L123.89 13.3673C123.23 13.3673 122.83 13.3437 122.641 13.3437C122.264 13.3437 121.981 13.4144 121.816 13.5794C121.651 13.7445 121.533 14.051 121.486 14.5225C121.415 15.0176 121.439 15.324 121.556 15.4655C121.651 15.6069 121.886 15.6777 122.264 15.6777C122.759 15.7248 123.183 15.7013 123.537 15.6541Z" fill="white"/>
<path d="M128.228 16.6444H127.262V15.89C126.837 16.4322 126.271 16.7151 125.564 16.7387C125.046 16.7623 124.692 16.5972 124.503 16.22C124.315 15.8664 124.291 15.277 124.409 14.4754C124.456 14.0982 124.55 13.7682 124.645 13.5088C124.739 13.2495 124.857 13.0373 124.975 12.8959C125.093 12.7544 125.258 12.6365 125.446 12.5422C125.635 12.4715 125.824 12.4243 126.012 12.4008C126.201 12.3772 126.436 12.3772 126.696 12.3772C127.002 12.3772 127.356 12.4008 127.757 12.4479C128.181 12.4951 128.511 12.5658 128.747 12.6365L128.228 16.6444ZM127.45 13.2966H126.814C126.413 13.2966 126.13 13.3674 125.989 13.5088C125.847 13.6503 125.729 13.9803 125.658 14.499C125.588 15.0412 125.564 15.3713 125.611 15.5128C125.658 15.6542 125.776 15.7249 125.965 15.7249C126.342 15.7249 126.743 15.4656 127.214 14.9469L127.45 13.2966Z" fill="white"/>
<path d="M24.7069 19.7329L24.1411 23.7172C24.1176 23.8586 24.0468 23.9294 23.929 23.9294H23.4339C23.3396 23.9294 23.2688 23.8586 23.2217 23.7408L22.1608 20.7702C22.0901 20.5581 22.0193 20.3695 21.9958 20.228H21.9014C21.9014 20.393 21.8779 20.5816 21.8543 20.7702L21.4299 23.9058H20.8877L21.4535 19.9451C21.4771 19.8036 21.5478 19.7329 21.6893 19.7329H22.1608C22.2551 19.7329 22.3258 19.8036 22.373 19.9215L23.3867 22.8213C23.481 23.0807 23.5517 23.2928 23.5753 23.4343H23.6932C23.7168 23.2221 23.7168 23.0099 23.7639 22.8213L24.1883 19.7565H24.7069V19.7329Z" fill="white"/>
<path d="M28.1957 20.1807H26.6397C26.4747 20.1807 26.3568 20.2043 26.2861 20.275C26.2153 20.3457 26.1682 20.44 26.1446 20.6051L26.0032 21.5952H27.7713L27.7006 22.0196H25.956L25.6731 23.9528H25.1309L25.6024 20.4872C25.6495 20.2514 25.7438 20.0628 25.8853 19.945C26.0267 19.8271 26.2389 19.7563 26.4982 19.7563C27.2998 19.7563 27.8892 19.7799 28.2428 19.8035L28.1957 20.1807Z" fill="white"/>
<path d="M30.341 22.609H28.4785L28.5257 22.2083H30.3646L30.341 22.609Z" fill="white"/>
<path d="M33.5011 23.5049L33.5482 23.8586C33.2653 23.9765 32.8645 24.0236 32.3459 24.0236C31.8508 24.0236 31.4972 23.9057 31.3086 23.6228C31.1199 23.3399 31.0728 22.9627 31.1435 22.3969C31.2142 21.8311 31.3793 21.4303 31.615 21.2181C31.8508 21.0059 32.228 20.9116 32.7702 20.9116C33.2182 20.9116 33.5247 20.9823 33.6897 21.1474C33.8547 21.3124 33.9255 21.5482 33.8547 21.8546C33.8076 22.1376 33.6897 22.3262 33.5247 22.4676C33.3596 22.5855 33.0767 22.6562 32.7231 22.7034L31.6386 22.7977C31.6386 23.1042 31.6858 23.3163 31.8036 23.4342C31.9215 23.5521 32.1337 23.5992 32.4166 23.5992C32.7467 23.5757 33.1239 23.5521 33.5011 23.5049ZM31.6622 22.3969L32.7231 22.3026C32.9353 22.279 33.0767 22.2554 33.171 22.1847C33.2653 22.114 33.3125 21.9961 33.3596 21.8311C33.3832 21.6189 33.3596 21.501 33.2653 21.4303C33.171 21.3596 32.9824 21.3596 32.6995 21.3596C32.3695 21.3596 32.1337 21.4303 31.9922 21.5717C31.8508 21.7132 31.7329 21.949 31.6622 22.3969Z" fill="white"/>
<path d="M39.5359 19.7328L38.9701 23.7171C38.9465 23.8585 38.8758 23.9293 38.7579 23.9293H38.2628C38.1685 23.9293 38.0978 23.8585 38.0506 23.7407L37.0133 20.7701C36.9426 20.558 36.8719 20.3693 36.8483 20.2279H36.754C36.754 20.3929 36.7304 20.5815 36.7068 20.7701L36.2825 23.9057H35.7402L36.306 19.9214C36.3296 19.78 36.4003 19.7092 36.5418 19.7092H37.0133C37.1076 19.7092 37.1783 19.78 37.2255 19.8978L38.2392 22.7976C38.3335 23.057 38.4043 23.2691 38.4279 23.4106H38.5457C38.5693 23.1984 38.5693 22.9862 38.6165 22.7976L39.0408 19.7328H39.5359Z" fill="white"/>
<path d="M43.0258 20.1807H41.4698C41.3048 20.1807 41.1869 20.2043 41.1161 20.275C41.0454 20.3457 40.9983 20.44 40.9747 20.6051L40.8332 21.5952H42.6014L42.5307 22.0196H40.7861L40.5032 23.9528H39.9609L40.4325 20.4872C40.4796 20.2514 40.5739 20.0628 40.7154 19.945C40.8568 19.8271 41.069 19.7563 41.3283 19.7563C42.1299 19.7563 42.7193 19.7799 43.0729 19.8035L43.0258 20.1807Z" fill="white"/>
<path d="M45.0293 22.2082L44.2042 21.9018C43.9213 21.8075 43.7091 21.6424 43.6148 21.4774C43.5205 21.2888 43.4733 21.053 43.5205 20.7466C43.5441 20.558 43.5912 20.3929 43.6384 20.275C43.6855 20.1572 43.7562 20.0393 43.8505 19.9686C43.9213 19.8978 44.0392 19.8271 44.157 19.8035C44.2749 19.78 44.4164 19.7328 44.5342 19.7328C44.6521 19.7092 44.8171 19.7092 45.0058 19.7092C45.5008 19.7092 45.9252 19.7564 46.2553 19.8271L46.2081 20.2279C45.7602 20.2043 45.3594 20.2043 45.0058 20.2043C44.8643 20.2043 44.77 20.2043 44.6993 20.2043C44.6285 20.2043 44.5578 20.2279 44.4635 20.2279C44.3692 20.2515 44.2985 20.275 44.2749 20.3222C44.2513 20.3693 44.2042 20.4165 44.157 20.5108C44.1099 20.5815 44.0863 20.6994 44.0863 20.8173C44.0627 21.0295 44.0627 21.1709 44.1335 21.2416C44.1806 21.3359 44.3221 21.4067 44.5107 21.4774L45.3358 21.7839C45.6423 21.9018 45.8545 22.0432 45.9488 22.2082C46.0431 22.3733 46.0667 22.6326 46.0195 22.9627C45.9488 23.4106 45.8073 23.6935 45.5951 23.835C45.383 23.9764 44.9822 24.0472 44.4635 24.0472C44.0392 24.0472 43.6148 24 43.1904 23.9293L43.2612 23.5285C43.9449 23.5521 44.3456 23.5521 44.4871 23.5521C44.8407 23.5521 45.1001 23.5049 45.2415 23.4342C45.383 23.3635 45.4773 23.1749 45.5008 22.8919C45.5244 22.6798 45.5244 22.5383 45.4537 22.444C45.383 22.3497 45.2179 22.279 45.0293 22.2082Z" fill="white"/>
<path d="M48.6125 22.609H46.75L46.7972 22.2083H48.6361L48.6125 22.609Z" fill="white"/>
<path d="M51.7716 23.5049L51.8187 23.8586C51.5358 23.9765 51.1351 24.0236 50.6164 24.0236C50.1213 24.0236 49.7677 23.9057 49.5791 23.6228C49.3905 23.3399 49.3433 22.9627 49.414 22.3969C49.4848 21.8311 49.6498 21.4303 49.8855 21.2181C50.1213 21.0059 50.4985 20.9116 51.0408 20.9116C51.4887 20.9116 51.7952 20.9823 51.9602 21.1474C52.1252 21.3124 52.196 21.5482 52.1252 21.8546C52.0781 22.1376 51.9602 22.3262 51.7952 22.4676C51.6301 22.5855 51.3472 22.6562 50.9936 22.7034L49.9091 22.7977C49.9091 23.1042 49.9563 23.3163 50.0741 23.4342C50.192 23.5521 50.4042 23.5992 50.6871 23.5992C51.0408 23.5757 51.3944 23.5521 51.7716 23.5049ZM49.9327 22.3969L50.9936 22.3026C51.2058 22.279 51.3472 22.2554 51.4415 22.1847C51.5358 22.114 51.583 21.9961 51.6301 21.8311C51.6537 21.6189 51.6301 21.501 51.5358 21.4303C51.4415 21.3596 51.2529 21.3596 50.97 21.3596C50.64 21.3596 50.4042 21.4303 50.2628 21.5717C50.1213 21.7132 50.0034 21.949 49.9327 22.3969Z" fill="white"/>
<path d="M56.7227 23.4578L56.7463 23.8586C56.4162 23.9529 55.9919 24 55.5204 24C54.931 24 54.5066 23.835 54.2944 23.4814C54.0823 23.1277 54.0351 22.5855 54.153 21.8075C54.2709 21.0059 54.4595 20.4401 54.7424 20.1336C55.0253 19.8271 55.4732 19.6621 56.0626 19.6621C56.5105 19.6621 56.8878 19.7093 57.1942 19.78L57.0999 20.1808C56.7463 20.1336 56.3927 20.1336 56.039 20.1336C55.6147 20.1336 55.3082 20.2515 55.1196 20.4873C54.931 20.723 54.7895 21.1709 54.6952 21.8546C54.6009 22.4912 54.6245 22.9155 54.7424 23.1749C54.8603 23.4106 55.1196 23.5285 55.5204 23.5521C55.9447 23.5285 56.3455 23.5049 56.7227 23.4578Z" fill="white"/>
<path d="M60.8013 20.2044H59.4339L58.9152 23.9294H58.373L58.8917 20.2044H57.5479L57.6186 19.7329H60.8484L60.8013 20.2044Z" fill="white"/>
<path d="M62.5461 22.609H60.6836L60.7307 22.2083H62.5696L62.5461 22.609Z" fill="white"/>
<path d="M65.7052 23.5049L65.7524 23.8586C65.4694 23.9765 65.0687 24.0236 64.55 24.0236C64.0549 24.0236 63.7013 23.9057 63.5127 23.6228C63.324 23.3399 63.2769 22.9627 63.3476 22.3969C63.4184 21.8311 63.5834 21.4303 63.8191 21.2181C64.0549 21.0059 64.4321 20.9116 64.9744 20.9116C65.4223 20.9116 65.7288 20.9823 65.8938 21.1474C66.0588 21.3124 66.1296 21.5482 66.0588 21.8546C66.0117 22.1376 65.8938 22.3262 65.7288 22.4676C65.5637 22.5855 65.2808 22.6562 64.9272 22.7034L63.8427 22.7977C63.8427 23.1042 63.8899 23.3163 64.0077 23.4342C64.1256 23.5521 64.3378 23.5992 64.6207 23.5992C64.9744 23.5757 65.328 23.5521 65.7052 23.5049ZM63.8663 22.3969L64.9272 22.3026C65.1394 22.279 65.2808 22.2554 65.3751 22.1847C65.4694 22.114 65.5166 21.9961 65.5638 21.8311C65.5873 21.6189 65.5638 21.501 65.4694 21.4303C65.3751 21.3596 65.1865 21.3596 64.9036 21.3596C64.5736 21.3596 64.3378 21.4303 64.1963 21.5717C64.0549 21.7132 63.937 21.949 63.8663 22.3969Z" fill="white"/>
<path d="M71.7646 19.7328L71.1988 23.7171C71.1752 23.8585 71.1044 23.9293 70.9866 23.9293H70.4915C70.3972 23.9293 70.3265 23.8585 70.2793 23.7407L69.2184 20.7701C69.1477 20.558 69.0769 20.3693 69.0534 20.2279H68.9591C68.9591 20.3929 68.9355 20.5815 68.9119 20.7701L68.4875 23.9057H67.9453L68.5111 19.9214C68.5347 19.78 68.6054 19.7092 68.7469 19.7092H69.2184C69.3127 19.7092 69.3834 19.78 69.4306 19.8978L70.4443 22.7976C70.5386 23.057 70.6094 23.2691 70.6329 23.4106H70.7508C70.7744 23.1984 70.7744 22.9862 70.8215 22.7976L71.2459 19.7328H71.7646Z" fill="white"/>
<path d="M75.2533 20.1807H73.6973C73.5323 20.1807 73.4144 20.2043 73.3437 20.275C73.273 20.3457 73.2258 20.44 73.2022 20.6051L73.0608 21.5952H74.8289L74.7582 22.0196H73.0136L72.7307 23.9528H72.1885L72.66 20.4872C72.7071 20.2514 72.8014 20.0628 72.9429 19.945C73.0843 19.8271 73.2965 19.7563 73.5559 19.7563C74.3574 19.7563 74.9468 19.7799 75.3005 19.8035L75.2533 20.1807Z" fill="white"/>
<path d="M78.1524 23.4578L78.176 23.8586C77.8459 23.9529 77.4216 24 76.9501 24C76.3607 24 75.9363 23.835 75.7241 23.4814C75.512 23.1277 75.4648 22.5855 75.5827 21.8075C75.7006 21.0059 75.8892 20.4401 76.1721 20.1336C76.455 19.8271 76.9029 19.6621 77.4923 19.6621C77.9402 19.6621 78.3175 19.7093 78.6239 19.78L78.5296 20.1808C78.176 20.1336 77.8224 20.1336 77.4687 20.1336C77.0444 20.1336 76.7379 20.2515 76.5493 20.4873C76.3607 20.723 76.2192 21.1709 76.1249 21.8546C76.0306 22.4912 76.0542 22.9155 76.1721 23.1749C76.2899 23.4106 76.5493 23.5285 76.9501 23.5521C77.398 23.5285 77.7988 23.5049 78.1524 23.4578Z" fill="white"/>
<path d="M80.7463 22.609H78.8838L78.9309 22.2083H80.7698L80.7463 22.609Z" fill="white"/>
<path d="M83.9054 23.5049L83.9525 23.8586C83.6696 23.9765 83.2688 24.0236 82.7502 24.0236C82.2551 24.0236 81.9015 23.9057 81.7129 23.6228C81.5242 23.3399 81.4771 22.9627 81.5478 22.3969C81.6185 21.8311 81.7836 21.4303 82.0193 21.2181C82.2551 21.0059 82.6323 20.9116 83.1745 20.9116C83.6225 20.9116 83.929 20.9823 84.094 21.1474C84.259 21.3124 84.3297 21.5482 84.259 21.8546C84.2119 22.1376 84.094 22.3262 83.9289 22.4676C83.7639 22.5855 83.481 22.6562 83.1274 22.7034L82.0429 22.7977C82.0429 23.1042 82.0901 23.3163 82.2079 23.4342C82.3258 23.5521 82.538 23.5992 82.8209 23.5992C83.1745 23.5757 83.5282 23.5521 83.9054 23.5049ZM82.0665 22.3969L83.1274 22.3026C83.3396 22.279 83.481 22.2554 83.5753 22.1847C83.6696 22.114 83.7168 21.9961 83.7639 21.8311C83.7875 21.6189 83.7639 21.501 83.6696 21.4303C83.5753 21.3596 83.3867 21.3596 83.1038 21.3596C82.7737 21.3596 82.538 21.4303 82.3965 21.5717C82.2551 21.7132 82.1372 21.949 82.0665 22.3969Z" fill="white"/>
<path d="M11.3399 0H1.17878C0.518664 0 0 0.518664 0 1.17878V14.499C0 15.1356 0.518664 15.6778 1.17878 15.6778H11.3635C12 15.6778 12.5422 15.1591 12.5422 14.499V1.17878C12.5187 0.518664 12 0 11.3399 0ZM9.12377 10.0432L5.49312 13.6739L3.41847 11.5992C3.13556 11.3163 3.13556 10.8448 3.41847 10.5619C3.70138 10.279 4.17289 10.279 4.47937 10.5619L5.5167 11.5992L8.08644 9.02947C8.36935 8.74656 8.84086 8.74656 9.12377 9.02947C9.40668 9.26523 9.40668 9.73674 9.12377 10.0432ZM9.85462 6.88409H2.66405C2.28684 6.88409 1.95678 6.5776 1.95678 6.17682C1.95678 5.77603 2.26326 5.46955 2.66405 5.46955H9.85462C10.2318 5.46955 10.5619 5.77603 10.5619 6.17682C10.5619 6.5776 10.2554 6.88409 9.85462 6.88409ZM9.85462 3.53635H2.66405C2.28684 3.53635 1.95678 3.22986 1.95678 2.82908C1.95678 2.42829 2.26326 2.12181 2.66405 2.12181H9.85462C10.2318 2.12181 10.5619 2.42829 10.5619 2.82908C10.5619 3.22986 10.2554 3.53635 9.85462 3.53635Z" fill="white"/>
</svg>
