<svg width="25" height="26" viewBox="0 0 25 26" fill="none" xmlns="http://www.w3.org/2000/svg">
<g id="Group 9">
<g id="Shape">
<path fill-rule="evenodd" clip-rule="evenodd" d="M0.5 13C0.5 19.6276 5.87234 25 12.5 25C19.1277 25 24.5 19.6277 24.5 13C24.5 6.37236 19.1277 1 12.5 1C5.87234 1 0.5 6.3723 0.5 13ZM2.58691 13C2.58691 7.5254 7.02533 3.08698 12.4999 3.08698C17.9746 3.08698 22.413 7.52535 22.413 13C22.413 18.4746 17.9746 22.913 12.4999 22.913C7.02533 22.913 2.58691 18.4747 2.58691 13Z" fill="#DC272B"/>
<path d="M12.5 24.75C6.01042 24.75 0.75 19.4896 0.75 13H0.25C0.25 19.7657 5.73427 25.25 12.5 25.25V24.75ZM24.25 13C24.25 19.4896 18.9896 24.75 12.5 24.75V25.25C19.2657 25.25 24.75 19.7658 24.75 13H24.25ZM12.5 1.25C18.9896 1.25 24.25 6.51043 24.25 13H24.75C24.75 6.23429 19.2657 0.75 12.5 0.75V1.25ZM0.75 13C0.75 6.51038 6.01042 1.25 12.5 1.25V0.75C5.73427 0.75 0.25 6.23423 0.25 13H0.75ZM12.4999 2.83698C6.88726 2.83698 2.33691 7.38733 2.33691 13H2.83691C2.83691 7.66347 7.1634 3.33698 12.4999 3.33698V2.83698ZM22.663 13C22.663 7.38728 18.1126 2.83698 12.4999 2.83698V3.33698C17.8365 3.33698 22.163 7.66342 22.163 13H22.663ZM12.4999 23.163C18.1126 23.163 22.663 18.6127 22.663 13H22.163C22.163 18.3365 17.8365 22.663 12.4999 22.663V23.163ZM2.33691 13C2.33691 18.6127 6.88726 23.163 12.4999 23.163V22.663C7.1634 22.663 2.83691 18.3366 2.83691 13H2.33691Z" fill="#DC272B"/>
</g>
<g id="Combined Shape">
<path fill-rule="evenodd" clip-rule="evenodd" d="M13.0313 11.0402V6.39551H10.9414V10.3257H10.9413V14.9704H13.0312V14.9083H15.1675H15.8745H19.7622V12.7956H15.8745H15.1675H13.0312V11.0402H13.0313Z" fill="#DC272B"/>
<path d="M13.0313 6.39551H13.2813V6.14551H13.0313V6.39551ZM13.0313 11.0402V11.2902H13.2813V11.0402H13.0313ZM10.9414 6.39551V6.14551H10.6914V6.39551H10.9414ZM10.9414 10.3257V10.5757H11.1914V10.3257H10.9414ZM10.9413 10.3257V10.0757H10.6913V10.3257H10.9413ZM10.9413 14.9704H10.6913V15.2204H10.9413V14.9704ZM13.0312 14.9704V15.2204H13.2812V14.9704H13.0312ZM13.0312 14.9083V14.6583H12.7812V14.9083H13.0312ZM19.7622 14.9083V15.1583H20.0122V14.9083H19.7622ZM19.7622 12.7956H20.0122V12.5456H19.7622V12.7956ZM13.0312 12.7956H12.7812V13.0456H13.0312V12.7956ZM13.0312 11.0402V10.7902H12.7812V11.0402H13.0312ZM12.7813 6.39551V11.0402H13.2813V6.39551H12.7813ZM10.9414 6.64551H13.0313V6.14551H10.9414V6.64551ZM11.1914 10.3257V6.39551H10.6914V10.3257H11.1914ZM10.9413 10.5757H10.9414V10.0757H10.9413V10.5757ZM11.1913 14.9704V10.3257H10.6913V14.9704H11.1913ZM13.0312 14.7204H10.9413V15.2204H13.0312V14.7204ZM12.7812 14.9083V14.9704H13.2812V14.9083H12.7812ZM15.1675 14.6583H13.0312V15.1583H15.1675V14.6583ZM15.8745 14.6583H15.1675V15.1583H15.8745V14.6583ZM15.8745 15.1583H19.7622V14.6583H15.8745V15.1583ZM20.0122 14.9083V12.7956H19.5122V14.9083H20.0122ZM19.7622 12.5456H15.8745V13.0456H19.7622V12.5456ZM15.1675 13.0456H15.8745V12.5456H15.1675V13.0456ZM13.0312 13.0456H15.1675V12.5456H13.0312V13.0456ZM12.7812 11.0402V12.7956H13.2812V11.0402H12.7812ZM13.0313 10.7902H13.0312V11.2902H13.0313V10.7902Z" fill="#DC272B"/>
</g>
</g>
</svg>
