<svg width="236" height="240" viewBox="0 0 236 240" fill="none" xmlns="http://www.w3.org/2000/svg">
<path opacity="0.5" fill-rule="evenodd" clip-rule="evenodd" d="M128.033 104.012C122.258 100.646 112.937 100.646 107.209 104.006L4.2858 164.381C-1.45565 167.747 -1.42381 173.198 4.35323 176.564L107.95 236.94C113.714 240.298 123.035 240.298 128.775 236.933L231.7 176.556C237.426 173.198 237.396 167.747 231.632 164.387L128.033 104.012Z" fill="url(#paint0_linear)"/>
<path opacity="0.5" fill-rule="evenodd" clip-rule="evenodd" d="M128.033 88.6785C122.258 85.3128 112.937 85.3128 107.209 88.6729L4.2858 149.048C-1.45565 152.413 -1.42381 157.865 4.35323 161.23L107.95 221.607C113.714 224.965 123.035 224.965 128.775 221.599L231.7 161.223C237.426 157.865 237.396 152.413 231.632 149.053L128.033 88.6785Z" fill="url(#paint1_linear)"/>
<path fill-rule="evenodd" clip-rule="evenodd" d="M175.793 149.811L154.616 162.194C154.487 162.266 154.353 162.338 154.222 162.4C152.109 163.441 149.096 163.538 146.815 162.687C146.435 162.551 146.078 162.382 145.751 162.194L109.347 141.046C108.112 140.328 107.495 139.385 107.495 138.448C107.495 138.404 107.502 138.37 107.502 138.326V131.296L112.937 133.767L130.49 123.503C132.93 122.08 136.897 122.08 139.355 123.503L155.959 133.148L175.756 144.65C178.219 146.082 178.233 148.388 175.793 149.811" fill="#D1D9E2"/>
<path fill-rule="evenodd" clip-rule="evenodd" d="M154.615 153.304V162.194C154.486 162.265 154.355 162.337 154.221 162.4C152.109 163.44 149.095 163.538 146.814 162.687V153.79L152.044 151.79L154.615 153.304Z" fill="#D1D9E2"/>
<path fill-rule="evenodd" clip-rule="evenodd" d="M175.793 149.814L154.616 162.194C154.489 162.268 154.355 162.34 154.222 162.402V153.505L148.153 133.762L155.959 133.148L175.756 144.65C178.221 146.082 178.233 148.391 175.793 149.814" fill="#D1D9E2"/>
<path fill-rule="evenodd" clip-rule="evenodd" d="M175.762 138.074L139.351 116.929C136.9 115.504 132.928 115.501 130.493 116.927L109.311 129.309C106.876 130.732 106.892 133.045 109.346 134.471L145.754 155.616C148.21 157.043 152.177 157.043 154.614 155.618L175.794 143.238C178.229 141.81 178.218 139.5 175.762 138.074" fill="#DBE3EB"/>
<path fill-rule="evenodd" clip-rule="evenodd" d="M204.515 159.896L212.394 155.377C213.823 154.54 214.698 152.781 214.698 150.278L214.721 141.194L214.883 70.3234L207.003 74.8426L206.842 145.458L206.819 154.798C206.819 157.301 205.944 159.062 204.515 159.896" fill="#F1F6FC"/>
<path fill-rule="evenodd" clip-rule="evenodd" d="M111.436 1.09066C109.24 -0.183983 107.254 -0.304495 105.816 0.536771L97.9417 5.06292C99.3771 4.22397 101.365 4.34217 103.559 5.61682L199.133 61.1242L207.01 56.598L111.436 1.09066Z" fill="#F1F6FC"/>
<path fill-rule="evenodd" clip-rule="evenodd" d="M207.01 74.8421L206.849 145.451L206.824 154.8C206.81 159.84 203.26 161.873 198.901 159.34L103.327 103.835C98.9654 101.295 95.4358 95.16 95.4543 90.1193L95.4796 80.7658L95.6363 10.1596C95.6478 5.119 99.2004 3.0842 103.557 5.61727L199.131 61.1223C203.497 63.6554 207.024 69.7969 207.01 74.8421" fill="#DBE3EB"/>
<path fill-rule="evenodd" clip-rule="evenodd" d="M200.839 62.3332C200.945 62.4213 201.048 62.5163 201.152 62.609C201.318 62.7573 201.484 62.9057 201.647 63.0633C201.751 63.1675 201.857 63.2741 201.961 63.3808C202.117 63.5407 202.27 63.7029 202.422 63.8698C202.516 63.974 202.61 64.083 202.703 64.1896C202.928 64.4561 203.15 64.7296 203.364 65.0123C203.41 65.0749 203.461 65.1328 203.504 65.1931C203.76 65.5384 204 65.893 204.232 66.2545C204.292 66.3495 204.348 66.4469 204.41 66.5442C204.58 66.8223 204.746 67.1097 204.905 67.397C204.967 67.5106 205.03 67.6265 205.092 67.7447C205.265 68.0761 205.426 68.4121 205.58 68.7528C205.606 68.8107 205.635 68.864 205.661 68.9243C205.684 68.973 205.702 69.0263 205.723 69.0773C205.827 69.3229 205.926 69.5663 206.018 69.8142C206.055 69.9069 206.087 70.002 206.122 70.0947C206.198 70.3125 206.271 70.5327 206.34 70.7528L206.421 71.0101C206.509 71.3067 206.589 71.6057 206.656 71.9047L206.677 71.9997C206.737 72.2662 206.787 72.5304 206.833 72.7969C206.847 72.8896 206.859 72.98 206.873 73.0704C206.905 73.2859 206.93 73.4991 206.949 73.7123C206.958 73.8004 206.967 73.8885 206.974 73.9742C206.997 74.2662 207.011 74.5536 207.011 74.8387L214.886 70.3125C214.888 70.0298 214.872 69.7401 214.851 69.4481C214.844 69.3623 214.835 69.2743 214.826 69.1862C214.805 68.973 214.782 68.7574 214.75 68.5442C214.736 68.4538 214.722 68.3635 214.71 68.2731C214.664 68.0042 214.614 67.74 214.554 67.4735C214.545 67.4411 214.54 67.4086 214.533 67.3785C214.464 67.0795 214.383 66.7829 214.298 66.4839L214.217 66.2267C214.146 66.0065 214.075 65.7864 213.996 65.5685C213.962 65.4735 213.932 65.3808 213.895 65.2858C213.803 65.0401 213.704 64.7945 213.6 64.5511C213.577 64.5001 213.558 64.4491 213.538 64.3982C213.531 64.3842 213.526 64.3703 213.519 64.3564C213.501 64.3124 213.476 64.2707 213.457 64.2267C213.303 63.886 213.139 63.5476 212.966 63.2162C212.904 63.1003 212.844 62.9845 212.782 62.8709C212.621 62.5812 212.457 62.2961 212.284 62.018C212.225 61.9207 212.169 61.8234 212.109 61.7284C211.877 61.3668 211.635 61.0122 211.381 60.6669C211.335 60.6067 211.287 60.5464 211.241 60.4861C211.027 60.2034 210.805 59.9299 210.577 59.6634C210.538 59.6171 210.501 59.5661 210.462 59.5197C210.407 59.4595 210.351 59.4039 210.296 59.3436C210.146 59.1767 209.994 59.0145 209.838 58.8546C209.734 58.748 209.628 58.6414 209.524 58.5371C209.361 58.3795 209.195 58.2289 209.029 58.0829C208.925 57.9902 208.822 57.8951 208.716 57.8071C208.531 57.6518 208.343 57.5081 208.154 57.3667C208.059 57.2972 207.969 57.2231 207.877 57.1582C207.591 56.9565 207.303 56.7688 207.011 56.5973L199.134 61.1258C199.427 61.295 199.717 61.4827 200 61.6843C200.092 61.7492 200.184 61.8234 200.277 61.8952C200.466 62.0343 200.654 62.1803 200.839 62.3332" fill="#F1F6FC"/>
<path fill-rule="evenodd" clip-rule="evenodd" d="M206.848 145.45L206.823 154.799C206.809 159.84 203.259 161.872 198.902 159.339L103.326 103.834C98.9646 101.294 95.4373 95.1595 95.4535 90.1189L95.4788 80.7653L206.848 145.45Z" fill="url(#paint2_linear)"/>
<path fill-rule="evenodd" clip-rule="evenodd" d="M198.773 74.8217C198.778 72.7174 196.845 69.3663 195.014 68.3025L103.863 15.3653L103.729 75.9875L198.644 131.115L198.773 74.8217Z" fill="white"/>
<path fill-rule="evenodd" clip-rule="evenodd" d="M204.515 159.896L212.394 155.377C213.823 154.54 214.698 152.781 214.698 150.278L214.721 141.194L206.842 145.458L206.819 154.798C206.819 157.301 205.943 159.062 204.515 159.896" fill="#D1D9E2"/>
<path fill-rule="evenodd" clip-rule="evenodd" d="M170.216 96.8203C170.511 96.8203 170.805 96.7067 171.031 96.4819C171.48 96.0254 171.48 95.293 171.031 94.8411L130.716 54.3931C130.266 53.9458 129.541 53.9435 129.085 54.3954C128.638 54.852 128.638 55.5843 129.087 56.0362L169.4 96.4819C169.626 96.7067 169.921 96.8203 170.216 96.8203" fill="#DC272B"/>
<path fill-rule="evenodd" clip-rule="evenodd" d="M130.744 66.4747C130.827 66.4747 130.91 66.4655 130.995 66.4469C131.617 66.3079 132.007 65.6868 131.868 65.0633L129.666 55.1466L139.95 57.2834C140.566 57.4294 141.181 57.0145 141.312 56.3842C141.443 55.7584 141.042 55.1443 140.418 55.0168L128.387 52.5162C127.993 52.4235 127.606 52.5556 127.332 52.836C127.056 53.1164 126.943 53.5174 127.028 53.9021L129.62 65.5686C129.74 66.1086 130.217 66.4747 130.744 66.4747" fill="#DC272B"/>
<path fill-rule="evenodd" clip-rule="evenodd" d="M77.7735 125.957L87.8218 131.779L77.7076 137.599L67.6593 131.778L77.7735 125.957Z" fill="#EA6565"/>
<path fill-rule="evenodd" clip-rule="evenodd" d="M67.6588 131.778L67.8064 170.408L77.8547 176.228L77.7071 137.6L67.6588 131.778Z" fill="#DC272B"/>
<path fill-rule="evenodd" clip-rule="evenodd" d="M77.7076 137.599L77.8553 176.228L87.9695 170.407L87.8218 131.779L77.7076 137.599Z" fill="#B0322F"/>
<path fill-rule="evenodd" clip-rule="evenodd" d="M82.922 154.501L92.9703 160.323L103.086 154.501L93.0362 148.681L82.922 154.501Z" fill="#DBE3EB"/>
<path fill-rule="evenodd" clip-rule="evenodd" d="M82.9219 154.501L83.0696 178.819L93.1179 184.641L92.9702 160.323L82.9219 154.501Z" fill="#D1D9E2"/>
<path fill-rule="evenodd" clip-rule="evenodd" d="M92.9708 160.322L93.1185 184.64L103.233 178.82L103.085 154.502L92.9708 160.322Z" fill="#F1F6FC"/>
<path fill-rule="evenodd" clip-rule="evenodd" d="M118.347 174.678L108.235 180.498L98.1842 174.678L108.3 168.856L118.347 174.678Z" fill="#DBE3EB"/>
<path fill-rule="evenodd" clip-rule="evenodd" d="M98.1854 174.678L98.333 187.232L108.383 193.054L108.234 180.499L98.1854 174.678Z" fill="#D1D9E2"/>
<path fill-rule="evenodd" clip-rule="evenodd" d="M118.496 187.233L108.382 193.053L108.234 180.499L118.347 174.679L118.496 187.233Z" fill="#F1F6FC"/>
<defs>
<linearGradient id="paint0_linear" x1="391.28" y1="176.902" x2="297.695" y2="-8.12115" gradientUnits="userSpaceOnUse">
<stop stop-color="white"/>
<stop offset="0.979407" stop-color="#E2E8EF"/>
</linearGradient>
<linearGradient id="paint1_linear" x1="391.28" y1="161.569" x2="297.695" y2="-23.4545" gradientUnits="userSpaceOnUse">
<stop stop-color="white"/>
<stop offset="0.979407" stop-color="#E2E8EF"/>
</linearGradient>
<linearGradient id="paint2_linear" x1="244.824" y1="-34.0032" x2="358.552" y2="214.892" gradientUnits="userSpaceOnUse">
<stop stop-color="#D1D9E2"/>
<stop offset="1" stop-color="white"/>
</linearGradient>
</defs>
</svg>
