<?xml version="1.0" encoding="UTF-8"?>
<svg width="47px" height="47px" viewBox="0 0 47 47" version="1.1" xmlns="http://www.w3.org/2000/svg" xmlns:xlink="http://www.w3.org/1999/xlink">
    <!-- Generator: Sketch 53 (72520) - https://sketchapp.com -->
    <title>Group 2</title>
    <desc>Created with Sketch.</desc>
    <g id="Site" stroke="none" stroke-width="1" fill="none" fill-rule="evenodd">
        <g id="site-sempretec" transform="translate(-1494.000000, -297.000000)" fill-rule="nonzero">
            <g id="Group-7" transform="translate(1495.000000, 298.000000)">
                <g id="Group-2" transform="translate(22.500000, 22.500000) rotate(-90.000000) translate(-22.500000, -22.500000) ">
                    <circle id="Oval-2-Copy-3" stroke="#FFFFFF" opacity="0.600000024" cx="22.5" cy="22.5" r="22.5"></circle>
                    <path d="M26.708573,23.6183194 L20.5986699,29.4229247 C20.2100062,29.7923584 19.5798548,29.7923584 19.1913798,29.4229247 C18.8028734,29.0538197 18.8028734,28.4551668 19.1913798,28.0860917 L24.5977008,22.9499029 L19.191537,17.8138934 C18.8030306,17.4446389 18.8030306,16.8460458 19.191537,16.4769408 C19.5800434,16.1076864 20.2101635,16.1076864 20.5988271,16.4769408 L26.7087303,22.2816358 C26.9029835,22.4662779 27,22.7080157 27,22.949873 C27,23.1918498 26.9027948,23.4337669 26.708573,23.6183194 Z" id="Shape" fill="#FFFFFF" transform="translate(22.950000, 22.950000) scale(1, -1) rotate(-90.000000) translate(-22.950000, -22.950000) "></path>
                </g>
            </g>
        </g>
    </g>
</svg>