<svg width="24" height="27" viewBox="0 0 24 27" fill="none" xmlns="http://www.w3.org/2000/svg">
<path d="M4.66667 1L1 5.88889V23C1 23.6483 1.25754 24.2701 1.71596 24.7285C2.17438 25.1869 2.79614 25.4444 3.44444 25.4444H20.5556C21.2039 25.4444 21.8256 25.1869 22.284 24.7285C22.7425 24.2701 23 23.6483 23 23V5.88889L19.3333 1H4.66667Z" stroke="#E4B263" stroke-width="2" stroke-linecap="round" stroke-linejoin="round"/>
<path d="M1 5.88916H23" stroke="#E4B263" stroke-width="2" stroke-linecap="round" stroke-linejoin="round"/>
<path d="M16.8891 10.7781C16.8891 12.0747 16.374 13.3182 15.4572 14.235C14.5403 15.1519 13.2968 15.667 12.0002 15.667C10.7036 15.667 9.46009 15.1519 8.54325 14.235C7.62641 13.3182 7.11133 12.0747 7.11133 10.7781" stroke="#405B9A" stroke-width="2" stroke-linecap="round" stroke-linejoin="round"/>
</svg>
