<svg width="36" height="38" viewBox="0 0 36 38" fill="none" xmlns="http://www.w3.org/2000/svg">
<path d="M21 35.3333H5.33333C4.44928 35.3333 3.60143 34.9821 2.97631 34.357C2.35119 33.7319 2 32.8841 2 32V5.33333C2 4.44928 2.35119 3.60143 2.97631 2.97631C3.60143 2.35119 4.44928 2 5.33333 2H18.6667L28.6667 12V18.5" stroke="#1F3D8C" stroke-width="2.5" stroke-linecap="round" stroke-linejoin="round"/>
<path d="M29 36C29 36 34 33.6 34 30V25.8L29 24L24 25.8V30C24 33.6 29 36 29 36Z" stroke="#F07E26" stroke-width="2.5" stroke-linecap="round" stroke-linejoin="round"/>
<path d="M18.667 2V12H28.667" stroke="#1F3D8C" stroke-width="2.5" stroke-linecap="round" stroke-linejoin="round"/>
<path d="M17 20H9" stroke="#1F3D8C" stroke-width="2.5" stroke-linecap="round" stroke-linejoin="round"/>
<path d="M17 27H9" stroke="#1F3D8C" stroke-width="2.5" stroke-linecap="round" stroke-linejoin="round"/>
<path d="M12.0003 13.6665H10.3337H8.66699" stroke="#1F3D8C" stroke-width="2.5" stroke-linecap="round" stroke-linejoin="round"/>
</svg>
