<svg width="48" height="48" viewBox="0 0 48 48" fill="none" xmlns="http://www.w3.org/2000/svg">
<rect width="48" height="48" rx="10" fill="#FF333B"/>
<path d="M29.1562 22.0312L31.3125 22.4062C31.4062 22.9219 31.5 23.4375 31.5 24C31.5 28.1719 28.125 31.5 24 31.5C19.8281 31.5 16.5 28.1719 16.5 24C16.5 19.875 19.8281 16.5 24 16.5C24.5156 16.5 25.0781 16.5938 25.5938 16.6875L25.9688 18.8438L25.7344 19.0781C25.1719 18.8906 24.6094 18.75 24 18.75C21.0938 18.75 18.75 21.1406 18.75 24C18.75 26.9062 21.0938 29.25 24 29.25C26.8594 29.25 29.25 26.9062 29.25 24C29.25 23.3906 29.1094 22.8281 28.9219 22.2656L29.1562 22.0312ZM35.2969 20.0625C35.7188 21.2812 36 22.6406 36 24C36 30.6562 30.6094 36 24 36C17.3438 36 12 30.6562 12 24C12 17.3906 17.3438 12 24 12C25.3594 12 26.7188 12.2812 27.9375 12.7031L26.1094 14.5312C25.4062 14.3438 24.7031 14.25 24 14.25C18.6094 14.25 14.25 18.6562 14.25 24C14.25 29.3906 18.6094 33.75 24 33.75C29.3438 33.75 33.75 29.3906 33.75 24C33.75 23.2969 33.6562 22.5469 33.4688 21.8906L35.2969 20.0625ZM24.75 24.7969C24.3281 25.2656 23.625 25.2656 23.2031 24.7969C22.7344 24.375 22.7344 23.6719 23.2031 23.2031L27.5156 18.8906L27.0938 16.5469C27.0469 16.0781 27.1875 15.5625 27.5156 15.2344L29.9062 12.8438C30.2812 12.4688 30.9375 12.5625 31.1719 13.0781L32.25 15.75L34.9219 16.8281C35.4375 17.0625 35.5312 17.6719 35.1562 18.0938L32.7656 20.4844C32.4375 20.8125 31.9219 20.9531 31.4531 20.9062L29.1094 20.4844L24.75 24.7969Z" fill="white"/>
</svg>
