<svg xmlns="http://www.w3.org/2000/svg" width="45" height="18" viewBox="0 0 45 18">
    <path fill="#FFF" fill-rule="evenodd" d="M44.953 9.955c-.016-.393-.031-.76-.036-1.09-.028-2.204-.071-5.533-3.885-5.546-3.283 0-6.666 2.497-8.662 3.975-.102.06-.224.149-.253.296a.31.31 0 0 0 .012.167c.031.127.145.28.528.28.252 0 .71-.067.922-.21a36.61 36.61 0 0 1 3.215-1.695c.98-.532 2.213-.862 3.22-.862.604 0 1.419.12 1.87.695.216.276.204 1.385.2 1.803a75.3 75.3 0 0 1-.098 2.73l-.047 1.015c-.043.988-.14 2.154-.538 3.297-.093.265-.31.618-1.133.618-.92 0-2.137-.453-2.865-.722-.16-.061-.303-.113-.42-.154-2.185-.75-4.246-1.758-6.671-3.041-2.32-1.228-4.63-2.564-6.863-3.856a287.767 287.767 0 0 0-4.998-2.849l-.106-.057c-3.564-1.97-7.25-4.006-11.29-4.65A8.029 8.029 0 0 0 5.807 0C3.5 0 1.614 1.05.633 2.884-.103 4.256-.026 6.042.04 7.618c.016.352.03.692.034 1.013.03 2.041.063 4.354.937 6.453.672 1.61 2.226 2.462 4.496 2.462.93 0 2.003-.146 3.098-.42 4.03-1.007 7.886-2.613 11.81-4.307.128-.055.465-.202.401-.497-.061-.29-.428-.323-.698-.323-.084 0-.3.006-.455.054-2.28.718-4.707 1.474-7.11 2.154-.248.07-.518.15-.806.238-1.451.431-3.255.97-4.84.97-1.522 0-2.509-.504-3.015-1.542-.689-1.413-.588-3.392-.496-5.137.02-.403.04-.792.049-1.154l.006-.304c.026-1.072.051-2.084.272-3.105.177-.812.701-1.19 1.652-1.19.9 0 1.969.354 2.677.588l.112.037C11.7 4.773 15.054 6.741 18.3 8.645c.801.47 1.598.937 2.391 1.389 4.475 2.547 8.222 4.63 12.372 6.32C35.02 17.151 37.304 18 39.595 18c.894 0 1.755-.13 2.559-.39 3.078-.998 2.91-5.005 2.8-7.655"/>
</svg>
