<svg xmlns="http://www.w3.org/2000/svg" width="49" height="44" viewBox="0 0 49 44">
    <g fill="none" fill-rule="evenodd">
        <path fill="#28397D" fill-rule="nonzero" d="M8.958 24.858a1.196 1.196 0 1 0 0 2.393h.1a1.196 1.196 0 1 0 0-2.393h-.1zm4.158 0a1.196 1.196 0 1 0 0 2.393h.1a1.196 1.196 0 1 0 0-2.393h-.1zM48.254 5.749v13.466c0 3.189-2.557 5.776-5.745 5.776H26.994c-.304 0-.553-.002-.762-.006a6.35 6.35 0 0 0-.562.004c-.1.067-.345.291-.582.51-.094.086-.2.18-.314.285l-4.39 4c-.35.32-.868.403-1.302.212-.433-.191-.738-.62-.738-1.095V16.218H5.812c-1.87 0-3.42 1.531-3.42 3.4v13.466c0 1.87 1.55 3.339 3.42 3.339h17.33c.299 0 .578.137.798.338l3.577 3.297v-11.37a1.196 1.196 0 1 1 2.392 0V42.77c0 .474-.27.897-.705 1.088-.155.069-.31.096-.474.096a1.21 1.21 0 0 1-.806-.326l-5.245-4.812H5.812C2.623 38.816 0 36.273 0 33.084V19.618c0-3.188 2.623-5.793 5.812-5.793h12.532V5.749C18.344 2.561 20.988 0 24.176 0H42.51a5.729 5.729 0 0 1 5.745 5.75zm-2.393 0a3.333 3.333 0 0 0-3.352-3.356H24.176c-1.869 0-3.439 1.487-3.439 3.356V26.19l2.406-2.174c.11-.102.236-.195.327-.279 1.098-1.012 1.38-1.174 2.812-1.144.195.004.428.005.712.005h15.515c1.869 0 3.352-1.513 3.352-3.382V5.749z"/>
        <path fill="#EF7D25" d="M36.919 10.362c0 1.462-1.064 2.35-1.842 3.003-.294.247-.842.698-.84.867a1.178 1.178 0 0 1-1.187 1.188h-.01c-.656 0-1.19-.512-1.196-1.169-.01-1.296.935-2.072 1.695-2.71.596-.5.987-.852.987-1.175a1.185 1.185 0 0 0-2.367 0 1.196 1.196 0 1 1-2.393 0 3.576 3.576 0 1 1 7.153-.005zM33.073 16.524c-.66 0-1.17.536-1.17 1.197v.009c0 .66.51 1.192 1.17 1.192a1.2 1.2 0 0 0 1.197-1.201c0-.661-.536-1.197-1.197-1.197z"/>
    </g>
</svg>
