<svg width="31" height="34" viewBox="0 0 31 34" fill="none" xmlns="http://www.w3.org/2000/svg">
<path fill-rule="evenodd" clip-rule="evenodd" d="M25.282 19.043C25.3308 19.495 25.3558 19.9542 25.3558 20.4193C25.3558 27.4208 19.6799 33.0967 12.6784 33.0967C5.67685 33.0967 0.000976562 27.4208 0.000976562 20.4193C0.000976562 14.2849 4.35698 9.17016 10.144 7.99546C10.9637 7.82906 11.8114 7.74188 12.6784 7.74188C12.6941 7.74188 12.7097 7.74191 12.7253 7.74197C12.6943 8.07109 12.6784 8.40463 12.6784 8.74188C12.6784 9.32668 12.7262 9.90031 12.818 10.4591C12.7719 10.3996 12.7253 10.3404 12.6784 10.2815C10.5924 12.8996 9.33182 16.0811 9.05944 19.4193H16.2974C16.2053 18.2915 16.0005 17.1817 15.6892 16.1053C16.4081 16.8374 17.2333 17.4646 18.1399 17.962C18.2131 18.4442 18.2677 18.9303 18.3033 19.4193H23.3096C23.3044 19.3631 23.2987 19.307 23.2926 19.2511C23.9732 19.2444 24.6382 19.1731 25.282 19.043ZM12.6784 30.5571C14.7644 27.939 16.025 24.7575 16.2974 21.4193H9.05944C9.33182 24.7575 10.5924 27.939 12.6784 30.5571ZM10.4057 9.98406C8.46416 12.7621 7.30121 16.0211 7.0535 19.4193H2.0472C2.48068 14.7532 5.91713 10.9566 10.4057 9.98406ZM7.0535 21.4193H2.04719C2.48063 26.0859 5.91709 29.8812 10.4055 30.8543C8.46409 28.0763 7.30121 24.8174 7.0535 21.4193ZM18.3033 21.4193C18.0556 24.8174 16.8927 28.0763 14.9513 30.8543C19.4397 29.8812 22.8762 26.0859 23.3096 21.4193H18.3033Z" fill="#F07E26"/>
<path d="M22.5055 11.272C23.6341 11.272 24.549 10.357 24.549 9.22842C24.549 8.0998 23.6341 7.18488 22.5055 7.18488C21.3768 7.18488 20.4619 8.0998 20.4619 9.22842C20.4619 10.357 21.3768 11.272 22.5055 11.272Z" stroke="#DC272B" stroke-width="2" stroke-linecap="round" stroke-linejoin="round"/>
<path d="M27.5474 11.272C27.4568 11.4775 27.4297 11.7054 27.4698 11.9264C27.5098 12.1473 27.6152 12.3512 27.7722 12.5118L27.8131 12.5527C27.9398 12.6792 28.0403 12.8294 28.1088 12.9948C28.1774 13.1602 28.2127 13.3375 28.2127 13.5165C28.2127 13.6956 28.1774 13.8728 28.1088 14.0382C28.0403 14.2036 27.9398 14.3539 27.8131 14.4804C27.6866 14.6071 27.5363 14.7076 27.3709 14.7761C27.2055 14.8447 27.0283 14.88 26.8492 14.88C26.6702 14.88 26.4929 14.8447 26.3275 14.7761C26.1621 14.7076 26.0119 14.6071 25.8854 14.4804L25.8445 14.4395C25.6839 14.2825 25.48 14.1772 25.2591 14.1371C25.0381 14.097 24.8102 14.1241 24.6047 14.2147C24.4033 14.3011 24.2314 14.4445 24.1104 14.6272C23.9894 14.81 23.9244 15.0241 23.9235 15.2433V15.3591C23.9235 15.7205 23.78 16.067 23.5245 16.3225C23.269 16.578 22.9225 16.7215 22.5612 16.7215C22.1999 16.7215 21.8533 16.578 21.5978 16.3225C21.3423 16.067 21.1988 15.7205 21.1988 15.3591V15.2978C21.1935 15.0724 21.1206 14.8537 20.9894 14.6703C20.8582 14.4868 20.6748 14.3471 20.4631 14.2692C20.2577 14.1786 20.0298 14.1515 19.8088 14.1916C19.5878 14.2316 19.3839 14.337 19.2234 14.494L19.1825 14.5349C19.056 14.6616 18.9057 14.7621 18.7403 14.8306C18.575 14.8992 18.3977 14.9345 18.2186 14.9345C18.0396 14.9345 17.8623 14.8992 17.6969 14.8306C17.5315 14.7621 17.3813 14.6616 17.2548 14.5349C17.1281 14.4084 17.0276 14.2581 16.959 14.0927C16.8905 13.9273 16.8552 13.7501 16.8552 13.571C16.8552 13.392 16.8905 13.2147 16.959 13.0493C17.0276 12.8839 17.1281 12.7337 17.2548 12.6072L17.2956 12.5663C17.4527 12.4057 17.558 12.2018 17.5981 11.9809C17.6381 11.7599 17.6111 11.532 17.5204 11.3265C17.4341 11.1251 17.2907 10.9532 17.1079 10.8322C16.9252 10.7112 16.711 10.6462 16.4918 10.6453H16.376C16.0147 10.6453 15.6682 10.5018 15.4127 10.2463C15.1572 9.99082 15.0137 9.6443 15.0137 9.28298C15.0137 8.92166 15.1572 8.57514 15.4127 8.31964C15.6682 8.06415 16.0147 7.92061 16.376 7.92061H16.4373C16.6628 7.91534 16.8815 7.84236 17.0649 7.71116C17.2484 7.57996 17.3881 7.3966 17.4659 7.18494C17.5566 6.97948 17.5837 6.75157 17.5436 6.5306C17.5035 6.30963 17.3982 6.10572 17.2411 5.94518L17.2003 5.90431C17.0736 5.77779 16.9731 5.62753 16.9046 5.46214C16.836 5.29676 16.8007 5.11947 16.8007 4.94044C16.8007 4.7614 16.836 4.58412 16.9046 4.41873C16.9731 4.25335 17.0736 4.10309 17.2003 3.97657C17.3268 3.8499 17.477 3.74941 17.6424 3.68085C17.8078 3.61229 17.9851 3.577 18.1641 3.577C18.3432 3.577 18.5205 3.61229 18.6858 3.68085C18.8512 3.74941 19.0015 3.8499 19.128 3.97657L19.1689 4.01744C19.3294 4.17447 19.5333 4.27982 19.7543 4.31988C19.9753 4.35995 20.2032 4.3329 20.4086 4.24223H20.4631C20.6646 4.15588 20.8364 4.0125 20.9575 3.82975C21.0785 3.64699 21.1434 3.43284 21.1443 3.21364V3.09784C21.1443 2.73652 21.2879 2.38999 21.5433 2.1345C21.7988 1.87901 22.1454 1.73547 22.5067 1.73547C22.868 1.73547 23.2145 1.87901 23.47 2.1345C23.7255 2.38999 23.869 2.73652 23.869 3.09784V3.15915C23.8699 3.37834 23.9349 3.5925 24.0559 3.77525C24.1769 3.95801 24.3488 4.10138 24.5502 4.18773C24.7557 4.27841 24.9836 4.30546 25.2046 4.26539C25.4255 4.22532 25.6294 4.11998 25.79 3.96294L25.8309 3.92207C25.9574 3.7954 26.1076 3.69492 26.273 3.62636C26.4384 3.5578 26.6157 3.52251 26.7947 3.52251C26.9738 3.52251 27.151 3.5578 27.3164 3.62636C27.4818 3.69492 27.6321 3.7954 27.7586 3.92207C27.8853 4.0486 27.9858 4.19885 28.0543 4.36424C28.1229 4.52963 28.1582 4.70691 28.1582 4.88594C28.1582 5.06498 28.1229 5.24226 28.0543 5.40765C27.9858 5.57304 27.8853 5.72329 27.7586 5.84982L27.7177 5.89069C27.5607 6.05123 27.4554 6.25513 27.4153 6.47611C27.3752 6.69708 27.4023 6.92499 27.4929 7.13044V7.18494C27.5793 7.38641 27.7227 7.55824 27.9054 7.67927C28.0882 7.8003 28.3023 7.86525 28.5215 7.86612H28.6373C28.9987 7.86612 29.3452 8.00965 29.6007 8.26515C29.8562 8.52064 29.9997 8.86716 29.9997 9.22849C29.9997 9.58981 29.8562 9.93633 29.6007 10.1918C29.3452 10.4473 28.9987 10.5909 28.6373 10.5909H28.576C28.3568 10.5917 28.1427 10.6567 27.9599 10.7777C27.7772 10.8987 27.6338 11.0706 27.5474 11.272Z" stroke="#DC272B" stroke-width="2" stroke-linecap="round" stroke-linejoin="round"/>
</svg>
