<svg width="43" height="35" viewBox="0 0 43 35" fill="none" xmlns="http://www.w3.org/2000/svg">
<path d="M29.5556 33.0001V29.5556C29.5556 27.7286 28.8298 25.9764 27.5378 24.6845C26.2459 23.3925 24.4937 22.6667 22.6667 22.6667H8.88889C7.06184 22.6667 5.30963 23.3925 4.01771 24.6845C2.72579 25.9764 2 27.7286 2 29.5556V33.0001" stroke="#1F3D8C" stroke-width="2.5" stroke-linecap="round" stroke-linejoin="round"/>
<path d="M15.778 15.7778C19.5827 15.7778 22.6669 12.6935 22.6669 8.88889C22.6669 5.08426 19.5827 2 15.778 2C11.9734 2 8.88916 5.08426 8.88916 8.88889C8.88916 12.6935 11.9734 15.7778 15.778 15.7778Z" stroke="#1F3D8C" stroke-width="2.5" stroke-linecap="round" stroke-linejoin="round"/>
<path d="M35.7808 3.83704L28.6367 12.6548H35.0663L34.3519 18.5333L41.496 9.71555H35.0663L35.7808 3.83704Z" stroke="#F07E26" stroke-width="2" stroke-linecap="round" stroke-linejoin="round"/>
</svg>
