<svg width="32" height="29" viewBox="0 0 32 29" fill="none" xmlns="http://www.w3.org/2000/svg">
<path d="M16.7477 4.37842H3.62461C2.17508 4.37842 1 5.5535 1 7.00303V20.1261C1 21.5756 2.17508 22.7507 3.62461 22.7507H24.6215C26.071 22.7507 27.2461 21.5756 27.2461 20.1261V15.697" stroke="#405B9A" stroke-width="2" stroke-linecap="round" stroke-linejoin="round"/>
<path d="M16.8265 12L12.1514 16.6751L9.69086 13.2303L6 16.9211" stroke="#35B6B4" stroke-width="2" stroke-linecap="round" stroke-linejoin="round"/>
<path d="M8.87402 28H19.3725" stroke="#405B9A" stroke-width="2" stroke-linecap="round" stroke-linejoin="round"/>
<path d="M14.123 22.7507V28" stroke="#405B9A" stroke-width="2" stroke-linecap="round" stroke-linejoin="round"/>
<path d="M25.5 12C28.5376 12 31 9.53757 31 6.5C31 3.46243 28.5376 1 25.5 1C22.4624 1 20 3.46243 20 6.5C20 9.53757 22.4624 12 25.5 12Z" stroke="#35B6B4" stroke-width="2" stroke-linecap="round" stroke-linejoin="round"/>
<path d="M20 6.5H31" stroke="#35B6B4" stroke-width="2" stroke-linecap="round" stroke-linejoin="round"/>
<path d="M25.4998 1C26.8755 2.50609 27.6573 4.46062 27.6998 6.5C27.6573 8.53938 26.8755 10.4939 25.4998 12C24.1241 10.4939 23.3423 8.53938 23.2998 6.5C23.3423 4.46062 24.1241 2.50609 25.4998 1Z" stroke="#35B6B4" stroke-width="2" stroke-linecap="round" stroke-linejoin="round"/>
</svg>
