<svg width="262" height="24" viewBox="0 0 262 24" fill="none" xmlns="http://www.w3.org/2000/svg">
<path d="M16.9412 0H2.0915C0.941176 0 0 0.993464 0 2.19608V16.2614C0 16.9935 0.366013 17.6732 0.941176 18.0915L9.56863 24L18.1961 18.0915C18.7712 17.7255 19.1373 17.0458 19.1373 16.2614V2.19608C19.085 0.993464 18.1438 0 16.9412 0ZM9.51634 4.75817C11.3464 4.75817 12.8627 6.27451 12.8627 8.10458C12.8627 9.93464 11.3464 11.451 9.51634 11.451C7.68627 11.451 6.16993 9.93464 6.16993 8.10458C6.16993 6.27451 7.68627 4.75817 9.51634 4.75817ZM14.1699 16.3137C13.0719 17.5163 11.5556 18.5621 9.51634 19.1895C7.47712 18.5621 5.96078 17.5686 4.86274 16.3137V14.2222L6.90196 12.915L9.51634 14.8497L12.1307 12.915L14.1699 14.2222V16.3137Z" fill="white"/>
<path d="M35.9357 13.332L34.1017 12.59C33.4017 12.3007 32.9303 11.9273 32.6877 11.47C32.445 11.0127 32.3657 10.4387 32.4497 9.748C32.5897 8.72133 32.9443 8.03533 33.5137 7.69C34.0923 7.33533 34.9883 7.158 36.2017 7.158C37.4057 7.158 38.4557 7.28867 39.3517 7.55L39.1417 8.992C38.3017 8.964 37.303 8.95 36.1457 8.95C35.5763 8.94067 35.189 8.98733 34.9837 9.09C34.7783 9.18333 34.643 9.44467 34.5777 9.874C34.531 10.1913 34.5543 10.4153 34.6477 10.546C34.7503 10.6673 34.9837 10.798 35.3477 10.938L37.0837 11.61C37.821 11.8993 38.3063 12.2633 38.5397 12.702C38.773 13.1313 38.843 13.724 38.7497 14.48C38.6097 15.544 38.2643 16.2627 37.7137 16.636C37.1723 17 36.2483 17.182 34.9417 17.182C33.859 17.182 32.753 17.056 31.6237 16.804L31.8477 15.278C33.8263 15.3247 34.8297 15.348 34.8577 15.348C35.511 15.348 35.9543 15.2873 36.1877 15.166C36.421 15.0353 36.5703 14.7647 36.6357 14.354C36.673 14.0367 36.645 13.8173 36.5517 13.696C36.4583 13.5747 36.253 13.4533 35.9357 13.332ZM41.9754 7.046H42.8434C43.2821 7.046 43.4781 7.26067 43.4314 7.69L43.3334 8.446C43.2774 8.81933 43.0534 9.006 42.6614 9.006H41.7794C41.3501 9.006 41.1634 8.79133 41.2194 8.362L41.3174 7.62C41.3548 7.23733 41.5741 7.046 41.9754 7.046ZM42.0874 17H40.0294L40.9954 10.098H43.0534L42.0874 17ZM47.5149 14.522L45.8489 13.836C45.2889 13.612 44.8969 13.3273 44.6729 12.982C44.4489 12.6367 44.3696 12.2027 44.4349 11.68C44.5096 11.0453 44.7849 10.588 45.2609 10.308C45.7462 10.028 46.5022 9.89267 47.5289 9.902C48.7982 9.92067 49.8622 10.014 50.7209 10.182L50.5249 11.498C48.7329 11.47 47.8229 11.456 47.7949 11.456C47.2536 11.456 46.8942 11.4793 46.7169 11.526C46.5396 11.5633 46.4369 11.6613 46.4089 11.82C46.3902 11.9787 46.4322 12.1 46.5349 12.184C46.6469 12.2587 46.8569 12.3567 47.1649 12.478L48.8589 13.15C49.4282 13.374 49.8296 13.6447 50.0629 13.962C50.2962 14.2793 50.3802 14.704 50.3149 15.236C50.2589 15.6467 50.1469 15.9827 49.9789 16.244C49.8202 16.5053 49.5869 16.7013 49.2789 16.832C48.9709 16.9627 48.6396 17.0467 48.2849 17.084C47.9302 17.1307 47.4776 17.154 46.9269 17.154C46.0869 17.154 45.0742 17.07 43.8889 16.902L44.0849 15.572C44.4209 15.5907 45.1536 15.6 46.2829 15.6C47.0856 15.6 47.6176 15.572 47.8789 15.516C48.1402 15.46 48.2896 15.3387 48.3269 15.152C48.3456 15.012 48.3082 14.9093 48.2149 14.844C48.1309 14.7787 47.9582 14.6947 47.6969 14.592C47.6222 14.564 47.5616 14.5407 47.5149 14.522ZM55.0287 11.484L54.5667 14.788C54.5294 15.0493 54.548 15.2267 54.6227 15.32C54.7067 15.404 54.8887 15.446 55.1687 15.446H56.0927L56.1907 16.902C55.696 17.0793 55.052 17.168 54.2587 17.168C53.6054 17.168 53.12 16.9907 52.8027 16.636C52.4854 16.272 52.3734 15.7727 52.4667 15.138L52.9987 11.484H51.7527L51.9207 10.168L53.1947 10.098L53.4747 8.166H55.5047L55.2387 10.098H57.1427L56.9467 11.484H55.0287ZM63.8549 15.362L63.9949 16.678C63.2202 17.0047 62.2075 17.168 60.9569 17.168C59.6409 17.168 58.7355 16.86 58.2409 16.244C57.7462 15.628 57.5735 14.6807 57.7229 13.402C57.8909 12.058 58.2735 11.1387 58.8709 10.644C59.4682 10.1493 60.4202 9.902 61.7269 9.902C62.9402 9.902 63.7615 10.1027 64.1909 10.504C64.6295 10.9053 64.7929 11.498 64.6809 12.282C64.5875 12.9353 64.3215 13.402 63.8829 13.682C63.4442 13.962 62.7675 14.1347 61.8529 14.2L59.8089 14.354C59.8182 14.8113 59.9302 15.1193 60.1449 15.278C60.3689 15.4367 60.7189 15.516 61.1949 15.516C62.1002 15.516 62.9869 15.4647 63.8549 15.362ZM59.9349 13.136L61.5449 12.982C61.9182 12.954 62.1889 12.8793 62.3569 12.758C62.5342 12.6367 62.6415 12.4127 62.6789 12.086C62.7069 11.778 62.6462 11.5867 62.4969 11.512C62.3569 11.4373 62.0535 11.4047 61.5869 11.414C61.0455 11.414 60.6629 11.5307 60.4389 11.764C60.2242 11.988 60.0562 12.4453 59.9349 13.136ZM68.1229 10.098V11.344C68.6269 10.84 69.0935 10.476 69.5229 10.252C69.9615 10.0187 70.4189 9.902 70.8949 9.902C71.3989 9.902 71.7955 10.014 72.0849 10.238C72.3742 10.462 72.5422 10.7793 72.5889 11.19C73.4569 10.3313 74.3249 9.902 75.1929 9.902C75.8275 9.902 76.2895 10.0793 76.5789 10.434C76.8775 10.7793 76.9849 11.2553 76.9009 11.862L76.1869 17H74.1289L74.7729 12.422C74.8102 12.1327 74.7869 11.932 74.7029 11.82C74.6189 11.708 74.4742 11.652 74.2689 11.652C74.0355 11.652 73.7882 11.7267 73.5269 11.876C73.2655 12.0253 72.9109 12.3007 72.4629 12.702L71.8609 17H69.8729L70.5029 12.422C70.5495 12.142 70.5355 11.946 70.4609 11.834C70.3862 11.7127 70.2369 11.652 70.0129 11.652C69.7702 11.652 69.5135 11.7267 69.2429 11.876C68.9815 12.016 68.6362 12.2727 68.2069 12.646L67.6049 17H65.5469L66.5129 10.098H68.1229ZM84.6045 17H82.9945L83.0085 15.754C82.2992 16.6687 81.3565 17.14 80.1805 17.168C79.3125 17.196 78.7245 16.916 78.4165 16.328C78.1179 15.7307 78.0665 14.76 78.2625 13.416C78.3559 12.7813 78.4865 12.2493 78.6545 11.82C78.8225 11.3813 79.0092 11.036 79.2145 10.784C79.4199 10.532 79.6859 10.3407 80.0125 10.21C80.3392 10.0793 80.6519 9.99533 80.9505 9.958C81.2585 9.92067 81.6459 9.902 82.1125 9.902C82.6072 9.902 83.1999 9.944 83.8905 10.028C84.5812 10.112 85.1319 10.21 85.5425 10.322L84.6045 17ZM83.3305 11.428H82.2665C81.5945 11.428 81.1372 11.5447 80.8945 11.778C80.6519 12.0113 80.4699 12.5667 80.3485 13.444C80.2272 14.3307 80.1992 14.9 80.2645 15.152C80.3299 15.3947 80.5305 15.5067 80.8665 15.488C81.4825 15.4787 82.1732 15.0447 82.9385 14.186L83.3305 11.428ZM89.9543 14.522L88.2883 13.836C87.7283 13.612 87.3363 13.3273 87.1123 12.982C86.8883 12.6367 86.809 12.2027 86.8743 11.68C86.949 11.0453 87.2243 10.588 87.7003 10.308C88.1857 10.028 88.9417 9.89267 89.9683 9.902C91.2377 9.92067 92.3017 10.014 93.1603 10.182L92.9643 11.498C91.1723 11.47 90.2623 11.456 90.2343 11.456C89.693 11.456 89.3337 11.4793 89.1563 11.526C88.979 11.5633 88.8763 11.6613 88.8483 11.82C88.8297 11.9787 88.8717 12.1 88.9743 12.184C89.0863 12.2587 89.2963 12.3567 89.6043 12.478L91.2983 13.15C91.8677 13.374 92.269 13.6447 92.5023 13.962C92.7357 14.2793 92.8197 14.704 92.7543 15.236C92.6983 15.6467 92.5863 15.9827 92.4183 16.244C92.2597 16.5053 92.0263 16.7013 91.7183 16.832C91.4103 16.9627 91.079 17.0467 90.7243 17.084C90.3697 17.1307 89.917 17.154 89.3663 17.154C88.5263 17.154 87.5137 17.07 86.3283 16.902L86.5243 15.572C86.8603 15.5907 87.593 15.6 88.7223 15.6C89.525 15.6 90.057 15.572 90.3183 15.516C90.5797 15.46 90.729 15.3387 90.7663 15.152C90.785 15.012 90.7477 14.9093 90.6543 14.844C90.5703 14.7787 90.3977 14.6947 90.1363 14.592C90.0617 14.564 90.001 14.5407 89.9543 14.522ZM110.856 7.34L108.028 16.454C107.916 16.818 107.654 17 107.244 17H105.228C105.041 17 104.878 16.9393 104.738 16.818C104.598 16.6873 104.523 16.5333 104.514 16.356L104.332 10.112V8.88H104.066C103.944 9.39333 103.837 9.80867 103.744 10.126L101.826 16.44C101.714 16.8133 101.448 17 101.028 17H98.9976C98.8109 17 98.6429 16.9393 98.4936 16.818C98.3536 16.6967 98.2836 16.5473 98.2836 16.37L97.9896 7.34H100.118V14.088C100.118 14.2467 100.108 14.4987 100.09 14.844C100.08 15.18 100.076 15.3947 100.076 15.488H100.356C100.402 15.292 100.538 14.7973 100.762 14.004L102.624 7.956C102.745 7.54533 103.016 7.34 103.436 7.34H105.242C105.438 7.34 105.596 7.41 105.718 7.55C105.848 7.68067 105.914 7.844 105.914 8.04L106.18 14.102C106.198 14.7087 106.203 15.1707 106.194 15.488H106.488C106.628 14.8533 106.744 14.368 106.838 14.032L108.686 7.34H110.856ZM117.035 15.362L117.175 16.678C116.401 17.0047 115.388 17.168 114.137 17.168C112.821 17.168 111.916 16.86 111.421 16.244C110.927 15.628 110.754 14.6807 110.903 13.402C111.071 12.058 111.454 11.1387 112.051 10.644C112.649 10.1493 113.601 9.902 114.907 9.902C116.121 9.902 116.942 10.1027 117.371 10.504C117.81 10.9053 117.973 11.498 117.861 12.282C117.768 12.9353 117.502 13.402 117.063 13.682C116.625 13.962 115.948 14.1347 115.033 14.2L112.989 14.354C112.999 14.8113 113.111 15.1193 113.325 15.278C113.549 15.4367 113.899 15.516 114.375 15.516C115.281 15.516 116.167 15.4647 117.035 15.362ZM113.115 13.136L114.725 12.982C115.099 12.954 115.369 12.8793 115.537 12.758C115.715 12.6367 115.822 12.4127 115.859 12.086C115.887 11.778 115.827 11.5867 115.677 11.512C115.537 11.4373 115.234 11.4047 114.767 11.414C114.226 11.414 113.843 11.5307 113.619 11.764C113.405 11.988 113.237 12.4453 113.115 13.136ZM122.143 7.2L121.835 9.594C121.761 10.1913 121.63 10.7373 121.443 11.232C122.358 10.3547 123.268 9.916 124.173 9.916C125.013 9.916 125.587 10.196 125.895 10.756C126.203 11.316 126.259 12.268 126.063 13.612C125.886 14.9187 125.522 15.8427 124.971 16.384C124.421 16.916 123.585 17.182 122.465 17.182C121.905 17.182 121.252 17.1307 120.505 17.028C119.768 16.9253 119.185 16.7947 118.755 16.636L120.085 7.2H122.143ZM121.401 12.618L120.981 15.628C121.579 15.6467 121.938 15.656 122.059 15.656C122.741 15.6467 123.198 15.5113 123.431 15.25C123.665 14.9887 123.847 14.396 123.977 13.472C124.08 12.6693 124.094 12.156 124.019 11.932C123.954 11.708 123.758 11.596 123.431 11.596C122.89 11.596 122.213 11.9367 121.401 12.618ZM133.052 10.098L133.024 11.428C133.434 11.008 133.896 10.6533 134.41 10.364C134.923 10.0747 135.427 9.93 135.922 9.93C136.734 9.93 137.294 10.2147 137.602 10.784C137.91 11.3533 137.97 12.3193 137.784 13.682C137.7 14.2793 137.583 14.7927 137.434 15.222C137.294 15.642 137.13 15.978 136.944 16.23C136.757 16.482 136.528 16.6827 136.258 16.832C135.996 16.972 135.73 17.0653 135.46 17.112C135.198 17.1587 134.886 17.182 134.522 17.182C133.84 17.182 133.154 17.1213 132.464 17C132.464 17.4387 132.431 17.8727 132.366 18.302L132.142 19.66H130.07L131.414 10.098H133.052ZM132.716 15.74H133.78C134.489 15.74 134.951 15.6233 135.166 15.39C135.39 15.1473 135.562 14.5687 135.684 13.654C135.796 12.7767 135.814 12.2167 135.74 11.974C135.674 11.722 135.483 11.596 135.166 11.596C134.923 11.596 134.615 11.6987 134.242 11.904C133.868 12.1093 133.495 12.3847 133.122 12.73L132.716 15.74ZM145.54 17H143.93L143.944 15.754C143.235 16.6687 142.292 17.14 141.116 17.168C140.248 17.196 139.66 16.916 139.352 16.328C139.054 15.7307 139.002 14.76 139.198 13.416C139.292 12.7813 139.422 12.2493 139.59 11.82C139.758 11.3813 139.945 11.036 140.15 10.784C140.356 10.532 140.622 10.3407 140.948 10.21C141.275 10.0793 141.588 9.99533 141.886 9.958C142.194 9.92067 142.582 9.902 143.048 9.902C143.543 9.902 144.136 9.944 144.826 10.028C145.517 10.112 146.068 10.21 146.478 10.322L145.54 17ZM144.266 11.428H143.202C142.53 11.428 142.073 11.5447 141.83 11.778C141.588 12.0113 141.406 12.5667 141.284 13.444C141.163 14.3307 141.135 14.9 141.2 15.152C141.266 15.3947 141.466 15.5067 141.802 15.488C142.418 15.4787 143.109 15.0447 143.874 14.186L144.266 11.428ZM153.34 9.902L152.878 11.82H152.374C152.085 11.82 151.777 11.8853 151.45 12.016C151.133 12.1373 150.671 12.3567 150.064 12.674L149.476 17H147.404L148.37 10.098H149.98V11.4C151.035 10.4013 152.015 9.902 152.92 9.902H153.34ZM160.05 17H158.44L158.454 15.754C157.745 16.6687 156.802 17.14 155.626 17.168C154.758 17.196 154.17 16.916 153.862 16.328C153.563 15.7307 153.512 14.76 153.708 13.416C153.801 12.7813 153.932 12.2493 154.1 11.82C154.268 11.3813 154.455 11.036 154.66 10.784C154.865 10.532 155.131 10.3407 155.458 10.21C155.785 10.0793 156.097 9.99533 156.396 9.958C156.704 9.92067 157.091 9.902 157.558 9.902C158.053 9.902 158.645 9.944 159.336 10.028C160.027 10.112 160.577 10.21 160.988 10.322L160.05 17ZM158.776 11.428H157.712C157.04 11.428 156.583 11.5447 156.34 11.778C156.097 12.0113 155.915 12.5667 155.794 13.444C155.673 14.3307 155.645 14.9 155.71 15.152C155.775 15.3947 155.976 15.5067 156.312 15.488C156.928 15.4787 157.619 15.0447 158.384 14.186L158.776 11.428ZM165.275 17L166.633 7.34C167.846 7.256 168.999 7.214 170.091 7.214C171.155 7.214 171.981 7.36333 172.569 7.662C173.157 7.96067 173.553 8.47867 173.759 9.216C173.973 9.95333 173.992 10.966 173.815 12.254C173.665 13.2993 173.474 14.1393 173.241 14.774C173.017 15.4087 172.699 15.9033 172.289 16.258C171.887 16.6033 171.435 16.8367 170.931 16.958C170.427 17.07 169.759 17.126 168.929 17.126C167.874 17.126 166.656 17.084 165.275 17ZM168.551 8.894L167.627 15.432C167.785 15.432 168.009 15.4367 168.299 15.446C168.588 15.446 168.789 15.446 168.901 15.446C169.349 15.446 169.703 15.4087 169.965 15.334C170.235 15.25 170.483 15.0913 170.707 14.858C170.931 14.6153 171.103 14.2747 171.225 13.836C171.355 13.3973 171.472 12.814 171.575 12.086C171.677 11.386 171.729 10.8353 171.729 10.434C171.738 10.0327 171.677 9.71067 171.547 9.468C171.425 9.22533 171.248 9.06667 171.015 8.992C170.781 8.91733 170.45 8.88 170.021 8.88L168.551 8.894ZM176.839 7.046H177.707C178.146 7.046 178.342 7.26067 178.295 7.69L178.197 8.446C178.141 8.81933 177.917 9.006 177.525 9.006H176.643C176.214 9.006 176.027 8.79133 176.083 8.362L176.181 7.62C176.218 7.23733 176.438 7.046 176.839 7.046ZM176.951 17H174.893L175.859 10.098H177.917L176.951 17ZM182.379 14.522L180.713 13.836C180.153 13.612 179.761 13.3273 179.537 12.982C179.313 12.6367 179.233 12.2027 179.299 11.68C179.373 11.0453 179.649 10.588 180.125 10.308C180.61 10.028 181.366 9.89267 182.393 9.902C183.662 9.92067 184.726 10.014 185.585 10.182L185.389 11.498C183.597 11.47 182.687 11.456 182.659 11.456C182.117 11.456 181.758 11.4793 181.581 11.526C181.403 11.5633 181.301 11.6613 181.273 11.82C181.254 11.9787 181.296 12.1 181.399 12.184C181.511 12.2587 181.721 12.3567 182.029 12.478L183.723 13.15C184.292 13.374 184.693 13.6447 184.927 13.962C185.16 14.2793 185.244 14.704 185.179 15.236C185.123 15.6467 185.011 15.9827 184.843 16.244C184.684 16.5053 184.451 16.7013 184.143 16.832C183.835 16.9627 183.503 17.0467 183.149 17.084C182.794 17.1307 182.341 17.154 181.791 17.154C180.951 17.154 179.938 17.07 178.753 16.902L178.949 15.572C179.285 15.5907 180.017 15.6 181.147 15.6C181.949 15.6 182.481 15.572 182.743 15.516C183.004 15.46 183.153 15.3387 183.191 15.152C183.209 15.012 183.172 14.9093 183.079 14.844C182.995 14.7787 182.822 14.6947 182.561 14.592C182.486 14.564 182.425 14.5407 182.379 14.522ZM189.892 11.484L189.43 14.788C189.393 15.0493 189.412 15.2267 189.486 15.32C189.57 15.404 189.752 15.446 190.032 15.446H190.956L191.054 16.902C190.56 17.0793 189.916 17.168 189.122 17.168C188.469 17.168 187.984 16.9907 187.666 16.636C187.349 16.272 187.237 15.7727 187.33 15.138L187.862 11.484H186.616L186.784 10.168L188.058 10.098L188.338 8.166H190.368L190.102 10.098H192.006L191.81 11.484H189.892ZM198.313 9.902L197.851 11.82H197.347C197.057 11.82 196.749 11.8853 196.423 12.016C196.105 12.1373 195.643 12.3567 195.037 12.674L194.449 17H192.377L193.343 10.098H194.953V11.4C196.007 10.4013 196.987 9.902 197.893 9.902H198.313ZM200.498 7.046H201.366C201.805 7.046 202.001 7.26067 201.954 7.69L201.856 8.446C201.8 8.81933 201.576 9.006 201.184 9.006H200.302C199.873 9.006 199.686 8.79133 199.742 8.362L199.84 7.62C199.878 7.23733 200.097 7.046 200.498 7.046ZM200.61 17H198.552L199.518 10.098H201.576L200.61 17ZM205.968 7.2L205.66 9.594C205.585 10.1913 205.455 10.7373 205.268 11.232C206.183 10.3547 207.093 9.916 207.998 9.916C208.838 9.916 209.412 10.196 209.72 10.756C210.028 11.316 210.084 12.268 209.888 13.612C209.711 14.9187 209.347 15.8427 208.796 16.384C208.245 16.916 207.41 17.182 206.29 17.182C205.73 17.182 205.077 17.1307 204.33 17.028C203.593 16.9253 203.009 16.7947 202.58 16.636L203.91 7.2H205.968ZM205.226 12.618L204.806 15.628C205.403 15.6467 205.763 15.656 205.884 15.656C206.565 15.6467 207.023 15.5113 207.256 15.25C207.489 14.9887 207.671 14.396 207.802 13.472C207.905 12.6693 207.919 12.156 207.844 11.932C207.779 11.708 207.583 11.596 207.256 11.596C206.715 11.596 206.038 11.9367 205.226 12.618ZM218.541 10.098L217.589 17H215.993V15.698C214.966 16.6873 213.972 17.182 213.011 17.182C212.348 17.182 211.863 17.0093 211.555 16.664C211.256 16.3187 211.154 15.8427 211.247 15.236L211.961 10.098H214.033L213.375 14.676C213.338 14.956 213.356 15.1567 213.431 15.278C213.515 15.39 213.669 15.446 213.893 15.446C214.192 15.446 214.481 15.3667 214.761 15.208C215.05 15.0493 215.433 14.7693 215.909 14.368L216.497 10.098H218.541ZM221.456 7.046H222.324C222.763 7.046 222.959 7.26067 222.912 7.69L222.814 8.446C222.758 8.81933 222.534 9.006 222.142 9.006H221.26C220.831 9.006 220.644 8.79133 220.7 8.362L220.798 7.62C220.835 7.23733 221.055 7.046 221.456 7.046ZM221.568 17H219.51L220.476 10.098H222.534L221.568 17ZM231.503 7.2L230.117 17H228.493V15.74C227.56 16.692 226.603 17.168 225.623 17.168C224.849 17.168 224.298 16.874 223.971 16.286C223.645 15.698 223.57 14.7413 223.747 13.416C223.85 12.6787 223.995 12.072 224.181 11.596C224.368 11.12 224.601 10.7653 224.881 10.532C225.171 10.2893 225.465 10.126 225.763 10.042C226.071 9.94867 226.435 9.902 226.855 9.902C227.593 9.902 228.335 9.96267 229.081 10.084C229.1 9.50533 229.133 9.05267 229.179 8.726L229.431 7.2H231.503ZM228.829 11.358H227.723C227.042 11.358 226.589 11.4793 226.365 11.722C226.141 11.9553 225.969 12.5293 225.847 13.444C225.735 14.2187 225.712 14.746 225.777 15.026C225.843 15.2967 226.043 15.4273 226.379 15.418C226.715 15.4087 227.033 15.3247 227.331 15.166C227.639 14.998 227.999 14.732 228.409 14.368L228.829 11.358ZM236.139 9.902C237.417 9.902 238.309 10.1913 238.813 10.77C239.317 11.3487 239.475 12.3053 239.289 13.64C239.111 14.9373 238.724 15.852 238.127 16.384C237.539 16.916 236.619 17.182 235.369 17.182C234.099 17.182 233.203 16.8927 232.681 16.314C232.167 15.7353 232.004 14.788 232.191 13.472C232.377 12.1653 232.765 11.246 233.353 10.714C233.941 10.1727 234.869 9.902 236.139 9.902ZM236.125 11.456C235.555 11.456 235.145 11.6007 234.893 11.89C234.65 12.1793 234.468 12.7627 234.347 13.64C234.235 14.4427 234.249 14.9747 234.389 15.236C234.529 15.4973 234.869 15.628 235.411 15.628C235.971 15.628 236.372 15.4833 236.615 15.194C236.857 14.8953 237.039 14.3213 237.161 13.472C237.282 12.6693 237.268 12.1327 237.119 11.862C236.979 11.5913 236.647 11.456 236.125 11.456ZM246.334 9.902L245.872 11.82H245.368C245.078 11.82 244.77 11.8853 244.444 12.016C244.126 12.1373 243.664 12.3567 243.058 12.674L242.47 17H240.398L241.364 10.098H242.974V11.4C244.028 10.4013 245.008 9.902 245.914 9.902H246.334ZM252.819 15.362L252.959 16.678C252.184 17.0047 251.171 17.168 249.921 17.168C248.605 17.168 247.699 16.86 247.205 16.244C246.71 15.628 246.537 14.6807 246.687 13.402C246.855 12.058 247.237 11.1387 247.835 10.644C248.432 10.1493 249.384 9.902 250.691 9.902C251.904 9.902 252.725 10.1027 253.155 10.504C253.593 10.9053 253.757 11.498 253.645 12.282C253.551 12.9353 253.285 13.402 252.847 13.682C252.408 13.962 251.731 14.1347 250.817 14.2L248.773 14.354C248.782 14.8113 248.894 15.1193 249.109 15.278C249.333 15.4367 249.683 15.516 250.159 15.516C251.064 15.516 251.951 15.4647 252.819 15.362ZM248.899 13.136L250.509 12.982C250.882 12.954 251.153 12.8793 251.321 12.758C251.498 12.6367 251.605 12.4127 251.643 12.086C251.671 11.778 251.61 11.5867 251.461 11.512C251.321 11.4373 251.017 11.4047 250.551 11.414C250.009 11.414 249.627 11.5307 249.403 11.764C249.188 11.988 249.02 12.4453 248.899 13.136ZM257.997 14.522L256.331 13.836C255.771 13.612 255.379 13.3273 255.155 12.982C254.931 12.6367 254.851 12.2027 254.917 11.68C254.991 11.0453 255.267 10.588 255.743 10.308C256.228 10.028 256.984 9.89267 258.011 9.902C259.28 9.92067 260.344 10.014 261.203 10.182L261.007 11.498C259.215 11.47 258.305 11.456 258.277 11.456C257.735 11.456 257.376 11.4793 257.199 11.526C257.021 11.5633 256.919 11.6613 256.891 11.82C256.872 11.9787 256.914 12.1 257.017 12.184C257.129 12.2587 257.339 12.3567 257.647 12.478L259.341 13.15C259.91 13.374 260.311 13.6447 260.545 13.962C260.778 14.2793 260.862 14.704 260.797 15.236C260.741 15.6467 260.629 15.9827 260.461 16.244C260.302 16.5053 260.069 16.7013 259.761 16.832C259.453 16.9627 259.121 17.0467 258.767 17.084C258.412 17.1307 257.959 17.154 257.409 17.154C256.569 17.154 255.556 17.07 254.371 16.902L254.567 15.572C254.903 15.5907 255.635 15.6 256.765 15.6C257.567 15.6 258.099 15.572 258.361 15.516C258.622 15.46 258.771 15.3387 258.809 15.152C258.827 15.012 258.79 14.9093 258.697 14.844C258.613 14.7787 258.44 14.6947 258.179 14.592C258.104 14.564 258.043 14.5407 257.997 14.522Z" fill="white"/>
</svg>
