<svg width="32" height="23" viewBox="0 0 32 23" fill="none" xmlns="http://www.w3.org/2000/svg">
<path d="M5.61523 13.9809V16.0001H22.9231V1H5.61523V3.16348" stroke="#F07E26" stroke-width="2" stroke-linecap="round" stroke-linejoin="round"/>
<path d="M22.9229 6.76929H27.5383L30.9998 10.2309V16.0001H22.9229V6.76929Z" stroke="#F07E26" stroke-width="2" stroke-linecap="round" stroke-linejoin="round"/>
<path d="M10.8075 21.7693C12.4006 21.7693 13.6921 20.4778 13.6921 18.8846C13.6921 17.2915 12.4006 16 10.8075 16C9.21435 16 7.92285 17.2915 7.92285 18.8846C7.92285 20.4778 9.21435 21.7693 10.8075 21.7693Z" stroke="#F07E26" stroke-width="2" stroke-linecap="round" stroke-linejoin="round"/>
<path d="M25.8075 21.7693C27.4006 21.7693 28.6921 20.4778 28.6921 18.8846C28.6921 17.2915 27.4006 16 25.8075 16C24.2143 16 22.9229 17.2915 22.9229 18.8846C22.9229 20.4778 24.2143 21.7693 25.8075 21.7693Z" stroke="#F07E26" stroke-width="2" stroke-linecap="round" stroke-linejoin="round"/>
<path d="M7.92267 8.79834L3.5957 8.79834" stroke="#1F3D8C" stroke-width="2" stroke-linecap="round" stroke-linejoin="round"/>
<path d="M7.92314 6.19238L1 6.19238" stroke="#1F3D8C" stroke-width="2" stroke-linecap="round" stroke-linejoin="round"/>
<path d="M7.92317 11.4043L6.19238 11.4043" stroke="#1F3D8C" stroke-width="2" stroke-linecap="round" stroke-linejoin="round"/>
</svg>
