<svg width="44" height="44" viewBox="0 0 44 44" fill="none" xmlns="http://www.w3.org/2000/svg">
<path d="M21.9998 35.3334C29.3636 35.3334 35.3332 29.3639 35.3332 22.0001C35.3332 14.6363 29.3636 8.66675 21.9998 8.66675C14.636 8.66675 8.6665 14.6363 8.6665 22.0001C8.6665 29.3639 14.636 35.3334 21.9998 35.3334Z" stroke="#F07E26" stroke-width="2.5" stroke-linecap="round" stroke-linejoin="round"/>
<path d="M8.6665 22H35.3332" stroke="#F07E26" stroke-width="2.5" stroke-linecap="round" stroke-linejoin="round"/>
<path d="M21.9998 8.66675C25.3349 12.3179 27.2302 17.0561 27.3332 22.0001C27.2302 26.944 25.3349 31.6823 21.9998 35.3334C18.6648 31.6823 16.7695 26.944 16.6665 22.0001C16.7695 17.0561 18.6648 12.3179 21.9998 8.66675V8.66675Z" stroke="#F07E26" stroke-width="2.5" stroke-linecap="round" stroke-linejoin="round"/>
<path d="M13.1111 2H6.44444C5.2657 2 4.13524 2.46825 3.30175 3.30175C2.46825 4.13524 2 5.2657 2 6.44444V13.1111M42 13.1111V6.44444C42 5.2657 41.5317 4.13524 40.6983 3.30175C39.8648 2.46825 38.7343 2 37.5556 2H30.8889M30.8889 42H37.5556C38.7343 42 39.8648 41.5317 40.6983 40.6983C41.5317 39.8648 42 38.7343 42 37.5556V30.8889M2 30.8889V37.5556C2 38.7343 2.46825 39.8648 3.30175 40.6983C4.13524 41.5317 5.2657 42 6.44444 42H13.1111" stroke="#1F3D8C" stroke-width="2.5" stroke-linecap="round" stroke-linejoin="round"/>
</svg>
