<svg width="22" height="22" viewBox="0 0 22 22" fill="none" xmlns="http://www.w3.org/2000/svg">
<path d="M14.2974 1.95239V7.66671H20.0423" stroke="#6E3784" stroke-width="2" stroke-linecap="round" stroke-linejoin="round"/>
<path d="M20.9998 1L14.2974 7.66671" stroke="#6E3784" stroke-width="2" stroke-linecap="round" stroke-linejoin="round"/>
<path d="M20.1491 16.2133V19.0807C20.1502 19.3469 20.0953 19.6104 19.9878 19.8543C19.8804 20.0982 19.7229 20.3172 19.5253 20.4971C19.3277 20.6771 19.0944 20.8141 18.8404 20.8994C18.5863 20.9847 18.3172 21.0163 18.0501 20.9924C15.0873 20.6728 12.2413 19.6677 9.74079 18.058C7.4144 16.5905 5.44202 14.6325 3.96374 12.3231C2.33652 9.82957 1.32386 6.99059 1.00782 4.03617C0.983754 3.77185 1.0154 3.50546 1.10073 3.25395C1.18606 3.00244 1.32321 2.77132 1.50345 2.57532C1.68369 2.37931 1.90307 2.2227 2.14762 2.11547C2.39217 2.00824 2.65653 1.95274 2.92387 1.95249H5.81239C6.27967 1.94792 6.73267 2.11218 7.08697 2.41465C7.44126 2.71713 7.67268 3.13717 7.73808 3.59649C7.85999 4.51414 8.0861 5.41515 8.41207 6.28234C8.54161 6.62445 8.56965 6.99625 8.49285 7.35369C8.41606 7.71114 8.23766 8.03924 7.97879 8.29911L6.75598 9.513C8.12664 11.9059 10.1225 13.8872 12.533 15.2479L13.7558 14.034C14.0176 13.777 14.3481 13.5999 14.7082 13.5237C15.0683 13.4475 15.4428 13.4753 15.7874 13.6039C16.661 13.9275 17.5686 14.1519 18.493 14.273C18.9607 14.3385 19.3879 14.5723 19.6932 14.9301C19.9986 15.2878 20.1608 15.7445 20.1491 16.2133Z" stroke="#F07E26" stroke-width="2" stroke-linecap="round" stroke-linejoin="round"/>
</svg>
