<svg width="26" height="32" viewBox="0 0 26 32" fill="none" xmlns="http://www.w3.org/2000/svg">
<path opacity="0.2" d="M22.5882 0H2.78867C1.2549 0 0 1.32462 0 2.9281V21.6819C0 22.658 0.488017 23.5643 1.2549 24.122L12.7582 32L24.2614 24.122C25.0283 23.634 25.5163 22.7277 25.5163 21.6819V2.9281C25.4466 1.32462 24.1917 0 22.5882 0ZM12.6885 6.34423C15.1285 6.34423 17.1503 8.36601 17.1503 10.8061C17.1503 13.2462 15.1285 15.268 12.6885 15.268C10.2484 15.268 8.22658 13.2462 8.22658 10.8061C8.22658 8.36601 10.2484 6.34423 12.6885 6.34423ZM18.8932 21.7516C17.4292 23.3551 15.4074 24.7495 12.6885 25.5861C9.9695 24.7495 7.94771 23.4248 6.48366 21.7516V18.963L9.20261 17.22L12.6885 19.7996L16.1743 17.22L18.8932 18.963V21.7516Z" fill="#A8AABA"/>
</svg>
