<svg width="41" height="44" viewBox="0 0 41 44" fill="none" xmlns="http://www.w3.org/2000/svg">
<path d="M20.0164 15.6745V14.1551C20.0164 13.3492 19.6962 12.5762 19.1263 12.0064C18.5565 11.4365 17.7835 11.1163 16.9776 11.1163H10.9001C10.0942 11.1163 9.32124 11.4365 8.75136 12.0064C8.18148 12.5762 7.86133 13.3492 7.86133 14.1551V15.6745" stroke="#F07E26" stroke-width="2.5" stroke-linecap="round" stroke-linejoin="round"/>
<path d="M13.9396 8.07752C15.6179 8.07752 16.9784 6.71702 16.9784 5.03876C16.9784 3.3605 15.6179 2 13.9396 2C12.2614 2 10.9009 3.3605 10.9009 5.03876C10.9009 6.71702 12.2614 8.07752 13.9396 8.07752Z" stroke="#F07E26" stroke-width="2.5" stroke-linecap="round" stroke-linejoin="round"/>
<path d="M34.6668 42.0465V40.5272C34.6668 39.7212 34.3466 38.9483 33.7767 38.3784C33.2068 37.8086 32.4339 37.4884 31.628 37.4884H25.5505C24.7445 37.4884 23.9716 37.8086 23.4018 38.3784C22.8319 38.9483 22.5117 39.7212 22.5117 40.5272V42.0465" stroke="#1F3D8C" stroke-width="2.5" stroke-linecap="round" stroke-linejoin="round"/>
<path d="M28.59 34.4496C30.2683 34.4496 31.6288 33.0891 31.6288 31.4108C31.6288 29.7326 30.2683 28.3721 28.59 28.3721C26.9118 28.3721 25.5513 29.7326 25.5513 31.4108C25.5513 33.0891 26.9118 34.4496 28.59 34.4496Z" stroke="#1F3D8C" stroke-width="2.5" stroke-linecap="round" stroke-linejoin="round"/>
<path opacity="0.4" d="M27.5613 8.25562C31.5301 9.87287 34.8169 12.8139 36.8635 16.5794C38.9101 20.3448 39.5904 24.7025 38.7888 28.9126" stroke="#1F3D8C" stroke-width="2.5" stroke-linecap="round" stroke-linejoin="round"/>
<path opacity="0.4" d="M13.5554 42.6279C9.58661 41.0107 6.29984 38.0696 4.25324 34.3042C2.20663 30.5388 1.52634 26.181 2.32789 21.971" stroke="#1F3D8C" stroke-width="2.5" stroke-linecap="round" stroke-linejoin="round"/>
</svg>
