<svg xmlns="http://www.w3.org/2000/svg" width="93" height="99" viewBox="0 0 93 99">
    <defs>
        <linearGradient id="a" x1="50%" x2="50%" y1="0%" y2="100%">
            <stop offset="0%" stop-color="#FFF"/>
            <stop offset="100%" stop-color="#ECC4C6"/>
        </linearGradient>
    </defs>
    <g fill="none" fill-rule="evenodd">
        <path fill="url(#a)" d="M53.192 93.128l-5.277 5.284a2 2 0 0 1-2.83 0l-5.277-5.284H6a6 6 0 0 1-6-6V6a6 6 0 0 1 6-6h81a6 6 0 0 1 6 6v81.128a6 6 0 0 1-6 6H53.192z"/>
        <g fill-rule="nonzero" transform="translate(29 31)">
            <path fill="#2D3F89" stroke="#2D3F89" stroke-width=".96" d="M33.267 0H2.137A2.136 2.136 0 0 0 0 2.129v21.408c0 1.174.959 2.13 2.137 2.13h10.667v1.548c0 1.42-1.16 2.576-2.585 2.576H7.868a.815.815 0 0 0-.816.813c0 .449.365.813.816.813h19.668c.451 0 .816-.364.816-.813a.815.815 0 0 0-.816-.813h-2.35a2.583 2.583 0 0 1-2.586-2.576v-1.549h10.667a2.136 2.136 0 0 0 2.137-2.129V2.13A2.135 2.135 0 0 0 33.267 0zm-19.72 29.79a4.169 4.169 0 0 0 .89-2.574v-1.55h6.53v1.55c0 .97.333 1.863.89 2.575h-8.31zm20.225-6.253a.505.505 0 0 1-.505.504H2.137a.505.505 0 0 1-.505-.504v-4.272h32.14v4.272zm0-5.898H1.632V2.129c0-.277.227-.503.505-.503h31.13c.278 0 .505.225.505.503v15.51z"/>
            <ellipse cx="17.702" cy="21.653" fill="#2D3F89" rx="1" ry="1"/>
            <path fill="#EF7D25" d="M19.102 5.6a.819.819 0 0 0-1.155 0l-5.768 5.746a.81.81 0 0 0 .577 1.388c.21 0 .418-.08.578-.238l5.768-5.745a.81.81 0 0 0 0-1.15zM22.52 8.93a.819.819 0 0 0-1.154 0l-2.298 2.289a.81.81 0 0 0 .577 1.388c.21 0 .418-.08.577-.238l2.298-2.289a.81.81 0 0 0 0-1.15z"/>
        </g>
    </g>
</svg>
