<svg width="28" height="25" viewBox="0 0 28 25" fill="none" xmlns="http://www.w3.org/2000/svg">
<g clip-path="url(#clip0)">
<path d="M23.7998 4.19998C23.782 4.16893 23.7582 4.14174 23.7298 4.11998L23.6498 4.04998C22.3714 2.76618 20.8519 1.7475 19.1788 1.05241C17.5056 0.357324 15.7116 -0.000488281 13.8998 -0.000488281C12.088 -0.000488281 10.2941 0.357324 8.62089 1.05241C6.94772 1.7475 5.4283 2.76618 4.14983 4.04998L4.06983 4.11998L4.34983 4.39998L4.06983 4.12998C4.04238 4.1488 4.01865 4.17253 3.99983 4.19998C1.41712 6.85248 -0.0222773 10.4121 -0.00918886 14.1143C0.00389959 17.8164 1.46843 21.3658 4.06983 24V24L4.34983 23.72L4.06983 24C4.25677 24.175 4.50374 24.2716 4.75983 24.27C4.9078 24.285 5.05728 24.2688 5.19856 24.2222C5.33984 24.1757 5.46974 24.1 5.57983 24V24L7.62983 21.93L7.33983 21.65L7.62983 21.93C7.82711 21.7282 7.93757 21.4572 7.93757 21.175C7.93757 20.8928 7.82711 20.6218 7.62983 20.42L7.33983 20.7L7.62983 20.42C7.5312 20.3199 7.41367 20.2404 7.28405 20.1862C7.15444 20.1319 7.01533 20.104 6.87483 20.104C6.73432 20.104 6.59521 20.1319 6.4656 20.1862C6.33599 20.2404 6.21845 20.3199 6.11983 20.42L4.82983 21.72C3.29432 19.859 2.36289 17.5741 2.15983 15.17H3.99983C4.28759 15.17 4.56356 15.0557 4.76704 14.8522C4.97052 14.6487 5.08483 14.3727 5.08483 14.085C5.08483 13.7972 4.97052 13.5212 4.76704 13.3178C4.56356 13.1143 4.28759 13 3.99983 13H2.18983C2.39563 10.5917 3.3305 8.30342 4.86983 6.43998L6.14983 7.72998C6.24775 7.83129 6.36505 7.91186 6.49476 7.96688C6.62447 8.02191 6.76393 8.05027 6.90483 8.05027C7.04573 8.05027 7.18518 8.02191 7.31489 7.96688C7.4446 7.91186 7.56191 7.83129 7.65983 7.72998V7.72998L7.46983 7.53998L7.36983 7.44998L7.65983 7.72998C7.85711 7.52818 7.96757 7.25718 7.96757 6.97498C7.96757 6.69277 7.85711 6.42177 7.65983 6.21997V6.21997L6.36983 4.91998C8.19733 3.37257 10.4556 2.42318 12.8398 2.19998V3.99998C12.8398 4.28641 12.9536 4.56111 13.1562 4.76365C13.3587 4.96619 13.6334 5.07998 13.9198 5.07998C14.2063 5.07998 14.481 4.96619 14.6835 4.76365C14.886 4.56111 14.9998 4.28641 14.9998 3.99998V2.19998C17.384 2.42318 19.6423 3.37257 21.4698 4.91998L20.1798 6.21997L20.4698 6.49998L20.3698 6.40998L20.1798 6.21997C19.9825 6.42177 19.8721 6.69277 19.8721 6.97498C19.8721 7.25718 19.9825 7.52818 20.1798 7.72998C20.2777 7.83129 20.3951 7.91186 20.5248 7.96688C20.6545 8.02191 20.7939 8.05027 20.9348 8.05027C21.0757 8.05027 21.2152 8.02191 21.3449 7.96688C21.4746 7.91186 21.5919 7.83129 21.6898 7.72998L22.9698 6.43998C24.4947 8.3083 25.4155 10.5962 25.6098 13H23.7998C23.516 13 23.2439 13.1127 23.0432 13.3134C22.8426 13.514 22.7298 13.7862 22.7298 14.07C22.7298 14.3538 22.8426 14.6259 23.0432 14.8266C23.2439 15.0272 23.516 15.14 23.7998 15.14H25.6098C25.4068 17.5441 24.4753 19.829 22.9398 21.69L21.6498 20.39C21.5512 20.2899 21.4337 20.2104 21.3041 20.1562C21.1744 20.1019 21.0353 20.074 20.8948 20.074C20.7543 20.074 20.6152 20.1019 20.4856 20.1562C20.356 20.2104 20.2385 20.2899 20.1398 20.39L20.4298 20.67L20.1398 20.39C19.9425 20.5918 19.8321 20.8628 19.8321 21.145C19.8321 21.4272 19.9425 21.6982 20.1398 21.9L22.2198 24C22.319 24.1009 22.4373 24.1812 22.5678 24.2361C22.6982 24.2911 22.8383 24.3196 22.9798 24.32C23.1169 24.3176 23.2524 24.2905 23.3798 24.24C23.5136 24.1883 23.6335 24.1062 23.7298 24L23.4598 23.74L23.7398 24.02C26.3459 21.3836 27.8124 17.8293 27.8237 14.1222C27.8349 10.4152 26.3899 6.85208 23.7998 4.19998V4.19998Z" fill="#405B9A"/>
<path d="M20.1396 20.3699L20.4296 20.6499L20.1396 20.3699Z" fill="#405B9A"/>
<path d="M18.1001 9.51993C18.1796 9.39747 18.2334 9.26015 18.2583 9.11629C18.2833 8.97243 18.2788 8.82501 18.2451 8.68293C18.2115 8.54086 18.1494 8.40708 18.0626 8.28969C17.9758 8.17229 17.866 8.07372 17.7401 7.99993L17.5301 8.33993L17.7401 7.99993C17.621 7.92592 17.4884 7.87648 17.35 7.85452C17.2116 7.83256 17.0702 7.83854 16.9341 7.87209C16.7981 7.90564 16.6701 7.96609 16.5578 8.04987C16.4454 8.13365 16.351 8.23908 16.2801 8.35993V8.35993L13.7301 12.5599C13.2058 12.4679 12.6663 12.5251 12.173 12.7249C11.6797 12.9247 11.2525 13.2591 10.9401 13.6899L11.2701 13.9199L10.9401 13.6899C10.6092 14.1563 10.4152 14.7058 10.3799 15.2764C10.3446 15.8471 10.4693 16.4163 10.7401 16.9199C10.8091 17.0578 10.8966 17.1856 11.0001 17.2999C11.4652 17.8174 12.0868 18.1685 12.7701 18.2999C13.2942 18.3896 13.8329 18.3313 14.3257 18.1317C14.8186 17.9321 15.246 17.599 15.5601 17.1699V17.1699C15.8907 16.7016 16.0845 16.1505 16.1198 15.5783C16.1551 15.0061 16.0306 14.4354 15.7601 13.9299V13.9299C15.7058 13.837 15.6421 13.7499 15.5701 13.6699L18.1001 9.51993ZM12.6501 14.9999C12.7322 14.8879 12.8443 14.8014 12.9734 14.7501C13.1025 14.6988 13.2434 14.6849 13.3801 14.7099C13.4705 14.7278 13.5579 14.7581 13.6401 14.7999L13.8401 14.9599C13.919 15.0986 13.9604 15.2554 13.9604 15.4149C13.9604 15.5745 13.919 15.7313 13.8401 15.8699C13.7599 15.9846 13.6485 16.0739 13.5191 16.1271C13.3897 16.1803 13.2477 16.1951 13.1101 16.1699C12.9178 16.1245 12.7415 16.0277 12.6001 15.8899C12.5212 15.7494 12.4798 15.591 12.4798 15.4299C12.4798 15.2688 12.5212 15.1104 12.6001 14.9699V14.9699L12.3901 14.8099L12.2801 14.7299L12.6501 14.9999Z" fill="#E4B263"/>
</g>
<defs>
<clipPath id="clip0">
<rect width="27.8" height="24.3" fill="white"/>
</clipPath>
</defs>
</svg>
