<svg width="140" height="25" viewBox="0 0 140 25" fill="none" xmlns="http://www.w3.org/2000/svg">
<path d="M5.23577 13.374H0.97561C0.422764 13.374 0 13.7968 0 14.3496V19.2277C0 19.7805 0.422764 20.2033 0.97561 20.2033H5.23577C5.78862 20.2033 6.21138 19.748 6.21138 19.2277V14.3496C6.21138 13.8293 5.78862 13.374 5.23577 13.374Z" fill="white"/>
<path d="M14.309 7.84546H10.0489C9.49601 7.84546 9.07324 8.26822 9.07324 8.82107V19.2601C9.07324 19.8129 9.49601 20.2357 10.0489 20.2357H14.309C14.8619 20.2357 15.2846 19.7804 15.2846 19.2601V8.82107C15.2846 8.26822 14.8619 7.84546 14.309 7.84546Z" fill="white"/>
<path d="M23.3826 2.25195H19.0899C18.537 2.25195 18.1143 2.67472 18.1143 3.22756V19.2276C18.1143 19.7804 18.537 20.2032 19.0899 20.2032H23.35C23.9029 20.2032 24.3256 19.7479 24.3256 19.2276V3.22756C24.3582 2.70724 23.9029 2.25195 23.3826 2.25195Z" fill="white"/>
<path d="M8.84525 4.49593H11.0566C11.2518 4.49593 11.3493 4.26829 11.2192 4.13821L7.12168 0.0731707C7.02412 -0.0243902 6.89403 -0.0243902 6.82899 0.0731707L2.76395 4.13821C2.63387 4.26829 2.73143 4.49593 2.92656 4.49593H5.17046C5.26802 4.49593 5.36558 4.56098 5.36558 4.69106C5.46314 5.37398 4.22737 8.7561 0.194848 9.34146C-0.0653142 9.37398 -0.0327939 9.73171 0.194848 9.76423C3.02412 10.0244 8.48753 8.9187 8.65013 4.72358C8.65013 4.5935 8.71517 4.49593 8.84525 4.49593Z" fill="white"/>
<path d="M38.7971 5.43899L37.3336 4.85362C36.7808 4.62598 36.3906 4.3333 36.1954 3.94305C36.0003 3.58533 35.9353 3.13005 36.0003 2.54468C36.0979 1.73167 36.3906 1.17883 36.8458 0.886143C37.3011 0.59346 38.0166 0.463379 38.9922 0.463379C39.9678 0.463379 40.8133 0.56094 41.5288 0.788582L41.3662 1.95931C40.6832 1.92679 39.9027 1.92679 38.9597 1.92679C38.5044 1.92679 38.1792 1.95931 38.0166 2.02435C37.854 2.08939 37.7564 2.31704 37.6914 2.67476C37.6588 2.93492 37.6588 3.09753 37.7564 3.19509C37.8214 3.29265 38.0166 3.39021 38.3093 3.52029L39.7076 4.07313C40.293 4.30078 40.6832 4.59346 40.8784 4.95118C41.0735 5.30891 41.106 5.76419 41.041 6.38208C40.9434 7.22761 40.6507 7.81297 40.228 8.10565C39.8052 8.39834 39.0572 8.56094 37.9841 8.56094C37.106 8.56094 36.228 8.46338 35.3174 8.26826L35.5125 7.03248C37.106 7.065 37.919 7.09752 37.919 7.09752C38.4393 7.09752 38.7971 7.03248 38.9922 6.93492C39.1873 6.83736 39.2849 6.60972 39.3499 6.28452C39.3824 6.02435 39.3499 5.86175 39.2849 5.76419C39.2198 5.66663 39.0572 5.53655 38.7971 5.43899Z" fill="white"/>
<path d="M43.5765 8.36567H41.918L42.6985 2.83722H44.357L43.5765 8.36567ZM43.4789 0.398193H44.1619C44.5196 0.398193 44.6822 0.560795 44.6497 0.918518L44.5846 1.5364C44.5521 1.82909 44.357 1.99169 44.0318 1.99169H43.3163C42.9586 1.99169 42.8285 1.82909 42.8611 1.47136L42.9261 0.885998C42.9911 0.528275 43.1537 0.398193 43.4789 0.398193Z" fill="white"/>
<path d="M47.7725 6.38212L46.4392 5.82928C45.9839 5.63415 45.6587 5.40651 45.4961 5.14635C45.301 4.85367 45.2359 4.52846 45.301 4.1057C45.366 3.58537 45.5937 3.22765 45.9839 3.00001C46.3742 2.77237 46.9595 2.6748 47.8051 2.6748C48.8132 2.6748 49.6912 2.77237 50.3742 2.90245L50.2116 3.9431C48.7807 3.91058 48.0327 3.91058 48.0327 3.91058C47.6099 3.91058 47.3172 3.9431 47.1546 3.97562C47.0246 4.00814 46.927 4.1057 46.8945 4.20326C46.8945 4.33334 46.927 4.4309 46.992 4.49594C47.0896 4.56098 47.2522 4.62602 47.4799 4.72359L48.8457 5.27643C49.301 5.47155 49.6262 5.66667 49.8213 5.92684C50.0164 6.187 50.0815 6.5122 50.0164 6.93497C49.9839 7.26017 49.8864 7.52033 49.7563 7.74797C49.6262 7.9431 49.4311 8.1057 49.2034 8.23578C48.9433 8.33334 48.6831 8.39838 48.3904 8.4309C48.0977 8.46342 47.74 8.49594 47.2847 8.49594C46.6018 8.49594 45.7888 8.4309 44.8457 8.30082L45.0083 7.22765C45.2685 7.22765 45.8538 7.26017 46.7644 7.26017C47.4148 7.26017 47.8376 7.22765 48.0327 7.19513C48.2278 7.16261 48.3579 7.06505 48.3904 6.90245C48.3904 6.80489 48.3904 6.70732 48.2929 6.64228C48.2278 6.57724 48.0652 6.5122 47.8701 6.44716C47.8701 6.41464 47.8051 6.41464 47.7725 6.38212Z" fill="white"/>
<path d="M53.6273 3.94298L53.2696 6.60965C53.2371 6.80477 53.2696 6.96737 53.3346 7.03241C53.3997 7.09746 53.5297 7.12998 53.7574 7.12998H54.5054L54.5704 8.30071C54.1802 8.43079 53.6598 8.52835 53.0094 8.52835C52.4891 8.52835 52.0989 8.39827 51.8387 8.10559C51.5785 7.8129 51.481 7.42266 51.5785 6.90233L52.0013 3.9755H50.9932L51.1232 2.93485L52.1314 2.86981L52.359 1.30884H53.985L53.7574 2.86981H55.2858L55.1232 3.9755H53.6273V3.94298Z" fill="white"/>
<path d="M60.5532 7.065L60.6508 8.13817C60.0329 8.39833 59.2199 8.52841 58.2118 8.52841C57.1711 8.52841 56.4232 8.26825 56.0329 7.78044C55.6427 7.29264 55.5126 6.51215 55.6101 5.50402C55.7402 4.43085 56.0654 3.68288 56.5207 3.29264C57.0085 2.9024 57.7565 2.70728 58.8297 2.70728C59.8053 2.70728 60.4557 2.86988 60.8134 3.19508C61.1711 3.52028 61.3012 4.00809 61.2036 4.62597C61.1386 5.1463 60.911 5.53654 60.5532 5.76419C60.1955 5.99183 59.6427 6.12191 58.9272 6.18695L57.3012 6.31703C57.3012 6.67475 57.3988 6.93492 57.5614 7.065C57.724 7.19508 58.0167 7.26012 58.4069 7.26012C59.1549 7.19508 59.8703 7.13004 60.5532 7.065ZM57.4313 5.27638L58.7321 5.1463C59.0248 5.11378 59.2524 5.04874 59.3825 4.95118C59.5126 4.85362 59.6101 4.65849 59.6427 4.39833C59.6752 4.13817 59.6101 4.00809 59.5126 3.94305C59.3825 3.87801 59.1549 3.84549 58.7646 3.87801C58.3419 3.87801 58.0167 3.97557 57.854 4.13817C57.6589 4.36581 57.5288 4.72354 57.4313 5.27638Z" fill="white"/>
<path d="M63.8372 2.83736V3.84549C64.2274 3.45524 64.6177 3.16256 64.9754 2.96744C65.3331 2.77232 65.6908 2.70728 66.0811 2.70728C66.4713 2.70728 66.7965 2.80484 67.0242 2.96744C67.2518 3.16256 67.3819 3.3902 67.4144 3.74793C68.0973 3.065 68.8128 2.70728 69.4957 2.70728C70.016 2.70728 70.3738 2.83736 70.6014 3.13004C70.829 3.42272 70.9266 3.78045 70.8616 4.26825L70.2762 8.39833H68.6177L69.138 4.72354C69.1705 4.49589 69.138 4.33329 69.0729 4.23573C69.0079 4.13817 68.8778 4.10565 68.7152 4.10565C68.5201 4.10565 68.325 4.17069 68.1298 4.30077C67.9347 4.43085 67.642 4.62597 67.2843 4.95118L66.7965 8.39833H65.203L65.7233 4.72354C65.7559 4.49589 65.7559 4.33329 65.6908 4.23573C65.6258 4.13817 65.4957 4.10565 65.3331 4.10565C65.138 4.10565 64.9429 4.17069 64.7152 4.26825C64.4876 4.39833 64.2274 4.59345 63.8697 4.88614L63.4144 8.36581H61.7559L62.5364 2.83736H63.8372Z" fill="white"/>
<path d="M76.9111 8.36586H75.6103V7.35773C75.0249 8.1057 74.277 8.46342 73.3339 8.49594C72.651 8.52846 72.1632 8.30082 71.9355 7.81302C71.6754 7.32521 71.6428 6.54472 71.8054 5.47155C71.8705 4.95123 72.0006 4.52846 72.1306 4.17074C72.2607 3.81302 72.4233 3.55285 72.5859 3.35773C72.7485 3.16261 72.9762 3.00001 73.2363 2.90245C73.4965 2.80489 73.7567 2.73985 73.9843 2.70733C74.2445 2.6748 74.5371 2.6748 74.9274 2.6748C75.3176 2.6748 75.8054 2.70733 76.3583 2.77237C76.9111 2.83741 77.3664 2.90245 77.6916 3.00001L76.9111 8.36586ZM75.903 3.91058H75.0575C74.5046 3.91058 74.1469 4.00814 73.9518 4.20326C73.7566 4.39838 73.6266 4.82115 73.529 5.53659C73.4315 6.25204 73.3989 6.70732 73.464 6.90245C73.529 7.09757 73.6916 7.19513 73.9518 7.16261C74.4396 7.16261 74.9924 6.80489 75.6103 6.12196L75.903 3.91058Z" fill="white"/>
<path d="M81.0411 6.38212L79.7078 5.82928C79.2525 5.63415 78.9273 5.40651 78.7647 5.14635C78.5695 4.85367 78.537 4.52846 78.5695 4.1057C78.6346 3.58537 78.8622 3.22765 79.2525 3.00001C79.6427 2.77237 80.2281 2.6748 81.0736 2.6748C82.0817 2.6748 82.9598 2.77237 83.6427 2.90245L83.4801 3.9431C82.0492 3.91058 81.3013 3.91058 81.3013 3.91058C80.8785 3.91058 80.5858 3.9431 80.4232 3.97562C80.2606 4.00814 80.1956 4.1057 80.163 4.20326C80.163 4.33334 80.1956 4.4309 80.2606 4.49594C80.3582 4.56098 80.5208 4.62602 80.7484 4.72359L82.1143 5.27643C82.5696 5.47155 82.8948 5.66667 83.0899 5.92684C83.285 6.187 83.35 6.5122 83.285 6.93497C83.2525 7.26017 83.1549 7.52033 83.0248 7.74797C82.8948 7.9431 82.6996 8.1057 82.472 8.23578C82.2118 8.33334 81.9517 8.39838 81.659 8.4309C81.3663 8.46342 81.0086 8.49594 80.5533 8.49594C79.8704 8.49594 79.0573 8.4309 78.1143 8.30082L78.2769 7.22765C78.537 7.22765 79.1224 7.26017 80.033 7.26017C80.6834 7.26017 81.1061 7.22765 81.3013 7.19513C81.4964 7.16261 81.6265 7.06505 81.659 6.90245C81.659 6.80489 81.659 6.70732 81.5614 6.64228C81.4964 6.57724 81.3338 6.5122 81.1387 6.44716C81.1387 6.41464 81.1061 6.41464 81.0411 6.38212Z" fill="white"/>
<path d="M97.5287 0.625977L95.2522 7.94305C95.1547 8.23573 94.9596 8.36581 94.6344 8.36581H93.0083C92.8457 8.36581 92.7157 8.30077 92.6181 8.20321C92.5205 8.10565 92.4555 7.97557 92.423 7.84549L92.2929 2.83736V1.86175H92.0653C91.9677 2.28451 91.8701 2.60972 91.8051 2.86988L90.2766 7.94305C90.1791 8.23573 89.984 8.39833 89.6262 8.39833H88.0002C87.8376 8.39833 87.7075 8.36581 87.61 8.26825C87.5124 8.17069 87.4474 8.04061 87.4474 7.91053L87.2197 0.658497H88.9433V6.08939C88.9433 6.21947 88.9433 6.41459 88.9108 6.70728C88.9108 6.96744 88.8783 7.16256 88.8783 7.2276H89.1059C89.1384 7.065 89.2685 6.67476 89.4311 6.02435L90.927 1.17882C91.0246 0.853619 91.2522 0.691017 91.5774 0.691017H93.0409C93.2035 0.691017 93.3335 0.756058 93.4311 0.853619C93.5287 0.95118 93.5937 1.08126 93.5937 1.24386L93.8213 6.12191C93.8213 6.60972 93.8539 6.96744 93.8213 7.2276H94.049C94.1466 6.70728 94.2441 6.31703 94.3417 6.05687L95.8376 0.691017H97.5287V0.625977Z" fill="white"/>
<path d="M102.309 7.065L102.407 8.13817C101.789 8.39833 100.976 8.52841 99.9676 8.52841C98.927 8.52841 98.179 8.26825 97.7888 7.78044C97.3985 7.29264 97.2684 6.51215 97.366 5.50402C97.4961 4.43085 97.8213 3.68288 98.2766 3.29264C98.7644 2.9024 99.5124 2.70728 100.586 2.70728C101.561 2.70728 102.212 2.86988 102.569 3.19508C102.927 3.52028 103.057 4.00809 102.96 4.62597C102.894 5.1463 102.667 5.53654 102.309 5.76419C101.951 5.99183 101.399 6.12191 100.683 6.18695L99.0571 6.31703C99.0571 6.67475 99.1546 6.93492 99.3172 7.065C99.4798 7.19508 99.7725 7.26012 100.163 7.26012C100.911 7.19508 101.626 7.13004 102.309 7.065ZM99.1546 5.27638L100.455 5.1463C100.748 5.11378 100.976 5.04874 101.106 4.95118C101.236 4.85362 101.333 4.65849 101.366 4.39833C101.399 4.13817 101.333 4.00809 101.236 3.94305C101.106 3.87801 100.878 3.84549 100.488 3.87801C100.065 3.87801 99.74 3.97557 99.5774 4.13817C99.4148 4.36581 99.2522 4.72354 99.1546 5.27638Z" fill="white"/>
<path d="M106.277 0.49585L106.016 2.41455C105.951 2.90235 105.854 3.32512 105.691 3.71536C106.439 2.99991 107.155 2.67471 107.87 2.67471C108.553 2.67471 109.008 2.90235 109.269 3.35764C109.529 3.81292 109.561 4.56089 109.399 5.66658C109.269 6.70723 108.976 7.4552 108.521 7.87796C108.065 8.30073 107.415 8.52837 106.504 8.52837C106.049 8.52837 105.529 8.49585 104.943 8.39829C104.358 8.30073 103.87 8.20317 103.545 8.07308L104.618 0.49585H106.277ZM105.659 4.85357L105.334 7.26008C105.821 7.26008 106.114 7.2926 106.212 7.2926C106.764 7.2926 107.122 7.16252 107.317 6.96739C107.512 6.77227 107.642 6.28447 107.74 5.5365C107.838 4.88609 107.838 4.46333 107.773 4.30073C107.708 4.10561 107.545 4.04056 107.285 4.04056C106.862 4.04056 106.309 4.30073 105.659 4.85357Z" fill="white"/>
<path d="M114.7 2.83736L114.667 3.91053C114.992 3.58532 115.383 3.29264 115.773 3.065C116.196 2.83736 116.586 2.70728 116.976 2.70728C117.627 2.70728 118.082 2.93492 118.309 3.3902C118.57 3.84549 118.602 4.62597 118.44 5.73167C118.375 6.21947 118.277 6.60971 118.179 6.96744C118.049 7.29264 117.919 7.58532 117.789 7.78045C117.627 7.97557 117.464 8.13817 117.236 8.26825C117.009 8.39833 116.814 8.46337 116.586 8.49589C116.358 8.52841 116.131 8.56093 115.838 8.56093C115.285 8.56093 114.732 8.49589 114.179 8.43085C114.179 8.78857 114.147 9.1463 114.114 9.4715L113.919 10.5772H112.261L113.334 2.9024H114.7V2.83736ZM114.44 7.35768H115.285C115.87 7.35768 116.228 7.26012 116.391 7.065C116.553 6.86988 116.716 6.41459 116.814 5.66662C116.911 4.95118 116.911 4.49589 116.879 4.30077C116.814 4.10565 116.651 4.00809 116.423 4.00809C116.228 4.00809 115.968 4.10565 115.675 4.26825C115.383 4.43085 115.09 4.65849 114.765 4.91866L114.44 7.35768Z" fill="white"/>
<path d="M124.586 8.36586H123.285V7.35773C122.7 8.1057 121.952 8.46342 121.009 8.49594C120.326 8.52846 119.838 8.30082 119.61 7.81302C119.35 7.32521 119.318 6.54472 119.48 5.47155C119.545 4.95123 119.675 4.52846 119.805 4.17074C119.936 3.81302 120.098 3.55285 120.261 3.35773C120.423 3.16261 120.651 3.00001 120.911 2.90245C121.171 2.80489 121.431 2.73985 121.659 2.70733C121.887 2.6748 122.212 2.6748 122.602 2.6748C122.992 2.6748 123.48 2.70733 124.033 2.77237C124.586 2.83741 125.041 2.90245 125.366 3.00001L124.586 8.36586ZM123.545 3.91058H122.7C122.147 3.91058 121.789 4.00814 121.594 4.20326C121.399 4.39838 121.269 4.82115 121.171 5.53659C121.074 6.25204 121.041 6.70732 121.106 6.90245C121.171 7.09757 121.334 7.19513 121.594 7.16261C122.082 7.16261 122.635 6.80489 123.253 6.12196L123.545 3.91058Z" fill="white"/>
<path d="M130.7 2.6748L130.342 4.20326H129.952C129.725 4.20326 129.464 4.2683 129.204 4.36586C128.944 4.46342 128.586 4.65854 128.098 4.88619L127.611 8.36586H125.952L126.733 2.83741H128.033V3.87806C128.879 3.06505 129.659 2.6748 130.407 2.6748H130.7Z" fill="white"/>
<path d="M135.902 8.36586H134.602V7.35773C134.016 8.1057 133.268 8.46342 132.325 8.49594C131.642 8.52846 131.154 8.30082 130.927 7.81302C130.667 7.32521 130.634 6.54472 130.797 5.47155C130.862 4.95123 130.992 4.52846 131.122 4.17074C131.252 3.81302 131.415 3.55285 131.577 3.35773C131.74 3.16261 131.967 3.00001 132.228 2.90245C132.488 2.80489 132.748 2.73985 132.976 2.70733C133.236 2.6748 133.528 2.6748 133.919 2.6748C134.309 2.6748 134.797 2.70733 135.35 2.77237C135.902 2.83741 136.358 2.90245 136.683 3.00001L135.902 8.36586ZM134.894 3.91058H134.049C133.496 3.91058 133.138 4.00814 132.943 4.20326C132.748 4.39838 132.618 4.82115 132.52 5.53659C132.423 6.25204 132.39 6.70732 132.455 6.90245C132.52 7.09757 132.683 7.19513 132.943 7.16261C133.431 7.16261 133.984 6.80489 134.602 6.12196L134.894 3.91058Z" fill="white"/>
<path d="M40.3255 17.3739H41.9515L41.3336 21.8617H40.0979L40.0654 20.9186C39.3824 21.6665 38.6019 22.0243 37.7239 22.0243C36.9434 22.0243 36.358 21.6991 36.0328 21.0487C35.7076 20.3983 35.6101 19.3576 35.8052 17.9267C35.9028 17.1137 36.0654 16.4633 36.2605 15.9104C36.4556 15.3901 36.7483 14.9674 37.0735 14.7072C37.3987 14.4145 37.7889 14.2194 38.2117 14.1218C38.6345 14.0243 39.1223 13.9592 39.7401 13.9592C40.6832 13.9592 41.4637 14.0568 42.1141 14.2519L41.8865 15.4877C41.041 15.4552 40.3255 15.4226 39.7401 15.4226C39.0247 15.4226 38.5044 15.5852 38.2117 15.943C37.919 16.2682 37.6914 16.9836 37.5613 18.0568C37.4312 18.9999 37.4312 19.6503 37.5613 20.008C37.6914 20.3657 37.9515 20.5283 38.4068 20.5283C38.732 20.5283 38.9922 20.4633 39.2198 20.3332C39.4475 20.2031 39.7076 20.008 40.0003 19.7478L40.3255 17.3739Z" fill="white"/>
<path d="M47.7075 20.5608L47.8051 21.634C47.1872 21.8942 46.3742 22.0243 45.3661 22.0243C44.2929 22.0243 43.5775 21.7641 43.1872 21.2763C42.797 20.7885 42.6669 20.008 42.7644 18.9999C42.8945 17.9267 43.2197 17.1787 43.675 16.7885C44.1628 16.3982 44.9108 16.2031 45.984 16.2031C46.9596 16.2031 47.61 16.3657 47.9677 16.6909C48.3254 17.0161 48.4555 17.5039 48.3579 18.1218C48.2929 18.6421 48.0653 19.0324 47.7075 19.26C47.3498 19.4877 46.797 19.6178 46.0815 19.6828L44.4555 19.8129C44.4555 20.1706 44.5531 20.4308 44.7157 20.5608C44.8783 20.6909 45.171 20.756 45.5612 20.756C46.2766 20.6909 46.9921 20.6259 47.7075 20.5608ZM44.5531 18.7722L45.8539 18.6421C46.1466 18.6096 46.3742 18.5446 46.5043 18.447C46.6344 18.3495 46.7319 18.1543 46.7644 17.8942C46.797 17.634 46.7319 17.5039 46.6344 17.4389C46.5043 17.3739 46.2766 17.3413 45.8864 17.3739C45.4636 17.3739 45.1384 17.4714 44.9758 17.634C44.7807 17.8291 44.6506 18.2194 44.5531 18.7722Z" fill="white"/>
<path d="M51.7071 19.878L50.3738 19.3251C49.9185 19.13 49.5933 18.9024 49.4307 18.6422C49.2356 18.3495 49.203 18.0243 49.2356 17.6015C49.3006 17.0812 49.5282 16.7235 49.9185 16.4959C50.3087 16.2682 50.8941 16.1707 51.7396 16.1707C52.7478 16.1707 53.6258 16.2682 54.3087 16.3983L54.1461 17.4389C52.7152 17.4064 51.9673 17.4064 51.9673 17.4064C51.5445 17.4064 51.2518 17.4389 51.0892 17.4715C50.9266 17.504 50.8616 17.6015 50.8291 17.6991C50.8291 17.8292 50.8616 17.9268 50.9266 17.9918C51.0242 18.0568 51.1868 18.1219 51.4144 18.2194L52.7803 18.7723C53.2356 18.9674 53.5608 19.1625 53.7559 19.4227C53.951 19.6829 54.016 20.0081 53.951 20.4308C53.9185 20.756 53.8209 21.0162 53.6908 21.2438C53.5608 21.439 53.3656 21.6016 53.138 21.7316C52.8778 21.8292 52.6177 21.8942 52.325 21.9268C52.0323 21.9593 51.6746 21.9918 51.2193 21.9918C50.5364 21.9918 49.7234 21.9268 48.7803 21.7967L48.9429 20.7235C49.203 20.7235 49.7884 20.756 50.699 20.756C51.3494 20.756 51.7721 20.7235 51.9673 20.691C52.1624 20.6585 52.2925 20.5609 52.325 20.3983C52.325 20.3007 52.325 20.2032 52.2274 20.1381C52.1624 20.0731 51.9998 20.0081 51.8047 19.943C51.8047 19.9105 51.7396 19.9105 51.7071 19.878Z" fill="white"/>
<path d="M57.5606 17.4388L57.2029 20.1055C57.1704 20.3006 57.2029 20.4632 57.2679 20.5283C57.333 20.5933 57.463 20.6258 57.6907 20.6258H58.4387L58.5037 21.7966C58.1135 21.9266 57.5931 22.0242 56.9427 22.0242C56.4224 22.0242 56.0322 21.8941 55.772 21.6014C55.5118 21.3088 55.4143 20.9185 55.5118 20.3982L55.9346 17.4714H54.959L55.0891 16.4307L56.0972 16.3657L56.3248 14.8047H57.9509L57.7232 16.3657H59.2517L59.0891 17.4714H57.5606V17.4388Z" fill="white"/>
<path d="M64.7158 21.8617H63.415V20.8535C62.8296 21.6015 62.0817 21.9592 61.1386 21.9917C60.4557 22.0243 59.9679 21.7966 59.7402 21.3088C59.48 20.821 59.4475 20.0405 59.6101 18.9673C59.6752 18.447 59.8053 18.0243 59.9353 17.6665C60.0654 17.3088 60.228 17.0486 60.3906 16.8535C60.5532 16.6584 60.7809 16.4958 61.041 16.3982C61.3012 16.3007 61.5613 16.2356 61.789 16.2031C62.0492 16.1706 62.3418 16.1706 62.7321 16.1706C63.1223 16.1706 63.6101 16.2031 64.163 16.2682C64.7158 16.3332 65.1711 16.3982 65.4963 16.4958L64.7158 21.8617ZM64.3906 13.8291L65.0735 13.8942C65.0735 14.4145 64.976 14.8047 64.8134 15.0649C64.6508 15.3251 64.3581 15.4551 64.0654 15.4226C63.8053 15.4226 63.48 15.3251 63.0898 15.1625C62.6996 14.9999 62.4719 14.9023 62.3418 14.9023C62.1467 14.8698 62.0166 14.9023 61.9191 14.9999C61.8215 15.0974 61.789 15.2275 61.7565 15.4551L61.0735 15.3901C61.0735 14.8698 61.1711 14.447 61.3662 14.1869C61.5613 13.9267 61.8215 13.7966 62.1142 13.8291C62.3744 13.8291 62.667 13.9267 63.0573 14.0893C63.4475 14.2519 63.6752 14.3495 63.8378 14.3495C64.0329 14.382 64.1955 14.3495 64.2605 14.2844C64.3256 14.1869 64.3581 14.0568 64.3906 13.8291ZM63.6752 17.4064H62.8296C62.2768 17.4064 61.9191 17.5039 61.724 17.699C61.5288 17.8942 61.3987 18.3169 61.3012 19.0324C61.2036 19.7478 61.1711 20.2031 61.2361 20.3982C61.3012 20.5934 61.4638 20.6909 61.724 20.6584C62.2118 20.6584 62.7646 20.3007 63.3825 19.6177L63.6752 17.4064Z" fill="white"/>
<path d="M69.3668 16.1707C70.4074 16.1707 71.1229 16.3983 71.5131 16.8536C71.9033 17.3089 72.0334 18.0894 71.9033 19.1625C71.7733 20.2032 71.4481 20.9511 70.9603 21.3739C70.4724 21.7967 69.757 22.0243 68.7489 22.0243C67.7407 22.0243 67.0253 21.7967 66.6025 21.3414C66.1798 20.8861 66.0497 20.1056 66.2123 19.065C66.3749 18.0243 66.6676 17.2763 67.1554 16.8536C67.6107 16.3983 68.3586 16.1707 69.3668 16.1707ZM69.3668 17.4064C68.9115 17.4064 68.5863 17.5365 68.3911 17.7642C68.196 17.9918 68.0334 18.4796 67.9359 19.1625C67.8383 19.8129 67.8708 20.2357 67.9684 20.4308C68.0659 20.6259 68.3586 20.756 68.7814 20.756C69.2367 20.756 69.5619 20.6259 69.757 20.3983C69.9521 20.1707 70.0822 19.7154 70.1798 19.0324C70.2773 18.382 70.2773 17.9593 70.1472 17.7316C70.0497 17.5365 69.7895 17.4064 69.3668 17.4064Z" fill="white"/>
<path d="M81.2037 15.4552H78.3094C78.0817 15.4552 77.9516 15.4877 77.8541 15.5853C77.7565 15.6829 77.6915 15.8455 77.659 16.0731L77.4964 17.2438H80.5533L80.3907 18.4471H77.3338L77.1386 19.943C77.1061 20.1381 77.1386 20.3007 77.2037 20.3983C77.2687 20.4959 77.4313 20.5284 77.6264 20.5284H80.4882L80.4557 21.7967C79.8053 21.8617 78.6671 21.8942 77.1061 21.8942C76.4882 21.8942 76.0004 21.7316 75.7077 21.4064C75.4151 21.0812 75.3175 20.6259 75.3825 20.0406L76.0004 15.6178C76.0655 15.13 76.2606 14.7723 76.5858 14.4796C76.911 14.1869 77.3338 14.0894 77.8541 14.0894C79.4801 14.0894 80.6833 14.1219 81.4313 14.2194L81.2037 15.4552Z" fill="white"/>
<path d="M83.5777 16.3332V17.3413C83.9679 16.9511 84.3582 16.6584 84.7159 16.4633C85.0736 16.2682 85.4313 16.2031 85.8216 16.2031C86.2118 16.2031 86.537 16.3007 86.7647 16.4633C86.9923 16.6584 87.1224 16.8861 87.1549 17.2438C87.8378 16.5608 88.5533 16.2031 89.2362 16.2031C89.7565 16.2031 90.1143 16.3332 90.3419 16.6259C90.5696 16.9186 90.6671 17.2763 90.6021 17.7641L90.0167 21.8942H88.3582L88.8785 18.2194C88.911 17.9917 88.8785 17.8291 88.8135 17.7316C88.7484 17.634 88.6183 17.6015 88.4557 17.6015C88.2606 17.6015 88.0655 17.6665 87.8704 17.7966C87.6753 17.9267 87.3826 18.1218 87.0248 18.447L86.537 21.8942H84.9435L85.4639 18.2194C85.4964 17.9917 85.4964 17.8291 85.4313 17.7316C85.3663 17.634 85.2362 17.6015 85.0736 17.6015C84.8785 17.6015 84.6834 17.6665 84.4557 17.7641C84.2281 17.8942 83.9679 18.0893 83.6102 18.382L83.1224 21.8942H81.4639L82.2444 16.3657H83.5777V16.3332Z" fill="white"/>
<path d="M93.4306 16.3332L93.3981 17.4064C93.7233 17.0812 94.1135 16.7885 94.5038 16.5608C94.9266 16.3332 95.3168 16.2031 95.707 16.2031C96.3574 16.2031 96.8127 16.4308 97.0404 16.8861C97.3005 17.3413 97.333 18.1218 97.203 19.2275C97.1379 19.7153 97.0404 20.1056 96.9428 20.4633C96.8127 20.7885 96.6826 21.0812 96.5526 21.2763C96.39 21.4714 96.2274 21.634 95.9997 21.7641C95.7721 21.8942 95.577 21.9592 95.3493 21.9917C95.1217 22.0243 94.894 22.0568 94.6013 22.0568C94.0485 22.0568 93.4957 21.9917 92.9428 21.9267C92.9428 22.2844 92.9103 22.6422 92.8778 22.9674L92.6827 24.073H91.0566L92.1298 16.3982H93.4306V16.3332ZM93.1705 20.8535H94.016C94.6013 20.8535 94.9591 20.756 95.1217 20.5609C95.2843 20.3657 95.4469 19.9104 95.5444 19.1625C95.642 18.447 95.642 17.9917 95.6095 17.7966C95.5444 17.6015 95.3818 17.5039 95.1542 17.5039C94.9591 17.5039 94.6989 17.6015 94.4062 17.7641C94.1135 17.9267 93.8209 18.1543 93.4957 18.4145L93.1705 20.8535Z" fill="white"/>
<path d="M102.797 16.1707L102.439 17.6991H102.049C101.821 17.6991 101.561 17.7642 101.301 17.8617C101.041 17.9593 100.683 18.1544 100.195 18.382L99.7074 21.8617H98.0488L98.8293 16.3333H100.13V17.3739C100.976 16.5609 101.756 16.1707 102.504 16.1707H102.797Z" fill="white"/>
<path d="M107.837 20.5608L107.935 21.634C107.317 21.8942 106.504 22.0243 105.496 22.0243C104.423 22.0243 103.707 21.7641 103.317 21.2763C102.927 20.7885 102.797 20.008 102.894 18.9999C103.024 17.9267 103.35 17.1787 103.805 16.7885C104.293 16.3982 105.041 16.2031 106.114 16.2031C107.089 16.2031 107.74 16.3657 108.098 16.6909C108.455 17.0161 108.585 17.5039 108.488 18.1218C108.423 18.6421 108.195 19.0324 107.837 19.26C107.48 19.4877 106.927 19.6178 106.211 19.6828L104.585 19.8129C104.585 20.1706 104.683 20.4308 104.846 20.5608C105.008 20.6909 105.301 20.756 105.691 20.756C106.439 20.6909 107.154 20.6259 107.837 20.5608ZM104.683 18.7722L105.984 18.6421C106.276 18.6096 106.504 18.5446 106.634 18.447C106.764 18.3495 106.862 18.1543 106.894 17.8942C106.927 17.634 106.862 17.5039 106.764 17.4389C106.634 17.3739 106.407 17.3413 106.016 17.3739C105.594 17.3739 105.268 17.4714 105.106 17.634C104.911 17.8291 104.781 18.2194 104.683 18.7722Z" fill="white"/>
<path d="M111.837 19.878L110.504 19.3251C110.048 19.13 109.723 18.9024 109.561 18.6422C109.365 18.3495 109.3 18.0243 109.365 17.6015C109.43 17.0812 109.658 16.7235 110.048 16.4959C110.439 16.2682 111.024 16.1707 111.87 16.1707C112.878 16.1707 113.756 16.2682 114.439 16.3983L114.276 17.4389C112.845 17.4064 112.097 17.4064 112.097 17.4064C111.674 17.4064 111.382 17.4389 111.219 17.4715C111.089 17.504 110.991 17.6015 110.959 17.6991C110.959 17.8292 110.991 17.9268 111.057 17.9918C111.154 18.0568 111.317 18.1219 111.544 18.2194L112.91 18.7723C113.365 18.9674 113.691 19.1625 113.886 19.4227C114.081 19.6829 114.146 20.0081 114.081 20.4308C114.048 20.756 113.951 21.0162 113.821 21.2438C113.691 21.439 113.496 21.6016 113.268 21.7316C113.008 21.8292 112.748 21.8942 112.455 21.9268C112.162 21.9593 111.804 21.9918 111.349 21.9918C110.666 21.9918 109.853 21.9268 108.91 21.7967L109.073 20.7235C109.333 20.7235 109.918 20.756 110.829 20.756C111.479 20.756 111.902 20.7235 112.097 20.691C112.292 20.6585 112.422 20.5609 112.455 20.3983C112.455 20.3007 112.455 20.2032 112.357 20.1381C112.292 20.0731 112.13 20.0081 111.935 19.943C111.935 19.9105 111.87 19.9105 111.837 19.878Z" fill="white"/>
<path d="M120.227 21.8617H118.926V20.8536C118.341 21.6015 117.593 21.9593 116.65 21.9918C115.967 22.0243 115.479 21.7967 115.252 21.3089C115.024 20.8211 114.959 20.0406 115.122 18.9674C115.187 18.4471 115.317 18.0243 115.447 17.6666C115.577 17.3089 115.739 17.0487 115.902 16.8536C116.065 16.6585 116.292 16.4959 116.552 16.3983C116.813 16.3007 117.073 16.2357 117.3 16.2032C117.528 16.1707 117.853 16.1707 118.244 16.1707C118.634 16.1707 119.122 16.2032 119.674 16.2682C120.227 16.3333 120.683 16.3983 121.008 16.4959L120.227 21.8617ZM119.219 17.4064H118.374C117.821 17.4064 117.463 17.504 117.268 17.6991C117.073 17.8942 116.943 18.317 116.845 19.0324C116.748 19.7479 116.715 20.2032 116.78 20.3983C116.845 20.5934 117.008 20.691 117.268 20.6585C117.756 20.6585 118.309 20.3007 118.926 19.6178L119.219 17.4064Z" fill="white"/>
<path d="M126.342 16.1707L125.984 17.6991H125.594C125.366 17.6991 125.106 17.7642 124.846 17.8617C124.586 17.9593 124.228 18.1544 123.74 18.382L123.252 21.8617H121.594L122.374 16.3333H123.675V17.3739C124.521 16.5609 125.301 16.1707 126.049 16.1707H126.342Z" fill="white"/>
<path d="M128.033 21.8618H126.374L127.155 16.3334H128.813L128.033 21.8618ZM127.935 13.8618H128.618C128.976 13.8618 129.138 14.0244 129.106 14.3821L129.041 15C129.008 15.2927 128.813 15.4553 128.488 15.4553H127.772C127.415 15.4553 127.285 15.2927 127.317 14.935L127.382 14.3496C127.447 14.0244 127.61 13.8618 127.935 13.8618Z" fill="white"/>
<path d="M134.699 21.8617H133.398V20.8536C132.813 21.6015 132.065 21.9593 131.122 21.9918C130.439 22.0243 129.951 21.7967 129.723 21.3089C129.496 20.8211 129.431 20.0406 129.593 18.9674C129.658 18.4471 129.788 18.0243 129.918 17.6666C130.049 17.3089 130.211 17.0487 130.374 16.8536C130.536 16.6585 130.764 16.4959 131.024 16.3983C131.284 16.3007 131.544 16.2357 131.772 16.2032C132 16.1707 132.325 16.1707 132.715 16.1707C133.105 16.1707 133.593 16.2032 134.146 16.2682C134.699 16.3333 135.154 16.3983 135.479 16.4959L134.699 21.8617ZM133.691 17.4064H132.845C132.292 17.4064 131.935 17.504 131.74 17.6991C131.544 17.8942 131.414 18.317 131.317 19.0324C131.219 19.7479 131.187 20.2032 131.252 20.3983C131.317 20.5934 131.479 20.691 131.74 20.6585C132.227 20.6585 132.78 20.3007 133.398 19.6178L133.691 17.4064Z" fill="white"/>
<path d="M138.829 13.9917L137.951 20.073C137.919 20.2682 137.951 20.3983 138.016 20.4958C138.081 20.5609 138.244 20.5934 138.472 20.5934H138.959L139.024 21.7641C138.764 21.8942 138.342 21.9592 137.724 21.9592C137.203 21.9592 136.813 21.8291 136.553 21.5365C136.293 21.2438 136.195 20.8861 136.228 20.3983L137.138 13.9592H138.829V13.9917Z" fill="white"/>
</svg>
