<svg width="25" height="30" viewBox="0 0 25 30" fill="none" xmlns="http://www.w3.org/2000/svg">
<path d="M19.3116 21.6316L22.0214 24.3414C22.1699 24.4899 22.4075 24.579 22.6154 24.579L22.9717 24.4899C23.2984 24.3414 23.5063 24.0444 23.5063 23.6881V1.89089C23.5063 1.41575 23.1202 1.0297 22.6451 1H6.31204C5.8072 1 5.42114 1.38605 5.42114 1.89089V5.42106" stroke="#405B9A" stroke-width="2" stroke-linecap="round" stroke-linejoin="round"/>
<path d="M18.2239 5.42102H1.89089C1.38605 5.42102 1 5.80707 1 6.31191V28.1091C1 28.6139 1.41575 29 1.89089 29C2.09877 29 2.30664 28.9109 2.48482 28.7624L4.56357 26.8321L6.70171 28.7624C7.02837 29.0594 7.56291 29.0594 7.88957 28.7624L10.0574 26.8321L12.1956 28.7624C12.5222 29.0594 13.0567 29.0594 13.3834 28.7624L15.5216 26.8321L17.6003 28.7624C17.7488 28.9109 17.9864 29 18.1942 29L18.5506 28.9109C18.8772 28.7624 19.0851 28.4654 19.0851 28.1091V6.31191C19.0851 5.83677 18.6991 5.45072 18.2239 5.42102Z" stroke="#E4B263" stroke-width="2" stroke-linecap="round" stroke-linejoin="round"/>
<path d="M5.00008 17L11.6667 17" stroke="#405B9A" stroke-width="2" stroke-linecap="round" stroke-linejoin="round"/>
<path d="M5.00008 21L15.6667 21" stroke="#405B9A" stroke-width="2" stroke-linecap="round" stroke-linejoin="round"/>
<path d="M5.00008 13L7.66675 13" stroke="#405B9A" stroke-width="2" stroke-linecap="round" stroke-linejoin="round"/>
</svg>
