<svg width="30" height="29" viewBox="0 0 30 29" fill="none" xmlns="http://www.w3.org/2000/svg">
<path fill-rule="evenodd" clip-rule="evenodd" d="M25.281 14.3074C25.3298 14.7595 25.3548 15.2187 25.3548 15.6838C25.3548 22.6853 19.679 28.3612 12.6774 28.3612C5.67587 28.3612 0 22.6853 0 15.6838C0 9.54938 4.356 4.43462 10.143 3.25993C10.9627 3.09353 11.8104 3.00635 12.6774 3.00635C12.6931 3.00635 12.7087 3.00638 12.7244 3.00643C12.6933 3.33556 12.6774 3.6691 12.6774 4.00635C12.6774 4.59114 12.7252 5.16478 12.817 5.72357C12.7709 5.66408 12.7244 5.60486 12.6774 5.54593C10.5914 8.16405 9.33085 11.3456 9.05846 14.6838H16.2964C16.2044 13.556 15.9995 12.4461 15.6882 11.3698C16.4071 12.1018 17.2324 12.7291 18.1389 13.2265C18.2121 13.7087 18.2667 14.1948 18.3023 14.6838H23.3086C23.3034 14.6276 23.2977 14.5715 23.2917 14.5155C23.9722 14.5089 24.6373 14.4376 25.281 14.3074ZM12.6774 25.8216C14.7634 23.2035 16.024 20.0219 16.2964 16.6838H9.05846C9.33085 20.0219 10.5914 23.2035 12.6774 25.8216ZM10.4047 5.24852C8.46318 8.02661 7.30024 11.2856 7.05252 14.6838H2.04622C2.4797 10.0177 5.91615 6.2211 10.4047 5.24852ZM7.05252 16.6838H2.04621C2.47965 21.3503 5.91612 25.1457 10.4045 26.1188C8.46311 23.3407 7.30023 20.0819 7.05252 16.6838ZM18.3023 16.6838C18.0546 20.0819 16.8917 23.3407 14.9503 26.1188C19.4387 25.1457 22.8752 21.3503 23.3086 16.6838H18.3023Z" fill="#405B9A"/>
<path d="M18 6.99999C20.5714 4.33334 24.4286 4.33335 27 7" stroke="#35B6B4" stroke-width="2" stroke-linecap="round" stroke-linejoin="round"/>
<path d="M16 3.99999C19.7143 -3.33786e-06 25.2857 6.67577e-06 29 4" stroke="#35B6B4" stroke-width="2" stroke-linecap="round" stroke-linejoin="round"/>
<path d="M20 10C21.4286 8.66667 23.5714 8.66667 25 10" stroke="#35B6B4" stroke-width="2" stroke-linecap="round" stroke-linejoin="round"/>
</svg>
