<svg width="33" height="33" viewBox="0 0 33 33" fill="none" xmlns="http://www.w3.org/2000/svg">
<path d="M11.9297 13.7515V20.3094L16.3016 22.4954" stroke="#F07E26" stroke-width="2" stroke-linecap="round" stroke-linejoin="round"/>
<path fill-rule="evenodd" clip-rule="evenodd" d="M14.1208 8.58015C13.4106 8.44831 12.6783 8.37939 11.9299 8.37939C5.34118 8.37939 0 13.7206 0 20.3093C0 26.8979 5.34118 32.2391 11.9299 32.2391C18.5185 32.2391 23.8597 26.8979 23.8597 20.3093C23.8597 19.5611 23.7908 18.8289 23.6591 18.1189C22.9325 18.0975 22.2257 17.9974 21.5469 17.8267C21.7511 18.6202 21.8597 19.452 21.8597 20.3093C21.8597 25.7934 17.414 30.2391 11.9299 30.2391C6.44575 30.2391 2 25.7934 2 20.3093C2 14.8251 6.44575 10.3794 11.9299 10.3794C12.7873 10.3794 13.6193 10.4881 14.4129 10.6924C14.2423 10.0136 14.1421 9.30675 14.1208 8.58015Z" fill="#F07E26"/>
<path d="M23.9536 15.5732C27.9778 15.5732 31.2401 12.3108 31.2401 8.28658C31.2401 4.26231 27.9778 1 23.9536 1C19.9293 1 16.667 4.26231 16.667 8.28658C16.667 12.3108 19.9293 15.5732 23.9536 15.5732Z" stroke="#DC272B" stroke-width="2" stroke-linecap="round" stroke-linejoin="round"/>
<path d="M23.9521 5.37183V11.2011" stroke="#DC272B" stroke-width="2" stroke-linecap="round" stroke-linejoin="round"/>
<path d="M21.0391 8.28638H26.8683" stroke="#DC272B" stroke-width="2" stroke-linecap="round" stroke-linejoin="round"/>
</svg>
