<svg width="26" height="26" viewBox="0 0 26 26" fill="none" xmlns="http://www.w3.org/2000/svg">
<path d="M16.957 2.14282V8.99996H23.8509" stroke="#EA6565" stroke-width="2" stroke-linecap="round" stroke-linejoin="round"/>
<path d="M24.9999 1L16.957 9" stroke="#EA6565" stroke-width="2" stroke-linecap="round" stroke-linejoin="round"/>
<path d="M23.9788 19.2558V22.6967C23.9801 23.0161 23.9142 23.3323 23.7853 23.625C23.6564 23.9177 23.4673 24.1804 23.2302 24.3964C22.9931 24.6123 22.7131 24.7767 22.4083 24.8791C22.1035 24.9814 21.7805 25.0194 21.46 24.9907C17.9046 24.6072 14.4895 23.4011 11.4889 21.4694C8.69723 19.7085 6.3304 17.3589 4.55647 14.5876C2.60381 11.5954 1.38863 8.18863 1.00938 4.64334C0.980505 4.32616 1.01848 4.00649 1.12087 3.70468C1.22327 3.40287 1.38785 3.12553 1.60414 2.89033C1.82043 2.65512 2.08368 2.46719 2.37713 2.33852C2.67059 2.20984 2.98782 2.14323 3.30863 2.14293H6.77484C7.33556 2.13746 7.87916 2.33457 8.30432 2.69753C8.72947 3.0605 9.00717 3.56455 9.08564 4.11573C9.23194 5.2169 9.50326 6.29811 9.89443 7.33873C10.0499 7.74925 10.0835 8.19542 9.99137 8.62435C9.89922 9.05327 9.68514 9.44699 9.37449 9.75884L7.90713 11.2155C9.55191 14.087 11.9469 16.4646 14.8396 18.0973L16.3069 16.6407C16.6211 16.3323 17.0177 16.1198 17.4497 16.0283C17.8818 15.9368 18.3313 15.9702 18.7448 16.1245C19.7931 16.5129 20.8822 16.7822 21.9915 16.9274C22.5528 17.006 23.0653 17.2867 23.4317 17.716C23.7982 18.1453 23.9928 18.6933 23.9788 19.2558Z" stroke="white" stroke-width="2" stroke-linecap="round" stroke-linejoin="round"/>
</svg>
