<svg width="26" height="30" viewBox="0 0 26 30" fill="none" xmlns="http://www.w3.org/2000/svg">
<path d="M19.0198 23.1782H22.3465C22.9347 23.1782 23.4988 22.9446 23.9148 22.5286C24.3307 22.1127 24.5644 21.5486 24.5644 20.9604V7.65347L17.9109 1H9.0396C8.4514 1 7.88728 1.23366 7.47136 1.64958C7.05544 2.06551 6.82178 2.62962 6.82178 3.21782V6.6832" stroke="#405B9A" stroke-width="2" stroke-linecap="round" stroke-linejoin="round"/>
<path d="M17.9111 1V7.65347H24.5646" stroke="#405B9A" stroke-width="2" stroke-linecap="round" stroke-linejoin="round"/>
<path d="M12.0891 6.82178H3.21782C2.62962 6.82178 2.06551 7.05544 1.64958 7.47136C1.23366 7.88728 1 8.4514 1 9.0396V26.7822C1 27.3704 1.23366 27.9345 1.64958 28.3504C2.06551 28.7663 2.62962 29 3.21782 29H16.5248C17.113 29 17.6771 28.7663 18.093 28.3504C18.5089 27.9345 18.7426 27.3704 18.7426 26.7822V13.4752L12.0891 6.82178Z" stroke="#E4B263" stroke-width="2" stroke-linecap="round" stroke-linejoin="round"/>
<path d="M12.0894 6.82178V13.4752H18.7428" stroke="#E4B263" stroke-width="2" stroke-linecap="round" stroke-linejoin="round"/>
<path d="M14.3071 19.0199H5.43579" stroke="#405B9A" stroke-width="2" stroke-linecap="round" stroke-linejoin="round"/>
<path d="M14.3071 23.4554H5.43579" stroke="#405B9A" stroke-width="2" stroke-linecap="round" stroke-linejoin="round"/>
<path d="M7.65361 14.5842H6.5447H5.43579" stroke="#405B9A" stroke-width="2" stroke-linecap="round" stroke-linejoin="round"/>
</svg>
