<svg width="31" height="28" viewBox="0 0 31 28" fill="none" xmlns="http://www.w3.org/2000/svg">
<path d="M27.6667 15V19C27.6667 20.4728 26.4728 21.6667 25 21.6667H3.66667C2.19391 21.6667 1 20.4728 1 19V5.66667C1 4.19391 2.19391 3 3.66667 3H12.5" stroke="#E4B263" stroke-width="2" stroke-linecap="round" stroke-linejoin="round"/>
<path d="M5.33301 13H12.333" stroke="#405B9A" stroke-width="2" stroke-linecap="round" stroke-linejoin="round"/>
<path d="M5.33333 17L16 17" stroke="#405B9A" stroke-width="2" stroke-linecap="round" stroke-linejoin="round"/>
<path d="M5.33333 9L8 9" stroke="#405B9A" stroke-width="2" stroke-linecap="round" stroke-linejoin="round"/>
<path d="M9 27H19.6667" stroke="#E4B263" stroke-width="2" stroke-linecap="round" stroke-linejoin="round"/>
<path d="M14.333 21.6666V27" stroke="#E4B263" stroke-width="2" stroke-linecap="round" stroke-linejoin="round"/>
<path d="M25.2275 9.72571L22.5019 7.00003L19.7762 9.72571" stroke="#405B9A" stroke-width="2" stroke-linecap="round" stroke-linejoin="round"/>
<path d="M22.5039 13.2736L22.5039 7.14079" stroke="#405B9A" stroke-width="2" stroke-linecap="round" stroke-linejoin="round"/>
<path d="M28.5527 11.2906C29.1451 10.874 29.5894 10.2794 29.821 9.59324C30.0527 8.90705 30.0596 8.1649 29.8409 7.47449C29.6221 6.78408 29.1891 6.18134 28.6046 5.75373C28.02 5.32612 27.3145 5.09589 26.5902 5.09646H25.7317C25.5267 4.29775 25.1432 3.55594 24.6101 2.92687C24.077 2.29781 23.4081 1.79788 22.6538 1.46473C21.8995 1.13158 21.0795 0.973888 20.2554 1.00352C19.4314 1.03316 18.6248 1.24935 17.8964 1.63582C17.168 2.02229 16.5367 2.56897 16.0502 3.2347C15.5636 3.90044 15.2344 4.66787 15.0874 5.47924C14.9403 6.29061 14.9793 7.12477 15.2013 7.91891C15.4232 8.71305 15.8225 9.44649 16.3689 10.064" stroke="#405B9A" stroke-width="2" stroke-linecap="round" stroke-linejoin="round"/>
</svg>
