<svg width="19" height="18" viewBox="0 0 19 18" fill="none" xmlns="http://www.w3.org/2000/svg">
<path fill-rule="evenodd" clip-rule="evenodd" d="M15.0869 3.12607C13.537 1.57519 11.4757 0.72018 9.27983 0.719238C4.75337 0.719238 1.07062 4.4001 1.06968 8.92467C1.0678 10.3644 1.44539 11.7797 2.16481 13.0274L1 17.2798L5.35225 16.1386C6.55661 16.7939 7.90503 17.1376 9.27606 17.1376H9.27983C13.8044 17.1376 17.4871 13.4558 17.489 8.93126C17.49 6.73913 16.6368 4.67789 15.0869 3.12607Z" stroke="#F07E26" stroke-width="1.41246" stroke-linecap="round" stroke-linejoin="round"/>
<path d="M10.2759 10.469L10.6582 10.0896C11.0094 9.74115 11.565 9.69689 11.9699 9.98127C12.3616 10.2562 12.7157 10.5029 13.0452 10.7327C13.5688 11.0962 13.6319 11.8419 13.1808 12.292L12.8428 12.6301" stroke="#DC272B" stroke-width="1.41246" stroke-linecap="round" stroke-linejoin="round"/>
<path d="M5.61475 5.402L5.95279 5.06395C6.4029 4.61385 7.14867 4.67694 7.51215 5.19955C7.74097 5.52912 7.98767 5.88318 8.26357 6.2749C8.54795 6.6798 8.50463 7.23537 8.15529 7.5866L7.77581 7.9689" stroke="#DC272B" stroke-width="1.41246" stroke-linecap="round" stroke-linejoin="round"/>
<path d="M12.8428 12.63C11.4482 14.018 9.10447 12.8391 7.25415 10.9878" stroke="#DC272B" stroke-width="1.41246" stroke-linecap="round" stroke-linejoin="round"/>
<path d="M7.25602 10.9907C5.4057 9.13946 4.22677 6.79667 5.61474 5.4021" stroke="#DC272B" stroke-width="1.41246" stroke-linecap="round" stroke-linejoin="round"/>
<path d="M7.77588 7.96875C8.07626 8.44239 8.46139 8.91133 8.89643 9.34637L8.89831 9.34825C9.33335 9.78329 9.80228 10.1684 10.2759 10.4688" stroke="#DC272B" stroke-width="1.41246" stroke-linecap="round" stroke-linejoin="round"/>
</svg>
