<svg width="33" height="32" viewBox="0 0 33 32" fill="none" xmlns="http://www.w3.org/2000/svg">
<path d="M9.34394 17.332L4.7266 16.2413C4.2186 16.1213 4.03994 15.4906 4.40794 15.1213L8.07994 11.4493C8.3266 11.2026 8.66127 11.0613 9.01194 11.0586L13.1519 11.0226" stroke="#1F3D8C" stroke-width="1.5" stroke-linecap="round" stroke-linejoin="round"/>
<path d="M15.1667 23.156L16.2574 27.7734C16.3774 28.2814 17.0081 28.46 17.3774 28.092L21.0494 24.42C21.2961 24.1734 21.4374 23.8387 21.4401 23.488L21.4761 19.348" stroke="#1F3D8C" stroke-width="1.5" stroke-linecap="round" stroke-linejoin="round"/>
<path d="M17.7533 14.7466L8.32666 24.1733" stroke="#DC272B" stroke-width="1.5" stroke-linecap="round" stroke-linejoin="round"/>
<path fill-rule="evenodd" clip-rule="evenodd" d="M27.0053 11.9667L28.0827 6.78268C28.376 5.37201 27.128 4.12401 25.7173 4.41735L20.5333 5.49468C19.0067 5.81201 17.6067 6.56801 16.5053 7.67068L12.252 11.9227C10.6293 13.5453 9.57335 15.6493 9.24001 17.92L9.22535 18.0173C9.01468 19.4667 9.50001 20.9293 10.5347 21.9653V21.9653C11.5693 23 13.0333 23.4853 14.4827 23.2733L14.58 23.2587C16.8507 22.9267 18.9547 21.8693 20.5773 20.2467L24.8293 15.9947C25.932 14.8933 26.688 13.4933 27.0053 11.9667V11.9667Z" stroke="#DC272B" stroke-width="1.5" stroke-linecap="round" stroke-linejoin="round"/>
<path d="M18.3667 6.28534C21.448 8.38667 24.1134 11.052 26.2147 14.1333" stroke="#DC272B" stroke-width="1.5" stroke-linecap="round" stroke-linejoin="round"/>
</svg>
