<svg width="22" height="24" viewBox="0 0 22 24" fill="none" xmlns="http://www.w3.org/2000/svg">
<path d="M5.3335 8.58069L10.7499 11.2889L16.1663 8.58069" stroke="#DC272B" stroke-width="2" stroke-linecap="round" stroke-linejoin="round"/>
<path d="M10.7495 18.3303V11.8306" stroke="#DC272B" stroke-width="2" stroke-linecap="round" stroke-linejoin="round"/>
<path d="M20.4991 16.1637V7.49747C20.4987 7.11754 20.3984 6.74438 20.2083 6.41545C20.0181 6.08651 19.7448 5.81336 19.4158 5.62339L11.8328 1.29026C11.5035 1.10011 11.1298 1 10.7495 1C10.3692 1 9.99562 1.10011 9.66626 1.29026L2.08328 5.62339C1.75425 5.81336 1.48096 6.08651 1.29082 6.41545C1.10068 6.74438 1.00039 7.11754 1 7.49747V16.1637C1.00039 16.5437 1.10068 16.9168 1.29082 17.2458C1.48096 17.5747 1.75425 17.8478 2.08328 18.0378L9.66626 22.3709C9.99562 22.5611 10.3692 22.6612 10.7495 22.6612C11.1298 22.6612 11.5035 22.5611 11.8328 22.3709L19.4158 18.0378C19.7448 17.8478 20.0181 17.5747 20.2083 17.2458C20.3984 16.9168 20.4987 16.5437 20.4991 16.1637Z" stroke="#F07E26" stroke-width="2" stroke-linecap="round" stroke-linejoin="round"/>
</svg>
