<svg width="33" height="32" viewBox="0 0 33 32" fill="none" xmlns="http://www.w3.org/2000/svg">
<path fill-rule="evenodd" clip-rule="evenodd" d="M6.62941 29.3307H4.16408C3.61341 29.3307 3.16675 28.884 3.16675 28.3333V20.516C3.16675 19.9653 3.61341 19.5187 4.16408 19.5187H6.62941C7.18008 19.5187 7.62675 19.9653 7.62675 20.5907V28.408C7.62675 28.884 7.18008 29.3307 6.62941 29.3307Z" stroke="#DC272B" stroke-width="1.5" stroke-linecap="round" stroke-linejoin="round"/>
<path d="M7.62671 27.216L9.55738 28.8173C9.95738 29.1493 10.4614 29.3307 10.9814 29.3307H17.4707C18.2147 29.3307 18.8694 28.8373 19.0734 28.1213L20.496 23.144C20.6307 22.6733 20.5507 22.1653 20.2787 21.7587L19.8254 21.0827C19.516 20.62 18.996 20.344 18.44 20.344H15.108L15.1174 17.3067C15.124 15.0507 12.16 14.212 10.984 16.1373L7.62671 21.6333" stroke="#DC272B" stroke-width="1.5" stroke-linecap="round" stroke-linejoin="round"/>
<path d="M22.9667 9.32669C22.9627 9.32669 22.96 9.32935 22.96 9.33335C22.96 9.33735 22.9627 9.34002 22.9667 9.34002C22.9707 9.34002 22.9734 9.33735 22.9734 9.33335C22.9734 9.32935 22.9707 9.32669 22.9667 9.32669" stroke="#1F3D8C" stroke-width="1.5" stroke-linecap="round" stroke-linejoin="round"/>
<path d="M20.3 9.32937C20.296 9.32937 20.2933 9.33204 20.2933 9.33604C20.2933 9.34004 20.296 9.34271 20.3 9.34271C20.304 9.34271 20.3066 9.34004 20.3066 9.33604C20.3066 9.33204 20.304 9.32937 20.3 9.32937" stroke="#1F3D8C" stroke-width="1.5" stroke-linecap="round" stroke-linejoin="round"/>
<path d="M25.6335 9.32937C25.6295 9.32937 25.6268 9.33204 25.6268 9.33604C25.6268 9.34004 25.6295 9.34271 25.6335 9.34271C25.6375 9.34271 25.6401 9.34004 25.6401 9.33604C25.6401 9.33204 25.6375 9.32937 25.6335 9.32937" stroke="#1F3D8C" stroke-width="1.5" stroke-linecap="round" stroke-linejoin="round"/>
<path fill-rule="evenodd" clip-rule="evenodd" d="M28.9855 11.9387C29.3708 11.1054 29.6015 10.1854 29.6015 9.20535C29.6015 5.59469 26.6735 2.66669 23.0628 2.66669C19.4522 2.66669 16.5242 5.59469 16.5242 9.20535C16.5242 12.816 19.4522 15.744 23.0628 15.744C24.0348 15.744 24.9482 15.5187 25.7775 15.1387L29.8335 16L28.9855 11.9387Z" stroke="#1F3D8C" stroke-width="1.5" stroke-linecap="round" stroke-linejoin="round"/>
</svg>
