<svg width="236" height="230" viewBox="0 0 236 230" fill="none" xmlns="http://www.w3.org/2000/svg">
<path opacity="0.5" fill-rule="evenodd" clip-rule="evenodd" d="M128.047 94.0124C122.271 90.646 112.949 90.646 107.22 94.0068L4.28625 154.394C-1.45581 157.761 -1.42396 163.213 4.3537 166.579L107.962 226.969C113.726 230.328 123.049 230.328 128.789 226.961L231.724 166.572C237.451 163.213 237.421 157.761 231.657 154.4L128.047 94.0124Z" fill="url(#paint0_linear)"/>
<path opacity="0.5" fill-rule="evenodd" clip-rule="evenodd" d="M128.047 79.0124C122.271 75.646 112.949 75.646 107.22 79.0068L4.28625 139.394C-1.45581 142.761 -1.42396 148.213 4.3537 151.579L107.962 211.969C113.726 215.328 123.049 215.328 128.789 211.961L231.724 151.572C237.451 148.213 237.421 142.761 231.657 139.4L128.047 79.0124Z" fill="url(#paint1_linear)"/>
<mask id="mask0" mask-type="alpha" maskUnits="userSpaceOnUse" x="105" y="102" width="72" height="49">
<path fill-rule="evenodd" clip-rule="evenodd" d="M176.777 102.08H105.895V150.008H176.777V102.08Z" fill="white"/>
</mask>
<g mask="url(#mask0)">
<path fill-rule="evenodd" clip-rule="evenodd" d="M108.99 114.923L128.189 103.856C132.3 101.488 138.946 101.488 143.032 103.856L172.363 130.617C176.446 132.985 178.803 140.691 174.439 143.77L166.914 148.23C162.806 150.6 155.639 150.6 151.555 148.23L108.943 123.504C104.859 121.138 104.882 117.291 108.99 114.923" fill="#F1F6FC"/>
</g>
<path fill-rule="evenodd" clip-rule="evenodd" d="M171.907 42.4885L171.674 138.13C171.665 141.309 170.539 143.546 168.725 144.598L175.818 140.483C177.632 139.431 178.758 137.194 178.767 134.015L179 38.3735L171.907 42.4885Z" fill="#F1F6FC"/>
<path fill-rule="evenodd" clip-rule="evenodd" d="M135.737 1.87072C132.929 0.252059 130.384 0.102059 128.548 1.16773L121.455 5.28266C123.291 4.21698 125.837 4.36698 128.644 5.98564L161.832 25.0715L168.925 20.9565L135.737 1.87072Z" fill="#F1F6FC"/>
<path fill-rule="evenodd" clip-rule="evenodd" d="M171.909 42.4918L171.698 126.259L171.669 138.129C171.653 144.53 167.108 147.111 161.535 143.896L128.348 124.813C122.766 121.589 118.252 113.798 118.277 107.399L118.308 95.5202L118.508 11.753C118.524 5.35453 123.069 2.77095 128.641 5.98587L161.829 25.0717C167.411 28.2866 171.925 36.0844 171.909 42.4918" fill="#DBE3EB"/>
<path fill-rule="evenodd" clip-rule="evenodd" d="M164.012 26.607C164.149 26.719 164.282 26.8399 164.416 26.9585C164.627 27.1444 164.838 27.3347 165.046 27.5361C165.181 27.666 165.318 27.8026 165.452 27.9391C165.647 28.1406 165.842 28.3466 166.035 28.5593C166.156 28.6914 166.277 28.8279 166.394 28.9645C166.685 29.3026 166.968 29.6518 167.242 30.01C167.302 30.0884 167.365 30.16 167.423 30.2406C167.748 30.675 168.058 31.1272 168.354 31.5861C168.432 31.707 168.504 31.8302 168.58 31.9556C168.8 32.3093 169.011 32.6697 169.213 33.0369C169.293 33.1824 169.376 33.3279 169.453 33.4779C169.672 33.8988 169.883 34.3264 170.078 34.7585C170.112 34.8302 170.148 34.9018 170.181 34.9757C170.211 35.0406 170.233 35.1056 170.262 35.1705C170.397 35.4794 170.52 35.7929 170.639 36.1041C170.686 36.2227 170.726 36.3436 170.771 36.4623C170.872 36.7399 170.964 37.0175 171.051 37.2973C171.085 37.407 171.121 37.5145 171.155 37.6242C171.264 38.0026 171.368 38.3809 171.457 38.7593C171.466 38.7996 171.473 38.8399 171.482 38.8802C171.558 39.2182 171.625 39.5585 171.682 39.8944C171.702 40.0085 171.717 40.125 171.733 40.2391C171.773 40.5123 171.807 40.7854 171.832 41.0563C171.843 41.1682 171.854 41.2802 171.863 41.3899C171.89 41.7593 171.908 42.1264 171.908 42.4891L179.001 38.372C179.003 38.0115 178.983 37.6444 178.956 37.275C178.947 37.163 178.936 37.0533 178.925 36.9414C178.9 36.6705 178.866 36.3973 178.826 36.1242C178.81 36.0078 178.795 35.8936 178.774 35.7794C178.718 35.4414 178.651 35.1033 178.575 34.7653C178.566 34.725 178.559 34.6847 178.55 34.6444C178.46 34.266 178.357 33.8876 178.247 33.5093C178.214 33.3996 178.178 33.2899 178.144 33.1824C178.057 32.9026 177.963 32.625 177.864 32.3473C177.819 32.2287 177.779 32.11 177.732 31.9891C177.613 31.6779 177.489 31.3645 177.355 31.0556C177.326 30.9906 177.303 30.9257 177.274 30.8585C177.265 30.8429 177.261 30.825 177.252 30.8093C177.229 30.7533 177.198 30.6996 177.171 30.6436C176.976 30.2115 176.765 29.7839 176.545 29.3608C176.469 29.213 176.388 29.0675 176.305 28.922C176.106 28.5548 175.893 28.1944 175.673 27.8384C175.597 27.7153 175.525 27.5921 175.447 27.4712C175.151 27.0123 174.841 26.56 174.518 26.1235C174.458 26.0473 174.397 25.9735 174.337 25.8951C174.061 25.5369 173.778 25.1876 173.489 24.8496C173.437 24.7914 173.393 24.7264 173.341 24.6682C173.274 24.5899 173.2 24.5205 173.128 24.4421C172.935 24.2317 172.742 24.0257 172.545 23.822C172.408 23.6854 172.276 23.5511 172.139 23.419C171.93 23.2197 171.722 23.0294 171.509 22.8414C171.374 22.725 171.242 22.6041 171.105 22.4921C170.87 22.2951 170.628 22.1138 170.385 21.9347C170.267 21.8451 170.152 21.7511 170.033 21.6682C169.668 21.413 169.298 21.1735 168.923 20.9563L161.831 25.0712C162.205 25.2884 162.575 25.5279 162.938 25.7832C163.059 25.866 163.174 25.96 163.293 26.0473C163.535 26.2287 163.777 26.4123 164.012 26.607" fill="#F1F6FC"/>
<path fill-rule="evenodd" clip-rule="evenodd" d="M164.711 42.4744C164.72 38.6527 161.569 33.2192 158.228 31.296L129.059 14.5207C127.565 13.661 125.702 14.7356 125.697 16.455L125.516 100.65L164.532 123.107L164.711 42.4744Z" fill="white"/>
<path fill-rule="evenodd" clip-rule="evenodd" d="M136.195 118.427L149.432 126.045L136.195 118.427Z" fill="white"/>
<path fill-rule="evenodd" clip-rule="evenodd" d="M149.432 127.164C149.82 127.164 150.197 126.963 150.405 126.604C150.713 126.067 150.529 125.384 149.993 125.075L136.756 117.457C136.215 117.148 135.534 117.331 135.222 117.869C134.913 118.404 135.096 119.089 135.635 119.395L148.872 127.014C149.049 127.117 149.242 127.164 149.432 127.164" fill="#F1F6FC"/>
<path fill-rule="evenodd" clip-rule="evenodd" d="M144.437 100.461C145.056 100.461 145.558 99.96 145.558 99.342V44.0122C145.558 43.392 145.056 42.8928 144.437 42.8928C143.818 42.8928 143.316 43.392 143.316 44.0122V99.342C143.316 99.96 143.818 100.461 144.437 100.461" fill="#DC272B"/>
<path fill-rule="evenodd" clip-rule="evenodd" d="M150.878 62.2109C150.997 62.2109 151.116 62.193 151.235 62.1527C151.822 61.9557 152.139 61.3221 151.941 60.7356L145.398 41.2512C145.261 40.8438 144.9 40.5482 144.472 40.4968C144.041 40.4385 143.622 40.6423 143.389 41.0072L137.177 50.7482C136.843 51.2699 136.998 51.9617 137.52 52.2953C138.036 52.6244 138.731 52.4766 139.068 51.9505L144.019 44.1885L149.815 61.4475C149.972 61.9154 150.41 62.2109 150.878 62.2109" fill="#DC272B"/>
<path fill-rule="evenodd" clip-rule="evenodd" d="M129 142.198L84.3718 119.914L106.686 112.488L129 142.198ZM84.3718 119.914L129 142.198V179.337L84.3718 157.053V119.914Z" fill="#DBE3EB"/>
<path fill-rule="evenodd" clip-rule="evenodd" d="M78.6546 122.768L100.969 115.341L123.283 145.052L78.6546 122.768ZM78.6546 122.768L123.283 145.052V182.19L78.6546 159.908V122.768Z" fill="#F1F6FC"/>
<path fill-rule="evenodd" clip-rule="evenodd" d="M82.8391 114.173L120.07 132.764V164.645L80.8298 115.341L82.8391 114.173Z" fill="#CD4C4A"/>
<path fill-rule="evenodd" clip-rule="evenodd" d="M80.8296 115.342L117.895 133.849V165.731L80.8296 147.223V115.342Z" fill="#DC272B"/>
<path fill-rule="evenodd" clip-rule="evenodd" d="M120.07 132.765L117.896 133.849V146.761L120.07 146.122V132.765Z" fill="#B0322F"/>
<path fill-rule="evenodd" clip-rule="evenodd" d="M83.9913 122.622L100.962 131.063V134.534L83.9913 126.094V122.622Z" fill="#EA6565"/>
<path fill-rule="evenodd" clip-rule="evenodd" d="M91.4111 131.681L100.981 136.44V138.25L91.4111 133.49V131.681Z" fill="#EA6565"/>
<path fill-rule="evenodd" clip-rule="evenodd" d="M108.932 133.166C105.906 131.656 103.45 133.15 103.45 136.503C103.45 139.856 105.906 143.803 108.932 145.314C111.957 146.826 114.414 145.33 114.414 141.977C114.414 138.625 111.957 134.677 108.932 133.166" fill="#EA6565"/>
<path fill-rule="evenodd" clip-rule="evenodd" d="M78.6543 122.768V159.908L123.282 182.19V145.052L100.968 152.481L78.6543 122.768Z" fill="#8ED3F4"/>
<path fill-rule="evenodd" clip-rule="evenodd" d="M72.4187 125.882V163.021L117.045 185.305V148.166L94.7313 155.594L72.4187 125.882Z" fill="url(#paint2_linear)"/>
<path fill-rule="evenodd" clip-rule="evenodd" d="M117.046 185.306L123.283 182.191V145.053L100.969 152.481L78.6551 122.769L72.4193 125.882L94.7319 155.595L117.046 148.166V185.306Z" fill="#F1F6FC"/>
<path fill-rule="evenodd" clip-rule="evenodd" d="M129 142.198L117.045 148.166V185.306L129 179.338V142.198Z" fill="#DBE3EB"/>
<defs>
<linearGradient id="paint0_linear" x1="391.322" y1="166.918" x2="297.711" y2="-18.1363" gradientUnits="userSpaceOnUse">
<stop stop-color="white"/>
<stop offset="0.979407" stop-color="#E2E8EF"/>
</linearGradient>
<linearGradient id="paint1_linear" x1="391.322" y1="151.918" x2="297.711" y2="-33.1363" gradientUnits="userSpaceOnUse">
<stop stop-color="white"/>
<stop offset="0.979407" stop-color="#E2E8EF"/>
</linearGradient>
<linearGradient id="paint2_linear" x1="125.42" y1="174.889" x2="78.2543" y2="188.184" gradientUnits="userSpaceOnUse">
<stop stop-color="#EFF3F7"/>
<stop offset="1" stop-color="#DBE3EB"/>
</linearGradient>
</defs>
</svg>
