<svg width="134" height="106" viewBox="0 0 134 106" fill="none" xmlns="http://www.w3.org/2000/svg">
<g id="Group 7">
<g id="Path 7">
<path id="Mask" fill-rule="evenodd" clip-rule="evenodd" d="M0 32C0 26.4772 4.47715 22 10 22H124C129.523 22 134 26.4772 134 32V96C134 101.523 129.523 106 124 106H10C4.47715 106 0 101.523 0 96V32Z" fill="#D2D6E4"/>
<mask id="mask0" mask-type="alpha" maskUnits="userSpaceOnUse" x="0" y="22" width="134" height="84">
<path id="Mask_2" fill-rule="evenodd" clip-rule="evenodd" d="M0 32C0 26.4772 4.47715 22 10 22H124C129.523 22 134 26.4772 134 32V96C134 101.523 129.523 106 124 106H10C4.47715 106 0 101.523 0 96V32Z" fill="white"/>
</mask>
<g mask="url(#mask0)">
<path id="Path 7_2" fill-rule="evenodd" clip-rule="evenodd" d="M-14 17L66.9767 81L148 17H-14Z" fill="#EBEEF9"/>
</g>
</g>
<g id="Group 2">
<path id="Oval" fill-rule="evenodd" clip-rule="evenodd" d="M67 50C80.8071 50 92 38.8071 92 25C92 11.1929 80.8071 0 67 0C53.1929 0 42 11.1929 42 25C42 38.8071 53.1929 50 67 50Z" fill="#2D3F89"/>
<path id="Combined Shape" fill-rule="evenodd" clip-rule="evenodd" d="M67.0002 38.1818C59.7205 38.1818 53.8184 32.2803 53.8184 24.9999C53.8184 17.7202 59.7205 11.8181 67.0002 11.8181C74.2805 11.8181 80.182 17.7202 80.182 24.9999C80.174 32.2769 74.2772 38.1737 67.0002 38.1818ZM67.0002 14.2148C61.0439 14.2148 56.2151 19.0436 56.2151 24.9999C56.2151 30.9569 61.0439 35.7851 67.0002 35.7851C72.9565 35.7851 77.7853 30.9569 77.7853 24.9999C77.7786 19.0463 72.9538 14.2222 67.0002 14.2148ZM64.3193 28.3014C64.5466 28.5682 64.8803 28.722 65.2307 28.7214C65.5063 28.722 65.7737 28.6271 65.9871 28.4525L72.1888 23.407C72.5265 23.1382 72.6937 22.7089 72.6268 22.2829C72.5599 21.8569 72.2697 21.4992 71.8658 21.3474C71.4625 21.1949 71.0078 21.2718 70.6768 21.548L65.3825 25.8552L63.4794 23.6264C63.2025 23.296 62.7699 23.1402 62.3459 23.2171C61.9226 23.2947 61.5722 23.5929 61.4297 23.9995C61.2873 24.4061 61.3736 24.8575 61.6564 25.1825L64.3193 28.3014Z" fill="#FCFCFC"/>
</g>
</g>
</svg>
