<svg width="24" height="24" viewBox="0 0 24 24" fill="none" xmlns="http://www.w3.org/2000/svg">
<path fill-rule="evenodd" clip-rule="evenodd" d="M5.57019e-05 11.9399C-0.0193292 5.59431 5.0233 0.315677 11.4133 0.0138795C18.4362 -0.317879 24.2122 5.34171 23.994 12.2836C23.7904 18.7596 18.3446 23.9036 11.8133 23.8047C9.96263 23.7766 8.21394 23.3323 6.65707 22.5631L0.597227 23.9872C0.264906 24.0652 -0.0368046 23.7747 0.0321131 23.4429L1.30614 17.3086C0.476346 15.6968 0.00595798 13.8726 5.57019e-05 11.9399ZM12.0001 21.2232C14.5098 21.2232 16.8694 20.2537 18.6441 18.4934C20.4029 16.7489 21.3961 14.3702 21.3962 11.9029C21.3961 9.41343 20.4188 7.07298 18.6441 5.31265C16.8695 3.55238 14.51 2.58293 12.0002 2.58287C9.5129 2.58287 7.11485 3.5681 5.35603 5.31271C3.58135 7.07309 2.604 9.41354 2.604 11.9031C2.604 13.3941 2.94761 14.8176 3.62527 16.134L4.04103 16.9416L3.25898 20.7073L6.97429 19.8342L7.8182 20.2512C9.12359 20.8961 10.5305 21.2232 12.0001 21.2232Z" fill="#DC272B"/>
<path fill-rule="evenodd" clip-rule="evenodd" d="M17.8241 14.4844L15.4997 13.8224C15.1941 13.7354 14.8651 13.8213 14.6424 14.0464L14.074 14.6208C13.8343 14.8631 13.4706 14.9409 13.1534 14.8136C12.0538 14.3722 9.74085 12.3323 9.15016 11.3119C8.97975 11.0176 9.00793 10.6496 9.21717 10.381L9.71342 9.74421C9.90785 9.4947 9.94888 9.15961 9.8203 8.87119L8.84237 6.67728C8.60813 6.1518 7.93117 5.99884 7.4889 6.36986C6.84017 6.9141 6.07045 7.74115 5.97688 8.65738C5.8119 10.2728 6.51034 12.3091 9.15149 14.7543C12.2027 17.5791 14.6462 17.9523 16.2371 17.57C17.1394 17.3533 17.8605 16.4841 18.3156 15.7725C18.6259 15.2873 18.3809 14.643 17.8241 14.4844Z" fill="#DC272B"/>
</svg>
