<svg width="20" height="28" viewBox="0 0 20 28" fill="none" xmlns="http://www.w3.org/2000/svg">
<path d="M16.4349 0.902901C14.6556 0.320673 12.3057 0 9.81811 0C7.33051 0 4.98058 0.320673 3.2013 0.902901C0.555417 1.76879 0 2.9404 0 3.77076V24.2292C0 25.0597 0.555417 26.2313 3.2013 27.0971C4.98058 27.6793 7.33046 28 9.81811 28C12.3058 28 14.6556 27.6793 16.4349 27.0971C19.0809 26.2312 19.6362 25.0596 19.6362 24.2292V3.77076C19.6362 2.9404 19.0808 1.76879 16.4349 0.902901ZM3.70385 2.47256C5.32511 1.94202 7.49652 1.64984 9.81811 1.64984C12.1397 1.64984 14.3111 1.94202 15.9324 2.47256C17.6237 3.02602 18.0044 3.60984 18.0044 3.77076C18.0044 3.93167 17.6237 4.5155 15.9324 5.06896C14.311 5.59949 12.1396 5.89168 9.81811 5.89168C7.49657 5.89168 5.32511 5.59949 3.70385 5.06896C2.01247 4.5155 1.63182 3.93167 1.63182 3.77076C1.63182 3.60984 2.01247 3.02602 3.70385 2.47256ZM15.9324 25.5274C14.311 26.058 12.1396 26.3502 9.81811 26.3502C7.49657 26.3502 5.32511 26.058 3.70385 25.5274C2.01247 24.974 1.63182 24.3901 1.63182 24.2292V19.6137C2.0482 19.8489 2.56348 20.0755 3.2013 20.2842C4.98058 20.8664 7.33046 21.1871 9.81811 21.1871C12.3058 21.1871 14.6556 20.8664 16.4349 20.2842C17.0727 20.0755 17.5881 19.8489 18.0044 19.6137V24.2292C18.0044 24.3901 17.6237 24.974 15.9324 25.5274ZM18.0044 17.4163C18.0044 17.5772 17.6237 18.1611 15.9324 18.7146C14.311 19.2451 12.1396 19.5373 9.81811 19.5373C7.49657 19.5373 5.32511 19.2451 3.70385 18.7146C2.01247 18.1611 1.63182 17.5772 1.63182 17.4163V17.3948V12.8025C2.0482 13.0377 2.56348 13.2643 3.2013 13.473C4.98058 14.0552 7.33046 14.3759 9.81811 14.3759C12.3058 14.3759 14.6556 14.0552 16.4349 13.473C17.0727 13.2643 17.5881 13.0377 18.0044 12.8025V17.3948V17.4163ZM18.0044 10.6052C18.0044 10.7661 17.6237 11.3499 15.9324 11.9034C14.311 12.4339 12.1396 12.7261 9.81811 12.7261C7.49657 12.7261 5.32511 12.4339 3.70385 11.9034C2.01247 11.3499 1.63182 10.7661 1.63182 10.6052V10.5819V5.96818C2.0482 6.20339 2.56348 6.42997 3.2013 6.63867C4.98058 7.2209 7.33046 7.54157 9.81811 7.54157C12.3058 7.54157 14.6556 7.2209 16.4349 6.63867C17.0727 6.42997 17.5881 6.20333 18.0044 5.96818V10.5819V10.6052Z" fill="#1F3D8C"/>
<path d="M15.2522 8.65454H15.2339C14.7833 8.65454 14.418 9.02422 14.418 9.4802C14.418 9.93618 14.7833 10.3059 15.2339 10.3059H15.2522C15.7028 10.3059 16.0681 9.93618 16.0681 9.4802C16.0681 9.02422 15.7028 8.65454 15.2522 8.65454Z" fill="#35B6B4"/>
<path d="M15.2522 15.4824H15.2339C14.7833 15.4824 14.418 15.8513 14.418 16.3063C14.418 16.7614 14.7833 17.1302 15.2339 17.1302H15.2522C15.7028 17.1302 16.0681 16.7614 16.0681 16.3063C16.0681 15.8513 15.7028 15.4824 15.2522 15.4824Z" fill="#35B6B4"/>
<path d="M15.2522 22.3081H15.2339C14.7833 22.3081 14.418 22.6777 14.418 23.1335C14.418 23.5894 14.7833 23.959 15.2339 23.959H15.2522C15.7028 23.959 16.0681 23.5894 16.0681 23.1335C16.0681 22.6777 15.7028 22.3081 15.2522 22.3081Z" fill="#35B6B4"/>
</svg>
