<svg width="26" height="31" viewBox="0 0 26 31" fill="none" xmlns="http://www.w3.org/2000/svg">
<path d="M14.5 3H3.625C2.17525 3 1 4.20883 1 5.7V27.3C1 28.7912 2.17525 30 3.625 30H19.375C20.8247 30 22 28.7912 22 27.3V14.5" stroke="#E4B263" stroke-width="2" stroke-linecap="round" stroke-linejoin="round"/>
<path d="M6.66634 15L13.333 15" stroke="#405B9A" stroke-width="2" stroke-linecap="round" stroke-linejoin="round"/>
<path d="M6.66634 19L17.333 19" stroke="#405B9A" stroke-width="2" stroke-linecap="round" stroke-linejoin="round"/>
<path d="M6.66634 11L9.33301 11" stroke="#405B9A" stroke-width="2" stroke-linecap="round" stroke-linejoin="round"/>
<path d="M24.5676 1H18.4458C17.9662 1 17.5713 1.41547 17.5713 1.90258V7.7765C17.5713 8.09169 17.7264 8.3639 17.9521 8.53582L21.5067 11L25.0472 8.55014C25.2729 8.39255 25.4281 8.10602 25.4281 7.79083V1.91691C25.4422 1.41547 25.0472 1 24.5676 1ZM21.5067 2.27712C22.2543 2.27712 22.875 2.90749 22.875 3.6668C22.875 4.42612 22.2543 5.05649 21.5067 5.05649C20.7591 5.05649 20.1385 4.42612 20.1385 3.6668C20.1385 2.90749 20.7591 2.27712 21.5067 2.27712ZM23.4251 7.81948C22.9596 8.33524 22.3531 8.76504 21.5067 9.02292C20.6745 8.76504 20.0539 8.33524 19.5884 7.83381V6.95988L20.4347 6.40115L21.5067 7.21777L22.5787 6.40115L23.4251 6.95988V7.81948Z" stroke="#405B9A" stroke-width="1.07143" stroke-linecap="round" stroke-linejoin="round"/>
<path d="M11.6665 26H11.6798" stroke="#E4B263" stroke-width="2" stroke-linecap="round" stroke-linejoin="round"/>
</svg>
