<svg width="34" height="39" viewBox="0 0 34 39" fill="none" xmlns="http://www.w3.org/2000/svg">
<path d="M21 35.3333H5.33333C4.44928 35.3333 3.60143 34.9821 2.97631 34.357C2.35119 33.7319 2 32.8841 2 32V5.33333C2 4.44928 2.35119 3.60143 2.97631 2.97631C3.60143 2.35119 4.44928 2 5.33333 2H18.6667L28.6667 12V18.5" stroke="#1F3D8C" stroke-width="2.5" stroke-linecap="round" stroke-linejoin="round"/>
<path d="M29 23V38" stroke="#F07E26" stroke-width="2" stroke-linecap="round" stroke-linejoin="round"/>
<path d="M32.3333 26H27.3333C26.7145 26 26.121 26.2371 25.6834 26.659C25.2458 27.081 25 27.6533 25 28.25C25 28.8467 25.2458 29.419 25.6834 29.841C26.121 30.2629 26.7145 30.5 27.3333 30.5H30.6667C31.2855 30.5 31.879 30.7371 32.3166 31.159C32.7542 31.581 33 32.1533 33 32.75C33 33.3467 32.7542 33.919 32.3166 34.341C31.879 34.7629 31.2855 35 30.6667 35H25" stroke="#F07E26" stroke-width="2" stroke-linecap="round" stroke-linejoin="round"/>
<path d="M18.667 2V12H28.667" stroke="#1F3D8C" stroke-width="2.5" stroke-linecap="round" stroke-linejoin="round"/>
<path d="M17 20H9" stroke="#1F3D8C" stroke-width="2.5" stroke-linecap="round" stroke-linejoin="round"/>
<path d="M17 27H9" stroke="#1F3D8C" stroke-width="2.5" stroke-linecap="round" stroke-linejoin="round"/>
<path d="M12.0003 13.6665H10.3337H8.66699" stroke="#1F3D8C" stroke-width="2.5" stroke-linecap="round" stroke-linejoin="round"/>
</svg>
