<svg width="48" height="48" viewBox="0 0 48 48" fill="none" xmlns="http://www.w3.org/2000/svg">
<rect width="48" height="48" rx="10" fill="#FF333B"/>
<path d="M35.7656 21.2344C36.0938 21.6562 36.0469 22.2656 35.6719 22.6406L24.7969 34.1719C24.5625 34.4062 24.2812 34.5 24 34.5C23.6719 34.5 23.3906 34.4062 23.1562 34.1719L12.3281 22.6406C11.9531 22.2656 11.9062 21.6562 12.2344 21.2344L17.0625 14.0156C17.25 13.6875 17.625 13.5 17.9531 13.5H30C30.3281 13.5 30.7031 13.6875 30.8906 14.0156L35.7656 21.2344ZM29.9062 16.5469L26.3438 21H32.9062L29.9062 16.5469ZM24 20.3906L27.6562 15.75H20.2969L24 20.3906ZM18.0469 16.5469L15.0469 21H21.6094L18.0469 16.5469ZM24 31.7344L31.9688 23.25H15.9844L24 31.7344Z" fill="white"/>
</svg>
