<svg width="40" height="40" viewBox="0 0 40 40" fill="none" xmlns="http://www.w3.org/2000/svg">
<rect width="40" height="40" rx="20" fill="#FFF2F3"/>
<path d="M17.4609 19.25V24.25C17.4609 24.9531 16.9141 25.5 16.2109 25.5H14.9609C13.5938 25.5 12.4609 24.3672 12.4609 23V20.5C12.4609 19.1328 13.5547 18 14.9609 18H16.2109C16.875 18 17.4609 18.5859 17.4609 19.25ZM16.2109 24.25V19.25H14.9609C14.2578 19.25 13.7109 19.8359 13.7109 20.5V23C13.7109 23.7031 14.2578 24.25 14.9609 24.25H16.2109ZM24.9609 25.5V25.5391H23.75C23.0469 25.5391 22.5 24.9922 22.5 24.2891V19.2891C22.5 18.625 23.0469 18.0391 23.75 18.0391H24.9609C26.3281 18.0391 27.4609 19.1328 27.4609 20.5V23C27.4609 24.3672 26.3281 25.5 24.9609 25.5ZM23.7109 19.25L23.6719 24.25H24.9219C25.5859 24.25 26.1719 23.7031 26.1719 23V20.5C26.1719 19.8359 25.5859 19.25 24.9219 19.25H23.7109ZM20.9375 10.5781C26.0938 11.0469 30 15.5781 29.9219 20.7734V27.4141C29.9219 29.1328 28.5156 30.5 26.7969 30.5H19.3359C18.2031 30.5 17.3047 29.4844 17.5 28.2734C17.6953 27.375 18.5156 26.75 19.4141 26.75H21.6797C22.4219 26.75 23.1641 27.1406 23.5156 27.8047C23.7891 28.3125 23.7891 28.8203 23.5938 29.25H26.875C27.8906 29.25 28.75 28.3906 28.75 27.375V20.7734C28.75 16.2031 25.3516 12.2188 20.7812 11.7891C15.5469 11.3203 11.3672 15.5391 11.25 20.5V21.1641C11.2109 21.4766 10.9375 21.75 10.625 21.75C10.2734 21.75 9.96094 21.4766 9.96094 21.125L10 20.5391C10.1562 14.7969 14.9219 9.99219 20.9375 10.5781ZM21.8359 29.25C22.1875 29.25 22.4609 28.9766 22.4609 28.625C22.4609 28.3125 22.1484 28 21.8359 28H19.3359C18.9844 28 18.7109 28.3125 18.7109 28.625C18.7109 28.9766 18.9844 29.25 19.3359 29.25H21.8359Z" fill="#FF000A"/>
</svg>
