<svg width="24" height="30" viewBox="0 0 24 30" fill="none" xmlns="http://www.w3.org/2000/svg">
<path d="M19.3612 15V28.0955C19.3612 28.4573 19.1502 28.7588 18.8185 28.9095L18.4567 29C18.2457 29 18.0045 28.9095 17.8537 28.7588L15.7432 26.799L13.5725 28.7588C13.2408 29.0603 12.6981 29.0603 12.3665 28.7588L10.1957 26.799L7.99475 28.7588C7.6631 29.0603 7.12041 29.0603 6.78876 28.7588L4.61797 26.799L2.50749 28.7588C2.32659 28.9095 2.11554 29 1.90449 29C1.4221 29 1 28.608 1 28.0955V5.96553C1 5.45298 1.39195 5.06104 1.90449 5.06104H10.1957" stroke="#405B9A" stroke-width="2" stroke-linecap="round" stroke-linejoin="round"/>
<path d="M5.06115 16.8167L11.8296 16.8167" stroke="#DC272B" stroke-width="2" stroke-linecap="round" stroke-linejoin="round"/>
<path d="M5.06111 20.8779L15.8906 20.8779" stroke="#DC272B" stroke-width="2" stroke-linecap="round" stroke-linejoin="round"/>
<path d="M5.06118 12.7556L7.76855 12.7556" stroke="#DC272B" stroke-width="2" stroke-linecap="round" stroke-linejoin="round"/>
<path d="M22.1923 10.9926V9.99338C22.1923 9.46334 21.9817 8.95502 21.6069 8.58022C21.2321 8.20543 20.7238 7.99487 20.1938 7.99487H16.1968C15.6667 7.99487 15.1584 8.20543 14.7836 8.58022C14.4088 8.95502 14.1982 9.46334 14.1982 9.99338V10.9926" stroke="#DC272B" stroke-width="2" stroke-linecap="round" stroke-linejoin="round"/>
<path d="M18.1948 4.99702C19.2985 4.99702 20.1933 4.10226 20.1933 2.99851C20.1933 1.89476 19.2985 1 18.1948 1C17.0911 1 16.1963 1.89476 16.1963 2.99851C16.1963 4.10226 17.0911 4.99702 18.1948 4.99702Z" stroke="#DC272B" stroke-width="2" stroke-linecap="round" stroke-linejoin="round"/>
</svg>
