<svg width="22" height="30" viewBox="0 0 22 30" fill="none" xmlns="http://www.w3.org/2000/svg">
<path d="M19.0851 14.7895V27.6881C19.0851 28.0444 18.8772 28.3414 18.5506 28.4899L18.1942 28.579C17.9864 28.579 17.7488 28.4899 17.6003 28.3414L15.5216 26.4111L13.3834 28.3414C13.0567 28.6384 12.5222 28.6384 12.1956 28.3414L10.0574 26.4111L7.88957 28.3414C7.56291 28.6384 7.02837 28.6384 6.70171 28.3414L4.56357 26.4111L2.48482 28.3414C2.30664 28.4899 2.09877 28.579 1.89089 28.579C1.41575 28.579 1 28.1929 1 27.6881V5.89089C1 5.38605 1.38605 5 1.89089 5H10.0574" stroke="#F07E26" stroke-width="2" stroke-linecap="round" stroke-linejoin="round"/>
<path d="M5.00033 16.579L11.667 16.579" stroke="#6E3784" stroke-width="2" stroke-linecap="round" stroke-linejoin="round"/>
<path d="M5.00033 20.579L15.667 20.579" stroke="#6E3784" stroke-width="2" stroke-linecap="round" stroke-linejoin="round"/>
<path d="M5.00033 12.579L7.66699 12.579" stroke="#6E3784" stroke-width="2" stroke-linecap="round" stroke-linejoin="round"/>
<path d="M20.8738 10.8423V9.85811C20.8738 9.33604 20.6664 8.83535 20.2973 8.4662C19.9281 8.09704 19.4274 7.88965 18.9054 7.88965H14.9685C14.4464 7.88965 13.9457 8.09704 13.5765 8.4662C13.2074 8.83535 13 9.33604 13 9.85811V10.8423" stroke="#6E3784" stroke-width="2" stroke-linecap="round" stroke-linejoin="round"/>
<path d="M16.9367 4.93691C18.0239 4.93691 18.9052 4.05561 18.9052 2.96846C18.9052 1.88131 18.0239 1 16.9367 1C15.8496 1 14.9683 1.88131 14.9683 2.96846C14.9683 4.05561 15.8496 4.93691 16.9367 4.93691Z" stroke="#6E3784" stroke-width="2" stroke-linecap="round" stroke-linejoin="round"/>
</svg>
