<svg width="33" height="32" viewBox="0 0 33 32" fill="none" xmlns="http://www.w3.org/2000/svg">
<path d="M28.5 16C28.5 9.384 23.116 4 16.5 4C9.88267 4 4.5 9.38267 4.5 16" stroke="#DC272B" stroke-width="1.5" stroke-linecap="round" stroke-linejoin="round"/>
<path d="M4.5 16C4.5 22.6173 9.88267 28 16.5 28C23.1173 28 28.5 22.616 28.5 16" stroke="#DC272B" stroke-width="1.5" stroke-linecap="round" stroke-linejoin="round"/>
<path d="M20.9373 12.6666C20.7533 12.6666 20.604 12.816 20.6053 13C20.6053 13.184 20.7546 13.3333 20.9386 13.3333C21.1226 13.3333 21.272 13.184 21.272 13C21.272 12.816 21.1226 12.6666 20.9373 12.6666" stroke="#1F3D8C" stroke-width="1.5" stroke-linecap="round" stroke-linejoin="round"/>
<path d="M12.0186 12.6666C11.8346 12.6666 11.6853 12.816 11.6866 13C11.6866 13.184 11.8359 13.3333 12.0199 13.3333C12.2039 13.3333 12.3533 13.184 12.3533 13C12.3533 12.816 12.2039 12.6666 12.0186 12.6666" stroke="#1F3D8C" stroke-width="1.5" stroke-linecap="round" stroke-linejoin="round"/>
<path fill-rule="evenodd" clip-rule="evenodd" d="M16.5 22.6667C18.7227 22.6667 20.5 20.8894 20.5 18.6667H12.5C12.5 20.8894 14.2773 22.6667 16.5 22.6667V22.6667Z" stroke="#1F3D8C" stroke-width="1.5" stroke-linecap="round" stroke-linejoin="round"/>
</svg>
