<svg xmlns="http://www.w3.org/2000/svg" width="52" height="52" viewBox="0 0 52 52">
    <g fill="none" fill-rule="nonzero">
        <path fill="#2D3F89" d="M51.133 50.267h-5.2v-28.6a.867.867 0 0 0-.866-.867H32.933V.867A.867.867 0 0 0 32.067 0H9.533a.867.867 0 0 0-.866.867v49.4h-7.8a.867.867 0 0 0 0 1.733h50.266a.867.867 0 0 0 0-1.733zm-32.933 0h-3.467v-7.8c0-.479.388-.867.867-.867h1.733c.479 0 .867.388.867.867v7.8zm3.467-28.6v28.6h-1.734v-7.8a2.6 2.6 0 0 0-2.6-2.6H15.6a2.6 2.6 0 0 0-2.6 2.6v7.8h-2.6V1.733h20.8V20.8h-8.667a.867.867 0 0 0-.866.867zm22.533 28.6H23.4V22.533h20.8v27.734z"/>
        <path fill="#EF7D25" d="M27.733 12.133h-5.2a.867.867 0 0 0-.866.867v5.2c0 .479.388.867.866.867h5.2a.867.867 0 0 0 .867-.867V13a.867.867 0 0 0-.867-.867zm-.866 5.2H23.4v-3.466h3.467v3.466zM27.733 3.467h-5.2a.867.867 0 0 0-.866.866v5.2c0 .479.388.867.866.867h5.2a.867.867 0 0 0 .867-.867v-5.2a.867.867 0 0 0-.867-.866zm-.866 5.2H23.4V5.2h3.467v3.467zM19.067 12.133h-5.2A.867.867 0 0 0 13 13v5.2c0 .479.388.867.867.867h5.2a.867.867 0 0 0 .866-.867V13a.867.867 0 0 0-.866-.867zm-.867 5.2h-3.467v-3.466H18.2v3.466zM19.067 3.467h-5.2a.867.867 0 0 0-.867.866v5.2c0 .479.388.867.867.867h5.2a.867.867 0 0 0 .866-.867v-5.2a.867.867 0 0 0-.866-.866zm-.867 5.2h-3.467V5.2H18.2v3.467zM19.067 20.8h-5.2a.867.867 0 0 0-.867.867v5.2c0 .478.388.866.867.866h5.2a.867.867 0 0 0 .866-.866v-5.2a.867.867 0 0 0-.866-.867zM18.2 26h-3.467v-3.467H18.2V26zM19.067 29.467h-5.2a.867.867 0 0 0-.867.866v5.2c0 .479.388.867.867.867h5.2a.867.867 0 0 0 .866-.867v-5.2a.867.867 0 0 0-.866-.866zm-.867 5.2h-3.467V31.2H18.2v3.467zM35.533 39.867h5.2A.867.867 0 0 0 41.6 39v-5.2a.867.867 0 0 0-.867-.867h-5.2a.867.867 0 0 0-.866.867V39c0 .479.388.867.866.867zm.867-5.2h3.467v3.466H36.4v-3.466zM35.533 31.2h5.2a.867.867 0 0 0 .867-.867v-5.2a.867.867 0 0 0-.867-.866h-5.2a.867.867 0 0 0-.866.866v5.2c0 .479.388.867.866.867zM36.4 26h3.467v3.467H36.4V26zM35.533 48.533h5.2a.867.867 0 0 0 .867-.866v-5.2a.867.867 0 0 0-.867-.867h-5.2a.867.867 0 0 0-.866.867v5.2c0 .478.388.866.866.866zm.867-5.2h3.467V46.8H36.4v-3.467zM26.867 39.867h5.2a.867.867 0 0 0 .866-.867v-5.2a.867.867 0 0 0-.866-.867h-5.2A.867.867 0 0 0 26 33.8V39c0 .479.388.867.867.867zm.866-5.2H31.2v3.466h-3.467v-3.466zM26.867 31.2h5.2a.867.867 0 0 0 .866-.867v-5.2a.867.867 0 0 0-.866-.866h-5.2a.867.867 0 0 0-.867.866v5.2c0 .479.388.867.867.867zm.866-5.2H31.2v3.467h-3.467V26zM26.867 48.533h5.2a.867.867 0 0 0 .866-.866v-5.2a.867.867 0 0 0-.866-.867h-5.2a.867.867 0 0 0-.867.867v5.2c0 .478.388.866.867.866zm.866-5.2H31.2V46.8h-3.467v-3.467z"/>
    </g>
</svg>
