<svg width="50" height="20" viewBox="0 0 50 20" fill="none" xmlns="http://www.w3.org/2000/svg">
<path id="Fill 13" fill-rule="evenodd" clip-rule="evenodd" d="M49.9481 11.0613C49.9303 10.6248 49.9133 10.2162 49.9077 9.84907C49.877 7.40154 49.8285 3.70196 45.5913 3.68763C41.9428 3.68763 38.1845 6.46251 35.9669 8.10402C35.8531 8.17172 35.7182 8.26968 35.6859 8.43296C35.6738 8.49667 35.677 8.5596 35.6988 8.61853C35.7336 8.75951 35.8604 8.93075 36.2851 8.93075C36.5653 8.93075 37.0749 8.85588 37.3099 8.69659C38.4074 8.04269 39.571 7.42941 40.8825 6.81375C41.9703 6.22197 43.3407 5.8556 44.4591 5.8556C45.131 5.8556 46.0363 5.98861 46.5378 6.62817C46.7776 6.93401 46.7639 8.16694 46.759 8.63128C46.7477 9.6388 46.6993 10.6686 46.6516 11.665C46.6331 12.0417 46.6153 12.4169 46.5983 12.792C46.5507 13.8903 46.4441 15.1854 46.0008 16.4557C45.8982 16.7504 45.6559 17.1423 44.7426 17.1423C43.7202 17.1423 42.3676 16.6389 41.5584 16.3403C41.3808 16.2718 41.2217 16.2144 41.0925 16.169C38.665 15.3351 36.3748 14.2153 33.68 12.7896C31.1023 11.4253 28.5359 9.94066 26.0543 8.50544C24.2413 7.4557 22.3662 6.37091 20.5008 5.34029L20.3837 5.27657C16.4234 3.08789 12.3267 0.825136 7.83838 0.110708C7.37484 0.0374338 6.90727 0 6.45181 0C3.89026 0 1.79306 1.16762 0.702865 3.20417C-0.114375 4.72861 -0.0287746 6.71339 0.0447124 8.46482C0.0624785 8.85508 0.0786295 9.2334 0.0826672 9.59022C0.115777 11.8578 0.152116 14.4279 1.1236 16.76C1.86977 18.5488 3.59632 19.495 6.1191 19.495C7.15196 19.495 8.3439 19.3334 9.56088 19.0283C14.0395 17.9101 18.3228 16.126 22.6828 14.2432C22.8257 14.1818 23.1996 14.0194 23.1293 13.6912C23.0607 13.3678 22.6537 13.332 22.3533 13.332C22.2596 13.332 22.0198 13.3384 21.8477 13.3917C19.3153 14.1898 16.6181 15.0301 13.9483 15.7851C13.6721 15.8624 13.3717 15.9524 13.0519 16.0495C11.44 16.529 9.43571 17.1272 7.67525 17.1272C5.98343 17.1272 4.88678 16.568 4.32392 15.4148C3.55917 13.8449 3.67142 11.6451 3.77317 9.7065C3.79578 9.25889 3.81758 8.82721 3.82728 8.4242L3.83454 8.0865C3.86281 6.89578 3.89107 5.77118 4.13657 4.63701C4.33361 3.73462 4.91585 3.31409 5.97213 3.31409C6.97187 3.31409 8.15978 3.70754 8.94714 3.96798L9.0715 4.0094C12.9986 5.30365 16.7271 7.48994 20.3336 9.60535C21.2235 10.1278 22.1086 10.6471 22.9904 11.1489C27.9617 13.9787 32.1254 16.2941 36.7365 18.1713C38.9121 19.0562 41.4494 20 43.994 20C44.9881 20 45.9442 19.855 46.8374 19.5659C50.2573 18.4573 50.0708 14.0058 49.9481 11.0613Z" fill="#DC272B"/>
</svg>
