<svg width="32" height="29" viewBox="0 0 32 29" fill="none" xmlns="http://www.w3.org/2000/svg">
<path d="M1.71905 28.8L12.1709 28.8C13.1198 28.8 13.8899 28.0504 13.8899 27.1268L13.8899 16.954C13.8899 16.0303 13.1198 15.2808 12.1709 15.2808H7.16844C7.23376 12.6171 7.86981 10.4855 9.07315 8.8826C10.0221 7.61768 11.4592 6.57027 13.3811 5.74373C14.2647 5.36559 14.6463 4.34831 14.2337 3.4983L12.996 0.955087C12.5972 0.138614 11.6105 -0.219479 10.7578 0.138612C8.48179 1.09566 6.55986 2.30704 4.99212 3.77943C3.0805 5.57641 1.77062 7.60429 1.06237 9.86642C0.354092 12.1285 1.04146e-06 15.2139 6.99185e-07 19.1291L0 27.1268C-8.07397e-08 28.0504 0.770168 28.8 1.71905 28.8Z" fill="url(#paint0_linear)"/>
<path d="M28.3543 0.140071C26.1058 1.09395 24.1942 2.30551 22.6162 3.77486C20.6874 5.57217 19.3706 7.59373 18.6623 9.83953C17.9541 12.0853 17.6 15.1813 17.6 19.1273V27.1265C17.6 28.0503 18.3701 28.8 19.319 28.8L29.7709 28.8C30.7198 28.8 31.4899 28.0503 31.4899 27.1265L31.4899 16.9518C31.4899 16.028 30.7198 15.2783 29.7709 15.2783L24.7684 15.2783C24.8338 12.6141 25.4698 10.4821 26.6731 8.87896C27.6221 7.61381 29.0592 6.56621 30.9811 5.73952C31.8647 5.36131 32.2463 4.34384 31.8337 3.49368L30.5995 0.956693C30.2006 0.140071 29.207 -0.221433 28.3543 0.140071Z" fill="url(#paint1_linear)"/>
<defs>
<linearGradient id="paint0_linear" x1="30.0435" y1="41.6" x2="42.2189" y2="-11.1906" gradientUnits="userSpaceOnUse">
<stop stop-color="#F8B44C"/>
<stop offset="1" stop-color="#F07E26"/>
</linearGradient>
<linearGradient id="paint1_linear" x1="30.0435" y1="41.6" x2="42.2189" y2="-11.1906" gradientUnits="userSpaceOnUse">
<stop stop-color="#F8B44C"/>
<stop offset="1" stop-color="#F07E26"/>
</linearGradient>
</defs>
</svg>
