<svg width="41" height="17" viewBox="0 0 41 17" fill="none" xmlns="http://www.w3.org/2000/svg">
<path opacity="0.56" d="M39.29 5.21778C38.583 4.006 37.548 3.37486 36.261 3.37486C34.367 3.37486 30.858 4.96532 28.712 6.42956C28.687 6.42956 28.359 6.68206 28.434 7.08596C28.485 7.28786 28.611 7.43936 28.788 7.51516C28.965 7.59086 29.167 7.59086 29.343 7.48986C29.444 7.43936 33.787 5.36925 36.387 5.36925C37.447 5.36925 37.599 6.98496 37.548 9.20656C37.472 11.6807 36.74 14.2304 35.604 14.2304C34.317 14.2304 29.394 11.5797 24.193 8.77736C16.822 4.81385 8.46505 0.294922 5.28405 0.294922C3.59305 0.294922 2.20454 1.20375 1.27044 2.8952C0.386843 4.48566 -0.0675552 6.75776 0.00814478 9.15606C0.0839448 11.4787 0.614047 13.6245 1.49765 15.013C2.20455 16.1238 3.06284 16.7045 4.02224 16.7045C4.07264 16.7045 4.12314 16.7045 4.17364 16.7045C8.23804 16.4773 17.276 12.4128 17.756 12.2108C17.983 12.1351 18.134 11.9079 18.134 11.6806C18.134 11.3525 17.882 11.1 17.554 11.1C17.478 11.1 16.897 11.2515 15.13 11.7059C12 12.539 6.74904 14.1799 5.78904 14.1799C5.00674 14.1799 4.40085 13.675 3.94645 12.6652C3.56775 11.7816 3.36584 10.2922 3.36584 8.92886C3.36584 6.37906 4.12314 3.62731 5.36004 3.62731C7.53104 3.62731 13.161 6.53056 19.119 9.61046C25.859 13.0944 32.852 16.6792 35.932 16.6792C37.169 16.6792 38.305 15.8461 39.113 14.3062C39.82 12.9429 40.224 11.1253 40.224 9.33276C40.224 7.71706 39.896 6.25286 39.29 5.21778Z" fill="white"/>
</svg>
