<svg width="36" height="40" viewBox="0 0 36 40" fill="none" xmlns="http://www.w3.org/2000/svg">
<rect x="0.5" width="35" height="40" rx="17.5" fill="#FFF2F3"/>
<path d="M21.125 18C21.125 19.7578 19.7188 21.125 18 21.125C16.2422 21.125 14.875 19.7578 14.875 18C14.875 16.2812 16.2422 14.875 18 14.875C19.7188 14.875 21.125 16.2812 21.125 18ZM18 19.875C19.0156 19.875 19.875 19.0547 19.875 18C19.875 16.9844 19.0156 16.125 18 16.125C16.9453 16.125 16.125 16.9844 16.125 18C16.125 19.0547 16.9453 19.875 18 19.875ZM25.5 18C25.5 21.4375 20.9297 27.4922 18.8984 30.0312C18.4297 30.6172 17.5312 30.6172 17.0625 30.0312C15.0312 27.4922 10.5 21.4375 10.5 18C10.5 13.8594 13.8203 10.5 18 10.5C22.1406 10.5 25.5 13.8594 25.5 18ZM18 11.75C14.5234 11.75 11.75 14.5625 11.75 18C11.75 18.625 11.9453 19.4453 12.375 20.5C12.8047 21.5156 13.3906 22.6094 14.0938 23.7031C15.4219 25.8516 16.9844 27.9219 18 29.1719C18.9766 27.9219 20.5391 25.8516 21.8672 23.7031C22.5703 22.6094 23.1562 21.5156 23.5859 20.5C24.0156 19.4453 24.25 18.625 24.25 18C24.25 14.5625 21.4375 11.75 18 11.75Z" fill="#FF000A"/>
</svg>
