<svg width="32" height="26" viewBox="0 0 32 26" fill="none" xmlns="http://www.w3.org/2000/svg">
<path d="M16 13V25" stroke="#DC272B" stroke-width="2" stroke-linecap="round" stroke-linejoin="round"/>
<path d="M21.3327 18.3333L15.9993 13L10.666 18.3333" stroke="#DC272B" stroke-width="2" stroke-linecap="round" stroke-linejoin="round"/>
<path d="M27.1866 21.5167C28.4871 20.8078 29.5144 19.6859 30.1064 18.3282C30.6985 16.9705 30.8216 15.4544 30.4562 14.019C30.0909 12.5836 29.2579 11.3107 28.0888 10.4013C26.9198 9.4919 25.4811 8.9977 23.9999 8.99672H22.3199C21.9164 7.43571 21.1642 5.9865 20.1199 4.75805C19.0756 3.52959 17.7664 2.55386 16.2907 1.9042C14.8151 1.25454 13.2113 0.947868 11.6001 1.00723C9.98886 1.0666 8.41204 1.49046 6.98818 2.24694C5.56433 3.00343 4.3305 4.07286 3.37944 5.37483C2.42839 6.6768 1.78487 8.17744 1.49725 9.76392C1.20964 11.3504 1.28542 12.9814 1.7189 14.5344C2.15238 16.0874 2.93227 17.5219 3.99995 18.7301" stroke="#F07E26" stroke-width="2" stroke-linecap="round" stroke-linejoin="round"/>
</svg>
