<svg width="34" height="33" viewBox="0 0 34 33" fill="none" xmlns="http://www.w3.org/2000/svg">
<path d="M27 19C27 26.1797 21.1797 32 14 32C6.8203 32 1 26.1797 1 19C1 11.8203 6.8203 6 14 6" stroke="#F07E26" stroke-width="2" stroke-linecap="round" stroke-linejoin="round"/>
<path d="M26.416 9.16663C27.3825 9.16663 28.166 8.38312 28.166 7.41663C28.166 6.45013 27.3825 5.66663 26.416 5.66663C25.4495 5.66663 24.666 6.45013 24.666 7.41663C24.666 8.38312 25.4495 9.16663 26.416 9.16663Z" stroke="#DC272B" stroke-width="2" stroke-linecap="round" stroke-linejoin="round"/>
<path d="M30.7333 9.16667C30.6557 9.34261 30.6325 9.53778 30.6668 9.72701C30.7011 9.91624 30.7914 10.0909 30.9258 10.2283L30.9608 10.2633C31.0693 10.3717 31.1554 10.5004 31.2141 10.642C31.2728 10.7836 31.303 10.9354 31.303 11.0887C31.303 11.2421 31.2728 11.3939 31.2141 11.5355C31.1554 11.6771 31.0693 11.8058 30.9608 11.9142C30.8525 12.0226 30.7238 12.1087 30.5822 12.1674C30.4405 12.2261 30.2887 12.2563 30.1354 12.2563C29.9821 12.2563 29.8303 12.2261 29.6887 12.1674C29.547 12.1087 29.4184 12.0226 29.31 11.9142L29.275 11.8792C29.1375 11.7447 28.9629 11.6545 28.7737 11.6202C28.5844 11.5859 28.3893 11.609 28.2133 11.6867C28.0408 11.7606 27.8937 11.8834 27.79 12.0399C27.6864 12.1964 27.6307 12.3798 27.63 12.5675V12.6667C27.63 12.9761 27.5071 13.2728 27.2883 13.4916C27.0695 13.7104 26.7728 13.8333 26.4633 13.8333C26.1539 13.8333 25.8572 13.7104 25.6384 13.4916C25.4196 13.2728 25.2967 12.9761 25.2967 12.6667V12.6142C25.2922 12.4211 25.2297 12.2338 25.1173 12.0767C25.0049 11.9197 24.8479 11.8 24.6667 11.7333C24.4907 11.6557 24.2956 11.6325 24.1063 11.6668C23.9171 11.7011 23.7425 11.7914 23.605 11.9258L23.57 11.9608C23.4616 12.0693 23.333 12.1554 23.1913 12.2141C23.0497 12.2728 22.8979 12.303 22.7446 12.303C22.5913 12.303 22.4395 12.2728 22.2978 12.2141C22.1562 12.1554 22.0275 12.0693 21.9192 11.9608C21.8107 11.8525 21.7246 11.7238 21.6659 11.5822C21.6072 11.4405 21.577 11.2887 21.577 11.1354C21.577 10.9821 21.6072 10.8303 21.6659 10.6887C21.7246 10.547 21.8107 10.4184 21.9192 10.31L21.9542 10.275C22.0886 10.1375 22.1789 9.96291 22.2132 9.77368C22.2475 9.58445 22.2243 9.38928 22.1467 9.21333C22.0727 9.0408 21.9499 8.89366 21.7934 8.79001C21.6369 8.68637 21.4535 8.63075 21.2658 8.63H21.1667C20.8572 8.63 20.5605 8.50708 20.3417 8.28829C20.1229 8.0695 20 7.77275 20 7.46333C20 7.15391 20.1229 6.85717 20.3417 6.63838C20.5605 6.41958 20.8572 6.29667 21.1667 6.29667H21.2192C21.4122 6.29215 21.5995 6.22965 21.7566 6.1173C21.9137 6.00494 22.0333 5.84793 22.1 5.66667C22.1777 5.49072 22.2008 5.29555 22.1665 5.10632C22.1322 4.91709 22.042 4.74248 21.9075 4.605L21.8725 4.57C21.764 4.46165 21.678 4.33298 21.6193 4.19135C21.5606 4.04972 21.5303 3.8979 21.5303 3.74458C21.5303 3.59127 21.5606 3.43945 21.6193 3.29782C21.678 3.15619 21.764 3.02752 21.8725 2.91917C21.9809 2.81069 22.1095 2.72464 22.2512 2.66593C22.3928 2.60722 22.5446 2.577 22.6979 2.577C22.8512 2.577 23.003 2.60722 23.1447 2.66593C23.2863 2.72464 23.415 2.81069 23.5233 2.91917L23.5583 2.95417C23.6958 3.08865 23.8704 3.17886 24.0597 3.21317C24.2489 3.24748 24.4441 3.22432 24.62 3.14667H24.6667C24.8392 3.07272 24.9863 2.94994 25.09 2.79344C25.1936 2.63694 25.2493 2.45354 25.25 2.26583V2.16667C25.25 1.85725 25.3729 1.5605 25.5917 1.34171C25.8105 1.12292 26.1072 1 26.4167 1C26.7261 1 27.0228 1.12292 27.2416 1.34171C27.4604 1.5605 27.5833 1.85725 27.5833 2.16667V2.21917C27.5841 2.40688 27.6397 2.59027 27.7433 2.74677C27.847 2.90327 27.9941 3.02605 28.1667 3.1C28.3426 3.17765 28.5378 3.20081 28.727 3.1665C28.9162 3.13219 29.0909 3.04198 29.2283 2.9075L29.2633 2.8725C29.3717 2.76403 29.5004 2.67798 29.642 2.61926C29.7836 2.56055 29.9354 2.53033 30.0887 2.53033C30.2421 2.53033 30.3939 2.56055 30.5355 2.61926C30.6771 2.67798 30.8058 2.76403 30.9142 2.8725C31.0226 2.98085 31.1087 3.10952 31.1674 3.25115C31.2261 3.39278 31.2563 3.5446 31.2563 3.69792C31.2563 3.85123 31.2261 4.00305 31.1674 4.14468C31.1087 4.28631 31.0226 4.41498 30.9142 4.52333L30.8792 4.55833C30.7447 4.69581 30.6545 4.87043 30.6202 5.05966C30.5859 5.24889 30.609 5.44406 30.6867 5.62V5.66667C30.7606 5.8392 30.8834 5.98634 31.0399 6.08999C31.1964 6.19363 31.3798 6.24925 31.5675 6.25H31.6667C31.9761 6.25 32.2728 6.37292 32.4916 6.59171C32.7104 6.8105 32.8333 7.10725 32.8333 7.41667C32.8333 7.72609 32.7104 8.02283 32.4916 8.24162C32.2728 8.46042 31.9761 8.58333 31.6667 8.58333H31.6142C31.4265 8.58408 31.2431 8.6397 31.0866 8.74335C30.9301 8.84699 30.8073 8.99413 30.7333 9.16667V9.16667Z" stroke="#DC272B" stroke-width="2" stroke-linecap="round" stroke-linejoin="round"/>
<path d="M14.543 12.7715V26.3143" stroke="#DC272B" stroke-width="2" stroke-linecap="round" stroke-linejoin="round"/>
<path d="M17.3644 15.3108H13.1322C12.6084 15.3108 12.1061 15.5337 11.7357 15.9306C11.3653 16.3274 11.1572 16.8656 11.1572 17.4269C11.1572 17.9881 11.3653 18.5263 11.7357 18.9232C12.1061 19.32 12.6084 19.5429 13.1322 19.5429H15.9537C16.4775 19.5429 16.9798 19.7659 17.3502 20.1627C17.7206 20.5596 17.9287 21.0978 17.9287 21.659C17.9287 22.2202 17.7206 22.7585 17.3502 23.1553C16.9798 23.5521 16.4775 23.7751 15.9537 23.7751H11.1572" stroke="#DC272B" stroke-width="2" stroke-linecap="round" stroke-linejoin="round"/>
</svg>
