<svg width="48" height="48" viewBox="0 0 48 48" fill="none" xmlns="http://www.w3.org/2000/svg">
<rect width="48" height="48" rx="10" fill="#FF333B"/>
<path d="M17.25 33.3281V31.5H24.75L24.7031 33.3281C24.7031 33.5625 24.6094 33.9375 24.4688 34.125L23.6719 35.3438C23.4375 35.7188 22.875 36 22.4062 36H19.5469C19.0781 36 18.5156 35.7188 18.2812 35.3438L17.4844 34.125C17.2969 33.8906 17.25 33.6094 17.25 33.3281ZM21 12C25.5469 12.0469 29.25 15.7031 29.25 20.25C29.25 22.3594 28.4531 24.2344 27.1875 25.6406C26.3906 26.5312 25.2188 28.4062 24.75 29.9531C24.75 29.9531 24.75 29.9531 24.75 30H17.2031C17.2031 29.9531 17.2031 29.9531 17.2031 29.9531C16.7344 28.4062 15.5625 26.5312 14.7656 25.6406C13.5 24.1875 12.75 22.3125 12.75 20.25C12.75 15.8906 16.2188 12.0469 21 12ZM25.5 24.2344C26.4375 23.1094 27 21.7031 27 20.25C27 16.9688 24.2812 14.25 20.9531 14.25C17.25 14.2969 15 17.3438 15 20.25C15 21.7031 15.5156 23.1094 16.4531 24.2344C17.2031 25.0312 18.0938 26.3906 18.75 27.75H23.2031C23.8594 26.3906 24.75 25.0312 25.5 24.2344ZM20.25 15.75C20.625 15.75 21 16.125 21 16.5469C21 16.9219 20.625 17.25 20.25 17.25C18.9844 17.25 18 18.2812 18 19.5C18 19.9219 17.625 20.25 17.25 20.25C16.8281 20.25 16.5 19.9219 16.5 19.5C16.5 17.4375 18.1406 15.75 20.25 15.75Z" fill="white"/>
</svg>
