<svg width="34" height="28" viewBox="0 0 34 28" fill="none" xmlns="http://www.w3.org/2000/svg">
<path d="M16.7477 3.37842H3.62461C2.17508 3.37842 1 4.5535 1 6.00303V19.1261C1 20.5756 2.17508 21.7507 3.62461 21.7507H24.6215C26.071 21.7507 27.2461 20.5756 27.2461 19.1261V14.697" stroke="#405B9A" stroke-width="2" stroke-linecap="round" stroke-linejoin="round"/>
<path d="M16.8265 11L12.1514 15.6751L9.69086 12.2303L6 15.9211" stroke="#DC272B" stroke-width="2" stroke-linecap="round" stroke-linejoin="round"/>
<path d="M8.87354 26.9999H19.372" stroke="#405B9A" stroke-width="2" stroke-linecap="round" stroke-linejoin="round"/>
<path d="M14.1226 21.7506V26.9998" stroke="#405B9A" stroke-width="2" stroke-linecap="round" stroke-linejoin="round"/>
<path d="M22 6.99999C24.5714 4.33334 28.4286 4.33335 31 7" stroke="#DC272B" stroke-width="2" stroke-linecap="round" stroke-linejoin="round"/>
<path d="M20 3.99999C23.7143 -3.33786e-06 29.2857 6.67577e-06 33 4" stroke="#DC272B" stroke-width="2" stroke-linecap="round" stroke-linejoin="round"/>
<path d="M24 10C25.4286 8.66667 27.5714 8.66667 29 10" stroke="#DC272B" stroke-width="2" stroke-linecap="round" stroke-linejoin="round"/>
</svg>
