<svg width="48" height="48" viewBox="0 0 48 48" fill="none" xmlns="http://www.w3.org/2000/svg">
<rect width="48" height="48" rx="10" fill="#FF333B"/>
<path d="M27.75 26.25C27.75 25.875 28.0781 25.5 28.5 25.5H30C30.375 25.5 30.75 25.875 30.75 26.25V27.75C30.75 28.1719 30.375 28.5 30 28.5H28.5C28.0781 28.5 27.75 28.1719 27.75 27.75V26.25ZM27.75 17.25C27.75 16.875 28.0781 16.5 28.5 16.5H30C30.375 16.5 30.75 16.875 30.75 17.25V18.75C30.75 19.1719 30.375 19.5 30 19.5H28.5C28.0781 19.5 27.75 19.1719 27.75 18.75V17.25ZM28.5 24C28.0781 24 27.75 23.6719 27.75 23.25V21.75C27.75 21.375 28.0781 21 28.5 21H30C30.375 21 30.75 21.375 30.75 21.75V23.25C30.75 23.6719 30.375 24 30 24H28.5ZM33 12C34.6406 12 36 13.3594 36 15V33C36 34.6875 34.6406 36 33 36H25.5C23.8125 36 22.5 34.6875 22.5 33V15C22.5 13.3594 23.8125 12 25.5 12H33ZM33 14.25H25.5C25.0781 14.25 24.75 14.625 24.75 15V33C24.75 33.4219 25.0781 33.75 25.5 33.75H33C33.375 33.75 33.75 33.4219 33.75 33V15C33.75 14.625 33.375 14.25 33 14.25ZM21 20.25H15.375C14.7188 20.25 14.25 20.7656 14.25 21.375V32.625C14.25 33.2812 14.7188 33.75 15.375 33.75H21.0469C21.1875 34.6406 21.5625 35.3906 22.125 36H15.375C13.5 36 12 34.5 12 32.625V21.375C12 19.5469 13.5 18 15.375 18H21V20.25ZM18.75 27C19.125 27 19.5 27.375 19.5 27.75V29.25C19.5 29.6719 19.125 30 18.75 30H17.25C16.8281 30 16.5 29.6719 16.5 29.25V27.75C16.5 27.375 16.8281 27 17.25 27H18.75ZM18.75 22.5C19.125 22.5 19.5 22.875 19.5 23.25V24.75C19.5 25.1719 19.125 25.5 18.75 25.5H17.25C16.8281 25.5 16.5 25.1719 16.5 24.75V23.25C16.5 22.875 16.8281 22.5 17.25 22.5H18.75Z" fill="white"/>
</svg>
