<svg width="33" height="32" viewBox="0 0 33 32" fill="none" xmlns="http://www.w3.org/2000/svg">
<path d="M10.1001 12H4.34015C3.54527 12 2.90015 12.5675 2.90015 13.2667V27.2" stroke="#405B9A" stroke-width="1.5" stroke-linecap="round" stroke-linejoin="round"/>
<path d="M30.1001 27.2V13.2667C30.1001 12.5675 29.455 12 28.6601 12H22.9001" stroke="#405B9A" stroke-width="1.5" stroke-linecap="round" stroke-linejoin="round"/>
<path d="M13.1669 22.6667H19.8335" stroke="#DC272B" stroke-width="1.5" stroke-linecap="round" stroke-linejoin="round"/>
<path d="M18.5001 22.6667V28" stroke="#DC272B" stroke-width="1.5" stroke-linecap="round" stroke-linejoin="round"/>
<path d="M14.5002 28V22.6667" stroke="#DC272B" stroke-width="1.5" stroke-linecap="round" stroke-linejoin="round"/>
<path d="M13.8335 14H19.1668" stroke="#DC272B" stroke-width="1.125" stroke-linecap="round" stroke-linejoin="round"/>
<path d="M13.8335 18H19.1668" stroke="#DC272B" stroke-width="1.125" stroke-linecap="round" stroke-linejoin="round"/>
<path d="M13.8335 9.99998H19.1668" stroke="#DC272B" stroke-width="1.125" stroke-linecap="round" stroke-linejoin="round"/>
<path d="M7.16687 18H9.83354" stroke="#405B9A" stroke-width="1.125" stroke-linecap="round" stroke-linejoin="round"/>
<path d="M7.16687 22.6667H9.83354" stroke="#405B9A" stroke-width="1.125" stroke-linecap="round" stroke-linejoin="round"/>
<path d="M23.1669 18H25.8335" stroke="#405B9A" stroke-width="1.125" stroke-linecap="round" stroke-linejoin="round"/>
<path d="M23.1669 22.6667H25.8335" stroke="#405B9A" stroke-width="1.125" stroke-linecap="round" stroke-linejoin="round"/>
<path d="M31.1668 28H1.8335" stroke="#DC272B" stroke-width="1.5" stroke-linecap="round" stroke-linejoin="round"/>
<path d="M22.9001 27.2V5.28889C22.9001 4.57742 22.3267 4 21.6201 4H11.3801C10.6735 4 10.1001 4.57742 10.1001 5.28889V27.2" stroke="#DC272B" stroke-width="1.5" stroke-linecap="round" stroke-linejoin="round"/>
</svg>
