<svg width="23" height="29" viewBox="0 0 23 29" fill="none" xmlns="http://www.w3.org/2000/svg">
<path d="M19.0851 13.7895V26.6881C19.0851 27.0444 18.8772 27.3414 18.5506 27.4899L18.1942 27.579C17.9864 27.579 17.7488 27.4899 17.6003 27.3414L15.5216 25.4111L13.3834 27.3414C13.0567 27.6384 12.5222 27.6384 12.1956 27.3414L10.0574 25.4111L7.88957 27.3414C7.56291 27.6384 7.02837 27.6384 6.70171 27.3414L4.56357 25.4111L2.48482 27.3414C2.30664 27.4899 2.09877 27.579 1.89089 27.579C1.41575 27.579 1 27.1929 1 26.6881V4.89089C1 4.38605 1.38605 4 1.89089 4H10.0574" stroke="#F07E26" stroke-width="2" stroke-linecap="round" stroke-linejoin="round"/>
<path d="M13 4.5L17.5 1L22 4.5V10C22 10.2652 21.8946 10.5196 21.7071 10.7071C21.5196 10.8946 21.2652 11 21 11H14C13.7348 11 13.4804 10.8946 13.2929 10.7071C13.1054 10.5196 13 10.2652 13 10V4.5Z" stroke="#6E3784" stroke-width="2" stroke-linecap="round" stroke-linejoin="round"/>
<path d="M16 11V6H19V11" stroke="#6E3784" stroke-width="2" stroke-linecap="round" stroke-linejoin="round"/>
<path d="M5.00033 15.579L11.667 15.579" stroke="#6E3784" stroke-width="2" stroke-linecap="round" stroke-linejoin="round"/>
<path d="M5.00033 19.579L15.667 19.579" stroke="#6E3784" stroke-width="2" stroke-linecap="round" stroke-linejoin="round"/>
<path d="M5.00033 11.579L7.66699 11.579" stroke="#6E3784" stroke-width="2" stroke-linecap="round" stroke-linejoin="round"/>
</svg>
