<svg width="39" height="33" viewBox="0 0 39 33" fill="none" xmlns="http://www.w3.org/2000/svg">
<g opacity="0.2">
<path d="M8.2963 21.1917H1.54589C0.669887 21.1917 0 21.8615 0 22.7375V30.467C0 31.343 0.669887 32.0129 1.54589 32.0129H8.2963C9.1723 32.0129 9.84219 31.2915 9.84219 30.467V22.7375C9.84219 21.9131 9.1723 21.1917 8.2963 21.1917Z" fill="#A8AABA"/>
<path d="M22.6733 12.4315H15.9228C15.0468 12.4315 14.377 13.1014 14.377 13.9774V30.5185C14.377 31.3945 15.0468 32.0644 15.9228 32.0644H22.6733C23.5493 32.0644 24.2191 31.343 24.2191 30.5185V13.9774C24.2191 13.1014 23.5493 12.4315 22.6733 12.4315Z" fill="#A8AABA"/>
<path d="M37.05 3.56836H30.248C29.372 3.56836 28.7021 4.23825 28.7021 5.11425V30.4669C28.7021 31.3429 29.372 32.0128 30.248 32.0128H36.9984C37.8745 32.0128 38.5443 31.2914 38.5443 30.4669V5.11425C38.5959 4.28978 37.8745 3.56836 37.05 3.56836Z" fill="#A8AABA"/>
<path d="M14.0157 7.12399H17.5197C17.8289 7.12399 17.9834 6.76329 17.7773 6.55717L11.2846 0.115942C11.13 -0.0386473 10.9239 -0.0386473 10.8208 0.115942L4.37958 6.55717C4.17347 6.76329 4.32805 7.12399 4.63723 7.12399H8.19279C8.34738 7.12399 8.50197 7.22705 8.50197 7.43317C8.65656 8.5153 6.69843 13.8744 0.308731 14.8019C-0.103507 14.8535 -0.0519774 15.4203 0.308731 15.4718C4.79182 15.8841 13.4488 14.132 13.7065 7.4847C13.7065 7.27858 13.8095 7.12399 14.0157 7.12399Z" fill="#A8AABA"/>
</g>
</svg>
