<svg width="794" height="550" viewBox="0 0 794 550" fill="none" xmlns="http://www.w3.org/2000/svg">
<g opacity="0.03" filter="url(#filter0_f)">
<path fill-rule="evenodd" clip-rule="evenodd" d="M88 497.38C88 485.02 98.0199 475 110.38 475H696.239C708.599 475 718.619 485.02 718.619 497.38C718.619 509.74 708.599 519.76 696.239 519.76H110.38C98.0199 519.76 88 509.74 88 497.38Z" fill="#1F3D8C"/>
</g>
<g filter="url(#filter1_d)">
<path fill-rule="evenodd" clip-rule="evenodd" d="M63.7861 28C63.7861 16.9543 72.7404 8 83.7861 8H750C761.045 8 770 16.9543 770 28V478.371C770 489.416 761.045 498.371 750 498.371H83.7862C72.7405 498.371 63.7861 489.416 63.7861 478.371V28Z" fill="white"/>
</g>
<rect opacity="0.2" x="167.231" y="39.8293" width="562.981" height="63.6587" rx="4" fill="#A8AABA"/>
<rect x="222.933" y="119.403" width="507.28" height="18.8987" rx="6" fill="#35B6B4"/>
<rect opacity="0.2" width="103.445" height="18.8987" rx="4" transform="matrix(-1 0 0 1 207.019 119.403)" fill="#A8AABA"/>
<rect opacity="0.2" x="103.575" y="154.216" width="396.872" height="18.8987" rx="4" fill="#A8AABA"/>
<rect x="103.575" y="189.029" width="396.872" height="214.848" rx="4" fill="#35B6B4"/>
<path d="M267.771 276.401L302.504 296.493L337.238 276.401M302.506 336.558V296.453M338.314 312.368V280.539C338.313 279.143 337.944 277.773 337.246 276.565C336.548 275.357 335.544 274.354 334.336 273.656L306.485 257.741C305.275 257.043 303.903 256.675 302.506 256.675C301.109 256.675 299.737 257.043 298.528 257.741L270.677 273.656C269.468 274.354 268.465 275.357 267.766 276.565C267.068 277.773 266.7 279.143 266.698 280.539V312.368C266.7 313.764 267.068 315.134 267.766 316.342C268.465 317.55 269.468 318.554 270.677 319.251L298.528 335.166C299.737 335.864 301.109 336.232 302.506 336.232C303.903 336.232 305.275 335.864 306.485 335.166L334.336 319.251C335.544 318.554 336.548 317.55 337.246 316.342C337.944 315.134 338.313 313.764 338.314 312.368Z" stroke="url(#paint0_linear)" stroke-width="4" stroke-linecap="round" stroke-linejoin="round"/>
<rect opacity="0.2" x="103.575" y="419.792" width="396.872" height="47.744" rx="4" fill="#A8AABA"/>
<rect opacity="0.2" x="516.359" y="419.792" width="95.488" height="47.744" rx="4" fill="#A8AABA"/>
<rect x="627.764" y="419.792" width="102.451" height="47.744" rx="4" fill="#35B6B4"/>
<path d="M679.485 432.723V454.605" stroke="url(#paint1_linear)" stroke-width="2" stroke-linecap="round" stroke-linejoin="round"/>
<path d="M684.459 436.701H676.999C676.076 436.701 675.19 437.068 674.537 437.721C673.884 438.374 673.518 439.259 673.518 440.183C673.518 441.106 673.884 441.991 674.537 442.644C675.19 443.297 676.076 443.664 676.999 443.664H681.972C682.896 443.664 683.781 444.031 684.434 444.683C685.087 445.336 685.454 446.222 685.454 447.145C685.454 448.068 685.087 448.954 684.434 449.607C683.781 450.26 682.896 450.627 681.972 450.627H673.518" stroke="url(#paint2_linear)" stroke-width="2" stroke-linecap="round" stroke-linejoin="round"/>
<rect opacity="0.2" x="516.359" y="154.216" width="213.853" height="18.8987" rx="4" fill="#A8AABA"/>
<rect x="516.359" y="189.029" width="213.853" height="11.936" rx="4" fill="#9DD4D5"/>
<rect x="516.359" y="208.923" width="213.853" height="11.936" rx="4" fill="#9DD4D5"/>
<rect x="516.359" y="228.816" width="213.853" height="11.936" rx="4" fill="#9DD4D5"/>
<rect x="516.359" y="248.709" width="213.853" height="11.936" rx="4" fill="#9DD4D5"/>
<rect x="516.359" y="268.603" width="213.853" height="11.936" rx="4" fill="#9DD4D5"/>
<rect x="516.359" y="288.496" width="213.853" height="11.936" rx="4" fill="#9DD4D5"/>
<rect x="516.359" y="308.389" width="213.853" height="11.936" rx="4" fill="#9DD4D5"/>
<rect x="516.359" y="328.283" width="213.853" height="11.936" rx="4" fill="#9DD4D5"/>
<rect x="516.359" y="348.176" width="213.853" height="11.936" rx="4" fill="#9DD4D5"/>
<rect x="516.359" y="368.069" width="213.853" height="11.936" rx="4" fill="#9DD4D5"/>
<rect x="516.359" y="387.963" width="213.853" height="11.936" rx="4" fill="#9DD4D5"/>
<g filter="url(#filter2_d)">
<rect x="24" y="39.8293" width="127.317" height="63.6587" rx="6" fill="white"/>
</g>
<path fill-rule="evenodd" clip-rule="evenodd" d="M116.959 72.9254C116.938 72.4045 116.918 71.9168 116.912 71.4785C116.875 68.5571 116.818 64.1413 111.801 64.1242C107.481 64.1242 103.031 67.4363 100.405 69.3956C100.27 69.4764 100.111 69.5934 100.072 69.7882C100.058 69.8643 100.062 69.9394 100.088 70.0097C100.129 70.178 100.279 70.3824 100.782 70.3824C101.114 70.3824 101.717 70.293 101.995 70.1029C103.295 69.3224 104.673 68.5904 106.225 67.8555C107.513 67.1492 109.136 66.7119 110.46 66.7119C111.256 66.7119 112.328 66.8707 112.921 67.634C113.205 67.9991 113.189 69.4707 113.183 70.0249C113.17 71.2275 113.113 72.4567 113.056 73.646C113.034 74.0957 113.013 74.5434 112.993 74.9912C112.937 76.3022 112.811 77.8479 112.286 79.3642C112.164 79.716 111.877 80.1837 110.796 80.1837C109.585 80.1837 107.984 79.5829 107.026 79.2264C106.815 79.1446 106.627 79.0762 106.474 79.022C103.6 78.0266 100.888 76.69 97.6972 74.9883C94.645 73.3599 91.6063 71.5878 88.668 69.8747C86.5213 68.6218 84.3011 67.327 82.0923 66.0968L81.9537 66.0208C77.2645 63.4084 72.4138 60.7075 67.0994 59.8548C66.5505 59.7673 65.9969 59.7227 65.4576 59.7227C62.4246 59.7227 59.9414 61.1163 58.6506 63.5472C57.6829 65.3667 57.7843 67.7358 57.8713 69.8263C57.8923 70.2921 57.9115 70.7436 57.9162 71.1695C57.9554 73.8761 57.9985 76.9438 59.1488 79.7274C60.0323 81.8626 62.0766 82.9919 65.0637 82.9919C66.2866 82.9919 67.698 82.799 69.1389 82.4349C74.4419 81.1001 79.5135 78.9707 84.6759 76.7233C84.8451 76.6501 85.2879 76.4562 85.2047 76.0645C85.1234 75.6785 84.6415 75.6357 84.2858 75.6357C84.1749 75.6357 83.8909 75.6433 83.6872 75.707C80.6886 76.6596 77.495 77.6625 74.3339 78.5638C74.0068 78.656 73.6511 78.7634 73.2725 78.8794C71.364 79.4517 68.9907 80.1656 66.9062 80.1656C64.9031 80.1656 63.6046 79.4983 62.9381 78.1217C62.0326 76.248 62.1655 73.6222 62.286 71.3083C62.3128 70.7741 62.3386 70.2588 62.35 69.7778L62.3587 69.3747C62.3921 67.9535 62.4256 66.6111 62.7163 65.2574C62.9496 64.1803 63.639 63.6783 64.8897 63.6783C66.0734 63.6783 67.48 64.148 68.4122 64.4588L68.5595 64.5083C73.2094 66.0531 77.6241 68.6627 81.8944 71.1876C82.9481 71.8112 83.9961 72.4311 85.0402 73.03C90.9265 76.4077 95.8565 79.1712 101.316 81.4119C103.892 82.4681 106.897 83.5947 109.91 83.5947C111.087 83.5947 112.219 83.4216 113.276 83.0765C117.326 81.7532 117.105 76.44 116.959 72.9254Z" fill="#DC272B"/>
<defs>
<filter id="filter0_f" x="58" y="445" width="690.619" height="104.76" filterUnits="userSpaceOnUse" color-interpolation-filters="sRGB">
<feFlood flood-opacity="0" result="BackgroundImageFix"/>
<feBlend mode="normal" in="SourceGraphic" in2="BackgroundImageFix" result="shape"/>
<feGaussianBlur stdDeviation="15" result="effect1_foregroundBlur"/>
</filter>
<filter id="filter1_d" x="39.7861" y="0" width="754.214" height="538.371" filterUnits="userSpaceOnUse" color-interpolation-filters="sRGB">
<feFlood flood-opacity="0" result="BackgroundImageFix"/>
<feColorMatrix in="SourceAlpha" type="matrix" values="0 0 0 0 0 0 0 0 0 0 0 0 0 0 0 0 0 0 127 0"/>
<feOffset dy="16"/>
<feGaussianBlur stdDeviation="12"/>
<feColorMatrix type="matrix" values="0 0 0 0 0.0901961 0 0 0 0 0.6 0 0 0 0 0.572549 0 0 0 0.02 0"/>
<feBlend mode="normal" in2="BackgroundImageFix" result="effect1_dropShadow"/>
<feBlend mode="normal" in="SourceGraphic" in2="effect1_dropShadow" result="shape"/>
</filter>
<filter id="filter2_d" x="0" y="31.8293" width="175.317" height="111.659" filterUnits="userSpaceOnUse" color-interpolation-filters="sRGB">
<feFlood flood-opacity="0" result="BackgroundImageFix"/>
<feColorMatrix in="SourceAlpha" type="matrix" values="0 0 0 0 0 0 0 0 0 0 0 0 0 0 0 0 0 0 127 0"/>
<feOffset dy="16"/>
<feGaussianBlur stdDeviation="12"/>
<feColorMatrix type="matrix" values="0 0 0 0 0 0 0 0 0 0 0 0 0 0 0 0 0 0 0.04 0"/>
<feBlend mode="normal" in2="BackgroundImageFix" result="effect1_dropShadow"/>
<feBlend mode="normal" in="SourceGraphic" in2="effect1_dropShadow" result="shape"/>
</filter>
<linearGradient id="paint0_linear" x1="542.221" y1="154.216" x2="283.241" y2="345.384" gradientUnits="userSpaceOnUse">
<stop stop-color="white"/>
<stop offset="1" stop-color="white" stop-opacity="0"/>
</linearGradient>
<linearGradient id="paint1_linear" x1="648.485" y1="425.76" x2="689.888" y2="447.826" gradientUnits="userSpaceOnUse">
<stop stop-color="white"/>
<stop offset="1" stop-color="white" stop-opacity="0"/>
</linearGradient>
<linearGradient id="paint2_linear" x1="695.898" y1="428.744" x2="668.544" y2="455.6" gradientUnits="userSpaceOnUse">
<stop stop-color="white"/>
<stop offset="1" stop-color="white" stop-opacity="0"/>
</linearGradient>
</defs>
</svg>
