<svg width="821" height="611" viewBox="0 0 821 611" fill="none" xmlns="http://www.w3.org/2000/svg">
<g opacity="0.25">
<g opacity="0.14" filter="url(#filter0_f)">
<path fill-rule="evenodd" clip-rule="evenodd" d="M59.1758 528.215H761.997C761.997 528.215 717.695 526.698 692.168 523.093C612.379 511.825 575.859 481.132 410.587 479.925C245.314 478.718 204.126 514.898 134.975 523.093C109.341 526.131 59.1758 528.215 59.1758 528.215Z" fill="black"/>
</g>
<g opacity="0.16" filter="url(#filter1_f)">
<path fill-rule="evenodd" clip-rule="evenodd" d="M59.1758 528.214H761.997C761.997 528.214 718.97 526.151 694.9 521.245C619.667 505.913 552.473 463.423 410.587 463.423C268.7 463.423 193.343 510.095 128.14 521.245C103.969 525.379 59.1758 528.214 59.1758 528.214Z" fill="black"/>
</g>
<g opacity="0.23" filter="url(#filter2_f)">
<path fill-rule="evenodd" clip-rule="evenodd" d="M59.1758 528.214H761.997C761.997 528.214 693.739 478.761 669.669 473.855C594.436 458.523 414.028 419.497 414.028 419.497C414.028 419.497 202.407 462.705 137.205 473.855C113.034 477.989 59.1758 528.214 59.1758 528.214Z" fill="black"/>
</g>
<g opacity="0.1" filter="url(#filter3_f)">
<path fill-rule="evenodd" clip-rule="evenodd" d="M96.5137 528.215H725.759C725.759 528.215 687.236 526.356 665.686 521.939C598.328 508.134 505.294 479.896 411.377 479.896C317.46 479.896 216.635 511.899 158.258 521.939C136.618 525.661 96.5137 528.215 96.5137 528.215Z" fill="black"/>
</g>
<g opacity="0.1" filter="url(#filter4_ddf)">
<path fill-rule="evenodd" clip-rule="evenodd" d="M302.969 512.84H518.208V542.49H302.969V512.84Z" fill="black"/>
</g>
</g>
<mask id="mask0" mask-type="alpha" maskUnits="userSpaceOnUse" x="518" y="427" width="36" height="84">
<path fill-rule="evenodd" clip-rule="evenodd" d="M550.141 508.736C550.092 509.803 549.212 510.644 548.143 510.644H519.854C519.854 510.644 516.914 486.484 520.952 486.484C529.737 486.484 536.256 485.386 536.875 477.15C538.069 461.265 539.62 427.184 539.62 427.184H553.896L550.141 508.736Z" fill="white"/>
<path fill-rule="evenodd" clip-rule="evenodd" d="M550.141 508.736C550.092 509.803 549.212 510.644 548.143 510.644H519.854C519.854 510.644 516.914 486.484 520.952 486.484C529.737 486.484 536.256 485.386 536.875 477.15C538.069 461.265 539.62 427.184 539.62 427.184H553.896L550.141 508.736Z" stroke="white"/>
</mask>
<g mask="url(#mask0)">
<g filter="url(#filter5_i)">
<path fill-rule="evenodd" clip-rule="evenodd" d="M550.141 508.736C550.092 509.803 549.212 510.644 548.143 510.644H519.854C519.854 510.644 516.914 486.484 520.952 486.484C529.737 486.484 536.256 485.386 536.875 477.15C538.069 461.265 539.62 427.184 539.62 427.184H553.896L550.141 508.736Z" fill="url(#paint0_linear)"/>
<path fill-rule="evenodd" clip-rule="evenodd" d="M550.141 508.736C550.092 509.803 549.212 510.644 548.143 510.644H519.854C519.854 510.644 516.914 486.484 520.952 486.484C529.737 486.484 536.256 485.386 536.875 477.15C538.069 461.265 539.62 427.184 539.62 427.184H553.896L550.141 508.736Z" fill="#F6F8FB" fill-opacity="0.69319"/>
<path fill-rule="evenodd" clip-rule="evenodd" d="M550.141 508.736C550.092 509.803 549.212 510.644 548.143 510.644H519.854C519.854 510.644 516.914 486.484 520.952 486.484C529.737 486.484 536.256 485.386 536.875 477.15C538.069 461.265 539.62 427.184 539.62 427.184H553.896L550.141 508.736Z" fill="url(#paint1_linear)" fill-opacity="0.35"/>
</g>
<path opacity="0.03" fill-rule="evenodd" clip-rule="evenodd" d="M563.23 429.38H256.844V464.521H563.23V429.38Z" fill="url(#paint2_linear)"/>
<path fill-rule="evenodd" clip-rule="evenodd" d="M568.722 426.086H243.667V520.527H568.722V426.086Z" fill="white" fill-opacity="0.4"/>
<path opacity="0.06" fill-rule="evenodd" clip-rule="evenodd" d="M526.992 495.819C542.916 496.368 544.014 483.19 544.014 483.19L547.857 423.34L536.327 423.889L520.953 483.19C520.953 483.19 511.069 495.27 526.992 495.819Z" fill="black"/>
<path opacity="0.15" fill-rule="evenodd" clip-rule="evenodd" d="M570.917 410.711H253.549V521.625H570.917V410.711Z" fill="white"/>
</g>
<mask id="mask1" mask-type="alpha" maskUnits="userSpaceOnUse" x="267" y="427" width="36" height="84">
<path fill-rule="evenodd" clip-rule="evenodd" d="M271.034 508.736C271.083 509.803 271.963 510.644 273.032 510.644H301.321C301.321 510.644 304.261 486.484 300.223 486.484C291.438 486.484 284.919 485.386 284.3 477.15C283.105 461.265 281.554 427.184 281.554 427.184H267.278L271.034 508.736Z" fill="white"/>
<path fill-rule="evenodd" clip-rule="evenodd" d="M271.034 508.736C271.083 509.803 271.963 510.644 273.032 510.644H301.321C301.321 510.644 304.261 486.484 300.223 486.484C291.438 486.484 284.919 485.386 284.3 477.15C283.105 461.265 281.554 427.184 281.554 427.184H267.278L271.034 508.736Z" stroke="white"/>
</mask>
<g mask="url(#mask1)">
<g filter="url(#filter6_i)">
<path fill-rule="evenodd" clip-rule="evenodd" d="M271.034 508.736C271.083 509.803 271.963 510.644 273.032 510.644H301.321C301.321 510.644 304.261 486.484 300.223 486.484C291.438 486.484 284.919 485.386 284.3 477.15C283.105 461.265 281.554 427.184 281.554 427.184H267.278L271.034 508.736Z" fill="url(#paint3_linear)"/>
<path fill-rule="evenodd" clip-rule="evenodd" d="M271.034 508.736C271.083 509.803 271.963 510.644 273.032 510.644H301.321C301.321 510.644 304.261 486.484 300.223 486.484C291.438 486.484 284.919 485.386 284.3 477.15C283.105 461.265 281.554 427.184 281.554 427.184H267.278L271.034 508.736Z" fill="#F6F8FB" fill-opacity="0.69319"/>
<path fill-rule="evenodd" clip-rule="evenodd" d="M271.034 508.736C271.083 509.803 271.963 510.644 273.032 510.644H301.321C301.321 510.644 304.261 486.484 300.223 486.484C291.438 486.484 284.919 485.386 284.3 477.15C283.105 461.265 281.554 427.184 281.554 427.184H267.278L271.034 508.736Z" fill="url(#paint4_linear)" fill-opacity="0.35"/>
</g>
<path opacity="0.03" fill-rule="evenodd" clip-rule="evenodd" d="M257.943 429.38H564.33V464.521H257.943V429.38Z" fill="url(#paint5_linear)"/>
<path fill-rule="evenodd" clip-rule="evenodd" d="M252.452 426.085H577.507V520.527H252.452V426.085Z" fill="white" fill-opacity="0.402174"/>
<path opacity="0.06" fill-rule="evenodd" clip-rule="evenodd" d="M294.183 495.819C278.26 496.368 277.162 483.19 277.162 483.19L273.318 423.34L284.849 423.889L300.223 483.19C300.223 483.19 310.107 495.27 294.183 495.819Z" fill="black"/>
<path opacity="0.15" fill-rule="evenodd" clip-rule="evenodd" d="M250.257 410.711H567.625V521.625H250.257V410.711Z" fill="white"/>
</g>
<g filter="url(#filter7_d)">
<path fill-rule="evenodd" clip-rule="evenodd" d="M285.396 512.158C285.396 511.883 285.453 511.612 285.562 511.36L295.071 489.49C295.865 487.665 297.666 486.484 299.656 486.484H521.517C523.508 486.484 525.309 487.665 526.102 489.491L535.611 511.36C535.72 511.612 535.777 511.883 535.777 512.158V531.901C535.777 534.11 533.986 535.901 531.777 535.901H289.396C287.187 535.901 285.396 534.11 285.396 531.901V512.158Z" fill="url(#paint6_linear)"/>
<path fill-rule="evenodd" clip-rule="evenodd" d="M285.396 512.158C285.396 511.883 285.453 511.612 285.562 511.36L295.071 489.49C295.865 487.665 297.666 486.484 299.656 486.484H521.517C523.508 486.484 525.309 487.665 526.102 489.491L535.611 511.36C535.72 511.612 535.777 511.883 535.777 512.158V531.901C535.777 534.11 533.986 535.901 531.777 535.901H289.396C287.187 535.901 285.396 534.11 285.396 531.901V512.158Z" fill="#F6F8FB" fill-opacity="0.52757"/>
<path fill-rule="evenodd" clip-rule="evenodd" d="M285.396 512.158C285.396 511.883 285.453 511.612 285.562 511.36L295.071 489.49C295.865 487.665 297.666 486.484 299.656 486.484H521.517C523.508 486.484 525.309 487.665 526.102 489.491L535.611 511.36C535.72 511.612 535.777 511.883 535.777 512.158V531.901C535.777 534.11 533.986 535.901 531.777 535.901H289.396C287.187 535.901 285.396 534.11 285.396 531.901V512.158Z" fill="white" fill-opacity="0.15"/>
</g>
<path fill-rule="evenodd" clip-rule="evenodd" d="M284.3 510.644H540.171V513.938H284.3V510.644Z" fill="#D3D6DC"/>
<path fill-rule="evenodd" clip-rule="evenodd" d="M96.5146 10C96.5146 4.47715 100.992 0 106.515 0H714.662C720.184 0 724.662 4.47715 724.662 10V422.675C724.662 428.197 720.184 432.675 714.662 432.675H106.515C100.992 432.675 96.5146 428.197 96.5146 422.675V10Z" fill="#F7F7F7"/>
<path fill-rule="evenodd" clip-rule="evenodd" d="M116.281 23.7668C116.281 21.5577 118.072 19.7668 120.281 19.7668H700.894C703.104 19.7668 704.894 21.5577 704.894 23.7668V408.908C704.894 411.117 703.104 412.908 700.894 412.908H120.281C118.072 412.908 116.281 411.117 116.281 408.908V23.7668Z" fill="#F3F6F8"/>
<path fill-rule="evenodd" clip-rule="evenodd" d="M116.282 23.7668C116.282 21.5577 118.073 19.7668 120.282 19.7668H700.895C703.105 19.7668 704.895 21.5577 704.895 23.7668V408.908C704.895 411.117 703.105 412.908 700.895 412.908H120.282C118.073 412.908 116.282 411.117 116.282 408.908V23.7668Z" fill="white"/>
<rect x="132.754" y="94.4417" width="354.705" height="303.092" rx="4" fill="#EEEEF1"/>
<line opacity="0.08" x1="152.521" y1="261.96" x2="468.791" y2="261.96" stroke="#B5B5B5"/>
<line opacity="0.08" x1="152.521" y1="278.432" x2="468.791" y2="278.432" stroke="#B5B5B5"/>
<line opacity="0.08" x1="152.521" y1="294.905" x2="468.791" y2="294.905" stroke="#B5B5B5"/>
<line opacity="0.08" x1="152.521" y1="311.377" x2="468.791" y2="311.377" stroke="#B5B5B5"/>
<line opacity="0.08" x1="152.521" y1="327.85" x2="468.791" y2="327.85" stroke="#B5B5B5"/>
<line opacity="0.08" x1="152.521" y1="344.322" x2="468.791" y2="344.322" stroke="#B5B5B5"/>
<line opacity="0.08" x1="152.521" y1="360.794" x2="468.791" y2="360.794" stroke="#B5B5B5"/>
<line opacity="0.08" x1="152.521" y1="377.267" x2="468.791" y2="377.267" stroke="#B5B5B5"/>
<rect opacity="0.21" x="337.012" y="119.699" width="131.779" height="17.5705" rx="4" fill="#C4C4C4"/>
<rect opacity="0.21" x="337.012" y="172.411" width="131.779" height="17.5705" rx="4" fill="#C4C4C4"/>
<rect opacity="0.21" x="337.012" y="198.767" width="131.779" height="17.5705" rx="4" fill="#C4C4C4"/>
<rect opacity="0.21" x="152.521" y="119.699" width="21.9632" height="17.5705" rx="4" fill="#C4C4C4"/>
<rect opacity="0.21" x="152.521" y="172.411" width="21.9632" height="17.5705" rx="4" fill="#C4C4C4"/>
<rect opacity="0.21" x="152.521" y="198.767" width="21.9632" height="17.5705" rx="4" fill="#C4C4C4"/>
<rect opacity="0.21" x="181.073" y="119.699" width="148.251" height="17.5705" rx="4" fill="#C4C4C4"/>
<rect opacity="0.21" x="181.073" y="146.055" width="148.251" height="17.5705" rx="4" fill="#C4C4C4"/>
<rect opacity="0.21" x="181.073" y="172.411" width="148.251" height="17.5705" rx="4" fill="#C4C4C4"/>
<rect x="496.246" y="231.712" width="193.276" height="165.822" rx="4" fill="#EEEEF1"/>
<rect x="496.246" y="94.4417" width="193.276" height="129.583" rx="4" fill="#EEEEF1"/>
<rect opacity="0.21" x="520.404" y="177.902" width="144.957" height="7.68711" rx="3.84356" fill="#C4C4C4"/>
<rect opacity="0.21" x="544.565" y="193.276" width="96.638" height="7.68711" rx="3.84356" fill="#C4C4C4"/>
<rect opacity="0.21" x="544.565" y="362.392" width="96.638" height="7.68711" rx="3.84356" fill="#C4C4C4"/>
<rect x="132.754" y="34" width="556.767" height="49.4172" rx="4" fill="url(#paint7_linear)"/>
<rect opacity="0.23" x="149.227" y="55.0061" width="144.957" height="7.68711" rx="3.84356" fill="white"/>
<rect opacity="0.23" x="657.676" y="51.6135" width="15.3742" height="15.3742" rx="4" fill="white"/>
<rect opacity="0.23" x="619.238" y="51.6135" width="15.3742" height="15.3742" rx="4" fill="white"/>
<rect opacity="0.23" x="580.805" y="51.6135" width="15.3742" height="15.3742" rx="4" fill="white"/>
<g filter="url(#filter8_d)">
<rect x="46" y="54.908" width="140.564" height="70.2822" rx="6" fill="white"/>
</g>
<path d="M144.501 85.2C143.467 83.4277 141.953 82.5046 140.07 82.5046C137.301 82.5046 132.169 84.8308 129.03 86.9723C128.993 86.9723 128.513 87.3415 128.624 87.9323C128.698 88.2277 128.883 88.4492 129.141 88.56C129.4 88.6708 129.695 88.6708 129.953 88.5231C130.101 88.4492 136.452 85.4215 140.255 85.4215C141.806 85.4215 142.027 87.7846 141.953 91.0338C141.843 94.6523 140.772 98.3815 139.11 98.3815C137.227 98.3815 130.027 94.5046 122.421 90.4062C111.64 84.5723 99.4181 78 94.7658 78C92.2919 78 90.2612 79.3292 88.8581 81.8031C87.5658 84.1292 86.9012 87.4523 87.0119 90.96C87.1227 94.3569 87.8981 97.4954 89.1904 99.5262C90.2242 101.151 91.4796 102 92.8827 102C92.9565 102 93.0304 102 93.1042 102C99.0488 101.668 112.267 95.7231 112.969 95.4277C113.301 95.3169 113.523 94.9846 113.523 94.6523C113.523 94.1723 113.153 93.8031 112.673 93.8031C112.563 93.8031 111.713 94.0246 109.129 94.6892C104.55 95.9077 96.8704 98.3077 95.4673 98.3077C94.3227 98.3077 93.4365 97.5692 92.7719 96.0923C92.2181 94.8 91.9227 92.6215 91.9227 90.6277C91.9227 86.8985 93.0304 82.8738 94.8396 82.8738C98.015 82.8738 106.249 87.12 114.963 91.6246C124.821 96.72 135.049 101.963 139.553 101.963C141.363 101.963 143.024 100.745 144.206 98.4923C145.24 96.4985 145.83 93.84 145.83 91.2185C145.867 88.8185 145.387 86.7138 144.501 85.2Z" fill="#DC272B"/>
<rect x="152.521" y="277.834" width="53.8098" height="99.9325" rx="4" fill="url(#paint8_linear)"/>
<rect x="218.411" y="320.663" width="52.7116" height="57.1043" rx="4" fill="#E5E5E8"/>
<rect x="283.202" y="309.681" width="54.9079" height="68.0859" rx="4" fill="#E5E5E8"/>
<rect x="350.19" y="354.705" width="52.7116" height="23.0613" rx="4" fill="url(#paint9_linear)"/>
<rect x="414.981" y="337.135" width="53.8098" height="40.6319" rx="4" fill="#E5E5E8"/>
<path opacity="0.1" d="M639.006 299.797C639.006 309.957 635.651 319.833 629.463 327.891C623.275 335.948 614.599 341.737 604.783 344.359C594.967 346.98 584.56 346.286 575.178 342.386C565.797 338.486 557.965 331.598 552.901 322.79C547.836 313.983 545.821 303.749 547.168 293.679C548.516 283.609 553.151 274.265 560.354 267.1C567.556 259.934 576.923 255.347 587 254.051C597.077 252.755 607.3 254.823 616.082 259.933L592.883 299.797H639.006Z" fill="#762B50"/>
<path opacity="0.1" d="M617.23 338.97C608.549 344.366 598.321 346.725 588.154 345.677C577.986 344.629 568.455 340.233 561.057 333.18C553.659 326.127 548.814 316.816 547.282 306.71C545.75 296.604 547.618 286.276 552.593 277.347C557.569 268.418 565.369 261.395 574.769 257.381C584.169 253.366 594.636 252.588 604.527 255.168C614.417 257.749 623.17 263.541 629.411 271.636C635.652 279.731 639.027 289.67 639.006 299.891L592.883 299.797L617.23 338.97Z" fill="#762B50"/>
<circle opacity="0.1" cx="534.681" cy="135.074" r="23.0613" fill="#762B50"/>
<path opacity="0.1" d="M557.743 135.074C557.743 132.045 557.146 129.046 555.987 126.248C554.828 123.45 553.13 120.908 550.988 118.767C548.847 116.625 546.305 114.927 543.507 113.768C540.709 112.609 537.71 112.012 534.681 112.012L534.681 135.074H557.743Z" fill="#762B50"/>
<circle opacity="0.1" cx="591.785" cy="135.074" r="23.0613" fill="#762B50"/>
<path opacity="0.1" d="M614.846 135.074C614.846 131.583 614.054 128.139 612.53 124.999C611.005 121.86 608.788 119.107 606.045 116.949C603.302 114.791 600.105 113.284 596.695 112.541C593.285 111.798 589.75 111.839 586.358 112.66C582.966 113.481 579.805 115.061 577.112 117.282C574.42 119.503 572.266 122.305 570.814 125.479C569.362 128.653 568.649 132.115 568.73 135.604C568.81 139.093 569.681 142.518 571.278 145.622L591.785 135.074H614.846Z" fill="#762B50"/>
<circle opacity="0.1" cx="649.987" cy="135.074" r="23.0613" fill="#762B50"/>
<path opacity="0.1" d="M673.048 135.074C673.048 138.102 672.452 141.101 671.293 143.899C670.134 146.697 668.435 149.239 666.294 151.38C664.153 153.522 661.61 155.221 658.812 156.379C656.014 157.538 653.016 158.135 649.987 158.135L649.987 135.074H673.048Z" fill="#762B50"/>
<defs>
<filter id="filter0_f" x="48.3027" y="469.022" width="724.568" height="70.0652" filterUnits="userSpaceOnUse" color-interpolation-filters="sRGB">
<feFlood flood-opacity="0" result="BackgroundImageFix"/>
<feBlend mode="normal" in="SourceGraphic" in2="BackgroundImageFix" result="shape"/>
<feGaussianBlur stdDeviation="5.43656" result="effect1_foregroundBlur"/>
</filter>
<filter id="filter1_f" x="31.2042" y="435.451" width="758.765" height="120.735" filterUnits="userSpaceOnUse" color-interpolation-filters="sRGB">
<feFlood flood-opacity="0" result="BackgroundImageFix"/>
<feBlend mode="normal" in="SourceGraphic" in2="BackgroundImageFix" result="shape"/>
<feGaussianBlur stdDeviation="13.9858" result="effect1_foregroundBlur"/>
</filter>
<filter id="filter2_f" x="0.282204" y="360.603" width="820.609" height="226.505" filterUnits="userSpaceOnUse" color-interpolation-filters="sRGB">
<feFlood flood-opacity="0" result="BackgroundImageFix"/>
<feBlend mode="normal" in="SourceGraphic" in2="BackgroundImageFix" result="shape"/>
<feGaussianBlur stdDeviation="29.4468" result="effect1_foregroundBlur"/>
</filter>
<filter id="filter3_f" x="58.4577" y="441.84" width="705.357" height="124.431" filterUnits="userSpaceOnUse" color-interpolation-filters="sRGB">
<feFlood flood-opacity="0" result="BackgroundImageFix"/>
<feBlend mode="normal" in="SourceGraphic" in2="BackgroundImageFix" result="shape"/>
<feGaussianBlur stdDeviation="19.028" result="effect1_foregroundBlur"/>
</filter>
<filter id="filter4_ddf" x="260.969" y="472.84" width="299.239" height="137.65" filterUnits="userSpaceOnUse" color-interpolation-filters="sRGB">
<feFlood flood-opacity="0" result="BackgroundImageFix"/>
<feColorMatrix in="SourceAlpha" type="matrix" values="0 0 0 0 0 0 0 0 0 0 0 0 0 0 0 0 0 0 127 0"/>
<feOffset dy="26"/>
<feGaussianBlur stdDeviation="21"/>
<feColorMatrix type="matrix" values="0 0 0 0 0 0 0 0 0 0 0 0 0 0 0 0 0 0 0.17714 0"/>
<feBlend mode="normal" in2="BackgroundImageFix" result="effect1_dropShadow"/>
<feColorMatrix in="SourceAlpha" type="matrix" values="0 0 0 0 0 0 0 0 0 0 0 0 0 0 0 0 0 0 127 0"/>
<feOffset dy="12"/>
<feGaussianBlur stdDeviation="13"/>
<feColorMatrix type="matrix" values="0 0 0 0 0 0 0 0 0 0 0 0 0 0 0 0 0 0 0.024 0"/>
<feBlend mode="normal" in2="effect1_dropShadow" result="effect2_dropShadow"/>
<feBlend mode="normal" in="SourceGraphic" in2="effect2_dropShadow" result="shape"/>
<feGaussianBlur stdDeviation="20" result="effect3_foregroundBlur"/>
</filter>
<filter id="filter5_i" x="518.82" y="427.184" width="35.0762" height="83.4601" filterUnits="userSpaceOnUse" color-interpolation-filters="sRGB">
<feFlood flood-opacity="0" result="BackgroundImageFix"/>
<feBlend mode="normal" in="SourceGraphic" in2="BackgroundImageFix" result="shape"/>
<feColorMatrix in="SourceAlpha" type="matrix" values="0 0 0 0 0 0 0 0 0 0 0 0 0 0 0 0 0 0 127 0" result="hardAlpha"/>
<feOffset/>
<feGaussianBlur stdDeviation="1.5"/>
<feComposite in2="hardAlpha" operator="arithmetic" k2="-1" k3="1"/>
<feColorMatrix type="matrix" values="0 0 0 0 0 0 0 0 0 0 0 0 0 0 0 0 0 0 0.02 0"/>
<feBlend mode="normal" in2="shape" result="effect1_innerShadow"/>
</filter>
<filter id="filter6_i" x="267.278" y="427.184" width="35.0762" height="83.4601" filterUnits="userSpaceOnUse" color-interpolation-filters="sRGB">
<feFlood flood-opacity="0" result="BackgroundImageFix"/>
<feBlend mode="normal" in="SourceGraphic" in2="BackgroundImageFix" result="shape"/>
<feColorMatrix in="SourceAlpha" type="matrix" values="0 0 0 0 0 0 0 0 0 0 0 0 0 0 0 0 0 0 127 0" result="hardAlpha"/>
<feOffset/>
<feGaussianBlur stdDeviation="1.5"/>
<feComposite in2="hardAlpha" operator="arithmetic" k2="-1" k3="1"/>
<feColorMatrix type="matrix" values="0 0 0 0 0 0 0 0 0 0 0 0 0 0 0 0 0 0 0.02 0"/>
<feBlend mode="normal" in2="shape" result="effect1_innerShadow"/>
</filter>
<filter id="filter7_d" x="285.396" y="486.484" width="250.38" height="51.4172" filterUnits="userSpaceOnUse" color-interpolation-filters="sRGB">
<feFlood flood-opacity="0" result="BackgroundImageFix"/>
<feColorMatrix in="SourceAlpha" type="matrix" values="0 0 0 0 0 0 0 0 0 0 0 0 0 0 0 0 0 0 127 0"/>
<feOffset dy="2"/>
<feColorMatrix type="matrix" values="0 0 0 0 0 0 0 0 0 0 0 0 0 0 0 0 0 0 0.05 0"/>
<feBlend mode="normal" in2="BackgroundImageFix" result="effect1_dropShadow"/>
<feBlend mode="normal" in="SourceGraphic" in2="effect1_dropShadow" result="shape"/>
</filter>
<filter id="filter8_d" x="22" y="46.908" width="188.564" height="118.282" filterUnits="userSpaceOnUse" color-interpolation-filters="sRGB">
<feFlood flood-opacity="0" result="BackgroundImageFix"/>
<feColorMatrix in="SourceAlpha" type="matrix" values="0 0 0 0 0 0 0 0 0 0 0 0 0 0 0 0 0 0 127 0"/>
<feOffset dy="16"/>
<feGaussianBlur stdDeviation="12"/>
<feColorMatrix type="matrix" values="0 0 0 0 0 0 0 0 0 0 0 0 0 0 0 0 0 0 0.04 0"/>
<feBlend mode="normal" in2="BackgroundImageFix" result="effect1_dropShadow"/>
<feBlend mode="normal" in="SourceGraphic" in2="effect1_dropShadow" result="shape"/>
</filter>
<linearGradient id="paint0_linear" x1="553.318" y1="427.184" x2="553.318" y2="507.907" gradientUnits="userSpaceOnUse">
<stop stop-color="#82888F"/>
<stop offset="0.410635" stop-color="#A4AEB7"/>
<stop offset="1" stop-color="#C2C6CE"/>
</linearGradient>
<linearGradient id="paint1_linear" x1="539.059" y1="463.711" x2="561.597" y2="469.705" gradientUnits="userSpaceOnUse">
<stop stop-opacity="0.01"/>
<stop offset="1" stop-opacity="0.135502"/>
</linearGradient>
<linearGradient id="paint2_linear" x1="563.23" y1="429.38" x2="563.23" y2="464.521" gradientUnits="userSpaceOnUse">
<stop/>
<stop offset="1" stop-opacity="0.01"/>
</linearGradient>
<linearGradient id="paint3_linear" x1="267.857" y1="427.184" x2="267.857" y2="507.907" gradientUnits="userSpaceOnUse">
<stop stop-color="#82888F"/>
<stop offset="0.410635" stop-color="#A4AEB7"/>
<stop offset="1" stop-color="#C2C6CE"/>
</linearGradient>
<linearGradient id="paint4_linear" x1="282.116" y1="463.711" x2="259.578" y2="469.705" gradientUnits="userSpaceOnUse">
<stop stop-opacity="0.01"/>
<stop offset="1" stop-opacity="0.135502"/>
</linearGradient>
<linearGradient id="paint5_linear" x1="257.943" y1="429.38" x2="257.943" y2="464.521" gradientUnits="userSpaceOnUse">
<stop/>
<stop offset="1" stop-opacity="0.01"/>
</linearGradient>
<linearGradient id="paint6_linear" x1="285.396" y1="486.484" x2="285.396" y2="535.901" gradientUnits="userSpaceOnUse">
<stop stop-color="#B7BABD"/>
<stop offset="0.544213" stop-color="#D4D9DD"/>
<stop offset="1" stop-color="#F7F9FB"/>
</linearGradient>
<linearGradient id="paint7_linear" x1="79.1019" y1="79.5278" x2="416.904" y2="-238.991" gradientUnits="userSpaceOnUse">
<stop stop-color="#1F3D8C"/>
<stop offset="1" stop-color="#C51A19"/>
</linearGradient>
<linearGradient id="paint8_linear" x1="152.521" y1="393.69" x2="249.439" y2="341.63" gradientUnits="userSpaceOnUse">
<stop stop-color="#1F3D8C"/>
<stop offset="1" stop-color="#C51A19"/>
</linearGradient>
<linearGradient id="paint9_linear" x1="334.816" y1="390.945" x2="404.582" y2="352.84" gradientUnits="userSpaceOnUse">
<stop stop-color="#1F3D8C"/>
<stop offset="1" stop-color="#C51A19"/>
</linearGradient>
</defs>
</svg>
