<svg width="758" height="562" viewBox="0 0 758 562" fill="none" xmlns="http://www.w3.org/2000/svg">
<g opacity="0.25">
<g opacity="0.14" filter="url(#filter0_f)">
<path fill-rule="evenodd" clip-rule="evenodd" d="M59 481H699C699 481 658.657 479.619 635.412 476.336C562.755 466.076 529.5 438.126 379 437.027C228.5 435.928 190.993 468.874 128.024 476.336C104.681 479.102 59 481 59 481Z" fill="black"/>
</g>
<g opacity="0.16" filter="url(#filter1_f)">
<path fill-rule="evenodd" clip-rule="evenodd" d="M59 481H699C699 481 659.819 479.121 637.9 474.654C569.391 460.692 508.204 422 379 422C249.796 422 181.174 464.5 121.8 474.654C99.7895 478.418 59 481 59 481Z" fill="black"/>
</g>
<g opacity="0.23" filter="url(#filter2_f)">
<path fill-rule="evenodd" clip-rule="evenodd" d="M59 481H699C699 481 636.843 435.967 614.925 431.5C546.416 417.538 382.134 382 382.134 382C382.134 382 189.429 421.346 130.054 431.5C108.044 435.264 59 481 59 481Z" fill="black"/>
</g>
<g opacity="0.1" filter="url(#filter3_f)">
<path fill-rule="evenodd" clip-rule="evenodd" d="M93 481H666C666 481 630.92 479.308 611.297 475.286C549.96 462.714 465.242 437 379.719 437C294.197 437 202.384 466.143 149.225 475.286C129.519 478.675 93 481 93 481Z" fill="black"/>
</g>
<g opacity="0.1" filter="url(#filter4_ddf)">
<path fill-rule="evenodd" clip-rule="evenodd" d="M281 467H477V494H281V467Z" fill="black"/>
</g>
</g>
<mask id="mask0" mask-type="alpha" maskUnits="userSpaceOnUse" x="477" y="389" width="33" height="76">
<path fill-rule="evenodd" clip-rule="evenodd" d="M506.088 463.092C506.039 464.16 505.159 465 504.09 465H478.5C478.5 465 475.823 443 479.5 443C487.5 443 493.436 442 494 434.5C495.088 420.035 496.5 389 496.5 389H509.5L506.088 463.092Z" fill="white"/>
<path fill-rule="evenodd" clip-rule="evenodd" d="M506.088 463.092C506.039 464.16 505.159 465 504.09 465H478.5C478.5 465 475.823 443 479.5 443C487.5 443 493.436 442 494 434.5C495.088 420.035 496.5 389 496.5 389H509.5L506.088 463.092Z" stroke="white"/>
</mask>
<g mask="url(#mask0)">
<g filter="url(#filter5_i)">
<path fill-rule="evenodd" clip-rule="evenodd" d="M506.088 463.092C506.039 464.16 505.159 465 504.09 465H478.5C478.5 465 475.823 443 479.5 443C487.5 443 493.436 442 494 434.5C495.088 420.035 496.5 389 496.5 389H509.5L506.088 463.092Z" fill="url(#paint0_linear)"/>
<path fill-rule="evenodd" clip-rule="evenodd" d="M506.088 463.092C506.039 464.16 505.159 465 504.09 465H478.5C478.5 465 475.823 443 479.5 443C487.5 443 493.436 442 494 434.5C495.088 420.035 496.5 389 496.5 389H509.5L506.088 463.092Z" fill="#F6F8FB" fill-opacity="0.69319"/>
<path fill-rule="evenodd" clip-rule="evenodd" d="M506.088 463.092C506.039 464.16 505.159 465 504.09 465H478.5C478.5 465 475.823 443 479.5 443C487.5 443 493.436 442 494 434.5C495.088 420.035 496.5 389 496.5 389H509.5L506.088 463.092Z" fill="url(#paint1_linear)" fill-opacity="0.35"/>
</g>
<path opacity="0.03" fill-rule="evenodd" clip-rule="evenodd" d="M518 391H239V423H518V391Z" fill="url(#paint2_linear)"/>
<path fill-rule="evenodd" clip-rule="evenodd" d="M523 388H227V474H523V388Z" fill="white" fill-opacity="0.4"/>
<path opacity="0.06" fill-rule="evenodd" clip-rule="evenodd" d="M485 451.5C499.5 452 500.5 440 500.5 440L504 385.5L493.5 386L479.5 440C479.5 440 470.5 451 485 451.5Z" fill="black"/>
<path opacity="0.15" fill-rule="evenodd" clip-rule="evenodd" d="M525 374H236V475H525V374Z" fill="white"/>
</g>
<mask id="mask1" mask-type="alpha" maskUnits="userSpaceOnUse" x="248" y="389" width="33" height="76">
<path fill-rule="evenodd" clip-rule="evenodd" d="M251.912 463.092C251.961 464.16 252.841 465 253.91 465H279.5C279.5 465 282.177 443 278.5 443C270.5 443 264.564 442 264 434.5C262.912 420.035 261.5 389 261.5 389H248.5L251.912 463.092Z" fill="white"/>
<path fill-rule="evenodd" clip-rule="evenodd" d="M251.912 463.092C251.961 464.16 252.841 465 253.91 465H279.5C279.5 465 282.177 443 278.5 443C270.5 443 264.564 442 264 434.5C262.912 420.035 261.5 389 261.5 389H248.5L251.912 463.092Z" stroke="white"/>
</mask>
<g mask="url(#mask1)">
<g filter="url(#filter6_i)">
<path fill-rule="evenodd" clip-rule="evenodd" d="M251.912 463.092C251.961 464.16 252.841 465 253.91 465H279.5C279.5 465 282.177 443 278.5 443C270.5 443 264.564 442 264 434.5C262.912 420.035 261.5 389 261.5 389H248.5L251.912 463.092Z" fill="url(#paint3_linear)"/>
<path fill-rule="evenodd" clip-rule="evenodd" d="M251.912 463.092C251.961 464.16 252.841 465 253.91 465H279.5C279.5 465 282.177 443 278.5 443C270.5 443 264.564 442 264 434.5C262.912 420.035 261.5 389 261.5 389H248.5L251.912 463.092Z" fill="#F6F8FB" fill-opacity="0.69319"/>
<path fill-rule="evenodd" clip-rule="evenodd" d="M251.912 463.092C251.961 464.16 252.841 465 253.91 465H279.5C279.5 465 282.177 443 278.5 443C270.5 443 264.564 442 264 434.5C262.912 420.035 261.5 389 261.5 389H248.5L251.912 463.092Z" fill="url(#paint4_linear)" fill-opacity="0.35"/>
</g>
<path opacity="0.03" fill-rule="evenodd" clip-rule="evenodd" d="M240 391H519V423H240V391Z" fill="url(#paint5_linear)"/>
<path fill-rule="evenodd" clip-rule="evenodd" d="M235 388H531V474H235V388Z" fill="white" fill-opacity="0.402174"/>
<path opacity="0.06" fill-rule="evenodd" clip-rule="evenodd" d="M273 451.5C258.5 452 257.5 440 257.5 440L254 385.5L264.5 386L278.5 440C278.5 440 287.5 451 273 451.5Z" fill="black"/>
<path opacity="0.15" fill-rule="evenodd" clip-rule="evenodd" d="M233 374H522V475H233V374Z" fill="white"/>
</g>
<g filter="url(#filter7_d)">
<path fill-rule="evenodd" clip-rule="evenodd" d="M265 466.416C265 466.142 265.056 465.87 265.166 465.619L273.693 446.006C274.487 444.181 276.288 443 278.278 443H479.722C481.712 443 483.513 444.181 484.307 446.006L492.834 465.619C492.944 465.87 493 466.142 493 466.416V484C493 486.209 491.209 488 489 488H269C266.791 488 265 486.209 265 484V466.416Z" fill="url(#paint6_linear)"/>
<path fill-rule="evenodd" clip-rule="evenodd" d="M265 466.416C265 466.142 265.056 465.87 265.166 465.619L273.693 446.006C274.487 444.181 276.288 443 278.278 443H479.722C481.712 443 483.513 444.181 484.307 446.006L492.834 465.619C492.944 465.87 493 466.142 493 466.416V484C493 486.209 491.209 488 489 488H269C266.791 488 265 486.209 265 484V466.416Z" fill="#F6F8FB" fill-opacity="0.52757"/>
<path fill-rule="evenodd" clip-rule="evenodd" d="M265 466.416C265 466.142 265.056 465.87 265.166 465.619L273.693 446.006C274.487 444.181 276.288 443 278.278 443H479.722C481.712 443 483.513 444.181 484.307 446.006L492.834 465.619C492.944 465.87 493 466.142 493 466.416V484C493 486.209 491.209 488 489 488H269C266.791 488 265 486.209 265 484V466.416Z" fill="white" fill-opacity="0.15"/>
</g>
<path fill-rule="evenodd" clip-rule="evenodd" d="M264 465H497V468H264V465Z" fill="#D3D6DC"/>
<path fill-rule="evenodd" clip-rule="evenodd" d="M93 10C93 4.47716 97.4772 0 103 0H655C660.523 0 665 4.47715 665 10V384C665 389.523 660.523 394 655 394H103C97.4772 394 93 389.523 93 384V10Z" fill="#F7F7F7"/>
<path fill-rule="evenodd" clip-rule="evenodd" d="M111 22C111 19.7909 112.791 18 115 18H643C645.209 18 647 19.7909 647 22V372C647 374.209 645.209 376 643 376H115C112.791 376 111 374.209 111 372V22Z" fill="#F3F6F8"/>
<path fill-rule="evenodd" clip-rule="evenodd" d="M111 22C111 19.7909 112.791 18 115 18H643C645.209 18 647 19.7909 647 22V372C647 374.209 645.209 376 643 376H115C112.791 376 111 374.209 111 372V22Z" fill="white"/>
<rect x="618" y="34" width="12" height="12" rx="4" fill="#9DD4D5"/>
<rect x="598" y="34" width="12" height="12" rx="4" fill="#9DD4D5"/>
<rect x="578" y="34" width="12" height="12" rx="4" fill="#9DD4D5"/>
<rect opacity="0.2" x="127" y="328" width="503" height="12" rx="2" fill="#A8AABA"/>
<rect x="127" y="348" width="503" height="12" rx="2" fill="#35B6B4"/>
<rect opacity="0.2" x="358" y="249" width="272" height="12" rx="2" fill="#A8AABA"/>
<rect opacity="0.2" x="358" y="273" width="78" height="12" rx="2" fill="#A8AABA"/>
<rect opacity="0.2" x="452" y="273" width="178" height="12" rx="2" fill="#A8AABA"/>
<rect opacity="0.2" x="358" y="297" width="272" height="12" rx="2" fill="#A8AABA"/>
<rect opacity="0.2" x="358" y="185" width="272" height="12" rx="2" fill="#A8AABA"/>
<rect opacity="0.2" x="358" y="161" width="272" height="12" rx="2" fill="#A8AABA"/>
<rect opacity="0.2" x="351" y="137" width="279" height="12" rx="2" fill="#A8AABA"/>
<path d="M364.821 225.362C364.821 226.537 364.486 227.438 363.815 228.062C363.148 228.688 362.183 229 360.92 229H358.898V221.861H361.14C362.305 221.861 363.21 222.169 363.854 222.784C364.499 223.399 364.821 224.259 364.821 225.362ZM363.249 225.401C363.249 223.868 362.572 223.102 361.218 223.102H360.412V227.75H361.062C362.52 227.75 363.249 226.967 363.249 225.401ZM368.444 224.498C368.129 224.498 367.881 224.599 367.702 224.801C367.523 224.999 367.421 225.283 367.395 225.65H369.484C369.478 225.283 369.382 224.999 369.196 224.801C369.011 224.599 368.76 224.498 368.444 224.498ZM368.654 229.098C367.775 229.098 367.089 228.855 366.594 228.37C366.099 227.885 365.852 227.198 365.852 226.31C365.852 225.395 366.079 224.688 366.535 224.19C366.994 223.689 367.627 223.438 368.435 223.438C369.206 223.438 369.807 223.658 370.236 224.098C370.666 224.537 370.881 225.144 370.881 225.919V226.642H367.36C367.377 227.065 367.502 227.395 367.736 227.633C367.971 227.87 368.299 227.989 368.723 227.989C369.051 227.989 369.362 227.955 369.655 227.887C369.948 227.818 370.254 227.709 370.573 227.56V228.712C370.313 228.842 370.035 228.938 369.738 229C369.442 229.065 369.081 229.098 368.654 229.098ZM374.392 227.911C374.652 227.911 374.965 227.854 375.329 227.74V228.849C374.958 229.015 374.502 229.098 373.962 229.098C373.366 229.098 372.932 228.948 372.658 228.648C372.388 228.346 372.253 227.893 372.253 227.291V224.659H371.54V224.029L372.36 223.531L372.79 222.379H373.742V223.541H375.271V224.659H373.742V227.291C373.742 227.503 373.801 227.659 373.918 227.76C374.038 227.861 374.196 227.911 374.392 227.911ZM379.904 229L379.616 228.258H379.577C379.326 228.574 379.068 228.793 378.801 228.917C378.537 229.037 378.192 229.098 377.766 229.098C377.242 229.098 376.828 228.948 376.525 228.648C376.226 228.349 376.076 227.923 376.076 227.369C376.076 226.79 376.278 226.363 376.682 226.09C377.089 225.813 377.701 225.66 378.518 225.631L379.465 225.602V225.362C379.465 224.809 379.182 224.532 378.615 224.532C378.179 224.532 377.666 224.664 377.077 224.928L376.584 223.922C377.212 223.593 377.909 223.429 378.674 223.429C379.406 223.429 379.968 223.588 380.358 223.907C380.749 224.226 380.944 224.711 380.944 225.362V229H379.904ZM379.465 226.471L378.889 226.49C378.456 226.503 378.133 226.581 377.922 226.725C377.71 226.868 377.604 227.086 377.604 227.379C377.604 227.799 377.845 228.009 378.327 228.009C378.672 228.009 378.947 227.91 379.152 227.711C379.361 227.512 379.465 227.249 379.465 226.92V226.471ZM383.972 229H382.482V221.402H383.972V229ZM390.578 229H389.089V225.812C389.089 225.024 388.796 224.63 388.21 224.63C387.793 224.63 387.492 224.771 387.307 225.055C387.121 225.338 387.028 225.797 387.028 226.432V229H385.539V221.402H387.028V222.95C387.028 223.071 387.017 223.354 386.994 223.8L386.96 224.239H387.038C387.37 223.705 387.897 223.438 388.62 223.438C389.261 223.438 389.748 223.611 390.08 223.956C390.412 224.301 390.578 224.796 390.578 225.44V229ZM394.372 224.498C394.056 224.498 393.809 224.599 393.63 224.801C393.451 224.999 393.348 225.283 393.322 225.65H395.412C395.406 225.283 395.31 224.999 395.124 224.801C394.938 224.599 394.688 224.498 394.372 224.498ZM394.582 229.098C393.703 229.098 393.016 228.855 392.521 228.37C392.027 227.885 391.779 227.198 391.779 226.31C391.779 225.395 392.007 224.688 392.463 224.19C392.922 223.689 393.555 223.438 394.362 223.438C395.134 223.438 395.734 223.658 396.164 224.098C396.594 224.537 396.809 225.144 396.809 225.919V226.642H393.288C393.304 227.065 393.43 227.395 393.664 227.633C393.898 227.87 394.227 227.989 394.65 227.989C394.979 227.989 395.29 227.955 395.583 227.887C395.876 227.818 396.182 227.709 396.501 227.56V228.712C396.241 228.842 395.962 228.938 395.666 229C395.37 229.065 395.008 229.098 394.582 229.098ZM401.828 227.379C401.828 227.939 401.633 228.365 401.242 228.658C400.855 228.951 400.274 229.098 399.499 229.098C399.102 229.098 398.763 229.07 398.483 229.015C398.203 228.963 397.941 228.884 397.697 228.78V227.55C397.974 227.68 398.285 227.789 398.63 227.877C398.978 227.965 399.284 228.009 399.548 228.009C400.088 228.009 400.358 227.853 400.358 227.54C400.358 227.423 400.323 227.328 400.251 227.257C400.179 227.182 400.056 227.099 399.88 227.008C399.704 226.913 399.47 226.804 399.177 226.681C398.757 226.505 398.448 226.342 398.249 226.192C398.054 226.043 397.91 225.872 397.819 225.68C397.731 225.484 397.688 225.245 397.688 224.962C397.688 224.477 397.875 224.103 398.249 223.839C398.627 223.572 399.16 223.438 399.851 223.438C400.508 223.438 401.148 223.582 401.77 223.868L401.32 224.942C401.047 224.825 400.791 224.729 400.554 224.654C400.316 224.579 400.074 224.542 399.826 224.542C399.387 224.542 399.167 224.661 399.167 224.898C399.167 225.032 399.237 225.147 399.377 225.245C399.52 225.343 399.831 225.488 400.31 225.68C400.736 225.852 401.049 226.013 401.247 226.163C401.446 226.313 401.592 226.485 401.687 226.681C401.781 226.876 401.828 227.109 401.828 227.379ZM407.316 229.098C406.675 229.098 406.171 228.849 405.803 228.351C405.438 227.853 405.256 227.162 405.256 226.28C405.256 225.385 405.441 224.688 405.812 224.19C406.187 223.689 406.701 223.438 407.355 223.438C408.042 223.438 408.566 223.705 408.928 224.239H408.977C408.902 223.832 408.864 223.469 408.864 223.15V221.402H410.358V229H409.216L408.928 228.292H408.864C408.526 228.829 408.01 229.098 407.316 229.098ZM407.839 227.911C408.22 227.911 408.498 227.8 408.674 227.579C408.853 227.358 408.951 226.982 408.967 226.451V226.29C408.967 225.704 408.876 225.284 408.693 225.03C408.514 224.776 408.221 224.649 407.814 224.649C407.482 224.649 407.224 224.791 407.038 225.074C406.856 225.354 406.765 225.763 406.765 226.3C406.765 226.837 406.857 227.241 407.043 227.511C407.229 227.778 407.494 227.911 407.839 227.911ZM413.103 226.261C413.103 226.801 413.19 227.21 413.366 227.486C413.545 227.763 413.835 227.901 414.235 227.901C414.632 227.901 414.917 227.765 415.09 227.491C415.266 227.215 415.354 226.804 415.354 226.261C415.354 225.72 415.266 225.315 415.09 225.045C414.914 224.775 414.626 224.64 414.226 224.64C413.828 224.64 413.542 224.775 413.366 225.045C413.19 225.312 413.103 225.717 413.103 226.261ZM416.877 226.261C416.877 227.149 416.643 227.844 416.174 228.346C415.705 228.847 415.052 229.098 414.216 229.098C413.692 229.098 413.229 228.984 412.829 228.756C412.429 228.525 412.121 228.194 411.906 227.765C411.691 227.335 411.584 226.834 411.584 226.261C411.584 225.369 411.817 224.675 412.282 224.181C412.748 223.686 413.402 223.438 414.245 223.438C414.769 223.438 415.231 223.552 415.632 223.78C416.032 224.008 416.34 224.335 416.555 224.762C416.77 225.188 416.877 225.688 416.877 226.261ZM423.703 229.098C423.062 229.098 422.559 228.865 422.194 228.399H422.116C422.168 228.855 422.194 229.119 422.194 229.19V231.402H420.705V223.541H421.916L422.126 224.249H422.194C422.543 223.709 423.059 223.438 423.742 223.438C424.387 223.438 424.891 223.688 425.256 224.186C425.62 224.684 425.803 225.375 425.803 226.261C425.803 226.843 425.716 227.35 425.544 227.779C425.375 228.209 425.132 228.536 424.816 228.761C424.501 228.985 424.13 229.098 423.703 229.098ZM423.264 224.63C422.896 224.63 422.627 224.744 422.458 224.972C422.289 225.196 422.201 225.569 422.194 226.09V226.251C422.194 226.837 422.281 227.257 422.453 227.511C422.629 227.765 422.906 227.892 423.283 227.892C423.951 227.892 424.284 227.341 424.284 226.241C424.284 225.704 424.201 225.302 424.035 225.035C423.872 224.765 423.615 224.63 423.264 224.63ZM430.08 223.438C430.282 223.438 430.45 223.453 430.583 223.482L430.471 224.879C430.35 224.846 430.204 224.83 430.031 224.83C429.556 224.83 429.185 224.952 428.918 225.196C428.654 225.44 428.522 225.782 428.522 226.222V229H427.033V223.541H428.161L428.381 224.459H428.454C428.623 224.153 428.851 223.907 429.138 223.722C429.427 223.533 429.742 223.438 430.08 223.438ZM432.761 226.261C432.761 226.801 432.849 227.21 433.024 227.486C433.203 227.763 433.493 227.901 433.894 227.901C434.291 227.901 434.576 227.765 434.748 227.491C434.924 227.215 435.012 226.804 435.012 226.261C435.012 225.72 434.924 225.315 434.748 225.045C434.572 224.775 434.284 224.64 433.884 224.64C433.487 224.64 433.2 224.775 433.024 225.045C432.849 225.312 432.761 225.717 432.761 226.261ZM436.535 226.261C436.535 227.149 436.301 227.844 435.832 228.346C435.363 228.847 434.711 229.098 433.874 229.098C433.35 229.098 432.888 228.984 432.487 228.756C432.087 228.525 431.779 228.194 431.564 227.765C431.35 227.335 431.242 226.834 431.242 226.261C431.242 225.369 431.475 224.675 431.94 224.181C432.406 223.686 433.06 223.438 433.903 223.438C434.427 223.438 434.89 223.552 435.29 223.78C435.69 224.008 435.998 224.335 436.213 224.762C436.428 225.188 436.535 225.688 436.535 226.261ZM439.494 229.098C438.853 229.098 438.348 228.849 437.98 228.351C437.616 227.853 437.434 227.162 437.434 226.28C437.434 225.385 437.619 224.688 437.99 224.19C438.365 223.689 438.879 223.438 439.533 223.438C440.22 223.438 440.744 223.705 441.105 224.239H441.154C441.079 223.832 441.042 223.469 441.042 223.15V221.402H442.536V229H441.394L441.105 228.292H441.042C440.703 228.829 440.188 229.098 439.494 229.098ZM440.017 227.911C440.397 227.911 440.676 227.8 440.852 227.579C441.031 227.358 441.128 226.982 441.145 226.451V226.29C441.145 225.704 441.053 225.284 440.871 225.03C440.692 224.776 440.399 224.649 439.992 224.649C439.66 224.649 439.401 224.791 439.216 225.074C439.034 225.354 438.942 225.763 438.942 226.3C438.942 226.837 439.035 227.241 439.221 227.511C439.406 227.778 439.672 227.911 440.017 227.911ZM447.961 229L447.761 228.302H447.683C447.523 228.556 447.297 228.753 447.004 228.893C446.711 229.029 446.377 229.098 446.003 229.098C445.362 229.098 444.878 228.927 444.553 228.585C444.227 228.24 444.064 227.745 444.064 227.101V223.541H445.554V226.729C445.554 227.123 445.624 227.42 445.764 227.618C445.904 227.813 446.127 227.911 446.433 227.911C446.849 227.911 447.15 227.773 447.336 227.496C447.521 227.216 447.614 226.754 447.614 226.109V223.541H449.104V229H447.961ZM452.966 227.911C453.226 227.911 453.539 227.854 453.903 227.74V228.849C453.532 229.015 453.076 229.098 452.536 229.098C451.94 229.098 451.506 228.948 451.232 228.648C450.962 228.346 450.827 227.893 450.827 227.291V224.659H450.114V224.029L450.935 223.531L451.364 222.379H452.316V223.541H453.845V224.659H452.316V227.291C452.316 227.503 452.375 227.659 452.492 227.76C452.613 227.861 452.771 227.911 452.966 227.911ZM456.198 226.261C456.198 226.801 456.286 227.21 456.462 227.486C456.641 227.763 456.931 227.901 457.331 227.901C457.728 227.901 458.013 227.765 458.186 227.491C458.361 227.215 458.449 226.804 458.449 226.261C458.449 225.72 458.361 225.315 458.186 225.045C458.01 224.775 457.722 224.64 457.321 224.64C456.924 224.64 456.638 224.775 456.462 225.045C456.286 225.312 456.198 225.717 456.198 226.261ZM459.973 226.261C459.973 227.149 459.738 227.844 459.27 228.346C458.801 228.847 458.148 229.098 457.312 229.098C456.787 229.098 456.325 228.984 455.925 228.756C455.524 228.525 455.217 228.194 455.002 227.765C454.787 227.335 454.68 226.834 454.68 226.261C454.68 225.369 454.912 224.675 455.378 224.181C455.843 223.686 456.498 223.438 457.341 223.438C457.865 223.438 458.327 223.552 458.728 223.78C459.128 224.008 459.436 224.335 459.65 224.762C459.865 225.188 459.973 225.688 459.973 226.261Z" fill="#595B6F"/>
<path d="M364.821 116.362C364.821 117.537 364.486 118.438 363.815 119.062C363.148 119.688 362.183 120 360.92 120H358.898V112.861H361.14C362.305 112.861 363.21 113.169 363.854 113.784C364.499 114.399 364.821 115.259 364.821 116.362ZM363.249 116.401C363.249 114.868 362.572 114.102 361.218 114.102H360.412V118.75H361.062C362.52 118.75 363.249 117.967 363.249 116.401ZM369.65 120L369.362 119.258H369.323C369.073 119.574 368.814 119.793 368.547 119.917C368.283 120.037 367.938 120.098 367.512 120.098C366.988 120.098 366.574 119.948 366.271 119.648C365.972 119.349 365.822 118.923 365.822 118.369C365.822 117.79 366.024 117.363 366.428 117.09C366.835 116.813 367.447 116.66 368.264 116.631L369.211 116.602V116.362C369.211 115.809 368.928 115.532 368.361 115.532C367.925 115.532 367.412 115.664 366.823 115.928L366.33 114.922C366.958 114.593 367.655 114.429 368.42 114.429C369.152 114.429 369.714 114.588 370.104 114.907C370.495 115.226 370.69 115.711 370.69 116.362V120H369.65ZM369.211 117.471L368.635 117.49C368.202 117.503 367.88 117.581 367.668 117.725C367.456 117.868 367.351 118.086 367.351 118.379C367.351 118.799 367.591 119.009 368.073 119.009C368.418 119.009 368.693 118.91 368.898 118.711C369.107 118.512 369.211 118.249 369.211 117.92V117.471ZM373.957 120.098C373.316 120.098 372.811 119.849 372.443 119.351C372.079 118.853 371.896 118.162 371.896 117.28C371.896 116.385 372.082 115.688 372.453 115.19C372.827 114.689 373.342 114.438 373.996 114.438C374.683 114.438 375.207 114.705 375.568 115.239H375.617C375.542 114.832 375.505 114.469 375.505 114.15V112.402H376.999V120H375.856L375.568 119.292H375.505C375.166 119.829 374.65 120.098 373.957 120.098ZM374.479 118.911C374.86 118.911 375.139 118.8 375.314 118.579C375.493 118.358 375.591 117.982 375.607 117.451V117.29C375.607 116.704 375.516 116.284 375.334 116.03C375.155 115.776 374.862 115.649 374.455 115.649C374.123 115.649 373.864 115.791 373.679 116.074C373.496 116.354 373.405 116.763 373.405 117.3C373.405 117.837 373.498 118.241 373.684 118.511C373.869 118.778 374.134 118.911 374.479 118.911ZM379.743 117.261C379.743 117.801 379.831 118.21 380.007 118.486C380.186 118.763 380.476 118.901 380.876 118.901C381.273 118.901 381.558 118.765 381.73 118.491C381.906 118.215 381.994 117.804 381.994 117.261C381.994 116.72 381.906 116.315 381.73 116.045C381.555 115.775 381.267 115.64 380.866 115.64C380.469 115.64 380.183 115.775 380.007 116.045C379.831 116.312 379.743 116.717 379.743 117.261ZM383.518 117.261C383.518 118.149 383.283 118.844 382.814 119.346C382.346 119.847 381.693 120.098 380.856 120.098C380.332 120.098 379.87 119.984 379.47 119.756C379.069 119.525 378.762 119.194 378.547 118.765C378.332 118.335 378.225 117.834 378.225 117.261C378.225 116.369 378.457 115.675 378.923 115.181C379.388 114.686 380.043 114.438 380.886 114.438C381.41 114.438 381.872 114.552 382.272 114.78C382.673 115.008 382.98 115.335 383.195 115.762C383.41 116.188 383.518 116.688 383.518 117.261ZM388.557 118.379C388.557 118.939 388.361 119.365 387.971 119.658C387.583 119.951 387.002 120.098 386.228 120.098C385.83 120.098 385.492 120.07 385.212 120.015C384.932 119.963 384.67 119.884 384.426 119.78V118.55C384.702 118.68 385.013 118.789 385.358 118.877C385.707 118.965 386.013 119.009 386.276 119.009C386.817 119.009 387.087 118.853 387.087 118.54C387.087 118.423 387.051 118.328 386.979 118.257C386.908 118.182 386.784 118.099 386.608 118.008C386.433 117.913 386.198 117.804 385.905 117.681C385.485 117.505 385.176 117.342 384.978 117.192C384.782 117.043 384.639 116.872 384.548 116.68C384.46 116.484 384.416 116.245 384.416 115.962C384.416 115.477 384.603 115.103 384.978 114.839C385.355 114.572 385.889 114.438 386.579 114.438C387.237 114.438 387.876 114.582 388.498 114.868L388.049 115.942C387.775 115.825 387.52 115.729 387.282 115.654C387.045 115.579 386.802 115.542 386.555 115.542C386.115 115.542 385.896 115.661 385.896 115.898C385.896 116.032 385.965 116.147 386.105 116.245C386.249 116.343 386.56 116.488 387.038 116.68C387.465 116.852 387.777 117.013 387.976 117.163C388.174 117.313 388.321 117.485 388.415 117.681C388.509 117.876 388.557 118.109 388.557 118.379ZM394.045 120.098C393.404 120.098 392.899 119.849 392.531 119.351C392.167 118.853 391.984 118.162 391.984 117.28C391.984 116.385 392.17 115.688 392.541 115.19C392.915 114.689 393.43 114.438 394.084 114.438C394.771 114.438 395.295 114.705 395.656 115.239H395.705C395.63 114.832 395.593 114.469 395.593 114.15V112.402H397.087V120H395.944L395.656 119.292H395.593C395.254 119.829 394.738 120.098 394.045 120.098ZM394.567 118.911C394.948 118.911 395.227 118.8 395.402 118.579C395.581 118.358 395.679 117.982 395.695 117.451V117.29C395.695 116.704 395.604 116.284 395.422 116.03C395.243 115.776 394.95 115.649 394.543 115.649C394.211 115.649 393.952 115.791 393.767 116.074C393.584 116.354 393.493 116.763 393.493 117.3C393.493 117.837 393.586 118.241 393.771 118.511C393.957 118.778 394.222 118.911 394.567 118.911ZM399.831 117.261C399.831 117.801 399.919 118.21 400.095 118.486C400.274 118.763 400.563 118.901 400.964 118.901C401.361 118.901 401.646 118.765 401.818 118.491C401.994 118.215 402.082 117.804 402.082 117.261C402.082 116.72 401.994 116.315 401.818 116.045C401.643 115.775 401.354 115.64 400.954 115.64C400.557 115.64 400.271 115.775 400.095 116.045C399.919 116.312 399.831 116.717 399.831 117.261ZM403.605 117.261C403.605 118.149 403.371 118.844 402.902 119.346C402.434 119.847 401.781 120.098 400.944 120.098C400.42 120.098 399.958 119.984 399.558 119.756C399.157 119.525 398.85 119.194 398.635 118.765C398.42 118.335 398.312 117.834 398.312 117.261C398.312 116.369 398.545 115.675 399.011 115.181C399.476 114.686 400.131 114.438 400.974 114.438C401.498 114.438 401.96 114.552 402.36 114.78C402.761 115.008 403.068 115.335 403.283 115.762C403.498 116.188 403.605 116.688 403.605 117.261ZM410.432 120.098C409.79 120.098 409.287 119.865 408.923 119.399H408.845C408.897 119.855 408.923 120.119 408.923 120.19V122.402H407.434V114.541H408.645L408.854 115.249H408.923C409.271 114.709 409.787 114.438 410.471 114.438C411.115 114.438 411.62 114.688 411.984 115.186C412.349 115.684 412.531 116.375 412.531 117.261C412.531 117.843 412.445 118.35 412.272 118.779C412.103 119.209 411.861 119.536 411.545 119.761C411.229 119.985 410.858 120.098 410.432 120.098ZM409.992 115.63C409.624 115.63 409.356 115.744 409.187 115.972C409.017 116.196 408.929 116.569 408.923 117.09V117.251C408.923 117.837 409.009 118.257 409.182 118.511C409.357 118.765 409.634 118.892 410.012 118.892C410.679 118.892 411.013 118.341 411.013 117.241C411.013 116.704 410.93 116.302 410.764 116.035C410.601 115.765 410.344 115.63 409.992 115.63ZM416.809 114.438C417.01 114.438 417.178 114.453 417.312 114.482L417.199 115.879C417.079 115.846 416.932 115.83 416.76 115.83C416.285 115.83 415.913 115.952 415.646 116.196C415.383 116.44 415.251 116.782 415.251 117.222V120H413.762V114.541H414.89L415.109 115.459H415.183C415.352 115.153 415.58 114.907 415.866 114.722C416.156 114.533 416.47 114.438 416.809 114.438ZM419.489 117.261C419.489 117.801 419.577 118.21 419.753 118.486C419.932 118.763 420.222 118.901 420.622 118.901C421.019 118.901 421.304 118.765 421.477 118.491C421.652 118.215 421.74 117.804 421.74 117.261C421.74 116.72 421.652 116.315 421.477 116.045C421.301 115.775 421.013 115.64 420.612 115.64C420.215 115.64 419.929 115.775 419.753 116.045C419.577 116.312 419.489 116.717 419.489 117.261ZM423.264 117.261C423.264 118.149 423.029 118.844 422.561 119.346C422.092 119.847 421.439 120.098 420.603 120.098C420.078 120.098 419.616 119.984 419.216 119.756C418.815 119.525 418.508 119.194 418.293 118.765C418.078 118.335 417.971 117.834 417.971 117.261C417.971 116.369 418.203 115.675 418.669 115.181C419.134 114.686 419.789 114.438 420.632 114.438C421.156 114.438 421.618 114.552 422.019 114.78C422.419 115.008 422.727 115.335 422.941 115.762C423.156 116.188 423.264 116.688 423.264 117.261ZM426.223 120.098C425.581 120.098 425.077 119.849 424.709 119.351C424.344 118.853 424.162 118.162 424.162 117.28C424.162 116.385 424.348 115.688 424.719 115.19C425.093 114.689 425.607 114.438 426.262 114.438C426.949 114.438 427.473 114.705 427.834 115.239H427.883C427.808 114.832 427.771 114.469 427.771 114.15V112.402H429.265V120H428.122L427.834 119.292H427.771C427.432 119.829 426.916 120.098 426.223 120.098ZM426.745 118.911C427.126 118.911 427.404 118.8 427.58 118.579C427.759 118.358 427.857 117.982 427.873 117.451V117.29C427.873 116.704 427.782 116.284 427.6 116.03C427.421 115.776 427.128 115.649 426.721 115.649C426.389 115.649 426.13 115.791 425.944 116.074C425.762 116.354 425.671 116.763 425.671 117.3C425.671 117.837 425.764 118.241 425.949 118.511C426.135 118.778 426.4 118.911 426.745 118.911ZM434.689 120L434.489 119.302H434.411C434.252 119.556 434.025 119.753 433.732 119.893C433.439 120.029 433.106 120.098 432.731 120.098C432.09 120.098 431.607 119.927 431.281 119.585C430.956 119.24 430.793 118.745 430.793 118.101V114.541H432.282V117.729C432.282 118.123 432.352 118.42 432.492 118.618C432.632 118.813 432.855 118.911 433.161 118.911C433.578 118.911 433.879 118.773 434.064 118.496C434.25 118.216 434.343 117.754 434.343 117.109V114.541H435.832V120H434.689ZM439.694 118.911C439.955 118.911 440.267 118.854 440.632 118.74V119.849C440.261 120.015 439.805 120.098 439.265 120.098C438.669 120.098 438.234 119.948 437.961 119.648C437.691 119.346 437.556 118.893 437.556 118.291V115.659H436.843V115.029L437.663 114.531L438.093 113.379H439.045V114.541H440.573V115.659H439.045V118.291C439.045 118.503 439.104 118.659 439.221 118.76C439.341 118.861 439.499 118.911 439.694 118.911ZM442.927 117.261C442.927 117.801 443.015 118.21 443.19 118.486C443.369 118.763 443.659 118.901 444.06 118.901C444.457 118.901 444.742 118.765 444.914 118.491C445.09 118.215 445.178 117.804 445.178 117.261C445.178 116.72 445.09 116.315 444.914 116.045C444.738 115.775 444.45 115.64 444.05 115.64C443.653 115.64 443.366 115.775 443.19 116.045C443.015 116.312 442.927 116.717 442.927 117.261ZM446.701 117.261C446.701 118.149 446.467 118.844 445.998 119.346C445.529 119.847 444.877 120.098 444.04 120.098C443.516 120.098 443.054 119.984 442.653 119.756C442.253 119.525 441.945 119.194 441.73 118.765C441.516 118.335 441.408 117.834 441.408 117.261C441.408 116.369 441.641 115.675 442.106 115.181C442.572 114.686 443.226 114.438 444.069 114.438C444.593 114.438 445.056 114.552 445.456 114.78C445.856 115.008 446.164 115.335 446.379 115.762C446.594 116.188 446.701 116.688 446.701 117.261Z" fill="#595B6F"/>
<path d="M364.821 116.362C364.821 117.537 364.486 118.438 363.815 119.062C363.148 119.688 362.183 120 360.92 120H358.898V112.861H361.14C362.305 112.861 363.21 113.169 363.854 113.784C364.499 114.399 364.821 115.259 364.821 116.362ZM363.249 116.401C363.249 114.868 362.572 114.102 361.218 114.102H360.412V118.75H361.062C362.52 118.75 363.249 117.967 363.249 116.401ZM369.65 120L369.362 119.258H369.323C369.073 119.574 368.814 119.793 368.547 119.917C368.283 120.037 367.938 120.098 367.512 120.098C366.988 120.098 366.574 119.948 366.271 119.648C365.972 119.349 365.822 118.923 365.822 118.369C365.822 117.79 366.024 117.363 366.428 117.09C366.835 116.813 367.447 116.66 368.264 116.631L369.211 116.602V116.362C369.211 115.809 368.928 115.532 368.361 115.532C367.925 115.532 367.412 115.664 366.823 115.928L366.33 114.922C366.958 114.593 367.655 114.429 368.42 114.429C369.152 114.429 369.714 114.588 370.104 114.907C370.495 115.226 370.69 115.711 370.69 116.362V120H369.65ZM369.211 117.471L368.635 117.49C368.202 117.503 367.88 117.581 367.668 117.725C367.456 117.868 367.351 118.086 367.351 118.379C367.351 118.799 367.591 119.009 368.073 119.009C368.418 119.009 368.693 118.91 368.898 118.711C369.107 118.512 369.211 118.249 369.211 117.92V117.471ZM373.957 120.098C373.316 120.098 372.811 119.849 372.443 119.351C372.079 118.853 371.896 118.162 371.896 117.28C371.896 116.385 372.082 115.688 372.453 115.19C372.827 114.689 373.342 114.438 373.996 114.438C374.683 114.438 375.207 114.705 375.568 115.239H375.617C375.542 114.832 375.505 114.469 375.505 114.15V112.402H376.999V120H375.856L375.568 119.292H375.505C375.166 119.829 374.65 120.098 373.957 120.098ZM374.479 118.911C374.86 118.911 375.139 118.8 375.314 118.579C375.493 118.358 375.591 117.982 375.607 117.451V117.29C375.607 116.704 375.516 116.284 375.334 116.03C375.155 115.776 374.862 115.649 374.455 115.649C374.123 115.649 373.864 115.791 373.679 116.074C373.496 116.354 373.405 116.763 373.405 117.3C373.405 117.837 373.498 118.241 373.684 118.511C373.869 118.778 374.134 118.911 374.479 118.911ZM379.743 117.261C379.743 117.801 379.831 118.21 380.007 118.486C380.186 118.763 380.476 118.901 380.876 118.901C381.273 118.901 381.558 118.765 381.73 118.491C381.906 118.215 381.994 117.804 381.994 117.261C381.994 116.72 381.906 116.315 381.73 116.045C381.555 115.775 381.267 115.64 380.866 115.64C380.469 115.64 380.183 115.775 380.007 116.045C379.831 116.312 379.743 116.717 379.743 117.261ZM383.518 117.261C383.518 118.149 383.283 118.844 382.814 119.346C382.346 119.847 381.693 120.098 380.856 120.098C380.332 120.098 379.87 119.984 379.47 119.756C379.069 119.525 378.762 119.194 378.547 118.765C378.332 118.335 378.225 117.834 378.225 117.261C378.225 116.369 378.457 115.675 378.923 115.181C379.388 114.686 380.043 114.438 380.886 114.438C381.41 114.438 381.872 114.552 382.272 114.78C382.673 115.008 382.98 115.335 383.195 115.762C383.41 116.188 383.518 116.688 383.518 117.261ZM388.557 118.379C388.557 118.939 388.361 119.365 387.971 119.658C387.583 119.951 387.002 120.098 386.228 120.098C385.83 120.098 385.492 120.07 385.212 120.015C384.932 119.963 384.67 119.884 384.426 119.78V118.55C384.702 118.68 385.013 118.789 385.358 118.877C385.707 118.965 386.013 119.009 386.276 119.009C386.817 119.009 387.087 118.853 387.087 118.54C387.087 118.423 387.051 118.328 386.979 118.257C386.908 118.182 386.784 118.099 386.608 118.008C386.433 117.913 386.198 117.804 385.905 117.681C385.485 117.505 385.176 117.342 384.978 117.192C384.782 117.043 384.639 116.872 384.548 116.68C384.46 116.484 384.416 116.245 384.416 115.962C384.416 115.477 384.603 115.103 384.978 114.839C385.355 114.572 385.889 114.438 386.579 114.438C387.237 114.438 387.876 114.582 388.498 114.868L388.049 115.942C387.775 115.825 387.52 115.729 387.282 115.654C387.045 115.579 386.802 115.542 386.555 115.542C386.115 115.542 385.896 115.661 385.896 115.898C385.896 116.032 385.965 116.147 386.105 116.245C386.249 116.343 386.56 116.488 387.038 116.68C387.465 116.852 387.777 117.013 387.976 117.163C388.174 117.313 388.321 117.485 388.415 117.681C388.509 117.876 388.557 118.109 388.557 118.379ZM394.045 120.098C393.404 120.098 392.899 119.849 392.531 119.351C392.167 118.853 391.984 118.162 391.984 117.28C391.984 116.385 392.17 115.688 392.541 115.19C392.915 114.689 393.43 114.438 394.084 114.438C394.771 114.438 395.295 114.705 395.656 115.239H395.705C395.63 114.832 395.593 114.469 395.593 114.15V112.402H397.087V120H395.944L395.656 119.292H395.593C395.254 119.829 394.738 120.098 394.045 120.098ZM394.567 118.911C394.948 118.911 395.227 118.8 395.402 118.579C395.581 118.358 395.679 117.982 395.695 117.451V117.29C395.695 116.704 395.604 116.284 395.422 116.03C395.243 115.776 394.95 115.649 394.543 115.649C394.211 115.649 393.952 115.791 393.767 116.074C393.584 116.354 393.493 116.763 393.493 117.3C393.493 117.837 393.586 118.241 393.771 118.511C393.957 118.778 394.222 118.911 394.567 118.911ZM399.831 117.261C399.831 117.801 399.919 118.21 400.095 118.486C400.274 118.763 400.563 118.901 400.964 118.901C401.361 118.901 401.646 118.765 401.818 118.491C401.994 118.215 402.082 117.804 402.082 117.261C402.082 116.72 401.994 116.315 401.818 116.045C401.643 115.775 401.354 115.64 400.954 115.64C400.557 115.64 400.271 115.775 400.095 116.045C399.919 116.312 399.831 116.717 399.831 117.261ZM403.605 117.261C403.605 118.149 403.371 118.844 402.902 119.346C402.434 119.847 401.781 120.098 400.944 120.098C400.42 120.098 399.958 119.984 399.558 119.756C399.157 119.525 398.85 119.194 398.635 118.765C398.42 118.335 398.312 117.834 398.312 117.261C398.312 116.369 398.545 115.675 399.011 115.181C399.476 114.686 400.131 114.438 400.974 114.438C401.498 114.438 401.96 114.552 402.36 114.78C402.761 115.008 403.068 115.335 403.283 115.762C403.498 116.188 403.605 116.688 403.605 117.261ZM410.432 120.098C409.79 120.098 409.287 119.865 408.923 119.399H408.845C408.897 119.855 408.923 120.119 408.923 120.19V122.402H407.434V114.541H408.645L408.854 115.249H408.923C409.271 114.709 409.787 114.438 410.471 114.438C411.115 114.438 411.62 114.688 411.984 115.186C412.349 115.684 412.531 116.375 412.531 117.261C412.531 117.843 412.445 118.35 412.272 118.779C412.103 119.209 411.861 119.536 411.545 119.761C411.229 119.985 410.858 120.098 410.432 120.098ZM409.992 115.63C409.624 115.63 409.356 115.744 409.187 115.972C409.017 116.196 408.929 116.569 408.923 117.09V117.251C408.923 117.837 409.009 118.257 409.182 118.511C409.357 118.765 409.634 118.892 410.012 118.892C410.679 118.892 411.013 118.341 411.013 117.241C411.013 116.704 410.93 116.302 410.764 116.035C410.601 115.765 410.344 115.63 409.992 115.63ZM416.809 114.438C417.01 114.438 417.178 114.453 417.312 114.482L417.199 115.879C417.079 115.846 416.932 115.83 416.76 115.83C416.285 115.83 415.913 115.952 415.646 116.196C415.383 116.44 415.251 116.782 415.251 117.222V120H413.762V114.541H414.89L415.109 115.459H415.183C415.352 115.153 415.58 114.907 415.866 114.722C416.156 114.533 416.47 114.438 416.809 114.438ZM419.489 117.261C419.489 117.801 419.577 118.21 419.753 118.486C419.932 118.763 420.222 118.901 420.622 118.901C421.019 118.901 421.304 118.765 421.477 118.491C421.652 118.215 421.74 117.804 421.74 117.261C421.74 116.72 421.652 116.315 421.477 116.045C421.301 115.775 421.013 115.64 420.612 115.64C420.215 115.64 419.929 115.775 419.753 116.045C419.577 116.312 419.489 116.717 419.489 117.261ZM423.264 117.261C423.264 118.149 423.029 118.844 422.561 119.346C422.092 119.847 421.439 120.098 420.603 120.098C420.078 120.098 419.616 119.984 419.216 119.756C418.815 119.525 418.508 119.194 418.293 118.765C418.078 118.335 417.971 117.834 417.971 117.261C417.971 116.369 418.203 115.675 418.669 115.181C419.134 114.686 419.789 114.438 420.632 114.438C421.156 114.438 421.618 114.552 422.019 114.78C422.419 115.008 422.727 115.335 422.941 115.762C423.156 116.188 423.264 116.688 423.264 117.261ZM426.223 120.098C425.581 120.098 425.077 119.849 424.709 119.351C424.344 118.853 424.162 118.162 424.162 117.28C424.162 116.385 424.348 115.688 424.719 115.19C425.093 114.689 425.607 114.438 426.262 114.438C426.949 114.438 427.473 114.705 427.834 115.239H427.883C427.808 114.832 427.771 114.469 427.771 114.15V112.402H429.265V120H428.122L427.834 119.292H427.771C427.432 119.829 426.916 120.098 426.223 120.098ZM426.745 118.911C427.126 118.911 427.404 118.8 427.58 118.579C427.759 118.358 427.857 117.982 427.873 117.451V117.29C427.873 116.704 427.782 116.284 427.6 116.03C427.421 115.776 427.128 115.649 426.721 115.649C426.389 115.649 426.13 115.791 425.944 116.074C425.762 116.354 425.671 116.763 425.671 117.3C425.671 117.837 425.764 118.241 425.949 118.511C426.135 118.778 426.4 118.911 426.745 118.911ZM434.689 120L434.489 119.302H434.411C434.252 119.556 434.025 119.753 433.732 119.893C433.439 120.029 433.106 120.098 432.731 120.098C432.09 120.098 431.607 119.927 431.281 119.585C430.956 119.24 430.793 118.745 430.793 118.101V114.541H432.282V117.729C432.282 118.123 432.352 118.42 432.492 118.618C432.632 118.813 432.855 118.911 433.161 118.911C433.578 118.911 433.879 118.773 434.064 118.496C434.25 118.216 434.343 117.754 434.343 117.109V114.541H435.832V120H434.689ZM439.694 118.911C439.955 118.911 440.267 118.854 440.632 118.74V119.849C440.261 120.015 439.805 120.098 439.265 120.098C438.669 120.098 438.234 119.948 437.961 119.648C437.691 119.346 437.556 118.893 437.556 118.291V115.659H436.843V115.029L437.663 114.531L438.093 113.379H439.045V114.541H440.573V115.659H439.045V118.291C439.045 118.503 439.104 118.659 439.221 118.76C439.341 118.861 439.499 118.911 439.694 118.911ZM442.927 117.261C442.927 117.801 443.015 118.21 443.19 118.486C443.369 118.763 443.659 118.901 444.06 118.901C444.457 118.901 444.742 118.765 444.914 118.491C445.09 118.215 445.178 117.804 445.178 117.261C445.178 116.72 445.09 116.315 444.914 116.045C444.738 115.775 444.45 115.64 444.05 115.64C443.653 115.64 443.366 115.775 443.19 116.045C443.015 116.312 442.927 116.717 442.927 117.261ZM446.701 117.261C446.701 118.149 446.467 118.844 445.998 119.346C445.529 119.847 444.877 120.098 444.04 120.098C443.516 120.098 443.054 119.984 442.653 119.756C442.253 119.525 441.945 119.194 441.73 118.765C441.516 118.335 441.408 117.834 441.408 117.261C441.408 116.369 441.641 115.675 442.106 115.181C442.572 114.686 443.226 114.438 444.069 114.438C444.593 114.438 445.056 114.552 445.456 114.78C445.856 115.008 446.164 115.335 446.379 115.762C446.594 116.188 446.701 116.688 446.701 117.261Z" fill="#595B6F"/>
<rect opacity="0.2" x="127" y="108" width="215" height="44" rx="4" fill="#A8AABA"/>
<rect x="127" y="80" width="215" height="16" rx="4" fill="#35B6B4"/>
<rect opacity="0.2" x="358" y="80" width="266" height="16" rx="4" fill="#A8AABA"/>
<rect opacity="0.2" x="153" y="55" width="477" height="16" rx="4" fill="#A8AABA"/>
<path fill-rule="evenodd" clip-rule="evenodd" d="M630.033 88C630.033 92.4189 626.445 96 622.018 96C617.59 96 614 92.4189 614 88C614 83.5811 617.59 80 622.018 80C626.445 80 630.033 83.5811 630.033 88Z" fill="#CFD2E6"/>
<path d="M620.887 91L623.031 86.3125H620.215V85.2969H624.312V86.0547L622.152 91H620.887Z" fill="white"/>
<path fill-rule="evenodd" clip-rule="evenodd" d="M127 306C127 309.314 129.686 312 133 312H336C339.314 312 342 309.314 342 306V174C342 170.686 339.314 168 336 168H133C129.686 168 127 170.686 127 174V306Z" fill="#35B6B4"/>
<g filter="url(#filter8_d)">
<rect x="285" y="133" width="91" height="74" rx="6" fill="white"/>
</g>
<path d="M323 157L319 162.333V181C319 181.707 319.281 182.386 319.781 182.886C320.281 183.386 320.959 183.667 321.667 183.667H340.333C341.041 183.667 341.719 183.386 342.219 182.886C342.719 182.386 343 181.707 343 181V162.333L339 157H323Z" stroke="#35B6B4" stroke-width="2" stroke-linecap="round" stroke-linejoin="round"/>
<path d="M319 162.333H343" stroke="#35B6B4" stroke-width="2" stroke-linecap="round" stroke-linejoin="round"/>
<path d="M336.334 167.667C336.334 169.081 335.772 170.438 334.772 171.438C333.771 172.438 332.415 173 331 173C329.586 173 328.229 172.438 327.229 171.438C326.229 170.438 325.667 169.081 325.667 167.667" stroke="#1F3D8C" stroke-width="2" stroke-linecap="round" stroke-linejoin="round"/>
<g filter="url(#filter9_d)">
<rect x="331.192" y="198" width="13" height="13" transform="rotate(45 331.192 198)" fill="white"/>
</g>
<g filter="url(#filter10_d)">
<rect x="47" y="50" width="128" height="64" rx="6" fill="white"/>
</g>
<path fill-rule="evenodd" clip-rule="evenodd" d="M140.458 83.2735C140.437 82.7498 140.417 82.2595 140.41 81.8189C140.374 78.8818 140.316 74.4424 135.272 74.4252C130.929 74.4252 126.455 77.755 123.815 79.7248C123.68 79.8061 123.519 79.9236 123.481 80.1195C123.466 80.196 123.47 80.2715 123.496 80.3422C123.537 80.5114 123.688 80.7169 124.194 80.7169C124.527 80.7169 125.134 80.6271 125.414 80.4359C126.72 79.6512 128.105 78.9153 129.667 78.1765C130.961 77.4664 132.593 77.0267 133.924 77.0267C134.724 77.0267 135.802 77.1863 136.399 77.9538C136.684 78.3208 136.668 79.8003 136.662 80.3575C136.649 81.5666 136.591 82.8024 136.534 83.998C136.512 84.4501 136.491 84.9002 136.471 85.3504C136.414 86.6684 136.287 88.2225 135.759 89.7469C135.637 90.1005 135.349 90.5707 134.262 90.5707C133.045 90.5707 131.434 89.9667 130.471 89.6083C130.26 89.5261 130.07 89.4573 129.916 89.4028C127.027 88.4021 124.301 87.0583 121.093 85.3475C118.024 83.7103 114.969 81.9288 112.015 80.2065C109.857 78.9468 107.625 77.6451 105.404 76.4083L105.265 76.3319C100.55 73.7055 95.6737 70.9902 90.3308 70.1329C89.779 70.0449 89.2224 70 88.6802 70C85.631 70 83.1345 71.4011 81.8367 73.845C80.8638 75.6743 80.9657 78.0561 81.0532 80.1578C81.0744 80.6261 81.0936 81.0801 81.0984 81.5083C81.1378 84.2293 81.1811 87.3135 82.3375 90.112C83.2258 92.2586 85.2811 93.394 88.2842 93.394C89.5137 93.394 90.9326 93.2 92.3813 92.834C97.7127 91.4921 102.811 89.3512 108.002 87.0918C108.172 87.0182 108.617 86.8232 108.533 86.4295C108.451 86.0414 107.967 85.9984 107.609 85.9984C107.498 85.9984 107.212 86.0061 107.008 86.0701C103.993 87.0278 100.782 88.0361 97.6041 88.9421C97.2753 89.0348 96.9177 89.1428 96.537 89.2594C94.6182 89.8348 92.2323 90.5526 90.1366 90.5526C88.1227 90.5526 86.8172 89.8816 86.1472 88.4977C85.2368 86.6139 85.3705 83.9741 85.4916 81.6478C85.5185 81.1107 85.5445 80.5926 85.556 80.109L85.5646 79.7038C85.5983 78.2749 85.6319 76.9254 85.9242 75.5644C86.1587 74.4815 86.8518 73.9769 88.1092 73.9769C89.2993 73.9769 90.7134 74.449 91.6507 74.7616L91.7987 74.8113C96.4736 76.3644 100.912 78.9879 105.205 81.5264C106.264 82.1534 107.318 82.7766 108.368 83.3787C114.286 86.7745 119.242 89.5529 124.731 91.8056C127.321 92.8674 130.341 94 133.37 94C134.554 94 135.692 93.8261 136.755 93.4791C140.826 92.1487 140.604 86.807 140.458 83.2735Z" fill="#DC272B"/>
<defs>
<filter id="filter0_f" x="48.1269" y="426.127" width="661.746" height="65.7463" filterUnits="userSpaceOnUse" color-interpolation-filters="sRGB">
<feFlood flood-opacity="0" result="BackgroundImageFix"/>
<feBlend mode="normal" in="SourceGraphic" in2="BackgroundImageFix" result="shape"/>
<feGaussianBlur stdDeviation="5.43656" result="effect1_foregroundBlur"/>
</filter>
<filter id="filter1_f" x="31.0284" y="394.028" width="695.943" height="114.943" filterUnits="userSpaceOnUse" color-interpolation-filters="sRGB">
<feFlood flood-opacity="0" result="BackgroundImageFix"/>
<feBlend mode="normal" in="SourceGraphic" in2="BackgroundImageFix" result="shape"/>
<feGaussianBlur stdDeviation="13.9858" result="effect1_foregroundBlur"/>
</filter>
<filter id="filter2_f" x="0.106422" y="323.106" width="757.787" height="216.787" filterUnits="userSpaceOnUse" color-interpolation-filters="sRGB">
<feFlood flood-opacity="0" result="BackgroundImageFix"/>
<feBlend mode="normal" in="SourceGraphic" in2="BackgroundImageFix" result="shape"/>
<feGaussianBlur stdDeviation="29.4468" result="effect1_foregroundBlur"/>
</filter>
<filter id="filter3_f" x="54.9441" y="398.944" width="649.112" height="120.112" filterUnits="userSpaceOnUse" color-interpolation-filters="sRGB">
<feFlood flood-opacity="0" result="BackgroundImageFix"/>
<feBlend mode="normal" in="SourceGraphic" in2="BackgroundImageFix" result="shape"/>
<feGaussianBlur stdDeviation="19.028" result="effect1_foregroundBlur"/>
</filter>
<filter id="filter4_ddf" x="239" y="427" width="280" height="135" filterUnits="userSpaceOnUse" color-interpolation-filters="sRGB">
<feFlood flood-opacity="0" result="BackgroundImageFix"/>
<feColorMatrix in="SourceAlpha" type="matrix" values="0 0 0 0 0 0 0 0 0 0 0 0 0 0 0 0 0 0 127 0"/>
<feOffset dy="26"/>
<feGaussianBlur stdDeviation="21"/>
<feColorMatrix type="matrix" values="0 0 0 0 0 0 0 0 0 0 0 0 0 0 0 0 0 0 0.17714 0"/>
<feBlend mode="normal" in2="BackgroundImageFix" result="effect1_dropShadow"/>
<feColorMatrix in="SourceAlpha" type="matrix" values="0 0 0 0 0 0 0 0 0 0 0 0 0 0 0 0 0 0 127 0"/>
<feOffset dy="12"/>
<feGaussianBlur stdDeviation="13"/>
<feColorMatrix type="matrix" values="0 0 0 0 0 0 0 0 0 0 0 0 0 0 0 0 0 0 0.024 0"/>
<feBlend mode="normal" in2="effect1_dropShadow" result="effect2_dropShadow"/>
<feBlend mode="normal" in="SourceGraphic" in2="effect2_dropShadow" result="shape"/>
<feGaussianBlur stdDeviation="20" result="effect3_foregroundBlur"/>
</filter>
<filter id="filter5_i" x="477.559" y="389" width="31.9409" height="76" filterUnits="userSpaceOnUse" color-interpolation-filters="sRGB">
<feFlood flood-opacity="0" result="BackgroundImageFix"/>
<feBlend mode="normal" in="SourceGraphic" in2="BackgroundImageFix" result="shape"/>
<feColorMatrix in="SourceAlpha" type="matrix" values="0 0 0 0 0 0 0 0 0 0 0 0 0 0 0 0 0 0 127 0" result="hardAlpha"/>
<feOffset/>
<feGaussianBlur stdDeviation="1.5"/>
<feComposite in2="hardAlpha" operator="arithmetic" k2="-1" k3="1"/>
<feColorMatrix type="matrix" values="0 0 0 0 0 0 0 0 0 0 0 0 0 0 0 0 0 0 0.02 0"/>
<feBlend mode="normal" in2="shape" result="effect1_innerShadow"/>
</filter>
<filter id="filter6_i" x="248.5" y="389" width="31.9409" height="76" filterUnits="userSpaceOnUse" color-interpolation-filters="sRGB">
<feFlood flood-opacity="0" result="BackgroundImageFix"/>
<feBlend mode="normal" in="SourceGraphic" in2="BackgroundImageFix" result="shape"/>
<feColorMatrix in="SourceAlpha" type="matrix" values="0 0 0 0 0 0 0 0 0 0 0 0 0 0 0 0 0 0 127 0" result="hardAlpha"/>
<feOffset/>
<feGaussianBlur stdDeviation="1.5"/>
<feComposite in2="hardAlpha" operator="arithmetic" k2="-1" k3="1"/>
<feColorMatrix type="matrix" values="0 0 0 0 0 0 0 0 0 0 0 0 0 0 0 0 0 0 0.02 0"/>
<feBlend mode="normal" in2="shape" result="effect1_innerShadow"/>
</filter>
<filter id="filter7_d" x="265" y="443" width="228" height="47" filterUnits="userSpaceOnUse" color-interpolation-filters="sRGB">
<feFlood flood-opacity="0" result="BackgroundImageFix"/>
<feColorMatrix in="SourceAlpha" type="matrix" values="0 0 0 0 0 0 0 0 0 0 0 0 0 0 0 0 0 0 127 0"/>
<feOffset dy="2"/>
<feColorMatrix type="matrix" values="0 0 0 0 0 0 0 0 0 0 0 0 0 0 0 0 0 0 0.05 0"/>
<feBlend mode="normal" in2="BackgroundImageFix" result="effect1_dropShadow"/>
<feBlend mode="normal" in="SourceGraphic" in2="effect1_dropShadow" result="shape"/>
</filter>
<filter id="filter8_d" x="261" y="125" width="139" height="122" filterUnits="userSpaceOnUse" color-interpolation-filters="sRGB">
<feFlood flood-opacity="0" result="BackgroundImageFix"/>
<feColorMatrix in="SourceAlpha" type="matrix" values="0 0 0 0 0 0 0 0 0 0 0 0 0 0 0 0 0 0 127 0"/>
<feOffset dy="16"/>
<feGaussianBlur stdDeviation="12"/>
<feColorMatrix type="matrix" values="0 0 0 0 0 0 0 0 0 0 0 0 0 0 0 0 0 0 0.04 0"/>
<feBlend mode="normal" in2="BackgroundImageFix" result="effect1_dropShadow"/>
<feBlend mode="normal" in="SourceGraphic" in2="effect1_dropShadow" result="shape"/>
</filter>
<filter id="filter9_d" x="298" y="190" width="66.3848" height="66.3848" filterUnits="userSpaceOnUse" color-interpolation-filters="sRGB">
<feFlood flood-opacity="0" result="BackgroundImageFix"/>
<feColorMatrix in="SourceAlpha" type="matrix" values="0 0 0 0 0 0 0 0 0 0 0 0 0 0 0 0 0 0 127 0"/>
<feOffset dy="16"/>
<feGaussianBlur stdDeviation="12"/>
<feColorMatrix type="matrix" values="0 0 0 0 0 0 0 0 0 0 0 0 0 0 0 0 0 0 0.04 0"/>
<feBlend mode="normal" in2="BackgroundImageFix" result="effect1_dropShadow"/>
<feBlend mode="normal" in="SourceGraphic" in2="effect1_dropShadow" result="shape"/>
</filter>
<filter id="filter10_d" x="23" y="42" width="176" height="112" filterUnits="userSpaceOnUse" color-interpolation-filters="sRGB">
<feFlood flood-opacity="0" result="BackgroundImageFix"/>
<feColorMatrix in="SourceAlpha" type="matrix" values="0 0 0 0 0 0 0 0 0 0 0 0 0 0 0 0 0 0 127 0"/>
<feOffset dy="16"/>
<feGaussianBlur stdDeviation="12"/>
<feColorMatrix type="matrix" values="0 0 0 0 0 0 0 0 0 0 0 0 0 0 0 0 0 0 0.04 0"/>
<feBlend mode="normal" in2="BackgroundImageFix" result="effect1_dropShadow"/>
<feBlend mode="normal" in="SourceGraphic" in2="effect1_dropShadow" result="shape"/>
</filter>
<linearGradient id="paint0_linear" x1="508.973" y1="389" x2="508.973" y2="462.508" gradientUnits="userSpaceOnUse">
<stop stop-color="#82888F"/>
<stop offset="0.410635" stop-color="#A4AEB7"/>
<stop offset="1" stop-color="#C2C6CE"/>
</linearGradient>
<linearGradient id="paint1_linear" x1="495.989" y1="422.262" x2="516.512" y2="427.721" gradientUnits="userSpaceOnUse">
<stop stop-opacity="0.01"/>
<stop offset="1" stop-opacity="0.135502"/>
</linearGradient>
<linearGradient id="paint2_linear" x1="518" y1="391" x2="518" y2="423" gradientUnits="userSpaceOnUse">
<stop/>
<stop offset="1" stop-opacity="0.01"/>
</linearGradient>
<linearGradient id="paint3_linear" x1="249.027" y1="389" x2="249.027" y2="462.508" gradientUnits="userSpaceOnUse">
<stop stop-color="#82888F"/>
<stop offset="0.410635" stop-color="#A4AEB7"/>
<stop offset="1" stop-color="#C2C6CE"/>
</linearGradient>
<linearGradient id="paint4_linear" x1="262.011" y1="422.262" x2="241.488" y2="427.721" gradientUnits="userSpaceOnUse">
<stop stop-opacity="0.01"/>
<stop offset="1" stop-opacity="0.135502"/>
</linearGradient>
<linearGradient id="paint5_linear" x1="240" y1="391" x2="240" y2="423" gradientUnits="userSpaceOnUse">
<stop/>
<stop offset="1" stop-opacity="0.01"/>
</linearGradient>
<linearGradient id="paint6_linear" x1="265" y1="443" x2="265" y2="488" gradientUnits="userSpaceOnUse">
<stop stop-color="#B7BABD"/>
<stop offset="0.544213" stop-color="#D4D9DD"/>
<stop offset="1" stop-color="#F7F9FB"/>
</linearGradient>
</defs>
</svg>
