<svg width="239" height="154" viewBox="0 0 239 154" fill="none" xmlns="http://www.w3.org/2000/svg">
<path opacity="0.5" fill-rule="evenodd" clip-rule="evenodd" d="M129.661 17.6395C123.812 14.2518 114.373 14.2518 108.571 17.6338L4.34028 78.4031C-1.47416 81.7908 -1.44191 87.2778 4.40857 90.6655L109.323 151.437C115.16 154.817 124.6 154.817 130.412 151.429L234.645 90.6579C240.444 87.2778 240.414 81.7908 234.577 78.4088L129.661 17.6395Z" fill="url(#paint0_linear)"/>
<path opacity="0.5" fill-rule="evenodd" clip-rule="evenodd" d="M129.661 2.54149C123.812 -0.846212 114.373 -0.846212 108.571 2.53578L4.34028 63.3051C-1.47416 66.6928 -1.44191 72.1797 4.40857 75.5674L109.323 136.339C115.16 139.719 124.6 139.719 130.412 136.331L234.645 75.5598C240.444 72.1797 240.414 66.6928 234.577 63.3108L129.661 2.54149Z" fill="url(#paint1_linear)"/>
<path opacity="0.89" d="M72.658 97.8916L28.4174 72.2051C27.7493 71.8172 27.7547 70.8504 28.4271 70.4699L117.123 20.2839C117.742 19.934 118.499 19.9385 119.113 20.2956L163.498 46.1008C164.165 46.4883 164.161 47.4523 163.491 47.8341L75.6499 97.9035C74.7216 98.4327 73.582 98.4281 72.658 97.8916Z" fill="url(#paint2_linear)"/>
<path d="M71.7493 85.1726L27.5087 59.4861C26.8406 59.0982 26.846 58.1314 27.5184 57.7509L116.215 7.56492C116.833 7.21504 117.591 7.21948 118.205 7.57659L162.59 33.3818C163.256 33.7693 163.252 34.7333 162.582 35.1151L74.7412 85.1846C73.813 85.7137 72.6733 85.7091 71.7493 85.1726Z" fill="url(#paint3_linear)"/>
<path d="M144.856 37.2373L109.787 17.1679C109.094 16.771 109.123 15.761 109.838 15.4048L111.702 14.4767C112.301 14.1789 113.008 14.1995 113.588 14.5317L149.035 34.8402C149.711 35.2278 149.704 36.2062 149.021 36.5832L147.797 37.2595C146.88 37.766 145.765 37.7576 144.856 37.2373Z" fill="#D3DBE4"/>
<path d="M137.588 41.7798L102.519 21.7104C101.826 21.3135 101.855 20.3035 102.57 19.9473L104.434 19.0192C105.033 18.7214 105.74 18.742 106.32 19.0742L141.767 39.3827C142.443 39.7703 142.436 40.7487 141.753 41.1257L140.529 41.8019C139.612 42.3085 138.497 42.3 137.588 41.7798Z" fill="#D3DBE4"/>
<path d="M76.5351 75.0655L43.2612 54.696V51.9706L45.7066 52.7857C45.8262 52.8255 45.9366 52.8875 46.0323 52.9676L58.098 45.4421C58.7437 45.0393 59.5622 45.0379 60.2092 45.4386L89.8394 63.7845L89.876 63.4923C89.9445 62.9442 90.4443 62.5555 90.9923 62.624L92.758 62.8447C93.2584 62.9073 93.634 63.3327 93.634 63.837V66.134L79.7178 75.0342C78.7503 75.653 77.5145 75.6651 76.5351 75.0655Z" fill="#263263"/>
<path d="M113.959 37.2141L95.2243 26.2575C94.5381 25.8562 94.5719 24.8534 95.2835 24.4991L97.1549 23.5674C97.7594 23.2664 98.475 23.2908 99.0576 23.6323L118.172 34.8353C118.841 35.2273 118.829 36.1985 118.15 36.5734L116.924 37.2505C115.999 37.7618 114.872 37.748 113.959 37.2141Z" fill="#D3DBE4"/>
<path d="M100.332 52.6585L81.5969 41.7019C80.9107 41.3006 80.9444 40.2978 81.656 39.9435L83.5275 39.0117C84.132 38.7107 84.8476 38.7351 85.4302 39.0766L104.545 50.2796C105.214 50.6717 105.201 51.6428 104.523 52.0177L103.297 52.6948C102.371 53.2062 101.245 53.1924 100.332 52.6585Z" fill="#D3DBE4"/>
<path d="M106.691 48.116L87.9563 37.1594C87.2701 36.7581 87.3038 35.7553 88.0154 35.401L89.8868 34.4692C90.4913 34.1682 91.2069 34.1926 91.7895 34.5341L110.904 45.7372C111.573 46.1292 111.561 47.1003 110.882 47.4752L109.656 48.1523C108.73 48.6637 107.604 48.6499 106.691 48.116Z" fill="#2D3F89"/>
<path d="M76.5579 72.3792L43.7854 52.8411C43.1368 52.4544 43.1344 51.5159 43.781 51.1259L57.9719 42.5668C58.6047 42.1852 59.3963 42.1835 60.0307 42.5625L92.9902 62.255C93.631 62.6378 93.6417 63.5623 93.01 63.9598L79.692 72.3414C78.7375 72.9421 77.5266 72.9567 76.5579 72.3792Z" fill="#2D3F89"/>
<path opacity="0.12" d="M76.8652 64.2813L54.8499 51.3939C54.1641 50.9924 54.1979 49.9902 54.909 49.6358L57.4579 48.3656C58.0628 48.0641 58.7791 48.0885 59.362 48.4305L81.7212 61.5479C82.3896 61.94 82.3773 62.9105 81.6991 63.2855L79.8324 64.3177C78.9062 64.8298 77.7786 64.816 76.8652 64.2813Z" fill="white"/>
<path opacity="0.3" d="M76.5568 62.3851L43.7854 42.8476C43.1368 42.4609 43.1344 41.5224 43.781 41.1324L57.4719 32.875C58.1047 32.4933 58.8963 32.4917 59.5307 32.8707L92.4912 52.5637C93.1317 52.9464 93.1427 53.8704 92.5114 54.2682L79.6925 62.3464C78.7378 62.948 77.5261 62.963 76.5568 62.3851Z" fill="#2D3F89"/>
<path opacity="0.3" d="M76.5568 50.1302L43.7854 30.5928C43.1368 30.2061 43.1344 29.2675 43.781 28.8775L57.4719 20.6201C58.1047 20.2384 58.8963 20.2368 59.5307 20.6158L92.4912 40.3088C93.1317 40.6915 93.1427 41.6155 92.5114 42.0133L79.6925 50.0915C78.7378 50.6931 77.5261 50.7081 76.5568 50.1302Z" fill="#2D3F89"/>
<path fill-rule="evenodd" clip-rule="evenodd" d="M179.124 26L187.194 30.6554L179.071 35.3099L171.001 30.6544L179.124 26Z" fill="#EA6565"/>
<path fill-rule="evenodd" clip-rule="evenodd" d="M171 30.6548L171.119 61.546L179.189 66.2004L179.07 35.3102L171 30.6548Z" fill="#CD4C4A"/>
<path fill-rule="evenodd" clip-rule="evenodd" d="M179.071 35.3101L179.189 66.2002L187.312 61.5458L187.194 30.6556L179.071 35.3101Z" fill="#DC272B"/>
<path fill-rule="evenodd" clip-rule="evenodd" d="M183.259 48.826L191.329 53.4814L199.453 48.826L191.382 44.1715L183.259 48.826Z" fill="#DBE3EB"/>
<path fill-rule="evenodd" clip-rule="evenodd" d="M183.259 48.8259L183.377 68.2726L191.448 72.9281L191.329 53.4813L183.259 48.8259Z" fill="#D1D9E2"/>
<path fill-rule="evenodd" clip-rule="evenodd" d="M191.329 53.481L191.448 72.9277L199.571 68.2733L199.453 48.8265L191.329 53.481Z" fill="#F1F6FC"/>
<path fill-rule="evenodd" clip-rule="evenodd" d="M211.71 64.9611L203.589 69.6155L195.516 64.9611L203.641 60.3057L211.71 64.9611Z" fill="#DBE3EB"/>
<path fill-rule="evenodd" clip-rule="evenodd" d="M195.518 64.9607L195.636 75.0002L203.708 79.6556L203.588 69.6161L195.518 64.9607Z" fill="#D1D9E2"/>
<path fill-rule="evenodd" clip-rule="evenodd" d="M211.83 75.0011L203.707 79.6555L203.588 69.616L211.71 64.9615L211.83 75.0011Z" fill="#F1F6FC"/>
<rect width="42.5633" height="70.5973" rx="2" transform="matrix(0.866025 0.5 -0.866025 0.5 146.406 72.0485)" fill="url(#paint4_linear)"/>
<rect width="42.5633" height="70.5973" transform="matrix(0.866025 0.5 -0.866025 0.5 146.406 63)" fill="url(#paint5_linear)"/>
<path d="M161.874 83.4618L141.29 72.2873C140.571 71.8966 140.6 70.8539 141.34 70.5042L141.411 70.471C141.987 70.1986 142.659 70.2176 143.22 70.5222L164.293 81.9752C164.892 82.3008 164.886 83.163 164.282 83.4794C163.526 83.8752 162.624 83.8686 161.874 83.4618Z" fill="#DC272B"/>
<path d="M157.664 86.4082L136.198 74.3848C135.494 73.9904 135.523 72.967 136.249 72.6134L136.467 72.5071C137.056 72.2198 137.749 72.2398 138.321 72.5605L160.26 84.8627C160.874 85.2069 160.867 86.0928 160.248 86.4275C159.44 86.8642 158.465 86.857 157.664 86.4082Z" fill="#DC272B"/>
<path d="M142.719 83.399L132.151 77.3548C131.454 76.956 131.487 75.9393 132.21 75.5877L132.332 75.5278C132.928 75.238 133.628 75.2615 134.203 75.5908L145.251 81.9233C145.837 82.2593 145.827 83.1083 145.232 83.4295C144.446 83.8544 143.495 83.8429 142.719 83.399Z" fill="#DC272B"/>
<path d="M121.535 111.687L113.664 107.019C113.122 106.698 113.149 105.904 113.711 105.62C114.198 105.374 114.777 105.394 115.246 105.673L123.504 110.581C123.936 110.838 123.928 111.466 123.49 111.711C122.881 112.053 122.136 112.044 121.535 111.687Z" fill="#DC272B"/>
<path d="M134.676 93.4525L124.107 87.4083C123.41 87.0095 123.444 85.9928 124.166 85.6411L124.289 85.5813C124.884 85.2914 125.585 85.315 126.159 85.6443L137.208 91.9768C137.794 92.3127 137.783 93.1618 137.189 93.4829C136.402 93.9078 135.452 93.8963 134.676 93.4525Z" fill="#D3DBE4"/>
<path d="M114.568 98.4794L104 92.4352C103.303 92.0364 103.336 91.0197 104.059 90.668L104.182 90.6081C104.777 90.3183 105.477 90.3419 106.052 90.6711L117.1 97.0036C117.686 97.3396 117.676 98.1887 117.081 98.5098C116.295 98.9347 115.344 98.9232 114.568 98.4794Z" fill="#D3DBE4"/>
<path d="M138.537 90.4803L127.251 84.4056C126.524 84.0142 126.558 82.9599 127.308 82.6159L127.524 82.5169C128.095 82.2555 128.755 82.2769 129.307 82.5748L141.06 88.9149C141.699 89.2597 141.688 90.1805 141.041 90.5096C140.252 90.9108 139.316 90.8998 138.537 90.4803Z" fill="#2D3F89"/>
<path d="M121.445 95.5073L110.16 89.4325C109.433 89.0411 109.466 87.9869 110.217 87.6429L110.433 87.5439C111.004 87.2825 111.664 87.3039 112.216 87.6018L123.969 93.9418C124.608 94.2866 124.597 95.2074 123.949 95.5366C123.16 95.9378 122.225 95.9268 121.445 95.5073Z" fill="#2D3F89"/>
<defs>
<linearGradient id="paint0_linear" x1="396.254" y1="91.0062" x2="302.399" y2="-95.6889" gradientUnits="userSpaceOnUse">
<stop stop-color="white"/>
<stop offset="0.979407" stop-color="#E2E8EF"/>
</linearGradient>
<linearGradient id="paint1_linear" x1="396.254" y1="75.9081" x2="302.399" y2="-110.787" gradientUnits="userSpaceOnUse">
<stop stop-color="white"/>
<stop offset="0.979407" stop-color="#E2E8EF"/>
</linearGradient>
<linearGradient id="paint2_linear" x1="253.579" y1="-77.9444" x2="58.7061" y2="111.477" gradientUnits="userSpaceOnUse">
<stop stop-color="white"/>
<stop offset="1" stop-color="#D1D8DE"/>
</linearGradient>
<linearGradient id="paint3_linear" x1="125.5" y1="10" x2="46.4412" y2="116.474" gradientUnits="userSpaceOnUse">
<stop stop-color="white"/>
<stop offset="1" stop-color="#DAE1E8"/>
</linearGradient>
<linearGradient id="paint4_linear" x1="62.535" y1="-3.52017" x2="-8.59171" y2="14.4816" gradientUnits="userSpaceOnUse">
<stop stop-color="white"/>
<stop offset="1" stop-color="#DAE1E8"/>
</linearGradient>
<linearGradient id="paint5_linear" x1="34.4121" y1="11.6405" x2="-21.8247" y2="10.7308" gradientUnits="userSpaceOnUse">
<stop stop-color="white"/>
<stop offset="1" stop-color="#DAE1E8"/>
</linearGradient>
</defs>
</svg>
