<svg width="535" height="143" viewBox="0 0 535 143" fill="none" xmlns="http://www.w3.org/2000/svg">
<g clip-path="url(#clip0_21_1212)">
<path d="M36.82 0C32.32 0 18.61 0 9.28001 8.08C4.66001 12.07 2.31001 18.72 3.15001 25.42C3.94001 31.71 7.33001 36.79 12.45 39.36C23.77 45.02 30.08 48.32 34.76 50.79C40.58 53.87 42.87 57.65 41.75 62.35C40.42 67.95 37.61 70.73 25.95 70.46C19.61 70.31 13.14 69.92 8.84001 69.62C4.64001 69.32 0.95001 72.37 0.44001 76.55L0.0100098 80.12L0.57001 80.15C0.74001 80.15 17.91 80.99 24.25 81.27C25.11 81.31 26.06 81.33 27.08 81.33C34.46 81.33 45.4 80.07 52.27 73.49C56.44 69.5 58.56 64.05 58.56 57.31C58.56 44.11 47 39.16 36.79 34.8C27.9 31 19.5 27.41 19.5 19.1C19.51 18.78 19.9 11.23 29.44 11.23C35.71 11.23 45.58 11.7 52.76 12.1C56.82 12.32 60.36 9.46 60.99 5.45L61.57 1.74L61.02 1.69C60.24 1.62 41.83 0.02 36.84 0.02L36.82 0Z" fill="#DC1218"/>
<path d="M116.43 26.67C112.83 22.3 106.1 20.08 96.43 20.08C84.47 20.08 77 21.13 71.76 26.68C66.31 32.45 63.48 43.13 62.29 62.38C62.16 63 60.99 69.1 65.12 74.27C68.84 78.94 75.62 81.31 85.26 81.31C90.87 81.31 96.59 80.9 102.25 80.08C107.19 79.37 111.14 75.42 111.86 70.48L111.95 69.83L111.29 69.89C111.14 69.9 95.91 71.28 90.01 71.14C89.67 71.14 89.32 71.13 88.97 71.12C85.68 71.08 81.94 71.03 79.68 68.3C77.55 65.74 77.06 61.25 78.16 54.59H118.09L118.13 54.12C118.18 53.54 119.39 39.96 119.39 36.22C119.39 34.44 119.39 30.29 116.41 26.67H116.43ZM97.02 30.11C98.04 30.15 99 30.19 99.92 30.19C101.22 30.19 102.23 30.65 103.01 31.59C105.72 34.86 104.67 42.72 104.36 44.63H79.82C80.83 29.44 89.42 29.79 97.01 30.1L97.02 30.11Z" fill="#DC1218"/>
<path d="M337.46 20.08C325.5 20.08 318.03 21.13 312.79 26.68C307.34 32.45 304.51 43.13 303.32 62.38C303.19 63 302.02 69.1 306.15 74.27C309.87 78.94 316.65 81.31 326.3 81.31C331.91 81.31 337.62 80.9 343.29 80.08C348.23 79.37 352.18 75.42 352.9 70.48L352.99 69.83L352.33 69.89C352.18 69.9 336.95 71.28 331.04 71.14C330.7 71.14 330.35 71.13 330 71.12C326.71 71.08 322.98 71.03 320.71 68.3C318.58 65.74 318.09 61.25 319.19 54.6H359.13L359.17 54.13C359.22 53.55 360.43 39.97 360.43 36.23C360.43 34.45 360.43 30.3 357.45 26.68C353.85 22.31 347.12 20.09 337.45 20.09L337.46 20.08ZM338.05 30.11C339.07 30.15 340.03 30.19 340.95 30.19C342.25 30.19 343.26 30.65 344.04 31.59C346.75 34.86 345.7 42.72 345.39 44.63H320.85C321.86 29.43 330.45 29.79 338.05 30.1V30.11Z" fill="#DC1218"/>
<path d="M258.93 24.59C256.15 21.6 252.28 20.08 247.43 20.08C247.1 20.08 239.35 20.13 228.36 24.78L227.17 21.09L215.31 20.04L214.45 26.32C212.93 23.9 209.42 20.09 202.48 20.09C193.79 20.09 178.48 24.42 175.9 25.17C174.99 24 171.33 20.09 163.42 20.09C157.2 20.09 143.71 24.53 140.78 25.51L139.84 21.49L127.26 21.34L119.02 80H135L141.15 34.98C143.39 34.44 155.86 31.45 158.96 31.45C160.69 31.45 161.84 31.8 162.48 32.52C163.04 33.16 163.22 34.12 163.05 35.46C162.64 38.63 157.11 78.99 157.05 79.4L156.97 79.99H173.09L178.82 34.02C181.06 33.64 192.59 31.72 197.05 31.72C198.35 31.72 199.27 32.07 199.79 32.76C200.71 33.98 200.18 35.92 200.18 35.94L193.8 79.99H207.11L204.01 102.59H212.6C216.49 102.59 219.84 99.69 220.38 95.83L222.62 80.05C224.93 80.32 234.26 81.39 237.24 81.39C237.42 81.39 237.67 81.4 237.96 81.42C240.48 81.54 247.16 81.87 253.03 76.35C259.89 69.89 263.48 57.67 263.71 40.02C263.75 39.44 264.28 30.35 258.92 24.59H258.93ZM248.03 43.72C247.54 50.47 246.06 70.99 236.07 70.72C228.34 70.5 225 69.58 224.01 69.23L228.79 35.33C230.34 34.68 238.27 31.44 242.41 31.44C244.16 31.44 245.39 31.89 246.29 32.85C247.89 34.57 248.45 38.03 248.03 43.72Z" fill="#DC1218"/>
<path d="M305.49 31.45L305.95 31.47L307.8 20.07L307.17 20.09C307.06 20.09 295.99 20.42 285.22 25.25L285.09 21.25L271.58 20.05L263.06 80H272.03C275.95 80 279.31 77.07 279.85 73.19L285.06 35.51C287.11 34.86 298.89 31.19 305.5 31.45H305.49Z" fill="#DC1218"/>
<path d="M530.94 38.13C528.17 33.35 524.03 30.83 518.96 30.83C511.42 30.83 497.58 37.11 489.1 42.93C489.04 42.97 487.65 43.89 488.04 45.55C488.22 46.33 488.73 46.96 489.44 47.27C490.14 47.58 490.93 47.54 491.62 47.15C492.07 46.92 509.19 38.79 519.48 38.79C523.65 38.79 524.28 45.2 524.05 54C523.79 63.77 520.83 73.87 516.31 73.87C511.19 73.87 491.71 63.36 471.09 52.24C441.91 36.5 408.84 18.66 396.2 18.66C389.51 18.66 384.01 22.23 380.28 28.98C376.81 35.26 374.98 44.31 375.26 53.82C375.53 63.05 377.68 71.52 381.16 77.05C383.91 81.41 387.36 83.7 391.16 83.7C391.35 83.7 391.53 83.7 391.72 83.68C407.84 82.74 443.67 66.66 445.5 65.83C446.42 65.51 447.03 64.65 447.03 63.68C447.03 62.42 446.01 61.4 444.75 61.4C444.41 61.4 442.13 61.99 435.17 63.81C422.75 67.07 401.96 73.57 398.18 73.57C395.08 73.57 392.64 71.56 390.92 67.58C389.41 64.08 388.57 58.14 388.57 52.75C388.57 42.64 391.6 31.73 396.51 31.73C405.11 31.73 427.41 43.23 451.03 55.4C477.75 69.17 505.39 83.42 517.63 83.42C522.57 83.42 527.03 80.08 530.19 74.02C533 68.63 534.62 61.47 534.62 54.36C534.62 48.01 533.31 42.25 530.92 38.13H530.94Z" fill="#DC1218"/>
<path d="M274.81 98.84C275.39 98.7 275.63 98.94 275.48 99.51L274.42 106.23H280.17C280.7 106.23 280.89 106.47 280.84 106.95L280.31 109.97C280.26 110.5 279.97 110.74 279.45 110.74H273.7L271.4 125.38C271.06 127.49 271.64 127.92 273.99 127.92H276.1C276.63 127.92 276.87 128.16 276.82 128.59L276.34 131.76C276.2 132.24 275.91 132.53 275.43 132.62C274.18 132.86 273.03 132.96 271.97 132.96C268.23 133.01 264.39 132.82 265.3 127.11L267.89 110.75H264.15C263.67 110.75 263.43 110.51 263.48 109.98L263.96 106.96C264.01 106.48 264.3 106.24 264.82 106.24H268.6L269.46 100.72C269.56 100.29 269.8 100.05 270.23 99.95L274.79 98.85L274.81 98.84Z" fill="#868686"/>
<path d="M303.68 108.53C304.88 110.26 305.12 113.71 304.3 118.94L304.06 120.38C303.92 121.34 303.58 121.68 302.24 121.68H287.08C286.74 124.22 286.94 125.9 287.56 126.72C288.18 127.54 289.67 127.92 292.02 127.92H300.18C300.66 127.92 300.85 128.16 300.8 128.64L300.32 131.62C300.27 132.05 300.03 132.34 299.5 132.44C297.15 132.78 294.27 132.97 290.86 132.97C281.55 132.97 279.82 130.28 281.5 119.49C282.36 114.07 283.71 110.42 285.48 108.65C287.26 106.87 290.47 105.96 295.13 105.96C299.79 105.96 302.47 106.82 303.67 108.55L303.68 108.53ZM289.72 112.32C288.81 113.18 288.14 114.91 287.7 117.5H298.69C299.07 114.91 298.98 113.18 298.4 112.32C297.82 111.41 296.48 110.98 294.37 110.98C292.26 110.98 290.63 111.41 289.72 112.32Z" fill="#868686"/>
<path d="M329.62 106.47C330.1 106.57 330.29 106.85 330.2 107.33L329.72 110.26C329.67 110.74 329.38 110.98 328.86 110.98H321.33C318.84 110.98 317.16 111.51 316.29 112.61C315.43 113.67 314.71 115.92 314.13 119.42C313.51 122.83 313.51 125.08 314.03 126.23C314.61 127.33 316.14 127.91 318.64 127.91H326.17C326.7 127.91 326.89 128.15 326.84 128.63L326.36 131.56C326.26 132.04 325.98 132.33 325.45 132.42C323.39 132.76 320.84 132.95 317.82 132.95C313.02 132.95 310 132.09 308.8 130.31C307.6 128.53 307.46 124.94 308.32 119.42C309.18 113.95 310.48 110.35 312.25 108.58C314.03 106.8 317.34 105.94 322.13 105.94C325.15 105.94 327.65 106.13 329.62 106.47Z" fill="#868686"/>
<path d="M350.43 106.08C352.49 106.27 354.36 106.85 355.18 107.86C356.62 109.54 356.81 112.28 356.04 117.31L353.74 131.99C353.64 132.47 353.36 132.71 352.83 132.71H348.51C348.08 132.71 347.84 132.47 347.89 131.99L350.1 118.36C350.53 115.43 350.53 113.8 350.29 112.7C350.19 112.17 349.91 111.79 349.43 111.55C348.47 111.02 347.75 110.97 345.64 110.97H340.12L336.81 131.99C336.71 132.47 336.43 132.71 335.95 132.71H331.54C331.11 132.71 330.92 132.47 330.96 131.99L334.85 107.47C334.95 106.85 335.19 106.8 335.67 106.7C338.26 106.17 341.91 105.93 346.56 105.93C348.14 105.93 349.44 105.98 350.45 106.07L350.43 106.08Z" fill="#868686"/>
<path d="M382.8 107.57C385.25 109.49 385.3 112.9 384.34 119.47C383.52 124.89 382.18 128.54 380.36 130.31C378.58 132.09 375.27 132.95 370.52 132.95C360.97 132.95 359.24 130.22 360.97 119.47C361.83 114 363.18 110.4 364.95 108.63C366.77 106.85 370.08 105.94 374.84 105.94C378.82 105.94 381.13 106.42 382.81 107.57H382.8ZM366.72 126.24C367.3 127.34 368.83 127.92 371.33 127.92C373.83 127.92 375.5 127.39 376.37 126.34C377.23 125.24 377.95 122.98 378.53 119.48C379.15 116.07 379.15 113.82 378.58 112.71C378.05 111.56 376.52 110.98 374.02 110.98C371.52 110.98 369.85 111.51 368.98 112.61C368.12 113.67 367.4 115.97 366.82 119.47C366.2 122.88 366.2 125.13 366.72 126.24Z" fill="#868686"/>
<path d="M398.52 96.01C398.95 96.01 399.19 96.25 399.14 96.73L393.53 132C393.48 132.48 393.19 132.72 392.71 132.72H388.34C387.91 132.72 387.67 132.48 387.72 132L393.33 96.73C393.38 96.25 393.67 96.01 394.15 96.01H398.52Z" fill="#868686"/>
<path d="M422.78 107.57C425.23 109.49 425.28 112.9 424.32 119.47C423.5 124.89 422.16 128.54 420.34 130.31C418.56 132.09 415.25 132.95 410.5 132.95C400.95 132.95 399.22 130.22 400.95 119.47C401.81 114 403.16 110.4 404.93 108.63C406.75 106.85 410.06 105.94 414.82 105.94C418.8 105.94 421.11 106.42 422.79 107.57H422.78ZM406.7 126.24C407.28 127.34 408.81 127.92 411.31 127.92C413.81 127.92 415.48 127.39 416.35 126.34C417.21 125.24 417.93 122.98 418.51 119.48C419.13 116.07 419.13 113.82 418.56 112.71C418.03 111.56 416.5 110.98 414 110.98C411.5 110.98 409.83 111.51 408.96 112.61C408.1 113.67 407.38 115.97 406.8 119.47C406.18 122.88 406.18 125.13 406.7 126.24Z" fill="#868686"/>
<path d="M452.95 106.8C453.57 106.85 453.81 107.18 453.72 107.76L450.03 131.18C449.31 135.64 448.54 138.04 446.57 139.96C444.65 141.88 441.68 142.55 436.83 142.55C433.95 142.55 431.36 142.36 429.01 142.02C428.58 141.92 428.39 141.68 428.48 141.25L428.96 138.42C429.01 137.94 429.25 137.7 429.73 137.7H437.22C439.62 137.7 441.25 137.36 442.16 136.64C443.07 135.97 443.65 134.67 443.98 132.75V132.51C442.16 132.8 440.09 132.94 437.79 132.94C433.38 132.94 430.59 132.03 429.39 130.16C428.24 128.29 428.09 124.64 428.96 119.22C429.78 113.89 431.12 110.39 432.94 108.62C434.81 106.84 438.12 105.93 442.92 105.93C446.85 105.93 450.21 106.22 452.95 106.79V106.8ZM447.38 110.97H441.91C439.37 110.97 437.69 111.5 436.82 112.6C435.96 113.7 435.24 115.96 434.71 119.41C434.09 122.82 434.09 125.12 434.66 126.22C435.24 127.32 436.87 127.85 439.51 127.85C441.67 127.85 443.4 127.75 444.74 127.56L447.38 110.96V110.97Z" fill="#868686"/>
<path d="M465.26 106.18C465.74 106.18 465.93 106.42 465.84 106.9L461.86 132C461.81 132.48 461.52 132.72 461.04 132.72H456.67C456.24 132.72 456 132.48 456.05 132L460.03 106.9C460.13 106.42 460.41 106.18 460.89 106.18H465.26ZM467.76 98.6C467.42 100.81 466.08 101.91 463.78 101.91C461.48 101.91 460.47 100.71 460.8 98.6C461.14 96.39 462.48 95.29 464.83 95.29C466.99 95.29 468.09 96.49 467.76 98.6Z" fill="#868686"/>
<path d="M491.35 113.81L488.66 130.51C488.61 131.23 488.23 131.66 487.51 131.9C484.92 132.62 481.27 132.96 476.52 132.96C469.8 132.96 466.59 131.9 467.64 124.95C468.12 122.02 469.18 120.06 470.81 118.95C472.49 117.85 474.89 117.32 478.01 117.32H484.97L485.35 114.83C485.73 112.14 484.39 110.99 480.55 110.99H472.63C472.1 110.99 472.01 110.85 472.05 110.22L472.53 107.34C472.58 106.91 472.87 106.67 473.3 106.57C475.65 106.14 478.34 105.95 481.36 105.95C489.57 105.95 492.16 108.45 491.34 113.82L491.35 113.81ZM484.3 121.49H477.68C475.04 121.49 473.84 122.35 473.46 124.7C473.03 127.39 474.13 128.11 477.78 128.11C480.08 128.11 481.95 127.92 483.35 127.58L484.31 121.49H484.3Z" fill="#868686"/>
</g>
<defs>
<clipPath id="clip0_21_1212">
<rect width="534.64" height="142.55" fill="white"/>
</clipPath>
</defs>
</svg>
