<svg width="111" height="20" viewBox="0 0 111 20" fill="none" xmlns="http://www.w3.org/2000/svg">
<path d="M108.1 0.766667C108.633 0.766667 109.133 1 109.466 1.4C109.8 1.8 109.966 2.33333 109.866 2.86667L107.533 17.7333C107.4 18.6333 106.633 19.2667 105.733 19.2667H76.6662C75.8996 19.2667 75.2329 18.8 74.9329 18.1L71.7996 10.7333C71.6329 10.3333 71.6662 9.86667 71.8996 9.53333L77.0662 1.66667C77.4329 1.13333 77.9996 0.8 78.6662 0.8H108.1V0.766667ZM108.1 0H78.6996C77.7996 0 76.9662 0.466667 76.4662 1.2L71.2996 9.06667C70.9329 9.63333 70.8662 10.3667 71.1329 11L74.2662 18.3667C74.6662 19.3667 75.6329 20 76.7329 20H105.8C107.066 20 108.133 19.0667 108.333 17.8333L110.666 2.96667C110.866 1.4 109.666 0 108.1 0Z" fill="white"/>
<path d="M79.7998 14.7334L81.0665 5.8334C81.7998 5.76673 82.7665 5.7334 84.0331 5.7334C85.0331 5.7334 85.7331 5.9334 86.0998 6.3334C86.4665 6.7334 86.5665 7.46673 86.4331 8.46673C86.2665 9.5334 85.9665 10.2334 85.5331 10.6001C85.0998 10.9667 84.3665 11.1334 83.3665 11.1334C82.6331 11.1334 81.8998 11.1001 81.1998 11.0334L80.6998 14.7001H79.7998V14.7334ZM81.2331 10.4334H83.3331C84.0665 10.4334 84.5998 10.2667 84.9331 10.0001C85.2665 9.7334 85.4665 9.20007 85.5665 8.40007C85.6665 7.6334 85.5998 7.10007 85.3665 6.8334C85.1331 6.56673 84.6665 6.4334 83.9665 6.4334C83.1998 6.4334 82.4665 6.4334 81.7998 6.46673L81.2331 10.4334Z" fill="white"/>
<path d="M87.333 14.7334L88.5997 5.8334C89.633 5.76673 90.633 5.7334 91.533 5.7334C92.833 5.7334 93.6997 6.06673 94.1663 6.76673C94.5997 7.46673 94.6997 8.6334 94.4663 10.3334C94.333 11.2667 94.1663 12.0001 93.9663 12.6001C93.7663 13.1667 93.4997 13.6334 93.133 13.9667C92.7997 14.3001 92.3997 14.5334 91.9663 14.6667C91.533 14.8001 90.9663 14.8667 90.2997 14.8667C89.433 14.8334 88.433 14.8001 87.333 14.7334ZM89.3663 6.46673L88.2997 14.0667C89.1663 14.1001 89.833 14.1001 90.2997 14.1001C90.9997 14.1001 91.5663 14.0001 91.9663 13.7667C92.3663 13.5667 92.6997 13.1667 92.9663 12.6334C93.233 12.1001 93.433 11.3001 93.5663 10.2334C93.7663 8.76673 93.733 7.76673 93.4663 7.2334C93.1663 6.70007 92.533 6.4334 91.533 6.4334C91.3997 6.4334 90.6997 6.46673 89.3663 6.46673Z" fill="white"/>
<path d="M103.3 5.83337L99.2331 14.5C99.1664 14.6667 99.0664 14.7334 98.8997 14.7334H97.9997C97.8331 14.7334 97.7331 14.6334 97.6997 14.4667L96.0664 5.83337H96.9331L98.1997 13.1334C98.1997 13.2 98.2331 13.3 98.2664 13.4334C98.2997 13.5667 98.2997 13.7 98.3331 13.8C98.3664 13.9 98.3664 14 98.3664 14.1H98.6997C98.8664 13.7334 98.9997 13.3667 99.1331 13.0667L102.433 5.83337H103.3Z" fill="white"/>
<path d="M73.3661 10.9C73.7712 10.9 74.0995 10.5717 74.0995 10.1667C74.0995 9.76167 73.7712 9.43335 73.3661 9.43335C72.9611 9.43335 72.6328 9.76167 72.6328 10.1667C72.6328 10.5717 72.9611 10.9 73.3661 10.9Z" fill="white"/>
<path d="M6.2 9.8L3.56667 8.73333C2.56667 8.33333 1.9 7.8 1.53333 7.13333C1.2 6.46667 1.06667 5.66667 1.2 4.66667C1.4 3.2 1.9 2.23333 2.73333 1.73333C3.56667 1.23333 4.83333 1 6.56667 1C8.3 1 9.8 1.2 11.1 1.56667L10.8 3.63333C9.6 3.6 8.16667 3.56667 6.5 3.56667C5.66667 3.56667 5.13333 3.6 4.83333 3.76667C4.53333 3.9 4.33333 4.26667 4.23333 4.9C4.16667 5.36667 4.2 5.66667 4.33333 5.83333C4.46667 6 4.8 6.2 5.33333 6.4L7.83333 7.36667C8.9 7.76667 9.6 8.3 9.93333 8.9C10.2667 9.53333 10.3667 10.3667 10.2333 11.4333C10.0333 12.9333 9.53333 13.9667 8.76667 14.5C7.96667 15.0333 6.66667 15.3 4.76667 15.3C3.2 15.3 1.63333 15.1333 0 14.7667L0.333333 12.6C3.16667 12.6667 4.63333 12.7 4.66667 12.7C5.6 12.7 6.23333 12.6 6.56667 12.4333C6.9 12.2667 7.1 11.8667 7.2 11.3C7.26667 10.8333 7.2 10.5333 7.06667 10.3667C6.93333 10.1667 6.66667 9.96667 6.2 9.8Z" fill="white"/>
<path d="M20.1335 12.7L20.3335 14.5667C19.2335 15.0333 17.7668 15.2667 15.9668 15.2667C14.0668 15.2667 12.7668 14.8333 12.0668 13.9667C11.3668 13.1 11.1002 11.7333 11.3335 9.93335C11.5668 8.03335 12.1335 6.70002 12.9668 6.00002C13.8335 5.30002 15.2002 4.93335 17.0668 4.93335C18.8002 4.93335 20.0002 5.23335 20.6335 5.80002C21.2668 6.36668 21.5002 7.20002 21.3335 8.33335C21.2002 9.26668 20.8335 9.93335 20.2002 10.3333C19.5668 10.7333 18.6002 10.9667 17.2668 11.0667L14.3335 11.3C14.3335 11.9667 14.5002 12.4 14.8335 12.6C15.1335 12.8333 15.6335 12.9333 16.3335 12.9333C17.6002 12.9333 18.8668 12.8333 20.1335 12.7ZM14.5002 9.53335L16.8002 9.30002C17.3335 9.26668 17.7335 9.16668 17.9668 8.96668C18.2002 8.80002 18.3668 8.46668 18.4335 8.00002C18.4668 7.56668 18.4002 7.30002 18.1668 7.16668C17.9668 7.06668 17.5335 7.00002 16.8335 7.03335C16.0668 7.03335 15.5002 7.20002 15.2002 7.53335C14.9002 7.90002 14.6668 8.53335 14.5002 9.53335Z" fill="white"/>
<path d="M25.2665 5.20002V6.96669C25.9999 6.23336 26.6665 5.73336 27.2999 5.40002C27.9332 5.06669 28.5665 4.90002 29.2665 4.90002C29.9999 4.90002 30.5665 5.06669 30.9665 5.36669C31.3665 5.70002 31.6332 6.13336 31.6999 6.73336C32.9332 5.50002 34.1999 4.90002 35.4332 4.90002C36.3332 4.90002 36.9999 5.13336 37.4332 5.63336C37.8665 6.13336 37.9999 6.80002 37.8999 7.66669L36.8665 15H33.8999L34.8332 8.46669C34.8999 8.06669 34.8665 7.76669 34.7332 7.60002C34.5999 7.43336 34.3999 7.36669 34.0999 7.36669C33.7665 7.36669 33.3999 7.46669 33.0332 7.70002C32.6665 7.90002 32.1332 8.30002 31.4999 8.86669L30.6332 15H27.7665L28.6665 8.46669C28.7332 8.06669 28.6999 7.80002 28.5999 7.63336C28.4999 7.46669 28.2665 7.40003 27.9665 7.40003C27.6332 7.40003 27.2665 7.50002 26.8665 7.70002C26.4999 7.90002 25.9999 8.26669 25.3665 8.80002L24.4999 15H21.5332L22.9332 5.16669H25.2665V5.20002Z" fill="white"/>
<path d="M42.2335 5.20001L42.2001 7.10001C42.8001 6.50001 43.4668 6.00001 44.2001 5.60001C44.9335 5.20001 45.6668 4.96667 46.3668 4.96667C47.5335 4.96667 48.3335 5.36668 48.7668 6.20001C49.2001 7.00001 49.3001 8.40001 49.0335 10.3333C48.9001 11.2 48.7335 11.9 48.5335 12.5333C48.3335 13.1333 48.1001 13.6333 47.8335 13.9667C47.5668 14.3333 47.2335 14.6 46.8668 14.8C46.5001 15 46.1001 15.1333 45.7335 15.2C45.3668 15.2667 44.9001 15.3 44.3668 15.3C43.4001 15.3 42.4001 15.2 41.4001 15.0333C41.4001 15.6667 41.3668 16.2667 41.2668 16.9L40.9335 18.8333H37.9668L39.9001 5.20001H42.2335ZM41.7335 13.2333H43.2668C44.3001 13.2333 44.9668 13.0667 45.2668 12.7333C45.5668 12.4 45.8335 11.5667 46.0001 10.2667C46.1668 9.03334 46.2001 8.20001 46.1001 7.86667C46.0001 7.50001 45.7335 7.33334 45.2668 7.33334C44.9335 7.33334 44.4668 7.46667 43.9335 7.76667C43.4001 8.06667 42.8668 8.46667 42.3335 8.93334L41.7335 13.2333Z" fill="white"/>
<path d="M58.2335 4.93335L57.5669 7.66668H56.8335C56.4335 7.66668 55.9669 7.76668 55.5002 7.93335C55.0335 8.10002 54.3669 8.43335 53.5002 8.86668L52.6669 15.0333H49.7002L51.1002 5.20002H53.4002V7.06668C54.9002 5.63335 56.3335 4.93335 57.6335 4.93335H58.2335Z" fill="white"/>
<path d="M66.5661 12.7L66.7661 14.5667C65.6661 15.0333 64.1995 15.2667 62.3995 15.2667C60.4995 15.2667 59.1995 14.8333 58.4995 13.9667C57.7995 13.1 57.5328 11.7333 57.7661 9.93335C57.9995 8.03335 58.5661 6.70002 59.3995 6.00002C60.2661 5.30002 61.6328 4.93335 63.4995 4.93335C65.2328 4.93335 66.4328 5.23335 67.0661 5.80002C67.6995 6.36668 67.9328 7.20002 67.7661 8.33335C67.6328 9.26668 67.2661 9.93335 66.6328 10.3333C65.9995 10.7333 65.0328 10.9667 63.6995 11.0667L60.7661 11.3C60.7661 11.9667 60.9328 12.4 61.2661 12.6C61.5661 12.8333 62.0661 12.9333 62.7661 12.9333C64.0328 12.9333 65.3328 12.8333 66.5661 12.7ZM60.9328 9.53335L63.2328 9.30002C63.7661 9.26668 64.1661 9.16668 64.3995 8.96668C64.6328 8.80002 64.7995 8.46668 64.8661 8.00002C64.8995 7.56668 64.8328 7.30002 64.5995 7.16668C64.3995 7.06668 63.9661 7.00002 63.2661 7.03335C62.4995 7.03335 61.9328 7.20002 61.6328 7.53335C61.3661 7.90002 61.0995 8.53335 60.9328 9.53335Z" fill="white"/>
</svg>
