<svg width="40" height="40" viewBox="0 0 40 40" fill="none" xmlns="http://www.w3.org/2000/svg">
<rect width="40" height="40" rx="20" fill="#FFF2F3"/>
<path d="M23.125 18C23.125 19.7578 21.7188 21.125 20 21.125C18.2422 21.125 16.875 19.7578 16.875 18C16.875 16.2812 18.2422 14.875 20 14.875C21.7188 14.875 23.125 16.2812 23.125 18ZM20 19.875C21.0156 19.875 21.875 19.0547 21.875 18C21.875 16.9844 21.0156 16.125 20 16.125C18.9453 16.125 18.125 16.9844 18.125 18C18.125 19.0547 18.9453 19.875 20 19.875ZM27.5 18C27.5 21.4375 22.9297 27.4922 20.8984 30.0312C20.4297 30.6172 19.5312 30.6172 19.0625 30.0312C17.0312 27.4922 12.5 21.4375 12.5 18C12.5 13.8594 15.8203 10.5 20 10.5C24.1406 10.5 27.5 13.8594 27.5 18ZM20 11.75C16.5234 11.75 13.75 14.5625 13.75 18C13.75 18.625 13.9453 19.4453 14.375 20.5C14.8047 21.5156 15.3906 22.6094 16.0938 23.7031C17.4219 25.8516 18.9844 27.9219 20 29.1719C20.9766 27.9219 22.5391 25.8516 23.8672 23.7031C24.5703 22.6094 25.1562 21.5156 25.5859 20.5C26.0156 19.4453 26.25 18.625 26.25 18C26.25 14.5625 23.4375 11.75 20 11.75Z" fill="#FF000A"/>
</svg>
