<svg width="40" height="40" viewBox="0 0 40 40" fill="none" xmlns="http://www.w3.org/2000/svg">
<rect width="40" height="40" rx="20" fill="#FFF2F3"/>
<path d="M28.9062 23.4297C29.6875 23.7812 30.1172 24.6406 29.9219 25.4609L29.1016 29.1328C28.9062 29.9531 28.2031 30.5 27.3438 30.5C17.7734 30.5 10 22.7266 10 13.1562C10 12.2969 10.5469 11.5938 11.3672 11.4375L15.0391 10.5781C15.8594 10.3828 16.7188 10.8125 17.0703 11.5938L18.75 15.5781C19.0625 16.2812 18.8672 17.1406 18.2812 17.6484L16.6797 18.9375C17.8125 20.9688 19.5312 22.6875 21.5625 23.8203L22.8906 22.2578C23.3594 21.6328 24.2188 21.4375 24.9219 21.7109L28.9062 23.4297ZM27.8516 28.8594L28.7109 25.1875C28.7891 24.9141 28.6328 24.6797 28.3984 24.5625L24.4531 22.8828C24.2188 22.8047 23.9844 22.8438 23.8281 23.0391L22.2266 24.9922C22.0312 25.2266 21.7188 25.3047 21.4844 25.1484C18.8281 23.8594 16.6406 21.6719 15.3516 19.0547C15.1953 18.7812 15.2734 18.4688 15.5078 18.2734L17.4609 16.6719C17.6562 16.5156 17.6953 16.2812 17.6172 16.0469L15.9375 12.1016C15.8203 11.9062 15.625 11.75 15.4297 11.75C15.3906 11.75 15.3516 11.7891 15.3125 11.7891L11.6406 12.6484C11.4062 12.6875 11.25 12.8828 11.25 13.1562C11.25 22.0234 18.4766 29.2891 27.3438 29.2891C27.6172 29.2891 27.8125 29.0938 27.8516 28.8594Z" fill="#FF000A"/>
</svg>
