<svg width="81" height="81" viewBox="0 0 81 81" fill="none" xmlns="http://www.w3.org/2000/svg">
<g id="Group 11">
<g id="Group 9">
<g id="Group 8">
<path id="Oval" d="M40.5 68C55.6878 68 68 55.6878 68 40.5C68 25.3122 55.6878 13 40.5 13C25.3122 13 13 25.3122 13 40.5C13 55.6878 25.3122 68 40.5 68Z" stroke="#DC272B"/>
<path id="Oval_2" opacity="0.1" d="M40.5002 79.9166C62.2694 79.9166 79.9168 62.2691 79.9168 40.4999C79.9168 18.7307 62.2694 1.08325 40.5002 1.08325C18.7309 1.08325 1.0835 18.7307 1.0835 40.4999C1.0835 62.2691 18.7309 79.9166 40.5002 79.9166Z" stroke="#DC272B" stroke-width="1.44"/>
<path id="Rectangle" d="M37.0226 33.3854C37.0226 31.7276 38.9237 30.7895 40.2394 31.7982L49.0413 38.5459C50.0855 39.3464 50.0855 40.9198 49.0413 41.7204L40.2394 48.4681C38.9237 49.4768 37.0226 48.5387 37.0226 46.8809L37.0226 33.3854Z" fill="#DC272B"/>
</g>
</g>
</g>
</svg>
