<svg width="25" height="32" viewBox="0 0 25 32" fill="none" xmlns="http://www.w3.org/2000/svg">
<path d="M19.0851 16.7895V29.6881C19.0851 30.0444 18.8772 30.3414 18.5506 30.4899L18.1942 30.579C17.9864 30.579 17.7488 30.4899 17.6003 30.3414L15.5216 28.4111L13.3834 30.3414C13.0567 30.6384 12.5222 30.6384 12.1956 30.3414L10.0574 28.4111L7.88957 30.3414C7.56291 30.6384 7.02837 30.6384 6.70171 30.3414L4.56357 28.4111L2.48482 30.3414C2.30664 30.4899 2.09877 30.579 1.89089 30.579C1.41575 30.579 1 30.1929 1 29.6881V7.89089C1 7.38605 1.38605 7 1.89089 7H10.0574" stroke="#4C66A0" stroke-width="2" stroke-linecap="round" stroke-linejoin="round"/>
<path d="M18.8 13C18.8 13 23.6 10.6 23.6 7V2.8L18.8 1L14 2.8V7C14 10.6 18.8 13 18.8 13Z" stroke="#35B6B4" stroke-width="2" stroke-linecap="round" stroke-linejoin="round"/>
<path d="M5.00033 18.579L11.667 18.579" stroke="#35B6B4" stroke-width="2" stroke-linecap="round" stroke-linejoin="round"/>
<path d="M5.00033 22.579L15.667 22.579" stroke="#35B6B4" stroke-width="2" stroke-linecap="round" stroke-linejoin="round"/>
<path d="M5.00033 14.579L7.66699 14.579" stroke="#35B6B4" stroke-width="2" stroke-linecap="round" stroke-linejoin="round"/>
</svg>
