<svg width="202" height="24" viewBox="0 0 202 24" fill="none" xmlns="http://www.w3.org/2000/svg">
<path d="M94.4401 0H198.84C200.72 0 202.2 1.68 201.88 3.56L199.08 21.4C198.84 22.88 197.56 24 196.04 24H92.0001C90.7201 24 89.5601 23.24 89.0401 22.04L85.3201 13.2C85.0001 12.44 85.0801 11.56 85.5201 10.88L91.7201 1.44C92.3601 0.56 93.3601 0 94.4401 0Z" fill="#C48E39"/>
<path d="M95.7598 17.6799L97.2798 6.99988C98.5198 6.91988 99.7198 6.87988 100.8 6.87988C102.36 6.87988 103.4 7.27988 103.96 8.11988C104.48 8.91988 104.6 10.3599 104.32 12.3999C104.16 13.5199 103.96 14.3999 103.72 15.1199C103.48 15.8399 103.16 16.3599 102.72 16.7599C102.32 17.1599 101.84 17.4399 101.32 17.5999C100.8 17.7599 100.12 17.8399 99.3198 17.8399C98.2398 17.7999 97.0798 17.7599 95.7598 17.6799ZM98.1598 7.75988L96.8798 16.8799C97.9198 16.9199 98.7198 16.9199 99.2798 16.9199C100.12 16.9199 100.8 16.7999 101.28 16.5199C101.76 16.2799 102.16 15.7999 102.48 15.1599C102.8 14.5199 103.04 13.5599 103.2 12.2799C103.44 10.5199 103.4 9.31988 103.08 8.67988C102.72 8.03988 101.96 7.71988 100.76 7.71988C100.64 7.71988 99.7598 7.75988 98.1598 7.75988Z" fill="white"/>
<path d="M107 17.68H106L107.52 7H108.56L107 17.68Z" fill="white"/>
<path d="M114.4 13.1199L112.2 12.2799C111.48 11.9999 110.96 11.6399 110.72 11.1999C110.48 10.7599 110.36 10.1599 110.48 9.39993C110.56 8.83993 110.72 8.35993 110.88 7.99993C111.08 7.63993 111.36 7.39993 111.68 7.19993C112.04 7.03993 112.4 6.91993 112.76 6.87993C113.12 6.83993 113.6 6.79993 114.16 6.79993C115.28 6.79993 116.28 6.87993 117.24 7.07993L117.12 7.79993C115.96 7.71993 114.96 7.71993 114.04 7.71993C113.76 7.71993 113.52 7.71993 113.36 7.71993C113.2 7.71993 113.04 7.75993 112.8 7.79993C112.56 7.83993 112.4 7.87993 112.28 7.95993C112.16 8.03993 112.04 8.11993 111.92 8.27993C111.8 8.39993 111.68 8.55993 111.6 8.79993C111.52 8.99993 111.48 9.23993 111.44 9.55993C111.36 10.1199 111.44 10.5199 111.6 10.7599C111.76 10.9999 112.12 11.2399 112.64 11.4799L114.8 12.3199C115.6 12.6399 116.12 12.9999 116.36 13.4399C116.6 13.8799 116.68 14.4799 116.56 15.2799C116.48 15.8399 116.36 16.3199 116.16 16.6799C115.96 17.0399 115.72 17.2799 115.36 17.4799C115 17.6799 114.64 17.7999 114.24 17.8399C113.84 17.8799 113.32 17.9199 112.64 17.9199C111.52 17.9199 110.48 17.8399 109.48 17.6799L109.6 16.9199C110.84 16.9999 111.88 16.9999 112.68 16.9999C113.68 16.9999 114.36 16.8799 114.76 16.6399C115.16 16.3999 115.4 15.9199 115.52 15.1199C115.6 14.5599 115.56 14.1199 115.4 13.8799C115.28 13.5999 114.92 13.3599 114.4 13.1199Z" fill="white"/>
<path d="M126.88 7.88H123.32L121.96 17.68H120.92L122.28 7.88H118.72L118.84 7H126.96L126.88 7.88Z" fill="white"/>
<path d="M127.28 17.6799L128.8 6.99988C129.68 6.91988 130.84 6.87988 132.36 6.87988C133.52 6.87988 134.36 7.11988 134.84 7.55988C135.32 7.99988 135.48 8.79988 135.32 9.99988C135.2 10.8799 134.96 11.5199 134.56 11.9599C134.2 12.3999 133.64 12.6399 132.92 12.7599V12.8399C133.48 12.9999 133.84 13.5199 134 14.3599L134.68 17.7199H133.6L132.96 14.3599C132.88 13.9199 132.72 13.6399 132.52 13.4399C132.32 13.2399 132 13.1599 131.64 13.1599C131.32 13.1599 130.96 13.1599 130.56 13.1599C130.16 13.1599 129.84 13.1599 129.6 13.1599C129.36 13.1599 129.12 13.1599 128.96 13.1599L128.32 17.7599H127.28V17.6799ZM129.04 12.1999H131.56C132.44 12.1999 133.08 12.0399 133.44 11.6799C133.84 11.3599 134.08 10.7599 134.2 9.87988C134.32 9.03988 134.24 8.43988 133.96 8.15988C133.68 7.83988 133.12 7.71988 132.24 7.71988C131.32 7.71988 130.44 7.71988 129.6 7.75988L129.04 12.1999Z" fill="white"/>
<path d="M137.8 17.68H136.8L138.32 7H139.36L137.8 17.68Z" fill="white"/>
<path d="M140.64 17.6799L142.16 6.99988C142.96 6.91988 144.04 6.87988 145.44 6.87988C146.76 6.87988 147.64 7.07988 148.12 7.47988C148.6 7.87988 148.76 8.63988 148.6 9.71988C148.48 10.4799 148.28 11.0399 147.92 11.4399C147.6 11.8399 147.08 12.0399 146.44 12.1199V12.1999C147.2 12.2799 147.72 12.5199 147.96 13.0399C148.24 13.5199 148.28 14.1999 148.16 15.0799C148 16.1599 147.68 16.8799 147.12 17.2399C146.6 17.5999 145.72 17.7999 144.48 17.7999C142.84 17.7999 141.56 17.7599 140.64 17.6799ZM142.36 12.5199L141.76 16.8799C142.6 16.9199 143.48 16.9199 144.36 16.9199C145.32 16.9199 146 16.7599 146.4 16.4799C146.8 16.1999 147.08 15.6399 147.16 14.7999C147.28 13.9199 147.2 13.3199 146.88 12.9999C146.56 12.6799 145.92 12.5199 144.92 12.5199H142.36ZM142.48 11.7599H144.96C145.84 11.7599 146.48 11.5999 146.84 11.3199C147.2 11.0399 147.48 10.5199 147.56 9.71988C147.68 8.91988 147.56 8.39988 147.24 8.11988C146.92 7.87988 146.28 7.71988 145.32 7.71988C144.16 7.71988 143.36 7.71988 143 7.71988L142.48 11.7599Z" fill="white"/>
<path d="M159.2 6.99996L158.24 13.64C158.04 15.16 157.6 16.24 156.96 16.88C156.32 17.52 155.32 17.84 154 17.84C152.64 17.84 151.68 17.52 151.16 16.84C150.64 16.16 150.48 15.08 150.68 13.56L151.6 6.95996H152.64L151.68 13.6C151.52 14.84 151.6 15.68 151.92 16.2C152.24 16.68 152.92 16.92 153.92 16.92C154.96 16.92 155.72 16.68 156.2 16.16C156.72 15.64 157.04 14.8 157.2 13.56L158.12 6.95996H159.2V6.99996Z" fill="white"/>
<path d="M161.48 17.68H160.44L161.96 7H163L161.48 17.68Z" fill="white"/>
<path d="M164.32 17.6799L165.84 6.99988C167.08 6.91988 168.28 6.87988 169.36 6.87988C170.92 6.87988 171.96 7.27988 172.52 8.11988C173.04 8.91988 173.16 10.3599 172.88 12.3999C172.72 13.5199 172.52 14.3999 172.28 15.1199C172.04 15.8399 171.72 16.3599 171.28 16.7599C170.84 17.1599 170.4 17.4399 169.88 17.5999C169.36 17.7599 168.68 17.8399 167.88 17.8399C166.84 17.7999 165.64 17.7599 164.32 17.6799ZM166.76 7.75988L165.48 16.8799C166.52 16.9199 167.32 16.9199 167.88 16.9199C168.72 16.9199 169.4 16.7999 169.88 16.5199C170.36 16.2799 170.76 15.7999 171.08 15.1599C171.4 14.5199 171.64 13.5599 171.8 12.2799C172.04 10.5199 172 9.31988 171.68 8.67988C171.32 8.03988 170.56 7.71988 169.36 7.71988C169.24 7.71988 168.36 7.75988 166.76 7.75988Z" fill="white"/>
<path d="M179.76 6.79993C181.24 6.79993 182.28 7.23993 182.8 8.07993C183.32 8.91993 183.44 10.3599 183.16 12.3999C182.88 14.4399 182.4 15.8799 181.68 16.6799C180.96 17.4799 179.88 17.8799 178.36 17.8799C176.88 17.8799 175.839 17.4799 175.319 16.6399C174.799 15.7999 174.68 14.3599 174.96 12.3199C175.24 10.2799 175.72 8.87993 176.44 8.03993C177.16 7.19993 178.24 6.79993 179.76 6.79993ZM179.719 7.71993C178.559 7.71993 177.68 8.03993 177.16 8.71993C176.64 9.39993 176.24 10.5999 175.96 12.3999C175.72 14.1199 175.759 15.3199 176.119 15.9999C176.479 16.6799 177.2 16.9999 178.36 16.9999C179.52 16.9999 180.359 16.6799 180.919 15.9999C181.479 15.3199 181.839 14.1199 182.119 12.3199C182.359 10.5599 182.32 9.35993 182 8.71993C181.64 8.03993 180.879 7.71993 179.719 7.71993Z" fill="white"/>
<path d="M184.84 17.6799L186.36 6.99988C187.24 6.91988 188.4 6.87988 189.92 6.87988C191.08 6.87988 191.92 7.11988 192.4 7.55988C192.88 7.99988 193.04 8.79988 192.88 9.99988C192.76 10.8799 192.52 11.5199 192.12 11.9599C191.76 12.3999 191.2 12.6399 190.48 12.7599V12.8399C191.04 12.9999 191.4 13.5199 191.56 14.3599L192.24 17.7199H191.2L190.56 14.3599C190.48 13.9199 190.32 13.6399 190.12 13.4399C189.92 13.2399 189.6 13.1599 189.24 13.1599C188.92 13.1599 188.56 13.1599 188.16 13.1599C187.76 13.1599 187.44 13.1599 187.2 13.1599C186.96 13.1599 186.72 13.1599 186.56 13.1599L185.92 17.7599H184.84V17.6799ZM186.6 12.1999H189.12C190 12.1999 190.64 12.0399 191 11.6799C191.4 11.3599 191.64 10.7599 191.76 9.87988C191.88 9.03988 191.8 8.43988 191.52 8.15988C191.24 7.83988 190.68 7.71988 189.8 7.71988C188.88 7.71988 188 7.71988 187.16 7.75988L186.6 12.1999Z" fill="white"/>
<path d="M88.0402 13.0801C88.5262 13.0801 88.9202 12.6861 88.9202 12.2001C88.9202 11.7141 88.5262 11.3201 88.0402 11.3201C87.5542 11.3201 87.1602 11.7141 87.1602 12.2001C87.1602 12.6861 87.5542 13.0801 88.0402 13.0801Z" fill="white"/>
<path d="M7.44 11.76L4.28 10.48C3.08 9.99995 2.28 9.35995 1.84 8.55995C1.44 7.75995 1.28 6.79995 1.44 5.59995C1.68 3.83995 2.28 2.67995 3.28 2.07995C4.28 1.47995 5.8 1.19995 7.88 1.19995C9.96 1.19995 11.76 1.43995 13.32 1.87995L12.96 4.35995C11.52 4.31995 9.8 4.27995 7.8 4.27995C6.8 4.27995 6.16 4.31995 5.8 4.51995C5.44 4.67995 5.2 5.11995 5.08 5.87995C5 6.43995 5.04 6.79995 5.2 6.99995C5.36 7.19995 5.76 7.43995 6.4 7.67995L9.4 8.83995C10.68 9.31995 11.52 9.95995 11.92 10.68C12.32 11.44 12.44 12.4399 12.28 13.7199C12.04 15.5199 11.44 16.76 10.52 17.4C9.56 18.0399 8 18.36 5.72 18.36C3.84 18.36 1.96 18.16 0 17.7199L0.4 15.12C3.8 15.2 5.56 15.24 5.6 15.24C6.72 15.24 7.48 15.12 7.88 14.92C8.28 14.7199 8.52 14.24 8.64 13.56C8.72 13 8.64 12.64 8.48 12.44C8.32 12.2 8 11.96 7.44 11.76Z" fill="#1F3D8C"/>
<path d="M24.16 15.2399L24.4 17.4799C23.08 18.0399 21.32 18.3199 19.16 18.3199C16.88 18.3199 15.32 17.7999 14.48 16.7599C13.64 15.7199 13.32 14.0799 13.6 11.9199C13.88 9.63992 14.56 8.03992 15.56 7.19992C16.6 6.35992 18.24 5.91992 20.48 5.91992C22.56 5.91992 24 6.27992 24.76 6.95992C25.52 7.63992 25.8 8.63992 25.6 9.99992C25.44 11.1199 25 11.9199 24.24 12.3999C23.48 12.8799 22.32 13.1599 20.72 13.2799L17.2 13.5599C17.2 14.3599 17.4 14.8799 17.8 15.1199C18.16 15.3999 18.76 15.5199 19.6 15.5199C21.12 15.5199 22.64 15.3999 24.16 15.2399ZM17.4 11.4399L20.16 11.1599C20.8 11.1199 21.28 10.9999 21.56 10.7599C21.84 10.5599 22.04 10.1599 22.12 9.59992C22.16 9.07992 22.08 8.75992 21.8 8.59992C21.56 8.47992 21.04 8.39992 20.2 8.43992C19.28 8.43992 18.6 8.63992 18.24 9.03992C17.88 9.47992 17.6 10.2399 17.4 11.4399Z" fill="#1F3D8C"/>
<path d="M30.3201 6.23988V8.35988C31.2001 7.47988 32.0001 6.87988 32.7601 6.47988C33.5201 6.07988 34.2801 5.87988 35.1201 5.87988C36.0001 5.87988 36.6801 6.07988 37.1601 6.43988C37.6401 6.83988 37.9601 7.35988 38.0401 8.07988C39.5201 6.59988 41.0401 5.87988 42.5201 5.87988C43.6001 5.87988 44.4001 6.15988 44.9201 6.75988C45.4401 7.35988 45.6001 8.15988 45.4801 9.19988L44.2401 17.9999H40.6801L41.8001 10.1599C41.8801 9.67988 41.8401 9.31988 41.6801 9.11988C41.5201 8.91988 41.2801 8.83988 40.9201 8.83988C40.5201 8.83988 40.0801 8.95988 39.6401 9.23988C39.2001 9.47988 38.5601 9.95988 37.8001 10.6399L36.7601 17.9999H33.3201L34.4001 10.1599C34.4801 9.67988 34.4401 9.35988 34.3201 9.15988C34.2001 8.95988 33.9201 8.87988 33.5601 8.87988C33.1601 8.87988 32.7201 8.99988 32.2401 9.23988C31.8001 9.47988 31.2001 9.91988 30.4401 10.5599L29.4001 17.9999H25.8401L27.5201 6.19988H30.3201V6.23988Z" fill="#1F3D8C"/>
<path d="M50.6801 6.23996L50.6401 8.51996C51.3601 7.79996 52.1601 7.19996 53.0401 6.71996C53.9201 6.23996 54.8001 5.95996 55.6401 5.95996C57.0401 5.95996 58.0001 6.43996 58.5201 7.43996C59.0401 8.39996 59.1601 10.08 58.8401 12.4C58.6801 13.44 58.4801 14.28 58.2401 15.04C58.0001 15.76 57.7201 16.36 57.4001 16.76C57.0801 17.2 56.6801 17.52 56.2401 17.76C55.8001 18 55.3201 18.16 54.8801 18.24C54.4401 18.32 53.8801 18.36 53.2401 18.36C52.0801 18.36 50.8801 18.24 49.6801 18.04C49.6801 18.8 49.6401 19.52 49.5201 20.28L49.1201 22.6H45.5601L47.8801 6.23996H50.6801ZM50.0801 15.88H51.9201C53.1601 15.88 53.9601 15.68 54.3201 15.28C54.6801 14.88 55.0001 13.88 55.2001 12.32C55.4001 10.84 55.4401 9.83996 55.3201 9.43996C55.2001 8.99996 54.8801 8.79996 54.3201 8.79996C53.9201 8.79996 53.3601 8.95996 52.7201 9.31996C52.0801 9.67996 51.4401 10.16 50.8001 10.72L50.0801 15.88Z" fill="#1F3D8C"/>
<path d="M69.8801 5.91992L69.0801 9.19992H68.2001C67.7201 9.19992 67.1601 9.31992 66.6001 9.51992C66.0401 9.71992 65.2401 10.1199 64.2001 10.6399L63.2001 18.0399H59.6401L61.3201 6.23992H64.0801V8.47992C65.8801 6.75992 67.6001 5.91992 69.1601 5.91992H69.8801Z" fill="#1F3D8C"/>
<path d="M79.88 15.2399L80.12 17.4799C78.8 18.0399 77.04 18.3199 74.88 18.3199C72.6 18.3199 71.04 17.7999 70.2 16.7599C69.36 15.7199 69.04 14.0799 69.32 11.9199C69.6 9.63992 70.28 8.03992 71.28 7.19992C72.32 6.35992 73.96 5.91992 76.2 5.91992C78.28 5.91992 79.72 6.27992 80.48 6.95992C81.24 7.63992 81.52 8.63992 81.32 9.99992C81.16 11.1199 80.72 11.9199 79.96 12.3999C79.2 12.8799 78.04 13.1599 76.44 13.2799L72.92 13.5599C72.92 14.3599 73.12 14.8799 73.52 15.1199C73.88 15.3999 74.48 15.5199 75.32 15.5199C76.84 15.5199 78.4 15.3999 79.88 15.2399ZM73.12 11.4399L75.88 11.1599C76.52 11.1199 77 10.9999 77.28 10.7599C77.56 10.5599 77.76 10.1599 77.84 9.59992C77.88 9.07992 77.8 8.75992 77.52 8.59992C77.28 8.47992 76.76 8.39992 75.92 8.43992C75 8.43992 74.32 8.63992 73.96 9.03992C73.64 9.47992 73.32 10.2399 73.12 11.4399Z" fill="#1F3D8C"/>
</svg>
