<svg width="133" height="24" viewBox="0 0 133 24" fill="none" xmlns="http://www.w3.org/2000/svg">
<path d="M94.3146 0H129.76C131.64 0 133.12 1.68 132.8 3.56L130 21.4C129.76 22.88 128.48 24 126.96 24H91.8746C90.5946 24 89.4346 23.24 88.9146 22.04L85.1946 13.2C84.8746 12.44 84.9546 11.56 85.3946 10.88L91.5946 1.44C92.2346 0.56 93.2346 0 94.3146 0Z" fill="#C51A19"/>
<path d="M98.2396 6.99998L96.9996 15.72C96.9596 16.08 96.9995 16.32 97.1595 16.52C97.3195 16.72 97.5596 16.8 97.9196 16.8H101.92L101.88 17.56C100.96 17.64 99.5596 17.64 97.7196 17.64C97.1196 17.64 96.6396 17.48 96.3196 17.12C95.9996 16.76 95.8795 16.28 95.9595 15.64L97.1595 6.91998H98.2396V6.99998Z" fill="white"/>
<path d="M104.6 17.68H103.6L105.12 7H106.16L104.6 17.68Z" fill="white"/>
<path d="M115.84 7.88H112.28L110.92 17.68H109.88L111.24 7.88H107.68L107.8 7H116L115.84 7.88Z" fill="white"/>
<path d="M123.919 7.83998H119.599C118.879 7.83998 118.439 8.23998 118.359 8.99998L117.999 11.6H122.799L122.679 12.4H117.879L117.439 15.72C117.319 16.44 117.639 16.8 118.359 16.8H122.639V17.6C121.679 17.68 120.239 17.68 118.239 17.68C117.559 17.68 117.079 17.52 116.759 17.16C116.439 16.8 116.319 16.32 116.399 15.72L117.399 8.67998C117.479 8.15998 117.679 7.71998 118.039 7.39998C118.399 7.07998 118.879 6.91998 119.479 6.91998C121.559 6.91998 123.119 6.95998 124.079 6.99998L123.919 7.83998Z" fill="white"/>
<path d="M88.0402 13.0799C88.5262 13.0799 88.9202 12.686 88.9202 12.1999C88.9202 11.7139 88.5262 11.3199 88.0402 11.3199C87.5542 11.3199 87.1602 11.7139 87.1602 12.1999C87.1602 12.686 87.5542 13.0799 88.0402 13.0799Z" fill="white"/>
<path d="M7.44 11.76L4.28 10.48C3.08 10 2.28 9.36001 1.84 8.56001C1.44 7.76001 1.28 6.80001 1.44 5.60001C1.68 3.84001 2.28 2.68001 3.28 2.08001C4.28 1.48001 5.8 1.20001 7.88 1.20001C9.96 1.20001 11.76 1.44001 13.32 1.88001L12.96 4.36001C11.52 4.32001 9.8 4.28001 7.8 4.28001C6.8 4.28001 6.16 4.32001 5.8 4.52001C5.44 4.68001 5.2 5.12001 5.08 5.88001C5 6.44001 5.04 6.80001 5.2 7.00001C5.36 7.20001 5.76 7.44001 6.4 7.68001L9.4 8.84001C10.68 9.32001 11.52 9.96001 11.92 10.68C12.32 11.44 12.44 12.44 12.28 13.72C12.04 15.52 11.44 16.76 10.52 17.4C9.56 18.04 8 18.36 5.72 18.36C3.84 18.36 1.96 18.16 0 17.72L0.4 15.12C3.8 15.2 5.56 15.24 5.6 15.24C6.72 15.24 7.48 15.12 7.88 14.92C8.28 14.72 8.52 14.24 8.64 13.56C8.72 13 8.64 12.64 8.48 12.44C8.32 12.2 8 11.96 7.44 11.76Z" fill="white"/>
<path d="M24.161 15.24L24.401 17.48C23.081 18.04 21.321 18.32 19.161 18.32C16.881 18.32 15.321 17.8 14.481 16.76C13.641 15.72 13.321 14.08 13.601 11.92C13.881 9.63998 14.561 8.03998 15.561 7.19998C16.601 6.35998 18.241 5.91998 20.481 5.91998C22.561 5.91998 24.001 6.27998 24.761 6.95998C25.521 7.63998 25.801 8.63998 25.601 9.99998C25.441 11.12 25.001 11.92 24.241 12.4C23.481 12.88 22.321 13.16 20.721 13.28L17.201 13.56C17.201 14.36 17.401 14.88 17.801 15.12C18.161 15.4 18.761 15.52 19.601 15.52C21.121 15.52 22.641 15.4 24.161 15.24ZM17.401 11.44L20.161 11.16C20.801 11.12 21.281 11 21.561 10.76C21.841 10.56 22.041 10.16 22.121 9.59998C22.161 9.07998 22.081 8.75998 21.801 8.59998C21.561 8.47998 21.041 8.39998 20.201 8.43998C19.281 8.43998 18.601 8.63998 18.241 9.03998C17.881 9.47998 17.601 10.24 17.401 11.44Z" fill="white"/>
<path d="M30.3198 6.24001V8.36001C31.1998 7.48 31.9998 6.88001 32.7598 6.48001C33.5198 6.08001 34.2798 5.88 35.1198 5.88C35.9998 5.88 36.6798 6.08001 37.1598 6.44001C37.6398 6.84001 37.9598 7.36001 38.0398 8.08001C39.5198 6.60001 41.0398 5.88 42.5198 5.88C43.5998 5.88 44.3998 6.16 44.9198 6.76C45.4398 7.36 45.5998 8.16001 45.4798 9.20001L44.2398 18H40.6798L41.7998 10.16C41.8798 9.68001 41.8398 9.32 41.6798 9.12C41.5198 8.92 41.2798 8.84001 40.9198 8.84001C40.5198 8.84001 40.0798 8.96001 39.6398 9.24001C39.1998 9.48001 38.5598 9.96001 37.7998 10.64L36.7598 18H33.3198L34.3998 10.16C34.4798 9.68001 34.4398 9.36001 34.3198 9.16001C34.1998 8.96001 33.9198 8.88001 33.5598 8.88001C33.1598 8.88001 32.7198 9.00001 32.2398 9.24001C31.7598 9.48001 31.1998 9.92001 30.4398 10.56L29.3998 18H25.8398L27.5198 6.2H30.3198V6.24001Z" fill="white"/>
<path d="M50.6805 6.24008L50.6405 8.52008C51.3605 7.80008 52.1606 7.20008 53.0406 6.72008C53.9206 6.24008 54.8006 5.96008 55.6406 5.96008C57.0406 5.96008 58.0006 6.44008 58.5206 7.44008C59.0406 8.40008 59.1606 10.0801 58.8406 12.4001C58.6806 13.4401 58.4806 14.2801 58.2406 15.0401C58.0006 15.7601 57.7206 16.3601 57.4006 16.7601C57.0806 17.2001 56.6806 17.5201 56.2406 17.7601C55.8006 18.0001 55.3206 18.1601 54.8806 18.2401C54.4405 18.3201 53.8806 18.3601 53.2406 18.3601C52.0806 18.3601 50.8805 18.2401 49.6805 18.0401C49.6805 18.8001 49.6405 19.5201 49.5205 20.2801L49.1205 22.6001H45.5605L47.8805 6.24008H50.6805V6.24008ZM50.0805 15.8801H51.9206C53.1606 15.8801 53.9606 15.6801 54.3206 15.2801C54.6806 14.8801 55.0006 13.8801 55.2006 12.3201C55.4006 10.8401 55.4406 9.84008 55.3206 9.44008C55.2006 9.00008 54.8806 8.80008 54.3206 8.80008C53.9206 8.80008 53.3606 8.96008 52.7206 9.32008C52.0806 9.68008 51.4405 10.1601 50.8005 10.7201L50.0805 15.8801Z" fill="white"/>
<path d="M69.8806 5.91998L69.0806 9.19998H68.2006C67.7206 9.19998 67.1606 9.31998 66.6006 9.51998C66.0406 9.71998 65.2406 10.12 64.2006 10.64L63.2006 18.04H59.6406L61.3206 6.23998H64.0806V8.47998C65.8806 6.75998 67.6006 5.91998 69.1606 5.91998H69.8806V5.91998Z" fill="white"/>
<path d="M79.8797 15.24L80.1197 17.48C78.7997 18.04 77.0397 18.32 74.8797 18.32C72.5997 18.32 71.0397 17.8 70.1997 16.76C69.3597 15.72 69.0397 14.08 69.3197 11.92C69.5997 9.63998 70.2797 8.03998 71.2797 7.19998C72.3197 6.35998 73.9597 5.91998 76.1997 5.91998C78.2797 5.91998 79.7197 6.27998 80.4797 6.95998C81.2397 7.63998 81.5197 8.63998 81.3197 9.99998C81.1597 11.12 80.7197 11.92 79.9597 12.4C79.1997 12.88 78.0397 13.16 76.4397 13.28L72.9197 13.56C72.9197 14.36 73.1197 14.88 73.5197 15.12C73.8797 15.4 74.4797 15.52 75.3197 15.52C76.8397 15.52 78.3997 15.4 79.8797 15.24ZM73.1197 11.44L75.8797 11.16C76.5197 11.12 76.9997 11 77.2797 10.76C77.5597 10.56 77.7597 10.16 77.8397 9.59998C77.8797 9.07998 77.7997 8.75998 77.5197 8.59998C77.2797 8.47998 76.7597 8.39998 75.9197 8.43998C74.9997 8.43998 74.3197 8.63998 73.9597 9.03998C73.6397 9.47998 73.3197 10.24 73.1197 11.44Z" fill="white"/>
</svg>
