<svg width="159" height="24" viewBox="0 0 159 24" fill="none" xmlns="http://www.w3.org/2000/svg">
<path d="M94.4406 0H155.561C157.441 0 158.921 1.68 158.601 3.56L155.801 21.4C155.561 22.88 154.281 24 152.761 24H92.0006C90.7206 24 89.5606 23.24 89.0406 22.04L85.3206 13.2C85.0006 12.44 85.0806 11.56 85.5206 10.88L91.7206 1.44C92.3606 0.56 93.3606 0 94.4406 0Z" fill="#C51A19"/>
<path d="M104.08 7.08001L103.88 7.84001C102.96 7.72001 102.04 7.68001 101.12 7.68001C99.8002 7.68001 98.8802 8.00001 98.3202 8.64001C97.7602 9.28001 97.3602 10.52 97.1202 12.36C96.9202 14.04 96.9602 15.24 97.2402 15.92C97.5202 16.6 98.1202 16.96 99.0402 16.96C99.6002 16.96 100.12 16.8 100.6 16.52C101.08 16.24 101.6 15.8 102.2 15.24L102.72 11.48H103.72L102.84 17.68H102.12L102.2 16.12C101.16 17.28 100.04 17.84 98.7602 17.84C97.6002 17.84 96.8002 17.4 96.3602 16.52C95.9202 15.64 95.8402 14.24 96.0802 12.28C96.2802 10.84 96.5602 9.76001 97.0002 8.92001C97.4002 8.12001 97.9602 7.56001 98.5602 7.24001C99.2002 6.92001 100 6.76001 101.04 6.76001C102.24 6.80001 103.24 6.92001 104.08 7.08001Z" fill="white"/>
<path d="M113.04 7.83992H108.72C108 7.83992 107.56 8.23992 107.48 8.99992L107.12 11.6399H111.92L111.8 12.4399H107L106.56 15.7599C106.44 16.4799 106.76 16.8399 107.48 16.8399H111.76V17.5999C110.8 17.6799 109.36 17.6799 107.36 17.6799C106.68 17.6799 106.2 17.5199 105.88 17.1599C105.56 16.7999 105.44 16.3199 105.52 15.7199L106.52 8.67992C106.6 8.15992 106.8 7.71992 107.16 7.39992C107.52 7.07992 108 6.91992 108.6 6.91992C110.68 6.91992 112.24 6.95992 113.2 6.99992L113.04 7.83992Z" fill="white"/>
<path d="M118.52 13.12L116.32 12.28C115.6 12 115.08 11.64 114.84 11.2C114.6 10.76 114.48 10.16 114.6 9.40005C114.68 8.84005 114.84 8.36005 115 8.00005C115.2 7.64005 115.48 7.40005 115.8 7.20005C116.16 7.04005 116.52 6.92005 116.88 6.88005C117.24 6.84005 117.72 6.80005 118.28 6.80005C119.4 6.80005 120.4 6.88005 121.36 7.08005L121.24 7.80005C120.08 7.72005 119.08 7.72005 118.16 7.72005C117.88 7.72005 117.64 7.72005 117.48 7.72005C117.32 7.72005 117.16 7.76005 116.92 7.80005C116.68 7.84005 116.52 7.88005 116.4 7.96005C116.28 8.04005 116.16 8.12005 116.04 8.28005C115.92 8.40005 115.8 8.56005 115.72 8.80005C115.64 9.00005 115.6 9.24005 115.56 9.56005C115.48 10.12 115.56 10.52 115.72 10.76C115.88 11 116.24 11.24 116.76 11.48L118.92 12.32C119.72 12.64 120.24 13 120.48 13.44C120.72 13.88 120.8 14.48 120.68 15.28C120.6 15.84 120.48 16.32 120.28 16.68C120.08 17.04 119.84 17.28 119.48 17.48C119.12 17.68 118.76 17.8 118.36 17.84C117.96 17.88 117.44 17.92 116.76 17.92C115.64 17.92 114.6 17.84 113.6 17.68L113.72 16.92C114.96 17 116 17 116.8 17C117.8 17 118.48 16.88 118.88 16.64C119.28 16.4 119.52 15.92 119.64 15.12C119.72 14.56 119.68 14.12 119.52 13.88C119.4 13.6 119.04 13.36 118.52 13.12Z" fill="white"/>
<path d="M131 7.88H127.44L126.08 17.68H125.04L126.4 7.88H122.84L122.96 7H131.08L131 7.88Z" fill="white"/>
<path d="M136.36 6.80005C137.84 6.80005 138.88 7.20005 139.4 8.08005C139.92 8.92005 140.04 10.36 139.76 12.4C139.48 14.44 139 15.88 138.28 16.68C137.56 17.48 136.48 17.88 134.96 17.88C133.48 17.88 132.44 17.48 131.92 16.64C131.4 15.8 131.28 14.36 131.56 12.32C131.84 10.28 132.32 8.88005 133.04 8.04005C133.72 7.20005 134.84 6.80005 136.36 6.80005ZM136.32 7.72005C135.16 7.72005 134.28 8.04005 133.76 8.72005C133.24 9.40005 132.84 10.6 132.56 12.4C132.32 14.12 132.36 15.32 132.72 16C133.08 16.68 133.8 17 134.96 17C136.12 17 136.96 16.68 137.52 16C138.08 15.32 138.44 14.12 138.72 12.32C138.96 10.56 138.92 9.36005 138.6 8.72005C138.24 8.04005 137.48 7.72005 136.32 7.72005Z" fill="white"/>
<path d="M141.44 17.6799L142.96 6.99988C143.84 6.91988 145 6.87988 146.52 6.87988C147.68 6.87988 148.52 7.11988 149 7.55988C149.48 7.99988 149.64 8.79988 149.48 9.99988C149.36 10.8799 149.12 11.5199 148.72 11.9599C148.36 12.3999 147.8 12.6399 147.08 12.7599V12.8399C147.64 12.9999 148 13.5199 148.16 14.3599L148.84 17.7199H147.8L147.16 14.3599C147.08 13.9199 146.92 13.5999 146.72 13.4399C146.52 13.2399 146.2 13.1599 145.84 13.1599C145.52 13.1599 145.16 13.1599 144.76 13.1599C144.36 13.1599 144.04 13.1599 143.8 13.1599C143.56 13.1599 143.32 13.1599 143.16 13.1599L142.52 17.7599H141.44V17.6799ZM143.2 12.1999H145.72C146.6 12.1999 147.24 12.0399 147.6 11.6799C148 11.3599 148.24 10.7599 148.36 9.87988C148.48 9.03988 148.4 8.43988 148.12 8.15988C147.84 7.83988 147.28 7.71988 146.4 7.71988C145.48 7.71988 144.6 7.71988 143.76 7.75988L143.2 12.1999Z" fill="white"/>
<path d="M88.0402 13.0801C88.5262 13.0801 88.9202 12.6861 88.9202 12.2001C88.9202 11.7141 88.5262 11.3201 88.0402 11.3201C87.5542 11.3201 87.1602 11.7141 87.1602 12.2001C87.1602 12.6861 87.5542 13.0801 88.0402 13.0801Z" fill="white"/>
<path d="M7.44 11.76L4.28 10.48C3.08 9.99995 2.28 9.35995 1.84 8.55995C1.44 7.75995 1.28 6.79995 1.44 5.59995C1.68 3.83995 2.28 2.67995 3.28 2.07995C4.28 1.47995 5.8 1.19995 7.88 1.19995C9.96 1.19995 11.76 1.43995 13.32 1.87995L12.96 4.35995C11.52 4.31995 9.8 4.27995 7.8 4.27995C6.8 4.27995 6.16 4.31995 5.8 4.51995C5.44 4.67995 5.2 5.11995 5.08 5.87995C5 6.43995 5.04 6.79995 5.2 6.99995C5.36 7.19995 5.76 7.43995 6.4 7.67995L9.4 8.83995C10.68 9.31995 11.52 9.95995 11.92 10.68C12.32 11.44 12.44 12.4399 12.28 13.7199C12.04 15.5199 11.44 16.76 10.52 17.4C9.56 18.0399 8 18.36 5.72 18.36C3.84 18.36 1.96 18.16 0 17.7199L0.4 15.12C3.8 15.2 5.56 15.24 5.6 15.24C6.72 15.24 7.48 15.12 7.88 14.92C8.28 14.7199 8.52 14.24 8.64 13.56C8.72 13 8.64 12.64 8.48 12.44C8.32 12.2 8 11.96 7.44 11.76Z" fill="#1F3D8C"/>
<path d="M24.16 15.2399L24.4 17.4799C23.08 18.0399 21.32 18.3199 19.16 18.3199C16.88 18.3199 15.32 17.7999 14.48 16.7599C13.64 15.7199 13.32 14.0799 13.6 11.9199C13.88 9.63992 14.56 8.03992 15.56 7.19992C16.6 6.35992 18.24 5.91992 20.48 5.91992C22.56 5.91992 24 6.27992 24.76 6.95992C25.52 7.63992 25.8 8.63992 25.6 9.99992C25.44 11.1199 25 11.9199 24.24 12.3999C23.48 12.8799 22.32 13.1599 20.72 13.2799L17.2 13.5599C17.2 14.3599 17.4 14.8799 17.8 15.1199C18.16 15.3999 18.76 15.5199 19.6 15.5199C21.12 15.5199 22.64 15.3999 24.16 15.2399ZM17.4 11.4399L20.16 11.1599C20.8 11.1199 21.28 10.9999 21.56 10.7599C21.84 10.5599 22.04 10.1599 22.12 9.59992C22.16 9.07992 22.08 8.75992 21.8 8.59992C21.56 8.47992 21.04 8.39992 20.2 8.43992C19.28 8.43992 18.6 8.63992 18.24 9.03992C17.88 9.47992 17.6 10.2399 17.4 11.4399Z" fill="#1F3D8C"/>
<path d="M30.3198 6.23988V8.35988C31.1998 7.47988 31.9998 6.87988 32.7598 6.47988C33.5198 6.07988 34.2798 5.87988 35.1198 5.87988C35.9998 5.87988 36.6798 6.07988 37.1598 6.43988C37.6398 6.83988 37.9598 7.35988 38.0398 8.07988C39.5198 6.59988 41.0398 5.87988 42.5198 5.87988C43.5998 5.87988 44.3998 6.15988 44.9198 6.75988C45.4398 7.35988 45.5998 8.15988 45.4798 9.19988L44.2398 17.9999H40.6798L41.7998 10.1599C41.8798 9.67988 41.8398 9.31988 41.6798 9.11988C41.5198 8.91988 41.2798 8.83988 40.9198 8.83988C40.5198 8.83988 40.0798 8.95988 39.6398 9.23988C39.1998 9.47988 38.5598 9.95988 37.7998 10.6399L36.7598 17.9999H33.3198L34.3998 10.1599C34.4798 9.67988 34.4398 9.35988 34.3198 9.15988C34.1998 8.95988 33.9198 8.87988 33.5598 8.87988C33.1598 8.87988 32.7198 8.99988 32.2398 9.23988C31.7998 9.47988 31.1998 9.91988 30.4398 10.5599L29.3998 17.9999H25.8398L27.5198 6.19988H30.3198V6.23988Z" fill="#1F3D8C"/>
<path d="M50.6796 6.23996L50.6396 8.51996C51.3596 7.79996 52.1596 7.19996 53.0396 6.71996C53.9196 6.23996 54.7996 5.95996 55.6396 5.95996C57.0396 5.95996 57.9996 6.43996 58.5196 7.43996C59.0396 8.39996 59.1596 10.08 58.8396 12.4C58.6796 13.44 58.4796 14.28 58.2396 15.04C57.9996 15.76 57.7196 16.36 57.3996 16.76C57.0796 17.2 56.6796 17.52 56.2396 17.76C55.7996 18 55.3196 18.16 54.8796 18.24C54.4396 18.32 53.8796 18.36 53.2396 18.36C52.0796 18.36 50.8796 18.24 49.6796 18.04C49.6796 18.8 49.6396 19.52 49.5196 20.28L49.1196 22.6H45.5596L47.8796 6.23996H50.6796ZM50.0796 15.88H51.9196C53.1596 15.88 53.9596 15.68 54.3196 15.28C54.6796 14.88 54.9996 13.88 55.1996 12.32C55.3996 10.84 55.4396 9.83996 55.3196 9.43996C55.1996 8.99996 54.8796 8.79996 54.3196 8.79996C53.9196 8.79996 53.3596 8.95996 52.7196 9.31996C52.0796 9.67996 51.4396 10.16 50.7996 10.72L50.0796 15.88Z" fill="#1F3D8C"/>
<path d="M69.8806 5.91992L69.0806 9.19992H68.2006C67.7206 9.19992 67.1606 9.31992 66.6006 9.51992C66.0406 9.71992 65.2406 10.1199 64.2006 10.6399L63.2006 18.0399H59.6406L61.3206 6.23992H64.0806V8.47992C65.8806 6.75992 67.6006 5.91992 69.1606 5.91992H69.8806Z" fill="#1F3D8C"/>
<path d="M79.8797 15.2399L80.1197 17.4799C78.7997 18.0399 77.0397 18.3199 74.8797 18.3199C72.5997 18.3199 71.0397 17.7999 70.1997 16.7599C69.3597 15.7199 69.0397 14.0799 69.3197 11.9199C69.5997 9.63992 70.2797 8.03992 71.2797 7.19992C72.3197 6.35992 73.9597 5.91992 76.1997 5.91992C78.2797 5.91992 79.7197 6.27992 80.4797 6.95992C81.2397 7.63992 81.5197 8.63992 81.3197 9.99992C81.1597 11.1199 80.7197 11.9199 79.9597 12.3999C79.1997 12.8799 78.0397 13.1599 76.4397 13.2799L72.9197 13.5599C72.9197 14.3599 73.1197 14.8799 73.5197 15.1199C73.8797 15.3999 74.4797 15.5199 75.3197 15.5199C76.8397 15.5199 78.3997 15.3999 79.8797 15.2399ZM73.1197 11.4399L75.8797 11.1599C76.5197 11.1199 76.9997 10.9999 77.2797 10.7599C77.5597 10.5599 77.7597 10.1599 77.8397 9.59992C77.8797 9.07992 77.7997 8.75992 77.5197 8.59992C77.2797 8.47992 76.7597 8.39992 75.9197 8.43992C74.9997 8.43992 74.3197 8.63992 73.9597 9.03992C73.6397 9.47992 73.3197 10.2399 73.1197 11.4399Z" fill="#1F3D8C"/>
</svg>
