<svg width="133" height="24" viewBox="0 0 133 24" fill="none" xmlns="http://www.w3.org/2000/svg">
<path d="M129.681 1.08C130.281 1.08 130.801 1.32 131.201 1.76C131.561 2.2 131.761 2.8 131.641 3.36L128.841 21.2C128.681 22.16 127.881 22.88 126.881 22.88H92.0006C91.1606 22.88 90.4006 22.36 90.0806 21.6L86.3606 12.8C86.2006 12.36 86.2406 11.92 86.4806 11.52L92.6806 2.08C93.0806 1.48 93.7206 1.12 94.4406 1.12H129.681V1.08ZM129.681 0H94.4006C93.3206 0 92.3206 0.56 91.7206 1.44L85.5206 10.88C85.0806 11.56 85.0006 12.44 85.3206 13.2L89.0806 22.04C89.5606 23.24 90.7206 24 92.0406 24H126.921C128.441 24 129.721 22.88 129.961 21.4L132.761 3.56C133.041 1.68 131.601 0 129.681 0Z" fill="#C51C1A"/>
<path d="M98.2396 6.99992L96.9996 15.7199C96.9596 16.0799 96.9995 16.3199 97.1595 16.5199C97.3195 16.7199 97.5596 16.7999 97.9196 16.7999H101.92L101.88 17.5599C100.96 17.6399 99.5596 17.6399 97.7196 17.6399C97.1196 17.6399 96.6396 17.4799 96.3196 17.1199C95.9996 16.7599 95.8795 16.2799 95.9595 15.6399L97.1595 6.91992H98.2396V6.99992Z" fill="#C51A19"/>
<path d="M104.6 17.68H103.6L105.12 7H106.16L104.6 17.68Z" fill="#C51A19"/>
<path d="M115.84 7.88H112.28L110.92 17.68H109.88L111.24 7.88H107.68L107.8 7H116L115.84 7.88Z" fill="#C51A19"/>
<path d="M123.92 7.83992H119.6C118.88 7.83992 118.44 8.23992 118.36 8.99992L118 11.5999H122.8L122.68 12.3999H117.88L117.44 15.7199C117.32 16.4399 117.64 16.7999 118.36 16.7999H122.64V17.5999C121.68 17.6799 120.24 17.6799 118.24 17.6799C117.56 17.6799 117.08 17.5199 116.76 17.1599C116.44 16.7999 116.32 16.3199 116.4 15.7199L117.4 8.67992C117.48 8.15992 117.68 7.71992 118.04 7.39992C118.4 7.07992 118.88 6.91992 119.48 6.91992C121.56 6.91992 123.12 6.95992 124.08 6.99992L123.92 7.83992Z" fill="#C51A19"/>
<path d="M88.0402 13.0798C88.5262 13.0798 88.9202 12.6858 88.9202 12.1998C88.9202 11.7138 88.5262 11.3198 88.0402 11.3198C87.5542 11.3198 87.1602 11.7138 87.1602 12.1998C87.1602 12.6858 87.5542 13.0798 88.0402 13.0798Z" fill="#C51A19"/>
<path d="M7.44 11.76L4.28 10.48C3.08 9.99995 2.28 9.35995 1.84 8.55995C1.44 7.75995 1.28 6.79995 1.44 5.59995C1.68 3.83995 2.28 2.67995 3.28 2.07995C4.28 1.47995 5.8 1.19995 7.88 1.19995C9.96 1.19995 11.76 1.43995 13.32 1.87995L12.96 4.35995C11.52 4.31995 9.8 4.27995 7.8 4.27995C6.8 4.27995 6.16 4.31995 5.8 4.51995C5.44 4.67995 5.2 5.11995 5.08 5.87995C5 6.43995 5.04 6.79995 5.2 6.99995C5.36 7.19995 5.76 7.43995 6.4 7.67995L9.4 8.83995C10.68 9.31995 11.52 9.95995 11.92 10.68C12.32 11.44 12.44 12.4399 12.28 13.7199C12.04 15.5199 11.44 16.76 10.52 17.4C9.56 18.0399 8 18.36 5.72 18.36C3.84 18.36 1.96 18.16 0 17.7199L0.4 15.12C3.8 15.2 5.56 15.24 5.6 15.24C6.72 15.24 7.48 15.12 7.88 14.92C8.28 14.7199 8.52 14.24 8.64 13.56C8.72 13 8.64 12.64 8.48 12.44C8.32 12.2 8 11.96 7.44 11.76Z" fill="#1F3D8C"/>
<path d="M24.16 15.2399L24.4 17.4799C23.08 18.0399 21.32 18.3199 19.16 18.3199C16.88 18.3199 15.32 17.7999 14.48 16.7599C13.64 15.7199 13.32 14.0799 13.6 11.9199C13.88 9.63992 14.56 8.03992 15.56 7.19992C16.6 6.35992 18.24 5.91992 20.48 5.91992C22.56 5.91992 24 6.27992 24.76 6.95992C25.52 7.63992 25.8 8.63992 25.6 9.99992C25.44 11.1199 25 11.9199 24.24 12.3999C23.48 12.8799 22.32 13.1599 20.72 13.2799L17.2 13.5599C17.2 14.3599 17.4 14.8799 17.8 15.1199C18.16 15.3999 18.76 15.5199 19.6 15.5199C21.12 15.5199 22.64 15.3999 24.16 15.2399ZM17.4 11.4399L20.16 11.1599C20.8 11.1199 21.28 10.9999 21.56 10.7599C21.84 10.5599 22.04 10.1599 22.12 9.59992C22.16 9.07992 22.08 8.75992 21.8 8.59992C21.56 8.47992 21.04 8.39992 20.2 8.43992C19.28 8.43992 18.6 8.63992 18.24 9.03992C17.88 9.47992 17.6 10.2399 17.4 11.4399Z" fill="#1F3D8C"/>
<path d="M30.3198 6.23988V8.35988C31.1998 7.47988 31.9998 6.87988 32.7598 6.47988C33.5198 6.07988 34.2798 5.87988 35.1198 5.87988C35.9998 5.87988 36.6798 6.07988 37.1598 6.43988C37.6398 6.83988 37.9598 7.35988 38.0398 8.07988C39.5198 6.59988 41.0398 5.87988 42.5198 5.87988C43.5998 5.87988 44.3998 6.15988 44.9198 6.75988C45.4398 7.35988 45.5998 8.15988 45.4798 9.19988L44.2398 17.9999H40.6798L41.7998 10.1599C41.8798 9.67988 41.8398 9.31988 41.6798 9.11988C41.5198 8.91988 41.2798 8.83988 40.9198 8.83988C40.5198 8.83988 40.0798 8.95988 39.6398 9.23988C39.1998 9.47988 38.5598 9.95988 37.7998 10.6399L36.7598 17.9999H33.3198L34.3998 10.1599C34.4798 9.67988 34.4398 9.35988 34.3198 9.15988C34.1998 8.95988 33.9198 8.87988 33.5598 8.87988C33.1598 8.87988 32.7198 8.99988 32.2398 9.23988C31.7598 9.47988 31.1998 9.91988 30.4398 10.5599L29.3998 17.9999H25.8398L27.5198 6.19988H30.3198V6.23988Z" fill="#1F3D8C"/>
<path d="M50.6796 6.23996L50.6396 8.51996C51.3596 7.79996 52.1596 7.19996 53.0396 6.71996C53.9196 6.23996 54.7996 5.95996 55.6396 5.95996C57.0396 5.95996 57.9996 6.43996 58.5196 7.43996C59.0396 8.39996 59.1596 10.08 58.8396 12.4C58.6796 13.44 58.4796 14.28 58.2396 15.04C57.9996 15.76 57.7196 16.36 57.3996 16.76C57.0796 17.2 56.6796 17.52 56.2396 17.76C55.7996 18 55.3196 18.16 54.8796 18.24C54.4396 18.32 53.8796 18.36 53.2396 18.36C52.0796 18.36 50.8796 18.24 49.6796 18.04C49.6796 18.8 49.6396 19.52 49.5196 20.28L49.1196 22.6H45.5596L47.8796 6.23996H50.6796ZM50.0796 15.88H51.9196C53.1596 15.88 53.9596 15.68 54.3196 15.28C54.6796 14.88 54.9996 13.88 55.1996 12.32C55.3996 10.84 55.4396 9.83996 55.3196 9.43996C55.1996 8.99996 54.8796 8.79996 54.3196 8.79996C53.9196 8.79996 53.3596 8.95996 52.7196 9.31996C52.0796 9.67996 51.4396 10.16 50.7996 10.72L50.0796 15.88Z" fill="#1F3D8C"/>
<path d="M69.8806 5.91992L69.0806 9.19992H68.2006C67.7206 9.19992 67.1606 9.31992 66.6006 9.51992C66.0406 9.71992 65.2406 10.1199 64.2006 10.6399L63.2006 18.0399H59.6406L61.3206 6.23992H64.0806V8.47992C65.8806 6.75992 67.6006 5.91992 69.1606 5.91992H69.8806Z" fill="#1F3D8C"/>
<path d="M79.8797 15.2399L80.1197 17.4799C78.7997 18.0399 77.0397 18.3199 74.8797 18.3199C72.5997 18.3199 71.0397 17.7999 70.1997 16.7599C69.3597 15.7199 69.0397 14.0799 69.3197 11.9199C69.5997 9.63992 70.2797 8.03992 71.2797 7.19992C72.3197 6.35992 73.9597 5.91992 76.1997 5.91992C78.2797 5.91992 79.7197 6.27992 80.4797 6.95992C81.2397 7.63992 81.5197 8.63992 81.3197 9.99992C81.1597 11.1199 80.7197 11.9199 79.9597 12.3999C79.1997 12.8799 78.0397 13.1599 76.4397 13.2799L72.9197 13.5599C72.9197 14.3599 73.1197 14.8799 73.5197 15.1199C73.8797 15.3999 74.4797 15.5199 75.3197 15.5199C76.8397 15.5199 78.3997 15.3999 79.8797 15.2399ZM73.1197 11.4399L75.8797 11.1599C76.5197 11.1199 76.9997 10.9999 77.2797 10.7599C77.5597 10.5599 77.7597 10.1599 77.8397 9.59992C77.8797 9.07992 77.7997 8.75992 77.5197 8.59992C77.2797 8.47992 76.7597 8.39992 75.9197 8.43992C74.9997 8.43992 74.3197 8.63992 73.9597 9.03992C73.6397 9.47992 73.3197 10.2399 73.1197 11.4399Z" fill="#1F3D8C"/>
</svg>
