<svg width="159" height="20" viewBox="0 0 159 20" fill="none" xmlns="http://www.w3.org/2000/svg">
<g clip-path="url(#clip0)">
<path d="M78.7007 0H156.334C157.901 0 159.134 1.4 158.867 2.96667L156.534 17.8333C156.334 19.0667 155.267 20 154.001 20H76.6673C75.6007 20 74.634 19.3667 74.2007 18.3667L71.1007 11C70.834 10.3667 70.9007 9.63333 71.2673 9.06667L76.434 1.2C76.9673 0.466667 77.8007 0 78.7007 0Z" fill="#35B6B4"/>
<path d="M79.7998 14.7334L81.0665 5.8334C81.7998 5.76673 82.7665 5.7334 84.0331 5.7334C85.0331 5.7334 85.7331 5.9334 86.0998 6.3334C86.4664 6.7334 86.5664 7.46673 86.4331 8.46673C86.2664 9.5334 85.9665 10.2334 85.5331 10.6001C85.0998 10.9667 84.3665 11.1334 83.3665 11.1334C82.6331 11.1334 81.8998 11.1001 81.1998 11.0334L80.6998 14.7001H79.7998V14.7334ZM81.2331 10.4334H83.3331C84.0665 10.4334 84.5998 10.2667 84.9331 10.0001C85.2665 9.7334 85.4665 9.20007 85.5665 8.40007C85.6665 7.6334 85.5998 7.10007 85.3665 6.8334C85.1331 6.56673 84.6665 6.4334 83.9665 6.4334C83.1998 6.4334 82.4665 6.4334 81.7998 6.46673L81.2331 10.4334Z" fill="white"/>
<path d="M87.333 14.7334L88.5997 5.8334C89.633 5.76673 90.633 5.7334 91.533 5.7334C92.833 5.7334 93.6997 6.06673 94.1663 6.76673C94.5997 7.46673 94.6997 8.6334 94.4663 10.3334C94.333 11.2667 94.1663 12.0001 93.9663 12.6001C93.7663 13.1667 93.4997 13.6334 93.133 13.9667C92.7997 14.3001 92.3997 14.5334 91.9663 14.6667C91.533 14.8001 90.9663 14.8667 90.2997 14.8667C89.433 14.8334 88.433 14.8001 87.333 14.7334ZM89.3663 6.46673L88.2997 14.0667C89.1663 14.1001 89.833 14.1001 90.2997 14.1001C90.9997 14.1001 91.5663 14.0001 91.9663 13.7667C92.3663 13.5667 92.6997 13.1667 92.9663 12.6334C93.233 12.1001 93.433 11.3001 93.5663 10.2334C93.7663 8.76673 93.733 7.76673 93.4663 7.2334C93.1663 6.70007 92.533 6.4334 91.533 6.4334C91.3997 6.4334 90.6997 6.46673 89.3663 6.46673Z" fill="white"/>
<path d="M103.3 5.83325L99.2331 14.4999C99.1664 14.6666 99.0664 14.7333 98.8997 14.7333H97.9997C97.8331 14.7333 97.7331 14.6333 97.6997 14.4666L96.0664 5.83325H96.9331L98.1997 13.1333C98.1997 13.1999 98.2331 13.2999 98.2664 13.4333C98.2997 13.5666 98.2997 13.6999 98.3331 13.7999C98.3664 13.8999 98.3664 13.9999 98.3664 14.0999H98.6997C98.8664 13.7333 98.9997 13.3666 99.1331 13.0666L102.433 5.83325H103.3Z" fill="white"/>
<path d="M113.033 5.89997L112.867 6.5333C112.1 6.4333 111.333 6.39997 110.567 6.39997C109.5 6.39997 108.7 6.66663 108.233 7.19997C107.767 7.7333 107.433 8.76663 107.233 10.3C107.067 11.7 107.1 12.7 107.333 13.2666C107.567 13.8333 108.067 14.1333 108.833 14.1333C109.3 14.1333 109.733 14 110.133 13.7666C110.533 13.5333 110.967 13.1666 111.467 12.7L111.9 9.56663H112.733L112 14.7333H111.4L111.467 13.4333C110.6 14.4 109.667 14.8666 108.6 14.8666C107.633 14.8666 106.967 14.5 106.6 13.7666C106.233 13.0333 106.167 11.8666 106.367 10.2333C106.533 9.0333 106.767 8.1333 107.133 7.4333C107.467 6.76663 107.933 6.29997 108.433 6.0333C108.967 5.76663 109.633 5.6333 110.5 5.6333C111.5 5.66663 112.333 5.76663 113.033 5.89997Z" fill="white"/>
<path d="M120.5 6.53327H116.9C116.3 6.53327 115.933 6.8666 115.866 7.49994L115.566 9.69994H119.566L119.466 10.3666H115.466L115.1 13.1333C115 13.7333 115.266 14.0333 115.866 14.0333H119.433V14.6666C118.633 14.7333 117.433 14.7333 115.766 14.7333C115.2 14.7333 114.8 14.5999 114.533 14.2999C114.266 13.9999 114.166 13.5999 114.233 13.0999L115.066 7.23327C115.133 6.79994 115.3 6.43327 115.6 6.1666C115.9 5.89994 116.3 5.7666 116.8 5.7666C118.533 5.7666 119.833 5.79994 120.633 5.83327L120.5 6.53327Z" fill="white"/>
<path d="M125.067 10.9332L123.233 10.2332C122.633 9.99984 122.2 9.69984 122 9.33317C121.8 8.9665 121.7 8.4665 121.8 7.83317C121.867 7.3665 122 6.9665 122.133 6.6665C122.3 6.3665 122.533 6.1665 122.8 5.99984C123.1 5.8665 123.4 5.7665 123.7 5.73317C124 5.69984 124.4 5.6665 124.867 5.6665C125.8 5.6665 126.633 5.73317 127.433 5.89984L127.333 6.49984C126.367 6.43317 125.533 6.43317 124.767 6.43317C124.533 6.43317 124.333 6.43317 124.2 6.43317C124.067 6.43317 123.933 6.4665 123.733 6.49984C123.533 6.53317 123.4 6.5665 123.3 6.63317C123.2 6.69984 123.1 6.7665 123 6.89984C122.9 6.99984 122.8 7.13317 122.733 7.33317C122.667 7.49984 122.633 7.69984 122.6 7.9665C122.533 8.43317 122.6 8.7665 122.733 8.9665C122.867 9.1665 123.167 9.3665 123.6 9.5665L125.4 10.2665C126.067 10.5332 126.5 10.8332 126.7 11.1998C126.9 11.5665 126.967 12.0665 126.867 12.7332C126.8 13.1998 126.7 13.5998 126.533 13.8998C126.367 14.1998 126.167 14.3998 125.867 14.5665C125.567 14.7332 125.267 14.8332 124.933 14.8665C124.6 14.8998 124.167 14.9332 123.6 14.9332C122.667 14.9332 121.8 14.8665 120.967 14.7332L121.067 14.0998C122.1 14.1665 122.967 14.1665 123.633 14.1665C124.467 14.1665 125.033 14.0665 125.367 13.8665C125.7 13.6665 125.9 13.2665 126 12.5998C126.067 12.1332 126.033 11.7665 125.9 11.5665C125.8 11.3332 125.5 11.1332 125.067 10.9332Z" fill="white"/>
<path d="M135.467 6.56659H132.5L131.367 14.7333H130.5L131.634 6.56659H128.667L128.767 5.83325H135.534L135.467 6.56659Z" fill="white"/>
<path d="M139.933 5.6665C141.166 5.6665 142.033 6.03317 142.466 6.73317C142.9 7.43317 143 8.63317 142.766 10.3332C142.533 12.0332 142.133 13.2332 141.533 13.8998C140.933 14.5665 140.033 14.8998 138.766 14.8998C137.533 14.8998 136.666 14.5665 136.233 13.8665C135.8 13.1665 135.7 11.9665 135.933 10.2665C136.166 8.5665 136.566 7.39984 137.166 6.69984C137.733 5.99984 138.666 5.6665 139.933 5.6665ZM139.9 6.43317C138.933 6.43317 138.2 6.69984 137.766 7.2665C137.333 7.83317 137 8.83317 136.766 10.3332C136.566 11.7665 136.6 12.7665 136.9 13.3332C137.2 13.8998 137.8 14.1665 138.766 14.1665C139.733 14.1665 140.433 13.8998 140.9 13.3332C141.366 12.7665 141.666 11.7665 141.9 10.2665C142.1 8.79984 142.066 7.79984 141.8 7.2665C141.5 6.69984 140.866 6.43317 139.9 6.43317Z" fill="white"/>
<path d="M144.167 14.7334L145.434 5.8334C146.167 5.76673 147.134 5.7334 148.4 5.7334C149.367 5.7334 150.067 5.9334 150.467 6.30006C150.867 6.66673 151 7.3334 150.867 8.3334C150.767 9.06673 150.567 9.60006 150.234 9.96673C149.934 10.3334 149.467 10.5334 148.867 10.6334V10.7001C149.334 10.8334 149.634 11.2667 149.767 11.9667L150.334 14.7667H149.467L148.934 11.9667C148.867 11.6001 148.734 11.3334 148.567 11.2001C148.4 11.0334 148.134 10.9667 147.834 10.9667C147.567 10.9667 147.267 10.9667 146.934 10.9667C146.6 10.9667 146.334 10.9667 146.134 10.9667C145.934 10.9667 145.734 10.9667 145.6 10.9667L145 14.7334H144.167ZM145.634 10.1667H147.734C148.467 10.1667 149 10.0334 149.3 9.7334C149.634 9.46673 149.834 8.96673 149.934 8.2334C150.034 7.5334 149.967 7.0334 149.734 6.80006C149.5 6.56673 149.034 6.4334 148.3 6.4334C147.534 6.4334 146.8 6.4334 146.1 6.46673L145.634 10.1667Z" fill="white"/>
<path d="M73.3662 10.9C73.7712 10.9 74.0995 10.5717 74.0995 10.1667C74.0995 9.76167 73.7712 9.43335 73.3662 9.43335C72.9611 9.43335 72.6328 9.76167 72.6328 10.1667C72.6328 10.5717 72.9611 10.9 73.3662 10.9Z" fill="white"/>
<path d="M6.2 9.8L3.56667 8.73333C2.56667 8.33333 1.9 7.8 1.53333 7.13333C1.2 6.46667 1.06667 5.66667 1.2 4.66667C1.4 3.2 1.9 2.23333 2.73333 1.73333C3.56667 1.23333 4.83333 1 6.56667 1C8.3 1 9.8 1.2 11.1 1.56667L10.8 3.63333C9.6 3.6 8.16667 3.56667 6.5 3.56667C5.66667 3.56667 5.13333 3.6 4.83333 3.76667C4.53333 3.9 4.33333 4.26667 4.23333 4.9C4.16667 5.36667 4.2 5.66667 4.33333 5.83333C4.46667 6 4.8 6.2 5.33333 6.4L7.83333 7.36667C8.9 7.76667 9.6 8.3 9.93333 8.9C10.2667 9.53333 10.3667 10.3667 10.2333 11.4333C10.0333 12.9333 9.53333 13.9667 8.76667 14.5C7.96667 15.0333 6.66667 15.3 4.76667 15.3C3.2 15.3 1.63333 15.1333 0 14.7667L0.333333 12.6C3.16667 12.6667 4.63333 12.7 4.66667 12.7C5.6 12.7 6.23333 12.6 6.56667 12.4333C6.9 12.2667 7.1 11.8667 7.2 11.3C7.26667 10.8333 7.2 10.5333 7.06667 10.3667C6.93333 10.1667 6.66667 9.96667 6.2 9.8Z" fill="#1F3D8C"/>
<path d="M20.1335 12.7L20.3335 14.5667C19.2335 15.0333 17.7668 15.2667 15.9668 15.2667C14.0668 15.2667 12.7668 14.8333 12.0668 13.9667C11.3668 13.1 11.1002 11.7333 11.3335 9.93335C11.5668 8.03335 12.1335 6.70002 12.9668 6.00002C13.8335 5.30002 15.2002 4.93335 17.0668 4.93335C18.8002 4.93335 20.0002 5.23335 20.6335 5.80002C21.2668 6.36668 21.5002 7.20002 21.3335 8.33335C21.2002 9.26668 20.8335 9.93335 20.2002 10.3333C19.5668 10.7333 18.6002 10.9667 17.2668 11.0667L14.3335 11.3C14.3335 11.9667 14.5002 12.4 14.8335 12.6C15.1335 12.8333 15.6335 12.9333 16.3335 12.9333C17.6002 12.9333 18.8668 12.8333 20.1335 12.7ZM14.5002 9.53335L16.8002 9.30002C17.3335 9.26668 17.7335 9.16668 17.9668 8.96668C18.2002 8.80002 18.3668 8.46668 18.4335 8.00002C18.4668 7.56668 18.4002 7.30002 18.1668 7.16668C17.9668 7.06668 17.5335 7.00002 16.8335 7.03335C16.0668 7.03335 15.5002 7.20002 15.2002 7.53335C14.9002 7.90002 14.6668 8.53335 14.5002 9.53335Z" fill="#1F3D8C"/>
<path d="M25.2665 5.20015V6.96681C25.9999 6.23348 26.6665 5.73348 27.2999 5.40015C27.9332 5.06681 28.5665 4.90015 29.2665 4.90015C29.9999 4.90015 30.5665 5.06681 30.9665 5.36681C31.3665 5.70015 31.6332 6.13348 31.6999 6.73348C32.9332 5.50015 34.1999 4.90015 35.4332 4.90015C36.3332 4.90015 36.9999 5.13348 37.4332 5.63348C37.8665 6.13348 37.9999 6.80015 37.8999 7.66681L36.8665 15.0001H33.8999L34.8332 8.46681C34.8999 8.06681 34.8665 7.76681 34.7332 7.60015C34.5999 7.43348 34.3999 7.36681 34.0999 7.36681C33.7665 7.36681 33.3999 7.46681 33.0332 7.70015C32.6665 7.90015 32.1332 8.30015 31.4999 8.86681L30.6332 15.0001H27.7665L28.6665 8.46681C28.7332 8.06681 28.6999 7.80015 28.5999 7.63348C28.4999 7.46681 28.2665 7.40015 27.9665 7.40015C27.6332 7.40015 27.2665 7.50015 26.8665 7.70015C26.4999 7.90015 25.9999 8.26681 25.3665 8.80015L24.4999 15.0001H21.5332L22.9332 5.16681H25.2665V5.20015Z" fill="#1F3D8C"/>
<path d="M42.2335 5.20013L42.2001 7.10013C42.8001 6.50013 43.4668 6.00013 44.2001 5.60013C44.9335 5.20013 45.6668 4.9668 46.3668 4.9668C47.5335 4.9668 48.3335 5.3668 48.7668 6.20013C49.2001 7.00013 49.3001 8.40013 49.0335 10.3335C48.9001 11.2001 48.7335 11.9001 48.5335 12.5335C48.3335 13.1335 48.1001 13.6335 47.8335 13.9668C47.5668 14.3335 47.2335 14.6001 46.8668 14.8001C46.5001 15.0001 46.1001 15.1335 45.7335 15.2001C45.3668 15.2668 44.9001 15.3001 44.3668 15.3001C43.4001 15.3001 42.4001 15.2001 41.4001 15.0335C41.4001 15.6668 41.3668 16.2668 41.2668 16.9001L40.9335 18.8335H37.9668L39.9001 5.20013H42.2335ZM41.7335 13.2335H43.2668C44.3001 13.2335 44.9668 13.0668 45.2668 12.7335C45.5668 12.4001 45.8335 11.5668 46.0001 10.2668C46.1668 9.03346 46.2001 8.20013 46.1001 7.8668C46.0001 7.50013 45.7335 7.33346 45.2668 7.33346C44.9335 7.33346 44.4668 7.4668 43.9335 7.7668C43.4001 8.0668 42.8668 8.4668 42.3335 8.93346L41.7335 13.2335Z" fill="#1F3D8C"/>
<path d="M58.2335 4.93335L57.5669 7.66668H56.8335C56.4335 7.66668 55.9669 7.76668 55.5002 7.93335C55.0335 8.10002 54.3669 8.43335 53.5002 8.86668L52.6669 15.0333H49.7002L51.1002 5.20002H53.4002V7.06668C54.9002 5.63335 56.3335 4.93335 57.6335 4.93335H58.2335Z" fill="#1F3D8C"/>
<path d="M66.5661 12.7L66.7661 14.5667C65.6661 15.0333 64.1995 15.2667 62.3995 15.2667C60.4995 15.2667 59.1995 14.8333 58.4995 13.9667C57.7995 13.1 57.5328 11.7333 57.7661 9.93335C57.9995 8.03335 58.5661 6.70002 59.3995 6.00002C60.2661 5.30002 61.6328 4.93335 63.4995 4.93335C65.2328 4.93335 66.4328 5.23335 67.0661 5.80002C67.6995 6.36668 67.9328 7.20002 67.7661 8.33335C67.6328 9.26668 67.2661 9.93335 66.6328 10.3333C65.9995 10.7333 65.0328 10.9667 63.6995 11.0667L60.7661 11.3C60.7661 11.9667 60.9328 12.4 61.2661 12.6C61.5661 12.8333 62.0661 12.9333 62.7661 12.9333C64.0328 12.9333 65.3328 12.8333 66.5661 12.7ZM60.9328 9.53335L63.2328 9.30002C63.7661 9.26668 64.1661 9.16668 64.3995 8.96668C64.6328 8.80002 64.7995 8.46668 64.8661 8.00002C64.8995 7.56668 64.8328 7.30002 64.5995 7.16668C64.3995 7.06668 63.9661 7.00002 63.2661 7.03335C62.4995 7.03335 61.9328 7.20002 61.6328 7.53335C61.3661 7.90002 61.0995 8.53335 60.9328 9.53335Z" fill="#1F3D8C"/>
</g>
<defs>
<clipPath id="clip0">
<rect width="158.9" height="20" fill="white"/>
</clipPath>
</defs>
</svg>
