<svg width="159" height="24" viewBox="0 0 159 24" fill="none" xmlns="http://www.w3.org/2000/svg">
<path d="M94.4406 -0.000244141H155.561C157.441 -0.000244141 158.921 1.67976 158.601 3.55976L155.801 21.3998C155.561 22.8798 154.281 23.9998 152.761 23.9998H92.0006C90.7206 23.9998 89.5606 23.2398 89.0406 22.0398L85.3206 13.1998C85.0006 12.4398 85.0806 11.5598 85.5206 10.8798L91.7206 1.43976C92.3606 0.559756 93.3606 -0.000244141 94.4406 -0.000244141Z" fill="#C51A19"/>
<path d="M104.08 7.07977L103.88 7.83977C102.96 7.71977 102.04 7.67977 101.12 7.67977C99.8002 7.67977 98.8802 7.99977 98.3202 8.63977C97.7602 9.27977 97.3602 10.5198 97.1202 12.3598C96.9202 14.0398 96.9602 15.2398 97.2402 15.9198C97.5202 16.5998 98.1202 16.9598 99.0402 16.9598C99.6002 16.9598 100.12 16.7998 100.6 16.5198C101.08 16.2398 101.6 15.7998 102.2 15.2398L102.72 11.4798H103.72L102.84 17.6798H102.12L102.2 16.1198C101.16 17.2798 100.04 17.8398 98.7602 17.8398C97.6002 17.8398 96.8002 17.3998 96.3602 16.5198C95.9202 15.6398 95.8402 14.2398 96.0802 12.2798C96.2802 10.8398 96.5602 9.75977 97.0002 8.91977C97.4002 8.11977 97.9602 7.55977 98.5602 7.23977C99.2002 6.91977 100 6.75977 101.04 6.75977C102.24 6.79977 103.24 6.91977 104.08 7.07977Z" fill="white"/>
<path d="M113.04 7.8398H108.72C108 7.8398 107.56 8.2398 107.48 8.9998L107.12 11.6398H111.92L111.8 12.4398H107L106.56 15.7598C106.44 16.4798 106.76 16.8398 107.48 16.8398H111.76V17.5998C110.8 17.6798 109.36 17.6798 107.36 17.6798C106.68 17.6798 106.2 17.5198 105.88 17.1598C105.56 16.7998 105.44 16.3198 105.52 15.7198L106.52 8.6798C106.6 8.1598 106.8 7.7198 107.16 7.3998C107.52 7.0798 108 6.9198 108.6 6.9198C110.68 6.9198 112.24 6.9598 113.2 6.9998L113.04 7.8398Z" fill="white"/>
<path d="M118.52 13.1197L116.32 12.2797C115.6 11.9997 115.08 11.6397 114.84 11.1997C114.6 10.7597 114.48 10.1597 114.6 9.39974C114.68 8.83974 114.84 8.35974 115 7.99974C115.2 7.63974 115.48 7.39974 115.8 7.19974C116.16 7.03974 116.52 6.91974 116.88 6.87974C117.24 6.83974 117.72 6.79974 118.28 6.79974C119.4 6.79974 120.4 6.87974 121.36 7.07974L121.24 7.79974C120.08 7.71974 119.08 7.71974 118.16 7.71974C117.88 7.71974 117.64 7.71974 117.48 7.71974C117.32 7.71974 117.16 7.75974 116.92 7.79974C116.68 7.83974 116.52 7.87974 116.4 7.95974C116.28 8.03974 116.16 8.11974 116.04 8.27974C115.92 8.39974 115.8 8.55974 115.72 8.79974C115.64 8.99974 115.6 9.23974 115.56 9.55974C115.48 10.1197 115.56 10.5197 115.72 10.7597C115.88 10.9997 116.24 11.2397 116.76 11.4797L118.92 12.3197C119.72 12.6397 120.24 12.9997 120.48 13.4397C120.72 13.8797 120.8 14.4797 120.68 15.2797C120.6 15.8397 120.48 16.3197 120.28 16.6797C120.08 17.0397 119.84 17.2797 119.48 17.4797C119.12 17.6797 118.76 17.7997 118.36 17.8397C117.96 17.8797 117.44 17.9197 116.76 17.9197C115.64 17.9197 114.6 17.8397 113.6 17.6797L113.72 16.9197C114.96 16.9997 116 16.9997 116.8 16.9997C117.8 16.9997 118.48 16.8797 118.88 16.6397C119.28 16.3997 119.52 15.9197 119.64 15.1197C119.72 14.5597 119.68 14.1197 119.52 13.8797C119.4 13.5997 119.04 13.3597 118.52 13.1197Z" fill="white"/>
<path d="M131 7.8797H127.44L126.08 17.6797H125.04L126.4 7.8797H122.84L122.96 6.99969H131.08L131 7.8797Z" fill="white"/>
<path d="M136.36 6.79974C137.84 6.79974 138.88 7.19974 139.4 8.07974C139.92 8.91974 140.04 10.3597 139.76 12.3997C139.48 14.4397 139 15.8797 138.28 16.6797C137.56 17.4797 136.48 17.8797 134.96 17.8797C133.48 17.8797 132.44 17.4797 131.92 16.6397C131.4 15.7997 131.28 14.3597 131.56 12.3197C131.84 10.2797 132.32 8.87974 133.04 8.03974C133.72 7.19974 134.84 6.79974 136.36 6.79974ZM136.32 7.71974C135.16 7.71974 134.28 8.03974 133.76 8.71974C133.24 9.39974 132.84 10.5997 132.56 12.3997C132.32 14.1197 132.36 15.3197 132.72 15.9997C133.08 16.6797 133.8 16.9997 134.96 16.9997C136.12 16.9997 136.96 16.6797 137.52 15.9997C138.08 15.3197 138.44 14.1197 138.72 12.3197C138.96 10.5597 138.92 9.35974 138.6 8.71974C138.24 8.03974 137.48 7.71974 136.32 7.71974Z" fill="white"/>
<path d="M141.44 17.6798L142.96 6.99976C143.84 6.91976 145 6.87976 146.52 6.87976C147.68 6.87976 148.52 7.11976 149 7.55976C149.48 7.99976 149.64 8.79976 149.48 9.99976C149.36 10.8798 149.12 11.5198 148.72 11.9598C148.36 12.3998 147.8 12.6398 147.08 12.7598V12.8398C147.64 12.9998 148 13.5198 148.16 14.3598L148.84 17.7198H147.8L147.16 14.3598C147.08 13.9198 146.92 13.5998 146.72 13.4398C146.52 13.2398 146.2 13.1598 145.84 13.1598C145.52 13.1598 145.16 13.1598 144.76 13.1598C144.36 13.1598 144.04 13.1598 143.8 13.1598C143.56 13.1598 143.32 13.1598 143.16 13.1598L142.52 17.7598H141.44V17.6798ZM143.2 12.1998H145.72C146.6 12.1998 147.24 12.0398 147.6 11.6798C148 11.3598 148.24 10.7598 148.36 9.87976C148.48 9.03976 148.4 8.43976 148.12 8.15976C147.84 7.83976 147.28 7.71976 146.4 7.71976C145.48 7.71976 144.6 7.71976 143.76 7.75976L143.2 12.1998Z" fill="white"/>
<path d="M88.0402 13.0798C88.5262 13.0798 88.9202 12.6858 88.9202 12.1998C88.9202 11.7138 88.5262 11.3198 88.0402 11.3198C87.5542 11.3198 87.1602 11.7138 87.1602 12.1998C87.1602 12.6858 87.5542 13.0798 88.0402 13.0798Z" fill="white"/>
<path d="M7.44 11.7597L4.28 10.4797C3.08 9.99971 2.28 9.35971 1.84 8.55971C1.44 7.75971 1.28 6.79971 1.44 5.59971C1.68 3.83971 2.28 2.67971 3.28 2.07971C4.28 1.47971 5.8 1.19971 7.88 1.19971C9.96 1.19971 11.76 1.43971 13.32 1.87971L12.96 4.35971C11.52 4.31971 9.8 4.27971 7.8 4.27971C6.8 4.27971 6.16 4.31971 5.8 4.51971C5.44 4.67971 5.2 5.11971 5.08 5.87971C5 6.43971 5.04 6.79971 5.2 6.99971C5.36 7.19971 5.76 7.43971 6.4 7.67971L9.4 8.83971C10.68 9.31971 11.52 9.95971 11.92 10.6797C12.32 11.4397 12.44 12.4397 12.28 13.7197C12.04 15.5197 11.44 16.7597 10.52 17.3997C9.56 18.0397 8 18.3597 5.72 18.3597C3.84 18.3597 1.96 18.1597 0 17.7197L0.4 15.1197C3.8 15.1997 5.56 15.2397 5.6 15.2397C6.72 15.2397 7.48 15.1197 7.88 14.9197C8.28 14.7197 8.52 14.2397 8.64 13.5597C8.72 12.9997 8.64 12.6397 8.48 12.4397C8.32 12.1997 8 11.9597 7.44 11.7597Z" fill="white"/>
<path d="M24.16 15.2397L24.4 17.4797C23.08 18.0397 21.32 18.3197 19.16 18.3197C16.88 18.3197 15.32 17.7997 14.48 16.7597C13.64 15.7197 13.32 14.0797 13.6 11.9197C13.88 9.63974 14.56 8.03974 15.56 7.19974C16.6 6.35974 18.24 5.91974 20.48 5.91974C22.56 5.91974 24 6.27974 24.76 6.95974C25.52 7.63974 25.8 8.63974 25.6 9.99974C25.44 11.1197 25 11.9197 24.24 12.3997C23.48 12.8797 22.32 13.1597 20.72 13.2797L17.2 13.5597C17.2 14.3597 17.4 14.8797 17.8 15.1197C18.16 15.3997 18.76 15.5197 19.6 15.5197C21.12 15.5197 22.64 15.3997 24.16 15.2397ZM17.4 11.4397L20.16 11.1597C20.8 11.1197 21.28 10.9997 21.56 10.7597C21.84 10.5597 22.04 10.1597 22.12 9.59974C22.16 9.07974 22.08 8.75974 21.8 8.59974C21.56 8.47974 21.04 8.39974 20.2 8.43974C19.28 8.43974 18.6 8.63974 18.24 9.03974C17.88 9.47974 17.6 10.2397 17.4 11.4397Z" fill="white"/>
<path d="M30.3198 6.23976V8.35976C31.1998 7.47976 31.9998 6.87976 32.7598 6.47976C33.5198 6.07976 34.2798 5.87976 35.1198 5.87976C35.9998 5.87976 36.6798 6.07976 37.1598 6.43976C37.6398 6.83976 37.9598 7.35976 38.0398 8.07976C39.5198 6.59976 41.0398 5.87976 42.5198 5.87976C43.5998 5.87976 44.3998 6.15976 44.9198 6.75976C45.4398 7.35976 45.5998 8.15976 45.4798 9.19976L44.2398 17.9998H40.6798L41.7998 10.1598C41.8798 9.67976 41.8398 9.31976 41.6798 9.11976C41.5198 8.91976 41.2798 8.83976 40.9198 8.83976C40.5198 8.83976 40.0798 8.95976 39.6398 9.23976C39.1998 9.47976 38.5598 9.95976 37.7998 10.6398L36.7598 17.9998H33.3198L34.3998 10.1598C34.4798 9.67976 34.4398 9.35976 34.3198 9.15976C34.1998 8.95976 33.9198 8.87976 33.5598 8.87976C33.1598 8.87976 32.7198 8.99976 32.2398 9.23976C31.7998 9.47976 31.1998 9.91976 30.4398 10.5598L29.3998 17.9998H25.8398L27.5198 6.19976H30.3198V6.23976Z" fill="white"/>
<path d="M50.6796 6.23978L50.6396 8.51978C51.3596 7.79978 52.1596 7.19978 53.0396 6.71978C53.9196 6.23978 54.7996 5.95978 55.6396 5.95978C57.0396 5.95978 57.9996 6.43978 58.5196 7.43978C59.0396 8.39978 59.1596 10.0798 58.8396 12.3998C58.6796 13.4398 58.4796 14.2798 58.2396 15.0398C57.9996 15.7598 57.7196 16.3598 57.3996 16.7598C57.0796 17.1998 56.6796 17.5198 56.2396 17.7598C55.7996 17.9998 55.3196 18.1598 54.8796 18.2398C54.4396 18.3198 53.8796 18.3598 53.2396 18.3598C52.0796 18.3598 50.8796 18.2398 49.6796 18.0398C49.6796 18.7998 49.6396 19.5198 49.5196 20.2798L49.1196 22.5998H45.5596L47.8796 6.23978H50.6796ZM50.0796 15.8798H51.9196C53.1596 15.8798 53.9596 15.6798 54.3196 15.2798C54.6796 14.8798 54.9996 13.8798 55.1996 12.3198C55.3996 10.8398 55.4396 9.83978 55.3196 9.43978C55.1996 8.99978 54.8796 8.79978 54.3196 8.79978C53.9196 8.79978 53.3596 8.95978 52.7196 9.31978C52.0796 9.67978 51.4396 10.1598 50.7996 10.7198L50.0796 15.8798Z" fill="white"/>
<path d="M69.8806 5.91974L69.0806 9.19974H68.2006C67.7206 9.19974 67.1606 9.31974 66.6006 9.51974C66.0406 9.71974 65.2406 10.1197 64.2006 10.6397L63.2006 18.0397H59.6406L61.3206 6.23974H64.0806V8.47974C65.8806 6.75974 67.6006 5.91974 69.1606 5.91974H69.8806Z" fill="white"/>
<path d="M79.8797 15.2397L80.1197 17.4797C78.7997 18.0397 77.0397 18.3197 74.8797 18.3197C72.5997 18.3197 71.0397 17.7997 70.1997 16.7597C69.3597 15.7197 69.0397 14.0797 69.3197 11.9197C69.5997 9.63974 70.2797 8.03974 71.2797 7.19974C72.3197 6.35974 73.9597 5.91974 76.1997 5.91974C78.2797 5.91974 79.7197 6.27974 80.4797 6.95974C81.2397 7.63974 81.5197 8.63974 81.3197 9.99974C81.1597 11.1197 80.7197 11.9197 79.9597 12.3997C79.1997 12.8797 78.0397 13.1597 76.4397 13.2797L72.9197 13.5597C72.9197 14.3597 73.1197 14.8797 73.5197 15.1197C73.8797 15.3997 74.4797 15.5197 75.3197 15.5197C76.8397 15.5197 78.3997 15.3997 79.8797 15.2397ZM73.1197 11.4397L75.8797 11.1597C76.5197 11.1197 76.9997 10.9997 77.2797 10.7597C77.5597 10.5597 77.7597 10.1597 77.8397 9.59974C77.8797 9.07974 77.7997 8.75974 77.5197 8.59974C77.2797 8.47974 76.7597 8.39974 75.9197 8.43974C74.9997 8.43974 74.3197 8.63974 73.9597 9.03974C73.6397 9.47974 73.3197 10.2397 73.1197 11.4397Z" fill="white"/>
</svg>
