<svg width="139" height="20" viewBox="0 0 139 20" fill="none" xmlns="http://www.w3.org/2000/svg">
<path d="M78.6255 0H136.183C137.76 0 138.982 1.42494 138.727 2.95165L136.386 17.8117C136.183 19.084 135.114 20 133.842 20H76.5899C75.5212 20 74.5543 19.3384 74.1471 18.3715L71.0428 10.9924C70.7884 10.3817 70.8393 9.61832 71.1955 9.05852L76.3863 1.17048C76.8952 0.458015 77.7095 0 78.6255 0Z" fill="#F07E26"/>
<path d="M86.1206 6.36279H82.5377C81.9276 6.36279 81.5839 6.6807 81.5066 7.31652L81.1973 9.50754H85.1798L85.0896 10.1648H81.1071L80.7333 12.923C80.6388 13.533 80.8966 13.838 81.5066 13.838H85.0638V14.4824C84.2733 14.534 83.0489 14.5598 81.3906 14.5598C80.8407 14.5598 80.4326 14.4137 80.1662 14.1216C79.8999 13.8294 79.801 13.4342 79.8698 12.9358L80.6946 7.08453C80.7548 6.63774 80.9352 6.28546 81.2359 6.02769C81.5367 5.76992 81.9319 5.64104 82.4217 5.64104C84.1659 5.64104 85.4375 5.66682 86.2366 5.71837L86.1206 6.36279Z" fill="white"/>
<path d="M95.3447 5.65393H96.35C96.4702 5.65393 96.5605 5.69259 96.6206 5.76992C96.6808 5.83866 96.7065 5.93317 96.6979 6.05347L95.8731 14.5469H95.0353L95.8473 6.36279H95.5766L92.2772 13.3483C92.2085 13.5287 92.0796 13.6189 91.8906 13.6189H91.04C90.8251 13.6189 90.7049 13.5158 90.6791 13.3096L89.3 6.36279H89.0165L87.5472 14.5469H86.6966L88.2561 6.0148C88.3076 5.77422 88.4408 5.65393 88.6556 5.65393H89.648C89.8456 5.65393 89.9573 5.75703 89.9831 5.96325L91.1559 11.7759C91.1817 11.9134 91.2161 12.1196 91.2591 12.3945C91.302 12.6609 91.3364 12.8585 91.3622 12.9874H91.6457C91.8433 12.5148 92.0238 12.1067 92.187 11.763L94.9451 5.93747C95.0225 5.74844 95.1556 5.65393 95.3447 5.65393Z" fill="white"/>
<path d="M98.9294 14.5469H98.0788L99.329 5.65393H100.18L98.9294 14.5469Z" fill="white"/>
<path d="M105.077 10.7706L103.247 10.0617C102.637 9.82116 102.225 9.51614 102.01 9.14667C101.795 8.7772 101.726 8.27885 101.804 7.65162C101.872 7.17046 101.988 6.78381 102.152 6.49167C102.315 6.19094 102.538 5.97184 102.822 5.83436C103.114 5.69689 103.41 5.60667 103.711 5.56371C104.02 5.52075 104.416 5.50356 104.897 5.51216C105.816 5.51216 106.667 5.58519 107.449 5.73126L107.346 6.33701C106.392 6.28546 105.541 6.25968 104.794 6.25968C104.544 6.25968 104.355 6.26398 104.227 6.27257C104.106 6.27257 103.952 6.28975 103.763 6.32412C103.582 6.3499 103.445 6.39286 103.35 6.45301C103.256 6.51315 103.153 6.59907 103.041 6.71077C102.938 6.81388 102.856 6.95135 102.796 7.1232C102.736 7.29504 102.689 7.50126 102.654 7.74184C102.603 8.19723 102.641 8.53233 102.77 8.74713C102.908 8.96194 103.195 9.15956 103.634 9.34L105.438 10.036C106.1 10.2937 106.534 10.6031 106.74 10.9639C106.946 11.3162 107.006 11.8232 106.92 12.4848C106.851 12.9659 106.74 13.3526 106.585 13.6447C106.43 13.9368 106.207 14.1602 105.915 14.3149C105.623 14.4696 105.309 14.5684 104.974 14.6113C104.639 14.6629 104.196 14.6887 103.647 14.6887C102.719 14.6887 101.846 14.6242 101.03 14.4953L101.146 13.8638C102.186 13.9154 103.041 13.9411 103.711 13.9411C104.527 13.9325 105.099 13.8337 105.425 13.6447C105.76 13.4557 105.975 13.039 106.07 12.3945C106.13 11.9134 106.091 11.5697 105.954 11.3635C105.825 11.1573 105.533 10.9596 105.077 10.7706Z" fill="white"/>
<path d="M112.264 10.7706L110.434 10.0617C109.824 9.82116 109.411 9.51614 109.197 9.14667C108.982 8.7772 108.913 8.27885 108.99 7.65162C109.059 7.17046 109.175 6.78381 109.338 6.49167C109.502 6.19094 109.725 5.97184 110.008 5.83436C110.301 5.69689 110.597 5.60667 110.898 5.56371C111.207 5.52075 111.602 5.50356 112.083 5.51216C113.003 5.51216 113.854 5.58519 114.635 5.73126L114.532 6.33701C113.579 6.28546 112.728 6.25968 111.98 6.25968C111.731 6.25968 111.542 6.26398 111.413 6.27257C111.293 6.27257 111.138 6.28975 110.949 6.32412C110.769 6.3499 110.631 6.39286 110.537 6.45301C110.442 6.51315 110.339 6.59907 110.228 6.71077C110.124 6.81388 110.043 6.95135 109.983 7.1232C109.923 7.29504 109.875 7.50126 109.841 7.74184C109.789 8.19723 109.828 8.53233 109.957 8.74713C110.094 8.96194 110.382 9.15956 110.82 9.34L112.625 10.036C113.286 10.2937 113.72 10.6031 113.927 10.9639C114.133 11.3162 114.193 11.8232 114.107 12.4848C114.038 12.9659 113.927 13.3526 113.772 13.6447C113.617 13.9368 113.394 14.1602 113.102 14.3149C112.81 14.4696 112.496 14.5684 112.161 14.6113C111.826 14.6629 111.383 14.6887 110.833 14.6887C109.905 14.6887 109.033 14.6242 108.217 14.4953L108.333 13.8638C109.373 13.9154 110.228 13.9411 110.898 13.9411C111.714 13.9325 112.285 13.8337 112.612 13.6447C112.947 13.4557 113.162 13.039 113.256 12.3945C113.316 11.9134 113.278 11.5697 113.14 11.3635C113.011 11.1573 112.719 10.9596 112.264 10.7706Z" fill="white"/>
<path d="M119.992 5.49927C121.238 5.49927 122.08 5.85155 122.518 6.55611C122.956 7.25208 123.055 8.4464 122.815 10.1391C122.583 11.8403 122.17 13.0261 121.577 13.6963C120.984 14.3665 120.065 14.7015 118.819 14.7015C117.573 14.7015 116.727 14.3536 116.28 13.6576C115.842 12.9616 115.739 11.763 115.971 10.0617C116.203 8.36907 116.615 7.18764 117.208 6.51745C117.801 5.83866 118.729 5.49927 119.992 5.49927ZM119.966 6.24679C118.987 6.24679 118.274 6.52604 117.827 7.08453C117.38 7.64303 117.049 8.66121 116.834 10.1391C116.637 11.574 116.68 12.5707 116.963 13.1292C117.255 13.6791 117.878 13.954 118.832 13.954C119.794 13.954 120.499 13.6748 120.946 13.1163C121.401 12.5492 121.732 11.531 121.938 10.0617C122.153 8.60966 122.119 7.61296 121.835 7.07165C121.552 6.52174 120.929 6.24679 119.966 6.24679Z" fill="white"/>
<path d="M124.233 14.5469L125.483 5.65393C126.214 5.58519 127.197 5.55082 128.435 5.55082C129.414 5.55082 130.102 5.73985 130.497 6.11791C130.892 6.48737 131.025 7.15757 130.896 8.12849C130.793 8.85024 130.587 9.39155 130.278 9.75242C129.968 10.1047 129.513 10.3238 128.912 10.4097L128.899 10.4742C129.371 10.6116 129.672 11.0327 129.801 11.7372L130.368 14.5469H129.504L128.963 11.7372C128.894 11.3764 128.77 11.1229 128.589 10.9768C128.418 10.8222 128.173 10.7405 127.855 10.7319C127.588 10.7319 127.292 10.7319 126.965 10.7319C126.639 10.7233 126.368 10.719 126.153 10.719C125.939 10.7105 125.758 10.7062 125.612 10.7062L125.071 14.5469H124.233ZM125.702 9.9973H127.816C128.546 9.98871 129.071 9.85123 129.388 9.58487C129.715 9.30992 129.93 8.81157 130.033 8.08982C130.136 7.38526 130.072 6.90839 129.84 6.65922C129.608 6.40145 129.135 6.27257 128.422 6.27257C127.648 6.27257 126.918 6.28116 126.231 6.29835L125.702 9.9973Z" fill="white"/>
<path d="M73.2828 10.8908C73.6763 10.8908 73.9952 10.5718 73.9952 10.1783C73.9952 9.7848 73.6763 9.46582 73.2828 9.46582C72.8893 9.46582 72.5703 9.7848 72.5703 10.1783C72.5703 10.5718 72.8893 10.8908 73.2828 10.8908Z" fill="white"/>
<path d="M6.20865 9.82189L3.56234 8.75319C2.54453 8.34607 1.88295 7.78627 1.52672 7.17558C1.17048 6.51401 1.0687 5.69976 1.17048 4.73284C1.37405 3.25701 1.88295 2.29009 2.6972 1.78118C3.51145 1.27228 4.83461 1.01782 6.56489 1.01782C8.29517 1.01782 9.82188 1.22138 11.0941 1.57762L10.7888 3.61324C9.56743 3.56235 8.14249 3.56235 6.514 3.56235C5.69975 3.56235 5.13995 3.61324 4.83461 3.76591C4.52926 3.91859 4.3257 4.27482 4.27481 4.88551C4.22392 5.34352 4.22392 5.64887 4.37659 5.85243C4.52926 6.05599 4.83461 6.20866 5.3944 6.41222L7.88804 7.37915C8.95674 7.78627 9.61832 8.29518 9.97456 8.90586C10.3308 9.51655 10.4326 10.3817 10.2799 11.4504C10.0763 12.9771 9.56743 13.9949 8.80407 14.5038C8.04071 15.0127 6.66667 15.2672 4.83461 15.2672C3.20611 15.2672 1.6285 15.1145 0 14.7583L0.305344 12.57C3.15522 12.6209 4.58015 12.6718 4.63104 12.6718C5.54707 12.6718 6.20865 12.57 6.56489 12.4173C6.92112 12.2138 7.12468 11.8575 7.22646 11.2468C7.27735 10.7888 7.22646 10.4835 7.12468 10.3308C6.92112 10.1272 6.66667 9.97457 6.20865 9.82189Z" fill="#1F3D8C"/>
<path d="M20.1025 12.6718L20.3061 14.5547C19.1865 15.0127 17.7615 15.2672 15.9295 15.2672C14.0465 15.2672 12.7234 14.8092 12.0109 13.944C11.2984 13.0789 11.044 11.7048 11.2475 9.87278C11.502 7.93893 12.0618 6.66667 12.876 5.9542C13.7412 5.24173 15.1152 4.8855 16.9982 4.8855C18.7285 4.8855 19.8989 5.19084 20.5605 5.75064C21.1712 6.31043 21.4257 7.17557 21.273 8.29517C21.1203 9.2112 20.7641 9.87278 20.1025 10.2799C19.4918 10.687 18.5249 10.9415 17.2017 10.9924L14.2501 11.1959C14.2501 11.8575 14.4028 12.2646 14.759 12.5191C15.0643 12.7226 15.5732 12.8753 16.2348 12.8753C17.558 12.9262 18.8811 12.8244 20.1025 12.6718ZM14.4536 9.51654L16.7437 9.31298C17.3035 9.26209 17.6598 9.16031 17.9142 9.00764C18.1687 8.85496 18.3213 8.49873 18.3722 8.04071C18.4231 7.5827 18.3213 7.32825 18.1178 7.22646C17.9142 7.12468 17.4562 7.07379 16.7946 7.07379C16.0313 7.07379 15.4715 7.22646 15.1661 7.5827C14.9117 7.88804 14.6572 8.54962 14.4536 9.51654Z" fill="#1F3D8C"/>
<path d="M25.2422 5.19084V6.97201C25.9547 6.25954 26.6163 5.75064 27.2779 5.3944C27.9394 5.03817 28.5501 4.8855 29.2626 4.8855C29.9751 4.8855 30.5349 5.03817 30.9929 5.34351C31.4 5.64886 31.6545 6.10687 31.7053 6.71756C32.9267 5.49618 34.199 4.8855 35.4204 4.8855C36.3364 4.8855 36.998 5.13995 37.4051 5.64886C37.8122 6.15776 37.9649 6.81934 37.8631 7.68448L36.8453 15.0127H33.8936L34.8097 8.49873C34.8606 8.09161 34.8097 7.78626 34.7079 7.63359C34.6061 7.48092 34.4026 7.37914 34.0972 7.37914C33.741 7.37914 33.3847 7.48092 33.0285 7.68448C32.6723 7.88804 32.1634 8.29517 31.5018 8.85496L30.6366 14.9618H27.7868L28.7028 8.44784C28.7537 8.04071 28.7537 7.78626 28.6519 7.5827C28.5501 7.43003 28.3466 7.32825 27.9903 7.32825C27.6341 7.32825 27.2779 7.43003 26.8707 7.63359C26.4636 7.83715 26.0056 8.19339 25.3949 8.75318L24.5298 14.9618H21.5781L22.9522 5.13995H25.2422V5.19084Z" fill="#1F3D8C"/>
<path d="M42.1879 5.19073L42.137 7.07368C42.7477 6.463 43.4093 5.95409 44.1217 5.54697C44.8342 5.13984 45.5976 4.93628 46.31 4.93628C47.4805 4.93628 48.2948 5.3434 48.7019 6.15765C49.1599 6.9719 49.2108 8.34595 48.9563 10.2798C48.8546 11.1449 48.651 11.8574 48.4474 12.4681C48.2439 13.0788 47.9894 13.5368 47.735 13.893C47.4805 14.2493 47.1243 14.5546 46.768 14.7582C46.4118 14.9617 46.0047 15.1144 45.5976 15.1653C45.2922 15.2671 44.8342 15.2671 44.3253 15.2671C43.3584 15.2671 42.3406 15.1653 41.3736 15.0126C41.3736 15.6233 41.3228 16.234 41.221 16.8447L40.8647 18.8294H37.9131L39.8469 5.19073H42.1879ZM41.7299 13.2314H43.2566C44.2744 13.2314 44.936 13.0788 45.2413 12.7225C45.5467 12.3663 45.8011 11.5521 45.9538 10.2798C46.1065 9.00753 46.1574 8.24417 46.0556 7.88793C45.9538 7.5317 45.6993 7.37903 45.2413 7.37903C44.8851 7.37903 44.4271 7.5317 43.9182 7.83704C43.3584 8.14239 42.8495 8.49862 42.2897 9.00753L41.7299 13.2314Z" fill="#1F3D8C"/>
<path d="M58.1677 4.93639L57.5061 7.63359H56.7936C56.3865 7.63359 55.9285 7.73537 55.4705 7.88804C55.0125 8.0916 54.3509 8.39695 53.4857 8.85496L52.6206 15.0127H49.6689L51.043 5.19084H53.3331V7.0229C54.8598 5.59797 56.2338 4.8855 57.557 4.8855H58.1677V4.93639Z" fill="#1F3D8C"/>
<path d="M66.5136 12.6718L66.7172 14.5547C65.5976 15.0127 64.1727 15.2672 62.3406 15.2672C60.4577 15.2672 59.1345 14.8092 58.422 13.944C57.7096 13.0789 57.4551 11.7048 57.6587 9.87278C57.9131 7.93893 58.4729 6.66667 59.2872 5.9542C60.1523 5.24173 61.5264 4.8855 63.4093 4.8855C65.1396 4.8855 66.3101 5.19084 66.9717 5.75064C67.5823 6.31043 67.8368 7.17557 67.6841 8.29517C67.5314 9.2112 67.1752 9.87278 66.5136 10.2799C65.9029 10.687 64.936 10.9415 63.6129 10.9924L60.6612 11.1959C60.6612 11.8575 60.8139 12.2646 61.1701 12.5191C61.4755 12.7226 61.9844 12.8753 62.6459 12.8753C64.02 12.9262 65.2923 12.8244 66.5136 12.6718ZM60.8648 9.51654L63.1549 9.31298C63.7147 9.26209 64.0709 9.16031 64.3253 9.00764C64.5798 8.85496 64.7325 8.49873 64.7834 8.04071C64.8342 7.5827 64.7325 7.32825 64.5289 7.22646C64.3253 7.12468 63.8673 7.07379 63.2057 7.07379C62.4424 7.07379 61.8826 7.22646 61.5772 7.5827C61.3228 7.88804 61.0683 8.54962 60.8648 9.51654Z" fill="#1F3D8C"/>
</svg>
