<svg xmlns="http://www.w3.org/2000/svg" viewBox="0 0 982.14 95.82"><defs><style>.a{fill:#eb790f;}.b{fill:#fff;}.c{fill:#26367e;}</style></defs><path class="a" d="M377,0H969.82A12.32,12.32,0,0,1,982,14.23l-11.22,71.2A12.32,12.32,0,0,1,958.6,95.82H367.35A12.75,12.75,0,0,1,355.61,88L340.68,52.76a9.85,9.85,0,0,1,.84-9.25L366.35,5.75A12.73,12.73,0,0,1,377,0"/><path class="b" d="M396.11,30.46c-3.15,0-4.76,1.61-5.15,4.76l-1.48,10.87,19.81.06-.45,3.22L389,49.43l-1.92,13.76c-.45,3,.9,4.57,3.85,4.57h17.81L408.71,71c-5.92.39-12.35.39-18.33.39-5.52,0-8.23-3.22-7.58-8.11l4.11-29.19c.58-4.37,3.6-7.2,8.62-7.2,6.43,0,13.05,0,19,.39L414,30.46Z"/><path class="b" d="M463.49,26.92a1.65,1.65,0,0,1,1.74,2l-4.11,42.37h-4.18L461,30.46h-1.35L443.18,65.31a1.86,1.86,0,0,1-1.93,1.35H437a1.67,1.67,0,0,1-1.8-1.54l-6.88-34.66h-1.41l-7.33,40.83h-4.25l7.78-42.57c.26-1.22.84-1.8,2-1.8h4.95a1.6,1.6,0,0,1,1.67,1.55l5.85,29c.39,2,.64,4,1,6H440c.91-2.12,1.81-4.18,2.71-6.11l13.76-29.06a1.93,1.93,0,0,1,2-1.42Z"/><polygon class="b" points="470.57 71.29 476.81 26.92 481.05 26.92 474.81 71.29 470.57 71.29"/><path class="b" d="M515.77,27.31l-.51,3c-4.76-.25-8.1-.38-12.73-.38-5.86,0-9.65.06-10.68,7.39-.51,4.5.45,6.17,4.89,8l9,3.48c6.69,2.63,8.23,5.72,7.4,12.21-1.42,9.65-6.37,11-16.34,11a84.13,84.13,0,0,1-13.05-1l.58-3.16c6.49.33,9.45.39,12.8.39,7.58-.06,10.73-1,11.76-7.72.65-4.88-.51-6.3-4.95-8.1l-9.13-3.53c-6.24-2.45-8-5.92-7.2-12,1.35-9.84,6.94-10.8,15.43-10.67a69.53,69.53,0,0,1,12.73,1.09"/><path class="b" d="M550.11,27.31l-.51,3c-4.76-.25-8.11-.38-12.74-.38-5.85,0-9.64.06-10.67,7.39-.51,4.5.45,6.17,4.89,8l9,3.48c6.69,2.63,8.23,5.72,7.39,12.21-1.41,9.65-6.36,11-16.33,11a84.13,84.13,0,0,1-13-1l.58-3.16c6.49.33,9.45.39,12.79.39,7.59-.06,10.74-1,11.77-7.72.64-4.88-.52-6.3-5-8.1l-9.13-3.53c-6.24-2.45-8-5.92-7.2-12,1.35-9.84,6.94-10.8,15.43-10.67a69.6,69.6,0,0,1,12.73,1.09"/><path class="b" d="M589.4,49.3c-2.32,17-7.52,22.76-19.93,22.76-12.22,0-16.59-5.91-14.22-23.15,2.32-16.78,7.4-22.76,20.07-22.76,12.28,0,16.52,6.05,14.08,23.15m-29.84,0c-1.93,14.28.45,19,10,19S583,63.51,585,48.91s-.26-19-9.84-19c-9.84,0-13.5,4.76-15.63,19.42"/><path class="b" d="M618.27,50.65l-.06.32c2.38.71,3.85,2.9,4.5,6.3l2.83,14h-4.31l-2.7-14c-.71-3.73-2.51-5-5.53-5l-11.19-.13-2.7,19.16h-4.18l6.24-44.37a140.8,140.8,0,0,1,14.72-.51c9.32,0,13.63,2.83,12.28,12.86-1,7.2-3.85,10.55-9.9,11.38m-5.46-2.06c7.13-.06,10-2.18,11.06-9.51,1-7.08-1-9.07-8-9.07-4.5,0-8.3.06-10.93.13l-2.58,18.45Z"/><path class="b" d="M679,27.37l-.78,3.16a78.08,78.08,0,0,0-11-.58c-9.71,0-13.5,4.3-15.63,19.35-2,14.28.39,19,9.71,19a73.88,73.88,0,0,0,12.41-.71l.32,3.15a47,47,0,0,1-12.73,1.35c-12.54,0-16.39-6.62-14-23.14,2.31-16.79,7.45-22.77,19.93-22.77A44.52,44.52,0,0,1,679,27.37"/><path class="b" d="M715.43,49.3c-2.31,17-7.52,22.76-19.93,22.76-12.22,0-16.59-5.91-14.21-23.15,2.31-16.78,7.39-22.76,20.06-22.76,12.28,0,16.53,6.05,14.08,23.15m-29.83,0c-1.93,14.28.45,19,10,19s13.44-4.82,15.5-19.42-.26-19-9.84-19c-9.84,0-13.5,4.76-15.62,19.42"/><path class="b" d="M754.21,69.62a1.64,1.64,0,0,1-1.87,1.67H748.1c-1,0-1.48-.51-1.87-1.48l-12.6-33.76c-.58-1.6-1.29-3.53-1.74-5.2h-1.28c-.13,1.8-.32,3.66-.58,5.53l-4.82,34.91H721l6-42.69a1.73,1.73,0,0,1,1.93-1.68h4a1.88,1.88,0,0,1,1.93,1.48l12.28,32.92c.65,1.81,1.42,4,2.06,6.05h1.41c.2-2.06.46-4.12.71-6.17l4.76-34.28h4.18Z"/><polygon class="b" points="784.43 30.65 778.71 71.29 774.46 71.29 780.18 30.65 765.46 30.65 766.04 26.93 799.73 26.93 799.22 30.65 784.43 30.65"/><path class="b" d="M801.66,56.63l-6.94,14.66h-4.5L811.11,28a1.76,1.76,0,0,1,1.74-1.1h4.82a1.55,1.55,0,0,1,1.55,1.29L828,71.29h-4.24L821,56.63Zm14.92-22.7L816,30.2h-1.93c-.58,1.23-1.16,2.58-1.73,3.73l-8.94,19h16.84Z"/><path class="b" d="M868.47,49.3c-2.57,18.39-8,22.57-20.64,22.57-5,0-10.22-.26-14.79-.58l6.24-44.37c4.37-.32,10.09-.58,14.59-.58,13,0,17,5.86,14.6,23M853.81,30c-3.21,0-7.33.06-10.74.13L837.74,68c3.21.07,6.88.13,10,.13,10.28,0,14.14-3.73,16.33-19.23C866.22,34,863.71,30,853.81,30"/><path class="b" d="M909.62,49.3c-2.31,17-7.52,22.76-19.93,22.76-12.21,0-16.59-5.91-14.21-23.15,2.32-16.78,7.4-22.76,20.06-22.76,12.28,0,16.53,6.05,14.08,23.15m-29.83,0c-1.93,14.28.45,19,10,19s13.43-4.82,15.49-19.42-.25-19-9.84-19c-9.83,0-13.5,4.76-15.62,19.42"/><path class="b" d="M938.5,50.65l-.07.32c2.38.71,3.86,2.9,4.5,6.3l2.83,14h-4.31l-2.7-14c-.7-3.73-2.5-5-5.53-5L922,52.13l-2.7,19.16h-4.18l6.23-44.37a141,141,0,0,1,14.73-.51c9.32,0,13.63,2.83,12.28,12.86-1,7.2-3.86,10.55-9.9,11.38M933,48.59c7.14-.06,10-2.18,11.06-9.51,1-7.08-1-9.07-8-9.07-4.5,0-8.29.06-10.93.13l-2.57,18.45Z"/><path class="b" d="M354.94,48.73a3.5,3.5,0,1,1-3.49-3.5,3.5,3.5,0,0,1,3.49,3.5"/><path class="c" d="M29.69,47,17.06,41.91q-7.23-3-9.73-7.65T5.69,22.51Q7.13,12,13.06,8.41T31.52,4.82A78.62,78.62,0,0,1,53.21,7.5l-1.45,9.85q-8.67-.3-20.63-.29c-3.92-.07-6.59.24-8,.91s-2.34,2.47-2.79,5.4c-.33,2.16-.15,3.68.53,4.54s2.26,1.76,4.77,2.72l12,4.59c5.08,2,8.42,4.44,10,7.41s2.09,7,1.45,12.18Q47.62,65.72,42,69.49T22.84,73.26A105.54,105.54,0,0,1,0,70.68L1.54,60.26l20.72.48q6.75,0,9.16-1.29T34.51,54c.25-2.16.06-3.66-.58-4.49A10,10,0,0,0,29.69,47"/><path class="c" d="M96.39,60.83l1,9q-8,3.34-20.92,3.34-13.59,0-18.7-6.3T54.17,47.45q1.72-13.76,7.9-18.83t19.66-5.06q12.54,0,17,4.11t3.32,12.14q-1,6.69-5.49,9.56t-14,3.53L68.53,54q.09,4.69,2.36,6.31t7.18,1.63a155.32,155.32,0,0,0,18.32-1.06m-27-15.19,11.08-1a11.78,11.78,0,0,0,5.64-1.53q1.78-1.25,2.17-4.59c.19-2.1-.21-3.41-1.21-3.92s-3.1-.73-6.31-.67q-5.59,0-7.85,2.34T69.4,45.64"/><path class="c" d="M121.06,24.9v8.5a41.81,41.81,0,0,1,9.69-7.5,20,20,0,0,1,9.39-2.34c3.47,0,6.21.76,8.2,2.29a9.12,9.12,0,0,1,3.47,6.5q9-8.79,17.93-8.79,6.54,0,9.59,3.58t2.17,9.8L176.58,72H162.41l4.43-31.26q.39-3-.48-4.11a3.53,3.53,0,0,0-3-1.14,10.37,10.37,0,0,0-5.1,1.53,48.14,48.14,0,0,0-7.33,5.63L146.8,72H133.11l4.34-31.26c.32-1.91.22-3.26-.29-4.06s-1.55-1.19-3.09-1.19A11,11,0,0,0,128.82,37a44.67,44.67,0,0,0-7.18,5.3L117.49,72H103.33L110,24.9Z"/><path class="c" d="M202.31,24.9,202.12,34a42.57,42.57,0,0,1,9.54-7.27,21.33,21.33,0,0,1,10.41-3q8.38,0,11.57,5.83t1.25,19.79a57.26,57.26,0,0,1-2.36,10.46,25.68,25.68,0,0,1-3.42,6.93,14.15,14.15,0,0,1-4.67,4.06,18.2,18.2,0,0,1-5.5,2,38.33,38.33,0,0,1-6.51.48A82.12,82.12,0,0,1,198.27,72a58.55,58.55,0,0,1-.68,8.89l-1.54,9.27H181.78L191,24.9ZM200,63.42h7.33q7.32,0,9.59-2.44t3.51-11.81c.78-6,.92-9.83.44-11.51s-1.82-2.54-4-2.54a14.1,14.1,0,0,0-6.36,2.11,39.67,39.67,0,0,0-7.71,5.63Z"/><path class="c" d="M279,23.56l-3.18,13.09h-3.47a17.48,17.48,0,0,0-6.32,1.29q-3.31,1.29-9.59,4.54L252.43,72H238.17l6.65-47.12H255.9v8.89q10.89-10.23,20.24-10.23Z"/><path class="c" d="M318.94,60.83l1,9q-8,3.34-20.92,3.34-13.59,0-18.7-6.3t-3.57-19.41q1.74-13.76,7.91-18.83t19.66-5.06q12.52,0,17,4.11t3.33,12.14q-1,6.69-5.5,9.56t-14,3.53L291.09,54q.09,4.69,2.36,6.31t7.18,1.63a155,155,0,0,0,18.31-1.06M292,45.64l11.09-1a11.78,11.78,0,0,0,5.64-1.53c1.18-.83,1.91-2.36,2.16-4.59s-.2-3.41-1.2-3.92-3.1-.73-6.31-.67q-5.59,0-7.86,2.34T292,45.64"/></svg>