<svg width="100" height="24" viewBox="0 0 100 24" fill="none" xmlns="http://www.w3.org/2000/svg">
<path d="M16.5141 6.72C13.2741 3.67 8.27405 3.05002 8.27405 3.05002C8.27405 3.05002 3.27405 3.67 0.0340491 6.72C0.0340491 7.41 -0.995946 18.15 8.27405 20.95C17.5241 18.15 16.5141 7.41 16.5141 6.72ZM8.27405 7.81003C9.63405 7.81003 10.7641 8.94002 10.7641 10.3C10.7641 11.66 9.63405 12.79 8.27405 12.79C6.91405 12.79 5.78405 11.66 5.78405 10.3C5.78405 8.94002 6.91405 7.81003 8.27405 7.81003ZM11.7541 16.46C10.9241 17.37 9.79405 18.14 8.27405 18.6C6.75405 18.14 5.62406 17.37 4.79406 16.46V14.9L6.32406 13.91L8.28405 15.37L10.2441 13.91L11.7741 14.9V16.46H11.7541Z" fill="#1D3E89"/>
<path d="M25.2252 11.5814C24.734 11.5814 24.3215 11.4742 23.9876 11.2598C23.6538 11.0427 23.4055 10.736 23.2426 10.3398C23.0798 9.94081 23.012 9.46857 23.0391 8.92306C23.0608 8.4671 23.1409 8.03558 23.2793 7.62848C23.4177 7.21866 23.6145 6.85635 23.8696 6.54152C24.1274 6.2267 24.4422 5.97972 24.8141 5.8006C25.1886 5.62148 25.6174 5.53191 26.1005 5.53191C26.5266 5.53191 26.893 5.61605 27.1997 5.78432C27.5063 5.95258 27.7411 6.19006 27.9039 6.49674C28.0695 6.80071 28.1509 7.15624 28.1482 7.56334H26.9147C26.9093 7.35979 26.8686 7.17931 26.7926 7.0219C26.7166 6.86177 26.6053 6.73693 26.4587 6.64737C26.3149 6.55509 26.1331 6.50895 25.9132 6.50895C25.6445 6.50895 25.4125 6.57816 25.2171 6.71657C25.0244 6.85499 24.8643 7.04225 24.7367 7.27837C24.6091 7.51178 24.5114 7.77503 24.4436 8.06815C24.3785 8.36126 24.3364 8.66387 24.3174 8.97598C24.2821 9.54049 24.3527 9.95302 24.5291 10.2136C24.7082 10.4741 24.9769 10.6044 25.3351 10.6044C25.5523 10.6044 25.7463 10.5528 25.9173 10.4497C26.091 10.3438 26.2389 10.2054 26.361 10.0344C26.4832 9.86074 26.5768 9.67076 26.6419 9.4645H27.8754C27.7995 9.74404 27.6936 10.0114 27.5579 10.2665C27.4249 10.5189 27.2526 10.7442 27.0409 10.9423C26.8319 11.1404 26.5782 11.2964 26.2796 11.4104C25.9838 11.5244 25.6323 11.5814 25.2252 11.5814ZM30.3466 11.5814C29.9422 11.5814 29.5989 11.4946 29.3166 11.3209C29.0344 11.1445 28.8308 10.8961 28.706 10.5759C28.5839 10.2556 28.5554 9.87838 28.6205 9.44414C28.6802 9.02347 28.8132 8.64487 29.0195 8.30834C29.2284 7.96909 29.4958 7.70176 29.8214 7.50635C30.1471 7.30823 30.5189 7.20917 30.9369 7.20917C31.3576 7.20917 31.6955 7.30008 31.9506 7.48192C32.2084 7.66105 32.3862 7.91209 32.4839 8.23506C32.5816 8.55531 32.5992 8.92577 32.5368 9.34644L32.488 9.66805H29.7482C29.7129 9.88246 29.717 10.0697 29.7604 10.2298C29.8065 10.3873 29.8879 10.5094 30.0046 10.5962C30.1213 10.6804 30.2706 10.7224 30.4525 10.7224C30.6479 10.7224 30.8243 10.679 30.9817 10.5922C31.1418 10.5053 31.2667 10.3628 31.3562 10.1647H32.4106C32.321 10.4633 32.1677 10.7184 31.9506 10.9301C31.7335 11.1418 31.4838 11.3032 31.2015 11.4145C30.9193 11.5258 30.6343 11.5814 30.3466 11.5814ZM29.8459 8.9597H31.4987C31.5231 8.79143 31.515 8.63673 31.4743 8.4956C31.4363 8.35447 31.3616 8.2432 31.2504 8.16178C31.1418 8.08036 30.9953 8.03965 30.8107 8.03965C30.637 8.03965 30.481 8.08443 30.3425 8.17399C30.2068 8.26084 30.0956 8.37483 30.0087 8.51596C29.9219 8.65708 29.8676 8.805 29.8459 8.9597ZM33.0711 11.5L33.6654 7.29059H34.8012L34.6628 8.28798C34.7578 8.07357 34.8772 7.88631 35.0211 7.72618C35.1649 7.56334 35.3291 7.43714 35.5137 7.34758C35.6982 7.2553 35.9004 7.20917 36.1202 7.20917C36.1582 7.20917 36.1922 7.21188 36.222 7.21731C36.2546 7.22002 36.2777 7.22545 36.2912 7.23359L36.1284 8.36533C36.1094 8.35447 36.0836 8.34769 36.051 8.34497C36.0212 8.34226 35.9927 8.33955 35.9655 8.33683C35.6616 8.30969 35.4119 8.33005 35.2165 8.3979C35.0211 8.46303 34.8718 8.56617 34.7687 8.70729C34.6683 8.84571 34.6045 9.00855 34.5773 9.19581L34.2557 11.5H33.0711ZM38.1972 11.5448C37.8335 11.5448 37.5594 11.4973 37.3748 11.4023C37.1903 11.3073 37.0722 11.1743 37.0206 11.0033C36.9691 10.8324 36.9582 10.6342 36.9881 10.409L37.326 8.117H36.6624L36.7886 7.29059H37.4888L37.8674 6.02043H38.8119L38.6246 7.28651H39.5365L39.4103 8.117H38.5025L38.1768 10.3479C38.1551 10.5026 38.1714 10.6017 38.2256 10.6451C38.2826 10.6885 38.3708 10.7102 38.4903 10.7102H39.0398L38.9299 11.443C38.8729 11.4674 38.7874 11.4905 38.6735 11.5122C38.5595 11.5339 38.4007 11.5448 38.1972 11.5448ZM39.8827 11.5L40.477 7.29059H41.6047L41.0103 11.5H39.8827ZM40.5503 6.68808L40.7009 5.6174H41.849L41.6983 6.68808H40.5503ZM42.5392 11.5L43.0399 8.117H42.2868L42.413 7.29059H43.1621L43.2516 6.68401C43.3032 6.34476 43.4402 6.0815 43.6628 5.89423C43.8853 5.70697 44.1744 5.61333 44.5299 5.61333H45.4785L45.3604 6.40311H44.8312C44.6846 6.40311 44.5774 6.4411 44.5096 6.5171C44.4444 6.59037 44.3983 6.7125 44.3711 6.88349L44.3141 7.29059H45.1935L45.0673 8.117H44.2124L43.7116 11.5H42.5392ZM45.3726 11.5L45.967 7.29059H47.0946L46.5003 11.5H45.3726ZM46.0402 6.68808L46.1909 5.6174H47.3389L47.1883 6.68808H46.0402ZM49.3199 11.5814C48.9399 11.5814 48.6129 11.4946 48.3388 11.3209C48.0674 11.1472 47.8693 10.8988 47.7444 10.5759C47.6223 10.2502 47.5951 9.8621 47.663 9.41158C47.7254 8.97734 47.8625 8.59466 48.0742 8.26355C48.2886 7.93245 48.5586 7.67462 48.8843 7.49006C49.21 7.3028 49.5709 7.20917 49.9672 7.20917C50.3119 7.20917 50.5995 7.28109 50.8302 7.42493C51.0609 7.56877 51.2292 7.76282 51.335 8.00708C51.4409 8.25134 51.4816 8.5241 51.4572 8.82535H50.4801C50.4801 8.71408 50.4598 8.60416 50.4191 8.4956C50.3783 8.38433 50.3105 8.29341 50.2155 8.22284C50.1232 8.14957 49.9984 8.11293 49.841 8.11293C49.575 8.11293 49.343 8.22013 49.1448 8.43454C48.9494 8.64623 48.8192 8.96919 48.754 9.40343C48.6943 9.81325 48.7296 10.1389 48.8599 10.3805C48.9901 10.6193 49.1964 10.7387 49.4787 10.7387C49.6334 10.7387 49.7677 10.6994 49.8817 10.6207C49.9984 10.542 50.092 10.4483 50.1626 10.3398C50.2359 10.2285 50.2861 10.1254 50.3132 10.0304H51.2658C51.2088 10.3208 51.0894 10.584 50.9076 10.8201C50.7285 11.0535 50.5032 11.2395 50.2318 11.3779C49.9604 11.5136 49.6564 11.5814 49.3199 11.5814ZM53.0599 11.5814C52.7966 11.5814 52.5673 11.5312 52.3719 11.4308C52.1792 11.3304 52.0367 11.1852 51.9444 10.9952C51.8521 10.8025 51.8236 10.5691 51.8589 10.295C51.9295 9.8336 52.1507 9.4835 52.5225 9.24467C52.8943 9.00312 53.4425 8.87828 54.1672 8.87013L54.672 8.86199L54.7086 8.60959C54.7385 8.41147 54.7005 8.2622 54.5946 8.16178C54.4915 8.05865 54.3368 8.00844 54.1305 8.01115C53.965 8.01387 53.7994 8.05593 53.6339 8.13735C53.4683 8.21877 53.3421 8.35447 53.2553 8.54445H52.2823C52.342 8.25406 52.4655 8.0098 52.6528 7.81167C52.8427 7.61355 53.0802 7.46428 53.3652 7.36386C53.6502 7.26073 53.9636 7.20917 54.3056 7.20917C54.7235 7.20917 55.0506 7.2648 55.2867 7.37608C55.5255 7.48735 55.687 7.64341 55.7711 7.84424C55.858 8.04236 55.8824 8.27441 55.8444 8.54038L55.4048 11.5H54.4236L54.4318 10.7876C54.2445 11.0915 54.0396 11.3005 53.8171 11.4145C53.5945 11.5258 53.3421 11.5814 53.0599 11.5814ZM53.5687 10.7998C53.6719 10.7998 53.7736 10.7808 53.8741 10.7428C53.9772 10.7021 54.0722 10.6492 54.159 10.584C54.2459 10.5162 54.3178 10.4402 54.3748 10.356C54.4345 10.2719 54.4725 10.1851 54.4888 10.0955L54.5783 9.47264L54.1712 9.48078C53.984 9.4835 53.8049 9.50792 53.6339 9.55406C53.4656 9.59749 53.3231 9.66941 53.2064 9.76982C53.0897 9.87024 53.0178 10.0059 52.9907 10.1769C52.9662 10.3723 53.0097 10.5257 53.1209 10.6369C53.2322 10.7455 53.3815 10.7998 53.5687 10.7998ZM58.0216 11.5814C57.468 11.5814 57.0636 11.3874 56.8085 10.9993C56.5561 10.6085 56.4774 10.0657 56.5724 9.37087C56.6619 8.71136 56.8736 8.18621 57.2074 7.79539C57.544 7.40457 57.9755 7.20917 58.502 7.20917C58.6486 7.20917 58.7829 7.22681 58.9051 7.26209C59.0299 7.29466 59.1398 7.34079 59.2348 7.4005C59.3325 7.46021 59.4166 7.52942 59.4872 7.60812C59.5578 7.68683 59.6121 7.77096 59.65 7.86053L59.9798 5.45049H61.1645L60.334 11.5H59.4791L59.4628 10.6369C59.4112 10.7536 59.3434 10.8676 59.2592 10.9789C59.1778 11.0902 59.0788 11.192 58.9621 11.2842C58.8453 11.3738 58.7096 11.4457 58.555 11.5C58.4003 11.5543 58.2225 11.5814 58.0216 11.5814ZM58.4003 10.7265C58.6852 10.7265 58.9132 10.622 59.0842 10.413C59.2552 10.2041 59.3746 9.85124 59.4424 9.35458C59.4804 9.0669 59.4804 8.82807 59.4424 8.63809C59.4044 8.44811 59.3298 8.30698 59.2185 8.2147C59.11 8.11971 58.9607 8.07222 58.7707 8.07222C58.521 8.07222 58.2998 8.17128 58.1071 8.3694C57.9172 8.56481 57.791 8.8932 57.7285 9.35458C57.6634 9.8241 57.6933 10.1701 57.8181 10.3927C57.9429 10.6152 58.137 10.7265 58.4003 10.7265ZM63.0915 11.5814C62.6925 11.5814 62.3574 11.4932 62.086 11.3168C61.8146 11.1404 61.6205 10.8907 61.5038 10.5677C61.3871 10.2448 61.3613 9.8621 61.4265 9.41972C61.4889 8.97734 61.6259 8.59059 61.8376 8.25948C62.0493 7.92838 62.318 7.67055 62.6437 7.48599C62.9694 7.30144 63.3331 7.20917 63.7347 7.20917C64.1418 7.20917 64.4797 7.30008 64.7484 7.48192C65.0171 7.66105 65.2084 7.91616 65.3224 8.24727C65.4364 8.57838 65.4608 8.96919 65.3957 9.41972C65.3333 9.8431 65.1989 10.2176 64.9927 10.5433C64.7891 10.8663 64.5259 11.12 64.2029 11.3046C63.8826 11.4891 63.5122 11.5814 63.0915 11.5814ZM63.2381 10.698C63.4362 10.698 63.6045 10.6369 63.7429 10.5148C63.8813 10.3927 63.9926 10.2326 64.0767 10.0344C64.1635 9.8336 64.2219 9.61513 64.2517 9.37901C64.2843 9.15646 64.2884 8.94613 64.264 8.748C64.2422 8.54988 64.1798 8.38976 64.0767 8.26763C63.9736 8.1455 63.8161 8.08443 63.6045 8.08443C63.4009 8.08443 63.2286 8.14278 63.0874 8.25948C62.9463 8.37347 62.8337 8.52953 62.7495 8.72765C62.6681 8.92306 62.6111 9.14018 62.5786 9.37901C62.5487 9.59884 62.5446 9.81053 62.5663 10.0141C62.5908 10.2149 62.6546 10.3791 62.7577 10.5067C62.8608 10.6342 63.0209 10.698 63.2381 10.698ZM67.7496 11.5L68.5923 5.61333C68.6221 5.61333 68.7157 5.61469 68.8732 5.6174C69.0306 5.6174 69.2097 5.6174 69.4105 5.6174C69.7986 5.6174 70.1677 5.63369 70.5178 5.66626C70.8679 5.69611 71.1896 5.75582 71.4827 5.84538C71.7758 5.93223 72.0295 6.06114 72.2439 6.23213C72.4583 6.40311 72.6239 6.62837 72.7406 6.90791C72.86 7.18474 72.9197 7.52806 72.9197 7.93787C72.9197 8.17128 72.8994 8.42097 72.8587 8.68694C72.818 8.9502 72.7487 9.21481 72.651 9.48078C72.5561 9.74676 72.4244 10.0005 72.2562 10.2421C72.0879 10.4836 71.8762 10.6994 71.6211 10.8893C71.366 11.0766 71.0606 11.2259 70.7051 11.3372C70.3523 11.4457 69.9398 11.5 69.4675 11.5H67.7496ZM69.0808 10.5392H69.5774C69.9194 10.5392 70.222 10.4728 70.4853 10.3398C70.7485 10.2041 70.9711 10.0182 71.1529 9.78204C71.3348 9.54592 71.4718 9.27316 71.5641 8.96377C71.6564 8.65166 71.7025 8.31648 71.7025 7.95823C71.7025 7.62984 71.6441 7.36522 71.5274 7.16438C71.4107 6.96083 71.2425 6.81156 71.0226 6.71657C70.8055 6.62158 70.5423 6.57409 70.2329 6.57409H69.6629L69.0808 10.5392ZM73.4446 11.5L74.0389 7.29059H75.1666L74.5722 11.5H73.4446ZM74.1122 6.68808L74.2628 5.6174H75.4109L75.2602 6.68808H74.1122ZM77.3924 12.8923C76.6433 12.8923 76.0869 12.7905 75.7232 12.587C75.3596 12.3834 75.2008 12.1201 75.2469 11.7972C75.2659 11.6615 75.3175 11.5489 75.4016 11.4593C75.4831 11.367 75.5767 11.2937 75.6825 11.2395C75.7884 11.1825 75.8847 11.139 75.9716 11.1092C76.0611 11.0766 76.1195 11.0535 76.1466 11.04C76.1168 11.0183 76.0639 10.983 75.9879 10.9341C75.9146 10.8853 75.8481 10.8161 75.7884 10.7265C75.7314 10.6369 75.7124 10.5202 75.7314 10.3764C75.7504 10.2434 75.8345 10.1186 75.9838 10.0019C76.1331 9.88246 76.3597 9.79561 76.6636 9.74133C76.4194 9.61648 76.2403 9.43872 76.1263 9.20803C76.0123 8.97462 75.9729 8.73308 76.0082 8.48339C76.0435 8.2337 76.1507 8.01387 76.3298 7.82389C76.509 7.63391 76.7478 7.48735 77.0463 7.38422C77.3476 7.27837 77.695 7.22545 78.0885 7.22545C78.3843 7.22545 78.6177 7.25802 78.7887 7.32315C78.9624 7.38829 79.113 7.467 79.2406 7.55927C79.3139 7.53213 79.4048 7.49821 79.5134 7.4575C79.6246 7.41407 79.7413 7.36793 79.8635 7.31908C79.9883 7.27023 80.1104 7.22274 80.2298 7.1766C80.352 7.12775 80.4592 7.08568 80.5515 7.0504L80.4415 7.97858L79.7006 8.12921C79.7413 8.29477 79.7522 8.45218 79.7332 8.60145C79.7006 8.83485 79.6029 9.05333 79.4401 9.25688C79.2772 9.46043 79.052 9.62463 78.7643 9.74947C78.4766 9.8716 78.1319 9.93266 77.7303 9.93266C77.6678 9.93266 77.5932 9.93131 77.5063 9.92859C77.4222 9.92588 77.3598 9.92317 77.3191 9.92045C77.1562 9.91774 77.0395 9.92724 76.969 9.94895C76.8984 9.97066 76.8631 10.0059 76.8631 10.0548C76.8686 10.1254 76.9256 10.1769 77.0341 10.2095C77.1427 10.2393 77.296 10.2624 77.4941 10.2787C77.5918 10.2868 77.7153 10.295 77.8646 10.3031C78.0166 10.3086 78.174 10.3181 78.3368 10.3316C78.8525 10.3642 79.2243 10.4958 79.4523 10.7265C79.6803 10.9572 79.7698 11.2462 79.721 11.5936C79.6694 11.9736 79.4496 12.2843 79.0615 12.5259C78.6734 12.7702 78.117 12.8923 77.3924 12.8923ZM77.5756 12.2287C77.9094 12.2287 78.155 12.1812 78.3124 12.0862C78.4698 11.9939 78.5594 11.8637 78.5811 11.6954C78.5947 11.5814 78.558 11.4905 78.4712 11.4227C78.3843 11.3548 78.2418 11.3141 78.0437 11.3005L77.1196 11.2395C76.9948 11.2313 76.8794 11.2517 76.7736 11.3005C76.6704 11.3467 76.5863 11.4104 76.5212 11.4919C76.456 11.5706 76.4167 11.6588 76.4031 11.7565C76.3814 11.9166 76.4642 12.0347 76.6514 12.1107C76.8414 12.1894 77.1495 12.2287 77.5756 12.2287ZM77.7587 9.26909C77.984 9.26909 78.1767 9.2026 78.3368 9.06961C78.4997 8.93391 78.596 8.75072 78.6259 8.52003C78.6557 8.31648 78.6177 8.15499 78.5119 8.03558C78.4088 7.91345 78.2554 7.85238 78.0519 7.85238C77.8239 7.85238 77.6271 7.92566 77.4616 8.07222C77.2987 8.21877 77.201 8.40875 77.1685 8.64216C77.1413 8.83485 77.1793 8.98819 77.2824 9.10218C77.3856 9.21345 77.5443 9.26909 77.7587 9.26909ZM80.696 11.5L81.2904 7.29059H82.4181L81.8237 11.5H80.696ZM81.3637 6.68808L81.5143 5.6174H82.6623L82.5117 6.68808H81.3637ZM84.6797 11.5448C84.316 11.5448 84.0419 11.4973 83.8574 11.4023C83.6728 11.3073 83.5548 11.1743 83.5032 11.0033C83.4516 10.8324 83.4408 10.6342 83.4706 10.409L83.8085 8.117H83.1449L83.2711 7.29059H83.9714L84.35 6.02043H85.2944L85.1072 7.28651H86.0191L85.8929 8.117H84.985L84.6594 10.3479C84.6376 10.5026 84.6539 10.6017 84.7082 10.6451C84.7652 10.6885 84.8534 10.7102 84.9728 10.7102H85.5224L85.4125 11.443C85.3555 11.4674 85.27 11.4905 85.156 11.5122C85.042 11.5339 84.8833 11.5448 84.6797 11.5448ZM87.4646 11.5814C87.2013 11.5814 86.972 11.5312 86.7766 11.4308C86.5839 11.3304 86.4414 11.1852 86.3491 10.9952C86.2569 10.8025 86.2284 10.5691 86.2636 10.295C86.3342 9.8336 86.5554 9.4835 86.9272 9.24467C87.299 9.00312 87.8473 8.87828 88.5719 8.87013L89.0767 8.86199L89.1133 8.60959C89.1432 8.41147 89.1052 8.2622 88.9994 8.16178C88.8962 8.05865 88.7415 8.00844 88.5353 8.01115C88.3697 8.01387 88.2042 8.05593 88.0386 8.13735C87.873 8.21877 87.7468 8.35447 87.66 8.54445H86.687C86.7467 8.25406 86.8702 8.0098 87.0575 7.81167C87.2475 7.61355 87.4849 7.46428 87.7699 7.36386C88.0549 7.26073 88.3683 7.20917 88.7103 7.20917C89.1283 7.20917 89.4553 7.2648 89.6914 7.37608C89.9303 7.48735 90.0917 7.64341 90.1759 7.84424C90.2627 8.04236 90.2871 8.27441 90.2491 8.54038L89.8095 11.5H88.8284L88.8365 10.7876C88.6492 11.0915 88.4443 11.3005 88.2218 11.4145C87.9992 11.5258 87.7468 11.5814 87.4646 11.5814ZM87.9735 10.7998C88.0766 10.7998 88.1784 10.7808 88.2788 10.7428C88.3819 10.7021 88.4769 10.6492 88.5638 10.584C88.6506 10.5162 88.7225 10.4402 88.7795 10.356C88.8392 10.2719 88.8772 10.1851 88.8935 10.0955L88.9831 9.47264L88.576 9.48078C88.3887 9.4835 88.2096 9.50792 88.0386 9.55406C87.8703 9.59749 87.7278 9.66941 87.6111 9.76982C87.4944 9.87024 87.4225 10.0059 87.3954 10.1769C87.371 10.3723 87.4144 10.5257 87.5257 10.6369C87.6369 10.7455 87.7862 10.7998 87.9735 10.7998ZM92.2106 11.5733C91.9066 11.5733 91.6705 11.5366 91.5023 11.4634C91.334 11.3901 91.2159 11.2937 91.1481 11.1743C91.0829 11.0522 91.049 10.9178 91.0463 10.7713C91.0436 10.622 91.0517 10.4714 91.0707 10.3194L91.7954 5.45049H92.9515L92.2513 10.1729C92.2296 10.3276 92.2432 10.4538 92.292 10.5515C92.3409 10.6464 92.4535 10.7048 92.6299 10.7265L92.8172 10.7387L92.7073 11.4715C92.6231 11.4986 92.5376 11.5217 92.4508 11.5407C92.3667 11.5624 92.2866 11.5733 92.2106 11.5733Z" fill="#091E42"/>
<path d="M22.86 19.5L23.4614 15.3789H26.0093L25.9266 15.909H23.9829L23.8034 17.1601H25.5333L25.4564 17.6817H23.7236L23.5383 18.9613L25.5333 18.9642L25.4507 19.5H22.86ZM26.1669 19.5L26.5972 16.5531H27.1758L27.1159 16.9549C27.2128 16.8295 27.3363 16.7222 27.4864 16.6329C27.6384 16.5417 27.8237 16.4961 28.0422 16.4961C28.1923 16.4961 28.3395 16.5331 28.4839 16.6072C28.6283 16.6794 28.7262 16.7944 28.7775 16.9521C28.8915 16.8096 29.0311 16.6984 29.1964 16.6186C29.3617 16.537 29.5299 16.4961 29.7009 16.4961C29.8035 16.4961 29.9051 16.5132 30.0058 16.5474C30.1084 16.5797 30.1996 16.6348 30.2794 16.7127C30.3592 16.7887 30.4172 16.8932 30.4533 17.0262C30.4913 17.1573 30.4951 17.3216 30.4647 17.5192L30.1768 19.5H29.5812L29.8605 17.5763C29.8852 17.4166 29.8785 17.2931 29.8405 17.2057C29.8025 17.1164 29.7455 17.0537 29.6695 17.0176C29.5954 16.9796 29.5128 16.9606 29.4216 16.9606C29.3171 16.9606 29.2173 16.9806 29.1223 17.0205C29.0273 17.0604 28.9466 17.125 28.8801 17.2143C28.8136 17.3036 28.7689 17.4233 28.7461 17.5734L28.4668 19.5H27.874L28.1704 17.4452C28.1856 17.3388 28.1714 17.2504 28.1277 17.1801C28.084 17.1079 28.0241 17.0537 27.9481 17.0176C27.8721 16.9796 27.7942 16.9606 27.7144 16.9606C27.627 16.9606 27.5358 16.9796 27.4408 17.0176C27.3458 17.0537 27.2622 17.1117 27.19 17.1915C27.1197 17.2694 27.076 17.371 27.0589 17.4965L26.7625 19.5H26.1669ZM31.0416 19.5L31.4577 16.5531H32.0362L31.6201 19.5H31.0416ZM31.5232 15.9831L31.6087 15.3817H32.2101L32.1246 15.9831H31.5232ZM33.6183 19.5199C33.4074 19.5199 33.2478 19.4905 33.1395 19.4316C33.0312 19.3727 32.9618 19.2881 32.9314 19.1779C32.901 19.0658 32.8972 18.9309 32.92 18.7732L33.1765 16.992H32.7205L32.7889 16.5531H33.2563L33.49 15.6867H33.966L33.8434 16.5502H34.4761L34.4106 16.992H33.7779L33.5271 18.7362C33.5081 18.8787 33.5204 18.9699 33.5641 19.0098C33.6097 19.0478 33.6876 19.0668 33.7978 19.0668H34.1256L34.0657 19.463C34.0296 19.4781 33.9745 19.4914 33.9004 19.5029C33.8263 19.5142 33.7323 19.5199 33.6183 19.5199ZM35.5422 19.557C35.3598 19.557 35.203 19.5228 35.0719 19.4544C34.9427 19.386 34.8477 19.2872 34.7869 19.158C34.7261 19.0288 34.7081 18.873 34.7328 18.6906C34.7784 18.3638 34.9237 18.1196 35.1688 17.9582C35.4158 17.7966 35.7825 17.7111 36.2689 17.7016L36.7221 17.6874L36.7534 17.4736C36.7781 17.297 36.7439 17.162 36.6508 17.0689C36.5596 16.9758 36.4257 16.9302 36.249 16.9322C36.1046 16.9322 35.9659 16.9701 35.8329 17.0461C35.7018 17.1221 35.6068 17.239 35.5479 17.3967H35.032C35.0681 17.2181 35.146 17.0613 35.2657 16.9264C35.3854 16.7896 35.5374 16.6842 35.7217 16.6101C35.906 16.5341 36.1122 16.4961 36.3402 16.4961C36.5967 16.4961 36.8028 16.5351 36.9586 16.613C37.1144 16.6908 37.2227 16.8001 37.2835 16.9407C37.3443 17.0813 37.3614 17.2475 37.3348 17.4394L37.0327 19.5H36.5283L36.5568 18.9756C36.4181 19.1998 36.2632 19.3528 36.0922 19.4344C35.9231 19.5162 35.7398 19.557 35.5422 19.557ZM35.7901 19.1323C35.8775 19.1323 35.9659 19.1162 36.0552 19.0839C36.1445 19.0497 36.2281 19.0041 36.306 18.9471C36.3839 18.8882 36.4485 18.8226 36.4998 18.7504C36.553 18.6782 36.5862 18.6041 36.5995 18.5281L36.6679 18.0408L36.2974 18.0494C36.1093 18.0513 35.945 18.0721 35.8044 18.112C35.6657 18.1519 35.5545 18.2137 35.4709 18.2973C35.3892 18.3809 35.337 18.492 35.3142 18.6308C35.2933 18.7884 35.3275 18.9119 35.4168 19.0012C35.508 19.0886 35.6324 19.1323 35.7901 19.1323ZM40.2736 19.557C40.0095 19.557 39.7872 19.4981 39.6067 19.3803C39.4262 19.2606 39.298 19.0877 39.222 18.8616C39.146 18.6355 39.1298 18.3619 39.1735 18.0408C39.2172 17.7311 39.3065 17.4603 39.4414 17.2285C39.5782 16.9967 39.754 16.8172 39.9687 16.6899C40.1834 16.5607 40.4294 16.4961 40.7068 16.4961C40.9728 16.4961 41.1942 16.5569 41.3709 16.6785C41.5495 16.7982 41.6758 16.9739 41.7499 17.2057C41.8259 17.4356 41.8411 17.714 41.7955 18.0408C41.7537 18.3391 41.6663 18.6022 41.5333 18.8302C41.4003 19.0582 41.2274 19.2369 41.0146 19.366C40.8037 19.4934 40.5567 19.557 40.2736 19.557ZM40.3477 19.0867C40.5054 19.0867 40.6432 19.043 40.761 18.9556C40.8807 18.8663 40.9785 18.7419 41.0545 18.5823C41.1305 18.4208 41.1828 18.2346 41.2113 18.0237C41.2379 17.828 41.2379 17.6503 41.2113 17.4907C41.1847 17.3292 41.1248 17.201 41.0317 17.106C40.9405 17.011 40.8094 16.9635 40.6384 16.9635C40.4769 16.9635 40.3363 17.0072 40.2166 17.0946C40.0969 17.1801 39.9991 17.3026 39.9231 17.4622C39.849 17.6199 39.7967 17.8071 39.7663 18.0237C39.7416 18.2156 39.7416 18.3923 39.7663 18.5538C39.7929 18.7153 39.8528 18.8445 39.9459 18.9414C40.039 19.0383 40.1729 19.0867 40.3477 19.0867ZM44.5293 19.557C44.3317 19.557 44.1512 19.5247 43.9878 19.4601C43.8244 19.3955 43.6942 19.2938 43.5973 19.1551C43.5004 19.0164 43.452 18.8388 43.452 18.6222H43.9878C43.9954 18.7343 44.0267 18.8274 44.0818 18.9015C44.1388 18.9737 44.211 19.0278 44.2984 19.0639C44.3858 19.0981 44.4827 19.1152 44.5891 19.1152C44.7658 19.1152 44.9131 19.082 45.0309 19.0155C45.1506 18.9471 45.2199 18.8426 45.2389 18.702C45.2541 18.6013 45.2361 18.5206 45.1848 18.4598C45.1335 18.3989 45.0461 18.3543 44.9226 18.3258L44.3868 18.1861C44.1588 18.1291 43.983 18.0389 43.8595 17.9154C43.736 17.79 43.6895 17.6152 43.7199 17.391C43.7446 17.2181 43.8073 17.0642 43.908 16.9293C44.0106 16.7944 44.1493 16.6889 44.3241 16.613C44.5008 16.5351 44.7117 16.4961 44.9568 16.4961C45.276 16.4961 45.523 16.5702 45.6978 16.7184C45.8726 16.8666 45.9438 17.0813 45.9115 17.3625H45.3928C45.3928 17.2276 45.3491 17.1221 45.2617 17.0461C45.1743 16.9682 45.0508 16.9293 44.8912 16.9293C44.724 16.9293 44.5825 16.9644 44.4666 17.0347C44.3526 17.1031 44.2861 17.2086 44.2671 17.3511C44.2538 17.448 44.2813 17.525 44.3497 17.5819C44.42 17.637 44.5302 17.6826 44.6803 17.7188L45.1933 17.8584C45.3263 17.8964 45.4337 17.9467 45.5154 18.0095C45.5971 18.0702 45.6579 18.1377 45.6978 18.2118C45.7396 18.2859 45.7652 18.3628 45.7747 18.4426C45.7842 18.5224 45.7833 18.5975 45.7719 18.6678C45.7472 18.854 45.6797 19.0136 45.5695 19.1466C45.4612 19.2777 45.3187 19.3793 45.142 19.4515C44.9653 19.5219 44.7611 19.557 44.5293 19.557ZM47.5447 19.557C47.2768 19.557 47.0498 19.4972 46.8636 19.3774C46.6793 19.2558 46.5463 19.0829 46.4646 18.8587C46.3829 18.6345 46.3648 18.3676 46.4104 18.0579C46.4541 17.752 46.5444 17.4822 46.6812 17.2485C46.8199 17.0129 46.9966 16.8286 47.2113 16.6956C47.4279 16.5626 47.6749 16.4961 47.9523 16.4961C48.2259 16.4961 48.4472 16.5569 48.6163 16.6785C48.7854 16.8001 48.9023 16.9711 48.9669 17.1915C49.0315 17.41 49.0419 17.6684 48.9982 17.9667L48.9697 18.1691H46.9918C46.9671 18.3458 46.9719 18.5044 47.0061 18.645C47.0403 18.7837 47.1068 18.8939 47.2056 18.9756C47.3063 19.0554 47.4383 19.0953 47.6017 19.0953C47.767 19.0953 47.9162 19.0554 48.0492 18.9756C48.1822 18.8958 48.2791 18.777 48.3399 18.6193H48.8899C48.8272 18.8207 48.7256 18.9917 48.585 19.1323C48.4444 19.2729 48.2829 19.3793 48.1005 19.4515C47.9181 19.5219 47.7328 19.557 47.5447 19.557ZM47.0488 17.7729H48.4596C48.4824 17.619 48.4767 17.4793 48.4425 17.354C48.4102 17.2266 48.3475 17.1269 48.2544 17.0547C48.1632 16.9806 48.0397 16.9436 47.8839 16.9436C47.7243 16.9436 47.5856 16.9844 47.4678 17.0661C47.35 17.1478 47.255 17.2523 47.1828 17.3796C47.1125 17.5069 47.0678 17.638 47.0488 17.7729ZM50.4662 19.557C50.3256 19.5551 50.1935 19.5333 50.07 19.4915C49.9465 19.4497 49.8392 19.3869 49.748 19.3033C49.6587 19.2197 49.5931 19.1162 49.5513 18.9927C49.5095 18.8692 49.501 18.7257 49.5257 18.5623L49.805 16.5531H50.4092L50.1356 18.4968C50.109 18.6735 50.1403 18.817 50.2296 18.9272C50.3189 19.0373 50.4681 19.0924 50.6771 19.0924C50.869 19.0924 51.0295 19.0402 51.1587 18.9357C51.2879 18.8293 51.3668 18.6744 51.3953 18.4711L51.666 16.5531H52.2617L51.8484 19.5H51.3839L51.3981 18.93C51.3411 19.0839 51.2632 19.2074 51.1644 19.3005C51.0675 19.3917 50.9583 19.4582 50.8367 19.5C50.7151 19.5399 50.5916 19.5589 50.4662 19.557ZM54.8941 19.557C54.5217 19.557 54.2471 19.425 54.0704 19.1609C53.8937 18.8949 53.8386 18.512 53.9051 18.0123C53.9678 17.5525 54.1141 17.1848 54.344 16.9093C54.5739 16.6339 54.877 16.4961 55.2532 16.4961C55.3786 16.4961 55.4878 16.5123 55.5809 16.5445C55.6759 16.5768 55.7576 16.6186 55.826 16.67C55.8944 16.7213 55.9495 16.7763 55.9913 16.8352C56.035 16.8941 56.0673 16.9492 56.0882 17.0005L56.3219 15.2649H56.9261L56.3533 19.5H55.9058L55.9201 18.8958C55.8935 18.9604 55.8536 19.0307 55.8004 19.1067C55.7472 19.1827 55.6797 19.2549 55.598 19.3233C55.5163 19.3917 55.4175 19.4478 55.3016 19.4915C55.1857 19.5352 55.0499 19.557 54.8941 19.557ZM55.0736 19.0982C55.3301 19.0982 55.5277 19.0127 55.6664 18.8417C55.8051 18.6687 55.9011 18.3856 55.9543 17.9923C55.9828 17.77 55.9818 17.5819 55.9514 17.428C55.921 17.2741 55.8583 17.1582 55.7633 17.0803C55.6702 17.0005 55.5391 16.9606 55.37 16.9606C55.1553 16.9606 54.9691 17.0423 54.8114 17.2057C54.6556 17.3672 54.554 17.6294 54.5065 17.9923C54.4571 18.3495 54.4818 18.6231 54.5806 18.8131C54.6794 19.0032 54.8437 19.0982 55.0736 19.0982ZM58.3825 19.557C58.1146 19.557 57.8875 19.4972 57.7013 19.3774C57.517 19.2558 57.384 19.0829 57.3023 18.8587C57.2206 18.6345 57.2026 18.3676 57.2482 18.0579C57.2919 17.752 57.3821 17.4822 57.5189 17.2485C57.6576 17.0129 57.8343 16.8286 58.049 16.6956C58.2656 16.5626 58.5126 16.4961 58.79 16.4961C59.0636 16.4961 59.285 16.5569 59.4541 16.6785C59.6232 16.8001 59.74 16.9711 59.8046 17.1915C59.8692 17.41 59.8797 17.6684 59.836 17.9667L59.8075 18.1691H57.8296C57.8049 18.3458 57.8096 18.5044 57.8438 18.645C57.878 18.7837 57.9445 18.8939 58.0433 18.9756C58.144 19.0554 58.2761 19.0953 58.4395 19.0953C58.6048 19.0953 58.7539 19.0554 58.8869 18.9756C59.0199 18.8958 59.1168 18.777 59.1776 18.6193H59.7277C59.665 18.8207 59.5633 18.9917 59.4227 19.1323C59.2821 19.2729 59.1206 19.3793 58.9382 19.4515C58.7558 19.5219 58.5706 19.557 58.3825 19.557ZM57.8866 17.7729H59.2973C59.3201 17.619 59.3144 17.4793 59.2802 17.354C59.2479 17.2266 59.1852 17.1269 59.0921 17.0547C59.0009 16.9806 58.8774 16.9436 58.7216 16.9436C58.562 16.9436 58.4233 16.9844 58.3055 17.0661C58.1877 17.1478 58.0927 17.2523 58.0205 17.3796C57.9502 17.5069 57.9056 17.638 57.8866 17.7729ZM62.6395 19.557C62.3754 19.557 62.1531 19.4981 61.9726 19.3803C61.7921 19.2606 61.6638 19.0877 61.5878 18.8616C61.5118 18.6355 61.4957 18.3619 61.5394 18.0408C61.5831 17.7311 61.6724 17.4603 61.8073 17.2285C61.9441 16.9967 62.1198 16.8172 62.3345 16.6899C62.5492 16.5607 62.7953 16.4961 63.0727 16.4961C63.3387 16.4961 63.56 16.5569 63.7367 16.6785C63.9153 16.7982 64.0417 16.9739 64.1158 17.2057C64.1918 17.4356 64.207 17.714 64.1614 18.0408C64.1196 18.3391 64.0322 18.6022 63.8992 18.8302C63.7662 19.0582 63.5933 19.2369 63.3805 19.366C63.1696 19.4934 62.9226 19.557 62.6395 19.557ZM62.7136 19.0867C62.8713 19.0867 63.009 19.043 63.1268 18.9556C63.2465 18.8663 63.3444 18.7419 63.4204 18.5823C63.4964 18.4208 63.5486 18.2346 63.5771 18.0237C63.6037 17.828 63.6037 17.6503 63.5771 17.4907C63.5505 17.3292 63.4907 17.201 63.3976 17.106C63.3064 17.011 63.1753 16.9635 63.0043 16.9635C62.8428 16.9635 62.7022 17.0072 62.5825 17.0946C62.4628 17.1801 62.3649 17.3026 62.2889 17.4622C62.2148 17.6199 62.1626 17.8071 62.1322 18.0237C62.1075 18.2156 62.1075 18.3923 62.1322 18.5538C62.1588 18.7153 62.2186 18.8445 62.3117 18.9414C62.4048 19.0383 62.5388 19.0867 62.7136 19.0867ZM64.6252 19.5L65.0584 16.5531H65.6369L65.5828 16.9549C65.6474 16.8751 65.7224 16.802 65.8079 16.7355C65.8934 16.669 65.9932 16.6158 66.1072 16.5759C66.2212 16.536 66.3532 16.516 66.5033 16.516C66.68 16.516 66.8368 16.5569 66.9736 16.6386C67.1123 16.7184 67.2149 16.8362 67.2814 16.992C67.3498 17.1459 67.3669 17.334 67.3327 17.5563L67.0505 19.5H66.452L66.7256 17.619C66.756 17.4233 66.7247 17.2732 66.6316 17.1687C66.5385 17.0623 66.4112 17.0091 66.2497 17.0091C66.1357 17.0091 66.0245 17.0291 65.9162 17.0689C65.8098 17.1089 65.7196 17.1678 65.6455 17.2457C65.5714 17.3235 65.5267 17.4214 65.5115 17.5392L65.2237 19.5H64.6252ZM68.8824 19.557C68.51 19.557 68.2355 19.425 68.0588 19.1609C67.8821 18.8949 67.827 18.512 67.8935 18.0123C67.9562 17.5525 68.1025 17.1848 68.3324 16.9093C68.5623 16.6339 68.8653 16.4961 69.2415 16.4961C69.3669 16.4961 69.4762 16.5123 69.5693 16.5445C69.6643 16.5768 69.746 16.6186 69.8144 16.67C69.8828 16.7213 69.9379 16.7763 69.9797 16.8352C70.0234 16.8941 70.0557 16.9492 70.0766 17.0005L70.3103 15.2649H70.9145L70.3416 19.5H69.8942L69.9084 18.8958C69.8818 18.9604 69.8419 19.0307 69.7887 19.1067C69.7355 19.1827 69.6681 19.2549 69.5864 19.3233C69.5047 19.3917 69.4059 19.4478 69.29 19.4915C69.1741 19.5352 69.0382 19.557 68.8824 19.557ZM69.062 19.0982C69.3185 19.0982 69.5161 19.0127 69.6548 18.8417C69.7935 18.6687 69.8894 18.3856 69.9426 17.9923C69.9711 17.77 69.9702 17.5819 69.9398 17.428C69.9094 17.2741 69.8467 17.1582 69.7517 17.0803C69.6586 17.0005 69.5275 16.9606 69.3584 16.9606C69.1437 16.9606 68.9575 17.0423 68.7998 17.2057C68.644 17.3672 68.5423 17.6294 68.4948 17.9923C68.4454 18.3495 68.4701 18.6231 68.5689 18.8131C68.6677 19.0032 68.8321 19.0982 69.062 19.0982ZM72.3709 19.557C72.103 19.557 71.8759 19.4972 71.6897 19.3774C71.5054 19.2558 71.3724 19.0829 71.2907 18.8587C71.209 18.6345 71.191 18.3676 71.2366 18.0579C71.2803 17.752 71.3705 17.4822 71.5073 17.2485C71.646 17.0129 71.8227 16.8286 72.0374 16.6956C72.254 16.5626 72.501 16.4961 72.7784 16.4961C73.052 16.4961 73.2734 16.5569 73.4425 16.6785C73.6116 16.8001 73.7284 16.9711 73.793 17.1915C73.8576 17.41 73.8681 17.6684 73.8244 17.9667L73.7959 18.1691H71.818C71.7933 18.3458 71.798 18.5044 71.8322 18.645C71.8664 18.7837 71.9329 18.8939 72.0317 18.9756C72.1324 19.0554 72.2645 19.0953 72.4279 19.0953C72.5932 19.0953 72.7423 19.0554 72.8753 18.9756C73.0083 18.8958 73.1052 18.777 73.166 18.6193H73.7161C73.6534 18.8207 73.5517 18.9917 73.4111 19.1323C73.2705 19.2729 73.109 19.3793 72.9266 19.4515C72.7442 19.5219 72.559 19.557 72.3709 19.557ZM71.875 17.7729H73.2857C73.3085 17.619 73.3028 17.4793 73.2686 17.354C73.2363 17.2266 73.1736 17.1269 73.0805 17.0547C72.9893 16.9806 72.8658 16.9436 72.71 16.9436C72.5504 16.9436 72.4117 16.9844 72.2939 17.0661C72.1761 17.1478 72.0811 17.2523 72.0089 17.3796C71.9386 17.5069 71.894 17.638 71.875 17.7729ZM76.6848 19.557C76.4169 19.557 76.1899 19.4972 76.0037 19.3774C75.8194 19.2558 75.6864 19.0829 75.6047 18.8587C75.523 18.6345 75.5049 18.3676 75.5505 18.0579C75.5942 17.752 75.6845 17.4822 75.8213 17.2485C75.96 17.0129 76.1367 16.8286 76.3514 16.6956C76.568 16.5626 76.815 16.4961 77.0924 16.4961C77.366 16.4961 77.5873 16.5569 77.7564 16.6785C77.9255 16.8001 78.0424 16.9711 78.107 17.1915C78.1716 17.41 78.182 17.6684 78.1383 17.9667L78.1098 18.1691H76.1319C76.1072 18.3458 76.112 18.5044 76.1462 18.645C76.1804 18.7837 76.2469 18.8939 76.3457 18.9756C76.4464 19.0554 76.5784 19.0953 76.7418 19.0953C76.9071 19.0953 77.0563 19.0554 77.1893 18.9756C77.3223 18.8958 77.4192 18.777 77.48 18.6193H78.03C77.9673 18.8207 77.8657 18.9917 77.7251 19.1323C77.5845 19.2729 77.423 19.3793 77.2406 19.4515C77.0582 19.5219 76.8729 19.557 76.6848 19.557ZM76.1889 17.7729H77.5997C77.6225 17.619 77.6168 17.4793 77.5826 17.354C77.5503 17.2266 77.4876 17.1269 77.3945 17.0547C77.3033 16.9806 77.1798 16.9436 77.024 16.9436C76.8644 16.9436 76.7257 16.9844 76.6079 17.0661C76.4901 17.1478 76.3951 17.2523 76.3229 17.3796C76.2526 17.5069 76.2079 17.638 76.1889 17.7729ZM79.6199 19.557C79.4223 19.557 79.2418 19.5247 79.0784 19.4601C78.915 19.3955 78.7848 19.2938 78.6879 19.1551C78.591 19.0164 78.5426 18.8388 78.5426 18.6222H79.0784C79.086 18.7343 79.1173 18.8274 79.1724 18.9015C79.2294 18.9737 79.3016 19.0278 79.389 19.0639C79.4764 19.0981 79.5733 19.1152 79.6797 19.1152C79.8564 19.1152 80.0037 19.082 80.1215 19.0155C80.2412 18.9471 80.3105 18.8426 80.3295 18.702C80.3447 18.6013 80.3267 18.5206 80.2754 18.4598C80.2241 18.3989 80.1367 18.3543 80.0132 18.3258L79.4774 18.1861C79.2494 18.1291 79.0736 18.0389 78.9501 17.9154C78.8266 17.79 78.7801 17.6152 78.8105 17.391C78.8352 17.2181 78.8979 17.0642 78.9986 16.9293C79.1012 16.7944 79.2399 16.6889 79.4147 16.613C79.5914 16.5351 79.8023 16.4961 80.0474 16.4961C80.3666 16.4961 80.6136 16.5702 80.7884 16.7184C80.9632 16.8666 81.0344 17.0813 81.0021 17.3625H80.4834C80.4834 17.2276 80.4397 17.1221 80.3523 17.0461C80.2649 16.9682 80.1414 16.9293 79.9818 16.9293C79.8146 16.9293 79.6731 16.9644 79.5572 17.0347C79.4432 17.1031 79.3767 17.2086 79.3577 17.3511C79.3444 17.448 79.3719 17.525 79.4403 17.5819C79.5106 17.637 79.6208 17.6826 79.7709 17.7188L80.2839 17.8584C80.4169 17.8964 80.5243 17.9467 80.606 18.0095C80.6877 18.0702 80.7485 18.1377 80.7884 18.2118C80.8302 18.2859 80.8558 18.3628 80.8653 18.4426C80.8748 18.5224 80.8739 18.5975 80.8625 18.6678C80.8378 18.854 80.7703 19.0136 80.6601 19.1466C80.5518 19.2777 80.4093 19.3793 80.2326 19.4515C80.0559 19.5219 79.8517 19.557 79.6199 19.557ZM82.4635 19.5199C82.2526 19.5199 82.093 19.4905 81.9847 19.4316C81.8764 19.3727 81.807 19.2881 81.7766 19.1779C81.7462 19.0658 81.7424 18.9309 81.7652 18.7732L82.0217 16.992H81.5657L81.6341 16.5531H82.1015L82.3352 15.6867H82.8112L82.6886 16.5502H83.3213L83.2558 16.992H82.6231L82.3723 18.7362C82.3533 18.8787 82.3656 18.9699 82.4093 19.0098C82.4549 19.0478 82.5328 19.0668 82.643 19.0668H82.9708L82.9109 19.463C82.8748 19.4781 82.8197 19.4914 82.7456 19.5029C82.6715 19.5142 82.5775 19.5199 82.4635 19.5199ZM83.6831 19.5L84.0992 16.5531H84.6777L84.2616 19.5H83.6831ZM84.1647 15.9831L84.2502 15.3817H84.8516L84.7661 15.9831H84.1647ZM85.8693 19.5L85.2708 16.5531H85.8237L86.2085 18.7276H86.2455L87.2658 16.5531H87.8187L86.3624 19.5H85.8693ZM89.02 19.557C88.7521 19.557 88.525 19.4972 88.3388 19.3774C88.1545 19.2558 88.0215 19.0829 87.9398 18.8587C87.8581 18.6345 87.8401 18.3676 87.8857 18.0579C87.9294 17.752 88.0196 17.4822 88.1564 17.2485C88.2951 17.0129 88.4718 16.8286 88.6865 16.6956C88.9031 16.5626 89.1501 16.4961 89.4275 16.4961C89.7011 16.4961 89.9225 16.5569 90.0916 16.6785C90.2607 16.8001 90.3775 16.9711 90.4421 17.1915C90.5067 17.41 90.5172 17.6684 90.4735 17.9667L90.445 18.1691H88.4671C88.4424 18.3458 88.4471 18.5044 88.4813 18.645C88.5155 18.7837 88.582 18.8939 88.6808 18.9756C88.7815 19.0554 88.9136 19.0953 89.077 19.0953C89.2423 19.0953 89.3914 19.0554 89.5244 18.9756C89.6574 18.8958 89.7543 18.777 89.8151 18.6193H90.3652C90.3025 18.8207 90.2008 18.9917 90.0602 19.1323C89.9196 19.2729 89.7581 19.3793 89.5757 19.4515C89.3933 19.5219 89.2081 19.557 89.02 19.557ZM88.5241 17.7729H89.9348C89.9576 17.619 89.9519 17.4793 89.9177 17.354C89.8854 17.2266 89.8227 17.1269 89.7296 17.0547C89.6384 16.9806 89.5149 16.9436 89.3591 16.9436C89.1995 16.9436 89.0608 16.9844 88.943 17.0661C88.8252 17.1478 88.7302 17.2523 88.658 17.3796C88.5877 17.5069 88.5431 17.638 88.5241 17.7729ZM90.9543 19.5L91.3704 16.5531H91.9432L91.8606 17.1573C91.9271 17.0129 92.0097 16.8922 92.1085 16.7953C92.2073 16.6965 92.3166 16.6224 92.4363 16.573C92.556 16.5217 92.6804 16.4961 92.8096 16.4961C92.8457 16.4961 92.8799 16.499 92.9122 16.5047C92.9464 16.5085 92.9721 16.516 92.9892 16.5274L92.9065 17.1146C92.8856 17.1031 92.8571 17.0955 92.821 17.0917C92.7849 17.0879 92.7545 17.0851 92.7298 17.0832C92.5626 17.0718 92.4135 17.0879 92.2824 17.1316C92.1513 17.1735 92.0449 17.2447 91.9632 17.3454C91.8815 17.4442 91.8292 17.5715 91.8064 17.7273L91.5585 19.5H90.9543Z" fill="#091E42"/>
</svg>
