<svg width="172" height="33" viewBox="0 0 172 33" fill="none" xmlns="http://www.w3.org/2000/svg">
<path d="M30.2136 6.83986C24.2858 1.25967 15.138 0.125366 15.138 0.125366C15.138 0.125366 5.9901 1.25967 0.0622953 6.83986C0.0622953 8.10226 -1.82215 27.7518 15.138 32.8746C32.0615 27.7518 30.2136 8.10226 30.2136 6.83986ZM15.138 8.83414C17.6262 8.83414 19.6936 10.9015 19.6936 13.3898C19.6936 15.878 17.6262 17.9454 15.138 17.9454C12.6497 17.9454 10.5823 15.878 10.5823 13.3898C10.5823 10.9015 12.6497 8.83414 15.138 8.83414ZM21.5049 24.6599C19.9863 26.3248 17.9189 27.7336 15.138 28.5752C12.357 27.7336 10.2896 26.3248 8.77107 24.6599V21.8057L11.5703 19.9945L15.1562 22.6657L18.7422 19.9945L21.5415 21.8057V24.6599H21.5049Z" fill="white"/>
<path d="M47.6068 4.36079C48.2821 4.36079 48.8382 4.39058 49.2752 4.45016C49.722 4.49982 50.1888 4.5892 50.6754 4.7183L50.3775 6.40159C49.5731 6.35193 48.6197 6.32711 47.5174 6.32711C46.991 6.32711 46.5739 6.41648 46.2661 6.59524C45.9582 6.76407 45.705 7.09179 45.5064 7.5784C45.3177 8.06501 45.1588 8.79494 45.0297 9.76817C44.9304 10.4931 44.8807 11.0294 44.8807 11.377C44.8807 11.9927 44.9949 12.4247 45.2233 12.673C45.4617 12.9113 45.8639 13.0305 46.4299 13.0305H46.9215C47.8848 13.0305 48.7587 12.9858 49.5433 12.8964L49.6327 14.5946C49.1361 14.7436 48.6396 14.8478 48.143 14.9074C47.6564 14.967 47.0606 14.9968 46.3555 14.9968C45.0247 14.9968 44.0515 14.7088 43.4358 14.1328C42.83 13.5469 42.5271 12.6034 42.5271 11.3025C42.5271 10.7861 42.5718 10.2151 42.6612 9.58941C42.8499 8.23881 43.1279 7.19109 43.4954 6.44628C43.8628 5.70146 44.3693 5.17015 45.0148 4.85237C45.6603 4.52465 46.5243 4.36079 47.6068 4.36079Z" fill="white"/>
<path d="M55.2356 7.26558C56.3875 7.26558 57.2068 7.4344 57.6935 7.77205C58.1801 8.1097 58.4234 8.61121 58.4234 9.27659C58.4234 9.44541 58.4085 9.6192 58.3787 9.79796C58.2794 10.4931 57.9964 10.9897 57.5296 11.2876C57.0628 11.5855 56.3429 11.7692 55.3696 11.8388L53.2097 12.0175C53.2196 12.5041 53.3388 12.8319 53.5672 13.0007C53.8055 13.1596 54.1729 13.239 54.6695 13.239C55.0568 13.239 55.5186 13.2241 56.0549 13.1943C56.6011 13.1645 57.0827 13.1248 57.4998 13.0752L57.6488 14.4754C57.2217 14.6542 56.7153 14.7833 56.1293 14.8627C55.5533 14.9521 54.9823 14.9968 54.4163 14.9968C53.1848 14.9968 52.291 14.7436 51.7349 14.2371C51.1887 13.7306 50.9156 12.961 50.9156 11.9281C50.9156 11.5905 50.9355 11.2777 50.9752 10.9897C51.0944 10.0164 51.3128 9.26169 51.6306 8.72542C51.9584 8.17922 52.4052 7.80185 52.9713 7.5933C53.5473 7.37482 54.3021 7.26558 55.2356 7.26558ZM56.2485 9.58941C56.2684 9.361 56.2435 9.19714 56.174 9.09783C56.1144 8.99852 56.0052 8.93397 55.8463 8.90418C55.6874 8.87438 55.4342 8.86445 55.0866 8.87438C54.6993 8.87438 54.3914 8.92404 54.163 9.02335C53.9445 9.12266 53.7707 9.30141 53.6416 9.55962C53.5225 9.81782 53.4182 10.2002 53.3288 10.7066L55.0419 10.5428C55.4391 10.513 55.7271 10.4335 55.9059 10.3044C56.0946 10.1753 56.2088 9.93699 56.2485 9.58941Z" fill="white"/>
<path d="M65.4034 7.26558L64.9118 9.30638H64.3755C64.0677 9.30638 63.7399 9.3759 63.3924 9.51493C63.0448 9.65396 62.5532 9.8923 61.9176 10.23L61.292 14.818H59.0873L60.1152 7.47413H61.8282V8.85949C62.9504 7.79688 63.9932 7.26558 64.9565 7.26558H65.4034Z" fill="white"/>
<path d="M68.5741 12.4644C68.5642 12.5339 68.5592 12.6183 68.5592 12.7176C68.5592 12.8865 68.6039 13.0056 68.6933 13.0752C68.7926 13.1347 68.9664 13.1645 69.2146 13.1645H70.1978L70.3021 14.7138C70.0439 14.8031 69.7112 14.8727 69.304 14.9223C68.8968 14.972 68.5443 14.9968 68.2464 14.9968C67.6306 14.9968 67.154 14.8429 66.8163 14.535C66.4787 14.2271 66.3098 13.8001 66.3098 13.2539C66.3098 13.1745 66.3198 13.0354 66.3396 12.8368L66.9057 8.94887H65.5799L65.7587 7.54861L67.1142 7.47413L67.4122 5.41843H69.5721L69.2742 7.47413H71.315L71.1065 8.94887H69.0657L68.5741 12.4644Z" fill="white"/>
<path d="M74.5499 4.22672C74.7783 4.22672 74.9421 4.2863 75.0414 4.40547C75.1507 4.52465 75.1954 4.69347 75.1755 4.91195L75.0712 5.71635C75.0414 5.9249 74.967 6.07883 74.8478 6.17814C74.7385 6.26752 74.5747 6.31221 74.3562 6.31221H73.4177C73.0106 6.31221 72.807 6.13345 72.807 5.77594L72.8219 5.62698L72.9262 4.83747C72.946 4.62892 73.0106 4.47499 73.1198 4.37568C73.239 4.27637 73.4078 4.22672 73.6263 4.22672H74.5499ZM73.7455 14.818H71.5557L72.5835 7.47413H74.7733L73.7455 14.818Z" fill="white"/>
<path d="M83.6276 14.818H81.4229L82.2422 8.94887H79.2629L78.3245 15.4884C78.2251 16.2034 77.962 16.7546 77.5349 17.1419C77.1178 17.5292 76.522 17.7228 75.7474 17.7228C75.3104 17.7228 74.6302 17.6682 73.7066 17.559L74.0492 16.0991H75.0026C75.3998 16.0991 75.6828 16.0296 75.8517 15.8906C76.0205 15.7615 76.1347 15.5033 76.1943 15.116L77.0881 8.94887H75.807L76.0006 7.54861L77.2966 7.47413L77.4456 6.44628C77.5548 5.67167 77.808 5.08574 78.2053 4.68851C78.6124 4.29127 79.2232 4.09265 80.0375 4.09265C80.3454 4.09265 80.6979 4.10755 81.0952 4.13734C81.5023 4.1572 81.835 4.19196 82.0932 4.24161L81.84 5.70146H80.7823C80.405 5.70146 80.1219 5.78587 79.9333 5.9547C79.7545 6.12352 79.6353 6.41152 79.5757 6.81869L79.4864 7.47413H84.6554L83.6276 14.818ZM84.4469 4.16713C84.6355 4.16713 84.7845 4.21679 84.8937 4.3161C85.003 4.41541 85.0576 4.54947 85.0576 4.7183L85.0427 4.85237L84.9384 5.65677C84.9086 5.87525 84.8441 6.02918 84.7448 6.11856C84.6455 6.20793 84.4866 6.25262 84.2681 6.25262H83.2998C83.0814 6.25262 82.9175 6.19304 82.8083 6.07387C82.699 5.9547 82.6593 5.78587 82.6891 5.56739L82.8083 4.77788C82.8281 4.56933 82.8877 4.41541 82.987 4.3161C83.0963 4.21679 83.2601 4.16713 83.4786 4.16713H84.4469Z" fill="white"/>
<path d="M89.7218 7.26558C90.2183 7.26558 90.7199 7.3053 91.2263 7.38475C91.7328 7.46419 92.1698 7.58337 92.5372 7.74226L92.2393 9.08293L90.0197 9.05314C89.553 9.05314 89.1855 9.11273 88.9174 9.2319C88.6493 9.34114 88.4407 9.54472 88.2917 9.84265C88.1428 10.1406 88.0335 10.5775 87.964 11.1535C87.9243 11.4614 87.9044 11.7494 87.9044 12.0175C87.9044 12.3552 87.9491 12.6084 88.0385 12.7772C88.1378 12.9461 88.2868 13.0603 88.4854 13.1198C88.684 13.1794 88.967 13.2092 89.3345 13.2092C90.2581 13.2092 91.0327 13.1645 91.6583 13.0752L91.8073 14.5201C91.0525 14.8379 90.0992 14.9968 88.9472 14.9968C87.7952 14.9968 86.9461 14.7684 86.3999 14.3116C85.8537 13.8547 85.5806 13.1248 85.5806 12.1218C85.5806 11.7941 85.6104 11.4366 85.67 11.0493C85.7991 10.1157 86.0126 9.37589 86.3105 8.82969C86.6085 8.28349 87.0305 7.88626 87.5767 7.63799C88.1229 7.38971 88.838 7.26558 89.7218 7.26558Z" fill="white"/>
<path d="M97.2888 7.26558C97.8151 7.26558 98.4458 7.31027 99.1806 7.39964C99.9155 7.48902 100.501 7.5933 100.938 7.71247L99.9404 14.818H98.2273L98.2571 13.4923C97.8797 13.9689 97.4229 14.3413 96.8866 14.6095C96.3503 14.8677 95.7545 14.9968 95.099 14.9968C94.3939 14.9968 93.8775 14.7982 93.5498 14.4009C93.232 14.0037 93.0731 13.3781 93.0731 12.524C93.0731 12.0175 93.1129 11.511 93.1923 11.0046C93.3512 9.91216 93.6044 9.09783 93.952 8.56156C94.3095 8.01536 94.7415 7.66281 95.248 7.50392C95.7644 7.34502 96.4447 7.26558 97.2888 7.26558ZM95.9034 13.2092C96.2808 13.2092 96.6532 13.095 97.0207 12.8666C97.3881 12.6283 97.7655 12.2807 98.1528 11.8239L98.5848 8.88928H97.4527C96.9561 8.88928 96.5837 8.93893 96.3354 9.03824C96.0872 9.12762 95.8935 9.32127 95.7545 9.6192C95.6154 9.91713 95.5012 10.3888 95.4119 11.0344C95.3225 11.6401 95.2778 12.1019 95.2778 12.4197C95.2778 12.7276 95.3225 12.9361 95.4119 13.0454C95.5112 13.1546 95.675 13.2092 95.9034 13.2092Z" fill="white"/>
<path d="M110.217 4.39058L108.742 14.818H107.014V13.4774C106.597 13.9143 106.125 14.2768 105.599 14.5648C105.082 14.8528 104.536 14.9968 103.96 14.9968C103.275 14.9968 102.753 14.7882 102.396 14.3711C102.048 13.9441 101.875 13.2589 101.875 12.3154C101.875 11.9281 101.904 11.4912 101.964 11.0046C102.103 9.98168 102.321 9.19714 102.619 8.65094C102.927 8.10474 103.29 7.73729 103.707 7.54861C104.134 7.35992 104.655 7.26558 105.271 7.26558C106.055 7.26558 106.845 7.33013 107.639 7.45923C107.639 6.98255 107.674 6.5009 107.744 6.01428L108.012 4.39058H110.217ZM104.198 11.0344C104.119 11.6103 104.079 12.0274 104.079 12.2857C104.079 12.6034 104.124 12.8269 104.213 12.956C104.313 13.0752 104.481 13.1347 104.72 13.1347C105.087 13.1347 105.435 13.0454 105.763 12.8666C106.1 12.6879 106.492 12.4048 106.939 12.0175L107.371 8.8148H106.195C105.688 8.8148 105.316 8.86445 105.077 8.96376C104.839 9.06307 104.655 9.26665 104.526 9.57451C104.397 9.87244 104.288 10.3591 104.198 11.0344Z" fill="white"/>
<path d="M114.936 7.26558C116.117 7.26558 116.986 7.49399 117.543 7.95081C118.099 8.40763 118.377 9.14748 118.377 10.1704C118.377 10.4981 118.347 10.8556 118.287 11.2429C118.158 12.1764 117.935 12.9163 117.617 13.4625C117.309 14.0087 116.872 14.4059 116.306 14.6542C115.75 14.8925 115.02 15.0117 114.116 15.0117C112.935 15.0117 112.061 14.7833 111.495 14.3265C110.938 13.8696 110.66 13.1298 110.66 12.1069C110.66 11.7196 110.685 11.372 110.735 11.0641C110.864 10.1306 111.082 9.39079 111.39 8.84459C111.708 8.28846 112.15 7.88626 112.716 7.63799C113.282 7.38971 114.022 7.26558 114.936 7.26558ZM114.921 8.91907C114.504 8.91907 114.176 8.98362 113.938 9.11273C113.709 9.2319 113.52 9.45534 113.372 9.78306C113.232 10.1108 113.118 10.5974 113.029 11.2429C112.969 11.6401 112.94 11.9728 112.94 12.241C112.94 12.668 113.029 12.961 113.208 13.1198C113.386 13.2787 113.704 13.3582 114.161 13.3582C114.568 13.3582 114.886 13.2936 115.114 13.1645C115.353 13.0354 115.541 12.807 115.68 12.4793C115.819 12.1516 115.934 11.6799 116.023 11.0641C116.083 10.657 116.112 10.3193 116.112 10.0512C116.112 9.62417 116.023 9.33121 115.844 9.17231C115.666 9.00349 115.358 8.91907 114.921 8.91907Z" fill="white"/>
<path d="M127.743 4.40547C128.696 4.40547 129.471 4.51968 130.066 4.74809C130.662 4.9765 131.104 5.35388 131.392 5.88021C131.69 6.40655 131.839 7.12158 131.839 8.02529C131.839 8.53177 131.794 9.11273 131.705 9.76817C131.496 11.2379 131.199 12.3403 130.811 13.0752C130.424 13.81 129.903 14.3066 129.247 14.5648C128.592 14.823 127.678 14.9521 126.506 14.9521C125.384 14.9521 124.088 14.9074 122.618 14.818L124.063 4.53954C125.354 4.45016 126.581 4.40547 127.743 4.40547ZM129.322 9.58941C129.431 8.82473 129.485 8.23881 129.485 7.83164C129.485 7.38475 129.426 7.04213 129.307 6.80379C129.188 6.56545 128.999 6.40159 128.741 6.31221C128.482 6.22283 128.125 6.17814 127.668 6.17814L126.089 6.19304L125.121 13.1496C125.439 13.1596 125.89 13.1645 126.476 13.1645C127.112 13.1645 127.604 13.0801 127.951 12.9113C128.299 12.7325 128.577 12.3899 128.785 11.8834C129.004 11.377 129.183 10.6123 129.322 9.58941Z" fill="white"/>
<path d="M135.634 4.22672C135.862 4.22672 136.026 4.2863 136.125 4.40547C136.234 4.52465 136.279 4.69347 136.259 4.91195L136.155 5.71635C136.125 5.9249 136.051 6.07883 135.932 6.17814C135.822 6.26752 135.658 6.31221 135.44 6.31221H134.502C134.094 6.31221 133.891 6.13345 133.891 5.77594L133.906 5.62698L134.01 4.83747C134.03 4.62892 134.094 4.47499 134.204 4.37568C134.323 4.27637 134.492 4.22672 134.71 4.22672H135.634ZM134.829 14.818H132.64L133.667 7.47413H135.857L134.829 14.818Z" fill="white"/>
<path d="M140.63 7.26558C141.345 7.26558 142.085 7.31027 142.849 7.39964C143.624 7.48902 144.255 7.5933 144.741 7.71247L143.832 14.1626C143.674 15.4834 143.212 16.4318 142.447 17.0078C141.692 17.5937 140.635 17.8867 139.274 17.8867C138.897 17.8867 138.44 17.8569 137.904 17.7973C137.377 17.7476 136.921 17.6434 136.533 17.4845L136.697 16.1885C137.035 16.1984 137.735 16.2034 138.798 16.2034C139.542 16.2034 140.158 16.0991 140.645 15.8906C141.131 15.692 141.459 15.3444 141.628 14.8478C141.707 14.6095 141.762 14.4307 141.792 14.3116C141.861 14.0534 141.926 13.8448 141.985 13.6859C142.045 13.5171 142.129 13.3532 142.239 13.1943C141.861 13.7306 141.385 14.1576 140.809 14.4754C140.233 14.7833 139.592 14.9372 138.887 14.9372C138.202 14.9372 137.69 14.7386 137.353 14.3413C137.015 13.9441 136.846 13.3135 136.846 12.4495C136.846 12.0721 136.886 11.5905 136.965 11.0046C137.124 9.90223 137.367 9.08293 137.695 8.54666C138.023 8.01039 138.41 7.66281 138.857 7.50392C139.314 7.34502 139.905 7.26558 140.63 7.26558ZM139.647 13.2092C140.034 13.2092 140.411 13.095 140.779 12.8666C141.156 12.6283 141.548 12.2807 141.956 11.8239L142.388 8.88928H141.196C140.689 8.88928 140.312 8.9439 140.064 9.05314C139.825 9.15245 139.642 9.3461 139.513 9.6341C139.393 9.92209 139.289 10.3888 139.2 11.0344C139.1 11.6997 139.051 12.1516 139.051 12.3899C139.051 12.6978 139.095 12.9113 139.185 13.0305C139.284 13.1496 139.438 13.2092 139.647 13.2092Z" fill="white"/>
<path d="M148.566 4.22672C148.795 4.22672 148.958 4.2863 149.058 4.40547C149.167 4.52465 149.212 4.69347 149.192 4.91195L149.088 5.71635C149.058 5.9249 148.983 6.07883 148.864 6.17814C148.755 6.26752 148.591 6.31221 148.372 6.31221H147.434C147.027 6.31221 146.823 6.13345 146.823 5.77594L146.838 5.62698L146.942 4.83747C146.962 4.62892 147.027 4.47499 147.136 4.37568C147.255 4.27637 147.424 4.22672 147.643 4.22672H148.566ZM147.762 14.818H145.572L146.6 7.47413H148.79L147.762 14.818Z" fill="white"/>
<path d="M152.803 12.4644C152.793 12.5339 152.788 12.6183 152.788 12.7176C152.788 12.8865 152.832 13.0056 152.922 13.0752C153.021 13.1347 153.195 13.1645 153.443 13.1645H154.426L154.531 14.7138C154.272 14.8031 153.94 14.8727 153.532 14.9223C153.125 14.972 152.773 14.9968 152.475 14.9968C151.859 14.9968 151.382 14.8429 151.045 14.535C150.707 14.2271 150.538 13.8001 150.538 13.2539C150.538 13.1745 150.548 13.0354 150.568 12.8368L151.134 8.94887H149.808L149.987 7.54861L151.343 7.47413L151.641 5.41843H153.801L153.503 7.47413H155.543L155.335 8.94887H153.294L152.803 12.4644Z" fill="white"/>
<path d="M160.089 7.26558C160.616 7.26558 161.246 7.31027 161.981 7.39964C162.716 7.48902 163.302 7.5933 163.739 7.71247L162.741 14.818H161.028L161.057 13.4923C160.68 13.9689 160.223 14.3413 159.687 14.6095C159.151 14.8677 158.555 14.9968 157.899 14.9968C157.194 14.9968 156.678 14.7982 156.35 14.4009C156.032 14.0037 155.874 13.3781 155.874 12.524C155.874 12.0175 155.913 11.511 155.993 11.0046C156.152 9.91216 156.405 9.09783 156.752 8.56156C157.11 8.01536 157.542 7.66281 158.048 7.50392C158.565 7.34502 159.245 7.26558 160.089 7.26558ZM158.704 13.2092C159.081 13.2092 159.454 13.095 159.821 12.8666C160.189 12.6283 160.566 12.2807 160.953 11.8239L161.385 8.88928H160.253C159.757 8.88928 159.384 8.93893 159.136 9.03824C158.888 9.12762 158.694 9.32127 158.555 9.6192C158.416 9.91713 158.302 10.3888 158.212 11.0344C158.123 11.6401 158.078 12.1019 158.078 12.4197C158.078 12.7276 158.123 12.9361 158.212 13.0454C158.312 13.1546 158.475 13.2092 158.704 13.2092Z" fill="white"/>
<path d="M167.029 12.4644C167.009 12.5836 166.999 12.663 166.999 12.7027C166.999 12.8716 167.053 12.9907 167.163 13.0603C167.272 13.1298 167.456 13.1645 167.714 13.1645H168.354L168.459 14.7287C168.29 14.818 168.027 14.8826 167.669 14.9223C167.322 14.972 167.014 14.9968 166.746 14.9968C166.12 14.9968 165.633 14.8478 165.286 14.5499C164.938 14.242 164.764 13.815 164.764 13.2688C164.764 13.1198 164.769 13.0056 164.779 12.9262L165.986 4.39058H168.176L167.029 12.4644Z" fill="white"/>
<path d="M44.7665 21.8205C44.544 21.8205 44.3771 21.8726 44.2659 21.9769C44.1616 22.0743 44.0956 22.2481 44.0678 22.4984L43.8696 23.9583H46.9043L46.8 24.7613H43.7549L43.5046 26.6176C43.4977 26.6663 43.4942 26.7289 43.4942 26.8053C43.4942 26.9722 43.5359 27.0904 43.6193 27.1599C43.7028 27.2294 43.8453 27.2642 44.0469 27.2642H46.8313L46.8105 28.0776C46.4142 28.1124 45.9936 28.1332 45.5486 28.1402C45.1106 28.1541 44.5683 28.1611 43.9218 28.1611C43.4212 28.1611 43.0458 28.0533 42.7955 27.8378C42.5452 27.6222 42.42 27.3198 42.42 26.9305C42.42 26.8679 42.427 26.7741 42.4409 26.6489L43.0562 22.1959C43.1118 21.7927 43.2752 21.4798 43.5463 21.2574C43.8175 21.0349 44.1825 20.9236 44.6413 20.9236C45.3505 20.9236 45.9379 20.9306 46.4037 20.9445C46.8765 20.9514 47.3215 20.9723 47.7386 21.0071L47.603 21.8205H44.7665Z" fill="white"/>
<path d="M54.9715 22.9155C55.3609 22.9155 55.6598 23.0163 55.8684 23.2179C56.077 23.4126 56.1812 23.6907 56.1812 24.0522C56.1812 24.1078 56.1743 24.2052 56.1604 24.3442L55.6285 28.1402H54.617L55.1175 24.5945C55.1314 24.4693 55.1384 24.3824 55.1384 24.3338C55.1384 24.1252 55.0897 23.9792 54.9924 23.8958C54.902 23.8123 54.763 23.7706 54.5753 23.7706C54.3319 23.7706 54.0886 23.8471 53.8453 24.0001C53.6089 24.153 53.2474 24.4554 52.7607 24.9073L52.3123 28.1402H51.3424L51.8325 24.5945C51.8464 24.525 51.8534 24.4276 51.8534 24.3025C51.8534 24.1148 51.8082 23.9792 51.7178 23.8958C51.6344 23.8123 51.4919 23.7706 51.2903 23.7706C51.04 23.7706 50.7932 23.8471 50.5498 24.0001C50.3135 24.153 49.9554 24.445 49.4757 24.8761L49.0273 28.1402H48.0261L48.7457 23.0511H49.5174L49.4653 24.1356C49.8824 23.7115 50.2648 23.4022 50.6124 23.2075C50.96 23.0128 51.3111 22.9155 51.6657 22.9155C52.055 22.9155 52.3505 23.0163 52.5521 23.2179C52.7607 23.4195 52.865 23.7011 52.865 24.0626C53.2613 23.6594 53.6263 23.3674 53.96 23.1866C54.2937 23.0059 54.6309 22.9155 54.9715 22.9155Z" fill="white"/>
<path d="M58.9038 20.8819C59.0012 20.8819 59.0742 20.9097 59.1228 20.9654C59.1715 21.021 59.1889 21.0974 59.175 21.1948L59.102 21.7788C59.0881 21.8761 59.0568 21.9491 59.0081 21.9978C58.9594 22.0395 58.8865 22.0604 58.7891 22.0604H58.3094C58.2121 22.0604 58.1356 22.0325 58.08 21.9769C58.0313 21.9144 58.0139 21.8344 58.0278 21.7371L58.1217 21.1531C58.1356 20.9723 58.2364 20.8819 58.4241 20.8819H58.9038ZM58.1738 28.1402H57.1727L57.8818 23.0511H58.883L58.1738 28.1402Z" fill="white"/>
<path d="M61.3439 26.6906C61.3369 26.7393 61.3334 26.8053 61.3334 26.8888C61.3334 27.0487 61.3752 27.1599 61.4586 27.2225C61.542 27.2851 61.688 27.3163 61.8966 27.3163H62.6579L62.6996 28.0985C62.5397 28.1471 62.3415 28.1819 62.1052 28.2028C61.8688 28.2236 61.6706 28.2341 61.5107 28.2341C61.1144 28.2341 60.8155 28.1367 60.6139 27.9421C60.4123 27.7474 60.3114 27.4658 60.3114 27.0973C60.3114 27.0417 60.3184 26.9374 60.3323 26.7845L60.7599 23.8332H59.8213L59.9152 23.1032L60.8642 23.0511L61.0832 21.5598H62.0739L61.8653 23.0511H63.4296L63.3253 23.8332H61.7506L61.3439 26.6906Z" fill="white"/>
<path d="M66.4306 22.9155C66.799 22.9155 67.2162 22.9433 67.682 22.9989C68.1478 23.0476 68.5615 23.1102 68.923 23.1866L68.2138 28.1402H67.4213L67.4734 27.1912C67.1884 27.518 66.8581 27.7787 66.4827 27.9733C66.1073 28.168 65.704 28.2653 65.273 28.2653C64.7724 28.2653 64.4039 28.1402 64.1676 27.8899C63.9381 27.6327 63.8234 27.1982 63.8234 26.5863C63.8234 26.3152 63.8512 25.9641 63.9068 25.5331C64.0111 24.7892 64.171 24.2295 64.3866 23.8541C64.6021 23.4717 64.8663 23.2214 65.1791 23.1032C65.4989 22.9781 65.9161 22.9155 66.4306 22.9155ZM65.4816 27.3893C65.8014 27.3893 66.1142 27.3024 66.4201 27.1286C66.726 26.9479 67.0737 26.6732 67.463 26.3048L67.8176 23.7811L66.7434 23.7602C66.2707 23.7602 65.923 23.8019 65.7006 23.8853C65.485 23.9688 65.3217 24.1356 65.2104 24.3859C65.0992 24.6362 65.0018 25.0429 64.9184 25.6061C64.8558 26.0302 64.8246 26.3673 64.8246 26.6176C64.8246 26.9235 64.8732 27.1286 64.9706 27.2329C65.0679 27.3372 65.2382 27.3893 65.4816 27.3893Z" fill="white"/>
<path d="M74.9183 22.9155C75.6622 22.9155 76.208 23.0684 76.5556 23.3743C76.9102 23.6733 77.0875 24.1634 77.0875 24.8448C77.0875 25.0812 77.0666 25.3453 77.0249 25.6373C76.9345 26.2839 76.7816 26.7984 76.566 27.1808C76.3575 27.5631 76.069 27.8412 75.7005 28.0151C75.339 28.1889 74.8697 28.2758 74.2926 28.2758C73.5487 28.2758 72.9995 28.1228 72.6449 27.8169C72.2903 27.511 72.1131 27.0139 72.1131 26.3256C72.1131 26.0962 72.1339 25.8424 72.1756 25.5643C72.266 24.9178 72.4155 24.4033 72.6241 24.0209C72.8326 23.6316 73.1211 23.35 73.4896 23.1762C73.8581 23.0024 74.3343 22.9155 74.9183 22.9155ZM74.9183 23.7706C74.5568 23.7706 74.2648 23.8263 74.0423 23.9375C73.8268 24.0418 73.653 24.226 73.5209 24.4902C73.3958 24.7544 73.295 25.1368 73.2185 25.6373C73.1768 25.9293 73.1559 26.1762 73.1559 26.3778C73.1559 26.7741 73.2393 27.0487 73.4062 27.2016C73.58 27.3546 73.8755 27.4311 74.2926 27.4311C74.6611 27.4311 74.9531 27.3754 75.1686 27.2642C75.3911 27.146 75.5649 26.9548 75.69 26.6906C75.8152 26.4195 75.9125 26.0441 75.982 25.5643C76.0307 25.2098 76.055 24.956 76.055 24.8031C76.055 24.4137 75.9681 24.1461 75.7943 24.0001C75.6205 23.8471 75.3285 23.7706 74.9183 23.7706Z" fill="white"/>
<path d="M82.5529 22.9155C82.9214 22.9155 83.3212 22.9329 83.7522 22.9676C84.1902 23.0024 84.5622 23.0441 84.8681 23.0928L84.7429 23.8123C83.86 23.7845 83.1856 23.7672 82.7198 23.7602C82.3791 23.7602 82.1288 23.7706 81.9689 23.7915C81.816 23.8123 81.7013 23.861 81.6248 23.9375C81.5483 24.007 81.5101 24.1287 81.5101 24.3025C81.5101 24.4415 81.5553 24.5493 81.6456 24.6258C81.736 24.6953 81.8959 24.7822 82.1254 24.8865L83.5019 25.5122C83.8704 25.686 84.1346 25.8598 84.2945 26.0336C84.4544 26.2005 84.5344 26.4299 84.5344 26.7219C84.5344 26.7706 84.5274 26.8575 84.5135 26.9826C84.4648 27.3511 84.3432 27.6292 84.1485 27.8169C83.9608 27.9977 83.707 28.1159 83.3872 28.1715C83.0744 28.2271 82.6468 28.2549 82.1045 28.2549C81.7638 28.2549 81.4823 28.2445 81.2598 28.2236C81.0373 28.2097 80.8357 28.1923 80.6549 28.1715L80.1335 28.1089L80.2482 27.3581C80.6376 27.3928 81.1694 27.4102 81.8438 27.4102C82.2818 27.4102 82.6155 27.3963 82.8449 27.3685C83.0744 27.3407 83.2377 27.292 83.3351 27.2225C83.4394 27.146 83.5019 27.0348 83.5228 26.8888C83.5297 26.861 83.5332 26.8262 83.5332 26.7845C83.5332 26.6732 83.495 26.5863 83.4185 26.5238C83.349 26.4612 83.2516 26.4056 83.1265 26.3569C83.0083 26.3013 82.9284 26.2631 82.8866 26.2422L81.5205 25.6165C81.1868 25.4566 80.9365 25.2793 80.7696 25.0846C80.6097 24.89 80.5298 24.6501 80.5298 24.3651C80.5298 24.2677 80.5333 24.1913 80.5402 24.1356C80.5958 23.6837 80.7801 23.3674 81.0929 23.1866C81.4127 23.0059 81.8994 22.9155 82.5529 22.9155Z" fill="white"/>
<path d="M88.5161 22.9155C89.2183 22.9155 89.7189 23.0267 90.0178 23.2492C90.3237 23.4647 90.4767 23.7845 90.4767 24.2086C90.4767 24.3199 90.4662 24.4381 90.4454 24.5632C90.362 25.0568 90.1673 25.4149 89.8614 25.6373C89.5555 25.8529 89.0862 25.985 88.4535 26.0336L86.6911 26.1901C86.6911 26.6698 86.7954 26.9965 87.004 27.1703C87.2125 27.3372 87.5358 27.4206 87.9738 27.4206C88.4466 27.4206 89.0723 27.3789 89.851 27.2955L89.9135 27.9733C89.6632 28.0707 89.34 28.1437 88.9437 28.1923C88.5474 28.241 88.172 28.2653 87.8174 28.2653C87.0665 28.2653 86.5173 28.0985 86.1697 27.7648C85.8221 27.4311 85.6483 26.9131 85.6483 26.2109C85.6483 26.0093 85.6656 25.759 85.7004 25.4601C85.7908 24.7926 85.9368 24.2782 86.1384 23.9166C86.347 23.5482 86.6355 23.2909 87.004 23.1449C87.3794 22.992 87.8834 22.9155 88.5161 22.9155ZM89.4338 24.4798C89.4408 24.4311 89.4442 24.3651 89.4442 24.2816C89.4442 24.1217 89.406 24.007 89.3295 23.9375C89.2531 23.861 89.1418 23.8123 88.9958 23.7915C88.8568 23.7706 88.6447 23.7602 88.3597 23.7602C87.9982 23.7602 87.7166 23.8054 87.515 23.8958C87.3133 23.9862 87.1534 24.1495 87.0353 24.3859C86.924 24.6223 86.8302 24.9734 86.7537 25.4392L88.4535 25.2828C88.7733 25.2619 89.0062 25.1959 89.1522 25.0846C89.2982 24.9664 89.3921 24.7648 89.4338 24.4798Z" fill="white"/>
<path d="M96.3069 23.0511L95.5977 28.1402H94.8156L94.8782 27.0765C94.4541 27.4867 94.0578 27.7891 93.6893 27.9838C93.3208 28.1784 92.9454 28.2758 92.563 28.2758C92.1598 28.2758 91.8504 28.1784 91.6349 27.9838C91.4263 27.7821 91.322 27.5041 91.322 27.1495C91.322 27.0939 91.329 26.9965 91.3429 26.8575L91.8748 23.0511H92.8863L92.3753 26.5968C92.3614 26.7358 92.3545 26.8297 92.3545 26.8783C92.3545 27.073 92.3962 27.2121 92.4796 27.2955C92.57 27.372 92.716 27.4102 92.9176 27.4102C93.2027 27.4102 93.4842 27.3268 93.7623 27.1599C94.0404 26.9861 94.4089 26.6906 94.8677 26.2735L95.3057 23.0511H96.3069Z" fill="white"/>
<path d="M104.921 20.8402L103.899 28.1402H103.106L103.159 27.0765C102.846 27.4172 102.491 27.7022 102.095 27.9316C101.706 28.1541 101.292 28.2653 100.854 28.2653C100.416 28.2653 100.082 28.1332 99.8528 27.8691C99.6303 27.6049 99.519 27.1599 99.519 26.5342C99.519 26.2144 99.5434 25.8807 99.592 25.5331C99.6963 24.7892 99.8528 24.2295 100.061 23.8541C100.277 23.4717 100.534 23.2214 100.833 23.1032C101.139 22.9781 101.528 22.9155 102.001 22.9155C102.488 22.9155 103.04 22.9572 103.659 23.0406C103.659 22.8112 103.684 22.4914 103.732 22.0812L103.909 20.8402H104.921ZM101.146 27.3893C101.459 27.3893 101.765 27.3024 102.064 27.1286C102.37 26.9548 102.735 26.6698 103.159 26.2735L103.492 23.7602C103.179 23.7533 102.814 23.7498 102.397 23.7498C101.938 23.7498 101.601 23.7915 101.386 23.8749C101.17 23.9583 101.007 24.1252 100.896 24.3755C100.784 24.6258 100.691 25.036 100.614 25.6061C100.551 26.0302 100.52 26.3673 100.52 26.6176C100.52 26.9096 100.565 27.1112 100.656 27.2225C100.753 27.3337 100.916 27.3893 101.146 27.3893Z" fill="white"/>
<path d="M108.375 22.9155C109.077 22.9155 109.578 23.0267 109.877 23.2492C110.183 23.4647 110.336 23.7845 110.336 24.2086C110.336 24.3199 110.325 24.4381 110.304 24.5632C110.221 25.0568 110.026 25.4149 109.72 25.6373C109.415 25.8529 108.945 25.985 108.313 26.0336L106.55 26.1901C106.55 26.6698 106.654 26.9965 106.863 27.1703C107.072 27.3372 107.395 27.4206 107.833 27.4206C108.306 27.4206 108.931 27.3789 109.71 27.2955L109.773 27.9733C109.522 28.0707 109.199 28.1437 108.803 28.1923C108.406 28.241 108.031 28.2653 107.676 28.2653C106.926 28.2653 106.376 28.0985 106.029 27.7648C105.681 27.4311 105.507 26.9131 105.507 26.2109C105.507 26.0093 105.525 25.759 105.559 25.4601C105.65 24.7926 105.796 24.2782 105.997 23.9166C106.206 23.5482 106.495 23.2909 106.863 23.1449C107.238 22.992 107.742 22.9155 108.375 22.9155ZM109.293 24.4798C109.3 24.4311 109.303 24.3651 109.303 24.2816C109.303 24.1217 109.265 24.007 109.189 23.9375C109.112 23.861 109.001 23.8123 108.855 23.7915C108.716 23.7706 108.504 23.7602 108.219 23.7602C107.857 23.7602 107.576 23.8054 107.374 23.8958C107.172 23.9862 107.012 24.1495 106.894 24.3859C106.783 24.6223 106.689 24.9734 106.613 25.4392L108.313 25.2828C108.632 25.2619 108.865 25.1959 109.011 25.0846C109.157 24.9664 109.251 24.7648 109.293 24.4798Z" fill="white"/>
<path d="M116.225 22.9155C116.969 22.9155 117.515 23.0684 117.862 23.3743C118.217 23.6733 118.394 24.1634 118.394 24.8448C118.394 25.0812 118.373 25.3453 118.332 25.6373C118.241 26.2839 118.088 26.7984 117.873 27.1808C117.664 27.5631 117.376 27.8412 117.007 28.0151C116.646 28.1889 116.177 28.2758 115.599 28.2758C114.856 28.2758 114.306 28.1228 113.952 27.8169C113.597 27.511 113.42 27.0139 113.42 26.3256C113.42 26.0962 113.441 25.8424 113.482 25.5643C113.573 24.9178 113.722 24.4033 113.931 24.0209C114.139 23.6316 114.428 23.35 114.796 23.1762C115.165 23.0024 115.641 22.9155 116.225 22.9155ZM116.225 23.7706C115.864 23.7706 115.572 23.8263 115.349 23.9375C115.134 24.0418 114.96 24.226 114.828 24.4902C114.703 24.7544 114.602 25.1368 114.525 25.6373C114.484 25.9293 114.463 26.1762 114.463 26.3778C114.463 26.7741 114.546 27.0487 114.713 27.2016C114.887 27.3546 115.182 27.4311 115.599 27.4311C115.968 27.4311 116.26 27.3754 116.475 27.2642C116.698 27.146 116.872 26.9548 116.997 26.6906C117.122 26.4195 117.219 26.0441 117.289 25.5643C117.338 25.2098 117.362 24.956 117.362 24.8031C117.362 24.4137 117.275 24.1461 117.101 24.0001C116.927 23.8471 116.635 23.7706 116.225 23.7706Z" fill="white"/>
<path d="M123.144 22.9155C123.526 22.9155 123.825 23.0128 124.04 23.2075C124.263 23.4022 124.374 23.6837 124.374 24.0522C124.374 24.1078 124.367 24.2052 124.353 24.3442L123.811 28.1402H122.81L123.3 24.5945C123.314 24.5111 123.321 24.4033 123.321 24.2712C123.321 24.0835 123.283 23.9549 123.206 23.8853C123.137 23.8089 123.011 23.7706 122.831 23.7706C122.546 23.7706 122.247 23.8575 121.934 24.0313C121.628 24.2052 121.221 24.4902 120.714 24.8865L120.276 28.1402H119.264L119.984 23.0511H120.787L120.735 24.1461C121.2 23.7289 121.624 23.4195 122.007 23.2179C122.396 23.0163 122.775 22.9155 123.144 22.9155Z" fill="white"/>
<path d="M130.799 20.8402L129.777 28.1402H128.984L129.036 27.0765C128.724 27.4172 128.369 27.7022 127.973 27.9316C127.583 28.1541 127.17 28.2653 126.732 28.2653C126.294 28.2653 125.96 28.1332 125.731 27.8691C125.508 27.6049 125.397 27.1599 125.397 26.5342C125.397 26.2144 125.421 25.8807 125.47 25.5331C125.574 24.7892 125.731 24.2295 125.939 23.8541C126.155 23.4717 126.412 23.2214 126.711 23.1032C127.017 22.9781 127.406 22.9155 127.879 22.9155C128.366 22.9155 128.918 22.9572 129.537 23.0406C129.537 22.8112 129.561 22.4914 129.61 22.0812L129.787 20.8402H130.799ZM127.024 27.3893C127.337 27.3893 127.643 27.3024 127.941 27.1286C128.247 26.9548 128.612 26.6698 129.036 26.2735L129.37 23.7602C129.057 23.7533 128.692 23.7498 128.275 23.7498C127.816 23.7498 127.479 23.7915 127.264 23.8749C127.048 23.9583 126.885 24.1252 126.773 24.3755C126.662 24.6258 126.568 25.036 126.492 25.6061C126.429 26.0302 126.398 26.3673 126.398 26.6176C126.398 26.9096 126.443 27.1112 126.534 27.2225C126.631 27.3337 126.794 27.3893 127.024 27.3893Z" fill="white"/>
<path d="M134.253 22.9155C134.955 22.9155 135.456 23.0267 135.755 23.2492C136.061 23.4647 136.214 23.7845 136.214 24.2086C136.214 24.3199 136.203 24.4381 136.182 24.5632C136.099 25.0568 135.904 25.4149 135.598 25.6373C135.292 25.8529 134.823 25.985 134.19 26.0336L132.428 26.1901C132.428 26.6698 132.532 26.9965 132.741 27.1703C132.949 27.3372 133.273 27.4206 133.711 27.4206C134.184 27.4206 134.809 27.3789 135.588 27.2955L135.65 27.9733C135.4 28.0707 135.077 28.1437 134.681 28.1923C134.284 28.241 133.909 28.2653 133.554 28.2653C132.803 28.2653 132.254 28.0985 131.907 27.7648C131.559 27.4311 131.385 26.9131 131.385 26.2109C131.385 26.0093 131.403 25.759 131.437 25.4601C131.528 24.7926 131.674 24.2782 131.875 23.9166C132.084 23.5482 132.372 23.2909 132.741 23.1449C133.116 22.992 133.62 22.9155 134.253 22.9155ZM135.171 24.4798C135.178 24.4311 135.181 24.3651 135.181 24.2816C135.181 24.1217 135.143 24.007 135.066 23.9375C134.99 23.861 134.879 23.8123 134.733 23.7915C134.594 23.7706 134.382 23.7602 134.097 23.7602C133.735 23.7602 133.454 23.8054 133.252 23.8958C133.05 23.9862 132.89 24.1495 132.772 24.3859C132.661 24.6223 132.567 24.9734 132.491 25.4392L134.19 25.2828C134.51 25.2619 134.743 25.1959 134.889 25.0846C135.035 24.9664 135.129 24.7648 135.171 24.4798Z" fill="white"/>
<path d="M142.186 22.9155C142.889 22.9155 143.389 23.0267 143.688 23.2492C143.994 23.4647 144.147 23.7845 144.147 24.2086C144.147 24.3199 144.137 24.4381 144.116 24.5632C144.032 25.0568 143.838 25.4149 143.532 25.6373C143.226 25.8529 142.757 25.985 142.124 26.0336L140.361 26.1901C140.361 26.6698 140.466 26.9965 140.674 27.1703C140.883 27.3372 141.206 27.4206 141.644 27.4206C142.117 27.4206 142.743 27.3789 143.521 27.2955L143.584 27.9733C143.334 28.0707 143.01 28.1437 142.614 28.1923C142.218 28.241 141.842 28.2653 141.488 28.2653C140.737 28.2653 140.188 28.0985 139.84 27.7648C139.492 27.4311 139.319 26.9131 139.319 26.2109C139.319 26.0093 139.336 25.759 139.371 25.4601C139.461 24.7926 139.607 24.2782 139.809 23.9166C140.017 23.5482 140.306 23.2909 140.674 23.1449C141.05 22.992 141.554 22.9155 142.186 22.9155ZM143.104 24.4798C143.111 24.4311 143.115 24.3651 143.115 24.2816C143.115 24.1217 143.076 24.007 143 23.9375C142.923 23.861 142.812 23.8123 142.666 23.7915C142.527 23.7706 142.315 23.7602 142.03 23.7602C141.669 23.7602 141.387 23.8054 141.185 23.8958C140.984 23.9862 140.824 24.1495 140.706 24.3859C140.594 24.6223 140.501 24.9734 140.424 25.4392L142.124 25.2828C142.444 25.2619 142.677 25.1959 142.823 25.0846C142.969 24.9664 143.062 24.7648 143.104 24.4798Z" fill="white"/>
<path d="M147.141 22.9155C147.509 22.9155 147.909 22.9329 148.34 22.9676C148.778 23.0024 149.15 23.0441 149.456 23.0928L149.331 23.8123C148.448 23.7845 147.773 23.7672 147.308 23.7602C146.967 23.7602 146.717 23.7706 146.557 23.7915C146.404 23.8123 146.289 23.861 146.213 23.9375C146.136 24.007 146.098 24.1287 146.098 24.3025C146.098 24.4415 146.143 24.5493 146.233 24.6258C146.324 24.6953 146.484 24.7822 146.713 24.8865L148.09 25.5122C148.458 25.686 148.722 25.8598 148.882 26.0336C149.042 26.2005 149.122 26.4299 149.122 26.7219C149.122 26.7706 149.115 26.8575 149.101 26.9826C149.053 27.3511 148.931 27.6292 148.736 27.8169C148.549 27.9977 148.295 28.1159 147.975 28.1715C147.662 28.2271 147.235 28.2549 146.692 28.2549C146.352 28.2549 146.07 28.2445 145.848 28.2236C145.625 28.2097 145.423 28.1923 145.243 28.1715L144.721 28.1089L144.836 27.3581C145.225 27.3928 145.757 27.4102 146.432 27.4102C146.87 27.4102 147.203 27.3963 147.433 27.3685C147.662 27.3407 147.826 27.292 147.923 27.2225C148.027 27.146 148.09 27.0348 148.111 26.8888C148.118 26.861 148.121 26.8262 148.121 26.7845C148.121 26.6732 148.083 26.5863 148.006 26.5238C147.937 26.4612 147.839 26.4056 147.714 26.3569C147.596 26.3013 147.516 26.2631 147.474 26.2422L146.108 25.6165C145.775 25.4566 145.524 25.2793 145.357 25.0846C145.198 24.89 145.118 24.6501 145.118 24.3651C145.118 24.2677 145.121 24.1913 145.128 24.1356C145.184 23.6837 145.368 23.3674 145.681 23.1866C146.001 23.0059 146.487 22.9155 147.141 22.9155Z" fill="white"/>
<path d="M151.759 26.6906C151.752 26.7393 151.748 26.8053 151.748 26.8888C151.748 27.0487 151.79 27.1599 151.873 27.2225C151.957 27.2851 152.103 27.3163 152.311 27.3163H153.073L153.114 28.0985C152.954 28.1471 152.756 28.1819 152.52 28.2028C152.283 28.2236 152.085 28.2341 151.925 28.2341C151.529 28.2341 151.23 28.1367 151.029 27.9421C150.827 27.7474 150.726 27.4658 150.726 27.0973C150.726 27.0417 150.733 26.9374 150.747 26.7845L151.175 23.8332H150.236L150.33 23.1032L151.279 23.0511L151.498 21.5598H152.489L152.28 23.0511H153.844L153.74 23.8332H152.165L151.759 26.6906Z" fill="white"/>
<path d="M155.948 20.8819C156.046 20.8819 156.119 20.9097 156.167 20.9654C156.216 21.021 156.233 21.0974 156.22 21.1948L156.147 21.7788C156.133 21.8761 156.101 21.9491 156.053 21.9978C156.004 22.0395 155.931 22.0604 155.834 22.0604H155.354C155.257 22.0604 155.18 22.0325 155.125 21.9769C155.076 21.9144 155.059 21.8344 155.072 21.7371L155.166 21.1531C155.18 20.9723 155.281 20.8819 155.469 20.8819H155.948ZM155.218 28.1402H154.217L154.926 23.0511H155.928L155.218 28.1402Z" fill="white"/>
<path d="M161.903 23.0511C161.812 23.5169 161.68 24.0174 161.507 24.5528C161.34 25.0881 161.169 25.5609 160.996 25.9711C160.857 26.2909 160.711 26.5933 160.558 26.8783C160.405 27.1634 160.269 27.3859 160.151 27.5458C160.005 27.7543 159.855 27.9073 159.702 28.0046C159.549 28.095 159.337 28.1402 159.066 28.1402H158.201C158.117 28.1402 158.044 28.1159 157.982 28.0672C157.919 28.0185 157.881 27.9525 157.867 27.8691L156.887 23.0511H157.94L158.68 27.3476H158.837C158.976 27.3476 159.087 27.3268 159.171 27.2851C159.254 27.2433 159.341 27.1599 159.431 27.0348C159.633 26.7706 159.876 26.2804 160.161 25.5643C160.342 25.1402 160.481 24.744 160.578 24.3755C160.683 24.007 160.777 23.5655 160.86 23.0511H161.903Z" fill="white"/>
<path d="M165.325 22.9155C166.027 22.9155 166.528 23.0267 166.827 23.2492C167.132 23.4647 167.285 23.7845 167.285 24.2086C167.285 24.3199 167.275 24.4381 167.254 24.5632C167.171 25.0568 166.976 25.4149 166.67 25.6373C166.364 25.8529 165.895 25.985 165.262 26.0336L163.5 26.1901C163.5 26.6698 163.604 26.9965 163.813 27.1703C164.021 27.3372 164.345 27.4206 164.783 27.4206C165.255 27.4206 165.881 27.3789 166.66 27.2955L166.722 27.9733C166.472 28.0707 166.149 28.1437 165.752 28.1923C165.356 28.241 164.981 28.2653 164.626 28.2653C163.875 28.2653 163.326 28.0985 162.978 27.7648C162.631 27.4311 162.457 26.9131 162.457 26.2109C162.457 26.0093 162.474 25.759 162.509 25.4601C162.599 24.7926 162.745 24.2782 162.947 23.9166C163.156 23.5482 163.444 23.2909 163.813 23.1449C164.188 22.992 164.692 22.9155 165.325 22.9155ZM166.243 24.4798C166.249 24.4311 166.253 24.3651 166.253 24.2816C166.253 24.1217 166.215 24.007 166.138 23.9375C166.062 23.861 165.951 23.8123 165.805 23.7915C165.665 23.7706 165.453 23.7602 165.168 23.7602C164.807 23.7602 164.525 23.8054 164.324 23.8958C164.122 23.9862 163.962 24.1495 163.844 24.3859C163.733 24.6223 163.639 24.9734 163.562 25.4392L165.262 25.2828C165.582 25.2619 165.815 25.1959 165.961 25.0846C166.107 24.9664 166.201 24.7648 166.243 24.4798Z" fill="white"/>
<path d="M172 22.9155L171.749 23.8645H171.468C171.204 23.8645 170.929 23.9444 170.644 24.1043C170.359 24.2573 169.959 24.5215 169.445 24.8969L169.007 28.1402H167.995L168.715 23.0511H169.486L169.424 24.2191C170.293 23.35 171.061 22.9155 171.729 22.9155H172Z" fill="white"/>
</svg>
