<svg width="85" height="13" viewBox="0 0 85 13" fill="none" xmlns="http://www.w3.org/2000/svg">
<path d="M3.73001 5.32001L2.14001 4.67999C1.53001 4.42999 1.12 4.11002 0.910004 3.71002C0.700004 3.32002 0.630012 2.82004 0.700012 2.23004C0.820012 1.34004 1.13 0.750012 1.63 0.450012C2.13 0.150012 2.91002 0 3.96002 0C5.01002 0 5.92001 0.110027 6.70001 0.340027L6.52002 1.58002C5.79002 1.56002 4.92001 1.54004 3.92001 1.54004C3.42001 1.53004 3.09 1.57002 2.91 1.65002C2.73 1.73002 2.61003 1.96002 2.56003 2.33002C2.52003 2.60002 2.54 2.79002 2.63 2.90002C2.72 3.01002 2.92001 3.11999 3.23001 3.23999L4.74002 3.82001C5.38002 4.07001 5.80001 4.38001 6.01001 4.76001C6.21001 5.13001 6.27 5.64999 6.19 6.29999C6.07 7.21999 5.77002 7.84002 5.30002 8.15002C4.83002 8.47002 4.02 8.63 2.88 8.63C1.94 8.63 0.98 8.51999 0 8.29999L0.190002 6.98004C1.91 7.02004 2.78003 7.04004 2.81003 7.04004C3.38003 7.04004 3.76 6.99001 3.97 6.88C4.17 6.77 4.30002 6.54 4.36002 6.19C4.39002 5.92 4.37001 5.73 4.29001 5.62C4.18001 5.52999 4.00001 5.42001 3.73001 5.32001Z" fill="#1D3E89"/>
<path d="M12.15 7.07001L12.27 8.20001C11.6 8.48001 10.72 8.62 9.63001 8.62C8.49001 8.62 7.70003 8.35001 7.27003 7.82001C6.84003 7.29001 6.69002 6.47 6.82002 5.37C6.97002 4.21 7.30002 3.41999 7.82002 2.98999C8.34002 2.55999 9.17003 2.35004 10.3 2.35004C11.35 2.35004 12.07 2.52 12.45 2.87C12.83 3.22 12.97 3.73002 12.87 4.40002C12.79 4.96002 12.56 5.36999 12.18 5.60999C11.8 5.84999 11.21 6 10.41 6.06L8.63001 6.19C8.64001 6.58 8.74003 6.84999 8.93003 6.98999C9.12003 7.12999 9.42004 7.20001 9.84004 7.20001C10.63 7.20001 11.4 7.16001 12.15 7.07001ZM8.74003 5.15002L10.14 5.02002C10.46 5.00002 10.7 4.93002 10.85 4.83002C11 4.73002 11.09 4.53 11.12 4.25C11.14 3.98 11.09 3.82001 10.97 3.76001C10.84 3.70001 10.58 3.66999 10.17 3.67999C9.70002 3.67999 9.37003 3.78004 9.18003 3.98004C9.00003 4.16004 8.85003 4.55002 8.74003 5.15002Z" fill="#1D3E89"/>
<path d="M15.27 2.53003V3.60004C15.71 3.17004 16.12 2.85002 16.49 2.65002C16.87 2.45002 17.26 2.35004 17.68 2.35004C18.12 2.35004 18.46 2.45001 18.71 2.64001C18.96 2.83001 19.11 3.11002 19.15 3.46002C19.9 2.72002 20.66 2.35004 21.41 2.35004C21.96 2.35004 22.37 2.49999 22.62 2.79999C22.88 3.09999 22.97 3.51004 22.89 4.04004L22.27 8.47003H20.48L21.04 4.52002C21.07 4.27002 21.05 4.1 20.98 4C20.91 3.9 20.78 3.85999 20.6 3.85999C20.4 3.85999 20.18 3.91999 19.95 4.04999C19.72 4.17999 19.41 4.42001 19.02 4.76001L18.5 8.47003H16.77L17.32 4.52002C17.36 4.28002 17.35 4.11001 17.28 4.01001C17.21 3.91001 17.09 3.85999 16.89 3.85999C16.68 3.85999 16.46 3.91999 16.23 4.04999C16 4.16999 15.7 4.40003 15.32 4.72003L14.8 8.47003H13.01L13.85 2.52002H15.27V2.53003Z" fill="#1D3E89"/>
<path d="M25.53 2.53003L25.51 3.67999C25.87 3.31999 26.27 3.01001 26.72 2.76001C27.17 2.51001 27.6 2.39001 28.03 2.39001C28.74 2.39001 29.22 2.64 29.49 3.13C29.76 3.62 29.81 4.45001 29.65 5.63C29.58 6.14 29.48 6.59001 29.35 6.95001C29.22 7.32001 29.08 7.61002 28.92 7.83002C28.76 8.05002 28.56 8.22003 28.33 8.34003C28.1 8.46003 27.87 8.55003 27.64 8.59003C27.41 8.63003 27.13 8.65002 26.82 8.65002C26.23 8.65002 25.63 8.59999 25.03 8.48999C25.03 8.86999 25 9.23999 24.94 9.60999L24.75 10.78H22.95L24.12 2.54004H25.53V2.53003ZM25.24 7.39001H26.17C26.79 7.39001 27.19 7.29002 27.38 7.08002C27.57 6.87002 27.72 6.38003 27.82 5.59003C27.92 4.83003 27.94 4.35001 27.87 4.14001C27.81 3.93001 27.64 3.82001 27.36 3.82001C27.15 3.82001 26.88 3.91003 26.56 4.09003C26.24 4.27003 25.91 4.49999 25.59 4.79999L25.24 7.39001Z" fill="#1D3E89"/>
<path d="M35.22 2.35999L34.82 4.01001H34.38C34.13 4.01001 33.86 4.05998 33.58 4.16998C33.3 4.27998 32.9 4.46999 32.37 4.73999L31.86 8.47003H30.06L30.9 2.52002H32.3V3.64001C33.22 2.78001 34.07 2.35004 34.86 2.35004H35.22V2.35999Z" fill="#1D3E89"/>
<path d="M40.26 7.07001L40.38 8.20001C39.71 8.48001 38.83 8.62 37.74 8.62C36.6 8.62 35.81 8.35001 35.38 7.82001C34.95 7.29001 34.8 6.47 34.93 5.37C35.08 4.21 35.41 3.41999 35.93 2.98999C36.45 2.55999 37.28 2.35004 38.41 2.35004C39.46 2.35004 40.18 2.52 40.56 2.87C40.94 3.22 41.08 3.73002 40.98 4.40002C40.9 4.96002 40.67 5.36999 40.29 5.60999C39.91 5.84999 39.32 6 38.52 6.06L36.74 6.20001C36.75 6.59001 36.85 6.86 37.04 7C37.23 7.14 37.53 7.21002 37.95 7.21002C38.73 7.20002 39.5 7.16001 40.26 7.07001ZM36.85 5.15002L38.25 5.02002C38.57 5.00002 38.81 4.93002 38.96 4.83002C39.11 4.73002 39.2 4.53 39.23 4.25C39.25 3.98 39.2 3.82001 39.08 3.76001C38.95 3.70001 38.69 3.66999 38.28 3.67999C37.81 3.67999 37.48 3.78004 37.29 3.98004C37.1 4.16004 36.96 4.55002 36.85 5.15002Z" fill="#1D3E89"/>
<path d="M47.698 0H82.568C83.528 0 84.2479 0.849988 84.1079 1.79999L82.688 10.79C82.568 11.55 81.9179 12.1 81.1479 12.1H46.478C45.828 12.1 45.248 11.71 44.998 11.12L43.1079 6.66003C42.9479 6.28003 42.988 5.83999 43.218 5.48999L46.3579 0.720032C46.6479 0.280032 47.158 0 47.698 0Z" fill="#EF7E26"/>
<path d="M52.1968 4.33572H50.024C49.6535 4.33572 49.4433 4.52726 49.4032 4.92051L49.213 6.26162H51.6261L51.576 6.66498H49.1629L48.9326 8.34888C48.8725 8.72197 49.0327 8.90345 49.4032 8.90345H51.556V9.29672C51.0753 9.32697 50.3344 9.34713 49.3331 9.34713C49.0027 9.34713 48.7524 9.25642 48.5922 9.07492C48.432 8.89342 48.3719 8.65138 48.4119 8.34888L48.9126 4.77939C48.9526 4.50714 49.0628 4.29538 49.243 4.13404C49.4232 3.97271 49.6635 3.90215 49.9639 3.90215C51.0253 3.90215 51.7963 3.9223 52.2769 3.95255L52.1968 4.33572Z" fill="#EDEDED"/>
<path d="M57.7941 3.90214H58.4049C58.475 3.90214 58.5351 3.92231 58.5651 3.97273C58.6051 4.01306 58.6151 4.07355 58.6151 4.15422L58.1145 9.33702H57.6039L58.0945 4.33571H57.9343L55.9317 8.60096C55.8917 8.71187 55.8115 8.76233 55.7014 8.76233H55.1807C55.0506 8.76233 54.9805 8.70182 54.9605 8.57074L54.1194 4.32562H53.9492L53.058 9.32699H52.5474L53.4886 4.11385C53.5186 3.9626 53.5987 3.89204 53.7289 3.89204H54.3296C54.4498 3.89204 54.5199 3.95255 54.5299 4.08363L55.2408 7.63293C55.2608 7.7136 55.2809 7.84474 55.3009 8.00607C55.3309 8.16741 55.351 8.28839 55.361 8.36906H55.5312C55.6514 8.07664 55.7615 7.83465 55.8616 7.6229L57.5338 4.06344C57.5938 3.96261 57.6739 3.90214 57.7941 3.90214Z" fill="#EDEDED"/>
<path d="M59.9667 9.32699H59.4561L60.217 3.89204H60.7377L59.9667 9.32699Z" fill="#EDEDED"/>
<path d="M63.6916 7.02785L62.5801 6.59428C62.2096 6.44303 61.9593 6.26154 61.8291 6.0397C61.699 5.81787 61.6589 5.50525 61.709 5.12208C61.749 4.82967 61.8192 4.58771 61.9193 4.4062C62.0194 4.2247 62.1596 4.09361 62.3298 4.01294C62.5 3.93227 62.6802 3.87174 62.8705 3.85157C63.0507 3.82132 63.291 3.81127 63.5814 3.82135C64.1421 3.82135 64.6528 3.86169 65.1334 3.95244L65.0733 4.32552C64.4926 4.29527 63.9819 4.27512 63.5213 4.27512C63.3711 4.27512 63.261 4.27512 63.1809 4.27512C63.1008 4.27512 63.0107 4.28517 62.9005 4.30533C62.7904 4.3255 62.7003 4.35577 62.6502 4.38602C62.5901 4.42635 62.5301 4.47679 62.47 4.53729C62.3999 4.60788 62.3498 4.68854 62.3198 4.78938C62.2797 4.89021 62.2497 5.02129 62.2297 5.16246C62.1996 5.44479 62.2196 5.64644 62.2997 5.77753C62.3799 5.90861 62.5501 6.0296 62.8204 6.14051L63.9118 6.564C64.3123 6.72533 64.5727 6.90683 64.7029 7.12866C64.823 7.3505 64.863 7.65304 64.813 8.05638C64.7729 8.34879 64.7029 8.59081 64.6127 8.76222C64.5226 8.93364 64.3824 9.07478 64.2022 9.17562C64.022 9.26637 63.8317 9.32686 63.6315 9.35711C63.4312 9.38736 63.1609 9.39742 62.8304 9.39742C62.2697 9.39742 61.739 9.35709 61.2484 9.27642L61.3185 8.89325C61.9493 8.9235 62.47 8.94372 62.8705 8.94372C63.3611 8.93363 63.7116 8.87314 63.9118 8.76222C64.1121 8.65131 64.2422 8.38913 64.3023 7.99588C64.3424 7.70346 64.3124 7.49172 64.2323 7.37072C64.1521 7.2598 63.9719 7.13877 63.6916 7.02785Z" fill="#EDEDED"/>
<path d="M68.057 7.02785L66.9456 6.59428C66.5751 6.44303 66.3248 6.26154 66.1946 6.0397C66.0645 5.81787 66.0244 5.50525 66.0745 5.12208C66.1145 4.82967 66.1846 4.58771 66.2847 4.4062C66.3849 4.2247 66.525 4.09361 66.6953 4.01294C66.8655 3.93227 67.0457 3.87174 67.236 3.85157C67.4162 3.82132 67.6565 3.81127 67.9469 3.82135C68.5076 3.82135 69.0182 3.86169 69.4989 3.95244L69.4388 4.32552C68.858 4.29527 68.3474 4.27512 67.8868 4.27512C67.7366 4.27512 67.6265 4.27512 67.5464 4.27512C67.4663 4.27512 67.3761 4.28517 67.266 4.30533C67.1559 4.3255 67.0657 4.35577 67.0157 4.38602C66.9656 4.41627 66.8955 4.47679 66.8354 4.53729C66.7653 4.60788 66.7153 4.68854 66.6852 4.78938C66.6452 4.89021 66.6152 5.02129 66.5951 5.16246C66.5651 5.44479 66.5851 5.64644 66.6652 5.77753C66.7453 5.90861 66.9155 6.0296 67.1859 6.14051L68.2773 6.564C68.6778 6.72533 68.9381 6.90683 69.0683 7.12866C69.1885 7.3505 69.2285 7.65304 69.1785 8.05638C69.1384 8.34879 69.0683 8.59081 68.9782 8.76222C68.8881 8.94373 68.7479 9.07478 68.5677 9.17562C68.3874 9.26637 68.1972 9.32686 67.9969 9.35711C67.7967 9.38736 67.5263 9.39742 67.1959 9.39742C66.6352 9.39742 66.1045 9.35709 65.6139 9.27642L65.684 8.89325C66.3148 8.9235 66.8355 8.94372 67.236 8.94372C67.7266 8.93363 68.077 8.87314 68.2773 8.76222C68.4775 8.65131 68.6077 8.38913 68.6678 7.99588C68.7078 7.70346 68.6778 7.49172 68.5977 7.37072C68.5076 7.2598 68.3273 7.13877 68.057 7.02785Z" fill="#EDEDED"/>
<path d="M72.7433 3.80121C73.4943 3.80121 74.0049 4.01297 74.2753 4.44656C74.5456 4.87006 74.6057 5.60613 74.4555 6.63463C74.3153 7.67322 74.065 8.39924 73.7045 8.80258C73.3441 9.216 72.7833 9.41765 72.0324 9.41765C71.2814 9.41765 70.7607 9.20589 70.5004 8.78239C70.2301 8.35889 70.17 7.62281 70.3102 6.58423C70.4503 5.54564 70.7007 4.8297 71.0611 4.41628C71.4216 4.00286 71.9723 3.80121 72.7433 3.80121ZM72.7233 4.26507C72.1325 4.26507 71.692 4.43649 71.4216 4.77933C71.1513 5.12216 70.951 5.73722 70.8208 6.64472C70.7007 7.52198 70.7307 8.12698 70.901 8.46981C71.0712 8.81265 71.4516 8.97398 72.0324 8.97398C72.6131 8.97398 73.0437 8.80255 73.314 8.45972C73.5844 8.11688 73.7846 7.49174 73.9148 6.59432C74.045 5.70698 74.0249 5.10198 73.8547 4.76923C73.6845 4.4264 73.314 4.26507 72.7233 4.26507Z" fill="#EDEDED"/>
<path d="M75.3164 9.32693L76.0774 3.89198C76.518 3.85165 77.1187 3.83148 77.8697 3.83148C78.4605 3.83148 78.881 3.94236 79.1213 4.17428C79.3616 4.4062 79.4417 4.80957 79.3616 5.40448C79.3015 5.84815 79.1714 6.1708 78.9911 6.39263C78.8009 6.61447 78.5306 6.74558 78.1601 6.79599L78.1501 6.8363C78.4404 6.91697 78.6206 7.17916 78.7008 7.61274L79.0412 9.32693H78.5205L78.1901 7.61274C78.1501 7.39091 78.07 7.23964 77.9698 7.14889C77.8597 7.05814 77.7095 7.0077 77.5192 7.0077C77.359 7.0077 77.1788 7.0077 76.9785 7.0077C76.7783 7.0077 76.6181 6.99767 76.4879 6.99767C76.3578 6.99767 76.2476 6.99767 76.1575 6.99767L75.8271 9.34705H75.3164V9.32693ZM76.2076 6.554H77.4892C77.9298 6.54392 78.2502 6.46325 78.4504 6.30192C78.6507 6.14058 78.7709 5.83806 78.8409 5.39439C78.901 4.96081 78.861 4.66839 78.7208 4.51714C78.5806 4.36589 78.2902 4.28525 77.8597 4.28525C77.3891 4.28525 76.9485 4.29529 76.528 4.30537L76.2076 6.554Z" fill="#EDEDED"/>
<path d="M44.4171 6.99768C44.6604 6.99768 44.8577 6.79904 44.8577 6.55401C44.8577 6.30898 44.6604 6.11034 44.4171 6.11034C44.1738 6.11034 43.9766 6.30898 43.9766 6.55401C43.9766 6.79904 44.1738 6.99768 44.4171 6.99768Z" fill="white"/>
</svg>
