<svg width="103" height="14" viewBox="0 0 103 14" fill="none" xmlns="http://www.w3.org/2000/svg">
<path d="M3.73004 6.92999L2.14001 6.28998C1.53001 6.03998 1.12003 5.72001 0.910034 5.32001C0.700034 4.93001 0.630012 4.43003 0.700012 3.84003C0.820012 2.95003 1.13 2.36 1.63 2.06C2.13 1.76 2.91002 1.60999 3.96002 1.60999C5.01002 1.60999 5.92001 1.72001 6.70001 1.95001L6.52002 3.19C5.79002 3.17 4.92004 3.15002 3.92004 3.15002C3.42004 3.14002 3.09003 3.18001 2.91003 3.26001C2.73003 3.34001 2.61 3.57 2.56 3.94C2.52 4.21 2.54 4.40001 2.63 4.51001C2.72 4.62001 2.92004 4.72998 3.23004 4.84998L4.73999 5.42999C5.37999 5.67999 5.80001 5.99 6.01001 6.37C6.21001 6.74 6.27 7.26003 6.19 7.91003C6.07 8.83003 5.77005 9.45001 5.30005 9.76001C4.83005 10.08 4.02 10.24 2.88 10.24C1.94 10.24 0.98 10.13 0 9.91003L0.190002 8.59003C1.91 8.63003 2.78 8.65002 2.81 8.65002C3.38 8.65002 3.76003 8.59999 3.97003 8.48999C4.17003 8.37999 4.30005 8.14999 4.36005 7.79999C4.39005 7.52999 4.37004 7.33998 4.29004 7.22998C4.18004 7.12998 4.00004 7.02999 3.73004 6.92999Z" fill="#1D3E89"/>
<path d="M12.15 8.67999L12.27 9.81C11.6 10.09 10.72 10.23 9.62998 10.23C8.48998 10.23 7.7 9.95999 7.27 9.42999C6.84 8.89999 6.68999 8.07998 6.81999 6.97998C6.96999 5.81998 7.29999 5.02998 7.81999 4.59998C8.33999 4.16998 9.17003 3.96002 10.3 3.96002C11.35 3.96002 12.07 4.12998 12.45 4.47998C12.83 4.82998 12.97 5.34001 12.87 6.01001C12.79 6.57001 12.56 6.98003 12.18 7.22003C11.8 7.46003 11.21 7.60998 10.41 7.66998L8.62998 7.79999C8.63998 8.18999 8.73997 8.45998 8.92997 8.59998C9.11997 8.73998 9.42 8.81 9.84 8.81C10.62 8.81 11.4 8.75999 12.15 8.67999ZM8.73997 6.76001L10.14 6.63C10.46 6.61 10.7 6.54 10.85 6.44C11 6.34 11.09 6.13999 11.12 5.85999C11.14 5.58999 11.09 5.43 10.97 5.37C10.84 5.31 10.58 5.27998 10.17 5.28998C9.70002 5.28998 9.36997 5.39003 9.17997 5.59003C8.99997 5.76003 8.84997 6.16001 8.73997 6.76001Z" fill="#1D3E89"/>
<path d="M15.27 4.14001V5.21002C15.71 4.78002 16.12 4.46001 16.49 4.26001C16.87 4.06001 17.2601 3.96002 17.6801 3.96002C18.1201 3.96002 18.46 4.06 18.71 4.25C18.96 4.44 19.11 4.72001 19.15 5.07001C19.9 4.33001 20.66 3.96002 21.41 3.96002C21.96 3.96002 22.37 4.11003 22.62 4.41003C22.88 4.71003 22.97 5.12002 22.89 5.65002L22.27 10.08H20.48L21.04 6.13C21.07 5.88 21.05 5.70999 20.98 5.60999C20.91 5.50999 20.78 5.47003 20.6 5.47003C20.4 5.47003 20.1801 5.53003 19.9501 5.66003C19.7201 5.79003 19.41 6.03 19.02 6.37L18.5 10.08H16.77L17.3201 6.13C17.3601 5.89 17.35 5.72 17.28 5.62C17.21 5.52 17.09 5.47003 16.89 5.47003C16.68 5.47003 16.46 5.53003 16.23 5.66003C16 5.78003 15.7001 6.01002 15.3201 6.33002L14.8 10.08H13.01L13.85 4.13H15.27V4.14001Z" fill="#1D3E89"/>
<path d="M25.53 4.14001L25.51 5.28998C25.87 4.92998 26.27 4.62 26.72 4.37C27.17 4.12 27.6 4 28.03 4C28.74 4 29.22 4.24999 29.49 4.73999C29.76 5.22999 29.81 6.05999 29.65 7.23999C29.58 7.74999 29.48 8.2 29.35 8.56C29.22 8.93 29.08 9.22 28.92 9.44C28.76 9.66 28.5601 9.83001 28.3301 9.95001C28.1001 10.07 27.87 10.16 27.64 10.2C27.41 10.24 27.1301 10.26 26.8201 10.26C26.2301 10.26 25.63 10.21 25.03 10.1C25.03 10.48 25.0001 10.85 24.9401 11.22L24.75 12.39H22.9501L24.12 4.15002H25.53V4.14001ZM25.24 9H26.17C26.79 9 27.19 8.9 27.38 8.69C27.57 8.48 27.7201 7.99001 27.8201 7.20001C27.9201 6.44001 27.94 5.96 27.87 5.75C27.81 5.54 27.64 5.42999 27.36 5.42999C27.15 5.42999 26.8801 5.52001 26.5601 5.70001C26.2401 5.88001 25.91 6.11003 25.59 6.41003L25.24 9Z" fill="#1D3E89"/>
<path d="M35.22 3.97003L34.8201 5.62H34.38C34.13 5.62 33.8601 5.67003 33.5801 5.78003C33.3001 5.89003 32.9 6.07998 32.37 6.34998L31.86 10.08H30.0601L30.9 4.13H32.3V5.25C33.22 4.39 34.07 3.96002 34.86 3.96002H35.22V3.97003Z" fill="#1D3E89"/>
<path d="M40.26 8.67999L40.38 9.81C39.71 10.09 38.83 10.23 37.74 10.23C36.6 10.23 35.81 9.95999 35.38 9.42999C34.95 8.89999 34.8 8.07998 34.93 6.97998C35.08 5.81998 35.41 5.02998 35.93 4.59998C36.45 4.16998 37.28 3.96002 38.41 3.96002C39.46 3.96002 40.18 4.12998 40.56 4.47998C40.94 4.82998 41.08 5.34001 40.98 6.01001C40.9 6.57001 40.67 6.98003 40.29 7.22003C39.91 7.46003 39.32 7.60998 38.52 7.66998L36.74 7.79999C36.75 8.18999 36.85 8.45998 37.04 8.59998C37.23 8.73998 37.5301 8.81 37.9501 8.81C38.7301 8.81 39.5 8.75999 40.26 8.67999ZM36.85 6.76001L38.25 6.63C38.57 6.61 38.8099 6.54 38.9599 6.44C39.1099 6.34 39.2 6.13999 39.23 5.85999C39.25 5.58999 39.2001 5.43 39.0801 5.37C38.9501 5.31 38.69 5.27998 38.28 5.28998C37.81 5.28998 37.48 5.39003 37.29 5.59003C37.1 5.79003 36.95 6.16001 36.85 6.76001Z" fill="#1D3E89"/>
<path d="M47.7079 0.949951H100.348C101.308 0.949951 102.028 1.79994 101.888 2.74994L100.468 11.74C100.348 12.5 99.698 13.05 98.928 13.05H46.4779C45.8279 13.05 45.2479 12.6599 44.9979 12.0699L43.1079 7.60999C42.9479 7.22999 42.9879 6.78994 43.2179 6.43994L46.3579 1.66998C46.6579 1.22998 47.1679 0.949951 47.7079 0.949951Z" fill="#C38D39"/>
<path d="M48.686 9.75212L49.4469 4.31717C50.0777 4.26676 50.6784 4.24658 51.219 4.24658C52.0099 4.24658 52.5405 4.45833 52.8108 4.87175C53.0811 5.28516 53.1412 6.02123 52.9911 7.05982C52.911 7.62449 52.8108 8.08832 52.6907 8.44123C52.5705 8.79415 52.4003 9.07651 52.1901 9.28826C51.9798 9.50001 51.7496 9.64116 51.4793 9.71175C51.219 9.79242 50.8786 9.82271 50.4781 9.82271C49.9475 9.82271 49.3468 9.80254 48.686 9.75212ZM49.9074 4.73056L49.2568 9.35886C49.7774 9.36894 50.1878 9.37904 50.4781 9.37904C50.9086 9.37904 51.2491 9.30845 51.4993 9.17736C51.7496 9.04628 51.9498 8.81436 52.1 8.48161C52.2502 8.14886 52.3703 7.66484 52.4604 7.01951C52.5906 6.12209 52.5705 5.507 52.3903 5.18433C52.2101 4.86166 51.8197 4.70035 51.209 4.70035C51.1489 4.70035 50.7184 4.7104 49.9074 4.73056Z" fill="#EDEDED"/>
<path d="M54.3624 9.75235H53.8418L54.6027 4.3174H55.1233L54.3624 9.75235Z" fill="#EDEDED"/>
<path d="M58.0969 7.4532L56.9857 7.01962C56.6152 6.86837 56.365 6.68688 56.2348 6.46505C56.1047 6.24321 56.0646 5.9306 56.1147 5.54743C56.1547 5.25501 56.2248 5.01305 56.3249 4.83155C56.425 4.65005 56.5652 4.51895 56.7354 4.43828C56.9056 4.35762 57.0857 4.29714 57.2759 4.27698C57.4561 4.24673 57.6965 4.23661 57.9868 4.2467C58.5475 4.2467 59.058 4.28703 59.5386 4.37779L59.4785 4.75086C58.8979 4.72061 58.3872 4.70046 57.9267 4.70046C57.7765 4.70046 57.6664 4.70046 57.5863 4.70046C57.5062 4.70046 57.4161 4.71051 57.306 4.73068C57.1959 4.75085 57.1058 4.78111 57.0557 4.81136C56.9956 4.8517 56.9356 4.90214 56.8756 4.96264C56.8055 5.03322 56.7554 5.11389 56.7254 5.21472C56.6853 5.31556 56.6653 5.44663 56.6353 5.5878C56.6053 5.87014 56.6252 6.07179 56.7053 6.20287C56.7854 6.33396 56.9556 6.45494 57.2259 6.56586L58.3172 6.9894C58.7176 7.15074 58.978 7.33224 59.1081 7.55407C59.2283 7.7759 59.2683 8.07839 59.2182 8.48172C59.1782 8.77414 59.1082 9.01615 59.0181 9.18757C58.9279 9.35899 58.7878 9.50013 58.6075 9.60096C58.4273 9.69171 58.237 9.7522 58.0368 9.78245C57.8366 9.8127 57.5663 9.82283 57.236 9.82283C56.6753 9.82283 56.1446 9.78244 55.6541 9.70177L55.7242 9.31866C56.3549 9.34891 56.8755 9.36906 57.2759 9.36906C57.7665 9.35898 58.1169 9.29849 58.3172 9.18757C58.5174 9.07665 58.6476 8.81448 58.7076 8.42122C58.7477 8.12881 58.7177 7.91706 58.6376 7.79606C58.5475 7.68514 58.3673 7.56412 58.0969 7.4532Z" fill="#EDEDED"/>
<path d="M64.4038 4.78126H62.6018L61.9109 9.75235H61.3904L62.0812 4.78126H60.2891L60.3592 4.3275H64.4539L64.4038 4.78126Z" fill="#EDEDED"/>
<path d="M64.6045 9.75228L65.3654 4.31733C65.8059 4.277 66.4065 4.25684 67.1574 4.25684C67.7481 4.25684 68.1685 4.36772 68.4088 4.59964C68.6491 4.83155 68.7293 5.23492 68.6492 5.82984C68.5891 6.27351 68.459 6.59615 68.2788 6.81799C68.0886 7.03982 67.8182 7.17093 67.4477 7.22135L67.4377 7.26166C67.7281 7.34233 67.9083 7.60451 67.9884 8.0381L68.3288 9.75228H67.8082L67.4778 8.0381C67.4378 7.81626 67.3577 7.66499 67.2576 7.57424C67.1475 7.48349 66.9972 7.43306 66.807 7.43306C66.6468 7.43306 66.4667 7.43306 66.2664 7.43306C66.0662 7.43306 65.906 7.42303 65.7759 7.42303C65.6457 7.42303 65.5355 7.42303 65.4454 7.42303L65.1151 9.77241H64.6045V9.75228ZM65.4955 6.97936H66.7771C67.2176 6.96927 67.5379 6.88861 67.7381 6.72727C67.9384 6.56594 68.0585 6.26341 68.1286 5.81975C68.1887 5.38616 68.1486 5.09375 68.0085 4.9425C67.8683 4.79125 67.578 4.7106 67.1475 4.7106C66.6769 4.7106 66.2363 4.72064 65.8159 4.73072L65.4955 6.97936Z" fill="#EDEDED"/>
<path d="M69.9106 9.75235H69.3901L70.151 4.3174H70.6715L69.9106 9.75235Z" fill="#EDEDED"/>
<path d="M71.3525 9.75228L72.1134 4.31733C72.5139 4.277 73.0646 4.25684 73.7654 4.25684C74.4261 4.25684 74.8666 4.35766 75.1169 4.55932C75.3572 4.76099 75.4373 5.14415 75.3672 5.68866C75.3071 6.08191 75.197 6.37432 75.0268 6.5659C74.8566 6.76757 74.6064 6.87852 74.286 6.90877L74.276 6.94908C74.6564 6.97933 74.9166 7.12053 75.0468 7.36253C75.1769 7.60453 75.217 7.95743 75.147 8.41118C75.0669 8.95568 74.8967 9.32874 74.6263 9.52032C74.356 9.71191 73.9156 9.80269 73.2848 9.80269C72.4439 9.81277 71.8031 9.79261 71.3525 9.75228ZM72.2235 7.14066L71.9231 9.35901C72.3536 9.3691 72.7842 9.3792 73.2247 9.3792C73.7053 9.3792 74.0557 9.30859 74.2559 9.15734C74.4562 9.00609 74.5863 8.72379 74.6464 8.31037C74.7065 7.85662 74.6564 7.55408 74.5062 7.39275C74.346 7.23141 74.0157 7.15075 73.5251 7.14066H72.2235ZM72.2837 6.73737H73.545C73.9855 6.72728 74.306 6.65667 74.4962 6.5155C74.6864 6.37433 74.8065 6.10209 74.8666 5.70884C74.9267 5.29542 74.8766 5.03327 74.7164 4.90219C74.5562 4.7711 74.2359 4.70051 73.7553 4.70051C73.1647 4.70051 72.7641 4.70052 72.5739 4.7106L72.2837 6.73737Z" fill="#EDEDED"/>
<path d="M80.7135 4.3275L80.2329 7.7155C80.1228 8.49191 79.9025 9.04651 79.5721 9.36918C79.2418 9.69185 78.7412 9.85316 78.0704 9.85316C77.3796 9.85316 76.8991 9.68175 76.6288 9.349C76.3585 9.01624 76.2884 8.46163 76.3986 7.68522L76.8691 4.3275H77.3897L76.9092 7.7155C76.8291 8.34066 76.8691 8.78432 77.0393 9.02632C77.2095 9.26832 77.5498 9.3994 78.0604 9.3994C78.581 9.3994 78.9715 9.26831 79.2218 9.01623C79.4721 8.76414 79.6423 8.32048 79.7223 7.69531L80.1929 4.33759H80.7135V4.3275Z" fill="#EDEDED"/>
<path d="M81.8641 9.75235H81.3535L82.1144 4.3174H82.635L81.8641 9.75235Z" fill="#EDEDED"/>
<path d="M83.3062 9.75212L84.0671 4.31717C84.7078 4.26676 85.2985 4.24658 85.8391 4.24658C86.63 4.24658 87.1606 4.45833 87.4309 4.87175C87.7012 5.28516 87.7614 6.02123 87.6112 7.05982C87.5311 7.62449 87.4309 8.08832 87.3108 8.44123C87.1907 8.79415 87.0205 9.07651 86.8102 9.28826C86.6 9.50001 86.3698 9.64116 86.0994 9.71175C85.8391 9.79242 85.4987 9.82271 85.0983 9.82271C84.5777 9.82271 83.9769 9.80254 83.3062 9.75212ZM84.5277 4.73056L83.8769 9.35886C84.3975 9.36894 84.8079 9.37904 85.0983 9.37904C85.5288 9.37904 85.8692 9.30845 86.1195 9.17736C86.3698 9.04628 86.57 8.81436 86.7202 8.48161C86.8703 8.14886 86.9905 7.66484 87.0806 7.01951C87.2107 6.12209 87.1907 5.507 87.0105 5.18433C86.8303 4.86166 86.4398 4.70035 85.8291 4.70035C85.769 4.70035 85.3386 4.7104 84.5277 4.73056Z" fill="#EDEDED"/>
<path d="M91.0853 4.22656C91.8362 4.22656 92.3468 4.43833 92.6171 4.87191C92.8874 5.29541 92.9475 6.03148 92.7973 7.05999C92.6572 8.09857 92.4069 8.8246 92.0465 9.22793C91.6861 9.64135 91.1254 9.843 90.3745 9.843C89.6236 9.843 89.103 9.63125 88.8427 9.20775C88.5724 8.78425 88.5124 8.04817 88.6525 7.00958C88.7927 5.97099 89.043 5.25511 89.4034 4.84169C89.7638 4.43836 90.3244 4.22656 91.0853 4.22656ZM91.0753 4.69042C90.4846 4.69042 90.0441 4.86185 89.7738 5.20468C89.5035 5.54752 89.3033 6.16258 89.1732 7.07008C89.053 7.94733 89.083 8.55233 89.2532 8.89516C89.4234 9.238 89.8039 9.39933 90.3845 9.39933C90.9652 9.39933 91.3957 9.22791 91.666 8.88507C91.9363 8.54224 92.1366 7.91709 92.2667 7.01967C92.3969 6.13234 92.3768 5.52734 92.2066 5.19459C92.0364 4.85175 91.6559 4.69042 91.0753 4.69042Z" fill="#EDEDED"/>
<path d="M93.6582 9.75228L94.4191 4.31733C94.8596 4.277 95.4602 4.25684 96.2111 4.25684C96.8018 4.25684 97.2223 4.36772 97.4625 4.59964C97.7028 4.83155 97.7829 5.23492 97.7028 5.82984C97.6427 6.27351 97.5126 6.59615 97.3324 6.81799C97.1422 7.03982 96.8719 7.17093 96.5015 7.22135L96.4914 7.26166C96.7818 7.34233 96.962 7.60451 97.0421 8.0381L97.3825 9.75228H96.8619L96.5315 8.0381C96.4915 7.81626 96.4114 7.66499 96.3113 7.57424C96.2012 7.48349 96.0509 7.43306 95.8607 7.43306C95.7005 7.43306 95.5203 7.43306 95.32 7.43306C95.1198 7.43306 94.9596 7.42303 94.8295 7.42303C94.6993 7.42303 94.5892 7.42303 94.4991 7.42303L94.1688 9.77241H93.6582V9.75228ZM94.5492 6.97936H95.8306C96.2711 6.96927 96.5916 6.88861 96.7918 6.72727C96.9921 6.56594 97.1122 6.26341 97.1823 5.81975C97.2424 5.38616 97.2023 5.09375 97.0622 4.9425C96.922 4.79125 96.6316 4.7106 96.2011 4.7106C95.7305 4.7106 95.2901 4.72064 94.8696 4.73072L94.5492 6.97936Z" fill="#EDEDED"/>
<path d="M44.7813 7.42299C45.0246 7.42299 45.2218 7.22435 45.2218 6.97932C45.2218 6.73428 45.0246 6.53564 44.7813 6.53564C44.538 6.53564 44.3408 6.73428 44.3408 6.97932C44.3408 7.22435 44.538 7.42299 44.7813 7.42299Z" fill="white"/>
</svg>
