<svg width="68" height="13" viewBox="0 0 68 13" fill="none" xmlns="http://www.w3.org/2000/svg">
<path d="M65.3702 0.905029C65.6902 0.905029 65.9902 1.04503 66.2002 1.28503C66.4102 1.52503 66.5002 1.84504 66.4502 2.16504L65.0302 11.155C64.9502 11.685 64.4902 12.075 63.9502 12.075H46.3702C45.9102 12.075 45.4902 11.805 45.3102 11.375L43.4202 6.91504C43.3202 6.67504 43.3402 6.405 43.4902 6.185L46.6302 1.41504C46.8402 1.09504 47.2002 0.89502 47.5902 0.89502H65.3702M65.3702 0.445007H47.5902C47.0502 0.445007 46.5402 0.715049 46.2402 1.17505L43.1002 5.94501C42.8702 6.29501 42.8302 6.72499 42.9902 7.11499L44.8802 11.575C45.1302 12.175 45.7202 12.555 46.3602 12.555H63.9402C64.7102 12.555 65.3602 11.995 65.4802 11.245L66.9002 2.255C67.0602 1.295 66.3302 0.445007 65.3702 0.445007Z" fill="#AD1B15"/>
<path d="M44.3599 7.04498C44.6029 7.04498 44.7999 6.84799 44.7999 6.60498C44.7999 6.36198 44.6029 6.16498 44.3599 6.16498C44.1169 6.16498 43.9199 6.36198 43.9199 6.60498C43.9199 6.84799 44.1169 7.04498 44.3599 7.04498Z" fill="#AD1B15"/>
<path d="M3.72998 6.37488L2.14001 5.73492C1.53001 5.48492 1.12003 5.16489 0.910034 4.76489C0.700034 4.37489 0.630012 3.87491 0.700012 3.28491C0.820012 2.39491 1.13 1.80488 1.63 1.50488C2.13 1.20488 2.91002 1.05487 3.96002 1.05487C5.01002 1.05487 5.92001 1.1649 6.70001 1.3949L6.52002 2.63489C5.79002 2.61489 4.91998 2.59491 3.91998 2.59491C3.41998 2.58491 3.09003 2.62489 2.91003 2.7049C2.73003 2.7849 2.61 3.01489 2.56 3.38489C2.52 3.65489 2.54 3.8449 2.63 3.9549C2.72 4.06489 2.91998 4.17492 3.22998 4.29492L4.73999 4.87488C5.37999 5.12488 5.80001 5.43488 6.01001 5.81488C6.21001 6.18488 6.27 6.70492 6.19 7.35492C6.07 8.27492 5.76999 8.8949 5.29999 9.2049C4.82999 9.52489 4.02 9.68488 2.88 9.68488C1.94 9.68488 0.98 9.57492 0 9.35492L0.190002 8.03491C1.91 8.07491 2.78 8.09491 2.81 8.09491C3.38 8.09491 3.76003 8.04488 3.97003 7.93488C4.17003 7.82488 4.29999 7.59487 4.35999 7.24487C4.38999 6.97487 4.37004 6.78493 4.29004 6.67493C4.18004 6.58493 3.99998 6.48488 3.72998 6.37488Z" fill="#1D3E89"/>
<path d="M12.1502 8.12494L12.2702 9.25494C11.6002 9.53494 10.7202 9.67499 9.63017 9.67499C8.49017 9.67499 7.70018 9.40494 7.27018 8.87494C6.84018 8.34494 6.69017 7.52499 6.82017 6.42499C6.97017 5.26499 7.30017 4.47498 7.82017 4.04498C8.34017 3.61498 9.17015 3.40497 10.3001 3.40497C11.3501 3.40497 12.0702 3.57499 12.4502 3.92499C12.8302 4.27499 12.9702 4.78496 12.8702 5.45496C12.7902 6.01496 12.5602 6.42498 12.1802 6.66498C11.8002 6.90498 11.2102 7.05493 10.4102 7.11493L8.63017 7.24493C8.64017 7.63493 8.74015 7.90498 8.93015 8.04498C9.12015 8.18498 9.42019 8.25494 9.84019 8.25494C10.6202 8.26494 11.4002 8.21494 12.1502 8.12494ZM8.74015 6.21497L10.1402 6.08496C10.4602 6.06496 10.7002 5.99496 10.8502 5.89496C11.0002 5.79496 11.0902 5.59494 11.1202 5.31494C11.1402 5.04494 11.0902 4.88495 10.9702 4.82495C10.8402 4.76495 10.5801 4.73493 10.1701 4.74493C9.70014 4.74493 9.37015 4.84498 9.18015 5.04498C9.00015 5.21498 8.85015 5.61497 8.74015 6.21497Z" fill="#1D3E89"/>
<path d="M15.2703 3.59497V4.66498C15.7103 4.23498 16.1202 3.91497 16.4902 3.71497C16.8702 3.51497 17.2602 3.41498 17.6802 3.41498C18.1202 3.41498 18.4603 3.51496 18.7103 3.70496C18.9603 3.89496 19.1103 4.17496 19.1503 4.52496C19.9003 3.78496 20.6603 3.41498 21.4103 3.41498C21.9603 3.41498 22.3702 3.56493 22.6202 3.86493C22.8802 4.16493 22.9703 4.57498 22.8903 5.10498L22.2703 9.53497H20.4802L21.0403 5.58496C21.0703 5.33496 21.0502 5.16494 20.9802 5.06494C20.9102 4.96494 20.7803 4.92499 20.6003 4.92499C20.4003 4.92499 20.1803 4.98493 19.9503 5.11493C19.7203 5.24493 19.4103 5.48495 19.0203 5.82495L18.5002 9.53497H16.7703L17.3203 5.58496C17.3603 5.34496 17.3503 5.17495 17.2803 5.07495C17.2103 4.97495 17.0903 4.92499 16.8903 4.92499C16.6803 4.92499 16.4602 4.98493 16.2302 5.11493C16.0002 5.23493 15.7003 5.46497 15.3203 5.78497L14.8002 9.53497H13.0103L13.8503 3.58496H15.2703V3.59497Z" fill="#1D3E89"/>
<path d="M25.5302 3.59503L25.5102 4.745C25.8702 4.385 26.2702 4.07501 26.7202 3.82501C27.1702 3.57501 27.6002 3.45502 28.0302 3.45502C28.7402 3.45502 29.2202 3.70501 29.4902 4.19501C29.7602 4.68501 29.8102 5.51501 29.6502 6.69501C29.5802 7.20501 29.4802 7.65501 29.3502 8.01501C29.2202 8.38501 29.0802 8.67502 28.9202 8.89502C28.7602 9.11502 28.5602 9.28503 28.3302 9.40503C28.1002 9.52503 27.8702 9.61503 27.6402 9.65503C27.4102 9.69503 27.1302 9.71503 26.8202 9.71503C26.2302 9.71503 25.6302 9.66499 25.0302 9.55499C25.0302 9.93499 25.0002 10.305 24.9402 10.675L24.7502 11.845H22.9502L24.1202 3.60504H25.5302V3.59503ZM25.2402 8.45502H26.1702C26.7902 8.45502 27.1902 8.35502 27.3802 8.14502C27.5702 7.93502 27.7202 7.44503 27.8202 6.65503C27.9202 5.89503 27.9402 5.41502 27.8702 5.20502C27.8102 4.99502 27.6402 4.88501 27.3602 4.88501C27.1502 4.88501 26.8802 4.97503 26.5602 5.15503C26.2402 5.33503 25.9102 5.56499 25.5902 5.86499L25.2402 8.45502Z" fill="#1D3E89"/>
<path d="M35.2201 3.42499L34.8201 5.07495H34.3801C34.1301 5.07495 33.8601 5.12499 33.5801 5.23499C33.3001 5.34499 32.9001 5.53493 32.3701 5.80493L31.86 9.53497H30.0601L30.9001 3.58496H32.3V4.70496C33.22 3.84496 34.07 3.41498 34.86 3.41498H35.2201V3.42499Z" fill="#1D3E89"/>
<path d="M40.26 8.12494L40.38 9.25494C39.71 9.53494 38.83 9.67499 37.74 9.67499C36.6 9.67499 35.81 9.40494 35.38 8.87494C34.95 8.34494 34.8 7.52499 34.93 6.42499C35.08 5.26499 35.41 4.47498 35.93 4.04498C36.45 3.61498 37.2801 3.40497 38.4101 3.40497C39.4601 3.40497 40.18 3.57499 40.56 3.92499C40.94 4.27499 41.08 4.78496 40.98 5.45496C40.9 6.01496 40.6701 6.42498 40.2901 6.66498C39.9101 6.90498 39.3201 7.05493 38.5201 7.11493L36.74 7.24493C36.75 7.63493 36.8501 7.90498 37.0401 8.04498C37.2301 8.18498 37.5301 8.25494 37.9501 8.25494C38.7301 8.26494 39.5 8.21494 40.26 8.12494ZM36.8501 6.21497L38.25 6.08496C38.57 6.06496 38.8101 5.99496 38.9601 5.89496C39.1101 5.79496 39.2 5.59494 39.23 5.31494C39.25 5.04494 39.2001 4.88495 39.0801 4.82495C38.9501 4.76495 38.6901 4.73493 38.2801 4.74493C37.8101 4.74493 37.4801 4.84498 37.2901 5.04498C37.1001 5.21498 36.9501 5.61497 36.8501 6.21497Z" fill="#1D3E89"/>
<path d="M52.9724 4.60201C52.9132 5.00035 52.7948 5.3018 52.6171 5.50635C52.4449 5.70552 52.1919 5.82125 51.8582 5.85355L51.8501 5.89392C52.1731 5.92083 52.4072 6.02311 52.5526 6.20075C52.7033 6.37838 52.7786 6.63138 52.7786 6.95974C52.7786 7.11584 52.7679 7.26118 52.7463 7.39576C52.6871 7.77794 52.5875 8.07131 52.4476 8.27587C52.313 8.48042 52.1192 8.62307 51.8662 8.70381C51.6132 8.78455 51.266 8.82493 50.8246 8.82493C50.3294 8.82493 49.9445 8.81954 49.67 8.80878C49.4008 8.80339 49.1209 8.78724 48.8303 8.76033L49.6135 3.18899C49.8718 3.16208 50.1168 3.14593 50.3482 3.14055C50.5851 3.12978 50.9108 3.1244 51.3252 3.1244C51.729 3.1244 52.0492 3.15939 52.2861 3.22937C52.5283 3.29396 52.7087 3.40431 52.8271 3.56042C52.9455 3.71652 53.0047 3.93453 53.0047 4.21444C53.0047 4.27904 52.994 4.40823 52.9724 4.60201ZM51.0911 5.66783C51.3979 5.66245 51.6401 5.63015 51.8178 5.57094C52.0008 5.51173 52.1408 5.40676 52.2376 5.25604C52.3399 5.10532 52.4126 4.89 52.4557 4.61009C52.4718 4.48628 52.4799 4.38131 52.4799 4.29519C52.4799 4.1014 52.4395 3.95337 52.3588 3.85109C52.2834 3.74882 52.1623 3.67884 51.9954 3.64116C51.8285 3.5981 51.5971 3.57657 51.301 3.57657C50.6874 3.57657 50.281 3.57926 50.0818 3.58464L49.7911 5.66783H51.0911ZM52.2296 7.27464C52.2511 7.09162 52.2619 6.96781 52.2619 6.90322C52.2619 6.69328 52.2215 6.5291 52.1408 6.41068C52.06 6.29226 51.9335 6.20882 51.7613 6.16037C51.5944 6.11193 51.3629 6.08501 51.0669 6.07963H49.7346L49.4116 8.36468C49.6323 8.37007 50.0818 8.37276 50.76 8.37276C51.0992 8.37276 51.3656 8.34315 51.5594 8.28394C51.7586 8.21935 51.9093 8.109 52.0116 7.95289C52.1138 7.79679 52.1865 7.5707 52.2296 7.27464ZM56.4302 3.1244C56.9792 3.1244 57.3749 3.21591 57.6171 3.39893C57.8593 3.58195 57.9804 3.89416 57.9804 4.33556C57.9804 4.47013 57.967 4.63969 57.9401 4.84425C57.8755 5.3018 57.7705 5.65169 57.6252 5.89392C57.4852 6.13077 57.2887 6.29764 57.0357 6.39453C56.7881 6.48604 56.449 6.5318 56.0184 6.5318C55.5716 6.5318 55.1167 6.51026 54.6538 6.4672L54.3308 8.76033H53.7979L54.5811 3.18899C54.8664 3.16208 55.1329 3.14593 55.3805 3.14055C55.6281 3.12978 55.978 3.1244 56.4302 3.1244ZM57.4152 4.80387C57.4368 4.65853 57.4475 4.51858 57.4475 4.384C57.4475 4.0718 57.3695 3.85917 57.2134 3.74613C57.0573 3.63309 56.7935 3.57657 56.4221 3.57657C55.7331 3.57657 55.2782 3.57926 55.0575 3.58464L54.7103 6.07155H56.0103C56.3279 6.06617 56.5782 6.02849 56.7612 5.95851C56.9442 5.88315 57.0869 5.75665 57.1891 5.57902C57.2914 5.40138 57.3668 5.143 57.4152 4.80387ZM61.226 3.0921C61.872 3.0921 62.3403 3.23744 62.631 3.52812C62.927 3.81341 63.0751 4.29519 63.0751 4.97344C63.0751 5.28565 63.0482 5.62746 62.9943 5.99889C62.8974 6.7202 62.7521 7.2881 62.5583 7.70258C62.3645 8.11169 62.1035 8.40775 61.7751 8.59077C61.4467 8.7684 61.0188 8.85722 60.4913 8.85722C59.8453 8.85722 59.3716 8.71188 59.0702 8.42121C58.7741 8.12514 58.6261 7.6353 58.6261 6.95166C58.6261 6.70405 58.653 6.37031 58.7068 5.95044C58.8037 5.23451 58.9464 4.67199 59.1348 4.26289C59.3285 3.8484 59.5896 3.54965 59.918 3.36663C60.2517 3.18361 60.6877 3.0921 61.226 3.0921ZM61.2099 3.56042C60.79 3.56042 60.4536 3.63578 60.2006 3.7865C59.953 3.93722 59.7538 4.18753 59.6031 4.53742C59.4577 4.88193 59.3393 5.36908 59.2478 5.99889C59.194 6.41875 59.1671 6.74442 59.1671 6.97589C59.1671 7.49265 59.2693 7.85869 59.4739 8.07401C59.6784 8.28394 60.0203 8.38891 60.4993 8.38891C60.9084 8.38891 61.2368 8.31355 61.4844 8.16282C61.7374 8.00672 61.9393 7.75641 62.09 7.41191C62.2407 7.06201 62.3591 6.57486 62.4453 5.95044C62.5045 5.52519 62.5341 5.18068 62.5341 4.91692C62.5341 4.4163 62.4318 4.06641 62.2273 3.86724C62.0227 3.66269 61.6836 3.56042 61.2099 3.56042Z" fill="#AD1B15"/>
</svg>
