<svg width="82" height="13" viewBox="0 0 82 13" fill="none" xmlns="http://www.w3.org/2000/svg">
<path d="M3.72998 6.42993L2.13995 5.78992C1.52995 5.53992 1.11997 5.21995 0.909973 4.81995C0.699973 4.42995 0.629951 3.92997 0.699951 3.33997C0.819951 2.44997 1.13 1.85994 1.63 1.55994C2.13 1.25994 2.90996 1.10992 3.95996 1.10992C5.00996 1.10992 5.91995 1.21995 6.69995 1.44995L6.51996 2.68994C5.78996 2.66994 4.91998 2.64996 3.91998 2.64996C3.41998 2.63996 3.08997 2.67995 2.90997 2.75995C2.72997 2.83995 2.61 3.06994 2.56 3.43994C2.52 3.70994 2.54 3.89995 2.63 4.00995C2.72 4.11995 2.91998 4.22991 3.22998 4.34991L4.73999 4.92993C5.37999 5.17993 5.79995 5.48993 6.00995 5.86993C6.20995 6.23993 6.27 6.75997 6.19 7.40997C6.07 8.32997 5.76999 8.94995 5.29999 9.25995C4.82999 9.57995 4.02 9.73993 2.88 9.73993C1.94 9.73993 0.98 9.62997 0 9.40997L0.190002 8.08997C1.91 8.12997 2.78 8.14996 2.81 8.14996C3.38 8.14996 3.75997 8.09993 3.96997 7.98993C4.16997 7.87993 4.29999 7.64993 4.35999 7.29993C4.38999 7.02993 4.36998 6.83992 4.28998 6.72992C4.18998 6.63992 4.00998 6.53993 3.72998 6.42993Z" fill="#1D3E89"/>
<path d="M12.16 8.17999L12.2799 9.31C11.6099 9.59 10.7299 9.72998 9.63993 9.72998C8.49993 9.72998 7.70995 9.45999 7.27995 8.92999C6.84995 8.39999 6.69993 7.57998 6.82993 6.47998C6.97993 5.31998 7.30993 4.52998 7.82993 4.09998C8.34993 3.66998 9.17998 3.46002 10.31 3.46002C11.36 3.46002 12.0799 3.62998 12.4599 3.97998C12.8399 4.32998 12.98 4.84001 12.88 5.51001C12.8 6.07001 12.57 6.48003 12.19 6.72003C11.81 6.96003 11.22 7.10998 10.42 7.16998L8.63993 7.29999C8.64993 7.68999 8.74998 7.95998 8.93998 8.09998C9.12998 8.23998 9.42995 8.31 9.84995 8.31C10.63 8.31 11.4 8.26999 12.16 8.17999ZM8.74998 6.26001L10.1499 6.13C10.4699 6.11 10.71 6.04 10.86 5.94C11.01 5.84 11.1 5.63999 11.13 5.35999C11.15 5.08999 11.1 4.93 10.98 4.87C10.85 4.81 10.59 4.77998 10.18 4.78998C9.70997 4.78998 9.37998 4.89003 9.18998 5.09003C8.99998 5.27003 8.84998 5.67001 8.74998 6.26001Z" fill="#1D3E89"/>
<path d="M15.2698 3.64001V4.71002C15.7098 4.28002 16.1198 3.96001 16.4898 3.76001C16.8598 3.56001 17.2598 3.46002 17.6798 3.46002C18.1198 3.46002 18.4598 3.56 18.7098 3.75C18.9598 3.94 19.1098 4.22001 19.1498 4.57001C19.8998 3.83001 20.6598 3.46002 21.4098 3.46002C21.9598 3.46002 22.3698 3.61003 22.6198 3.91003C22.8798 4.21003 22.9698 4.62002 22.8898 5.15002L22.2698 9.58002H20.4798L21.0398 5.63C21.0698 5.38 21.0498 5.20999 20.9798 5.10999C20.9098 5.00999 20.7798 4.97003 20.5998 4.97003C20.3998 4.97003 20.1798 5.03003 19.9498 5.16003C19.7198 5.29003 19.4098 5.53 19.0198 5.87L18.4998 9.58002H16.7698L17.3198 5.63C17.3598 5.39 17.3498 5.22 17.2798 5.12C17.2098 5.02 17.0898 4.97003 16.8898 4.97003C16.6798 4.97003 16.4598 5.03003 16.2298 5.16003C15.9998 5.28003 15.6998 5.51002 15.3198 5.83002L14.7998 9.58002H13.0098L13.8498 3.63H15.2698V3.64001Z" fill="#1D3E89"/>
<path d="M25.5297 3.64008L25.5097 4.79004C25.8697 4.43004 26.2697 4.12006 26.7197 3.87006C27.1697 3.62006 27.5997 3.50006 28.0297 3.50006C28.7397 3.50006 29.2197 3.75005 29.4897 4.24005C29.7597 4.73005 29.8097 5.56005 29.6497 6.74005C29.5797 7.25005 29.4797 7.70006 29.3497 8.06006C29.2197 8.43006 29.0797 8.72006 28.9197 8.94006C28.7597 9.16006 28.5597 9.33007 28.3297 9.45007C28.0997 9.57007 27.8697 9.66007 27.6397 9.70007C27.4097 9.74007 27.1298 9.76007 26.8198 9.76007C26.2298 9.76007 25.6297 9.71004 25.0297 9.60004C25.0297 9.98004 24.9998 10.3501 24.9398 10.7201L24.7498 11.8901H22.9497L24.1198 3.65009H25.5297V3.64008ZM25.2397 8.51007H26.1697C26.7897 8.51007 27.1898 8.41007 27.3798 8.20007C27.5698 7.99007 27.7198 7.50008 27.8198 6.71008C27.9198 5.95008 27.9398 5.47007 27.8698 5.26007C27.8098 5.05007 27.6397 4.94006 27.3597 4.94006C27.1497 4.94006 26.8798 5.03008 26.5598 5.21008C26.2398 5.39008 25.9097 5.62004 25.5897 5.92004L25.2397 8.51007Z" fill="#1D3E89"/>
<path d="M35.22 3.47003L34.8201 5.12H34.3801C34.1301 5.12 33.86 5.17003 33.58 5.28003C33.3 5.39003 32.9001 5.57998 32.3701 5.84998L31.86 9.58002H30.0601L30.9 3.63H32.3V4.75C33.22 3.89 34.07 3.46002 34.86 3.46002H35.22V3.47003Z" fill="#1D3E89"/>
<path d="M40.26 8.17999L40.38 9.31C39.71 9.59 38.83 9.72998 37.74 9.72998C36.6 9.72998 35.81 9.45999 35.38 8.92999C34.95 8.39999 34.8 7.57998 34.93 6.47998C35.08 5.31998 35.41 4.52998 35.93 4.09998C36.45 3.66998 37.28 3.46002 38.41 3.46002C39.46 3.46002 40.18 3.62998 40.56 3.97998C40.94 4.32998 41.08 4.84001 40.98 5.51001C40.9 6.07001 40.67 6.48003 40.29 6.72003C39.91 6.96003 39.32 7.10998 38.52 7.16998L36.74 7.29999C36.75 7.68999 36.85 7.95998 37.04 8.09998C37.23 8.23998 37.53 8.31 37.95 8.31C38.74 8.31 39.51 8.26999 40.26 8.17999ZM36.85 6.26001L38.25 6.13C38.57 6.11 38.81 6.04 38.96 5.94C39.11 5.84 39.2 5.63999 39.23 5.35999C39.25 5.08999 39.2 4.93 39.08 4.87C38.95 4.81 38.69 4.77998 38.28 4.78998C37.81 4.78998 37.48 4.89003 37.29 5.09003C37.11 5.27003 36.96 5.67001 36.85 6.26001Z" fill="#1D3E89"/>
<path d="M47.6979 0.450012H78.5179C79.4779 0.450012 80.1979 1.3 80.0579 2.25L78.6379 11.24C78.5179 12 77.868 12.55 77.098 12.55H46.478C45.828 12.55 45.2479 12.16 44.9979 11.57L43.1079 7.11005C42.9479 6.73005 42.988 6.29 43.218 5.94L46.3579 1.17004C46.6479 0.720044 47.1479 0.450012 47.6979 0.450012Z" fill="#AD1B15"/>
<path d="M52.5677 4.02997L52.4777 4.40997C52.0177 4.35997 51.5477 4.32996 51.0877 4.32996C50.4277 4.32996 49.9577 4.48994 49.6777 4.80994C49.3977 5.12994 49.1877 5.75993 49.0677 6.67993C48.9677 7.52993 48.9877 8.12997 49.1377 8.46997C49.2777 8.80997 49.5877 8.98993 50.0477 8.98993C50.3277 8.98993 50.5877 8.91997 50.8277 8.77997C51.0677 8.63997 51.3377 8.41995 51.6277 8.13995L51.8977 6.23993H52.3977L51.9477 9.35999H51.5777L51.6177 8.57996C51.1077 9.15996 50.5277 9.44995 49.8877 9.44995C49.2977 9.44995 48.8977 9.22997 48.6877 8.77997C48.4777 8.33997 48.4277 7.61995 48.5377 6.63995C48.6277 5.91995 48.7877 5.35995 48.9977 4.94995C49.2077 4.53995 49.4777 4.25999 49.7977 4.10999C50.1177 3.94999 50.5277 3.87994 51.0377 3.87994C51.6277 3.87994 52.1377 3.92997 52.5677 4.02997Z" fill="#EDEDED"/>
<path d="M57.0875 4.40002H54.9175C54.5475 4.40002 54.3374 4.59004 54.2974 4.98004L54.1074 6.31H56.5175L56.4675 6.71002H54.0575L53.8275 8.38C53.7675 8.75 53.9274 8.92999 54.2974 8.92999H56.4475V9.32001C55.9675 9.35001 55.2275 9.37 54.2275 9.37C53.8975 9.37 53.6474 9.28004 53.4874 9.10004C53.3274 8.92004 53.2675 8.68001 53.3075 8.38L53.8075 4.84003C53.8475 4.57003 53.9575 4.36001 54.1375 4.20001C54.3175 4.04001 54.5574 3.97003 54.8574 3.97003C55.9174 3.97003 56.6875 3.99002 57.1675 4.02002L57.0875 4.40002Z" fill="#EDEDED"/>
<path d="M59.8375 7.07003L58.7275 6.64004C58.3575 6.49004 58.1075 6.31005 57.9775 6.09005C57.8475 5.87005 57.8075 5.56001 57.8575 5.18001C57.8975 4.89002 57.9675 4.65005 58.0675 4.47005C58.1675 4.29005 58.3075 4.16004 58.4775 4.08004C58.6475 4.00004 58.8275 3.94007 59.0175 3.92007C59.1975 3.89007 59.4375 3.88004 59.7275 3.89004C60.2875 3.89004 60.7975 3.93004 61.2775 4.02004L61.2175 4.39004C60.6375 4.36004 60.1275 4.34005 59.6675 4.34005C59.5175 4.34005 59.4075 4.34005 59.3275 4.34005C59.2475 4.34005 59.1575 4.35002 59.0475 4.37002C58.9375 4.39002 58.8475 4.42003 58.7975 4.45003C58.7375 4.49003 58.6775 4.54006 58.6175 4.60006C58.5575 4.66006 58.4975 4.75006 58.4675 4.85006C58.4275 4.95006 58.3975 5.08005 58.3775 5.22005C58.3475 5.50005 58.3675 5.70004 58.4475 5.83004C58.5275 5.96004 58.6975 6.08002 58.9675 6.19002L60.0575 6.61007C60.4575 6.77007 60.7175 6.95007 60.8475 7.17007C60.9675 7.39007 61.0075 7.69005 60.9575 8.09005C60.9175 8.38005 60.8475 8.62006 60.7575 8.79006C60.6675 8.97006 60.5275 9.10003 60.3475 9.20003C60.1675 9.29003 59.9775 9.35003 59.7775 9.38003C59.5775 9.41003 59.3075 9.42007 58.9775 9.42007C58.4175 9.42007 57.8875 9.38001 57.3975 9.30001L57.4675 8.92007C58.0975 8.95007 58.6175 8.97005 59.0175 8.97005C59.5075 8.96005 59.8575 8.90006 60.0575 8.79006C60.2575 8.68006 60.3875 8.42005 60.4475 8.03005C60.4875 7.74005 60.4575 7.53006 60.3775 7.41006C60.2875 7.31006 60.1075 7.19003 59.8375 7.07003Z" fill="#EDEDED"/>
<path d="M66.1376 4.42999H64.3376L63.6476 9.36005H63.1376L63.8276 4.42999H62.0376L62.1076 3.98004H66.1976L66.1376 4.42999Z" fill="#EDEDED"/>
<path d="M68.8376 3.87994C69.5876 3.87994 70.0976 4.08996 70.3676 4.51996C70.6376 4.93996 70.6975 5.66994 70.5475 6.68994C70.4075 7.71994 70.1575 8.43997 69.7975 8.83997C69.4375 9.24997 68.8776 9.44995 68.1276 9.44995C67.3776 9.44995 66.8576 9.23995 66.5976 8.81995C66.3276 8.39995 66.2676 7.66995 66.4076 6.63995C66.5476 5.60995 66.7976 4.89993 67.1576 4.48993C67.5176 4.07993 68.0676 3.87994 68.8376 3.87994ZM68.8176 4.32996C68.2276 4.32996 67.7876 4.49997 67.5176 4.83997C67.2476 5.17997 67.0476 5.78994 66.9176 6.68994C66.7976 7.55994 66.8276 8.15994 66.9976 8.49994C67.1676 8.83994 67.5476 8.99994 68.1276 8.99994C68.7076 8.99994 69.1376 8.82993 69.4076 8.48993C69.6776 8.14993 69.8776 7.52995 70.0076 6.63995C70.1376 5.75995 70.1176 5.15996 69.9476 4.82996C69.7776 4.49996 69.3976 4.32996 68.8176 4.32996Z" fill="#EDEDED"/>
<path d="M71.3975 9.35999L72.1575 3.96997C72.5975 3.92997 73.1975 3.90997 73.9475 3.90997C74.5375 3.90997 74.9575 4.01994 75.1975 4.24994C75.4375 4.47994 75.5175 4.87997 75.4375 5.46997C75.3775 5.90997 75.2475 6.22995 75.0675 6.44995C74.8775 6.66995 74.6075 6.79998 74.2375 6.84998L74.2275 6.88995C74.5175 6.96995 74.6975 7.22997 74.7775 7.65997L75.1175 9.35999H74.5975L74.2675 7.65997C74.2275 7.43997 74.1475 7.28995 74.0475 7.19995C73.9375 7.10995 73.7875 7.05994 73.5975 7.05994C73.4375 7.05994 73.2575 7.05994 73.0575 7.05994C72.8575 7.05994 72.6975 7.04993 72.5675 7.04993C72.4375 7.04993 72.3275 7.04993 72.2375 7.04993L71.9075 9.37994H71.3975V9.35999ZM72.2875 6.59998H73.5675C74.0075 6.58998 74.3275 6.50998 74.5275 6.34998C74.7275 6.18998 74.8475 5.88995 74.9175 5.44995C74.9775 5.01995 74.9375 4.72996 74.7975 4.57996C74.6575 4.42996 74.3675 4.34998 73.9375 4.34998C73.4675 4.34998 73.0275 4.35993 72.6075 4.36993L72.2875 6.59998Z" fill="#EDEDED"/>
<path d="M44.0245 6.17074C44.2678 6.17074 44.4651 5.9721 44.4651 5.72707C44.4651 5.48204 44.2678 5.2834 44.0245 5.2834C43.7812 5.2834 43.584 5.48204 43.584 5.72707C43.584 5.9721 43.7812 6.17074 44.0245 6.17074Z" fill="white"/>
</svg>
