<svg width="68" height="14" viewBox="0 0 68 14" fill="none" xmlns="http://www.w3.org/2000/svg">
<path d="M3.72998 6.93005L2.13995 6.29004C1.52995 6.04004 1.11997 5.72001 0.909973 5.32001C0.699973 4.93001 0.629951 4.43003 0.699951 3.84003C0.819951 2.95003 1.13 2.36 1.63 2.06C2.13 1.76 2.90996 1.61005 3.95996 1.61005C5.00996 1.61005 5.91995 1.72001 6.69995 1.95001L6.51996 3.19C5.78996 3.17 4.91998 3.15002 3.91998 3.15002C3.41998 3.14002 3.08997 3.18001 2.90997 3.26001C2.72997 3.34001 2.61 3.57 2.56 3.94C2.52 4.21 2.54 4.40001 2.63 4.51001C2.72 4.62001 2.91998 4.73004 3.22998 4.85004L4.73999 5.43005C5.37999 5.68005 5.79995 5.99 6.00995 6.37C6.20995 6.74 6.27 7.26003 6.19 7.91003C6.07 8.83003 5.76999 9.45001 5.29999 9.76001C4.82999 10.08 4.02 10.2401 2.88 10.2401C1.94 10.2401 0.98 10.13 0 9.91003L0.190002 8.59003C1.91 8.63003 2.78 8.65002 2.81 8.65002C3.38 8.65002 3.75997 8.60005 3.96997 8.49005C4.16997 8.38005 4.29999 8.15005 4.35999 7.80005C4.38999 7.53005 4.36998 7.34004 4.28998 7.23004C4.18998 7.14004 4.00998 7.03005 3.72998 6.93005Z" fill="#1D3E89"/>
<path d="M12.16 8.67993L12.2799 9.80988C11.6099 10.0899 10.7299 10.2299 9.63993 10.2299C8.49993 10.2299 7.70995 9.95993 7.27995 9.42993C6.84995 8.89993 6.69993 8.07992 6.82993 6.97992C6.97993 5.81992 7.30993 5.02991 7.82993 4.59991C8.34993 4.16991 9.17998 3.9599 10.31 3.9599C11.36 3.9599 12.0799 4.12992 12.4599 4.47992C12.8399 4.82992 12.98 5.33989 12.88 6.00989C12.8 6.56989 12.57 6.97991 12.19 7.21991C11.81 7.45991 11.22 7.60992 10.42 7.66992L8.63993 7.79993C8.64993 8.18993 8.74998 8.45991 8.93998 8.59991C9.12998 8.73991 9.42995 8.80988 9.84995 8.80988C10.63 8.80988 11.4 8.76993 12.16 8.67993ZM8.74998 6.75989L10.1499 6.62988C10.4699 6.60988 10.71 6.53988 10.86 6.43988C11.01 6.33988 11.1 6.13992 11.13 5.85992C11.15 5.58992 11.1 5.42987 10.98 5.36987C10.85 5.30987 10.59 5.27992 10.18 5.28992C9.70997 5.28992 9.37998 5.3899 9.18998 5.5899C8.99998 5.7699 8.84998 6.15989 8.74998 6.75989Z" fill="#1D3E89"/>
<path d="M15.2698 4.13989V5.2099C15.7098 4.7799 16.1198 4.45989 16.4898 4.25989C16.8698 4.05989 17.2598 3.9599 17.6798 3.9599C18.1198 3.9599 18.4598 4.05988 18.7098 4.24988C18.9598 4.43988 19.1098 4.71989 19.1498 5.06989C19.8998 4.32989 20.6598 3.9599 21.4098 3.9599C21.9598 3.9599 22.3698 4.10991 22.6198 4.40991C22.8798 4.70991 22.9698 5.1199 22.8898 5.6499L22.2698 10.0799H20.4798L21.0398 6.12988C21.0698 5.87988 21.0498 5.70992 20.9798 5.60992C20.9098 5.50992 20.7798 5.46991 20.5998 5.46991C20.3998 5.46991 20.1798 5.52991 19.9498 5.65991C19.7198 5.78991 19.4098 6.02987 19.0198 6.36987L18.4998 10.0799H16.7698L17.3198 6.12988C17.3598 5.88988 17.3498 5.71987 17.2798 5.61987C17.2098 5.51987 17.0898 5.46991 16.8898 5.46991C16.6798 5.46991 16.4598 5.52991 16.2298 5.65991C15.9998 5.77991 15.6998 6.0099 15.3198 6.3299L14.7998 10.0799H13.0098L13.8498 4.12988H15.2698V4.13989Z" fill="#1D3E89"/>
<path d="M25.5297 4.13995L25.5097 5.28998C25.8697 4.92998 26.2697 4.61993 26.7197 4.36993C27.1697 4.11993 27.5997 3.99994 28.0297 3.99994C28.7397 3.99994 29.2197 4.24999 29.4897 4.73999C29.7597 5.22999 29.8097 6.05999 29.6497 7.23999C29.5797 7.74999 29.4797 8.19994 29.3497 8.55994C29.2197 8.92994 29.0797 9.21994 28.9197 9.43994C28.7597 9.65994 28.5597 9.82995 28.3297 9.94995C28.0997 10.07 27.8697 10.16 27.6397 10.2C27.4097 10.24 27.1298 10.2599 26.8198 10.2599C26.2298 10.2599 25.6297 10.21 25.0297 10.1C25.0297 10.48 24.9998 10.85 24.9398 11.22L24.7498 12.39H22.9497L24.1198 4.14996H25.5297V4.13995ZM25.2397 8.99994H26.1697C26.7897 8.99994 27.1898 8.89994 27.3798 8.68994C27.5698 8.47994 27.7198 7.98995 27.8198 7.19995C27.9198 6.43995 27.9398 5.95994 27.8698 5.74994C27.8098 5.53994 27.6397 5.42999 27.3597 5.42999C27.1497 5.42999 26.8798 5.51995 26.5598 5.69995C26.2398 5.87995 25.9097 6.10997 25.5897 6.40997L25.2397 8.99994Z" fill="#1D3E89"/>
<path d="M35.22 3.96991L34.8201 5.61987H34.3801C34.1301 5.61987 33.86 5.66991 33.58 5.77991C33.3 5.88991 32.9001 6.07991 32.3701 6.34991L31.86 10.0799H30.0601L30.9 4.12988H32.3V5.24988C33.22 4.38988 34.07 3.9599 34.86 3.9599H35.22V3.96991Z" fill="#1D3E89"/>
<path d="M40.26 8.67993L40.38 9.80988C39.71 10.0899 38.83 10.2299 37.74 10.2299C36.6 10.2299 35.81 9.95993 35.38 9.42993C34.95 8.89993 34.8 8.07992 34.93 6.97992C35.08 5.81992 35.41 5.02991 35.93 4.59991C36.45 4.16991 37.28 3.9599 38.41 3.9599C39.46 3.9599 40.18 4.12992 40.56 4.47992C40.94 4.82992 41.08 5.33989 40.98 6.00989C40.9 6.56989 40.67 6.97991 40.29 7.21991C39.91 7.45991 39.32 7.60992 38.52 7.66992L36.74 7.79993C36.75 8.18993 36.85 8.45991 37.04 8.59991C37.23 8.73991 37.53 8.80988 37.95 8.80988C38.74 8.80988 39.51 8.76993 40.26 8.67993ZM36.85 6.75989L38.25 6.62988C38.57 6.60988 38.81 6.53988 38.96 6.43988C39.11 6.33988 39.2 6.13992 39.23 5.85992C39.25 5.58992 39.2 5.42987 39.08 5.36987C38.95 5.30987 38.69 5.27992 38.28 5.28992C37.81 5.28992 37.48 5.3899 37.29 5.5899C37.11 5.7699 36.96 6.15989 36.85 6.75989Z" fill="#1D3E89"/>
<path d="M65.4879 1.405C65.8079 1.405 66.1079 1.545 66.3179 1.785C66.5279 2.025 66.6179 2.34501 66.5679 2.66501L65.1479 11.655C65.0679 12.185 64.6079 12.575 64.0679 12.575H46.4879C46.0279 12.575 45.6079 12.305 45.4279 11.875L43.5379 7.41501C43.4379 7.17501 43.4579 6.90503 43.6079 6.68503L46.7479 1.91501C46.9579 1.59501 47.3179 1.39499 47.7079 1.39499H65.4879M65.4879 0.944977H47.7079C47.1679 0.944977 46.6579 1.21502 46.3579 1.67502L43.2179 6.44498C42.9879 6.79498 42.9479 7.22502 43.1079 7.61502L44.9979 12.075C45.2479 12.675 45.8379 13.055 46.4779 13.055H64.0579C64.8279 13.055 65.4779 12.495 65.5979 11.745L67.0179 2.75497C67.1679 1.79497 66.4379 0.944977 65.4879 0.944977Z" fill="#AD1B15"/>
<path d="M49.5899 4.465L48.9689 8.86502C48.9388 9.03502 48.9689 9.17499 49.049 9.27499C49.1292 9.37499 49.2594 9.42502 49.4397 9.42502H51.463L51.4429 9.81497C50.9822 9.84497 50.271 9.86502 49.3295 9.86502C49.019 9.86502 48.7886 9.775 48.6284 9.595C48.4681 9.415 48.408 9.17501 48.4481 8.85501L49.0591 4.465H49.5899Z" fill="#AD1B15"/>
<path d="M52.8148 9.845H52.294L53.0552 4.45499H53.5761L52.8148 9.845Z" fill="#AD1B15"/>
<path d="M58.4943 4.91501H56.7015L56.0103 9.845H55.4895L56.1806 4.91501H54.3877L54.4579 4.465H58.5544L58.4943 4.91501Z" fill="#AD1B15"/>
<path d="M62.5706 4.89499H60.3971C60.0265 4.89499 59.8162 5.08501 59.7761 5.47501L59.5858 6.80502H61.9997L61.9496 7.20499H59.5357L59.3053 8.87503C59.2452 9.24503 59.4055 9.42502 59.7761 9.42502H61.9295V9.81497C61.4488 9.84497 60.7076 9.86502 59.706 9.86502C59.3755 9.86502 59.1251 9.775 58.9648 9.595C58.8046 9.415 58.7445 9.17503 58.7845 8.87503L59.2853 5.33499C59.3254 5.06499 59.4355 4.85498 59.6158 4.69498C59.7961 4.53498 60.0365 4.465 60.337 4.465C61.3987 4.465 62.17 4.48498 62.6507 4.51498L62.5706 4.89499Z" fill="#AD1B15"/>
<path d="M44.4417 7.53494C44.6851 7.53494 44.8824 7.33795 44.8824 7.09494C44.8824 6.85193 44.6851 6.65494 44.4417 6.65494C44.1983 6.65494 44.001 6.85193 44.001 7.09494C44.001 7.33795 44.1983 7.53494 44.4417 7.53494Z" fill="#AD1B15"/>
</svg>
