<svg xmlns="http://www.w3.org/2000/svg" id="Camada_1" data-name="Camada 1" viewBox="29.21 351.12 2273.28 377.76">
  <defs>
    <style>
      .cls-1 {
        fill: #ededed;
        font-family: Exo2-LightItalic, 'Exo 2';
        font-size: 252.4px;
        font-style: italic;
        font-weight: 300;
      }

      .cls-2 {
        letter-spacing: -.02em;
      }

      .cls-3 {
        letter-spacing: 0em;
      }

      .cls-4 {
        fill: #ad1b15;
      }

      .cls-4, .cls-5, .cls-6 {
        stroke-width: 0px;
      }

      .cls-5 {
        fill: #fff;
      }

      .cls-6 {
        fill: #1d3e89;
      }
    </style>
  </defs>
  <g>
    <circle class="cls-5" cx="1414.69" cy="543.22" r="13.79"/>
    <g>
      <path class="cls-6" d="m146.24,536.31l-49.78-19.97c-19-7.78-31.79-17.83-38.38-30.14-6.59-12.31-8.74-27.76-6.46-46.35,3.8-27.63,13.49-46.15,29.07-55.58,15.58-9.42,39.83-14.13,72.76-14.13s61.18,3.51,85.5,10.55l-5.7,38.81c-22.8-.75-49.91-1.13-81.31-1.13-15.45-.25-25.97.94-31.54,3.58-5.58,2.64-9.25,9.73-11.02,21.29-1.27,8.54-.57,14.5,2.09,17.9,2.66,3.39,8.93,6.97,18.81,10.74l47.12,18.09c20.01,7.79,33.18,17.52,39.52,29.2,6.33,11.69,8.23,27.69,5.7,48.04-3.8,28.64-13.11,47.92-27.93,57.84-14.82,9.93-39.96,14.88-75.43,14.88-29.39,0-59.41-3.39-90.05-10.17l6.08-41.07c53.7,1.27,80.94,1.89,81.7,1.89,17.73,0,29.76-1.69,36.1-5.08,6.33-3.39,10.38-10.62,12.16-21.67,1.01-8.54.25-14.44-2.28-17.71-2.54-3.26-8.11-6.53-16.72-9.8Z"/>
      <path class="cls-6" d="m409.18,590.95l3.8,35.42c-21.03,8.79-48.51,13.19-82.46,13.19-35.72,0-60.29-8.29-73.72-24.87-13.43-16.58-18.11-42.07-14.06-76.49,4.56-36.18,14.94-60.91,31.16-74.23,16.21-13.31,42.05-19.97,77.52-19.97,32.93,0,55.29,5.41,67.07,16.21,11.78,10.8,16.15,26.76,13.11,47.85-2.54,17.59-9.75,30.15-21.66,37.68-11.91,7.53-30.27,12.18-55.1,13.94l-55.48,4.14c.25,12.32,3.35,20.6,9.31,24.87,5.95,4.27,15.39,6.41,28.31,6.41,24.57,0,48.64-1.37,72.2-4.14Zm-106.39-59.91l43.7-4.15c10.13-.75,17.54-2.76,22.23-6.02,4.68-3.27,7.53-9.29,8.55-18.09.76-8.29-.83-13.43-4.75-15.44-3.93-2.01-12.22-2.88-24.89-2.64-14.7,0-25.02,3.08-30.97,9.23-5.95,6.15-10.58,18.53-13.87,37.12Z"/>
      <path class="cls-6" d="m506.46,449.27v33.54c13.68-13.57,26.41-23.43,38.19-29.58,11.78-6.15,24.13-9.23,37.05-9.23,13.68,0,24.44,3.02,32.3,9.05,7.85,6.03,12.41,14.57,13.68,25.62,23.56-23.11,47.12-34.67,70.68-34.67,17.22,0,29.83,4.72,37.81,14.13,7.98,9.42,10.83,22.3,8.55,38.63l-19.38,138.28h-55.86l17.48-123.22c1.01-7.78.38-13.19-1.9-16.21-2.28-3.02-6.21-4.52-11.78-4.52-6.33,0-13.05,2.01-20.14,6.03-7.1,4.02-16.72,11.43-28.88,22.23l-16.34,115.68h-53.96l17.1-123.22c1.26-7.53.89-12.87-1.14-16.02-2.03-3.14-6.08-4.71-12.16-4.71-6.59,0-13.49,1.94-20.71,5.84-7.22,3.9-16.66,10.87-28.31,20.91l-16.34,117.18h-55.86l26.22-185.76h43.7Z"/>
      <path class="cls-6" d="m826.77,449.27l-.76,35.79c11.14-11.3,23.68-20.85,37.62-28.63,13.93-7.79,27.61-11.69,41.04-11.69,22.04,0,37.24,7.67,45.6,22.99,8.36,15.33,10,41.33,4.94,78-2.28,16.07-5.39,29.84-9.31,41.26-3.93,11.43-8.42,20.54-13.49,27.32-5.07,6.78-11.21,12.12-18.43,16.02-7.22,3.9-14.44,6.46-21.66,7.72-7.22,1.25-15.77,1.88-25.65,1.88-18.49,0-37.11-1.63-55.86-4.89,0,11.81-.89,23.49-2.66,35.04l-6.08,36.55h-56.24l36.48-257.36h44.46Zm-9.12,151.85h28.88c19.25,0,31.85-3.2,37.81-9.61,5.95-6.41,10.57-21.91,13.87-46.53,3.04-23.61,3.61-38.75,1.71-45.41-1.9-6.65-7.16-9.98-15.77-9.98-6.59,0-14.95,2.76-25.08,8.29-10.13,5.52-20.27,12.94-30.4,22.23l-11.02,81.02Z"/>
      <path class="cls-6" d="m1129.23,443.99l-12.54,51.62h-13.68c-7.85,0-16.15,1.7-24.89,5.09-8.74,3.39-21.34,9.36-37.81,17.9l-15.96,116.43h-56.24l26.22-185.76h43.7v35.04c28.62-26.88,55.22-40.32,79.8-40.32h11.4Z"/>
      <path class="cls-6" d="m1286.54,590.95l3.8,35.42c-21.03,8.79-48.51,13.19-82.46,13.19-35.72,0-60.29-8.29-73.72-24.87-13.43-16.58-18.11-42.07-14.06-76.49,4.56-36.18,14.94-60.91,31.16-74.23,16.21-13.31,42.05-19.97,77.52-19.97,32.93,0,55.29,5.41,67.07,16.21,11.78,10.8,16.15,26.76,13.11,47.85-2.54,17.59-9.75,30.15-21.66,37.68-11.91,7.53-30.27,12.18-55.1,13.94l-55.48,4.14c.25,12.32,3.35,20.6,9.31,24.87,5.95,4.27,15.39,6.41,28.31,6.41,24.57,0,48.64-1.37,72.2-4.14Zm-106.39-59.91l43.7-4.15c10.13-.75,17.54-2.76,22.23-6.02,4.68-3.27,7.53-9.29,8.55-18.09.76-8.29-.83-13.43-4.75-15.44-3.93-2.01-12.22-2.88-24.89-2.64-14.7,0-25.02,3.08-30.97,9.23-5.95,6.15-10.58,18.53-13.87,37.12Z"/>
    </g>
  </g>
  <g>
    <g>
      <path class="cls-4" d="m1487.4,351.12h775.93c24.05,0,42.41,26.64,38.67,56.1l-35.66,280.67c-3,23.6-19.4,40.99-38.67,40.99h-770.94c-16.28,0-30.98-12.08-37.33-30.67l-47.48-139.1c-4.07-11.94-3.07-25.61,2.67-36.44l78.94-148.89c7.5-14.14,20.23-22.65,33.87-22.65Z"/>
      <circle class="cls-5" cx="1414.96" cy="543.22" r="13.79"/>
    </g>
    <text class="cls-1" transform="translate(1557.94 643.82)"><tspan class="cls-3" x="0" y="0">VES</tspan><tspan class="cls-2" x="435.13" y="0">T</tspan></text>
  </g>
</svg>