<svg width="71" height="13" viewBox="0 0 71 13" fill="none" xmlns="http://www.w3.org/2000/svg">
<path d="M68.41 0.469971C68.76 0.469971 69.1 0.609985 69.33 0.859985C69.56 1.10999 69.66 1.43 69.61 1.75L68.04 10.85C67.95 11.39 67.44 11.78 66.84 11.78H47.32C46.81 11.78 46.35 11.5 46.15 11.07L44.06 6.56C43.95 6.32 43.97 6.04001 44.13 5.82001L47.61 0.98999C47.85 0.65999 48.24 0.469971 48.67 0.469971H68.41ZM68.41 0H48.67C48.07 0 47.51 0.27998 47.18 0.72998L43.7 5.56C43.45 5.91 43.4 6.34999 43.58 6.73999L45.67 11.25C45.95 11.85 46.6 12.25 47.31 12.25H66.83C67.68 12.25 68.4 11.69 68.53 10.92L70.1 1.82001C70.28 0.870007 69.47 0 68.41 0Z" fill="#EF7E26"/>
<path d="M44.95 6.67999C45.1985 6.67999 45.4 6.47851 45.4 6.22998C45.4 5.98145 45.1985 5.77997 44.95 5.77997C44.7015 5.77997 44.5 5.98145 44.5 6.22998C44.5 6.47851 44.7015 6.67999 44.95 6.67999Z" fill="#EF7E26"/>
<path d="M3.80002 6.01001L2.19 5.35999C1.57 5.10999 1.16001 4.78 0.950012 4.38C0.740012 3.98 0.670021 3.48 0.740021 2.88C0.860021 1.98 1.18002 1.38002 1.68002 1.08002C2.19002 0.770017 2.97001 0.619995 4.04001 0.619995C5.10001 0.619995 6.02 0.730022 6.81 0.960022L6.63 2.21997C5.89001 2.19997 5.01002 2.17999 3.99002 2.17999C3.49002 2.16999 3.15 2.20999 2.97 2.29999C2.79 2.38999 2.67002 2.61999 2.61002 2.98999C2.57002 3.26999 2.59002 3.46001 2.68002 3.57001C2.77002 3.68001 2.97001 3.79998 3.29001 3.91998L4.82001 4.51001C5.47001 4.76001 5.90001 5.08002 6.10001 5.46002C6.31001 5.84002 6.37 6.36002 6.28 7.02002C6.16 7.95002 5.85003 8.57002 5.37003 8.90002C4.89003 9.22002 4.07001 9.38 2.92001 9.38C1.97001 9.38 0.99 9.26999 0 9.04999L0.200012 7.71997C1.94001 7.75997 2.83001 7.77997 2.85001 7.77997C3.43001 7.77997 3.82002 7.73 4.02002 7.62C4.23002 7.50999 4.36 7.27998 4.41 6.91998C4.44 6.63998 4.42003 6.44998 4.34003 6.34998C4.26003 6.21998 4.08002 6.11001 3.80002 6.01001Z" fill="#1D3E89"/>
<path d="M12.33 7.77997L12.45 8.92999C11.77 9.21999 10.88 9.35999 9.78001 9.35999C8.62001 9.35999 7.82002 9.08999 7.39002 8.54999C6.95002 8.00999 6.80003 7.19001 6.93003 6.07001C7.08003 4.90001 7.41001 4.08997 7.94001 3.65997C8.47001 3.22997 9.30002 3.01001 10.45 3.01001C11.52 3.01001 12.24 3.18998 12.63 3.53998C13.01 3.88998 13.15 4.40997 13.06 5.08997C12.98 5.65997 12.74 6.07 12.36 6.31C11.97 6.55 11.38 6.71001 10.57 6.76001L8.77003 6.89001C8.78003 7.29001 8.88002 7.56001 9.07002 7.70001C9.26002 7.84001 9.57003 7.90997 9.99003 7.90997C10.79 7.90997 11.57 7.86997 12.33 7.77997ZM8.88001 5.83997L10.3 5.71002C10.63 5.69002 10.87 5.62001 11.02 5.51001C11.17 5.40001 11.26 5.20998 11.3 4.91998C11.32 4.64998 11.27 4.47998 11.15 4.41998C11.02 4.34998 10.75 4.33002 10.34 4.33002C9.86004 4.33002 9.53004 4.43 9.34004 4.63C9.14004 4.83 8.99001 5.22997 8.88001 5.83997Z" fill="#1D3E89"/>
<path d="M15.49 3.17999V4.27002C15.93 3.83002 16.35 3.51 16.73 3.31C17.11 3.11 17.51 3.01001 17.93 3.01001C18.37 3.01001 18.72 3.10999 18.98 3.29999C19.23 3.49999 19.38 3.77 19.42 4.13C20.18 3.38 20.95 3.01001 21.71 3.01001C22.27 3.01001 22.68 3.15997 22.94 3.46997C23.2 3.77997 23.29 4.18997 23.22 4.71997L22.59 9.21002H20.78L21.35 5.21002C21.38 4.96002 21.36 4.77999 21.29 4.67999C21.22 4.57999 21.09 4.52997 20.91 4.52997C20.7 4.52997 20.49 4.59998 20.26 4.72998C20.03 4.85998 19.72 5.10001 19.32 5.45001L18.79 9.20001H17.04L17.59 5.20001C17.63 4.96001 17.62 4.77999 17.55 4.67999C17.48 4.57999 17.35 4.52997 17.16 4.52997C16.95 4.52997 16.72 4.58997 16.49 4.71997C16.26 4.84997 15.95 5.07002 15.57 5.40002L15.04 9.20001H13.23L14.08 3.16998H15.49V3.17999Z" fill="#1D3E89"/>
<path d="M25.88 3.17999L25.86 4.33997C26.22 3.96997 26.63 3.65997 27.08 3.40997C27.53 3.15997 27.98 3.02997 28.41 3.02997C29.12 3.02997 29.62 3.27997 29.89 3.77997C30.16 4.27997 30.21 5.12 30.05 6.31C29.98 6.83 29.88 7.28002 29.75 7.65002C29.62 8.02002 29.48 8.31998 29.31 8.53998C29.15 8.75998 28.95 8.93 28.71 9.06C28.47 9.19 28.24 9.27 28.01 9.31C27.78 9.35 27.5 9.37 27.18 9.37C26.58 9.37 25.98 9.32002 25.37 9.21002C25.37 9.59002 25.34 9.96998 25.28 10.35L25.08 11.54H23.26L24.44 3.19H25.88V3.17999ZM25.58 8.10999H26.52C27.14 8.10999 27.55 8.00999 27.75 7.79999C27.94 7.58999 28.09 7.08998 28.2 6.28998C28.3 5.51998 28.32 5.03001 28.26 4.82001C28.2 4.60001 28.03 4.5 27.75 4.5C27.54 4.5 27.27 4.59002 26.94 4.77002C26.61 4.95002 26.28 5.18999 25.95 5.48999L25.58 8.10999Z" fill="#1D3E89"/>
<path d="M35.69 3.01001L35.28 4.67999H34.84C34.59 4.67999 34.32 4.73998 34.03 4.84998C33.75 4.95998 33.34 5.14999 32.8 5.42999L32.28 9.21002H30.46L31.31 3.17999H32.73V4.32001C33.66 3.45001 34.52 3.01001 35.32 3.01001H35.69Z" fill="#1D3E89"/>
<path d="M40.79 7.77997L40.91 8.92999C40.23 9.21999 39.34 9.35999 38.24 9.35999C37.08 9.35999 36.28 9.08999 35.85 8.54999C35.41 8.00999 35.26 7.19001 35.39 6.07001C35.54 4.90001 35.87 4.08997 36.4 3.65997C36.93 3.22997 37.76 3.01001 38.91 3.01001C39.98 3.01001 40.7 3.18998 41.09 3.53998C41.47 3.88998 41.61 4.40997 41.52 5.08997C41.44 5.65997 41.2 6.07 40.82 6.31C40.43 6.55 39.84 6.71001 39.03 6.76001L37.23 6.89001C37.24 7.29001 37.34 7.56001 37.53 7.70001C37.72 7.84001 38.03 7.90997 38.45 7.90997C39.25 7.90997 40.03 7.86997 40.79 7.77997ZM37.34 5.83997L38.76 5.71002C39.09 5.69002 39.33 5.62001 39.48 5.51001C39.63 5.40001 39.72 5.20998 39.76 4.91998C39.78 4.64998 39.73 4.47998 39.61 4.41998C39.48 4.34998 39.21 4.33002 38.8 4.33002C38.32 4.33002 37.99 4.43 37.8 4.63C37.6 4.83 37.45 5.22997 37.34 5.83997Z" fill="#1D3E89"/>
<path d="M50.2371 3.71315C50.0325 3.71315 49.8737 3.7616 49.7607 3.85849C49.653 3.95 49.5858 4.10072 49.5588 4.31065L49.357 5.73982L51.7793 5.7479L51.7228 6.15969H49.3005L48.921 8.84039H48.3961L49.0421 4.18954C49.0851 3.89348 49.2009 3.6647 49.3893 3.50321C49.5831 3.34173 49.8307 3.26098 50.1321 3.26098C51.1926 3.26098 51.9677 3.27713 52.4576 3.30943L52.3768 3.71315H50.2371ZM56.9078 4.81934C56.8432 5.27151 56.714 5.61063 56.5202 5.83672C56.3265 6.05742 56.0412 6.19468 55.6644 6.24851L55.6563 6.28888C55.9523 6.37501 56.1407 6.63877 56.2215 7.08017L56.5768 8.84039H56.0358L55.6967 7.08017C55.6536 6.85409 55.5755 6.69529 55.4625 6.60378C55.3548 6.50689 55.2014 6.45575 55.0023 6.45037L54.3079 6.4423C53.958 6.4423 53.7211 6.4396 53.5973 6.43422L53.2582 8.84039H52.7333L53.5166 3.26906C53.8019 3.24214 54.071 3.22599 54.324 3.22061C54.5824 3.20984 54.9296 3.20446 55.3656 3.20446C55.9093 3.20446 56.3076 3.29328 56.5606 3.47092C56.8136 3.64855 56.9401 3.96076 56.9401 4.40755C56.9401 4.5475 56.9293 4.68477 56.9078 4.81934ZM54.978 5.99013C55.2849 5.98475 55.5298 5.94707 55.7128 5.87709C55.9012 5.80711 56.0465 5.68599 56.1488 5.51374C56.2511 5.34149 56.3238 5.10195 56.3668 4.79512C56.3884 4.67131 56.3991 4.54481 56.3991 4.41562C56.3991 4.13033 56.3184 3.93385 56.1569 3.82619C56.0008 3.71315 55.7343 3.65663 55.3575 3.65663C54.8838 3.65663 54.4263 3.66201 53.9849 3.67278L53.6619 5.99013H54.978ZM59.4533 3.71315C59.0711 3.71315 58.8558 3.91232 58.8074 4.31065L58.6217 5.67523L61.1086 5.6833L61.0521 6.08702L58.5651 6.0951L58.3229 7.82302C58.3175 7.85532 58.3148 7.90107 58.3148 7.96028C58.3148 8.25096 58.479 8.3963 58.8074 8.3963H61.044L61.0359 8.80002C60.5407 8.83232 59.7736 8.84847 58.7347 8.84847C58.4225 8.84847 58.183 8.77311 58.0161 8.62238C57.8546 8.47166 57.7739 8.26442 57.7739 8.00066C57.7739 7.92529 57.7765 7.86877 57.7819 7.83109L58.2987 4.16532C58.3364 3.8854 58.4494 3.6647 58.6378 3.50321C58.8262 3.34173 59.0738 3.26098 59.3807 3.26098C60.4734 3.26098 61.2701 3.27713 61.7707 3.30943L61.698 3.71315H59.4533ZM63.9321 3.71315C63.5499 3.71315 63.3346 3.91232 63.2861 4.31065L63.1004 5.67523L65.5874 5.6833L65.5308 6.08702L63.0439 6.0951L62.8017 7.82302C62.7963 7.85532 62.7936 7.90107 62.7936 7.96028C62.7936 8.25096 62.9578 8.3963 63.2861 8.3963H65.5228L65.5147 8.80002C65.0195 8.83232 64.2524 8.84847 63.2135 8.84847C62.9013 8.84847 62.6617 8.77311 62.4949 8.62238C62.3334 8.47166 62.2526 8.26442 62.2526 8.00066C62.2526 7.92529 62.2553 7.86877 62.2607 7.83109L62.7775 4.16532C62.8151 3.8854 62.9282 3.6647 63.1166 3.50321C63.305 3.34173 63.5526 3.26098 63.8594 3.26098C64.9522 3.26098 65.7488 3.27713 66.2495 3.30943L66.1768 3.71315H63.9321Z" fill="#EF7E26"/>
</svg>
