<svg width="125" height="14" viewBox="0 0 125 14" fill="none" xmlns="http://www.w3.org/2000/svg">
<path d="M3.72998 6.93002L2.13998 6.29001C1.52998 6.04001 1.12 5.71998 0.910004 5.31998C0.700004 4.92998 0.629982 4.43 0.699982 3.84C0.819982 2.95 1.13 2.36003 1.63 2.06003C2.13 1.76003 2.90999 1.61002 3.95999 1.61002C5.00999 1.61002 5.91998 1.71998 6.69998 1.94998L6.51999 3.19003C5.78999 3.17003 4.91998 3.14999 3.91998 3.14999C3.41998 3.13999 3.09 3.17998 2.91 3.25998C2.73 3.33998 2.61 3.57003 2.56 3.94003C2.52 4.21003 2.54 4.39998 2.63 4.50998C2.72 4.61998 2.91998 4.73001 3.22998 4.85001L4.73999 5.43002C5.37999 5.68002 5.79998 5.99003 6.00998 6.37003C6.20998 6.74003 6.27 7.26 6.19 7.91C6.07 8.83 5.76999 9.44998 5.29999 9.75998C4.82999 10.08 4.02 10.24 2.88 10.24C1.94 10.24 0.98 10.13 0 9.91L0.190002 8.59C1.91 8.63 2.78 8.64999 2.81 8.64999C3.38 8.64999 3.76 8.60002 3.97 8.49002C4.17 8.38002 4.29999 8.15002 4.35999 7.80002C4.38999 7.53002 4.36998 7.34001 4.28998 7.23001C4.18998 7.14001 4.00998 7.03002 3.72998 6.93002Z" fill="#1D3E89"/>
<path d="M12.16 8.68002L12.28 9.81003C11.61 10.09 10.73 10.23 9.63999 10.23C8.49999 10.23 7.71001 9.96002 7.28001 9.43002C6.85001 8.90002 6.7 8.08001 6.83 6.98001C6.98 5.82001 7.31 5.03001 7.83 4.60001C8.35 4.17001 9.18001 3.95999 10.31 3.95999C11.36 3.95999 12.08 4.13001 12.46 4.48001C12.84 4.83001 12.98 5.33998 12.88 6.00998C12.8 6.56998 12.57 6.98 12.19 7.22C11.81 7.46 11.22 7.61001 10.42 7.67001L8.63999 7.80002C8.64999 8.19002 8.75001 8.46001 8.94001 8.60001C9.13001 8.74001 9.43001 8.81003 9.85001 8.81003C10.63 8.81003 11.4 8.77002 12.16 8.68002ZM8.75001 6.75998L10.15 6.62997C10.47 6.60997 10.71 6.54003 10.86 6.44003C11.01 6.34003 11.1 6.14002 11.13 5.86002C11.15 5.59002 11.1 5.43003 10.98 5.37003C10.85 5.31003 10.59 5.28001 10.18 5.29001C9.71 5.29001 9.38001 5.39 9.19001 5.59C9.00001 5.77 8.85001 6.15998 8.75001 6.75998Z" fill="#1D3E89"/>
<path d="M15.27 4.13998V5.20999C15.71 4.77999 16.12 4.45998 16.49 4.25998C16.86 4.05998 17.26 3.95999 17.68 3.95999C18.12 3.95999 18.46 4.06003 18.71 4.25003C18.96 4.44003 19.11 4.71998 19.15 5.06998C19.9 4.32998 20.66 3.95999 21.41 3.95999C21.96 3.95999 22.37 4.11 22.62 4.41C22.88 4.71 22.97 5.11999 22.89 5.64999L22.27 10.08H20.48L21.04 6.12997C21.07 5.87997 21.05 5.71002 20.98 5.61002C20.91 5.51002 20.78 5.47 20.6 5.47C20.4 5.47 20.18 5.53 19.95 5.66C19.72 5.79 19.41 6.03003 19.02 6.37003L18.5 10.08H16.77L17.32 6.12997C17.36 5.88997 17.35 5.72003 17.28 5.62003C17.21 5.52003 17.09 5.47 16.89 5.47C16.68 5.47 16.46 5.53 16.23 5.66C16 5.78 15.7 6.00999 15.32 6.32999L14.8 10.08H13.01L13.85 4.12997H15.27V4.13998Z" fill="#1D3E89"/>
<path d="M25.54 4.13998L25.52 5.29001C25.88 4.93001 26.28 4.62003 26.73 4.37003C27.18 4.12003 27.61 4.00003 28.04 4.00003C28.75 4.00003 29.23 4.25002 29.5 4.74002C29.77 5.23002 29.82 6.06002 29.66 7.24002C29.59 7.75002 29.49 8.20003 29.36 8.56003C29.23 8.93003 29.09 9.22003 28.93 9.44003C28.77 9.66003 28.57 9.82998 28.34 9.94998C28.11 10.07 27.88 10.16 27.65 10.2C27.42 10.24 27.14 10.26 26.83 10.26C26.24 10.26 25.64 10.21 25.04 10.1C25.04 10.48 25.01 10.85 24.95 11.22L24.76 12.39H22.96L24.13 4.14999H25.54V4.13998ZM25.24 9.00003H26.17C26.79 9.00003 27.19 8.90003 27.38 8.69003C27.57 8.48003 27.72 7.98998 27.82 7.19998C27.92 6.43998 27.94 5.96003 27.87 5.75003C27.81 5.54003 27.64 5.43002 27.36 5.43002C27.15 5.43002 26.88 5.51998 26.56 5.69998C26.24 5.87998 25.91 6.11 25.59 6.41L25.24 9.00003Z" fill="#1D3E89"/>
<path d="M35.22 3.97L34.82 5.62003H34.38C34.13 5.62003 33.86 5.67 33.58 5.78C33.3 5.89 32.9 6.08001 32.37 6.35001L31.86 10.08H30.06L30.9 4.12997H32.3V5.25003C33.22 4.39003 34.07 3.95999 34.86 3.95999H35.22V3.97Z" fill="#1D3E89"/>
<path d="M40.26 8.68002L40.38 9.81003C39.71 10.09 38.83 10.23 37.74 10.23C36.6 10.23 35.81 9.96002 35.38 9.43002C34.95 8.90002 34.8 8.08001 34.93 6.98001C35.08 5.82001 35.41 5.03001 35.93 4.60001C36.45 4.17001 37.28 3.95999 38.41 3.95999C39.46 3.95999 40.18 4.13001 40.56 4.48001C40.94 4.83001 41.08 5.33998 40.98 6.00998C40.9 6.56998 40.67 6.98 40.29 7.22C39.91 7.46 39.32 7.61001 38.52 7.67001L36.74 7.80002C36.75 8.19002 36.85 8.46001 37.04 8.60001C37.23 8.74001 37.53 8.81003 37.95 8.81003C38.74 8.81003 39.51 8.77002 40.26 8.68002ZM36.86 6.75998L38.26 6.62997C38.58 6.60997 38.82 6.54003 38.97 6.44003C39.12 6.34003 39.21 6.14002 39.24 5.86002C39.26 5.59002 39.21 5.43003 39.09 5.37003C38.96 5.31003 38.7 5.28001 38.29 5.29001C37.82 5.29001 37.49 5.39 37.3 5.59C37.11 5.77 36.96 6.15998 36.86 6.75998Z" fill="#1D3E89"/>
<path d="M47.6979 0.950012H122.568C123.528 0.950012 124.248 1.8 124.108 2.75L122.688 11.74C122.568 12.5 121.918 13.05 121.148 13.05H46.4779C45.8279 13.05 45.2479 12.66 44.9979 12.07L43.1079 7.60999C42.9479 7.22999 42.9879 6.79 43.2179 6.44L46.3579 1.66998C46.6479 1.22998 47.1479 0.950012 47.6979 0.950012Z" fill="#EF7E26"/>
<path d="M50.108 4.67904C49.7236 4.67904 49.5071 4.87936 49.4583 5.27999L49.2716 6.65242L51.7728 6.66054L51.716 7.06659L49.2147 7.07471L48.9711 8.81258C48.9657 8.84507 48.963 8.89108 48.963 8.95064C48.963 9.24299 49.1281 9.38917 49.4583 9.38917H51.7078L51.6997 9.79521C51.2016 9.82769 50.4301 9.84394 49.3853 9.84394C49.0712 9.84394 48.8303 9.76814 48.6625 9.61655C48.5001 9.46496 48.4189 9.25652 48.4189 8.99124C48.4189 8.91545 48.4216 8.8586 48.427 8.8207L48.9467 5.13381C48.9846 4.85229 49.0983 4.63032 49.2878 4.4679C49.4773 4.30548 49.7263 4.22427 50.0349 4.22427C51.134 4.22427 51.9352 4.24051 52.4387 4.273L52.3656 4.67904H50.108ZM58.8111 4.23239C58.8869 4.23239 58.9437 4.25676 58.9816 4.30548C59.0195 4.34879 59.0358 4.40835 59.0303 4.48414L58.5106 9.83582H57.9828L58.4944 4.67904H58.3238L56.2449 9.08057C56.2016 9.19426 56.1204 9.25111 56.0013 9.25111H55.4653C55.4003 9.25111 55.3489 9.23487 55.311 9.20239C55.2731 9.16449 55.2487 9.11576 55.2379 9.05621L54.3689 4.67904H54.1903L53.2645 9.83582H52.7285L53.7112 4.45978C53.7274 4.38398 53.7545 4.32714 53.7924 4.28924C53.8357 4.25134 53.8925 4.23239 53.9629 4.23239H54.5882C54.7127 4.23239 54.7831 4.29736 54.7994 4.4273L55.5384 8.08982C55.5708 8.26307 55.5925 8.39571 55.6033 8.48775L55.6683 8.85319H55.847C55.9715 8.55542 56.0852 8.29826 56.188 8.0817L57.9259 4.41105C57.9746 4.29195 58.0585 4.23239 58.1777 4.23239H58.8111ZM60.4364 9.83582H59.9004L60.6882 4.23239H61.2241L60.4364 9.83582ZM64.0421 4.14306C64.7188 4.14306 65.3062 4.18908 65.8043 4.28112L65.7394 4.6628C65.1384 4.63032 64.6024 4.61408 64.1314 4.61408C63.8228 4.61408 63.5873 4.63032 63.4249 4.6628C63.2679 4.68987 63.1325 4.77108 63.0188 4.90643C62.9052 5.04178 62.8267 5.25563 62.7833 5.54798C62.7725 5.66709 62.7671 5.7483 62.7671 5.79161C62.7671 5.98651 62.8131 6.1381 62.9052 6.24638C62.9972 6.35466 63.1623 6.45752 63.4005 6.55497L64.5375 6.9935C64.8894 7.12885 65.1357 7.28585 65.2765 7.46451C65.4226 7.64317 65.4957 7.87868 65.4957 8.17103C65.4957 8.28472 65.4876 8.40654 65.4714 8.53647C65.4118 8.93169 65.3008 9.22945 65.1384 9.42977C64.9814 9.63009 64.7676 9.76273 64.4969 9.82769C64.2316 9.89266 63.8688 9.92515 63.4087 9.92515C62.8239 9.92515 62.2744 9.88454 61.7601 9.80333L61.8332 9.40541C62.4883 9.43789 63.027 9.45413 63.4493 9.45413C63.8012 9.44872 64.0719 9.42436 64.2613 9.38105C64.4508 9.33232 64.5997 9.24028 64.708 9.10493C64.8163 8.96959 64.8921 8.76115 64.9354 8.47963C64.9516 8.37135 64.9597 8.27931 64.9597 8.20351C64.9597 8.00861 64.911 7.85973 64.8136 7.75686C64.7215 7.654 64.5537 7.55384 64.3101 7.45639L63.1569 7.00974C62.8267 6.87981 62.5884 6.7201 62.4423 6.53061C62.2961 6.34112 62.223 6.1002 62.223 5.80785C62.223 5.7104 62.2311 5.60483 62.2474 5.49113C62.3015 5.11216 62.4044 4.82522 62.556 4.63032C62.7075 4.43542 62.8997 4.30548 63.1325 4.24052C63.3708 4.17555 63.6739 4.14306 64.0421 4.14306ZM68.5704 4.14306C69.2472 4.14306 69.8346 4.18908 70.3327 4.28112L70.2677 4.6628C69.6668 4.63032 69.1308 4.61408 68.6598 4.61408C68.3512 4.61408 68.1157 4.63032 67.9532 4.6628C67.7962 4.68987 67.6609 4.77108 67.5472 4.90643C67.4335 5.04178 67.355 5.25563 67.3117 5.54798C67.3009 5.66709 67.2955 5.7483 67.2955 5.79161C67.2955 5.98651 67.3415 6.1381 67.4335 6.24638C67.5255 6.35466 67.6907 6.45752 67.9289 6.55497L69.0658 6.9935C69.4177 7.12885 69.6641 7.28585 69.8048 7.46451C69.951 7.64317 70.0241 7.87868 70.0241 8.17103C70.0241 8.28472 70.016 8.40654 69.9997 8.53647C69.9402 8.93169 69.8292 9.22945 69.6668 9.42977C69.5098 9.63009 69.2959 9.76273 69.0252 9.82769C68.7599 9.89266 68.3972 9.92515 67.937 9.92515C67.3523 9.92515 66.8028 9.88454 66.2885 9.80333L66.3616 9.40541C67.0166 9.43789 67.5553 9.45413 67.9776 9.45413C68.3295 9.44872 68.6002 9.42436 68.7897 9.38105C68.9792 9.33232 69.1281 9.24028 69.2364 9.10493C69.3446 8.96959 69.4204 8.76115 69.4637 8.47963C69.48 8.37135 69.4881 8.27931 69.4881 8.20351C69.4881 8.00861 69.4394 7.85973 69.3419 7.75686C69.2499 7.654 69.0821 7.55384 68.8384 7.45639L67.6853 7.00974C67.355 6.87981 67.1168 6.7201 66.9706 6.53061C66.8244 6.34112 66.7514 6.1002 66.7514 5.80785C66.7514 5.7104 66.7595 5.60483 66.7757 5.49113C66.8299 5.11216 66.9327 4.82522 67.0843 4.63032C67.2359 4.43542 67.4281 4.30548 67.6609 4.24052C67.8991 4.17555 68.2023 4.14306 68.5704 4.14306ZM73.7079 4.13494C74.3575 4.13494 74.8285 4.28112 75.1209 4.57347C75.4187 4.86041 75.5675 5.34496 75.5675 6.02711C75.5675 6.34112 75.5405 6.68491 75.4863 7.05847C75.3889 7.78393 75.2427 8.3551 75.0478 8.77198C74.8529 9.18344 74.5903 9.4812 74.2601 9.66528C73.9298 9.84394 73.4994 9.93327 72.9689 9.93327C72.3192 9.93327 71.8428 9.78709 71.5396 9.49474C71.2418 9.19697 71.0929 8.7043 71.0929 8.01673C71.0929 7.76769 71.12 7.43203 71.1741 7.00974C71.2716 6.28969 71.4151 5.72393 71.6045 5.31247C71.7994 4.8956 72.062 4.59513 72.3923 4.41105C72.7279 4.22698 73.1665 4.13494 73.7079 4.13494ZM73.6916 4.60596C73.2693 4.60596 72.931 4.68175 72.6765 4.83334C72.4275 4.98493 72.2271 5.23668 72.0756 5.58858C71.9294 5.93508 71.8103 6.42504 71.7182 7.05847C71.6641 7.48075 71.637 7.8083 71.637 8.0411C71.637 8.56083 71.7399 8.92898 71.9456 9.14554C72.1514 9.35668 72.4951 9.46225 72.977 9.46225C73.3884 9.46225 73.7187 9.38646 73.9677 9.23487C74.2222 9.07786 74.4252 8.82612 74.5768 8.47963C74.7284 8.12772 74.8475 7.63776 74.9341 7.00974C74.9937 6.58204 75.0234 6.23555 75.0234 5.97027C75.0234 5.46677 74.9206 5.11487 74.7149 4.91455C74.5091 4.70882 74.168 4.60596 73.6916 4.60596ZM80.5786 5.79161C80.5137 6.24638 80.3837 6.58746 80.1888 6.81484C79.9939 7.03681 79.707 7.17487 79.328 7.22901L79.3199 7.26961C79.6177 7.35623 79.8072 7.62152 79.8884 8.06546L80.2457 9.83582H79.7016L79.3605 8.06546C79.3172 7.83807 79.2387 7.67836 79.125 7.58633C79.0167 7.48888 78.8624 7.43744 78.6621 7.43203L77.9637 7.42391C77.6118 7.42391 77.3736 7.4212 77.2491 7.41579L76.908 9.83582H76.3801L77.1679 4.23239C77.4548 4.20532 77.7255 4.18908 77.98 4.18367C78.2398 4.17284 78.589 4.16743 79.0276 4.16743C79.5744 4.16743 79.975 4.25676 80.2294 4.43542C80.4839 4.61408 80.6111 4.92808 80.6111 5.37744C80.6111 5.5182 80.6003 5.65626 80.5786 5.79161ZM78.6378 6.96914C78.9463 6.96372 79.1927 6.92583 79.3768 6.85544C79.5662 6.78506 79.7124 6.66325 79.8153 6.49C79.9181 6.31676 79.9912 6.07584 80.0345 5.76724C80.0562 5.64272 80.067 5.5155 80.067 5.38556C80.067 5.09862 79.9858 4.90101 79.8234 4.79274C79.6664 4.67904 79.3984 4.6222 79.0194 4.6222C78.543 4.6222 78.0828 4.62761 77.6389 4.63844L77.314 6.96914H78.6378ZM85.9047 4.13494C86.2404 4.13494 86.5138 4.14848 86.7249 4.17555C86.936 4.1972 87.158 4.2351 87.3908 4.28924L87.2934 4.68716C87.0606 4.66009 86.8467 4.64115 86.6518 4.63032C86.4623 4.61949 86.2133 4.61408 85.9047 4.61408C85.4878 4.61408 85.1522 4.68716 84.8977 4.83334C84.6432 4.97952 84.4402 5.22856 84.2886 5.58046C84.1425 5.92696 84.0233 6.41962 83.9313 7.05847C83.8772 7.43203 83.8501 7.76499 83.8501 8.05734C83.8501 8.56625 83.9503 8.92627 84.1506 9.13742C84.3563 9.34856 84.692 9.45413 85.1576 9.45413C85.7369 9.45955 86.2593 9.42977 86.7249 9.3648L86.7655 9.76273C86.5273 9.82228 86.2864 9.86559 86.0427 9.89266C85.7991 9.91973 85.5041 9.93327 85.1576 9.93327C84.5079 9.93327 84.0369 9.78438 83.7445 9.48662C83.4522 9.18885 83.306 8.70701 83.306 8.0411C83.306 7.71626 83.3331 7.37248 83.3872 7.00974C83.4847 6.2951 83.6281 5.72935 83.8176 5.31247C84.0125 4.8956 84.2751 4.59513 84.6053 4.41105C84.941 4.22698 85.3741 4.13494 85.9047 4.13494ZM90.4096 4.13494C91.0593 4.13494 91.5303 4.28112 91.8227 4.57347C92.1204 4.86041 92.2693 5.34496 92.2693 6.02711C92.2693 6.34112 92.2422 6.68491 92.1881 7.05847C92.0907 7.78393 91.9445 8.3551 91.7496 8.77198C91.5547 9.18344 91.2921 9.4812 90.9619 9.66528C90.6316 9.84394 90.2012 9.93327 89.6706 9.93327C89.021 9.93327 88.5445 9.78709 88.2414 9.49474C87.9436 9.19697 87.7947 8.7043 87.7947 8.01673C87.7947 7.76769 87.8218 7.43203 87.8759 7.00974C87.9734 6.28969 88.1168 5.72393 88.3063 5.31247C88.5012 4.8956 88.7638 4.59513 89.094 4.41105C89.4297 4.22698 89.8682 4.13494 90.4096 4.13494ZM90.3934 4.60596C89.9711 4.60596 89.6327 4.68175 89.3783 4.83334C89.1292 4.98493 88.9289 5.23668 88.7773 5.58858C88.6312 5.93508 88.512 6.42504 88.42 7.05847C88.3659 7.48075 88.3388 7.8083 88.3388 8.0411C88.3388 8.56083 88.4417 8.92898 88.6474 9.14554C88.8531 9.35668 89.1969 9.46225 89.6787 9.46225C90.0902 9.46225 90.4205 9.38646 90.6695 9.23487C90.924 9.07786 91.127 8.82612 91.2786 8.47963C91.4302 8.12772 91.5493 7.63776 91.6359 7.00974C91.6954 6.58204 91.7252 6.23555 91.7252 5.97027C91.7252 5.46677 91.6224 5.11487 91.4166 4.91455C91.2109 4.70882 90.8698 4.60596 90.3934 4.60596ZM97.2804 9.62467C97.2642 9.76543 97.1857 9.83582 97.0449 9.83582H96.5089C96.4007 9.83582 96.3222 9.77356 96.2734 9.64903L94.6817 5.38556C94.568 5.07697 94.495 4.8577 94.4625 4.72777H94.3C94.2838 4.96057 94.2594 5.19337 94.227 5.42617L93.6179 9.83582H93.0819L93.8372 4.44354C93.848 4.36774 93.8723 4.3136 93.9102 4.28112C93.9536 4.24864 94.0104 4.23239 94.0808 4.23239H94.5924C94.7115 4.23239 94.7927 4.29465 94.836 4.41917L96.3871 8.57708C96.5008 8.8965 96.5874 9.15095 96.647 9.34044H96.8256C96.8419 9.16719 96.8717 8.90733 96.915 8.56083L97.5159 4.23239H98.0438L97.2804 9.62467ZM103.162 4.70341H101.294L100.571 9.83582H100.035L100.758 4.70341H98.8984L98.9715 4.23239H103.227L103.162 4.70341ZM106.101 7.98425H103.664L102.787 9.83582H102.219L104.858 4.37045C104.896 4.27841 104.969 4.23239 105.078 4.23239H105.687C105.735 4.23239 105.779 4.24864 105.817 4.28112C105.854 4.3136 105.876 4.3515 105.881 4.39481L106.994 9.83582H106.458L106.101 7.98425ZM106.011 7.51324L105.549 5.11757L105.475 4.64656H105.232C105.221 4.67363 105.207 4.70341 105.191 4.73589C105.175 4.76837 105.159 4.80086 105.142 4.83334L105.013 5.11757L103.884 7.51324H106.011ZM110.456 4.15931C110.916 4.15931 111.284 4.22157 111.56 4.34609C111.842 4.46519 112.048 4.66009 112.178 4.93079C112.313 5.20149 112.381 5.56693 112.381 6.02711C112.381 6.34112 112.354 6.68491 112.299 7.05847C112.191 7.83266 112.037 8.42278 111.837 8.82882C111.636 9.23487 111.368 9.51639 111.033 9.6734C110.697 9.8304 110.25 9.9089 109.693 9.9089C109.14 9.9089 108.518 9.88454 107.825 9.83582L108.613 4.23239C109.273 4.18367 109.888 4.15931 110.456 4.15931ZM111.747 7.00974C111.807 6.58204 111.837 6.23826 111.837 5.97839C111.837 5.6319 111.788 5.3612 111.69 5.1663C111.598 4.96598 111.452 4.82522 111.252 4.74401C111.057 4.6628 110.789 4.6222 110.448 4.6222C110.118 4.6222 109.666 4.62761 109.092 4.63844L108.418 9.42165C108.959 9.43248 109.381 9.43789 109.685 9.43789C110.134 9.43789 110.488 9.37022 110.748 9.23487C111.014 9.09952 111.222 8.86131 111.374 8.52023C111.531 8.17374 111.655 7.67024 111.747 7.00974ZM115.914 4.13494C116.564 4.13494 117.035 4.28112 117.327 4.57347C117.625 4.86041 117.774 5.34496 117.774 6.02711C117.774 6.34112 117.747 6.68491 117.693 7.05847C117.595 7.78393 117.449 8.3551 117.254 8.77198C117.059 9.18344 116.797 9.4812 116.467 9.66528C116.136 9.84394 115.706 9.93327 115.175 9.93327C114.526 9.93327 114.049 9.78709 113.746 9.49474C113.448 9.19697 113.299 8.7043 113.299 8.01673C113.299 7.76769 113.326 7.43203 113.381 7.00974C113.478 6.28969 113.622 5.72393 113.811 5.31247C114.006 4.8956 114.268 4.59513 114.599 4.41105C114.934 4.22698 115.373 4.13494 115.914 4.13494ZM115.898 4.60596C115.476 4.60596 115.137 4.68175 114.883 4.83334C114.634 4.98493 114.434 5.23668 114.282 5.58858C114.136 5.93508 114.017 6.42504 113.925 7.05847C113.871 7.48075 113.844 7.8083 113.844 8.0411C113.844 8.56083 113.946 8.92898 114.152 9.14554C114.358 9.35668 114.702 9.46225 115.183 9.46225C115.595 9.46225 115.925 9.38646 116.174 9.23487C116.429 9.07786 116.632 8.82612 116.783 8.47963C116.935 8.12772 117.054 7.63776 117.141 7.00974C117.2 6.58204 117.23 6.23555 117.23 5.97027C117.23 5.46677 117.127 5.11487 116.921 4.91455C116.716 4.70882 116.375 4.60596 115.898 4.60596ZM122.785 5.79161C122.72 6.24638 122.59 6.58746 122.395 6.81484C122.2 7.03681 121.913 7.17487 121.535 7.22901L121.526 7.26961C121.824 7.35623 122.014 7.62152 122.095 8.06546L122.452 9.83582H121.908L121.567 8.06546C121.524 7.83807 121.445 7.67836 121.331 7.58633C121.223 7.48888 121.069 7.43744 120.869 7.43203L120.17 7.42391C119.818 7.42391 119.58 7.4212 119.456 7.41579L119.114 9.83582H118.587L119.374 4.23239C119.661 4.20532 119.932 4.18908 120.186 4.18367C120.446 4.17284 120.796 4.16743 121.234 4.16743C121.781 4.16743 122.181 4.25676 122.436 4.43542C122.69 4.61408 122.818 4.92808 122.818 5.37744C122.818 5.5182 122.807 5.65626 122.785 5.79161ZM120.844 6.96914C121.153 6.96372 121.399 6.92583 121.583 6.85544C121.773 6.78506 121.919 6.66325 122.022 6.49C122.125 6.31676 122.198 6.07584 122.241 5.76724C122.263 5.64272 122.274 5.5155 122.274 5.38556C122.274 5.09862 122.192 4.90101 122.03 4.79274C121.873 4.67904 121.605 4.6222 121.226 4.6222C120.749 4.6222 120.289 4.62761 119.845 4.63844L119.521 6.96914H120.844Z" fill="#EDEDED"/>
<path d="M44.3648 6.59911C44.6078 6.59911 44.8048 6.41575 44.8048 6.18957C44.8048 5.96339 44.6078 5.78003 44.3648 5.78003C44.1218 5.78003 43.9248 5.96339 43.9248 6.18957C43.9248 6.41575 44.1218 6.59911 44.3648 6.59911Z" fill="white"/>
</svg>
