<svg xmlns="http://www.w3.org/2000/svg" id="Camada_1" data-name="Camada 1" viewBox="29.21 351.26 2111.56 377.48">
  <defs>
    <style>
      .cls-1 {
        fill: #ad1b15;
      }

      .cls-1, .cls-2, .cls-3 {
        stroke-width: 0px;
      }

      .cls-2 {
        fill: #fff;
      }

      .cls-3 {
        fill: #1d3e89;
      }
    </style>
  </defs>
  <g>
    <circle class="cls-2" cx="1414.69" cy="543.22" r="13.79"/>
    <g>
      <path class="cls-3" d="m146.24,536.31l-49.78-19.97c-19-7.78-31.79-17.83-38.38-30.14-6.59-12.31-8.74-27.76-6.46-46.35,3.8-27.63,13.49-46.15,29.07-55.58,15.58-9.42,39.83-14.13,72.76-14.13s61.18,3.51,85.5,10.55l-5.7,38.81c-22.8-.75-49.91-1.13-81.31-1.13-15.45-.25-25.97.94-31.54,3.58-5.58,2.64-9.25,9.73-11.02,21.29-1.27,8.54-.57,14.5,2.09,17.9,2.66,3.39,8.93,6.97,18.81,10.74l47.12,18.09c20.01,7.79,33.18,17.52,39.52,29.2,6.33,11.69,8.23,27.69,5.7,48.04-3.8,28.64-13.11,47.92-27.93,57.84-14.82,9.93-39.96,14.88-75.43,14.88-29.39,0-59.41-3.39-90.05-10.17l6.08-41.07c53.7,1.27,80.94,1.89,81.7,1.89,17.73,0,29.76-1.69,36.1-5.08,6.33-3.39,10.38-10.62,12.16-21.67,1.01-8.54.25-14.44-2.28-17.71-2.54-3.26-8.11-6.53-16.72-9.8Z"/>
      <path class="cls-3" d="m409.18,590.95l3.8,35.42c-21.03,8.79-48.51,13.19-82.46,13.19-35.72,0-60.29-8.29-73.72-24.87-13.43-16.58-18.11-42.07-14.06-76.49,4.56-36.18,14.94-60.91,31.16-74.23,16.21-13.31,42.05-19.97,77.52-19.97,32.93,0,55.29,5.41,67.07,16.21,11.78,10.8,16.15,26.76,13.11,47.85-2.54,17.59-9.75,30.15-21.66,37.68-11.91,7.53-30.27,12.18-55.1,13.94l-55.48,4.14c.25,12.32,3.35,20.6,9.31,24.87,5.95,4.27,15.39,6.41,28.31,6.41,24.57,0,48.64-1.37,72.2-4.14Zm-106.39-59.91l43.7-4.15c10.13-.75,17.54-2.76,22.23-6.02,4.68-3.27,7.53-9.29,8.55-18.09.76-8.29-.83-13.43-4.75-15.44-3.93-2.01-12.22-2.88-24.89-2.64-14.7,0-25.02,3.08-30.97,9.23-5.95,6.15-10.58,18.53-13.87,37.12Z"/>
      <path class="cls-3" d="m506.46,449.27v33.54c13.68-13.57,26.41-23.43,38.19-29.58,11.78-6.15,24.13-9.23,37.05-9.23,13.68,0,24.44,3.02,32.3,9.05,7.85,6.03,12.41,14.57,13.68,25.62,23.56-23.11,47.12-34.67,70.68-34.67,17.22,0,29.83,4.72,37.81,14.13,7.98,9.42,10.83,22.3,8.55,38.63l-19.38,138.28h-55.86l17.48-123.22c1.01-7.78.38-13.19-1.9-16.21-2.28-3.02-6.21-4.52-11.78-4.52-6.33,0-13.05,2.01-20.14,6.03-7.1,4.02-16.72,11.43-28.88,22.23l-16.34,115.68h-53.96l17.1-123.22c1.26-7.53.89-12.87-1.14-16.02-2.03-3.14-6.08-4.71-12.16-4.71-6.59,0-13.49,1.94-20.71,5.84-7.22,3.9-16.66,10.87-28.31,20.91l-16.34,117.18h-55.86l26.22-185.76h43.7Z"/>
      <path class="cls-3" d="m826.77,449.27l-.76,35.79c11.14-11.3,23.68-20.85,37.62-28.63,13.93-7.79,27.61-11.69,41.04-11.69,22.04,0,37.24,7.67,45.6,22.99,8.36,15.33,10,41.33,4.94,78-2.28,16.07-5.39,29.84-9.31,41.26-3.93,11.43-8.42,20.54-13.49,27.32-5.07,6.78-11.21,12.12-18.43,16.02-7.22,3.9-14.44,6.46-21.66,7.72-7.22,1.25-15.77,1.88-25.65,1.88-18.49,0-37.11-1.63-55.86-4.89,0,11.81-.89,23.49-2.66,35.04l-6.08,36.55h-56.24l36.48-257.36h44.46Zm-9.12,151.85h28.88c19.25,0,31.85-3.2,37.81-9.61,5.95-6.41,10.57-21.91,13.87-46.53,3.04-23.61,3.61-38.75,1.71-45.41-1.9-6.65-7.16-9.98-15.77-9.98-6.59,0-14.95,2.76-25.08,8.29-10.13,5.52-20.27,12.94-30.4,22.23l-11.02,81.02Z"/>
      <path class="cls-3" d="m1129.23,443.99l-12.54,51.62h-13.68c-7.85,0-16.15,1.7-24.89,5.09-8.74,3.39-21.34,9.36-37.81,17.9l-15.96,116.43h-56.24l26.22-185.76h43.7v35.04c28.62-26.88,55.22-40.32,79.8-40.32h11.4Z"/>
      <path class="cls-3" d="m1286.54,590.95l3.8,35.42c-21.03,8.79-48.51,13.19-82.46,13.19-35.72,0-60.29-8.29-73.72-24.87-13.43-16.58-18.11-42.07-14.06-76.49,4.56-36.18,14.94-60.91,31.16-74.23,16.21-13.31,42.05-19.97,77.52-19.97,32.93,0,55.29,5.41,67.07,16.21,11.78,10.8,16.15,26.76,13.11,47.85-2.54,17.59-9.75,30.15-21.66,37.68-11.91,7.53-30.27,12.18-55.1,13.94l-55.48,4.14c.25,12.32,3.35,20.6,9.31,24.87,5.95,4.27,15.39,6.41,28.31,6.41,24.57,0,48.64-1.37,72.2-4.14Zm-106.39-59.91l43.7-4.15c10.13-.75,17.54-2.76,22.23-6.02,4.68-3.27,7.53-9.29,8.55-18.09.76-8.29-.83-13.43-4.75-15.44-3.93-2.01-12.22-2.88-24.89-2.64-14.7,0-25.02,3.08-30.97,9.23-5.95,6.15-10.58,18.53-13.87,37.12Z"/>
    </g>
  </g>
  <g>
    <g>
      <g>
        <path class="cls-1" d="m1467.93,351.26h640.52c19.85,0,35.01,26.62,31.92,56.06l-29.44,280.46c-2.48,23.58-16.02,40.96-31.92,40.96h-636.4c-13.44,0-25.58-12.07-30.82-30.65l-39.19-139c-3.36-11.93-2.54-25.59,2.2-36.41l65.16-148.78c6.19-14.13,16.7-22.64,27.96-22.64Z"/>
        <ellipse class="cls-2" cx="1451.43" cy="543.22" rx="15.05" ry="13.78"/>
      </g>
      <text/>
    </g>
    <g>
      <path class="cls-2" d="m1686.37,533.08c-5.45,6.28-13.37,9.93-23.79,10.94l-.24,1.28c10.05.82,17.42,4.02,22.02,9.56,4.63,5.54,6.95,13.43,6.95,23.67,0,4.87-.37,9.41-1.04,13.62-1.83,11.91-4.9,21.05-9.17,27.45-4.3,6.37-10.39,10.81-18.28,13.34-7.89,2.53-18.7,3.78-32.47,3.78-15.47,0-27.42-.12-35.91-.37-8.47-.27-17.24-.79-26.32-1.64l24.43-173.78c8.07-.85,15.75-1.4,23.06-1.64s17.42-.37,30.34-.37,22.63,1.04,30.1,3.14c7.49,2.1,13.07,5.57,16.75,10.45,3.69,4.87,5.54,11.67,5.54,20.41,0,2.01-.34,6.03-1.01,12.09-1.86,12.43-5.51,21.78-10.97,28.09Zm-11.21,43.68c0-6.55-1.25-11.67-3.78-15.35-2.5-3.69-6.4-6.31-11.7-7.8-5.3-1.52-12.55-2.35-21.78-2.53h-41.58l-10.05,71.28c6.88.15,20.9.24,42.07.24,10.57,0,18.92-.97,25.04-2.89,6.12-1.92,10.78-5.33,13.98-10.2,3.2-4.87,5.45-11.91,6.79-21.14.67-5.73,1.01-9.6,1.01-11.61Zm-13.71-41.55c5.6-1.86,9.99-5.12,13.1-9.81,3.11-4.72,5.33-11.42,6.67-20.17.49-3.87.76-7.13.76-9.81,0-6.06-1.22-10.66-3.66-13.86s-6.28-5.42-11.45-6.67c-5.21-1.28-12.43-1.89-21.69-1.89-19.13,0-31.8.09-38.02.24l-9.08,64.97h40.57c9.56-.15,17.15-1.16,22.79-3.02Z"/>
      <path class="cls-2" d="m1842.15,467.46c7.55,5.7,11.33,15.44,11.33,29.21,0,4.2-.4,9.5-1.25,15.87-2.01,14.29-5.24,25.13-9.69,32.62-4.45,7.46-10.6,12.67-18.4,15.6-7.8,2.95-18.43,4.42-31.86,4.42s-28.12-.67-42.55-2.01l-10.08,71.52h-16.63l24.43-173.78c8.93-.85,17.21-1.4,24.95-1.64,7.71-.24,18.64-.37,32.75-.37,17.12,0,29.46,2.86,37.01,8.56Zm-5.27,30.74c0-9.75-2.44-16.39-7.31-19.92-4.87-3.5-13.1-5.27-24.67-5.27-21.51,0-35.7.09-42.58.24l-10.81,77.58h40.54c9.9-.18,17.7-1.4,23.42-3.66,5.7-2.28,10.14-6.18,13.34-11.73,3.2-5.54,5.54-13.59,7.07-24.16.67-4.54,1.01-8.93,1.01-13.1Z"/>
      <path class="cls-2" d="m1998.69,471.36c9.14,8.99,13.74,24.06,13.74,45.2,0,9.75-.85,20.41-2.53,31.98-3.02,22.51-7.55,40.18-13.59,53.03-6.06,12.82-14.19,22.08-24.43,27.69-10.27,5.64-23.61,8.44-40.06,8.44-20.17,0-34.88-4.57-44.2-13.71-9.32-9.17-13.98-24.4-13.98-45.72,0-7.74.82-18.12,2.53-31.22,3.02-22.33,7.49-39.93,13.46-52.79,5.97-12.82,14.1-22.11,24.43-27.81,10.33-5.7,23.88-8.56,40.67-8.56,20.17,0,34.82,4.48,43.96,13.46Zm-75.82,8.19c-7.8,4.69-14.01,12.46-18.64,23.3-4.6,10.81-8.35,26.04-11.18,45.69-1.71,13.1-2.53,23.27-2.53,30.49,0,16.11,3.2,27.48,9.56,34.12s17.03,9.96,31.98,9.96c12.76,0,23.06-2.41,30.86-7.19,7.8-4.78,14.07-12.58,18.76-23.42,4.69-10.81,8.41-25.98,11.09-45.45,1.83-13.28,2.77-24.03,2.77-32.26,0-15.6-3.2-26.56-9.56-32.87-6.4-6.28-16.97-9.44-31.74-9.44-13.1,0-23.55,2.38-31.38,7.07Z"/>
    </g>
  </g>
</svg>