<svg width="106" height="13" viewBox="0 0 106 13" fill="none" xmlns="http://www.w3.org/2000/svg">
<path d="M3.73004 6.42493L2.14001 5.78491C1.53001 5.53491 1.12003 5.21494 0.910034 4.81494C0.700034 4.42494 0.630012 3.92496 0.700012 3.33496C0.820012 2.44496 1.13 1.85493 1.63 1.55493C2.13 1.25493 2.91002 1.10492 3.96002 1.10492C5.01002 1.10492 5.92001 1.21495 6.70001 1.44495L6.52002 2.68494C5.79002 2.66494 4.91998 2.64496 3.91998 2.64496C3.41998 2.63496 3.09003 2.67494 2.91003 2.75494C2.73003 2.83494 2.61 3.06494 2.56 3.43494C2.52 3.70494 2.54 3.89494 2.63 4.00494C2.72 4.11494 2.92004 4.22491 3.23004 4.34491L4.73999 4.92493C5.37999 5.17493 5.80001 5.48493 6.01001 5.86493C6.21001 6.23493 6.27 6.75497 6.19 7.40497C6.07 8.32497 5.76999 8.94494 5.29999 9.25494C4.82999 9.57494 4.02 9.73492 2.88 9.73492C1.94 9.73492 0.98 9.62497 0 9.40497L0.190002 8.08496C1.91 8.12496 2.78 8.14496 2.81 8.14496C3.38 8.14496 3.76003 8.09492 3.97003 7.98492C4.17003 7.87492 4.29999 7.64492 4.35999 7.29492C4.38999 7.02492 4.37004 6.83491 4.29004 6.72491C4.19004 6.63491 4.01004 6.53493 3.73004 6.42493Z" fill="#1D3E89"/>
<path d="M12.16 8.17499L12.2799 9.30499C11.6099 9.58499 10.7299 9.72498 9.63993 9.72498C8.49993 9.72498 7.70995 9.45499 7.27995 8.92499C6.84995 8.39499 6.69993 7.57498 6.82993 6.47498C6.97993 5.31498 7.30993 4.52497 7.82993 4.09497C8.34993 3.66497 9.17991 3.45502 10.3099 3.45502C11.3599 3.45502 12.0799 3.62498 12.4599 3.97498C12.8399 4.32498 12.9799 4.835 12.8799 5.505C12.7999 6.065 12.5699 6.47503 12.1899 6.71503C11.8099 6.95503 11.2199 7.10498 10.4199 7.16498L8.63993 7.29498C8.64993 7.68498 8.74992 7.95497 8.93992 8.09497C9.12992 8.23497 9.42995 8.30499 9.84995 8.30499C10.63 8.31499 11.4 8.26499 12.16 8.17499ZM8.74992 6.255L10.1499 6.125C10.4699 6.105 10.7099 6.035 10.8599 5.935C11.0099 5.835 11.0999 5.63498 11.1299 5.35498C11.1499 5.08498 11.1 4.92499 10.98 4.86499C10.85 4.80499 10.5899 4.77497 10.1799 4.78497C9.70991 4.78497 9.37992 4.88502 9.18992 5.08502C8.99992 5.26502 8.84992 5.665 8.74992 6.255Z" fill="#1D3E89"/>
<path d="M15.2703 3.64502V4.71503C15.7103 4.28503 16.1202 3.96501 16.4902 3.76501C16.8702 3.56501 17.2602 3.46503 17.6802 3.46503C18.1202 3.46503 18.4603 3.565 18.7103 3.755C18.9603 3.945 19.1103 4.22501 19.1503 4.57501C19.9003 3.83501 20.6603 3.46503 21.4103 3.46503C21.9603 3.46503 22.3702 3.61498 22.6202 3.91498C22.8802 4.21498 22.9703 4.62503 22.8903 5.15503L22.2703 9.58502H20.4803L21.0403 5.63501C21.0703 5.38501 21.0503 5.21499 20.9803 5.11499C20.9103 5.01499 20.7803 4.97498 20.6003 4.97498C20.4003 4.97498 20.1803 5.03498 19.9503 5.16498C19.7203 5.29498 19.4103 5.535 19.0203 5.875L18.5002 9.58502H16.7703L17.3203 5.63501C17.3603 5.39501 17.3503 5.225 17.2803 5.125C17.2103 5.025 17.0903 4.97498 16.8903 4.97498C16.6803 4.97498 16.4603 5.03498 16.2303 5.16498C16.0003 5.28498 15.7003 5.51502 15.3203 5.83502L14.8002 9.58502H13.0103L13.8503 3.63501H15.2703V3.64502Z" fill="#1D3E89"/>
<path d="M25.5302 3.64508L25.5102 4.79504C25.8702 4.43504 26.2702 4.12506 26.7202 3.87506C27.1702 3.62506 27.6002 3.50507 28.0302 3.50507C28.7402 3.50507 29.2202 3.75506 29.4902 4.24506C29.7602 4.73506 29.8102 5.56506 29.6502 6.74506C29.5802 7.25506 29.4802 7.70506 29.3502 8.06506C29.2202 8.43506 29.0802 8.72507 28.9202 8.94507C28.7602 9.16507 28.5602 9.33508 28.3302 9.45508C28.1002 9.57508 27.8702 9.66508 27.6402 9.70508C27.4102 9.74508 27.1302 9.76508 26.8202 9.76508C26.2302 9.76508 25.6302 9.71504 25.0302 9.60504C25.0302 9.98504 25.0002 10.355 24.9402 10.725L24.7502 11.8951H22.9502L24.1202 3.65509H25.5302V3.64508ZM25.2402 8.50507H26.1702C26.7902 8.50507 27.1902 8.40507 27.3802 8.19507C27.5702 7.98507 27.7202 7.49508 27.8202 6.70508C27.9202 5.94508 27.9402 5.46507 27.8702 5.25507C27.8102 5.04507 27.6402 4.93506 27.3602 4.93506C27.1502 4.93506 26.8802 5.02508 26.5602 5.20508C26.2402 5.38508 25.9102 5.61504 25.5902 5.91504L25.2402 8.50507Z" fill="#1D3E89"/>
<path d="M35.2201 3.47498L34.8201 5.125H34.3801C34.1301 5.125 33.8601 5.17497 33.5801 5.28497C33.3001 5.39497 32.9001 5.58498 32.3701 5.85498L31.86 9.58502H30.0601L30.9001 3.63501H32.3V4.755C33.22 3.895 34.07 3.46503 34.86 3.46503H35.2201V3.47498Z" fill="#1D3E89"/>
<path d="M40.26 8.17499L40.38 9.30499C39.71 9.58499 38.83 9.72498 37.74 9.72498C36.6 9.72498 35.81 9.45499 35.38 8.92499C34.95 8.39499 34.8 7.57498 34.93 6.47498C35.08 5.31498 35.41 4.52497 35.93 4.09497C36.45 3.66497 37.2801 3.45502 38.4101 3.45502C39.4601 3.45502 40.18 3.62498 40.56 3.97498C40.94 4.32498 41.0801 4.835 40.9801 5.505C40.9001 6.065 40.6701 6.47503 40.2901 6.71503C39.9101 6.95503 39.3201 7.10498 38.5201 7.16498L36.74 7.29498C36.75 7.68498 36.8501 7.95497 37.0401 8.09497C37.2301 8.23497 37.5301 8.30499 37.9501 8.30499C38.7401 8.31499 39.51 8.26499 40.26 8.17499ZM36.8501 6.255L38.25 6.125C38.57 6.105 38.8101 6.035 38.9601 5.935C39.1101 5.835 39.2001 5.63498 39.2301 5.35498C39.2501 5.08498 39.2001 4.92499 39.0801 4.86499C38.9501 4.80499 38.6901 4.77497 38.2801 4.78497C37.8101 4.78497 37.4801 4.88502 37.2901 5.08502C37.1101 5.26502 36.9601 5.665 36.8501 6.255Z" fill="#1D3E89"/>
<path d="M47.9252 0.450012H103.065C104.065 0.450012 104.835 1.3 104.675 2.25L103.185 11.24C103.065 12 102.375 12.55 101.575 12.55H46.6452C45.9652 12.55 45.3552 12.16 45.0952 11.57L43.1152 7.10999C42.9452 6.72999 42.9852 6.29 43.2252 5.94L46.5152 1.16998C46.8252 0.729983 47.3552 0.450012 47.9252 0.450012Z" fill="#E20613"/>
<path d="M54.2452 4.32001H54.8552C54.9252 4.32001 54.9852 4.33995 55.0152 4.38995C55.0552 4.42995 55.0652 4.49001 55.0652 4.57001L54.5652 9.70996H54.0552L54.5452 4.75H54.3852L52.3852 8.97998C52.3452 9.08998 52.2652 9.13995 52.1552 9.13995H51.6452C51.5152 9.13995 51.4452 9.08001 51.4252 8.95001L50.5952 4.73999H50.4252L49.5352 9.70001H49.0152L49.9552 4.52997C49.9852 4.37997 50.0652 4.31 50.1952 4.31H50.7952C50.9152 4.31 50.9852 4.37 50.9952 4.5L51.7052 8.01996C51.7252 8.09996 51.7452 8.22995 51.7652 8.38995C51.7952 8.54995 51.8152 8.67 51.8252 8.75H51.9952C52.1152 8.46 52.2252 8.22001 52.3252 8.01001L53.9952 4.47998C54.0552 4.36998 54.1352 4.32001 54.2452 4.32001Z" fill="#EDEDED"/>
<path d="M59.7752 4.73999H57.6052C57.2352 4.73999 57.0252 4.93001 56.9852 5.32001L56.7952 6.64996H59.2052L59.1552 7.04999H56.7452L56.5152 8.71997C56.4552 9.08997 56.6152 9.26996 56.9852 9.26996H59.1352V9.65997C58.6552 9.68997 57.9152 9.70996 56.9152 9.70996C56.5852 9.70996 56.3352 9.62 56.1752 9.44C56.0152 9.26 55.9552 9.01997 55.9952 8.71997L56.4952 5.17999C56.5352 4.90999 56.6452 4.69998 56.8252 4.53998C57.0052 4.37998 57.2452 4.31 57.5452 4.31C58.6052 4.31 59.3752 4.32999 59.8552 4.35999L59.7752 4.73999Z" fill="#EDEDED"/>
<path d="M65.0052 4.32001L64.2752 9.5C64.2552 9.64 64.1852 9.70001 64.0452 9.70001H63.5352C63.4352 9.70001 63.3552 9.63996 63.3052 9.51996L61.7752 5.41998C61.6652 5.11998 61.5952 4.90998 61.5652 4.78998H61.4052C61.3852 5.00998 61.3652 5.23996 61.3352 5.45996L60.7452 9.70001H60.2352L60.9652 4.51996C60.9852 4.37996 61.0652 4.32001 61.1952 4.32001H61.6852C61.7952 4.32001 61.8752 4.38 61.9152 4.5L63.4052 8.5C63.5152 8.81 63.5952 9.04998 63.6552 9.22998H63.8252C63.8452 9.05998 63.8652 8.80998 63.9152 8.47998L64.4952 4.32001H65.0052Z" fill="#EDEDED"/>
<path d="M67.9652 7.41L66.8552 6.98C66.4852 6.83 66.2352 6.65001 66.1052 6.43001C65.9752 6.21001 65.9352 5.89998 65.9852 5.51998C66.0252 5.22998 66.0952 4.99002 66.1952 4.81002C66.2952 4.63002 66.4352 4.50001 66.6052 4.42001C66.7752 4.34001 66.9552 4.28003 67.1452 4.26003C67.3252 4.23003 67.5652 4.22 67.8552 4.23C68.4152 4.23 68.9252 4.27001 69.4052 4.36001L69.3452 4.73C68.7652 4.7 68.2552 4.68001 67.7952 4.68001C67.6452 4.68001 67.5352 4.68001 67.4552 4.68001C67.3752 4.68001 67.2852 4.68998 67.1752 4.70998C67.0652 4.72998 66.9752 4.76 66.9252 4.79C66.8652 4.83 66.8052 4.88002 66.7452 4.94002C66.6852 5.00002 66.6252 5.09002 66.5952 5.19002C66.5552 5.29002 66.5252 5.42002 66.5052 5.56002C66.4752 5.84002 66.4952 6.04001 66.5752 6.17001C66.6552 6.30001 66.8252 6.41999 67.0952 6.52999L68.1852 6.95003C68.5852 7.11003 68.8452 7.29003 68.9752 7.51003C69.0952 7.73003 69.1352 8.03001 69.0852 8.43002C69.0452 8.72002 68.9752 8.96003 68.8852 9.13003C68.7952 9.31003 68.6552 9.44 68.4752 9.54C68.2952 9.63 68.1052 9.68999 67.9052 9.71999C67.7052 9.74999 67.4352 9.76003 67.1052 9.76003C66.5452 9.76003 66.0152 9.71998 65.5252 9.63998L65.5952 9.26003C66.2252 9.29003 66.7452 9.31002 67.1452 9.31002C67.6352 9.30002 67.9852 9.24003 68.1852 9.13003C68.3852 9.02003 68.5152 8.76002 68.5752 8.37002C68.6152 8.08002 68.5852 7.87002 68.5052 7.75002C68.4252 7.65002 68.2452 7.53 67.9652 7.41Z" fill="#EDEDED"/>
<path d="M73.1552 7.91998H70.8052L69.9652 9.70001H69.4152L71.9552 4.45001C71.9952 4.36001 72.0652 4.32001 72.1652 4.32001H72.7552C72.8052 4.32001 72.8452 4.34 72.8752 4.37C72.9152 4.4 72.9352 4.43998 72.9352 4.47998L74.0052 9.70996H73.4852L73.1552 7.91998ZM73.0752 7.46997L72.6352 5.16998C72.6252 5.11998 72.6152 5.04 72.5952 4.94C72.5752 4.84 72.5652 4.76996 72.5652 4.70996H72.3352C72.3152 4.73996 72.2852 4.80998 72.2352 4.91998C72.1852 5.02998 72.1452 5.10997 72.1252 5.15997L71.0452 7.45996H73.0752V7.46997Z" fill="#EDEDED"/>
<path d="M76.0652 4.32001L75.4452 8.71997C75.4152 8.88997 75.4452 9.03 75.5252 9.13C75.6052 9.23 75.7352 9.27997 75.9152 9.27997H77.9352L77.9152 9.66998C77.4552 9.69998 76.7452 9.71997 75.8052 9.71997C75.4952 9.71997 75.2652 9.63001 75.1052 9.45001C74.9452 9.27001 74.8852 9.02996 74.9252 8.70996L75.5352 4.32001H76.0652Z" fill="#EDEDED"/>
<path d="M79.2752 9.70001H78.7552L79.5152 4.31H80.0252L79.2752 9.70001Z" fill="#EDEDED"/>
<path d="M80.7152 9.70001L81.4752 4.31C82.1052 4.26 82.7052 4.23999 83.2452 4.23999C84.0352 4.23999 84.5652 4.44999 84.8352 4.85999C85.1052 5.26999 85.1652 5.99997 85.0152 7.02997C84.9352 7.58997 84.8352 8.04996 84.7152 8.39996C84.5952 8.74996 84.4252 9.02999 84.2152 9.23999C84.0052 9.44999 83.7752 9.58997 83.5052 9.65997C83.2452 9.73997 82.9052 9.76996 82.5052 9.76996C81.9752 9.76996 81.3752 9.75001 80.7152 9.70001ZM81.9352 4.70996L81.2852 9.29999C81.8052 9.30999 82.2152 9.32001 82.5052 9.32001C82.9352 9.32001 83.2752 9.25 83.5252 9.12C83.7752 8.99 83.9752 8.75999 84.1252 8.42999C84.2752 8.09999 84.3952 7.61998 84.4852 6.97998C84.6152 6.08998 84.5952 5.47997 84.4152 5.15997C84.2352 4.83997 83.8452 4.67999 83.2352 4.67999C83.1752 4.68999 82.7452 4.69996 81.9352 4.70996Z" fill="#EDEDED"/>
<path d="M88.9452 7.91998H86.5952L85.7552 9.70001H85.2052L87.7452 4.45001C87.7852 4.36001 87.8552 4.32001 87.9552 4.32001H88.5452C88.5952 4.32001 88.6352 4.34 88.6652 4.37C88.7052 4.4 88.7252 4.43998 88.7252 4.47998L89.7952 9.70996H89.2752L88.9452 7.91998ZM88.8652 7.46997L88.4252 5.16998C88.4152 5.11998 88.4052 5.04 88.3852 4.94C88.3652 4.84 88.3552 4.76996 88.3552 4.70996H88.1252C88.1052 4.73996 88.0752 4.80998 88.0252 4.91998C87.9752 5.02998 87.9352 5.10997 87.9152 5.15997L86.8352 7.45996H88.8652V7.46997Z" fill="#EDEDED"/>
<path d="M90.6052 9.70001L91.3652 4.31C91.9952 4.26 92.5952 4.23999 93.1352 4.23999C93.9252 4.23999 94.4552 4.44999 94.7252 4.85999C94.9952 5.26999 95.0552 5.99997 94.9052 7.02997C94.8252 7.58997 94.7252 8.04996 94.6052 8.39996C94.4852 8.74996 94.3152 9.02999 94.1052 9.23999C93.8952 9.44999 93.6652 9.58997 93.3952 9.65997C93.1352 9.73997 92.7952 9.76996 92.3952 9.76996C91.8652 9.76996 91.2652 9.75001 90.6052 9.70001ZM91.8152 4.70996L91.1652 9.29999C91.6852 9.30999 92.0952 9.32001 92.3852 9.32001C92.8152 9.32001 93.1552 9.25 93.4052 9.12C93.6552 8.99 93.8552 8.75999 94.0052 8.42999C94.1552 8.09999 94.2752 7.61998 94.3652 6.97998C94.4952 6.08998 94.4752 5.47997 94.2952 5.15997C94.1152 4.83997 93.7252 4.67999 93.1152 4.67999C93.0652 4.68999 92.6352 4.69996 91.8152 4.70996Z" fill="#EDEDED"/>
<path d="M99.6352 4.73999H97.4652C97.0952 4.73999 96.8852 4.93001 96.8452 5.32001L96.6552 6.64996H99.0652L99.0152 7.04999H96.6052L96.3752 8.71997C96.3152 9.08997 96.4752 9.26996 96.8452 9.26996H98.9952V9.65997C98.5152 9.68997 97.7752 9.70996 96.7752 9.70996C96.4452 9.70996 96.1952 9.62 96.0352 9.44C95.8752 9.26 95.8152 9.01997 95.8552 8.71997L96.3552 5.17999C96.3952 4.90999 96.5052 4.69998 96.6852 4.53998C96.8652 4.37998 97.1052 4.31 97.4052 4.31C98.4652 4.31 99.2352 4.32999 99.7152 4.35999L99.6352 4.73999Z" fill="#EDEDED"/>
<path d="M45.2252 7.38995C45.4682 7.38995 45.6652 7.19302 45.6652 6.95001C45.6652 6.70701 45.4682 6.51001 45.2252 6.51001C44.9822 6.51001 44.7852 6.70701 44.7852 6.95001C44.7852 7.19302 44.9822 7.38995 45.2252 7.38995Z" fill="white"/>
</svg>
