<svg width="122" height="13" viewBox="0 0 122 13" fill="none" xmlns="http://www.w3.org/2000/svg">
<path d="M3.79999 6.42496L2.19 5.77499C1.57 5.52499 1.16001 5.19495 0.950012 4.79495C0.740012 4.39495 0.66999 3.89495 0.73999 3.29495C0.85999 2.39495 1.17999 1.79496 1.67999 1.49496C2.18999 1.18496 2.96998 1.035 4.03998 1.035C5.09998 1.035 6.02 1.14497 6.81 1.37497L6.63 2.63498C5.89001 2.61498 5.00999 2.595 3.98999 2.595C3.48999 2.585 3.15003 2.625 2.97003 2.715C2.79003 2.805 2.66999 3.035 2.60999 3.405C2.56999 3.685 2.58999 3.87495 2.67999 3.98495C2.76999 4.09495 2.96998 4.21499 3.28998 4.33499L4.82001 4.92496C5.47001 5.17496 5.89998 5.49497 6.09998 5.87497C6.30998 6.25497 6.37003 6.77497 6.28003 7.43497C6.16003 8.36497 5.85 8.98497 5.37 9.31497C4.89 9.63497 4.06998 9.79495 2.91998 9.79495C1.96998 9.79495 0.99 9.685 0 9.465L0.200012 8.13498C1.94001 8.17498 2.82998 8.19498 2.84998 8.19498C3.42998 8.19498 3.82002 8.145 4.02002 8.035C4.23002 7.925 4.35997 7.69499 4.40997 7.33499C4.43997 7.05499 4.42003 6.86498 4.34003 6.76498C4.26003 6.63498 4.07999 6.53496 3.79999 6.42496Z" fill="#1D3E89"/>
<path d="M12.33 8.19498L12.45 9.345C11.77 9.635 10.88 9.77499 9.78 9.77499C8.62 9.77499 7.81999 9.505 7.38999 8.965C6.94999 8.425 6.79997 7.60495 6.92997 6.48495C7.07997 5.31495 7.40998 4.50498 7.93998 4.07498C8.46998 3.64498 9.29999 3.42496 10.45 3.42496C11.52 3.42496 12.24 3.60499 12.63 3.95499C13.01 4.30499 13.15 4.82497 13.06 5.50497C12.98 6.07497 12.74 6.48501 12.36 6.72501C11.97 6.96501 11.38 7.12496 10.57 7.17496L8.76999 7.30496C8.77999 7.70496 8.87998 7.97496 9.06998 8.11496C9.25998 8.25496 9.56996 8.32498 9.98996 8.32498C10.79 8.33498 11.57 8.28498 12.33 8.19498ZM8.87998 6.25497L10.3 6.12497C10.63 6.10497 10.87 6.03496 11.02 5.92496C11.17 5.81496 11.26 5.62499 11.3 5.33499C11.32 5.06499 11.27 4.89499 11.15 4.83499C11.02 4.76499 10.75 4.74496 10.34 4.74496C9.86 4.74496 9.53 4.84495 9.34 5.04495C9.14 5.25495 8.98998 5.65497 8.87998 6.25497Z" fill="#1D3E89"/>
<path d="M15.4901 3.60495V4.69498C15.9301 4.25498 16.35 3.93495 16.73 3.73495C17.11 3.53495 17.51 3.43497 17.93 3.43497C18.37 3.43497 18.72 3.53501 18.98 3.72501C19.23 3.92501 19.38 4.19496 19.42 4.55496C20.18 3.80496 20.95 3.43497 21.71 3.43497C22.27 3.43497 22.68 3.58499 22.94 3.89499C23.2 4.20499 23.29 4.61499 23.22 5.14499L22.59 9.63498H20.78L21.35 5.63498C21.38 5.38498 21.36 5.20495 21.29 5.10495C21.22 5.00495 21.09 4.95499 20.91 4.95499C20.7 4.95499 20.4899 5.025 20.2599 5.155C20.0299 5.285 19.72 5.52497 19.32 5.87497L18.79 9.62497H17.04L17.59 5.62497C17.63 5.38497 17.62 5.20495 17.55 5.10495C17.48 5.00495 17.35 4.95499 17.16 4.95499C16.95 4.95499 16.7201 5.01499 16.4901 5.14499C16.2601 5.27499 15.95 5.49498 15.57 5.82498L15.04 9.62497H13.23L14.08 3.595H15.4901V3.60495Z" fill="#1D3E89"/>
<path d="M25.8799 3.60495L25.86 4.76498C26.22 4.39498 26.63 4.08499 27.08 3.83499C27.53 3.58499 27.98 3.45499 28.41 3.45499C29.12 3.45499 29.62 3.70499 29.89 4.20499C30.16 4.70499 30.21 5.54495 30.05 6.73495C29.98 7.25495 29.8801 7.70498 29.7501 8.07498C29.6201 8.44498 29.48 8.745 29.31 8.965C29.15 9.185 28.95 9.35495 28.71 9.48495C28.48 9.61495 28.2399 9.69495 28.0099 9.73495C27.7799 9.77495 27.5 9.79495 27.18 9.79495C26.58 9.79495 25.9801 9.74498 25.3701 9.63498C25.3701 10.015 25.34 10.395 25.28 10.775L25.08 11.965H23.2599L24.44 3.61496H25.8799V3.60495ZM25.58 8.52499H26.52C27.14 8.52499 27.5501 8.425 27.7501 8.215C27.9401 8.005 28.09 7.50499 28.2 6.70499C28.3 5.93499 28.3199 5.44495 28.2599 5.23495C28.1999 5.01495 28.0301 4.91501 27.7501 4.91501C27.5401 4.91501 27.27 5.00497 26.94 5.18497C26.61 5.36497 26.28 5.605 25.95 5.905L25.58 8.52499Z" fill="#1D3E89"/>
<path d="M35.69 3.43497L35.28 5.10495H34.84C34.59 5.10495 34.32 5.16499 34.03 5.27499C33.75 5.38499 33.34 5.57495 32.8 5.85495L32.28 9.63498H30.46L31.31 3.60495H32.73V4.74496C33.66 3.87496 34.52 3.43497 35.32 3.43497H35.69Z" fill="#1D3E89"/>
<path d="M40.7899 8.19498L40.9099 9.345C40.2299 9.635 39.34 9.77499 38.24 9.77499C37.08 9.77499 36.28 9.505 35.85 8.965C35.41 8.425 35.2599 7.60495 35.3899 6.48495C35.5399 5.31495 35.8699 4.50498 36.3999 4.07498C36.9299 3.64498 37.7599 3.42496 38.9099 3.42496C39.9799 3.42496 40.7 3.60499 41.09 3.95499C41.47 4.30499 41.6099 4.82497 41.5199 5.50497C41.4399 6.07497 41.2 6.48501 40.82 6.72501C40.43 6.96501 39.8399 7.12496 39.0299 7.17496L37.23 7.30496C37.24 7.70496 37.3399 7.97496 37.5299 8.11496C37.7199 8.25496 38.03 8.32498 38.45 8.32498C39.25 8.33498 40.0299 8.28498 40.7899 8.19498ZM37.34 6.25497L38.7599 6.12497C39.0899 6.10497 39.33 6.03496 39.48 5.92496C39.63 5.81496 39.7199 5.62499 39.7599 5.33499C39.7799 5.06499 39.73 4.89499 39.61 4.83499C39.48 4.76499 39.21 4.74496 38.8 4.74496C38.32 4.74496 37.99 4.84495 37.8 5.04495C37.6 5.25495 37.45 5.65497 37.34 6.25497Z" fill="#1D3E89"/>
<path d="M118.371 12.825H47.2611C46.5211 12.825 45.861 12.385 45.571 11.705L43.661 7.19498C43.471 6.74498 43.5211 6.23498 43.7811 5.82498L46.961 0.994965C47.301 0.474965 47.871 0.175018 48.491 0.175018H119.801C120.321 0.175018 120.811 0.405013 121.151 0.795013C121.491 1.18501 121.641 1.71501 121.551 2.22501L120.121 11.325C119.991 12.195 119.251 12.825 118.371 12.825ZM48.5011 0.564972C48.0211 0.564972 47.571 0.804987 47.301 1.20499L44.1211 6.035C43.9311 6.335 43.8911 6.70499 44.0311 7.02499L45.941 11.535C46.161 12.065 46.6811 12.405 47.2611 12.405H118.371C119.051 12.405 119.621 11.915 119.731 11.245L121.161 2.14499C121.221 1.74499 121.111 1.345 120.851 1.035C120.591 0.725004 120.211 0.554962 119.811 0.554962H48.5011V0.564972Z" fill="#C38D39"/>
<path d="M45.2311 7.04501C45.4796 7.04501 45.681 6.84353 45.681 6.595C45.681 6.34647 45.4796 6.14499 45.2311 6.14499C44.9826 6.14499 44.7811 6.34647 44.7811 6.595C44.7811 6.84353 44.9826 7.04501 45.2311 7.04501Z" fill="#C38D39"/>
<path d="M52.6411 4.00497C52.9211 4.12497 53.1211 4.31499 53.2511 4.58499C53.3811 4.85499 53.451 5.21501 53.451 5.66501C53.451 5.97501 53.4211 6.31497 53.3711 6.68497C53.2611 7.45497 53.111 8.03497 52.911 8.43497C52.711 8.83497 52.4511 9.11499 52.1111 9.27499C51.7811 9.43499 51.3411 9.50497 50.7811 9.50497C50.2311 9.50497 49.621 9.48497 48.931 9.43497L49.7111 3.88498C50.3611 3.83498 50.971 3.81497 51.541 3.81497C52.001 3.82497 52.3711 3.88497 52.6411 4.00497ZM52.911 5.62497C52.911 5.28497 52.8611 5.01497 52.7711 4.81497C52.6811 4.61497 52.5311 4.485 52.3411 4.405C52.1411 4.325 51.881 4.285 51.541 4.285C51.211 4.285 50.771 4.28496 50.201 4.30496L49.5311 9.04501C50.0711 9.05501 50.4811 9.06497 50.7811 9.06497C51.2211 9.06497 51.5811 8.99502 51.8411 8.86502C52.1011 8.73502 52.3111 8.495 52.4611 8.155C52.6111 7.815 52.7311 7.31501 52.8311 6.66501C52.8811 6.22501 52.911 5.88497 52.911 5.62497Z" fill="#C38D39"/>
<path d="M54.7311 9.44498H54.201L54.9811 3.89499H55.5111L54.7311 9.44498Z" fill="#C38D39"/>
<path d="M59.9911 3.94496L59.931 4.32496C59.331 4.29496 58.8011 4.27497 58.3411 4.27497C58.0311 4.27497 57.8011 4.29495 57.6411 4.31495C57.4811 4.33495 57.3511 4.42495 57.2311 4.56495C57.1211 4.69495 57.0411 4.91497 57.0011 5.20497C56.9911 5.32497 56.9811 5.40496 56.9811 5.44496C56.9811 5.63496 57.0311 5.78497 57.1211 5.89497C57.2111 6.00497 57.3711 6.10497 57.6111 6.20497L58.7411 6.63496C59.0911 6.76496 59.3311 6.92499 59.4811 7.10499C59.6311 7.28499 59.691 7.51494 59.691 7.80494C59.691 7.91494 59.681 8.03499 59.671 8.16499C59.611 8.55499 59.5011 8.85499 59.3411 9.04499C59.1811 9.23499 58.971 9.37495 58.701 9.43495C58.431 9.49495 58.0711 9.53498 57.6211 9.53498C57.0411 9.53498 56.5011 9.49499 55.9911 9.41499L56.061 9.02497C56.711 9.05497 57.241 9.07496 57.661 9.07496C58.011 9.07496 58.2811 9.04494 58.4611 8.99494C58.6511 8.94494 58.7911 8.85499 58.9011 8.72499C59.0111 8.59499 59.0811 8.38499 59.1311 8.10499C59.1511 7.99499 59.1511 7.90497 59.1511 7.83497C59.1511 7.64497 59.1011 7.49497 59.0111 7.39497C58.9211 7.29497 58.7511 7.19498 58.5111 7.09498L57.3711 6.65498C57.0411 6.52498 56.811 6.36495 56.661 6.18495C56.511 5.99495 56.441 5.75498 56.441 5.46498C56.441 5.36498 56.4511 5.26498 56.4611 5.15498C56.5111 4.77498 56.6211 4.49494 56.7711 4.30494C56.9211 4.11494 57.1111 3.98499 57.3511 3.91499C57.5911 3.84499 57.8811 3.81495 58.2511 3.81495C58.9211 3.80495 59.5011 3.85496 59.9911 3.94496Z" fill="#C38D39"/>
<path d="M64.951 4.36502H63.1011L62.3811 9.44498H61.8511L62.571 4.36502H60.7311L60.801 3.89499H65.0111L64.951 4.36502Z" fill="#C38D39"/>
<path d="M68.8711 6.44498C68.6811 6.66498 68.3911 6.80501 68.0211 6.85501L68.0111 6.89499C68.3011 6.97499 68.491 7.24497 68.571 7.68497L68.921 9.43497H68.3811L68.041 7.68497C68.001 7.45497 67.921 7.30499 67.811 7.20499C67.701 7.11499 67.5511 7.06496 67.3511 7.05496L66.661 7.04501C66.311 7.04501 66.081 7.045 65.951 7.035L65.6111 9.43497H65.0911L65.8711 3.88498C66.1511 3.85498 66.421 3.84499 66.681 3.83499C66.941 3.82499 67.2811 3.82498 67.7111 3.82498C68.2511 3.82498 68.6511 3.91499 68.9011 4.08499C69.1511 4.25499 69.2811 4.57498 69.2811 5.01498C69.2811 5.15498 69.2711 5.29502 69.2511 5.42502C69.1911 5.89502 69.0611 6.22498 68.8711 6.44498ZM68.071 6.49496C68.261 6.42496 68.4011 6.30498 68.5011 6.13498C68.6011 5.96498 68.6711 5.72501 68.7211 5.41501C68.7411 5.29501 68.7511 5.165 68.7511 5.035C68.7511 4.755 68.6711 4.55498 68.5111 4.44498C68.3511 4.33498 68.0911 4.27499 67.7111 4.27499C67.2411 4.27499 66.7811 4.27501 66.3411 4.29501L66.0211 6.60501H67.3311C67.6411 6.60501 67.881 6.56496 68.071 6.49496Z" fill="#C38D39"/>
<path d="M70.5111 9.44498H69.9811L70.7611 3.89499H71.291L70.5111 9.44498Z" fill="#C38D39"/>
<path d="M75.7111 6.20499C75.5411 6.40499 75.281 6.52496 74.951 6.55496L74.941 6.595C75.261 6.625 75.5011 6.725 75.6411 6.905C75.7911 7.085 75.8611 7.33501 75.8611 7.66501C75.8611 7.82501 75.8511 7.965 75.8311 8.095C75.7711 8.475 75.671 8.76501 75.541 8.97501C75.411 9.18501 75.2111 9.325 74.9611 9.405C74.7111 9.485 74.361 9.52499 73.921 9.52499C73.431 9.52499 73.0411 9.52498 72.7711 9.51498C72.5011 9.50498 72.221 9.485 71.931 9.465L72.7111 3.91501C72.9711 3.88501 73.211 3.87502 73.451 3.86502C73.691 3.85502 74.011 3.85501 74.421 3.85501C74.821 3.85501 75.1411 3.88499 75.3811 3.95499C75.6211 4.02499 75.801 4.135 75.911 4.285C76.031 4.445 76.0911 4.65497 76.0911 4.93497C76.0911 4.99497 76.081 5.12498 76.061 5.32498C76.001 5.70498 75.8811 5.99499 75.7111 6.20499ZM75.3511 7.595C75.3511 7.385 75.3111 7.22501 75.2311 7.10501C75.1511 6.98501 75.0211 6.90501 74.8611 6.85501C74.6911 6.80501 74.461 6.77499 74.161 6.77499H72.8311L72.5111 9.05496C72.7311 9.06496 73.1811 9.06497 73.8511 9.06497C74.1911 9.06497 74.4511 9.03501 74.6511 8.97501C74.8511 8.91501 74.9911 8.80499 75.1011 8.64499C75.2011 8.48499 75.271 8.26501 75.321 7.97501C75.341 7.78501 75.3511 7.665 75.3511 7.595ZM74.911 6.26498C75.091 6.20498 75.2311 6.10499 75.3311 5.95499C75.4311 5.80499 75.501 5.58497 75.541 5.31497C75.561 5.19497 75.561 5.08497 75.561 5.00497C75.561 4.81497 75.521 4.66497 75.441 4.56497C75.361 4.46497 75.241 4.39501 75.071 4.35501C74.901 4.31501 74.6711 4.29501 74.3811 4.29501C73.7711 4.29501 73.361 4.29496 73.171 4.30496L72.8811 6.38498H74.171C74.491 6.35498 74.731 6.32498 74.911 6.26498Z" fill="#C38D39"/>
<path d="M81.0211 7.35501C80.9411 7.89501 80.8211 8.31498 80.6511 8.63498C80.4811 8.95498 80.241 9.18498 79.951 9.32498C79.651 9.47498 79.271 9.54501 78.801 9.54501C78.191 9.54501 77.7411 9.42502 77.4611 9.17502C77.1811 8.92502 77.0311 8.52501 77.0311 7.97501C77.0311 7.77501 77.0511 7.56499 77.0811 7.33499L77.561 3.905H78.0911L77.6011 7.36502C77.5711 7.58502 77.551 7.795 77.551 7.965C77.551 8.375 77.6511 8.66499 77.8411 8.83499C78.0311 9.00499 78.3511 9.08499 78.7811 9.08499C79.1411 9.08499 79.441 9.02501 79.671 8.91501C79.901 8.80501 80.0811 8.62502 80.2111 8.36502C80.3411 8.11502 80.4411 7.77499 80.5011 7.33499L80.9811 3.905H81.5111L81.0211 7.35501Z" fill="#C38D39"/>
<path d="M82.6511 9.44498H82.1211L82.9011 3.89499H83.431L82.6511 9.44498Z" fill="#C38D39"/>
<path d="M87.7711 4.00497C88.0511 4.12497 88.2511 4.31499 88.3811 4.58499C88.5111 4.85499 88.5811 5.21501 88.5811 5.66501C88.5811 5.97501 88.5511 6.31497 88.5011 6.68497C88.3911 7.45497 88.241 8.03497 88.041 8.43497C87.841 8.83497 87.5811 9.11499 87.2411 9.27499C86.9111 9.43499 86.471 9.50497 85.911 9.50497C85.361 9.50497 84.751 9.48497 84.061 9.43497L84.8411 3.88498C85.4911 3.83498 86.101 3.81497 86.671 3.81497C87.131 3.82497 87.5011 3.88497 87.7711 4.00497ZM88.041 5.62497C88.041 5.28497 87.9911 5.01497 87.9011 4.81497C87.8111 4.61497 87.6611 4.485 87.4711 4.405C87.2711 4.325 87.011 4.285 86.671 4.285C86.341 4.285 85.9011 4.28496 85.3311 4.30496L84.661 9.04501C85.201 9.05501 85.611 9.06497 85.911 9.06497C86.351 9.06497 86.7111 8.99502 86.9711 8.86502C87.2311 8.73502 87.4411 8.495 87.5911 8.155C87.7411 7.815 87.8611 7.31501 87.9611 6.66501C88.0111 6.22501 88.041 5.88497 88.041 5.62497Z" fill="#C38D39"/>
<path d="M93.431 4.22501C93.721 4.51501 93.8711 4.99501 93.8711 5.66501C93.8711 5.97501 93.841 6.31497 93.791 6.68497C93.691 7.40497 93.5511 7.96497 93.3611 8.37497C93.1711 8.78497 92.9111 9.08497 92.5811 9.25497C92.2511 9.42497 91.831 9.52499 91.301 9.52499C90.661 9.52499 90.1911 9.37499 89.8911 9.08499C89.5911 8.79499 89.441 8.30497 89.441 7.62497C89.441 7.37497 89.4711 7.04497 89.5211 6.62497C89.6211 5.91497 89.761 5.35498 89.951 4.94498C90.141 4.53498 90.4011 4.23496 90.7311 4.05496C91.0611 3.87496 91.4911 3.785 92.0311 3.785C92.6711 3.795 93.131 3.94501 93.431 4.22501ZM91.0111 4.49496C90.7611 4.64496 90.561 4.89502 90.411 5.23502C90.261 5.57502 90.141 6.06498 90.051 6.69498C90.001 7.11498 89.9711 7.43501 89.9711 7.66501C89.9711 8.17501 90.0711 8.54497 90.2811 8.75497C90.4811 8.96497 90.821 9.07498 91.301 9.07498C91.711 9.07498 92.041 8.995 92.291 8.845C92.541 8.695 92.7411 8.445 92.8911 8.095C93.0411 7.745 93.1611 7.26499 93.2411 6.64499C93.3011 6.22499 93.3311 5.87502 93.3311 5.61502C93.3311 5.11502 93.2311 4.76497 93.0211 4.56497C92.8211 4.36497 92.4811 4.26498 92.0111 4.26498C91.5911 4.26498 91.2611 4.34496 91.0111 4.49496Z" fill="#C38D39"/>
<path d="M98.3811 6.44498C98.1911 6.66498 97.9011 6.80501 97.5311 6.85501L97.5211 6.89499C97.8111 6.97499 98.0011 7.24497 98.0811 7.68497L98.431 9.43497H97.8911L97.551 7.68497C97.511 7.45497 97.431 7.30499 97.321 7.20499C97.211 7.11499 97.0611 7.06496 96.8611 7.05496L96.171 7.04501C95.821 7.04501 95.5911 7.045 95.4611 7.035L95.1211 9.43497H94.6011L95.3811 3.88498C95.6611 3.85498 95.931 3.84499 96.191 3.83499C96.451 3.82499 96.7911 3.82498 97.2211 3.82498C97.7611 3.82498 98.161 3.91499 98.411 4.08499C98.661 4.25499 98.791 4.57498 98.791 5.01498C98.791 5.15498 98.7811 5.29502 98.7611 5.42502C98.7111 5.89502 98.5811 6.22498 98.3811 6.44498ZM97.5811 6.49496C97.7711 6.42496 97.9111 6.30498 98.0111 6.13498C98.1111 5.96498 98.1811 5.72501 98.2311 5.41501C98.2511 5.29501 98.2611 5.165 98.2611 5.035C98.2611 4.755 98.1811 4.55498 98.0211 4.44498C97.8611 4.33498 97.6011 4.27499 97.2211 4.27499C96.7511 4.27499 96.2911 4.27501 95.8511 4.29501L95.5311 6.60501H96.8411C97.1511 6.60501 97.4011 6.56496 97.5811 6.49496Z" fill="#C38D39"/>
<path d="M101.911 8.43497C101.901 8.46497 101.901 8.49501 101.901 8.54501C101.901 8.68501 101.941 8.79497 102.021 8.87497C102.101 8.95497 102.231 8.99496 102.391 8.99496H104.471L104.451 9.39499C103.971 9.42499 103.251 9.44498 102.281 9.44498C102.001 9.44498 101.771 9.36501 101.611 9.22501C101.451 9.07501 101.361 8.865 101.361 8.595C101.361 8.555 101.361 8.49501 101.381 8.41501L102.011 3.89499H102.541L101.911 8.43497Z" fill="#C38D39"/>
<path d="M105.801 9.44498H105.271L106.051 3.89499H106.581L105.801 9.44498Z" fill="#C38D39"/>
<path d="M111.591 4.36502H109.741L109.021 9.44498H108.491L109.211 4.36502H107.371L107.441 3.89499H111.651L111.591 4.36502Z" fill="#C38D39"/>
<path d="M112.851 4.93497L112.661 6.29501L115.141 6.30496L115.081 6.70499L112.601 6.715L112.361 8.43497C112.351 8.46497 112.351 8.51498 112.351 8.57498C112.351 8.86498 112.511 9.00497 112.841 9.00497H115.071L115.061 9.405C114.571 9.435 113.801 9.45499 112.771 9.45499C112.461 9.45499 112.221 9.37502 112.061 9.23502C111.901 9.08502 111.811 8.87502 111.811 8.61502C111.811 8.54502 111.811 8.48498 111.821 8.44498L112.331 4.79501C112.371 4.51501 112.481 4.29498 112.671 4.13498C112.861 3.97498 113.101 3.89499 113.411 3.89499C114.501 3.89499 115.291 3.91498 115.791 3.94498L115.721 4.345H113.481C113.111 4.335 112.891 4.53497 112.851 4.93497Z" fill="#C38D39"/>
</svg>
