<svg width="102" height="13" viewBox="0 0 102 13" fill="none" xmlns="http://www.w3.org/2000/svg">
<path d="M3.72998 6.42993L2.14001 5.78992C1.53001 5.53992 1.11997 5.21996 0.909973 4.82996C0.699973 4.43996 0.630012 3.93991 0.700012 3.34991C0.820012 2.46991 1.13 1.86995 1.63 1.56995C2.13 1.26995 2.90002 1.11993 3.96002 1.11993C5.01002 1.11993 5.92001 1.22996 6.70001 1.45996L6.52002 2.69995C5.79002 2.67995 4.91998 2.65991 3.91998 2.65991C3.42998 2.64991 3.08997 2.68996 2.90997 2.76996C2.72997 2.84996 2.61 3.07995 2.56 3.44995C2.52 3.71995 2.54 3.90996 2.63 4.01996C2.72 4.12996 2.91998 4.23992 3.22998 4.35992L4.73999 4.93994C5.37999 5.18994 5.8 5.49993 6 5.86993C6.2 6.23993 6.25999 6.75991 6.17999 7.40991C6.05999 8.32991 5.75998 8.93995 5.28998 9.25995C4.81998 9.57995 4.01 9.73993 2.88 9.73993C1.94 9.73993 0.98 9.62991 0 9.40991L0.190002 8.09991C1.91 8.13991 2.77999 8.15991 2.79999 8.15991C3.36999 8.15991 3.75002 8.10994 3.96002 7.99994C4.16002 7.88994 4.28998 7.65994 4.34998 7.30994C4.37998 7.03994 4.35997 6.84993 4.27997 6.73993C4.17997 6.63993 3.99998 6.52993 3.72998 6.42993Z" fill="#1D3E89"/>
<path d="M12.1399 8.17999L12.2599 9.31C11.5899 9.59 10.7099 9.72998 9.61991 9.72998C8.47991 9.72998 7.68993 9.45999 7.25993 8.92999C6.82993 8.39999 6.67991 7.57998 6.80991 6.47998C6.95991 5.31998 7.28991 4.52998 7.80991 4.09998C8.32991 3.66998 9.15989 3.46002 10.2899 3.46002C11.3399 3.46002 12.0599 3.62998 12.4399 3.97998C12.8199 4.32998 12.9599 4.84001 12.8599 5.51001C12.7799 6.07001 12.5499 6.46997 12.1699 6.71997C11.7899 6.95997 11.1999 7.10998 10.4099 7.16998L8.62992 7.29999C8.63992 7.68999 8.73991 7.95998 8.92991 8.09998C9.11991 8.23998 9.41994 8.31 9.83994 8.31C10.6199 8.31 11.3899 8.25999 12.1399 8.17999ZM8.73991 6.26001L10.1399 6.13C10.4599 6.11 10.6999 6.04 10.8499 5.94C10.9999 5.84 11.0899 5.63999 11.1199 5.35999C11.1399 5.08999 11.0899 4.93 10.9699 4.87C10.8399 4.81 10.5799 4.77998 10.1699 4.78998C9.6999 4.78998 9.36991 4.89003 9.17991 5.09003C8.98991 5.27003 8.83991 5.66001 8.73991 6.26001Z" fill="#1D3E89"/>
<path d="M15.2498 3.64001V4.71002C15.6898 4.28002 16.0997 3.96001 16.4697 3.76001C16.8497 3.56001 17.2397 3.46002 17.6597 3.46002C18.0997 3.46002 18.4398 3.56 18.6898 3.75C18.9398 3.94 19.0898 4.22001 19.1298 4.57001C19.8798 3.83001 20.6398 3.46002 21.3898 3.46002C21.9398 3.46002 22.3397 3.60997 22.5997 3.90997C22.8597 4.20997 22.9498 4.62002 22.8698 5.15002L22.2498 9.57001H20.4598L21.0198 5.63C21.0498 5.38 21.0298 5.20999 20.9598 5.10999C20.8898 5.00999 20.7598 4.96997 20.5798 4.96997C20.3798 4.96997 20.1598 5.02997 19.9398 5.15997C19.7098 5.28997 19.3998 5.53 19.0198 5.87L18.4998 9.57001H16.7698L17.3198 5.63C17.3598 5.39 17.3497 5.22 17.2797 5.12C17.2097 5.02 17.0898 4.96997 16.8898 4.96997C16.6798 4.96997 16.4597 5.02997 16.2297 5.15997C15.9997 5.28997 15.6998 5.51002 15.3198 5.83002L14.7997 9.58002H13.0098L13.8497 3.64001H15.2498Z" fill="#1D3E89"/>
<path d="M25.5002 3.64008L25.4802 4.79004C25.8402 4.43004 26.2402 4.12006 26.6802 3.87006C27.1302 3.62006 27.5602 3.50006 27.9902 3.50006C28.7002 3.50006 29.1802 3.75005 29.4502 4.24005C29.7202 4.73005 29.7702 5.56005 29.6102 6.74005C29.5402 7.25005 29.4402 7.69006 29.3102 8.06006C29.1802 8.43006 29.0402 8.72005 28.8802 8.93005C28.7202 9.15005 28.5202 9.32006 28.2902 9.44006C28.0602 9.56006 27.8302 9.65006 27.6002 9.69006C27.3702 9.73006 27.1002 9.75006 26.7802 9.75006C26.1902 9.75006 25.5902 9.70009 24.9902 9.59009C24.9902 9.97009 24.9602 10.3401 24.9002 10.7101L24.7102 11.8801H22.9102L24.0802 3.65009H25.5002V3.64008ZM25.2102 8.50006H26.1302C26.7502 8.50006 27.1502 8.40006 27.3402 8.19006C27.5302 7.98006 27.6802 7.49007 27.7802 6.70007C27.8802 5.94007 27.9002 5.46006 27.8302 5.25006C27.7702 5.04006 27.6002 4.93005 27.3302 4.93005C27.1202 4.93005 26.8502 5.02007 26.5302 5.20007C26.2102 5.38007 25.8802 5.61003 25.5602 5.91003L25.2102 8.50006Z" fill="#1D3E89"/>
<path d="M35.18 3.47003L34.78 5.12006H34.34C34.09 5.12006 33.82 5.17003 33.54 5.28003C33.26 5.39003 32.86 5.58004 32.33 5.85004L31.82 9.58008H30.02L30.86 3.64008H32.26V4.76007C33.18 3.90007 34.03 3.47003 34.81 3.47003H35.18Z" fill="#1D3E89"/>
<path d="M40.2102 8.17999L40.3302 9.31C39.6602 9.59 38.7802 9.72998 37.6902 9.72998C36.5502 9.72998 35.7602 9.45999 35.3302 8.92999C34.9002 8.39999 34.7502 7.57998 34.8802 6.47998C35.0302 5.31998 35.3602 4.52998 35.8802 4.09998C36.4002 3.66998 37.2302 3.46002 38.3602 3.46002C39.4102 3.46002 40.1302 3.62998 40.5102 3.97998C40.8902 4.32998 41.0302 4.84001 40.9302 5.51001C40.8502 6.07001 40.6202 6.46997 40.2402 6.71997C39.8602 6.95997 39.2702 7.10998 38.4802 7.16998L36.7002 7.29999C36.7102 7.68999 36.8102 7.95998 37.0002 8.09998C37.1902 8.23998 37.4902 8.31 37.9102 8.31C38.6902 8.31 39.4602 8.25999 40.2102 8.17999ZM36.8102 6.26001L38.2102 6.13C38.5302 6.11 38.7702 6.04 38.9202 5.94C39.0702 5.84 39.1602 5.63999 39.1902 5.35999C39.2102 5.08999 39.1602 4.93 39.0402 4.87C38.9102 4.81 38.6502 4.77998 38.2402 4.78998C37.7702 4.78998 37.4402 4.89003 37.2502 5.09003C37.0602 5.27003 36.9202 5.66001 36.8102 6.26001Z" fill="#1D3E89"/>
<path d="M47.8653 0.454987H98.9454C99.9454 0.454987 100.705 1.30504 100.555 2.25504L99.0753 11.235C98.9553 11.995 98.2653 12.545 97.4653 12.545H46.5953C45.9153 12.545 45.3053 12.155 45.0453 11.565L43.0654 7.11502C42.8954 6.73502 42.9353 6.29504 43.1753 5.94504L46.4553 1.18503C46.7753 0.735028 47.3053 0.454987 47.8653 0.454987Z" fill="#E20613"/>
<path d="M45.1653 7.38504C45.4083 7.38504 45.6053 7.18804 45.6053 6.94504C45.6053 6.70203 45.4083 6.50504 45.1653 6.50504C44.9223 6.50504 44.7253 6.70203 44.7253 6.94504C44.7253 7.18804 44.9223 7.38504 45.1653 7.38504Z" fill="white"/>
<path d="M51.6759 4.43789C51.9978 4.43789 52.26 4.45087 52.4625 4.47683C52.665 4.4976 52.8779 4.53395 53.1012 4.58587L53.0077 4.96751C52.7844 4.94155 52.5793 4.92338 52.3924 4.91299C52.2107 4.90261 51.9718 4.89742 51.6759 4.89742C51.276 4.89742 50.9541 4.96751 50.7101 5.10771C50.466 5.2479 50.2713 5.48675 50.1259 5.82426C49.9857 6.15657 49.8715 6.62908 49.7832 7.24179C49.7313 7.60006 49.7053 7.91939 49.7053 8.19978C49.7053 8.68787 49.8014 9.03316 49.9935 9.23567C50.1908 9.43817 50.5128 9.53942 50.9593 9.53942C51.5149 9.54462 52.016 9.51606 52.4625 9.45375L52.5015 9.83539C52.273 9.89251 52.0419 9.93405 51.8083 9.96001C51.5746 9.98597 51.2916 9.99895 50.9593 9.99895C50.3362 9.99895 49.8845 9.85616 49.6041 9.57058C49.3237 9.285 49.1835 8.82287 49.1835 8.18421C49.1835 7.87266 49.2095 7.54294 49.2614 7.19505C49.3549 6.50966 49.4925 5.96705 49.6742 5.56724C49.8611 5.16742 50.1129 4.87924 50.4297 4.7027C50.7516 4.52616 51.167 4.43789 51.6759 4.43789ZM55.9965 4.43789C56.6196 4.43789 57.0713 4.57808 57.3517 4.85847C57.6373 5.13367 57.7801 5.59839 57.7801 6.25263C57.7801 6.55379 57.7541 6.88351 57.7022 7.24179C57.6087 7.93757 57.4685 8.48537 57.2816 8.88518C57.0947 9.2798 56.8428 9.56538 56.5261 9.74193C56.2094 9.91328 55.7966 9.99895 55.2877 9.99895C54.6646 9.99895 54.2077 9.85876 53.9169 9.57837C53.6313 9.29278 53.4885 8.82028 53.4885 8.16084C53.4885 7.92199 53.5145 7.60006 53.5664 7.19505C53.6599 6.50446 53.7975 5.96186 53.9792 5.56724C54.1661 5.16742 54.418 4.87924 54.7347 4.7027C55.0566 4.52616 55.4772 4.43789 55.9965 4.43789ZM55.9809 4.88963C55.5759 4.88963 55.2514 4.96232 55.0073 5.10771C54.7685 5.2531 54.5763 5.49454 54.431 5.83205C54.2908 6.16436 54.1765 6.63427 54.0883 7.24179C54.0363 7.64679 54.0104 7.96093 54.0104 8.18421C54.0104 8.68268 54.109 9.03576 54.3063 9.24346C54.5037 9.44596 54.8334 9.54721 55.2955 9.54721C55.6901 9.54721 56.0069 9.47452 56.2457 9.32913C56.4897 9.17855 56.6845 8.9371 56.8298 8.60479C56.9752 8.26728 57.0895 7.79737 57.1725 7.19505C57.2297 6.78485 57.2582 6.45254 57.2582 6.19811C57.2582 5.71522 57.1596 5.37771 56.9623 5.1856C56.7649 4.98828 56.4378 4.88963 55.9809 4.88963ZM62.5861 9.70298C62.5705 9.83799 62.4952 9.90549 62.3602 9.90549H61.8462C61.7423 9.90549 61.6671 9.84577 61.6203 9.72635L60.0938 5.63733C59.9847 5.34137 59.9146 5.13108 59.8835 5.00646H59.7277C59.7121 5.22973 59.6887 5.453 59.6576 5.67628L59.0735 9.90549H58.5594L59.2837 4.73386C59.2941 4.66116 59.3175 4.60924 59.3538 4.57808C59.3954 4.54693 59.4499 4.53135 59.5174 4.53135H60.0081C60.1223 4.53135 60.2002 4.59107 60.2417 4.71049L61.7294 8.69825C61.8384 9.00461 61.9215 9.24865 61.9786 9.43038H62.1499C62.1655 9.26423 62.1941 9.01499 62.2356 8.68268L62.812 4.53135H63.3182L62.5861 9.70298ZM66.5212 4.46126C66.9626 4.46126 67.3157 4.52097 67.5805 4.64039C67.8505 4.75463 68.0478 4.94155 68.1724 5.20117C68.3022 5.46079 68.3671 5.81128 68.3671 6.25263C68.3671 6.55379 68.3412 6.88351 68.2893 7.24179C68.1854 7.9843 68.0374 8.55027 67.8453 8.9397C67.6532 9.32913 67.3962 9.59914 67.0742 9.74972C66.7523 9.90029 66.3239 9.97558 65.7891 9.97558C65.2595 9.97558 64.6624 9.95222 63.9977 9.90549L64.7532 4.53135C65.3867 4.48462 65.976 4.46126 66.5212 4.46126ZM67.7596 7.19505C67.8167 6.78485 67.8453 6.45514 67.8453 6.2059C67.8453 5.87359 67.7986 5.61397 67.7051 5.42704C67.6168 5.23492 67.4766 5.09992 67.2845 5.02203C67.0976 4.94415 66.8406 4.90521 66.5134 4.90521C66.1967 4.90521 65.7631 4.9104 65.2128 4.92078L64.5663 9.50827C65.0855 9.51865 65.4905 9.52385 65.7813 9.52385C66.2123 9.52385 66.5524 9.45894 66.8016 9.32913C67.0561 9.19932 67.256 8.97086 67.4014 8.64373C67.5519 8.31142 67.6714 7.82853 67.7596 7.19505ZM71.7562 4.43789C72.3793 4.43789 72.831 4.57808 73.1114 4.85847C73.397 5.13367 73.5398 5.59839 73.5398 6.25263C73.5398 6.55379 73.5138 6.88351 73.4619 7.24179C73.3685 7.93757 73.2283 8.48537 73.0413 8.88518C72.8544 9.2798 72.6026 9.56538 72.2858 9.74193C71.9691 9.91328 71.5563 9.99895 71.0475 9.99895C70.4244 9.99895 69.9674 9.85876 69.6767 9.57837C69.3911 9.29278 69.2483 8.82028 69.2483 8.16084C69.2483 7.92199 69.2742 7.60006 69.3262 7.19505C69.4196 6.50446 69.5572 5.96186 69.739 5.56724C69.9259 5.16742 70.1777 4.87924 70.4945 4.7027C70.8164 4.52616 71.237 4.43789 71.7562 4.43789ZM71.7406 4.88963C71.3356 4.88963 71.0111 4.96232 70.7671 5.10771C70.5282 5.2531 70.3361 5.49454 70.1907 5.83205C70.0505 6.16436 69.9363 6.63427 69.848 7.24179C69.7961 7.64679 69.7701 7.96093 69.7701 8.18421C69.7701 8.68268 69.8688 9.03576 70.0661 9.24346C70.2634 9.44596 70.5931 9.54721 71.0552 9.54721C71.4499 9.54721 71.7666 9.47452 72.0054 9.32913C72.2495 9.17855 72.4442 8.9371 72.5896 8.60479C72.735 8.26728 72.8492 7.79737 72.9323 7.19505C72.9894 6.78485 73.018 6.45254 73.018 6.19811C73.018 5.71522 72.9193 5.37771 72.722 5.1856C72.5247 4.98828 72.1976 4.88963 71.7406 4.88963ZM80.0438 4.53135C80.1165 4.53135 80.171 4.55472 80.2073 4.60145C80.2437 4.64299 80.2593 4.70011 80.2541 4.7728L79.7556 9.90549H79.2493L79.74 4.95973H79.5765L77.5826 9.18115C77.541 9.29019 77.4631 9.34471 77.3489 9.34471H76.8349C76.7726 9.34471 76.7232 9.32913 76.6869 9.29798C76.6505 9.26163 76.6272 9.2149 76.6168 9.15778L75.7834 4.95973H75.6121L74.7242 9.90549H74.2101L75.1525 4.74943C75.1681 4.67674 75.1941 4.62222 75.2304 4.58587C75.272 4.54953 75.3265 4.53135 75.394 4.53135H75.9937C76.1131 4.53135 76.1806 4.59366 76.1962 4.71828L76.905 8.23094C76.9361 8.39709 76.9569 8.52431 76.9673 8.61258L77.0296 8.96307H77.2009C77.3204 8.67748 77.4294 8.43085 77.5281 8.22315L79.1948 4.7027C79.2415 4.58847 79.322 4.53135 79.4363 4.53135H80.0438ZM81.6026 9.90549H81.0885L81.844 4.53135H82.3581L81.6026 9.90549ZM83.3862 3.21508L81.8752 4.21202L81.7038 3.97836L83.1369 2.83344L83.3862 3.21508ZM87.0624 9.70298C87.0468 9.83799 86.9715 9.90549 86.8365 9.90549H86.3225C86.2186 9.90549 86.1433 9.84577 86.0966 9.72635L84.57 5.63733C84.461 5.34137 84.3909 5.13108 84.3598 5.00646H84.204C84.1884 5.22973 84.165 5.453 84.1339 5.67628L83.5497 9.90549H83.0357L83.76 4.73386C83.7704 4.66116 83.7938 4.60924 83.8301 4.57808C83.8717 4.54693 83.9262 4.53135 83.9937 4.53135H84.4844C84.5986 4.53135 84.6765 4.59107 84.718 4.71049L86.2056 8.69825C86.3147 9.00461 86.3978 9.24865 86.4549 9.43038H86.6262C86.6418 9.26423 86.6704 9.01499 86.7119 8.68268L87.2883 4.53135H87.7945L87.0624 9.70298ZM88.9881 9.90549H88.474L89.2295 4.53135H89.7436L88.9881 9.90549ZM93.0303 4.43789C93.6534 4.43789 94.1052 4.57808 94.3856 4.85847C94.6711 5.13367 94.8139 5.59839 94.8139 6.25263C94.8139 6.55379 94.788 6.88351 94.7361 7.24179C94.6426 7.93757 94.5024 8.48537 94.3155 8.88518C94.1285 9.2798 93.8767 9.56538 93.56 9.74193C93.2432 9.91328 92.8304 9.99895 92.3216 9.99895C91.6985 9.99895 91.2416 9.85876 90.9508 9.57837C90.6652 9.29278 90.5224 8.82028 90.5224 8.16084C90.5224 7.92199 90.5484 7.60006 90.6003 7.19505C90.6938 6.50446 90.8314 5.96186 91.0131 5.56724C91.2 5.16742 91.4519 4.87924 91.7686 4.7027C92.0905 4.52616 92.5111 4.43789 93.0303 4.43789ZM93.0148 4.88963C92.6098 4.88963 92.2852 4.96232 92.0412 5.10771C91.8023 5.2531 91.6102 5.49454 91.4648 5.83205C91.3246 6.16436 91.2104 6.63427 91.1221 7.24179C91.0702 7.64679 91.0443 7.96093 91.0443 8.18421C91.0443 8.68268 91.1429 9.03576 91.3402 9.24346C91.5375 9.44596 91.8673 9.54721 92.3294 9.54721C92.724 9.54721 93.0407 9.47452 93.2796 9.32913C93.5236 9.17855 93.7183 8.9371 93.8637 8.60479C94.0091 8.26728 94.1233 7.79737 94.2064 7.19505C94.2635 6.78485 94.2921 6.45254 94.2921 6.19811C94.2921 5.71522 94.1934 5.37771 93.9961 5.1856C93.7988 4.98828 93.4717 4.88963 93.0148 4.88963Z" fill="#EDEDED"/>
</svg>
