<svg width="84" height="13" viewBox="0 0 84 13" fill="none" xmlns="http://www.w3.org/2000/svg">
<path d="M3.80005 6.42502L2.18994 5.77499C1.56994 5.52499 1.15995 5.19501 0.949951 4.79501C0.739951 4.39501 0.66999 3.89501 0.73999 3.29501C0.85999 2.39501 1.18005 1.79496 1.68005 1.49496C2.19005 1.18496 2.97004 1.035 4.04004 1.035C5.10004 1.035 6.01994 1.14497 6.80994 1.37497L6.63 2.63498C5.89001 2.61498 5.00999 2.595 3.98999 2.595C3.48999 2.585 3.14997 2.625 2.96997 2.715C2.78997 2.805 2.66999 3.035 2.60999 3.405C2.56999 3.685 2.59005 3.87502 2.68005 3.98502C2.77005 4.09502 2.97004 4.21499 3.29004 4.33499L4.81995 4.92502C5.46995 5.17502 5.89998 5.49497 6.09998 5.87497C6.30998 6.25497 6.37003 6.77497 6.28003 7.43497C6.16003 8.36497 5.85 8.98497 5.37 9.31497C4.89 9.63497 4.07004 9.79501 2.92004 9.79501C1.97004 9.79501 0.99 9.685 0 9.465L0.199951 8.13498C1.93995 8.17498 2.82998 8.19498 2.84998 8.19498C3.42998 8.19498 3.82002 8.145 4.02002 8.035C4.23002 7.925 4.36003 7.69499 4.41003 7.33499C4.44003 7.05499 4.41997 6.86498 4.33997 6.76498C4.25997 6.64498 4.08005 6.53502 3.80005 6.42502Z" fill="#1D3E89"/>
<path d="M12.3299 8.20499L12.4499 9.35501C11.7699 9.64501 10.88 9.785 9.78001 9.785C8.62001 9.785 7.82 9.51501 7.39 8.97501C6.95 8.43501 6.80004 7.61496 6.93004 6.49496C7.08004 5.32496 7.40992 4.51499 7.93992 4.08499C8.46992 3.65499 9.29993 3.43497 10.4499 3.43497C11.5199 3.43497 12.24 3.615 12.63 3.965C13.01 4.315 13.1499 4.83498 13.0599 5.51498C12.9799 6.08498 12.74 6.49502 12.36 6.73502C11.97 6.97502 11.3799 7.13497 10.5699 7.18497L8.77 7.31497C8.78 7.71497 8.87993 7.98497 9.06993 8.12497C9.25993 8.26497 9.56997 8.33499 9.98997 8.33499C10.79 8.33499 11.5699 8.29499 12.3299 8.20499ZM8.87999 6.25497L10.3 6.12497C10.63 6.10497 10.87 6.03502 11.02 5.92502C11.17 5.81502 11.26 5.62499 11.3 5.33499C11.32 5.06499 11.27 4.89499 11.15 4.83499C11.02 4.76499 10.7499 4.74496 10.3399 4.74496C9.85995 4.74496 9.52995 4.84501 9.33995 5.04501C9.13995 5.25501 8.98999 5.65497 8.87999 6.25497Z" fill="#1D3E89"/>
<path d="M15.49 3.60501V4.69498C15.93 4.25498 16.35 3.93502 16.73 3.73502C17.11 3.53502 17.5101 3.43497 17.9301 3.43497C18.3701 3.43497 18.72 3.53501 18.98 3.72501C19.23 3.92501 19.38 4.19502 19.42 4.55502C20.18 3.80502 20.95 3.43497 21.71 3.43497C22.27 3.43497 22.6799 3.58499 22.9399 3.89499C23.1999 4.20499 23.29 4.61499 23.22 5.14499L22.59 9.63498H20.78L21.35 5.63498C21.38 5.38498 21.36 5.20501 21.29 5.10501C21.22 5.00501 21.09 4.95499 20.91 4.95499C20.7 4.95499 20.49 5.025 20.26 5.155C20.03 5.285 19.7199 5.52497 19.3199 5.87497L18.79 9.62497H17.04L17.59 5.62497C17.63 5.38497 17.62 5.20501 17.55 5.10501C17.48 5.00501 17.35 4.95499 17.16 4.95499C16.95 4.95499 16.72 5.01499 16.49 5.14499C16.26 5.27499 15.9499 5.49498 15.5699 5.82498L15.04 9.62497H13.23L14.08 3.595H15.49V3.60501Z" fill="#1D3E89"/>
<path d="M25.88 3.60501L25.86 4.76498C26.22 4.39498 26.63 4.08499 27.08 3.83499C27.53 3.58499 27.98 3.45499 28.41 3.45499C29.12 3.45499 29.62 3.70499 29.89 4.20499C30.16 4.70499 30.21 5.54502 30.05 6.73502C29.98 7.25502 29.88 7.70498 29.75 8.07498C29.62 8.44498 29.4799 8.745 29.3099 8.965C29.1499 9.185 28.95 9.35502 28.71 9.48502C28.48 9.61502 28.24 9.69502 28.01 9.73502C27.78 9.77502 27.5001 9.79501 27.1801 9.79501C26.5801 9.79501 25.98 9.74498 25.37 9.63498C25.37 10.015 25.34 10.395 25.28 10.775L25.08 11.965H23.26L24.4399 3.61502H25.88V3.60501ZM25.58 8.535H26.52C27.14 8.535 27.55 8.43501 27.75 8.22501C27.94 8.01501 28.09 7.515 28.2 6.715C28.3 5.945 28.32 5.45496 28.26 5.24496C28.2 5.02496 28.03 4.92502 27.75 4.92502C27.54 4.92502 27.2699 5.01498 26.9399 5.19498C26.6099 5.37498 26.28 5.61501 25.95 5.91501L25.58 8.535Z" fill="#1D3E89"/>
<path d="M35.6899 3.43497L35.28 5.10501H34.84C34.59 5.10501 34.32 5.16499 34.03 5.27499C33.75 5.38499 33.34 5.57501 32.8 5.85501L32.28 9.63498H30.46L31.3099 3.60501H32.73V4.74496C33.66 3.87496 34.5199 3.43497 35.3199 3.43497H35.6899Z" fill="#1D3E89"/>
<path d="M40.79 8.20499L40.91 9.35501C40.23 9.64501 39.34 9.785 38.24 9.785C37.08 9.785 36.28 9.51501 35.85 8.97501C35.41 8.43501 35.26 7.61496 35.39 6.49496C35.54 5.32496 35.87 4.51499 36.4 4.08499C36.93 3.65499 37.76 3.43497 38.91 3.43497C39.98 3.43497 40.6999 3.615 41.0899 3.965C41.4699 4.315 41.61 4.83498 41.52 5.51498C41.44 6.08498 41.1999 6.49502 40.8199 6.73502C40.4299 6.97502 39.84 7.13497 39.03 7.18497L37.23 7.31497C37.24 7.71497 37.34 7.98497 37.53 8.12497C37.72 8.26497 38.0299 8.33499 38.4499 8.33499C39.2499 8.33499 40.03 8.29499 40.79 8.20499ZM37.3399 6.25497L38.76 6.12497C39.09 6.10497 39.33 6.03502 39.48 5.92502C39.63 5.81502 39.72 5.62499 39.76 5.33499C39.78 5.06499 39.73 4.89499 39.61 4.83499C39.48 4.76499 39.21 4.74496 38.8 4.74496C38.32 4.74496 37.99 4.84501 37.8 5.04501C37.6 5.25501 37.4499 5.65497 37.3399 6.25497Z" fill="#1D3E89"/>
<path d="M45.0231 7.06506C45.2717 7.06506 45.4732 6.86358 45.4732 6.61505C45.4732 6.36652 45.2717 6.16504 45.0231 6.16504C44.7746 6.16504 44.5732 6.36652 44.5732 6.61505C44.5732 6.86358 44.7746 7.06506 45.0231 7.06506Z" fill="#33B5B3"/>
<path d="M82.313 0.844971C82.633 0.844971 82.9429 0.984985 83.1529 1.23499C83.3629 1.48499 83.4529 1.805 83.4029 2.125L81.973 11.225C81.883 11.765 81.4229 12.155 80.8829 12.155H47.063C46.593 12.155 46.173 11.875 45.993 11.445L44.083 6.935C43.983 6.695 44.0029 6.41501 44.1529 6.19501L47.333 1.36499C47.553 1.03499 47.913 0.844971 48.303 0.844971H82.313ZM82.313 0.375H48.293C47.743 0.375 47.233 0.65498 46.933 1.10498L43.753 5.935C43.523 6.285 43.4829 6.72499 43.6429 7.11499L45.553 11.625C45.813 12.225 46.403 12.625 47.053 12.625H80.873C81.653 12.625 82.303 12.065 82.433 11.295L83.863 2.19501C84.013 1.24501 83.273 0.375 82.313 0.375Z" fill="#33B5B3"/>
<path d="M51.106 4.09307C51.6551 4.09307 52.0507 4.18458 52.2929 4.3676C52.5352 4.55062 52.6563 4.86283 52.6563 5.30423C52.6563 5.43881 52.6428 5.60837 52.6159 5.81292C52.5513 6.27047 52.4464 6.62036 52.301 6.86259C52.1611 7.09944 51.9646 7.26631 51.7116 7.3632C51.464 7.45471 51.1248 7.50047 50.6942 7.50047C50.2474 7.50047 49.7926 7.47894 49.3296 7.43587L49.0067 9.729H48.4737L49.257 4.15767C49.5423 4.13075 49.8087 4.1146 50.0563 4.10922C50.3039 4.09846 50.6538 4.09307 51.106 4.09307ZM52.0911 5.77255C52.1126 5.62721 52.1234 5.48725 52.1234 5.35268C52.1234 5.04047 52.0453 4.82784 51.8892 4.7148C51.7331 4.60176 51.4693 4.54524 51.0979 4.54524C50.4089 4.54524 49.9541 4.54793 49.7334 4.55331L49.3862 7.04023H50.6861C51.0037 7.03485 51.254 6.99717 51.437 6.92719C51.6201 6.85183 51.7627 6.72533 51.865 6.54769C51.9673 6.37005 52.0426 6.11167 52.0911 5.77255ZM55.8131 4.085C56.2706 4.085 56.6366 4.1469 56.9112 4.27071C57.1911 4.38913 57.3956 4.58292 57.5248 4.85207C57.6594 5.12121 57.7267 5.48456 57.7267 5.94211C57.7267 6.25432 57.6998 6.59614 57.6459 6.96756C57.5383 7.73732 57.3849 8.32406 57.1857 8.72778C56.9865 9.1315 56.7201 9.41141 56.3863 9.56752C56.0526 9.72362 55.6085 9.80167 55.0541 9.80167C54.505 9.80167 53.886 9.77745 53.197 9.729L53.9802 4.15767C54.6369 4.10922 55.2479 4.085 55.8131 4.085ZM57.0969 6.91911C57.1561 6.49386 57.1857 6.15204 57.1857 5.89366C57.1857 5.54916 57.1373 5.28001 57.0404 5.08622C56.9489 4.88706 56.8035 4.7471 56.6044 4.66635C56.4106 4.58561 56.1441 4.54524 55.805 4.54524C55.4766 4.54524 55.0272 4.55062 54.4566 4.56139L53.7864 9.31721C54.3247 9.32798 54.7445 9.33336 55.046 9.33336C55.4928 9.33336 55.8454 9.26607 56.1037 9.1315C56.3675 8.99692 56.5747 8.76008 56.7255 8.42095C56.8816 8.07644 57.0054 7.57583 57.0969 6.91911ZM60.6522 9.58366C60.6145 9.68056 60.5419 9.729 60.4342 9.729H59.8609C59.8125 9.729 59.7694 9.71286 59.7317 9.68056C59.6994 9.64826 59.6779 9.60789 59.6671 9.55944L58.6417 4.15767H59.1827L59.982 8.7197L60.0143 8.92156C60.0466 9.11535 60.0682 9.24992 60.0789 9.32528H60.2889C60.3858 9.08843 60.4746 8.87581 60.5553 8.68741L62.6304 4.15767H63.1876L60.6522 9.58366ZM65.5762 8.71163C65.5708 8.73854 65.5681 8.77622 65.5681 8.82467C65.5681 8.96463 65.6085 9.07767 65.6892 9.1638C65.7754 9.24454 65.8992 9.28491 66.0607 9.28491H68.1519L68.1358 9.68863C67.6567 9.72093 66.93 9.73708 65.9557 9.73708C65.6704 9.73708 65.4443 9.66172 65.2775 9.511C65.116 9.36027 65.0352 9.15034 65.0352 8.88119C65.0352 8.84351 65.0406 8.78161 65.0514 8.69548L65.6812 4.15767H66.2141L65.5762 8.71163ZM69.5396 9.729H69.0067L69.7899 4.15767H70.3228L69.5396 9.729ZM75.4097 4.62598H73.5526L72.834 9.729H72.301L73.0197 4.62598H71.1706L71.2433 4.15767H75.4743L75.4097 4.62598ZM77.3747 4.60176C76.9925 4.60176 76.7772 4.80093 76.7287 5.19927L76.543 6.56384L79.0299 6.57191L78.9734 6.97563L76.4865 6.98371L76.2443 8.71163C76.2389 8.74393 76.2362 8.78968 76.2362 8.84889C76.2362 9.13957 76.4004 9.28491 76.7287 9.28491H78.9653L78.9573 9.68863C78.462 9.72093 77.695 9.73708 76.656 9.73708C76.3438 9.73708 76.1043 9.66172 75.9374 9.511C75.7759 9.36027 75.6952 9.15303 75.6952 8.88927C75.6952 8.81391 75.6979 8.75738 75.7033 8.7197L76.22 5.05393C76.2577 4.77401 76.3708 4.55331 76.5592 4.39183C76.7476 4.23034 76.9952 4.14959 77.302 4.14959C78.3947 4.14959 79.1914 4.16574 79.692 4.19804L79.6194 4.60176H77.3747Z" fill="#33B5B3"/>
</svg>
