<svg width="69" height="13" viewBox="0 0 69 13" fill="none" xmlns="http://www.w3.org/2000/svg">
<path d="M3.80005 6.42493L2.18994 5.7749C1.56994 5.5249 1.15995 5.19492 0.949951 4.79492C0.739951 4.39492 0.66999 3.89492 0.73999 3.29492C0.85999 2.39492 1.18005 1.79487 1.68005 1.49487C2.18005 1.19487 2.97004 1.03491 4.04004 1.03491C5.10004 1.03491 6.01994 1.14488 6.80994 1.37488L6.63 2.63489C5.89001 2.61489 5.00999 2.59491 3.98999 2.59491C3.48999 2.58491 3.14997 2.6249 2.96997 2.7149C2.78997 2.8049 2.66999 3.03491 2.60999 3.40491C2.56999 3.68491 2.59005 3.87492 2.68005 3.98492C2.77005 4.09492 2.97004 4.2149 3.29004 4.3349L4.81995 4.92493C5.46995 5.17493 5.89998 5.49488 6.09998 5.87488C6.30998 6.25488 6.37003 6.77488 6.28003 7.43488C6.16003 8.36488 5.85 8.98488 5.37 9.31488C4.89 9.63488 4.07004 9.79492 2.92004 9.79492C1.97004 9.79492 0.99 9.68491 0 9.4649L0.199951 8.13489C1.93995 8.17489 2.82998 8.19489 2.84998 8.19489C3.42998 8.19489 3.82002 8.14491 4.02002 8.03491C4.23002 7.92491 4.36003 7.6949 4.41003 7.3349C4.44003 7.0549 4.41997 6.86489 4.33997 6.76489C4.25997 6.64489 4.08005 6.53493 3.80005 6.42493Z" fill="#1D3E89"/>
<path d="M12.3301 8.20508L12.4501 9.3551C11.7701 9.6451 10.8801 9.7851 9.78015 9.7851C8.62015 9.7851 7.82013 9.5151 7.39013 8.9751C6.96013 8.4351 6.80017 7.61506 6.93017 6.49506C7.08017 5.32506 7.41006 4.51508 7.94006 4.08508C8.47006 3.65508 9.30007 3.43506 10.4501 3.43506C11.5201 3.43506 12.2401 3.61509 12.6301 3.96509C13.0101 4.31509 13.1501 4.83508 13.0601 5.51508C12.9801 6.08508 12.7401 6.49511 12.3601 6.73511C11.9701 6.97511 11.3801 7.13506 10.5701 7.18506L8.77014 7.31506C8.78014 7.71506 8.88006 7.98506 9.07006 8.12506C9.26006 8.26506 9.57011 8.33508 9.99011 8.33508C10.7901 8.33508 11.5701 8.29508 12.3301 8.20508ZM8.88012 6.25507L10.3002 6.12506C10.6302 6.10506 10.8701 6.03511 11.0201 5.92511C11.1701 5.81511 11.2602 5.62508 11.3002 5.33508C11.3202 5.06508 11.2701 4.89508 11.1501 4.83508C11.0201 4.76508 10.7501 4.74506 10.3401 4.74506C9.86008 4.74506 9.53008 4.8451 9.34008 5.0451C9.14008 5.25511 8.99012 5.65507 8.88012 6.25507Z" fill="#1D3E89"/>
<path d="M15.49 3.6051V4.69507C15.93 4.25507 16.35 3.93511 16.73 3.73511C17.11 3.53511 17.5101 3.43506 17.9301 3.43506C18.3701 3.43506 18.72 3.5351 18.98 3.7251C19.23 3.9251 19.38 4.19511 19.42 4.55511C20.18 3.80511 20.95 3.43506 21.71 3.43506C22.27 3.43506 22.6799 3.58508 22.9399 3.89508C23.1999 4.20508 23.29 4.61508 23.22 5.14508L22.59 9.63507H20.78L21.35 5.63507C21.38 5.38507 21.36 5.2051 21.29 5.1051C21.22 5.0051 21.09 4.95508 20.91 4.95508C20.7 4.95508 20.49 5.02509 20.26 5.15509C20.03 5.28509 19.7199 5.52506 19.3199 5.87506L18.79 9.62506H17.04L17.59 5.62506C17.63 5.38506 17.62 5.2051 17.55 5.1051C17.48 5.0051 17.35 4.95508 17.16 4.95508C16.95 4.95508 16.72 5.01508 16.49 5.14508C16.26 5.27508 15.9499 5.49507 15.5699 5.82507L15.04 9.62506H13.23L14.08 3.59509H15.49V3.6051Z" fill="#1D3E89"/>
<path d="M25.8802 3.6051L25.8602 4.76508C26.2202 4.39508 26.6302 4.08508 27.0802 3.83508C27.5302 3.58508 27.9803 3.45508 28.4103 3.45508C29.1203 3.45508 29.6203 3.70508 29.8903 4.20508C30.1603 4.70508 30.2103 5.54511 30.0503 6.73511C29.9803 7.25511 29.8802 7.70507 29.7502 8.07507C29.6202 8.44507 29.4802 8.74509 29.3102 8.96509C29.1502 9.18509 28.9502 9.35511 28.7102 9.48511C28.4802 9.61511 28.2403 9.69511 28.0103 9.73511C27.7803 9.77511 27.5003 9.7951 27.1803 9.7951C26.5803 9.7951 25.9802 9.74507 25.3702 9.63507C25.3702 10.0151 25.3403 10.3951 25.2803 10.7751L25.0802 11.9651H23.2603L24.4402 3.61511H25.8802V3.6051ZM25.5802 8.5351H26.5203C27.1403 8.5351 27.5502 8.4351 27.7502 8.2251C27.9402 8.0151 28.0902 7.51509 28.2002 6.71509C28.3002 5.94509 28.3203 5.45506 28.2603 5.24506C28.2003 5.02506 28.0302 4.92511 27.7502 4.92511C27.5402 4.92511 27.2702 5.01507 26.9402 5.19507C26.6102 5.37507 26.2802 5.6151 25.9502 5.9151L25.5802 8.5351Z" fill="#1D3E89"/>
<path d="M35.6899 3.43506L35.28 5.1051H34.84C34.59 5.1051 34.32 5.16509 34.03 5.27509C33.75 5.38509 33.34 5.5751 32.8 5.8551L32.28 9.63507H30.46L31.3099 3.6051H32.73V4.74506C33.66 3.87506 34.5199 3.43506 35.3199 3.43506H35.6899Z" fill="#1D3E89"/>
<path d="M40.7899 8.20508L40.9099 9.3551C40.2299 9.6451 39.3399 9.7851 38.2399 9.7851C37.0799 9.7851 36.2798 9.5151 35.8498 8.9751C35.4098 8.4351 35.2599 7.61506 35.3899 6.49506C35.5399 5.32506 35.8699 4.51508 36.3999 4.08508C36.9299 3.65508 37.7599 3.43506 38.9099 3.43506C39.9799 3.43506 40.6998 3.61509 41.0898 3.96509C41.4698 4.31509 41.6099 4.83508 41.5199 5.51508C41.4399 6.08508 41.1998 6.49511 40.8198 6.73511C40.4298 6.97511 39.8399 7.13506 39.0299 7.18506L37.2298 7.31506C37.2398 7.71506 37.3399 7.98506 37.5299 8.12506C37.7199 8.26506 38.0298 8.33508 38.4498 8.33508C39.2498 8.33508 40.0299 8.29508 40.7899 8.20508ZM37.3398 6.25507L38.7599 6.12506C39.0899 6.10506 39.3298 6.03511 39.4798 5.92511C39.6298 5.81511 39.7199 5.62508 39.7599 5.33508C39.7799 5.06508 39.7298 4.89508 39.6098 4.83508C39.4798 4.76508 39.2099 4.74506 38.7999 4.74506C38.3199 4.74506 37.9899 4.8451 37.7999 5.0451C37.5999 5.25511 37.4498 5.65507 37.3398 6.25507Z" fill="#1D3E89"/>
<path d="M66.3129 0.834961C66.6329 0.834961 66.9428 0.974976 67.1528 1.22498C67.3628 1.47498 67.4528 1.79499 67.4028 2.11499L65.9729 11.215C65.8829 11.755 65.4228 12.145 64.8828 12.145H47.0629C46.5929 12.145 46.1729 11.865 45.9929 11.435L44.0829 6.92499C43.9829 6.68499 44.0028 6.405 44.1528 6.185L47.3329 1.35498C47.5529 1.02498 47.9128 0.834961 48.3028 0.834961H66.3129ZM66.3129 0.375H48.2928C47.7428 0.375 47.2329 0.65498 46.9329 1.10498L43.7529 5.935C43.5229 6.285 43.4828 6.72499 43.6428 7.11499L45.5528 11.625C45.8128 12.225 46.4028 12.625 47.0528 12.625H64.8729C65.6529 12.625 66.3029 12.065 66.4329 11.295L67.8629 2.19495C68.0129 1.23495 67.2729 0.375 66.3129 0.375Z" fill="#33B5B3"/>
<path d="M48.9632 9.39502L49.7332 3.94501C50.1832 3.90501 50.7832 3.88501 51.5432 3.88501C52.1632 3.88501 52.5932 4.00507 52.8132 4.25507C53.0432 4.50507 53.1131 4.94506 53.0231 5.56506C52.9331 6.21506 52.7432 6.65501 52.4732 6.88501C52.2032 7.10501 51.7631 7.22504 51.1331 7.22504C50.6831 7.22504 50.2432 7.20504 49.7932 7.16504L49.4732 9.40503H48.9632V9.39502ZM49.8532 6.76501H51.1331C51.5931 6.75501 51.9232 6.67507 52.1132 6.50507C52.3032 6.33507 52.4431 6.01502 52.5131 5.52502C52.5731 5.05502 52.5431 4.73501 52.4031 4.57501C52.2631 4.40501 51.9732 4.32501 51.5432 4.32501C51.0732 4.32501 50.6332 4.33503 50.2032 4.34503L49.8532 6.76501Z" fill="#33B5B3"/>
<path d="M53.5931 9.39496L54.3631 3.94495C55.0031 3.89495 55.603 3.875 56.153 3.875C56.953 3.875 57.493 4.085 57.763 4.505C58.033 4.925 58.0931 5.65495 57.9531 6.69495C57.8731 7.26495 57.773 7.72496 57.653 8.08496C57.533 8.44496 57.363 8.725 57.153 8.935C56.943 9.145 56.703 9.28499 56.433 9.36499C56.163 9.44499 55.833 9.47498 55.413 9.47498C54.873 9.46498 54.2631 9.44496 53.5931 9.39496ZM54.8231 4.34497L54.163 8.995C54.693 9.005 55.103 9.01495 55.393 9.01495C55.833 9.01495 56.173 8.945 56.423 8.815C56.673 8.685 56.873 8.45499 57.033 8.11499C57.193 7.78499 57.313 7.29496 57.403 6.64496C57.533 5.73496 57.5131 5.12499 57.3331 4.80499C57.1531 4.48499 56.753 4.32495 56.143 4.32495C56.083 4.31495 55.6431 4.32497 54.8231 4.34497Z" fill="#33B5B3"/>
<path d="M63.3632 3.94501L60.8831 9.25507C60.8431 9.34507 60.7732 9.39502 60.6732 9.39502H60.1132C60.0032 9.39502 59.9432 9.33504 59.9232 9.22504L58.9232 3.93506H59.4532L60.2332 8.40503C60.2432 8.44503 60.2531 8.50503 60.2631 8.59503C60.2831 8.67503 60.2932 8.75506 60.3032 8.81506C60.3132 8.88506 60.3232 8.94507 60.3232 9.00507H60.5331C60.6331 8.77507 60.7132 8.56501 60.7932 8.38501L62.8232 3.95502H63.3632V3.94501Z" fill="#33B5B3"/>
<path d="M45.023 7.05505C45.2715 7.05505 45.4731 6.85357 45.4731 6.60504C45.4731 6.35651 45.2715 6.15503 45.023 6.15503C44.7745 6.15503 44.5731 6.35651 44.5731 6.60504C44.5731 6.85357 44.7745 7.05505 45.023 7.05505Z" fill="#33B5B3"/>
</svg>
