<svg xmlns="http://www.w3.org/2000/svg" fill="none" viewBox="0 0.95 73.9 12.1">
<path d="M3.79993 6.92502L2.18994 6.27499C1.56994 6.02499 1.15995 5.69501 0.949951 5.29501C0.739951 4.89501 0.66999 4.39501 0.73999 3.79501C0.85999 2.89501 1.17993 2.29503 1.67993 1.99503C2.17993 1.69503 2.96992 1.535 4.03992 1.535C5.09992 1.535 6.01994 1.64503 6.80994 1.87503L6.63 3.13498C5.89001 3.11498 5.00999 3.095 3.98999 3.095C3.48999 3.085 3.14997 3.125 2.96997 3.215C2.78997 3.305 2.66999 3.535 2.60999 3.905C2.56999 4.185 2.58993 4.37502 2.67993 4.48502C2.76993 4.59502 2.96992 4.71499 3.28992 4.83499L4.81995 5.42502C5.46995 5.67502 5.89998 5.99503 6.09998 6.37503C6.30998 6.75503 6.36991 7.27503 6.27991 7.93503C6.15991 8.86503 5.85 9.48503 5.37 9.81503C4.89 10.135 4.06992 10.295 2.91992 10.295C1.96992 10.295 0.99 10.185 0 9.965L0.199951 8.63498C1.93995 8.67498 2.82998 8.69498 2.84998 8.69498C3.42998 8.69498 3.8199 8.645 4.0199 8.535C4.2299 8.425 4.35991 8.19499 4.40991 7.83499C4.43991 7.55499 4.41997 7.36498 4.33997 7.26498C4.26997 7.14498 4.07993 7.03502 3.79993 6.92502Z" fill="#1D3E89"/>
<path d="M12.3299 8.70499L12.4499 9.85501C11.7699 10.145 10.8799 10.285 9.77989 10.285C8.61989 10.285 7.81988 10.015 7.38988 9.47501C6.94988 8.93501 6.79991 8.11503 6.92991 6.99503C7.07991 5.82503 7.40992 5.01499 7.93992 4.58499C8.46992 4.15499 9.29993 3.93503 10.4499 3.93503C11.5199 3.93503 12.24 4.115 12.63 4.465C13.01 4.815 13.1499 5.33498 13.0599 6.01498C12.9799 6.58498 12.74 6.99502 12.36 7.23502C11.97 7.47502 11.3799 7.63503 10.5699 7.68503L8.76988 7.81503C8.77988 8.21503 8.87993 8.48503 9.06993 8.62503C9.25993 8.76503 9.56997 8.83499 9.98997 8.83499C10.79 8.83499 11.5699 8.79499 12.3299 8.70499ZM8.87999 6.75504L10.2999 6.62503C10.6299 6.60503 10.8699 6.53502 11.0199 6.42502C11.1699 6.31502 11.2599 6.12499 11.2999 5.83499C11.3199 5.56499 11.2699 5.39499 11.1499 5.33499C11.0199 5.26499 10.7499 5.24503 10.3399 5.24503C9.85995 5.24503 9.52995 5.34501 9.33995 5.54501C9.13995 5.75501 8.98999 6.15504 8.87999 6.75504Z" fill="#1D3E89"/>
<path d="M15.49 4.10501V5.19498C15.93 4.75498 16.35 4.43502 16.73 4.23502C17.11 4.03502 17.5099 3.93503 17.9299 3.93503C18.3699 3.93503 18.72 4.03501 18.98 4.22501C19.23 4.42501 19.3799 4.69502 19.4199 5.05502C20.1799 4.30502 20.95 3.93503 21.71 3.93503C22.27 3.93503 22.6799 4.08499 22.9399 4.39499C23.1999 4.70499 23.29 5.11499 23.22 5.64499L22.59 10.135H20.7799L21.35 6.13498C21.38 5.88498 21.3599 5.70501 21.2899 5.60501C21.2199 5.50501 21.0899 5.45499 20.9099 5.45499C20.6999 5.45499 20.4899 5.525 20.2599 5.655C20.0299 5.785 19.7199 6.02503 19.3199 6.37503L18.7899 10.125H17.0399L17.59 6.12503C17.63 5.88503 17.6199 5.70501 17.5499 5.60501C17.4799 5.50501 17.3499 5.45499 17.1599 5.45499C16.9499 5.45499 16.72 5.51499 16.49 5.64499C16.26 5.77499 15.9499 5.99498 15.5699 6.32498L15.0399 10.125H13.23L14.08 4.095H15.49V4.10501Z" fill="#1D3E89"/>
<path d="M25.88 4.10501L25.86 5.26498C26.22 4.89498 26.63 4.58499 27.08 4.33499C27.53 4.08499 27.9799 3.95499 28.4099 3.95499C29.1199 3.95499 29.6199 4.20499 29.8899 4.70499C30.1599 5.20499 30.2099 6.04502 30.0499 7.23502C29.9799 7.75502 29.88 8.20498 29.75 8.57498C29.62 8.94498 29.4799 9.245 29.3099 9.465C29.1499 9.685 28.95 9.85502 28.71 9.98502C28.47 10.115 28.2399 10.195 28.0099 10.235C27.7799 10.275 27.4999 10.295 27.1799 10.295C26.5799 10.295 25.98 10.245 25.37 10.135C25.37 10.515 25.3399 10.895 25.2799 11.275L25.08 12.465H23.2599L24.4399 4.11502H25.88V4.10501ZM25.59 9.035H26.5299C27.1499 9.035 27.5599 8.93501 27.7599 8.72501C27.9499 8.51501 28.1 8.015 28.21 7.215C28.31 6.445 28.3299 5.95503 28.2699 5.74503C28.2099 5.52503 28.0399 5.42502 27.7599 5.42502C27.5499 5.42502 27.28 5.51498 26.95 5.69498C26.62 5.87498 26.29 6.11501 25.96 6.41501L25.59 9.035Z" fill="#1D3E89"/>
<path d="M35.6899 3.93503L35.2799 5.60501H34.84C34.59 5.60501 34.3199 5.66499 34.0299 5.77499C33.7499 5.88499 33.3399 6.07501 32.7999 6.35501L32.2799 10.135H30.46L31.3099 4.10501H32.73V5.24503C33.66 4.37503 34.5199 3.93503 35.3199 3.93503H35.6899Z" fill="#1D3E89"/>
<path d="M40.7999 8.70499L40.9199 9.85501C40.2399 10.145 39.35 10.285 38.25 10.285C37.09 10.285 36.29 10.015 35.86 9.47501C35.42 8.93501 35.2699 8.11503 35.3999 6.99503C35.5499 5.82503 35.8799 5.01499 36.4099 4.58499C36.9399 4.15499 37.7699 3.93503 38.9199 3.93503C39.9899 3.93503 40.7099 4.115 41.0999 4.465C41.4799 4.815 41.6199 5.33498 41.5299 6.01498C41.4499 6.58498 41.2099 6.99502 40.8299 7.23502C40.4399 7.47502 39.8499 7.63503 39.0399 7.68503L37.24 7.81503C37.25 8.21503 37.3499 8.48503 37.5399 8.62503C37.7299 8.76503 38.0399 8.83499 38.4599 8.83499C39.2499 8.83499 40.0299 8.79499 40.7999 8.70499ZM37.3399 6.75504L38.7599 6.62503C39.0899 6.60503 39.3299 6.53502 39.4799 6.42502C39.6299 6.31502 39.7199 6.12499 39.7599 5.83499C39.7799 5.56499 39.73 5.39499 39.61 5.33499C39.48 5.26499 39.2099 5.24503 38.7999 5.24503C38.3199 5.24503 37.9899 5.34501 37.7999 5.54501C37.5999 5.75501 37.4499 6.15504 37.3399 6.75504Z" fill="#1D3E89"/>
<path d="M48.3354 0.94989L72.64 0.950134C73.41 0.950134 74 1.80012 73.88 2.75012L72.7401 11.7401C72.6401 12.5001 72.12 13.0501 71.5 13.0501L47.3554 13.0499C46.8354 13.0499 46.3655 12.6599 46.1555 12.0699L44.6354 7.60986C44.5054 7.22986 44.5354 6.78988 44.7254 6.43988L47.2554 1.66986C47.4854 1.21986 47.8954 0.94989 48.3354 0.94989Z" fill="#33B5B3"/>
<path d="M53.0379 10.3258C53.0002 10.4229 52.9274 10.4714 52.8196 10.4714H52.2455C52.197 10.4714 52.1539 10.4552 52.1161 10.4229C52.0838 10.3905 52.0622 10.3501 52.0514 10.3016L51.0246 4.89226H51.5663L52.3668 9.46068L52.3991 9.66282C52.4315 9.85688 52.453 9.99164 52.4638 10.0671H52.674C52.7711 9.82992 52.86 9.617 52.9409 9.42833L55.0189 4.89226H55.5768L53.0379 10.3258ZM57.4578 5.33697C57.0751 5.33697 56.8595 5.53642 56.8109 5.93531L56.625 7.3018L59.1154 7.30988L59.0588 7.71417L56.5684 7.72225L56.3258 9.45259C56.3204 9.48493 56.3177 9.53075 56.3177 9.59005C56.3177 9.88113 56.4821 10.0267 56.8109 10.0267H59.0507L59.0426 10.431C58.5467 10.4633 57.7785 10.4795 56.7382 10.4795C56.4255 10.4795 56.1857 10.404 56.0185 10.2531C55.8568 10.1021 55.776 9.89461 55.776 9.63048C55.776 9.55501 55.7787 9.49841 55.7841 9.46068L56.3015 5.78977C56.3393 5.50946 56.4525 5.28846 56.6411 5.12674C56.8298 4.96503 57.0778 4.88417 57.385 4.88417C58.4793 4.88417 59.2771 4.90034 59.7784 4.93268L59.7056 5.33697H57.4578ZM62.2824 4.80331C62.9562 4.80331 63.5411 4.84913 64.037 4.94077L63.9723 5.3208C63.374 5.28846 62.8404 5.27228 62.3714 5.27228C62.0641 5.27228 61.8296 5.28846 61.6679 5.3208C61.5116 5.34775 61.3768 5.42861 61.2636 5.56337C61.1504 5.69813 61.0723 5.91105 61.0292 6.20214C61.0184 6.32073 61.013 6.40159 61.013 6.44471C61.013 6.63877 61.0588 6.7897 61.1504 6.89751C61.2421 7.00532 61.4065 7.10774 61.6437 7.20477L62.7757 7.64139C63.126 7.77616 63.3713 7.93248 63.5115 8.11037C63.657 8.28825 63.7298 8.52274 63.7298 8.81382C63.7298 8.92702 63.7217 9.04831 63.7055 9.17768C63.6462 9.57118 63.5357 9.86766 63.374 10.0671C63.2177 10.2666 63.0048 10.3986 62.7352 10.4633C62.4711 10.528 62.1099 10.5603 61.6518 10.5603C61.0696 10.5603 60.5225 10.5199 60.0104 10.439L60.0831 10.0428C60.7354 10.0752 61.2717 10.0914 61.6922 10.0914C62.0426 10.086 62.3121 10.0617 62.5008 10.0186C62.6894 9.97008 62.8377 9.87844 62.9455 9.74368C63.0533 9.60892 63.1287 9.40138 63.1719 9.12108C63.188 9.01327 63.1961 8.92163 63.1961 8.84616C63.1961 8.65211 63.1476 8.50387 63.0506 8.40145C62.9589 8.29903 62.7918 8.19931 62.5493 8.10228L61.4011 7.65757C61.0723 7.52819 60.8351 7.36918 60.6896 7.18051C60.544 6.99184 60.4712 6.75197 60.4712 6.46088C60.4712 6.36385 60.4793 6.25874 60.4955 6.14554C60.5494 5.76821 60.6518 5.48251 60.8028 5.28846C60.9537 5.0944 61.145 4.96503 61.3768 4.90034C61.614 4.83566 61.9159 4.80331 62.2824 4.80331ZM69.0794 5.36123H67.2197L66.5001 10.4714H65.9664L66.686 5.36123H64.8344L64.9072 4.89226H69.1441L69.0794 5.36123Z" fill="#EDEDED"/>
</svg>