<svg width="30" height="24" viewBox="0 0 30 24" fill="none" xmlns="http://www.w3.org/2000/svg">
<path d="M30 18.75C30 19.1719 29.625 19.5 29.25 19.5H27C26.0156 19.5 25.1719 18.8906 24.8438 18H23.3906C23.2969 18.2344 23.2031 18.4219 23.0625 18.6094L22.6406 19.1719C21.9844 19.9688 20.8594 20.1562 19.9688 19.7344L18.9844 20.9062C18.1406 21.8906 16.6406 22.0781 15.6094 21.2344L15.3281 21C14.8125 21.4219 14.1562 21.7031 13.4531 21.75C13.3125 21.75 13.1719 21.75 13.0781 21.75C12.2344 21.75 11.4375 21.4688 10.7812 20.9531L6.98438 18H5.10938C4.78125 18.8906 3.9375 19.5 3 19.5H1.5C1.07812 19.5 0.75 19.1719 0.75 18.75C0.75 18.375 1.07812 18 1.5 18H3C3.375 18 3.75 17.6719 3.75 17.25V7.5H0.75C0.328125 7.5 0 7.17188 0 6.75C0 6.375 0.328125 6 0.75 6H6.09375C7.6875 4.45312 9.70312 3.42188 11.8594 3.14062C12.2812 3.04688 12.6562 3.375 12.7031 3.75C12.7969 4.17188 12.5156 4.54688 12.0938 4.59375C10.1719 4.875 8.34375 5.85938 6.98438 7.26562L6.75 7.5H5.25V16.5H7.5L11.7188 19.7812C12.1875 20.1562 12.7031 20.2969 13.2656 20.25C13.8281 20.2031 14.3438 19.9219 14.6719 19.5L15.1875 18.9844L15.7969 19.4062L16.5938 20.0625C16.9219 20.3906 17.5312 20.3438 17.8125 19.9219L19.6875 17.625L20.5312 18.3281C20.8125 18.5625 21.2344 18.5156 21.4688 18.1875L21.8906 17.6719C22.125 17.3906 22.0781 16.9688 21.7969 16.7344L16.7344 12.6094C16.4062 12.3281 16.3594 11.8594 16.5938 11.5312C16.875 11.25 17.3438 11.1562 17.6719 11.4375L22.7344 15.5625C23.0625 15.8438 23.25 16.1719 23.3906 16.5H24.75V7.5H23.2031L22.9688 7.3125C21.2812 5.53125 18.9375 4.5 16.6406 4.5H16.2656C16.0781 4.5 15.9375 4.59375 15.7969 4.6875L11.4375 8.8125C10.9688 9.23438 11.0156 9.9375 11.3906 10.3125C11.4844 10.4062 11.7656 10.6406 12.1406 10.6406C12.375 10.6406 12.6094 10.5469 12.7969 10.3594L12.8438 10.4062C13.2188 9.98438 14.1562 9.09375 16.4062 7.03125C16.6875 6.75 17.1562 6.79688 17.4375 7.07812C17.7188 7.40625 17.7188 7.875 17.3906 8.15625L13.8281 11.4844C13.3594 11.9062 12.7969 12.1406 12.1875 12.1406C12.1406 12.1406 12.0938 12.1406 12.0469 12.1406C11.25 12.0938 10.5938 11.6719 10.2656 11.2969C9.32812 10.2656 9.375 8.76562 10.3594 7.78125V7.73438L14.7656 3.60938C15.1875 3.23438 15.7031 3 16.2656 3H16.6406C19.2656 3 21.8438 4.125 23.8125 6H29.25C29.625 6 30 6.375 30 6.75C30 7.17188 29.625 7.5 29.25 7.5H26.25V17.25C26.25 17.6719 26.5781 18.0469 26.9531 18.0469L29.25 18C29.625 18 30 18.375 30 18.75Z" fill="#E60009"/>
</svg>
