<svg width="25" height="24" viewBox="0 0 25 24" fill="none" xmlns="http://www.w3.org/2000/svg">
<path d="M22.7344 20.8594L15.6094 14.7656C15.2812 14.5312 15.2812 14.0625 15.5156 13.7344C15.7969 13.4062 16.2656 13.3594 16.5938 13.6406L23.7188 19.6875C24.0469 19.9688 24.0469 20.4375 23.8125 20.7656C23.5312 21.0938 23.0625 21.0938 22.7344 20.8594ZM22.7344 3.1875C23.0625 2.95312 23.5312 2.95312 23.8125 3.28125C24.0469 3.60938 24.0469 4.07812 23.7188 4.35938L9.75 16.125C10.2188 16.875 10.5 17.8125 10.5 18.75C10.5 21.6562 8.10938 24 5.25 24C2.34375 24 0 21.6562 0 18.75C0 15.8906 2.34375 13.5 5.25 13.5C6.60938 13.5 7.875 14.0625 8.8125 14.9531L12.2812 12L8.8125 9.09375C7.875 9.98438 6.60938 10.5 5.25 10.5C2.34375 10.5 0 8.15625 0 5.25C0 2.39062 2.34375 0 5.25 0C8.10938 0 10.5 2.39062 10.5 5.25C10.5 6.23438 10.2188 7.17188 9.75 7.92188L13.4531 11.0625L22.7344 3.1875ZM1.5 5.25C1.5 7.35938 3.14062 9 5.25 9C7.3125 9 9 7.35938 9 5.25C9 3.1875 7.3125 1.5 5.25 1.5C3.14062 1.5 1.5 3.1875 1.5 5.25ZM5.25 22.5C7.3125 22.5 9 20.8594 9 18.75C9 16.6875 7.3125 15 5.25 15C3.14062 15 1.5 16.6875 1.5 18.75C1.5 20.8594 3.14062 22.5 5.25 22.5Z" fill="#E60009"/>
</svg>
