<svg width="28" height="24" viewBox="0 0 28 24" fill="none" xmlns="http://www.w3.org/2000/svg">
<path d="M26.8438 21C27.2188 21.0469 27.5 21.4219 27.4531 21.8438C27.4062 22.2188 27.0312 22.5469 26.6094 22.4531C25.2031 22.2656 23.9375 21.6562 23 20.6719C21.8281 21.8438 20.1875 22.5 18.5 22.5C16.7656 22.5 15.125 21.8438 13.9531 20.6719C12.8281 21.8438 11.1875 22.5469 9.5 22.5469C7.76562 22.5469 6.125 21.8438 4.95312 20.6719C4.01562 21.6562 2.75 22.2656 1.34375 22.4531C0.921875 22.5469 0.546875 22.2188 0.5 21.8438C0.453125 21.4219 0.734375 21.0469 1.10938 21C2.46875 20.8125 3.64062 20.1094 4.34375 19.0781C4.48438 18.8906 4.71875 18.75 5 18.75C5.23438 18.75 5.46875 18.8906 5.60938 19.0781C6.45312 20.2969 7.90625 21 9.5 21C11.0469 21 12.5 20.2969 13.3438 19.0781C13.625 18.7031 14.2812 18.7031 14.5625 19.0781C15.4062 20.2969 16.8594 21 18.4531 21C20.0469 21 21.5 20.2969 22.3438 19.0781C22.625 18.7031 23.2812 18.7031 23.5625 19.0781C24.3125 20.1094 25.4844 20.8125 26.8438 21ZM7.25 18C6.82812 18 6.5 17.6719 6.5 17.25V5.25C6.5 3.1875 8.14062 1.5 10.25 1.5C12.3125 1.5 14 3.1875 14 5.25V6C14 6.42188 13.625 6.75 13.25 6.75C12.8281 6.75 12.5 6.42188 12.5 6V5.25C12.5 4.03125 11.4688 3 10.25 3C8.98438 3 8 4.03125 8 5.25V10.5H18.5V5.25C18.5 3.1875 20.1406 1.5 22.25 1.5C24.3125 1.5 26 3.1875 26 5.25V6C26 6.42188 25.625 6.75 25.25 6.75C24.8281 6.75 24.5 6.42188 24.5 6V5.25C24.5 4.03125 23.4688 3 22.25 3C20.9844 3 20 4.03125 20 5.25V17.25C20 17.6719 19.625 18 19.25 18C18.8281 18 18.5 17.6719 18.5 17.25V12H8V17.25C8 17.6719 7.625 18 7.25 18Z" fill="#E60009"/>
</svg>
