<svg width="30" height="24" viewBox="0 0 30 24" fill="none" xmlns="http://www.w3.org/2000/svg">
<path d="M30 15V17.25C30 18.0938 29.2969 18.75 28.5 18.75H26.9062C26.5781 20.9062 24.7031 22.5 22.5 22.5C20.25 22.5 18.375 20.9062 18.0469 18.75H11.9062C11.5781 20.9062 9.70312 22.5 7.5 22.5C5.25 22.5 3.375 20.9062 3.04688 18.75H1.5C0.65625 18.75 0 18.0938 0 17.25V12C0 10.5469 1.03125 9.32812 2.4375 9.04688L4.54688 3.89062C5.10938 2.4375 6.46875 1.5 8.01562 1.5H16.5469C17.6719 1.5 18.75 2.0625 19.4531 2.95312L24.3281 9.04688C27.4688 9.23438 30 11.8125 30 15ZM8.01562 3C7.07812 3 6.28125 3.5625 5.90625 4.45312L4.07812 9H10.5V3H8.01562ZM12 9H22.4062L18.2812 3.89062C17.8594 3.32812 17.2031 3 16.5469 3H12V9ZM25.3594 18.75C25.4531 18.5156 25.5 18.2812 25.5 18C25.5 17.7656 25.4531 17.5312 25.3594 17.25C25.0312 15.9844 23.8594 15 22.5 15C21.0938 15 19.9219 15.9844 19.5938 17.25C19.5 17.5312 19.5 17.7656 19.5 18C19.5 18.2812 19.5 18.5156 19.5938 18.75C19.9219 20.0625 21.0938 21 22.5 21C23.8594 21 25.0312 20.0625 25.3594 18.75ZM18.0469 17.25C18.375 15.1406 20.25 13.5 22.5 13.5C24.7031 13.5 26.5781 15.1406 26.9062 17.25H28.5V15C28.5 12.5156 26.4844 10.5 24 10.5H3C2.15625 10.5 1.5 11.2031 1.5 12V17.25H3.04688C3.375 15.1406 5.25 13.5 7.5 13.5C9.70312 13.5 11.5781 15.1406 11.9062 17.25H18.0469ZM10.3594 18.75C10.4531 18.5156 10.5 18.2812 10.5 18C10.5 17.7656 10.4531 17.5312 10.3594 17.25C10.0312 15.9844 8.85938 15 7.5 15C6.09375 15 4.92188 15.9844 4.59375 17.25C4.5 17.5312 4.5 17.7656 4.5 18C4.5 18.2812 4.5 18.5156 4.59375 18.75C4.92188 20.0625 6.09375 21 7.5 21C8.85938 21 10.0312 20.0625 10.3594 18.75Z" fill="#E60009"/>
</svg>
