<svg width="24" height="25" viewBox="0 0 24 25" fill="none" xmlns="http://www.w3.org/2000/svg">
<path d="M24 10C24 11.4062 23.0156 12.5781 21.75 12.9062V17.5C21.75 21.5781 18.375 24.9531 14.25 24.9531C10.0781 24.9531 6.75 21.625 6.75 17.5V17.4062C2.95312 17.0312 0 13.8438 0 10V3.29688C0 2.96875 0.140625 2.73438 0.375 2.54688L3.375 1.09375C3.75 0.90625 4.21875 1.04688 4.40625 1.42188C4.59375 1.79688 4.45312 2.26562 4.07812 2.45312L1.5 3.71875V10C1.5 13.3281 4.17188 16 7.5 16C10.7812 16 13.5 13.3281 13.5 10V3.71875L10.875 2.45312C10.5 2.26562 10.3594 1.79688 10.5469 1.51562C10.7344 1.14062 11.2031 1 11.5781 1.1875L14.5781 2.64062C14.8125 2.78125 15 3.01562 15 3.29688V10C15 13.8906 12 17.0781 8.25 17.4531V17.5C8.25 20.7812 10.9219 23.5 14.25 23.5C17.5312 23.5 20.25 20.8281 20.25 17.5V12.9062C18.9375 12.5781 18 11.4062 18 10C18 8.40625 19.3125 7.04688 21 7.04688C22.6406 7.04688 24 8.35938 24 10ZM21 11.5C21.7969 11.5 22.5 10.8438 22.5 10.0469C22.5 9.29688 21.7969 8.59375 21 8.59375C20.1562 8.59375 19.5 9.25 19.5 10.0469C19.5 10.8438 20.1562 11.5 21 11.5Z" fill="#E60009"/>
</svg>
