<svg width="30" height="24" viewBox="0 0 30 24" fill="none" xmlns="http://www.w3.org/2000/svg">
<path d="M13.0312 15C13.0312 17.25 11.2031 19.0781 9 19.0781C6.75 19.0781 4.92188 17.25 4.92188 15C4.92188 12.7969 6.75 10.9688 9 10.9688C11.2031 10.9688 13.0312 12.7969 13.0312 15ZM9 17.5781C10.4062 17.5781 11.5312 16.4062 11.5312 15C11.5312 13.5938 10.4062 12.4688 9 12.4688C7.54688 12.4688 6.42188 13.5938 6.42188 15C6.42188 16.4062 7.54688 17.5781 9 17.5781ZM4.45312 7.40625V2.25C4.45312 1.03125 5.48438 0 6.70312 0H12.8906C13.7812 0 14.5781 0.5625 14.9531 1.35938L17.7188 7.5H22.5V5.625C22.5 4.26562 23.0156 2.90625 24 1.92188L24.1875 1.73438C24.4688 1.45312 24.9844 1.45312 25.2656 1.73438C25.5469 2.01562 25.5469 2.53125 25.2656 2.8125L25.0781 3C24.375 3.70312 24 4.64062 24 5.625V7.5H28.125C29.1562 7.5 30 8.34375 30 9.375V12.2344C30 12.7969 29.7188 13.3594 29.25 13.6875L26.5781 15.8438C26.0156 16.3125 25.3594 16.5 24.7031 16.5H17.9062C17.6719 17.25 17.1094 17.8594 16.3594 18.0938C16.8281 18.9375 16.6875 20.0156 15.9844 20.7656L14.7188 22.0312C13.9688 22.7344 12.8906 22.875 12.0469 22.4062C11.7656 23.3438 10.875 24 9.89062 24H8.0625C7.07812 24 6.1875 23.3438 5.90625 22.4062C5.0625 22.875 3.98438 22.7344 3.23438 22.0312L1.96875 20.7656C1.26562 20.0156 1.125 18.9375 1.59375 18.0938C0.65625 17.8125 0 16.9219 0 15.8906V14.1094C0 13.125 0.65625 12.2344 1.59375 11.9531C1.125 11.1094 1.26562 9.98438 1.96875 9.28125L3.23438 8.01562C3.60938 7.6875 4.03125 7.45312 4.5 7.40625H4.45312ZM5.95312 7.5C6.28125 6.60938 7.125 6 8.0625 6H9.89062C10.875 6 11.7656 6.70312 12.0469 7.64062C12.6094 7.3125 13.3125 7.26562 13.9219 7.5H16.0781L13.5469 1.96875C13.4531 1.6875 13.1719 1.5 12.8906 1.5H6.70312C6.32812 1.5 5.95312 1.875 5.95312 2.25V7.5ZM18 15H24.7031C25.0312 15 25.3594 14.9062 25.6406 14.6719L28.3125 12.5156C28.4062 12.4688 28.5 12.3281 28.5 12.2344V9.375C28.5 9.1875 28.3125 9 28.125 9H17.25H17.2031H15.7031L15.9844 9.28125C16.6875 9.98438 16.8281 11.1094 16.3594 11.9531C17.2969 12.2344 18 13.125 18 14.1094V15ZM7.21875 9.28125L6.79688 9.42188C6.70312 9.46875 6.65625 9.51562 6.5625 9.51562L6.14062 9.70312L5.29688 9.04688C5.01562 8.8125 4.59375 8.8125 4.3125 9.09375L3.04688 10.3594C2.76562 10.6406 2.76562 11.0625 3 11.3438L3.65625 12.1875L3.46875 12.6094C3.46875 12.7031 3.42188 12.75 3.375 12.8438L3.23438 13.2656L2.15625 13.3594C1.78125 13.4062 1.45312 13.7344 1.45312 14.1094V15.8906C1.45312 16.3125 1.78125 16.6406 2.15625 16.6406L3.23438 16.7812L3.375 17.2031C3.42188 17.2969 3.46875 17.3438 3.46875 17.4375L3.65625 17.8594L3 18.7031C2.76562 18.9844 2.76562 19.4062 3.04688 19.6875L4.3125 20.9531C4.59375 21.2344 5.01562 21.2344 5.29688 21L6.14062 20.3438L6.5625 20.5312C6.65625 20.5312 6.70312 20.5781 6.79688 20.625L7.21875 20.7656L7.35938 21.8438C7.35938 22.2188 7.6875 22.5 8.0625 22.5H9.89062C10.2656 22.5 10.5938 22.2188 10.5938 21.8438L10.7344 20.7656L11.1562 20.625C11.25 20.5781 11.2969 20.5312 11.3906 20.5312L11.8125 20.3438L12.6562 21C12.9375 21.2344 13.3594 21.2344 13.6406 20.9531L14.9062 19.6875C15.1875 19.4062 15.1875 18.9844 14.9531 18.7031L14.2969 17.8594L14.4844 17.4375C14.4844 17.3438 14.5312 17.2969 14.5781 17.2031L14.7188 16.7812L15.7969 16.6406C16.1719 16.6406 16.5 16.3125 16.5 15.8906V14.1094C16.5 13.7344 16.1719 13.4062 15.7969 13.3594L14.7188 13.2656L14.5781 12.8438C14.5312 12.75 14.4844 12.7031 14.4844 12.6094L14.2969 12.1875L14.9531 11.3438C15.1875 11.0625 15.1875 10.6406 14.9062 10.3594L13.6406 9.09375C13.3594 8.8125 12.9375 8.8125 12.6562 9.04688L11.8125 9.70312L11.3906 9.51562C11.2969 9.51562 11.25 9.46875 11.1562 9.42188L10.7344 9.28125L10.5938 8.20312C10.5938 7.82812 10.2656 7.5 9.89062 7.5H8.0625C7.6875 7.5 7.35938 7.82812 7.35938 8.20312L7.21875 9.28125ZM21 21C21 19.3594 22.3125 18 24 18C25.6406 18 27 19.3594 27 21C27 22.6875 25.6406 24 24 24C22.3125 24 21 22.6875 21 21ZM24 22.5C24.7969 22.5 25.5 21.8438 25.5 21C25.5 20.2031 24.7969 19.5 24 19.5C23.1562 19.5 22.5 20.2031 22.5 21C22.5 21.8438 23.1562 22.5 24 22.5ZM2.48438 20.25L1.96875 20.7656L2.48438 20.25Z" fill="#E60009"/>
</svg>
