<svg width="24" height="24" viewBox="0 0 24 24" fill="none" xmlns="http://www.w3.org/2000/svg">
<path d="M18 0C19.6406 0 21 1.35938 21 3V21C21 22.6875 19.6406 24 18 24H6C4.3125 24 3 22.6875 3 21V3C3 1.35938 4.3125 0 6 0H18ZM19.5 21V7.5H4.5V21C4.5 21.8438 5.15625 22.5 6 22.5H18C18.7969 22.5 19.5 21.8438 19.5 21ZM19.5 6V3C19.5 2.20312 18.7969 1.5 18 1.5H6C5.15625 1.5 4.5 2.20312 4.5 3V6H19.5ZM6.75 20.25C6.32812 20.25 6 19.9219 6 19.5C6 19.125 6.32812 18.75 6.75 18.75H12.75C13.125 18.75 13.5 19.125 13.5 19.5C13.5 19.9219 13.125 20.25 12.75 20.25H6.75ZM16.5 20.625C15.8438 20.625 15.375 20.1562 15.375 19.5C15.375 18.8906 15.8438 18.375 16.5 18.375C17.1094 18.375 17.625 18.8906 17.625 19.5C17.625 20.1562 17.1094 20.625 16.5 20.625ZM16.5 16.125C15.8438 16.125 15.375 15.6562 15.375 15C15.375 14.3906 15.8438 13.875 16.5 13.875C17.1094 13.875 17.625 14.3906 17.625 15C17.625 15.6562 17.1094 16.125 16.5 16.125ZM16.5 11.625C15.8438 11.625 15.375 11.1562 15.375 10.5C15.375 9.89062 15.8438 9.375 16.5 9.375C17.1094 9.375 17.625 9.89062 17.625 10.5C17.625 11.1562 17.1094 11.625 16.5 11.625ZM12 16.125C11.3438 16.125 10.875 15.6562 10.875 15C10.875 14.3906 11.3438 13.875 12 13.875C12.6094 13.875 13.125 14.3906 13.125 15C13.125 15.6562 12.6094 16.125 12 16.125ZM12 11.625C11.3438 11.625 10.875 11.1562 10.875 10.5C10.875 9.89062 11.3438 9.375 12 9.375C12.6094 9.375 13.125 9.89062 13.125 10.5C13.125 11.1562 12.6094 11.625 12 11.625ZM7.5 16.125C6.84375 16.125 6.375 15.6562 6.375 15C6.375 14.3906 6.84375 13.875 7.5 13.875C8.10938 13.875 8.625 14.3906 8.625 15C8.625 15.6562 8.10938 16.125 7.5 16.125ZM7.5 11.625C6.84375 11.625 6.375 11.1562 6.375 10.5C6.375 9.89062 6.84375 9.375 7.5 9.375C8.10938 9.375 8.625 9.89062 8.625 10.5C8.625 11.1562 8.10938 11.625 7.5 11.625Z" fill="#E60009"/>
</svg>
