<svg width="28" height="24" viewBox="0 0 28 24" fill="none" xmlns="http://www.w3.org/2000/svg">
<path d="M27.125 9.46875C27.5469 10.2188 27.5938 11.0625 27.2656 11.8594C26.0938 14.6719 22.5312 21 15.6875 21H12.2656C5.42188 21 1.85938 14.6719 0.6875 11.8594C0.359375 11.0625 0.40625 10.2188 0.828125 9.46875C3.03125 5.85938 7.8125 3 9.875 3C9.875 3 11.2344 3 13.9531 5.10938C16.6719 3 18.0781 3 18.0781 3C20.1406 3 24.9219 5.85938 27.125 9.46875ZM25.9062 11.25C26.0469 10.9219 26 10.5469 25.8125 10.2656C23.8906 7.03125 19.625 4.59375 18.1719 4.54688C17.9844 4.54688 16.8594 4.78125 14.8906 6.32812C14.6094 6.51562 14.2812 6.60938 14 6.60938C13.6719 6.60938 13.3438 6.51562 13.0625 6.32812C11.0938 4.78125 9.96875 4.54688 9.78125 4.5C8.32812 4.59375 4.0625 7.03125 2.14062 10.2656C1.95312 10.5469 1.90625 10.9219 2.09375 11.25C2.9375 13.2188 6.03125 19.5 12.2656 19.5H15.6875C21.9219 19.5 25.0625 13.2188 25.9062 11.25ZM23.4688 10.0781C23.9844 10.2656 24.125 10.9219 23.75 11.2969C22.3906 12.6094 19.1094 15 14 15C8.84375 15 5.5625 12.6094 4.20312 11.2969C3.82812 10.9219 3.96875 10.2656 4.48438 10.0781C5.5625 9.60938 7.53125 9 10.0156 9L11.4688 9.42188C12.2656 9.65625 13.1094 9.75 14 9.75C14.8438 9.75 15.6875 9.65625 16.4844 9.42188L17.9375 9C20.4219 9 22.3906 9.60938 23.4688 10.0781ZM14 13.5C17.6094 13.5 20.1406 12.1875 21.7344 11.0625C20.75 10.7812 19.5312 10.5469 18.125 10.5469L16.8594 10.875C15.9688 11.1562 14.9375 11.25 14 11.25C13.0156 11.25 11.9844 11.1562 11.0938 10.875L9.82812 10.5469C8.42188 10.5469 7.20312 10.7812 6.21875 11.0625C7.8125 12.1875 10.3438 13.5 14 13.5Z" fill="#E60009"/>
</svg>
