<svg width="24" height="24" viewBox="0 0 24 24" fill="none" xmlns="http://www.w3.org/2000/svg">
<path d="M22.5 17.25C22.5 18.2344 21.8438 19.0781 21 19.4062V22.5H21.75C22.125 22.5 22.5 22.875 22.5 23.25C22.5 23.6719 22.125 24 21.75 24H4.5C2.8125 24 1.5 22.6875 1.5 21V3.75C1.5 1.6875 3.14062 0 5.25 0H20.25C21.4688 0 22.5 1.03125 22.5 2.25V17.25ZM3 3.75V18.4219C3.42188 18.1875 3.9375 18 4.5 18H6V1.5H5.25C3.98438 1.5 3 2.53125 3 3.75ZM19.5 22.5V19.5H4.5C3.65625 19.5 3 20.2031 3 21C3 21.8438 3.65625 22.5 4.5 22.5H19.5ZM20.25 18C20.625 18 21 17.6719 21 17.25V2.25C21 1.875 20.625 1.5 20.25 1.5H7.5V18H20.25ZM18 6C18.375 6 18.75 6.375 18.75 6.75C18.75 7.17188 18.375 7.5 18 7.5H10.5C10.0781 7.5 9.75 7.17188 9.75 6.75C9.75 6.375 10.0781 6 10.5 6H18ZM18 10.5C18.375 10.5 18.75 10.875 18.75 11.25C18.75 11.6719 18.375 12 18 12H10.5C10.0781 12 9.75 11.6719 9.75 11.25C9.75 10.875 10.0781 10.5 10.5 10.5H18Z" fill="#E60009"/>
</svg>
