<svg width="28" height="25" viewBox="0 0 28 25" fill="none" xmlns="http://www.w3.org/2000/svg">
<path d="M3.96875 19.1875L3.92188 18.9531C3.78125 18.2031 3.64062 17.4531 2.1875 15.9531C1.29688 14.9688 1.25 13.75 1.15625 12.6719C1.15625 12.0156 1.10938 11.3594 0.875 10.7969C0.21875 9.25 0.40625 7.51562 1.29688 6.20312C1.53125 5.875 1.76562 5.59375 2.09375 5.35938C2.46875 5.03125 2.79688 4.5625 3.03125 4C3.35938 3.15625 3.82812 2.5 4.48438 1.98438C5.1875 1.375 6.03125 1.04688 6.92188 1.04688C7.8125 0.953125 8.65625 1.1875 9.45312 1.70312C9.64062 1.84375 9.82812 1.98438 9.96875 2.17188C10.2969 2.45312 10.2969 2.92188 10.0156 3.20312C9.73438 3.53125 9.26562 3.53125 8.98438 3.25C8.84375 3.15625 8.75 3.0625 8.60938 2.96875C8.09375 2.64062 7.57812 2.5 7.01562 2.54688C6.40625 2.54688 5.89062 2.73438 5.42188 3.10938C5 3.48438 4.625 3.95312 4.4375 4.5625C4.10938 5.35938 3.64062 6.01562 3.03125 6.53125C2.84375 6.67188 2.65625 6.85938 2.51562 7.04688C1.90625 7.9375 1.8125 9.15625 2.23438 10.2344C2.5625 11.0312 2.60938 11.8281 2.65625 12.625C2.70312 13.5625 2.79688 14.3594 3.3125 14.9219C5.04688 16.75 5.23438 17.8281 5.375 18.7188L5.42188 18.9062C5.51562 19.3281 5.23438 19.7031 4.8125 19.7969C4.76562 19.7969 4.71875 19.7969 4.67188 19.7969C4.34375 19.7969 4.01562 19.5625 3.96875 19.1875ZM27.3594 5.6875C27.5469 6.71875 27.5 7.75 27.1719 8.73438C26.9375 9.48438 26.8906 10.2344 27.0312 10.9375C27.125 11.4062 27.1719 11.875 27.125 12.3438C27.0312 14.3125 25.7656 16 23.8906 16.75C23.1875 17.0312 22.625 17.5469 22.0156 18.1562C21.125 19 20.0469 20.0312 18.4531 20.0312C15.875 20.0312 15.3594 20.4062 14.8438 20.7812C13.9531 21.5312 13.0156 22 9.5 22C8.9375 22 8.42188 21.8594 7.95312 21.625L4.76562 24.8125C4.625 24.9531 4.4375 25 4.25 25C4.01562 25 3.82812 24.9531 3.6875 24.8125C3.40625 24.5312 3.40625 24.0156 3.6875 23.7344L6.6875 20.7344L6.875 20.5469C6.64062 20.125 6.45312 19.6562 6.5 19.1406C6.5 15.5312 7.01562 14.5938 7.71875 13.6562C8.14062 13.0938 8.51562 12.625 8.51562 10.0938C8.51562 8.45312 9.5 7.42188 10.3906 6.48438C10.9531 5.875 11.5156 5.3125 11.7969 4.60938C12.5469 2.73438 14.2344 1.51562 16.2031 1.375C16.6719 1.32812 17.1406 1.375 17.6094 1.46875C18.2656 1.60938 19.0625 1.5625 19.7656 1.32812C20.75 1 21.7812 0.953125 22.8125 1.14062C23.9375 1.375 24.9219 1.98438 25.7188 2.78125C26.5625 3.57812 27.125 4.5625 27.3594 5.6875ZM25.7656 8.26562C26 7.51562 26.0469 6.76562 25.8594 6.01562C25.7188 5.17188 25.2969 4.46875 24.6875 3.85938C24.0781 3.20312 23.3281 2.78125 22.4844 2.64062C21.7344 2.45312 20.9844 2.5 20.2812 2.73438C19.25 3.0625 18.2188 3.15625 17.2812 2.92188C17 2.875 16.7656 2.82812 16.5312 2.82812C16.4375 2.82812 16.3438 2.82812 16.2969 2.875C14.8906 2.92188 13.7188 3.8125 13.1562 5.17188C12.7812 6.10938 12.125 6.8125 11.4219 7.51562C10.6719 8.3125 9.96875 9.0625 9.96875 10.0938C9.96875 12.9062 9.54688 13.7031 8.89062 14.5469C8.42188 15.1562 7.95312 15.7656 7.95312 19.1406C7.95312 19.2344 8 19.3281 8.04688 19.375L12.5 14.9688V10.75C12.5 10.375 12.8281 10 13.25 10C13.625 10 14 10.375 14 10.75V13.4688L20.1875 7.23438C20.4688 6.90625 20.9844 6.90625 21.2656 7.23438C21.5469 7.51562 21.5469 7.98438 21.2656 8.26562L18.0312 11.5H20.75C21.125 11.5 21.5 11.875 21.5 12.25C21.5 12.6719 21.125 13 20.75 13H16.5312L9.125 20.4531C9.21875 20.5 9.35938 20.5469 9.5 20.5469C12.7812 20.5469 13.3906 20.0781 13.9531 19.6094C14.75 19 15.5938 18.5312 18.4531 18.5312C19.4844 18.5312 20.1875 17.8281 20.9844 17.0312C21.6875 16.4219 22.3906 15.7656 23.3281 15.3438C24.6875 14.8281 25.5781 13.6094 25.625 12.25C25.6719 11.9219 25.625 11.5938 25.5781 11.2656C25.3438 10.2812 25.4375 9.25 25.7656 8.26562Z" fill="#E60009"/>
</svg>
