<svg width="30" height="25" viewBox="0 0 30 25" fill="none" xmlns="http://www.w3.org/2000/svg">
<path d="M20.4375 12.5625C20.2969 12.4219 20.25 12.2344 20.25 12C20.25 11.8594 20.25 11.7188 20.3438 11.625C20.4375 11.4844 20.5312 11.3906 20.6719 11.3438C20.8125 11.25 21 11.25 21.1406 11.2969C21.2812 11.2969 21.4219 11.3906 21.5156 11.4844C21.6094 11.5781 21.7031 11.7188 21.7031 11.8594C21.75 12 21.7031 12.1875 21.6562 12.3281C21.6094 12.4219 21.5156 12.5625 21.375 12.6562C21.2812 12.75 21.1406 12.75 21 12.75C20.7656 12.75 20.5781 12.7031 20.4375 12.5625ZM24.1875 13.3125C24.0469 13.1719 24 12.9844 24 12.75C24 12.6094 24 12.4688 24.0938 12.375C24.1875 12.2344 24.2812 12.1406 24.4219 12.0938C24.5625 12 24.75 12 24.8906 12.0469C25.0312 12.0469 25.1719 12.1406 25.2656 12.2344C25.3594 12.3281 25.4531 12.4688 25.4531 12.6094C25.5 12.75 25.4531 12.9375 25.4062 13.0781C25.3594 13.1719 25.2656 13.3125 25.125 13.4062C25.0312 13.5 24.8906 13.5 24.75 13.5C24.5156 13.5 24.3281 13.4531 24.1875 13.3125ZM10.5 22.5C10.6875 22.5 10.875 22.5938 11.0156 22.7344C11.1562 22.875 11.25 23.0625 11.25 23.25C11.25 23.4844 11.1562 23.6719 11.0156 23.8125C10.875 23.9531 10.6875 24 10.5 24H4.5C4.07812 24.0469 3.75 23.8594 3.46875 23.625C3.1875 23.3438 3 23.0156 3 22.6406L1.5 7.5H0.75C0.515625 7.5 0.328125 7.45312 0.1875 7.3125C0.046875 7.17188 0 6.98438 0 6.75C0 6.5625 0.046875 6.375 0.1875 6.23438C0.328125 6.09375 0.515625 6 0.75 6H8.39062L9.60938 1.17188C9.70312 0.84375 9.89062 0.5625 10.125 0.328125C10.4062 0.140625 10.7344 0 11.0625 0H12.75C12.9375 0 13.125 0.09375 13.2656 0.234375C13.4062 0.375 13.5 0.5625 13.5 0.75C13.5 0.984375 13.4062 1.17188 13.2656 1.3125C13.125 1.45312 12.9375 1.5 12.75 1.5H11.0625L9.9375 6H15.75C15.9375 6 16.125 6.09375 16.2656 6.23438C16.4062 6.375 16.5 6.5625 16.5 6.75C16.5 6.98438 16.4062 7.17188 16.2656 7.3125C16.125 7.45312 15.9375 7.5 15.75 7.5H3L4.5 22.5H10.5ZM16.6875 13.3125C16.5469 13.1719 16.5 12.9844 16.5 12.75C16.5 12.6094 16.5 12.4688 16.5938 12.375C16.6875 12.2344 16.7812 12.1406 16.9219 12.0938C17.0625 12 17.25 12 17.3906 12.0469C17.5312 12.0469 17.6719 12.1406 17.7656 12.2344C17.8594 12.3281 17.9531 12.4688 17.9531 12.6094C18 12.75 17.9531 12.9375 17.9062 13.0781C17.8594 13.1719 17.7656 13.3125 17.625 13.4062C17.5312 13.5 17.3906 13.5 17.25 13.5C17.0156 13.5 16.8281 13.4531 16.6875 13.3125ZM29.25 19.5V21.5625C29.2031 22.2188 28.9688 22.8281 28.5 23.2969C28.0781 23.7656 27.4219 24 26.8125 24H15.1875C14.5312 24 13.875 23.7656 13.4531 23.2969C12.9844 22.8281 12.75 22.2188 12.75 21.5625V19.5C12.2344 18.9844 12 18.3281 12 17.625C12 16.9688 12.2344 16.3125 12.75 15.7969C12.75 15.7969 12.75 15.7969 12.75 15.75V13.875C12.75 13.3125 12.8438 12.75 13.125 12.1875C13.3594 11.6719 13.6875 11.2031 14.1094 10.7812C16.0312 9.1875 18.4688 8.29688 21 8.29688C23.4844 8.29688 25.9219 9.1875 27.8438 10.7812C28.2656 11.2031 28.5938 11.6719 28.8281 12.1875C29.1094 12.75 29.2031 13.3125 29.25 13.875V15.75C29.25 15.7969 29.25 15.7969 29.25 15.7969C29.7188 16.3125 30 16.9688 30 17.625C30 18.3281 29.7188 18.9844 29.25 19.5ZM14.25 15.0469C14.3438 15.0469 14.4844 15.0469 14.625 15H27.375C27.4688 15.0469 27.6094 15.0469 27.75 15.0469V13.875C27.7031 13.5 27.6094 13.125 27.4688 12.7969C27.2812 12.4219 27.0469 12.0938 26.7656 11.8594C23.9062 9 17.8125 9.1875 15.1875 11.8594C14.9062 12.0938 14.6719 12.4219 14.4844 12.7969C14.3438 13.125 14.25 13.5 14.25 13.875V15.0469ZM27.75 20.25C27.6094 20.25 27.4688 20.25 27.375 20.25H14.625C14.4844 20.25 14.3438 20.25 14.25 20.25V21.5625C14.25 21.8438 14.3438 22.0781 14.4844 22.2656C14.6719 22.4062 14.9062 22.5 15.1875 22.5H26.8125C27.0469 22.5 27.2812 22.4062 27.4688 22.2656C27.6094 22.0781 27.75 21.8438 27.75 21.5625V20.25ZM28.125 18.4219C28.3594 18.2344 28.5 17.9531 28.5 17.625C28.5 17.3438 28.3594 17.0625 28.125 16.8281C27.9375 16.6406 27.6562 16.5 27.375 16.5H14.625C14.2969 16.5 14.0156 16.6406 13.8281 16.8281C13.5938 17.0625 13.5 17.3438 13.5 17.625C13.5 17.9531 13.5938 18.2344 13.8281 18.4219C14.0156 18.6562 14.2969 18.75 14.625 18.75H27.375C27.6562 18.75 27.9375 18.6562 28.125 18.4219Z" fill="#E60009"/>
</svg>
