<svg width="24" height="24" viewBox="0 0 24 24" fill="none" xmlns="http://www.w3.org/2000/svg">
<path d="M2.25 18C1.82812 18 1.5 17.6719 1.5 17.25C1.5 11.7188 5.76562 7.21875 11.25 6.79688V4.5H9.75C9.32812 4.5 9 4.17188 9 3.75C9 3.375 9.32812 3 9.75 3H14.25C14.625 3 15 3.375 15 3.75C15 4.17188 14.625 4.5 14.25 4.5H12.75V6.79688C18.1875 7.21875 22.5 11.7188 22.5 17.25C22.5 17.6719 22.125 18 21.75 18C21.3281 18 21 17.6719 21 17.25C21 12.3281 16.9219 8.25 12 8.25C7.03125 8.25 3 12.3281 3 17.25C3 17.6719 2.625 18 2.25 18ZM23.25 19.5C23.625 19.5 24 19.875 24 20.25C24 20.6719 23.625 21 23.25 21H0.75C0.328125 21 0 20.6719 0 20.25C0 19.875 0.328125 19.5 0.75 19.5H23.25Z" fill="#E60009"/>
</svg>
