<svg width="24" height="24" viewBox="0 0 24 24" fill="none" xmlns="http://www.w3.org/2000/svg">
<path d="M23.2969 10.4531C23.7656 10.875 23.9531 11.4375 24 12C24 12.5625 23.7656 13.125 23.2969 13.5469L13.5469 23.3438C13.125 23.7656 12.5625 24 12 24C11.3906 24 10.8281 23.8125 10.4062 23.3438L0.65625 13.5938C0.1875 13.1719 0 12.6094 0 12C0 11.4375 0.1875 10.875 0.65625 10.4531L10.4062 0.703125C10.8281 0.234375 11.3438 0 11.9531 0C12.5156 0 13.0781 0.234375 13.5469 0.65625L23.2969 10.4531ZM22.2656 12.5625C22.5469 12.2344 22.5469 11.7656 22.2656 11.4844L12.5156 1.73438C12.3281 1.54688 12.0938 1.5 12 1.5C11.8594 1.5 11.625 1.54688 11.4375 1.73438L1.6875 11.4844C1.40625 11.8125 1.40625 12.2812 1.6875 12.5625L11.4375 22.3125C11.625 22.5 11.8594 22.5 12 22.5C12.0938 22.5 12.3281 22.5 12.5156 22.3125L22.2656 12.5625ZM14.7656 6.98438L18.5156 10.7344C18.7969 11.0156 18.7969 11.5312 18.5156 11.8125L14.7656 15.5625C14.625 15.7031 14.4375 15.75 14.25 15.75C14.0156 15.75 13.8281 15.7031 13.6875 15.5625C13.4062 15.2812 13.4062 14.7656 13.6875 14.4844L16.1719 12H11.25C10.8281 12 10.4531 12.375 10.5 12.75V15.75C10.5 16.1719 10.125 16.5 9.75 16.5C9.32812 16.5 9 16.1719 9 15.75V12.75C9 11.5312 9.98438 10.5 11.25 10.5H16.1719L13.6875 8.0625C13.4062 7.78125 13.4062 7.26562 13.6875 6.98438C13.9688 6.70312 14.4844 6.70312 14.7656 6.98438Z" fill="#E60009"/>
</svg>
