<svg width="24" height="24" viewBox="0 0 24 24" fill="none" xmlns="http://www.w3.org/2000/svg">
<path d="M22.4531 22.1719C22.6875 23.1094 21.9375 24 20.9531 24H3C2.01562 24 1.26562 23.1094 1.5 22.1719C2.10938 19.7344 4.26562 18 6.79688 18H17.1562C19.6406 18 21.8438 19.7344 22.4531 22.1719ZM3 22.5H20.9531C20.4844 20.7656 18.8906 19.5 17.1094 19.5H6.79688C5.01562 19.5 3.42188 20.7656 3 22.5ZM16.5938 10.5C16.5938 10.125 16.9219 9.75 17.3438 9.75C17.7656 9.75 18.0938 10.125 18.0938 10.5C18.0938 13.8281 15.375 16.5 12.0938 16.5C8.76562 16.5 6.09375 13.8281 6.09375 10.5C6.09375 10.125 6.42188 9.75 6.84375 9.75C7.26562 9.75 7.59375 10.125 7.59375 10.5C7.59375 12.9844 9.60938 15 12.0938 15C14.5781 15 16.5938 12.9844 16.5938 10.5ZM5.25 8.25C4.82812 8.25 4.5 7.92188 4.5 7.5C4.5 7.125 4.82812 6.75 5.25 6.75L6 6.79688C6 6.79688 6 6.75 6 6.79688C6 3.70312 8.29688 1.21875 11.2969 0.84375V0.75C11.2969 0.375 11.625 0 12.0469 0C12.4688 0 12.7969 0.375 12.7969 0.75V0.84375C15.75 1.21875 18.0469 3.70312 18.0469 6.75H18.8438C19.2188 6.75 19.5938 7.125 19.5938 7.5C19.5938 7.92188 19.2188 8.25 18.8438 8.25H5.25ZM12.7969 2.34375V6.75H16.5469C16.5469 4.54688 14.9062 2.71875 12.7969 2.34375ZM7.5 6.75H11.2969V2.29688C9.14062 2.67188 7.5 4.5 7.5 6.75Z" fill="#E60009"/>
</svg>
