<svg width="24" height="24" viewBox="0 0 24 24" fill="none" xmlns="http://www.w3.org/2000/svg">
<path d="M22.2656 14.8125C22.5938 15.5156 22.5469 16.3125 22.125 16.9688C21.8438 17.3906 21.4219 17.7188 21 17.8594V23.25C21 23.6719 20.625 24 20.25 24C19.8281 24 19.5 23.6719 19.5 23.25L19.4531 18H4.45312L4.5 23.25C4.5 23.6719 4.07812 24 3.70312 24C3.28125 24 2.95312 23.6719 2.95312 23.25L3 17.8594C2.53125 17.7188 2.10938 17.3906 1.82812 16.9688C1.40625 16.3594 1.35938 15.5156 1.6875 14.8125L2.39062 13.3125C2.76562 12.5156 3.5625 12 4.40625 12H4.45312L4.5 5.25C4.5 2.39062 6.84375 0 9.75 0H14.25C17.1094 0 19.5 2.39062 19.5 5.25L19.4531 12H19.5469C20.3906 12 21.1875 12.5156 21.5625 13.3125L22.2656 14.8125ZM15 1.59375V12H18V5.25C18 3.46875 16.6875 1.96875 15 1.59375ZM10.5 1.5V12H13.5V1.5H10.5ZM6 5.25V12H9V1.59375C7.26562 1.96875 6 3.46875 6 5.25ZM20.2031 16.5C20.7656 16.5 21.1406 15.9375 20.9062 15.4688L20.2031 13.9688C20.1094 13.6875 19.8281 13.5 19.5469 13.5H4.40625C4.125 13.5 3.84375 13.6875 3.75 13.9688L3.04688 15.4688C2.8125 15.9375 3.1875 16.5 3.75 16.5H20.2031Z" fill="#E60009"/>
</svg>
