<svg width="24" height="24" viewBox="0 0 24 24" fill="none" xmlns="http://www.w3.org/2000/svg">
<path d="M12 12C8.67188 12 6 9.32812 6 6C6 2.71875 8.67188 0 12 0C15.2812 0 18 2.71875 18 6C18 9.32812 15.2812 12 12 12ZM12 1.5C9.51562 1.5 7.5 3.5625 7.5 6C7.5 8.48438 9.51562 10.5 12 10.5C14.4375 10.5 16.5 8.48438 16.5 6C16.5 3.5625 14.4375 1.5 12 1.5ZM14.3438 14.25C18.8438 14.25 22.5 17.9062 22.5 22.4062C22.5 23.2969 21.75 24 20.8594 24H3.09375C2.20312 24 1.5 23.2969 1.5 22.4062C1.5 17.9062 5.10938 14.25 9.60938 14.25H14.3438ZM20.8594 22.5C20.9062 22.5 21 22.4531 21 22.4062C21 18.75 18 15.75 14.3438 15.75H9.60938C5.95312 15.75 3 18.75 3 22.4062C3 22.4531 3.04688 22.5 3.09375 22.5H20.8594Z" fill="#E60009"/>
</svg>
