<svg width="24" height="24" viewBox="0 0 24 24" fill="none" xmlns="http://www.w3.org/2000/svg">
<path d="M17.25 22.5C17.625 22.5 18 22.875 18 23.25C18 23.6719 17.625 24 17.25 24H6C3.46875 24 1.5 22.0312 1.5 19.5V5.25C1.5 4.875 1.82812 4.5 2.25 4.5C2.625 4.5 3 4.875 3 5.25V19.5C3 21.1875 4.3125 22.5 6 22.5H17.25ZM21.6094 5.34375C22.1719 5.90625 22.5 6.65625 22.5 7.45312V16.5C22.5 18.1875 21.1406 19.5 19.5 19.5H9C7.3125 19.5 6 18.1875 6 16.5V3C6 1.35938 7.3125 0 9 0H15.0469C15.8438 0 16.5938 0.328125 17.1562 0.890625L21.6094 5.34375ZM16.5 2.34375V5.25C16.5 5.67188 16.8281 6 17.25 6H20.1562L16.5 2.34375ZM21 16.5V7.5H17.25C15.9844 7.5 15 6.51562 15 5.25V1.5H9C8.15625 1.5 7.5 2.20312 7.5 3V16.5C7.5 17.3438 8.15625 18 9 18H19.5C20.2969 18 21 17.3438 21 16.5ZM15.4688 8.90625V10.7812H17.3438C17.7188 10.7812 18 11.0625 18 11.3906V12.6562C18 12.9844 17.7188 13.2656 17.3438 13.2656H15.4688V15.1406C15.4688 15.5156 15.1875 15.7969 14.8594 15.7969H13.5938C13.2656 15.7969 12.9844 15.5156 12.9844 15.1406V13.2656H11.1094C10.7344 13.2656 10.5 12.9844 10.5 12.6562V11.3906C10.5 11.0625 10.7344 10.7812 11.1094 10.7812H12.9844V8.90625C12.9844 8.53125 13.2656 8.25 13.5938 8.25H14.8594C15.1875 8.25 15.4688 8.53125 15.4688 8.90625Z" fill="#E60009"/>
</svg>
