<svg width="25" height="25" viewBox="0 0 25 25" fill="none" xmlns="http://www.w3.org/2000/svg">
<path d="M12.3906 15.9375C11.9219 16.4062 12.0156 16.3125 11.8281 17.0156C11.6406 17.6719 11.125 18.1875 10.4688 18.375C10.1875 18.4688 10.0938 18.4688 10 18.5156V23.25C10 23.5312 9.85938 23.7656 9.625 23.9062C9.48438 24 9.34375 24 9.25 24C9.10938 24 9.01562 24 8.875 23.9531L7 22.9688L5.07812 23.9531C4.84375 24.0469 4.5625 24.0469 4.32812 23.9062C4.09375 23.7656 3.95312 23.5312 3.95312 23.25V18.5156C3.85938 18.4688 3.76562 18.4219 3.48438 18.3281C2.82812 18.1875 2.3125 17.625 2.125 16.9688C1.9375 16.3125 2.03125 16.4062 1.5625 15.9375C1.04688 15.4219 0.859375 14.7188 1.04688 14.0156C1.1875 13.4062 1.23438 13.6406 1.04688 13.0312C0.859375 12.3281 1.04688 11.625 1.5625 11.1094C1.98438 10.6406 1.98438 10.7344 2.125 10.0781C2.3125 9.42188 2.82812 8.85938 3.48438 8.71875C4.14062 8.53125 4.04688 8.57812 4.51562 8.10938C4.98438 7.59375 5.73438 7.40625 6.39062 7.59375C7.04688 7.78125 6.90625 7.78125 7.5625 7.59375C8.21875 7.40625 8.96875 7.59375 9.4375 8.10938C9.90625 8.57812 9.8125 8.53125 10.4688 8.71875C11.125 8.85938 11.6406 9.42188 11.8281 10.0781C11.9688 10.7344 11.9688 10.6406 12.3906 11.1094C12.9062 11.625 13.0938 12.3281 12.9062 13.0312C12.7188 13.6406 12.7656 13.4062 12.8594 14.0156C13.0469 14.7188 12.8594 15.4219 12.3906 15.9375ZM8.5 22.0781V19.4531C8.17188 19.5469 7.84375 19.5469 7.5625 19.4531C6.90625 19.2656 7.04688 19.2656 6.39062 19.4531C6.10938 19.5469 5.78125 19.5469 5.45312 19.4531V22.0781L6.625 21.4688C6.85938 21.375 7.09375 21.375 7.32812 21.4688L8.5 22.0781ZM11.4062 14.2031C11.2188 13.5938 11.2188 13.4531 11.4062 12.8438C11.5 12.4688 11.5469 12.375 11.2188 12.0469C10.7031 11.4844 10.6094 11.3906 10.4219 10.6406C10.3281 10.2656 10.2812 10.2188 9.90625 10.0781C9.15625 9.89062 9.01562 9.84375 8.5 9.28125C8.21875 9 8.17188 8.95312 7.79688 9.09375C7.04688 9.28125 6.90625 9.28125 6.15625 9.09375C5.78125 8.95312 5.73438 9 5.45312 9.28125C4.9375 9.84375 4.79688 9.89062 4.04688 10.0781C3.67188 10.2188 3.625 10.2656 3.53125 10.6406C3.34375 11.3906 3.25 11.4844 2.73438 12.0469C2.40625 12.375 2.45312 12.4688 2.54688 12.8438C2.73438 13.4531 2.73438 13.5938 2.54688 14.2031C2.45312 14.5781 2.40625 14.6719 2.73438 15C3.29688 15.5625 3.34375 15.6562 3.57812 16.5469C3.67188 16.8281 3.85938 16.875 4.04688 16.9219C4.79688 17.1562 4.9375 17.2031 5.45312 17.7656C5.73438 18.0469 5.78125 18.0469 6.15625 17.9531C6.90625 17.7656 7.04688 17.7656 7.79688 17.9531C8.17188 18.0469 8.21875 18.0469 8.5 17.7656C9.01562 17.2031 9.15625 17.1562 9.90625 16.9219C10.0938 16.875 10.3281 16.8281 10.375 16.5469C10.6094 15.6562 10.6562 15.5625 11.2188 15C11.5469 14.6719 11.5 14.5781 11.4062 14.2031ZM24.1094 5.90625C24.6719 6.46875 25 7.21875 24.9531 8.01562V21C24.9531 22.6875 23.5938 24 21.9531 24H12.25C11.8281 24 11.5 23.6719 11.5 23.25C11.5 22.875 11.8281 22.5 12.25 22.5H22C22.7969 22.5 23.5 21.8438 23.5 21V9H18.25C16.9844 9 16 8.01562 16 6.75V1.5H10C9.15625 1.5 8.5 2.20312 8.5 3V5.25C8.5 5.67188 8.125 6 7.75 6C7.32812 6 7 5.67188 7 5.25L6.95312 3C6.95312 1.35938 8.26562 0 9.95312 0H16.9844C17.7812 0 18.5312 0.328125 19.0938 0.890625L24.1094 5.90625ZM18.25 7.5H23.3594C23.3125 7.3125 23.2188 7.125 23.0312 6.9375L18.0625 1.96875C17.875 1.78125 17.6875 1.6875 17.5 1.64062V6.75C17.5 7.17188 17.8281 7.5 18.25 7.5Z" fill="#E60009"/>
</svg>
