<svg width="26" height="24" viewBox="0 0 26 24" fill="none" xmlns="http://www.w3.org/2000/svg">
<path d="M24.7969 4.45312C25.3047 5.23438 25.5391 6.17188 25.4609 7.10938C25.3047 9.10156 24.0547 11.1719 22.3359 12.3828L9.36719 21.25C8.15625 22.0703 6.67188 22.5 5.22656 22.5C4.60156 22.5 3.97656 22.4219 3.39062 22.2266C2.49219 21.9531 1.71094 21.3672 1.16406 20.5859C0.65625 19.8047 0.421875 18.8672 0.5 17.8906C0.65625 15.9375 1.90625 13.8672 3.625 12.6562L16.5938 3.78906C17.8047 2.96875 19.2891 2.5 20.7344 2.5C21.3594 2.5 21.9844 2.61719 22.5703 2.8125C23.4688 3.08594 24.25 3.67188 24.7969 4.45312ZM21.6328 11.3281C23.0391 10.3516 24.0938 8.63281 24.2109 7.03125C24.2891 6.36719 24.0938 5.70312 23.7422 5.15625C23.3906 4.60938 22.8438 4.17969 22.2188 3.98438C21.75 3.82812 21.2422 3.75 20.7344 3.75C19.5234 3.75 18.2734 4.14062 17.2969 4.84375L15.1484 6.28906L17.1797 8.32031C17.4141 8.55469 17.4141 8.98438 17.1797 9.21875C17.0625 9.33594 16.9062 9.375 16.75 9.375C16.5547 9.375 16.3984 9.33594 16.2812 9.21875L14.0938 7.03125L10.6953 9.33594L12.8047 11.4453C13.0391 11.6797 13.0391 12.1094 12.8047 12.3438C12.6875 12.4609 12.5312 12.5 12.375 12.5C12.1797 12.5 12.0234 12.4609 11.9062 12.3438L9.64062 10.0781L6.24219 12.3828L8.42969 14.5703C8.66406 14.8047 8.66406 15.2344 8.42969 15.4688C8.3125 15.5859 8.15625 15.625 8 15.625C7.80469 15.625 7.64844 15.5859 7.53125 15.4688L5.1875 13.125L4.32812 13.7109C2.92188 14.6875 1.86719 16.4062 1.75 18.0078C1.67188 18.6719 1.86719 19.3359 2.21875 19.8828C2.57031 20.4297 3.11719 20.8594 3.74219 21.0547C4.21094 21.2109 4.71875 21.25 5.22656 21.25C6.4375 21.25 7.6875 20.8984 8.66406 20.1953L21.6328 11.3281Z" fill="#E60009"/>
</svg>
