<svg width="24" height="24" viewBox="0 0 24 24" fill="none" xmlns="http://www.w3.org/2000/svg">
<path d="M17.9063 2.90991H6.09232C5.34232 2.90991 4.73633 3.5159 4.73633 4.2659V19.7339C4.73633 20.4839 5.34232 21.0899 6.09232 21.0899H17.9063C18.6563 21.0899 19.2623 20.4839 19.2623 19.7339V4.2659C19.2623 3.5159 18.6563 2.90991 17.9063 2.90991ZM15.3083 14.5559L11.0963 18.7679L8.68432 16.3559C8.34832 16.0199 8.34832 15.4739 8.68432 15.1379C9.02032 14.8019 9.56632 14.8019 9.90232 15.1379L11.0963 16.3319L14.0903 13.3379C14.4263 13.0019 14.9723 13.0019 15.3083 13.3379C15.6503 13.6739 15.6503 14.2139 15.3083 14.5559ZM16.1723 10.8959H7.82032C7.37032 10.8959 7.00433 10.5299 7.00433 10.0799C7.00433 9.6299 7.37032 9.26391 7.82032 9.26391H16.1723C16.6223 9.26391 16.9883 9.6299 16.9883 10.0799C16.9883 10.5359 16.6223 10.8959 16.1723 10.8959ZM16.1723 7.0259H7.82032C7.37032 7.0259 7.00433 6.65991 7.00433 6.20991C7.00433 5.75991 7.37032 5.3939 7.82032 5.3939H16.1723C16.6223 5.3939 16.9883 5.75991 16.9883 6.20991C16.9883 6.65991 16.6223 7.0259 16.1723 7.0259Z" fill="#FF333B"/>
</svg>
