<svg width="29" height="24" viewBox="0 0 29 24" fill="none" xmlns="http://www.w3.org/2000/svg">
<path d="M22.3438 5.57812C24.9688 8.53125 25.2031 13.2188 22.9062 15.8438C20.0469 19.125 15.7812 20.9531 11.1875 20.9531C7.90625 20.9531 4.10938 19.875 3.59375 17.4375C3.45312 16.7812 3.45312 15.0938 6.125 13.9219C10.1094 12.1875 12.5469 9.89062 13.3438 7.03125L13.3906 6.9375C14.0938 4.54688 15.8281 3.04688 17.75 3.04688C19.2969 3.04688 20.8906 3.9375 22.3438 5.57812ZM21.7812 14.8594C23.5625 12.7969 23.3281 8.95312 21.2188 6.5625C20.0469 5.25 18.8281 4.5 17.75 4.5C16.4844 4.5 15.3594 5.625 14.8438 7.40625C14.5625 8.34375 13.5781 12.3281 6.73438 15.3281C2.89062 17.0156 6.26562 19.4531 11.1875 19.4531C14.6094 19.4531 18.7812 18.2812 21.7812 14.8594ZM18.5 9C19.2969 9 20 9.70312 20 10.5C20 11.3438 19.2969 12 18.5 12C17.6562 12 17 11.3438 17 10.5C17 9.70312 17.6562 9 18.5 9ZM24.5938 3.60938C28.2031 7.6875 28.4375 14.0625 25.1562 17.8125C21.2656 22.2656 16.5781 23.8594 12.5 24C12.2188 24 11.9375 24 11.7031 24C6.40625 24 0.40625 21.9375 0.5 16.5C0.546875 9.98438 8.1875 12.6562 10.5312 6.09375C11.6094 2.4375 14.4688 0 17.75 0C20 0 22.3906 1.125 24.5938 3.60938ZM24.0312 16.8281C26.8438 13.6406 26.6094 8.15625 23.4688 4.59375C21.7344 2.57812 19.7188 1.5 17.75 1.5C15.125 1.5 12.8281 3.46875 11.9375 6.51562V6.5625C10.625 10.3594 7.76562 11.5781 5.51562 12.5625C3.07812 13.6406 2 14.2031 2 16.5C1.95312 17.8594 2.42188 18.9375 3.3125 19.875C4.95312 21.5156 8.09375 22.5 11.7031 22.5C11.9375 22.5 12.1719 22.5 12.4062 22.5C15.5469 22.4062 20.0938 21.3281 24.0312 16.8281Z" fill="#E60009"/>
</svg>
