<svg width="28" height="24" viewBox="0 0 28 24" fill="none" xmlns="http://www.w3.org/2000/svg">
<path d="M20 5.25C20 4.875 20.3281 4.5 20.75 4.5C21.125 4.5 21.5 4.875 21.5 5.25C21.5 5.67188 21.125 6 20.75 6C20.3281 6 20 5.67188 20 5.25ZM2.60938 7.5C3.03125 7.96875 3.64062 8.25 4.29688 8.25H14.8438L16.0156 1.17188C16.1562 0.515625 16.7188 0 17.4219 0C17.8438 0 18.2656 0.234375 18.5 0.5625L19.25 1.5H21.3125C21.875 1.5 22.4844 1.78125 22.9062 2.20312L23.75 3H25.25C26.4688 3 27.5 4.03125 27.5 5.25V6C27.5 8.48438 25.4844 10.5 23 10.5H20.9844L20.75 12V21.375C20.75 22.8281 19.5312 24 18.125 24H17.375C15.9219 24 14.75 22.8281 14.75 21.375V17.625C14.2344 17.7656 13.7656 17.8594 13.25 17.9531C12.875 18 12.5 18 12.125 18C11.7031 18 11.3281 18 11 17.9531C10.4375 17.8594 9.96875 17.7656 9.5 17.625V21.375C9.5 22.8281 8.28125 24 6.875 24H6.125C4.67188 24 3.5 22.8281 3.5 21.375V9.75C3.5 9.75 3.5 9.70312 3.5 9.65625C3.45312 9.65625 3.40625 9.65625 3.35938 9.65625C2.09375 9.32812 1.01562 8.29688 0.6875 6.9375L0.5 6.1875C0.40625 5.8125 0.640625 5.39062 1.0625 5.29688C1.4375 5.20312 1.85938 5.4375 1.95312 5.85938L2.14062 6.5625C2.14062 6.60938 2.1875 6.70312 2.1875 6.75C2.28125 7.03125 2.42188 7.26562 2.60938 7.5ZM16.25 15.5625V21.375C16.25 22.0312 16.7188 22.5 17.375 22.5H18.125C18.7344 22.5 19.25 22.0312 19.25 21.375V12.2812L14.8906 9.75H5V21.375C5 22.0312 5.46875 22.5 6.125 22.5H6.875C7.48438 22.5 8 22.0312 8 21.375V15.5625L9.92188 16.1719C10.625 16.4062 11.3281 16.5 12.125 16.5C12.875 16.5 13.5781 16.4062 14.2812 16.1719L16.25 15.5625ZM19.7188 9H23C24.6406 9 26 7.6875 26 6V5.25C26 4.875 25.625 4.5 25.25 4.5H23.0938L21.8281 3.23438C21.6875 3.09375 21.5 3 21.3125 3H18.5L17.4688 1.6875L16.2969 8.85938L19.4375 10.6875L19.7188 9Z" fill="#E60009"/>
</svg>
