<svg width="24" height="24" viewBox="0 0 24 24" fill="none" xmlns="http://www.w3.org/2000/svg">
<path d="M21.375 12.4219C20.6719 13.125 19.7344 13.5 18.75 13.5H5.25C4.3125 13.5 3.375 13.1719 2.71875 12.5156C2.01562 11.9062 1.59375 11.0156 1.5 10.0781C1.45312 9.14062 1.73438 8.20312 2.29688 7.5C2.85938 6.75 3.70312 6.23438 4.59375 6.09375C4.96875 4.35938 5.85938 2.85938 7.21875 1.73438C8.53125 0.65625 10.2188 0.046875 11.9531 0.046875C13.6875 0.046875 15.375 0.65625 16.7344 1.73438C18.0938 2.85938 18.9844 4.35938 19.3125 6.09375C20.2031 6.23438 21 6.65625 21.5625 7.35938C22.1719 8.01562 22.4531 8.85938 22.5 9.75C22.5 10.7812 22.0781 11.7188 21.375 12.4219ZM20.2031 11.3906C20.625 11.0156 20.8594 10.5 20.9062 9.9375C20.9531 9.42188 20.8125 8.85938 20.4844 8.39062C20.1094 7.96875 19.6406 7.6875 19.0781 7.54688L18.0469 7.40625L17.8594 6.375C17.5781 5.01562 16.875 3.79688 15.7969 2.90625C14.7188 2.01562 13.3594 1.54688 12 1.54688C10.5938 1.54688 9.23438 2.01562 8.15625 2.90625C7.07812 3.79688 6.375 5.01562 6.09375 6.375L5.90625 7.40625L4.875 7.54688C4.3125 7.6875 3.84375 7.96875 3.46875 8.39062C3.14062 8.85938 3 9.42188 3.04688 9.9375C3.09375 10.5 3.32812 11.0156 3.75 11.3906C4.125 11.7656 4.64062 12 5.20312 12H18.75C19.3125 12 19.8281 11.7656 20.2031 11.3906ZM17.25 15.75C17.2031 15.8906 17.2031 15.9844 17.1562 16.125L13.875 22.6875C13.7344 23.0625 13.4531 23.3906 13.125 23.625C12.7969 23.8594 12.375 24 12 24C11.5781 24 11.1562 23.8594 10.8281 23.625C10.5 23.3906 10.2188 23.0625 10.0781 22.6875L6.79688 16.0781C6.70312 15.9375 6.70312 15.7031 6.75 15.5156C6.84375 15.3281 6.98438 15.1875 7.125 15.0938C7.3125 15 7.54688 15 7.73438 15.0469C7.92188 15.1406 8.0625 15.2344 8.15625 15.4219L11.3906 22.0312C11.4375 22.1719 11.5312 22.2656 11.625 22.3594C11.7188 22.4062 11.8594 22.4531 12 22.5C12.0938 22.4531 12.2344 22.4062 12.3281 22.3594C12.4219 22.2656 12.5156 22.1719 12.5625 22.0312L15.7969 15.4219C15.8906 15.2812 16.0312 15.1406 16.1719 15.0938C16.3125 15 16.5 15 16.6406 15.0469C16.8281 15.0938 16.9688 15.1875 17.0625 15.2812C17.1562 15.4219 17.25 15.6094 17.25 15.75Z" fill="#E60009"/>
</svg>
