<svg width="24" height="24" viewBox="0 0 24 24" fill="none" xmlns="http://www.w3.org/2000/svg">
<path d="M21.8438 3.9375C22.6875 4.3125 23.25 5.10938 23.25 6C23.25 18.1875 14.2969 24 11.9531 24C9.60938 24 0.75 18.0938 0.75 6C0.75 5.10938 1.26562 4.3125 2.10938 3.9375L11.1094 0.1875C11.3906 0.09375 11.6719 0 12 0C12.2812 0 12.5625 0.09375 12.8438 0.1875L21.8438 3.9375ZM21.7031 6.04688C21.7031 5.90625 21.7031 5.53125 21.2812 5.34375L12.2812 1.59375C12.1875 1.54688 12.0938 1.5 12 1.5C11.8594 1.5 11.7656 1.54688 11.6719 1.59375L2.67188 5.34375C2.39062 5.4375 2.25 5.71875 2.25 6C2.25 16.5469 9.98438 22.5 12 22.5C13.9219 22.5 21.7031 16.5938 21.7031 6.04688ZM12 7.125C13.4062 7.125 14.625 8.34375 14.625 9.75C14.625 10.9688 13.8281 11.9531 12.75 12.2812V15.75C12.75 16.1719 12.375 16.5 12 16.5C11.5781 16.5 11.25 16.1719 11.25 15.75V12.2812C10.125 11.9531 9.375 10.9688 9.375 9.75C9.375 8.34375 10.5469 7.125 12 7.125ZM12 10.875C12.6094 10.875 13.125 10.4062 13.125 9.75C13.125 9.14062 12.6094 8.625 12 8.625C11.3438 8.625 10.875 9.14062 10.875 9.75C10.875 10.4062 11.3438 10.875 12 10.875Z" fill="#E60009"/>
</svg>
