<svg width="32" height="24" viewBox="0 0 32 24" fill="none" xmlns="http://www.w3.org/2000/svg">
<path d="M30.9531 7.40625C31.0469 8.01562 30.8594 8.57812 30.3438 9.04688L28 11.9531C27.25 12.8906 25.8438 13.0312 24.8594 12.2812L23.3594 11.1094V21C23.3594 22.6875 22.0469 24 20.4062 24H10.7031C9.0625 24 8.5 22.6875 8.5 21V11.1094L6.95312 12.2812C6.01562 13.0312 4.60938 12.8906 3.8125 11.9531L1.46875 9.04688C1.09375 8.57812 0.90625 8.01562 1 7.40625C1.04688 6.79688 1.375 6.28125 1.84375 5.90625L8.17188 0.890625C8.875 0.328125 9.8125 0 10.75 0H21.2031C22.1406 0 23.0781 0.328125 23.7812 0.890625L30.1094 5.90625C30.5781 6.28125 30.9062 6.79688 30.9531 7.40625ZM18.8594 1.5H13.0938C13.4219 2.8125 14.5938 3.75 16 3.75C17.3594 3.75 18.5312 2.8125 18.8594 1.5ZM29.3125 8.10938C29.4531 7.96875 29.5 7.78125 29.4531 7.59375C29.4531 7.40625 29.3594 7.21875 29.2188 7.07812L22.8906 2.10938C22.4219 1.73438 21.8125 1.5 21.2031 1.5H20.4062C20.0312 3.65625 18.2031 5.25 16 5.25C13.75 5.25 11.9219 3.65625 11.5469 1.5H10.75C10.1406 1.5 9.53125 1.73438 9.0625 2.10938L2.73438 7.07812C2.59375 7.21875 2.5 7.35938 2.5 7.59375C2.45312 7.78125 2.5 7.96875 2.64062 8.10938L4.98438 11.0156C5.21875 11.2969 5.73438 11.3438 6.0625 11.1094L10 8.01562V21C10 21.8438 9.90625 22.5 10.75 22.5H20.5C21.2969 22.5 22 21.8438 22 21V8.01562L25.9375 11.1094C26.2188 11.3438 26.7344 11.2969 26.9688 11.0156L29.3125 8.10938Z" fill="#E60009"/>
</svg>
